M48
;Layer_Color=9474304
;FILE_FORMAT=2:5
INCH,LZ
;TYPE=PLATED
T1F00S00C0.01181
T2F00S00C0.02953
T3F00S00C0.03150
T4F00S00C0.03543
T5F00S00C0.03937
;TYPE=NON_PLATED
T6F00S00C0.02362
T7F00S00C0.03150
T8F00S00C0.03740
T9F00S00C0.12598
%
T01
X0136319Y0086614
X0148425Y0099606
X0157087
X0174803Y010315
X0153937Y0130709
X0149606Y0141732
X0164567Y0147638
X0044488Y0135827
X0032283Y0147638
X0030118Y0112205
X0025591
X0036417Y0098425
X0042323
X0047638Y0089567
X0054134
X0048819Y0080315
X0050591Y0073425
X0045472Y0066535
X0033268
X0033465Y007126
X0029921Y0080905
X0024803Y0084646
X003937
X0047638Y0107283
X0054134
X0052756Y0112992
X0057087Y0114173
X0066929Y0063878
X0071653Y0052756
X0081496Y0042913
X0093799Y005374
X0092028Y0068898
X0096457Y0070866
X0087598Y0072835
X0085433Y0067323
X0048031Y0049213
X0109941Y0029626
X0143799Y0153347
T02
X0147795Y0041181
Y0061181
X0127795
T03
X0142638Y0010827
X0152638
X0162638
X0132638
X0113425Y0010827
X0103425
X0093425
X0083425
X0064213
X0054213
X0044213
X0034213
T04
X017126Y0035748
Y0045748
Y0055748
Y0065748
Y007874
Y008874
Y009874
Y010874
Y011874
Y012874
T05
X0028543Y0043228
Y0053228
T06
X0065354Y003878
Y004626
T07
X0026102Y0127165
X0036102
T08
X0136319Y0094488
Y0102362
Y0110236
Y011811
Y0125984
Y0133858
Y0141732
Y0149606
X0060532
X0060532Y0141732
X0060532Y0133858
X0060532Y0125984
Y011811
Y0110236
Y0102362
X0060532Y0094488
X0079405Y0078414
X0087205
X0095006
X0103006
X0110805
X0118806
T09
X0185039Y0011811
Y0149606
X0011811
Y0011811
M30
