G04 Layer_Physical_Order=1*
G04 Layer_Color=48896*
%FSLAX25Y25*%
%MOIN*%
G70*
G01*
G75*
%ADD10C,0.00787*%
%ADD11C,0.01378*%
%ADD12C,0.01575*%
%ADD13C,0.01181*%
%ADD14C,0.01969*%
%ADD15C,0.01378*%
%ADD16C,0.02362*%
%ADD17C,0.02756*%
%ADD18C,0.00787*%
%ADD19R,0.02362X0.03543*%
%ADD20R,0.02362X0.03937*%
%ADD21R,0.02756X0.05906*%
G04:AMPARAMS|DCode=22|XSize=74.8mil|YSize=125.98mil|CornerRadius=0mil|HoleSize=0mil|Usage=FLASHONLY|Rotation=0.000|XOffset=0mil|YOffset=0mil|HoleType=Round|Shape=Octagon|*
%AMOCTAGOND22*
4,1,8,-0.01870,0.06299,0.01870,0.06299,0.03740,0.04429,0.03740,-0.04429,0.01870,-0.06299,-0.01870,-0.06299,-0.03740,-0.04429,-0.03740,0.04429,-0.01870,0.06299,0.0*
%
%ADD22OCTAGOND22*%

%ADD23R,0.02362X0.05512*%
%ADD24R,0.02362X0.07087*%
%ADD25R,0.01378X0.06299*%
%ADD26R,0.05906X0.02756*%
G04:AMPARAMS|DCode=27|XSize=98.43mil|YSize=59.06mil|CornerRadius=7.38mil|HoleSize=0mil|Usage=FLASHONLY|Rotation=180.000|XOffset=0mil|YOffset=0mil|HoleType=Round|Shape=RoundedRectangle|*
%AMROUNDEDRECTD27*
21,1,0.09843,0.04429,0,0,180.0*
21,1,0.08366,0.05906,0,0,180.0*
1,1,0.01476,-0.04183,0.02215*
1,1,0.01476,0.04183,0.02215*
1,1,0.01476,0.04183,-0.02215*
1,1,0.01476,-0.04183,-0.02215*
%
%ADD27ROUNDEDRECTD27*%
G04:AMPARAMS|DCode=28|XSize=118.11mil|YSize=78.74mil|CornerRadius=3.94mil|HoleSize=0mil|Usage=FLASHONLY|Rotation=90.000|XOffset=0mil|YOffset=0mil|HoleType=Round|Shape=RoundedRectangle|*
%AMROUNDEDRECTD28*
21,1,0.11811,0.07087,0,0,90.0*
21,1,0.11024,0.07874,0,0,90.0*
1,1,0.00787,0.03543,0.05512*
1,1,0.00787,0.03543,-0.05512*
1,1,0.00787,-0.03543,-0.05512*
1,1,0.00787,-0.03543,0.05512*
%
%ADD28ROUNDEDRECTD28*%
%ADD29R,0.03543X0.02362*%
G04:AMPARAMS|DCode=30|XSize=118.11mil|YSize=78.74mil|CornerRadius=3.94mil|HoleSize=0mil|Usage=FLASHONLY|Rotation=180.000|XOffset=0mil|YOffset=0mil|HoleType=Round|Shape=RoundedRectangle|*
%AMROUNDEDRECTD30*
21,1,0.11811,0.07087,0,0,180.0*
21,1,0.11024,0.07874,0,0,180.0*
1,1,0.00787,-0.05512,0.03543*
1,1,0.00787,0.05512,0.03543*
1,1,0.00787,0.05512,-0.03543*
1,1,0.00787,-0.05512,-0.03543*
%
%ADD30ROUNDEDRECTD30*%
%ADD31R,0.03937X0.03543*%
%ADD32R,0.08465X0.12795*%
%ADD33R,0.08465X0.03543*%
%ADD34R,0.03937X0.08858*%
%ADD35R,0.08858X0.03937*%
%ADD36R,0.01575X0.05315*%
%ADD37C,0.03150*%
%ADD38C,0.00984*%
%ADD39C,0.05118*%
%ADD40R,0.05906X0.05906*%
%ADD41C,0.05906*%
G04:AMPARAMS|DCode=42|XSize=59.06mil|YSize=59.06mil|CornerRadius=14.76mil|HoleSize=0mil|Usage=FLASHONLY|Rotation=180.000|XOffset=0mil|YOffset=0mil|HoleType=Round|Shape=RoundedRectangle|*
%AMROUNDEDRECTD42*
21,1,0.05906,0.02953,0,0,180.0*
21,1,0.02953,0.05906,0,0,180.0*
1,1,0.02953,-0.01476,0.01476*
1,1,0.02953,0.01476,0.01476*
1,1,0.02953,0.01476,-0.01476*
1,1,0.02953,-0.01476,-0.01476*
%
%ADD42ROUNDEDRECTD42*%
G04:AMPARAMS|DCode=43|XSize=59.06mil|YSize=59.06mil|CornerRadius=14.76mil|HoleSize=0mil|Usage=FLASHONLY|Rotation=90.000|XOffset=0mil|YOffset=0mil|HoleType=Round|Shape=RoundedRectangle|*
%AMROUNDEDRECTD43*
21,1,0.05906,0.02953,0,0,90.0*
21,1,0.02953,0.05906,0,0,90.0*
1,1,0.02953,0.01476,0.01476*
1,1,0.02953,0.01476,-0.01476*
1,1,0.02953,-0.01476,-0.01476*
1,1,0.02953,-0.01476,0.01476*
%
%ADD43ROUNDEDRECTD43*%
%ADD44C,0.05906*%
%ADD45C,0.05906*%
%ADD46R,0.05906X0.05906*%
%ADD47C,0.12598*%
%ADD48C,0.05118*%
%ADD49C,0.03937*%
%ADD50C,0.02756*%
G36*
X62205Y79134D02*
X65748D01*
Y75197D01*
X64567Y74016D01*
Y68110D01*
X61811D01*
Y74803D01*
X58661Y77953D01*
Y81102D01*
X60236D01*
X62205Y79134D01*
D02*
G37*
G36*
X26378Y82284D02*
X34646D01*
Y76772D01*
X32283D01*
Y79528D01*
X22441D01*
Y82284D01*
X23622D01*
Y90945D01*
X26378D01*
Y82284D01*
D02*
G37*
G36*
X57087Y108268D02*
X57087Y99606D01*
X61024Y95669D01*
Y89567D01*
X61024Y86614D01*
X55118Y86614D01*
X44291Y86614D01*
X34449Y96457D01*
X30512D01*
Y99410D01*
X40354Y109252D01*
X56102D01*
X57087Y108268D01*
D02*
G37*
G36*
X1121080Y-64032D02*
Y-64318D01*
Y-64605D01*
Y-64891D01*
Y-65177D01*
Y-65464D01*
Y-65750D01*
Y-66036D01*
Y-66322D01*
Y-66609D01*
Y-66895D01*
Y-67181D01*
Y-67468D01*
Y-67754D01*
Y-68040D01*
Y-68327D01*
Y-68613D01*
Y-68899D01*
Y-69186D01*
Y-69472D01*
Y-69758D01*
X1120793D01*
Y-70044D01*
Y-70331D01*
Y-70617D01*
Y-70903D01*
Y-71190D01*
X1120507D01*
Y-71476D01*
Y-71762D01*
Y-72049D01*
Y-72335D01*
X1120221D01*
Y-72621D01*
Y-72908D01*
Y-73194D01*
Y-73480D01*
X1119934D01*
Y-73767D01*
Y-74053D01*
Y-74339D01*
X1119648D01*
Y-74625D01*
Y-74912D01*
Y-75198D01*
X1119362D01*
Y-75485D01*
Y-75771D01*
Y-76057D01*
X1119075D01*
Y-76343D01*
Y-76630D01*
Y-76916D01*
X1118789D01*
Y-77202D01*
Y-77489D01*
X1118503D01*
Y-77775D01*
Y-78061D01*
X1118217D01*
Y-78348D01*
Y-78634D01*
Y-78920D01*
X1117930D01*
Y-79207D01*
Y-79493D01*
X1117644D01*
Y-79779D01*
Y-80066D01*
Y-80352D01*
X1117358D01*
Y-80638D01*
Y-80924D01*
X1117071D01*
Y-81211D01*
Y-81497D01*
Y-81783D01*
X1116785D01*
Y-82070D01*
Y-82356D01*
X1116499D01*
Y-82642D01*
Y-82929D01*
Y-83215D01*
X1116212D01*
Y-83501D01*
Y-83788D01*
X1115926D01*
Y-84074D01*
Y-84360D01*
Y-84646D01*
X1115640D01*
Y-84933D01*
Y-85219D01*
X1115353D01*
Y-85505D01*
Y-85792D01*
Y-86078D01*
X1115067D01*
Y-86364D01*
Y-86651D01*
X1114781D01*
Y-86937D01*
Y-87223D01*
Y-87510D01*
X1114494D01*
Y-87796D01*
Y-88082D01*
X1114208D01*
Y-88369D01*
Y-88655D01*
Y-88941D01*
X1113922D01*
Y-89227D01*
Y-89514D01*
X1113636D01*
Y-89800D01*
Y-90086D01*
Y-90373D01*
X1113349D01*
Y-90659D01*
Y-90945D01*
X1113063D01*
Y-91232D01*
Y-91518D01*
Y-91804D01*
X1112776D01*
Y-92091D01*
Y-92377D01*
X1112490D01*
Y-92663D01*
Y-92950D01*
Y-93236D01*
X1112204D01*
Y-93522D01*
Y-93809D01*
X1111918D01*
Y-94095D01*
Y-94381D01*
Y-94667D01*
X1111631D01*
Y-94954D01*
Y-95240D01*
X1111345D01*
Y-95526D01*
Y-95813D01*
Y-96099D01*
X1111059D01*
Y-96385D01*
Y-96672D01*
X1110772D01*
Y-96958D01*
Y-97244D01*
Y-97531D01*
X1110486D01*
Y-97817D01*
Y-98103D01*
X1110200D01*
Y-98390D01*
Y-98676D01*
Y-98962D01*
X1109913D01*
Y-99248D01*
Y-99535D01*
X1109627D01*
Y-99821D01*
Y-100107D01*
Y-100394D01*
X1109341D01*
Y-100680D01*
Y-100966D01*
X1109054D01*
Y-101253D01*
Y-101539D01*
X1108768D01*
Y-101825D01*
Y-102112D01*
X1108482D01*
Y-102398D01*
Y-102684D01*
Y-102971D01*
X1108195D01*
Y-103257D01*
X1107909D01*
Y-103543D01*
Y-103829D01*
Y-104116D01*
X1107623D01*
Y-104402D01*
X1107337D01*
Y-104688D01*
Y-104975D01*
X1107050D01*
Y-105261D01*
Y-105547D01*
X1106764D01*
Y-105834D01*
Y-106120D01*
X1106478D01*
Y-106406D01*
Y-106693D01*
X1106191D01*
Y-106979D01*
X1105905D01*
Y-107265D01*
Y-107552D01*
X1105619D01*
Y-107838D01*
Y-108124D01*
X1105332D01*
Y-108411D01*
X1105046D01*
Y-108697D01*
X1104760D01*
Y-108983D01*
Y-109269D01*
X1104473D01*
Y-109556D01*
X1104187D01*
Y-109842D01*
Y-110128D01*
X1103901D01*
Y-110415D01*
X1103615D01*
Y-110701D01*
X1103328D01*
Y-110987D01*
Y-111274D01*
X1103042D01*
Y-111560D01*
X1102756D01*
Y-111846D01*
X1102469D01*
Y-112133D01*
X1102183D01*
Y-112419D01*
X1101897D01*
Y-112705D01*
Y-112991D01*
X1101610D01*
Y-113278D01*
X1101324D01*
Y-113564D01*
X1101038D01*
Y-113850D01*
X1100751D01*
Y-114137D01*
X1100465D01*
Y-114423D01*
X1100179D01*
Y-114709D01*
X1099892D01*
Y-114996D01*
X1099320D01*
Y-115282D01*
X1099034D01*
Y-115568D01*
X1098747D01*
Y-115855D01*
X1098461D01*
Y-116141D01*
X1098175D01*
Y-116427D01*
X1097602D01*
Y-116714D01*
X1097316D01*
Y-117000D01*
X1096743D01*
Y-117286D01*
X1096457D01*
Y-117572D01*
X1095884D01*
Y-117859D01*
X1095598D01*
Y-118145D01*
X1095025D01*
Y-118431D01*
X1094452D01*
Y-118718D01*
X1093880D01*
Y-119004D01*
X1093307D01*
Y-119290D01*
X1092735D01*
Y-119577D01*
X1091876D01*
Y-119863D01*
X1091303D01*
Y-120149D01*
X1090444D01*
Y-120436D01*
X1089299D01*
Y-120722D01*
X1088154D01*
Y-121008D01*
X1086436D01*
Y-121294D01*
X1084432D01*
Y-121581D01*
X1084145D01*
Y-121294D01*
Y-121008D01*
Y-120722D01*
Y-120436D01*
Y-120149D01*
Y-119863D01*
Y-119577D01*
Y-119290D01*
Y-119004D01*
Y-118718D01*
Y-118431D01*
Y-118145D01*
Y-117859D01*
Y-117572D01*
Y-117286D01*
Y-117000D01*
Y-116714D01*
Y-116427D01*
Y-116141D01*
Y-115855D01*
Y-115568D01*
Y-115282D01*
Y-114996D01*
Y-114709D01*
Y-114423D01*
Y-114137D01*
Y-113850D01*
Y-113564D01*
Y-113278D01*
Y-112991D01*
Y-112705D01*
Y-112419D01*
Y-112133D01*
X1084718D01*
Y-111846D01*
X1085291D01*
Y-111560D01*
X1085863D01*
Y-111274D01*
X1086436D01*
Y-110987D01*
X1087008D01*
Y-110701D01*
X1087581D01*
Y-110415D01*
X1087867D01*
Y-110128D01*
X1088440D01*
Y-109842D01*
X1088726D01*
Y-109556D01*
X1089299D01*
Y-109269D01*
X1089585D01*
Y-108983D01*
X1089872D01*
Y-108697D01*
X1090444D01*
Y-108411D01*
X1090730D01*
Y-108124D01*
X1091017D01*
Y-107838D01*
X1091303D01*
Y-107552D01*
X1091589D01*
Y-107265D01*
X1091876D01*
Y-106979D01*
X1092162D01*
Y-106693D01*
X1092448D01*
Y-106406D01*
X1092735D01*
Y-106120D01*
X1093021D01*
Y-105834D01*
X1093307D01*
Y-105547D01*
X1093594D01*
Y-105261D01*
Y-104975D01*
X1093880D01*
Y-104688D01*
X1094166D01*
Y-104402D01*
X1094452D01*
Y-104116D01*
Y-103829D01*
X1094739D01*
Y-103543D01*
X1095025D01*
Y-103257D01*
Y-102971D01*
X1095311D01*
Y-102684D01*
Y-102398D01*
X1095598D01*
Y-102112D01*
X1095884D01*
Y-101825D01*
Y-101539D01*
X1096170D01*
Y-101253D01*
Y-100966D01*
X1096457D01*
Y-100680D01*
Y-100394D01*
X1094739D01*
Y-100107D01*
X1092735D01*
Y-99821D01*
X1091589D01*
Y-99535D01*
X1091017D01*
Y-99248D01*
X1090158D01*
Y-98962D01*
X1089585D01*
Y-98676D01*
X1089299D01*
Y-98390D01*
X1088726D01*
Y-98103D01*
X1088440D01*
Y-97817D01*
X1088154D01*
Y-97531D01*
X1087867D01*
Y-97244D01*
X1087581D01*
Y-96958D01*
X1087295D01*
Y-96672D01*
Y-96385D01*
X1087008D01*
Y-96099D01*
X1086722D01*
Y-95813D01*
Y-95526D01*
X1086436D01*
Y-95240D01*
Y-94954D01*
X1086149D01*
Y-94667D01*
Y-94381D01*
X1085863D01*
Y-94095D01*
Y-93809D01*
Y-93522D01*
X1085577D01*
Y-93236D01*
Y-92950D01*
Y-92663D01*
Y-92377D01*
X1085291D01*
Y-92091D01*
Y-91804D01*
Y-91518D01*
Y-91232D01*
Y-90945D01*
Y-90659D01*
Y-90373D01*
X1085004D01*
Y-90086D01*
Y-89800D01*
Y-89514D01*
Y-89227D01*
Y-88941D01*
Y-88655D01*
Y-88369D01*
Y-88082D01*
Y-87796D01*
Y-87510D01*
Y-87223D01*
Y-86937D01*
Y-86651D01*
Y-86364D01*
Y-86078D01*
X1084718D01*
Y-85792D01*
Y-85505D01*
Y-85219D01*
Y-84933D01*
Y-84646D01*
Y-84360D01*
Y-84074D01*
Y-83788D01*
Y-83501D01*
Y-83215D01*
Y-82929D01*
Y-82642D01*
Y-82356D01*
Y-82070D01*
Y-81783D01*
X1084432D01*
Y-81497D01*
Y-81211D01*
Y-80924D01*
Y-80638D01*
Y-80352D01*
Y-80066D01*
Y-79779D01*
Y-79493D01*
Y-79207D01*
Y-78920D01*
Y-78634D01*
Y-78348D01*
Y-78061D01*
Y-77775D01*
Y-77489D01*
Y-77202D01*
X1084145D01*
Y-76916D01*
Y-76630D01*
Y-76343D01*
Y-76057D01*
Y-75771D01*
Y-75485D01*
Y-75198D01*
Y-74912D01*
Y-74625D01*
Y-74339D01*
Y-74053D01*
Y-73767D01*
Y-73480D01*
Y-73194D01*
Y-72908D01*
Y-72621D01*
X1083859D01*
Y-72335D01*
Y-72049D01*
Y-71762D01*
Y-71476D01*
Y-71190D01*
Y-70903D01*
Y-70617D01*
Y-70331D01*
Y-70044D01*
Y-69758D01*
Y-69472D01*
Y-69186D01*
Y-68899D01*
Y-68613D01*
X1083573D01*
Y-68327D01*
Y-68040D01*
Y-67754D01*
Y-67468D01*
Y-67181D01*
Y-66895D01*
Y-66609D01*
Y-66322D01*
Y-66036D01*
Y-65750D01*
Y-65464D01*
Y-65177D01*
Y-64891D01*
Y-64605D01*
Y-64318D01*
Y-64032D01*
X1083286D01*
Y-63746D01*
X1097029D01*
Y-64032D01*
Y-64318D01*
Y-64605D01*
Y-64891D01*
Y-65177D01*
Y-65464D01*
Y-65750D01*
Y-66036D01*
Y-66322D01*
Y-66609D01*
Y-66895D01*
Y-67181D01*
Y-67468D01*
Y-67754D01*
X1097316D01*
Y-68040D01*
Y-68327D01*
Y-68613D01*
Y-68899D01*
Y-69186D01*
Y-69472D01*
Y-69758D01*
Y-70044D01*
Y-70331D01*
Y-70617D01*
Y-70903D01*
Y-71190D01*
Y-71476D01*
Y-71762D01*
Y-72049D01*
Y-72335D01*
Y-72621D01*
Y-72908D01*
Y-73194D01*
Y-73480D01*
Y-73767D01*
Y-74053D01*
Y-74339D01*
Y-74625D01*
Y-74912D01*
Y-75198D01*
Y-75485D01*
Y-75771D01*
Y-76057D01*
Y-76343D01*
Y-76630D01*
Y-76916D01*
Y-77202D01*
Y-77489D01*
Y-77775D01*
Y-78061D01*
Y-78348D01*
Y-78634D01*
Y-78920D01*
Y-79207D01*
Y-79493D01*
X1097602D01*
Y-79779D01*
X1097316D01*
Y-80066D01*
Y-80352D01*
X1097602D01*
Y-80638D01*
Y-80924D01*
Y-81211D01*
Y-81497D01*
Y-81783D01*
Y-82070D01*
Y-82356D01*
Y-82642D01*
Y-82929D01*
Y-83215D01*
Y-83501D01*
Y-83788D01*
Y-84074D01*
Y-84360D01*
Y-84646D01*
Y-84933D01*
Y-85219D01*
Y-85505D01*
Y-85792D01*
Y-86078D01*
Y-86364D01*
Y-86651D01*
Y-86937D01*
Y-87223D01*
Y-87510D01*
Y-87796D01*
X1097888D01*
Y-88082D01*
Y-88369D01*
Y-88655D01*
X1098175D01*
Y-88941D01*
X1098461D01*
Y-89227D01*
X1098747D01*
Y-89514D01*
X1099606D01*
Y-89800D01*
X1100465D01*
Y-89514D01*
X1100751D01*
Y-89227D01*
Y-88941D01*
Y-88655D01*
X1101038D01*
Y-88369D01*
Y-88082D01*
X1101324D01*
Y-87796D01*
Y-87510D01*
Y-87223D01*
X1101610D01*
Y-86937D01*
Y-86651D01*
Y-86364D01*
X1101897D01*
Y-86078D01*
Y-85792D01*
Y-85505D01*
X1102183D01*
Y-85219D01*
Y-84933D01*
Y-84646D01*
X1102469D01*
Y-84360D01*
Y-84074D01*
X1102756D01*
Y-83788D01*
Y-83501D01*
Y-83215D01*
X1103042D01*
Y-82929D01*
Y-82642D01*
Y-82356D01*
X1103328D01*
Y-82070D01*
Y-81783D01*
Y-81497D01*
X1103615D01*
Y-81211D01*
Y-80924D01*
X1103901D01*
Y-80638D01*
Y-80352D01*
Y-80066D01*
X1104187D01*
Y-79779D01*
Y-79493D01*
Y-79207D01*
X1104473D01*
Y-78920D01*
Y-78634D01*
Y-78348D01*
X1104760D01*
Y-78061D01*
Y-77775D01*
X1105046D01*
Y-77489D01*
Y-77202D01*
Y-76916D01*
X1105332D01*
Y-76630D01*
Y-76343D01*
Y-76057D01*
X1105619D01*
Y-75771D01*
Y-75485D01*
Y-75198D01*
X1105905D01*
Y-74912D01*
Y-74625D01*
X1106191D01*
Y-74339D01*
Y-74053D01*
Y-73767D01*
X1106478D01*
Y-73480D01*
Y-73194D01*
Y-72908D01*
X1106764D01*
Y-72621D01*
Y-72335D01*
Y-72049D01*
X1107050D01*
Y-71762D01*
Y-71476D01*
Y-71190D01*
Y-70903D01*
X1107337D01*
Y-70617D01*
Y-70331D01*
Y-70044D01*
Y-69758D01*
X1107623D01*
Y-69472D01*
Y-69186D01*
Y-68899D01*
Y-68613D01*
Y-68327D01*
X1107909D01*
Y-68040D01*
Y-67754D01*
Y-67468D01*
Y-67181D01*
Y-66895D01*
Y-66609D01*
X1108195D01*
Y-66322D01*
Y-66036D01*
Y-65750D01*
Y-65464D01*
Y-65177D01*
Y-64891D01*
Y-64605D01*
Y-64318D01*
Y-64032D01*
Y-63746D01*
X1121080D01*
Y-64032D01*
D02*
G37*
G36*
X1063244Y-46567D02*
Y-46853D01*
X1062958D01*
Y-47139D01*
Y-47426D01*
Y-47712D01*
Y-47998D01*
Y-48285D01*
Y-48571D01*
X1062672D01*
Y-48857D01*
Y-49144D01*
Y-49430D01*
Y-49716D01*
Y-50003D01*
Y-50289D01*
X1062385D01*
Y-50575D01*
Y-50862D01*
Y-51148D01*
Y-51434D01*
Y-51720D01*
Y-52007D01*
Y-52293D01*
X1062099D01*
Y-52579D01*
Y-52866D01*
Y-53152D01*
Y-53438D01*
Y-53725D01*
Y-54011D01*
X1061813D01*
Y-54297D01*
Y-54584D01*
Y-54870D01*
Y-55156D01*
Y-55443D01*
Y-55729D01*
X1061526D01*
Y-56015D01*
Y-56301D01*
Y-56588D01*
Y-56874D01*
Y-57161D01*
Y-57447D01*
Y-57733D01*
X1061240D01*
Y-58019D01*
Y-58306D01*
Y-58592D01*
Y-58878D01*
Y-59165D01*
Y-59451D01*
X1060954D01*
Y-59737D01*
Y-60024D01*
Y-60310D01*
Y-60596D01*
Y-60883D01*
Y-61169D01*
X1060668D01*
Y-61455D01*
Y-61742D01*
Y-62028D01*
Y-62314D01*
Y-62600D01*
Y-62887D01*
X1060381D01*
Y-63173D01*
Y-63459D01*
Y-63746D01*
Y-64032D01*
Y-64318D01*
Y-64605D01*
Y-64891D01*
X1060095D01*
Y-65177D01*
Y-65464D01*
Y-65750D01*
Y-66036D01*
Y-66322D01*
Y-66609D01*
X1059809D01*
Y-66895D01*
Y-67181D01*
X1060381D01*
Y-66895D01*
X1060668D01*
Y-66609D01*
X1060954D01*
Y-66322D01*
X1061526D01*
Y-66036D01*
X1061813D01*
Y-65750D01*
X1062099D01*
Y-65464D01*
X1062672D01*
Y-65177D01*
X1063244D01*
Y-64891D01*
X1063531D01*
Y-64605D01*
X1064103D01*
Y-64318D01*
X1064962D01*
Y-64032D01*
X1065535D01*
Y-63746D01*
X1066394D01*
Y-63459D01*
X1067825D01*
Y-63173D01*
X1074124D01*
Y-63459D01*
X1075270D01*
Y-63746D01*
X1076128D01*
Y-64032D01*
X1076701D01*
Y-64318D01*
X1076987D01*
Y-64605D01*
X1077560D01*
Y-64891D01*
X1077846D01*
Y-65177D01*
X1078133D01*
Y-65464D01*
X1078419D01*
Y-65750D01*
X1078705D01*
Y-66036D01*
Y-66322D01*
X1078992D01*
Y-66609D01*
Y-66895D01*
X1079278D01*
Y-67181D01*
Y-67468D01*
Y-67754D01*
X1079564D01*
Y-68040D01*
Y-68327D01*
Y-68613D01*
Y-68899D01*
X1079850D01*
Y-69186D01*
Y-69472D01*
Y-69758D01*
Y-70044D01*
Y-70331D01*
Y-70617D01*
Y-70903D01*
Y-71190D01*
Y-71476D01*
Y-71762D01*
Y-72049D01*
Y-72335D01*
Y-72621D01*
Y-72908D01*
Y-73194D01*
Y-73480D01*
Y-73767D01*
Y-74053D01*
X1079564D01*
Y-74339D01*
Y-74625D01*
Y-74912D01*
Y-75198D01*
Y-75485D01*
Y-75771D01*
Y-76057D01*
X1079278D01*
Y-76343D01*
Y-76630D01*
Y-76916D01*
Y-77202D01*
Y-77489D01*
Y-77775D01*
Y-78061D01*
X1078992D01*
Y-78348D01*
Y-78634D01*
Y-78920D01*
Y-79207D01*
Y-79493D01*
Y-79779D01*
X1078705D01*
Y-80066D01*
Y-80352D01*
Y-80638D01*
Y-80924D01*
Y-81211D01*
Y-81497D01*
X1078419D01*
Y-81783D01*
Y-82070D01*
Y-82356D01*
Y-82642D01*
Y-82929D01*
Y-83215D01*
X1078133D01*
Y-83501D01*
Y-83788D01*
Y-84074D01*
Y-84360D01*
Y-84646D01*
Y-84933D01*
Y-85219D01*
X1077846D01*
Y-85505D01*
Y-85792D01*
Y-86078D01*
Y-86364D01*
Y-86651D01*
Y-86937D01*
X1077560D01*
Y-87223D01*
Y-87510D01*
Y-87796D01*
Y-88082D01*
Y-88369D01*
Y-88655D01*
X1077274D01*
Y-88941D01*
Y-89227D01*
Y-89514D01*
Y-89800D01*
Y-90086D01*
Y-90373D01*
Y-90659D01*
X1076987D01*
Y-90945D01*
Y-91232D01*
Y-91518D01*
Y-91804D01*
Y-92091D01*
Y-92377D01*
X1076701D01*
Y-92663D01*
Y-92950D01*
Y-93236D01*
Y-93522D01*
Y-93809D01*
Y-94095D01*
X1076415D01*
Y-94381D01*
Y-94667D01*
Y-94954D01*
Y-95240D01*
Y-95526D01*
Y-95813D01*
X1076128D01*
Y-96099D01*
Y-96385D01*
Y-96672D01*
Y-96958D01*
Y-97244D01*
Y-97531D01*
Y-97817D01*
X1075842D01*
Y-98103D01*
Y-98390D01*
Y-98676D01*
Y-98962D01*
Y-99248D01*
Y-99535D01*
X1075556D01*
Y-99821D01*
Y-100107D01*
X1062385D01*
Y-99821D01*
Y-99535D01*
X1062672D01*
Y-99248D01*
Y-98962D01*
Y-98676D01*
Y-98390D01*
Y-98103D01*
Y-97817D01*
X1062958D01*
Y-97531D01*
Y-97244D01*
Y-96958D01*
Y-96672D01*
Y-96385D01*
Y-96099D01*
Y-95813D01*
X1063244D01*
Y-95526D01*
Y-95240D01*
Y-94954D01*
Y-94667D01*
Y-94381D01*
Y-94095D01*
X1063531D01*
Y-93809D01*
Y-93522D01*
Y-93236D01*
Y-92950D01*
Y-92663D01*
Y-92377D01*
X1063817D01*
Y-92091D01*
Y-91804D01*
Y-91518D01*
Y-91232D01*
Y-90945D01*
Y-90659D01*
Y-90373D01*
X1064103D01*
Y-90086D01*
Y-89800D01*
Y-89514D01*
Y-89227D01*
Y-88941D01*
Y-88655D01*
X1064390D01*
Y-88369D01*
Y-88082D01*
Y-87796D01*
Y-87510D01*
Y-87223D01*
Y-86937D01*
Y-86651D01*
X1064676D01*
Y-86364D01*
Y-86078D01*
Y-85792D01*
Y-85505D01*
Y-85219D01*
Y-84933D01*
X1064962D01*
Y-84646D01*
Y-84360D01*
Y-84074D01*
Y-83788D01*
Y-83501D01*
Y-83215D01*
X1065249D01*
Y-82929D01*
Y-82642D01*
Y-82356D01*
Y-82070D01*
Y-81783D01*
Y-81497D01*
X1065535D01*
Y-81211D01*
Y-80924D01*
Y-80638D01*
Y-80352D01*
Y-80066D01*
Y-79779D01*
Y-79493D01*
X1065821D01*
Y-79207D01*
Y-78920D01*
Y-78634D01*
Y-78348D01*
Y-78061D01*
Y-77775D01*
X1066107D01*
Y-77489D01*
Y-77202D01*
Y-76916D01*
Y-76630D01*
Y-76343D01*
Y-76057D01*
Y-75771D01*
X1066394D01*
Y-75485D01*
Y-75198D01*
Y-74912D01*
Y-74625D01*
Y-74339D01*
Y-74053D01*
X1066107D01*
Y-73767D01*
Y-73480D01*
X1065821D01*
Y-73194D01*
X1065535D01*
Y-72908D01*
X1064962D01*
Y-72621D01*
X1063244D01*
Y-72908D01*
X1061813D01*
Y-73194D01*
X1060954D01*
Y-73480D01*
X1060381D01*
Y-73767D01*
X1060095D01*
Y-74053D01*
X1059522D01*
Y-74339D01*
X1059236D01*
Y-74625D01*
X1058950D01*
Y-74912D01*
Y-75198D01*
X1058663D01*
Y-75485D01*
Y-75771D01*
Y-76057D01*
X1058377D01*
Y-76343D01*
Y-76630D01*
Y-76916D01*
Y-77202D01*
Y-77489D01*
Y-77775D01*
X1058091D01*
Y-78061D01*
Y-78348D01*
Y-78634D01*
Y-78920D01*
Y-79207D01*
Y-79493D01*
Y-79779D01*
X1057804D01*
Y-80066D01*
Y-80352D01*
Y-80638D01*
Y-80924D01*
Y-81211D01*
Y-81497D01*
X1057518D01*
Y-81783D01*
Y-82070D01*
Y-82356D01*
Y-82642D01*
Y-82929D01*
Y-83215D01*
X1057232D01*
Y-83501D01*
Y-83788D01*
Y-84074D01*
Y-84360D01*
Y-84646D01*
Y-84933D01*
X1056946D01*
Y-85219D01*
Y-85505D01*
Y-85792D01*
Y-86078D01*
Y-86364D01*
Y-86651D01*
Y-86937D01*
X1056659D01*
Y-87223D01*
Y-87510D01*
Y-87796D01*
Y-88082D01*
Y-88369D01*
Y-88655D01*
X1056373D01*
Y-88941D01*
Y-89227D01*
Y-89514D01*
Y-89800D01*
Y-90086D01*
Y-90373D01*
X1056087D01*
Y-90659D01*
Y-90945D01*
Y-91232D01*
Y-91518D01*
Y-91804D01*
Y-92091D01*
Y-92377D01*
X1055800D01*
Y-92663D01*
Y-92950D01*
Y-93236D01*
Y-93522D01*
Y-93809D01*
Y-94095D01*
X1055514D01*
Y-94381D01*
Y-94667D01*
Y-94954D01*
Y-95240D01*
Y-95526D01*
Y-95813D01*
X1055228D01*
Y-96099D01*
Y-96385D01*
Y-96672D01*
Y-96958D01*
Y-97244D01*
Y-97531D01*
X1054941D01*
Y-97817D01*
Y-98103D01*
Y-98390D01*
Y-98676D01*
Y-98962D01*
Y-99248D01*
Y-99535D01*
X1054655D01*
Y-99821D01*
Y-100107D01*
X1041485D01*
Y-99821D01*
Y-99535D01*
X1041771D01*
Y-99248D01*
Y-98962D01*
Y-98676D01*
Y-98390D01*
Y-98103D01*
Y-97817D01*
Y-97531D01*
X1042057D01*
Y-97244D01*
Y-96958D01*
Y-96672D01*
Y-96385D01*
Y-96099D01*
Y-95813D01*
X1042344D01*
Y-95526D01*
Y-95240D01*
Y-94954D01*
Y-94667D01*
Y-94381D01*
Y-94095D01*
X1042630D01*
Y-93809D01*
Y-93522D01*
Y-93236D01*
Y-92950D01*
Y-92663D01*
Y-92377D01*
Y-92091D01*
X1042916D01*
Y-91804D01*
Y-91518D01*
Y-91232D01*
Y-90945D01*
Y-90659D01*
Y-90373D01*
X1043202D01*
Y-90086D01*
Y-89800D01*
Y-89514D01*
Y-89227D01*
Y-88941D01*
Y-88655D01*
X1043489D01*
Y-88369D01*
Y-88082D01*
Y-87796D01*
Y-87510D01*
Y-87223D01*
Y-86937D01*
X1043775D01*
Y-86651D01*
Y-86364D01*
Y-86078D01*
Y-85792D01*
Y-85505D01*
Y-85219D01*
Y-84933D01*
X1044061D01*
Y-84646D01*
Y-84360D01*
Y-84074D01*
Y-83788D01*
Y-83501D01*
Y-83215D01*
X1044348D01*
Y-82929D01*
Y-82642D01*
Y-82356D01*
Y-82070D01*
Y-81783D01*
Y-81497D01*
X1044634D01*
Y-81211D01*
Y-80924D01*
Y-80638D01*
Y-80352D01*
Y-80066D01*
Y-79779D01*
Y-79493D01*
X1044920D01*
Y-79207D01*
Y-78920D01*
Y-78634D01*
Y-78348D01*
Y-78061D01*
Y-77775D01*
X1045207D01*
Y-77489D01*
Y-77202D01*
Y-76916D01*
Y-76630D01*
Y-76343D01*
Y-76057D01*
X1045493D01*
Y-75771D01*
Y-75485D01*
Y-75198D01*
Y-74912D01*
Y-74625D01*
Y-74339D01*
X1045779D01*
Y-74053D01*
Y-73767D01*
Y-73480D01*
Y-73194D01*
Y-72908D01*
Y-72621D01*
Y-72335D01*
X1046066D01*
Y-72049D01*
Y-71762D01*
Y-71476D01*
Y-71190D01*
Y-70903D01*
Y-70617D01*
X1046352D01*
Y-70331D01*
Y-70044D01*
Y-69758D01*
Y-69472D01*
Y-69186D01*
Y-68899D01*
X1046638D01*
Y-68613D01*
Y-68327D01*
Y-68040D01*
Y-67754D01*
Y-67468D01*
Y-67181D01*
X1046925D01*
Y-66895D01*
Y-66609D01*
Y-66322D01*
Y-66036D01*
Y-65750D01*
Y-65464D01*
Y-65177D01*
X1047211D01*
Y-64891D01*
Y-64605D01*
Y-64318D01*
Y-64032D01*
Y-63746D01*
Y-63459D01*
X1047497D01*
Y-63173D01*
Y-62887D01*
Y-62600D01*
Y-62314D01*
Y-62028D01*
Y-61742D01*
X1047783D01*
Y-61455D01*
Y-61169D01*
Y-60883D01*
Y-60596D01*
Y-60310D01*
Y-60024D01*
Y-59737D01*
X1048070D01*
Y-59451D01*
Y-59165D01*
Y-58878D01*
Y-58592D01*
Y-58306D01*
Y-58019D01*
X1048356D01*
Y-57733D01*
Y-57447D01*
Y-57161D01*
Y-56874D01*
Y-56588D01*
Y-56301D01*
X1048642D01*
Y-56015D01*
Y-55729D01*
Y-55443D01*
Y-55156D01*
Y-54870D01*
Y-54584D01*
X1048929D01*
Y-54297D01*
Y-54011D01*
Y-53725D01*
Y-53438D01*
Y-53152D01*
Y-52866D01*
Y-52579D01*
X1049215D01*
Y-52293D01*
Y-52007D01*
Y-51720D01*
Y-51434D01*
Y-51148D01*
Y-50862D01*
X1049501D01*
Y-50575D01*
Y-50289D01*
Y-50003D01*
Y-49716D01*
Y-49430D01*
Y-49144D01*
X1049788D01*
Y-48857D01*
Y-48571D01*
Y-48285D01*
Y-47998D01*
Y-47712D01*
Y-47426D01*
Y-47139D01*
X1050074D01*
Y-46853D01*
Y-46567D01*
Y-46281D01*
X1063244D01*
Y-46567D01*
D02*
G37*
G36*
X1032036Y-50003D02*
X1033754D01*
Y-50289D01*
X1034613D01*
Y-50575D01*
X1035472D01*
Y-50862D01*
X1036331D01*
Y-51148D01*
X1036904D01*
Y-51434D01*
X1037190D01*
Y-51720D01*
X1037763D01*
Y-52007D01*
X1038049D01*
Y-52293D01*
X1038622D01*
Y-52579D01*
X1038908D01*
Y-52866D01*
X1039194D01*
Y-53152D01*
X1039480D01*
Y-53438D01*
X1039767D01*
Y-53725D01*
X1040053D01*
Y-54011D01*
X1040339D01*
Y-54297D01*
Y-54584D01*
X1040626D01*
Y-54870D01*
X1040912D01*
Y-55156D01*
Y-55443D01*
X1041198D01*
Y-55729D01*
X1041485D01*
Y-56015D01*
Y-56301D01*
X1041771D01*
Y-56588D01*
Y-56874D01*
Y-57161D01*
X1042057D01*
Y-57447D01*
Y-57733D01*
Y-58019D01*
X1042344D01*
Y-58306D01*
Y-58592D01*
Y-58878D01*
Y-59165D01*
X1042630D01*
Y-59451D01*
Y-59737D01*
Y-60024D01*
Y-60310D01*
Y-60596D01*
X1042916D01*
Y-60883D01*
Y-61169D01*
Y-61455D01*
Y-61742D01*
Y-62028D01*
Y-62314D01*
Y-62600D01*
Y-62887D01*
Y-63173D01*
Y-63459D01*
Y-63746D01*
Y-64032D01*
Y-64318D01*
Y-64605D01*
Y-64891D01*
Y-65177D01*
Y-65464D01*
Y-65750D01*
Y-66036D01*
Y-66322D01*
X1042630D01*
Y-66609D01*
Y-66895D01*
Y-67181D01*
Y-67468D01*
Y-67754D01*
Y-68040D01*
Y-68327D01*
X1042344D01*
Y-68613D01*
Y-68899D01*
Y-69186D01*
Y-69472D01*
Y-69758D01*
X1042057D01*
Y-70044D01*
Y-70331D01*
Y-70617D01*
Y-70903D01*
Y-71190D01*
X1041771D01*
Y-71476D01*
Y-71762D01*
Y-72049D01*
X1041485D01*
Y-72335D01*
Y-72621D01*
Y-72908D01*
Y-73194D01*
X1041198D01*
Y-73480D01*
Y-73767D01*
Y-74053D01*
X1040912D01*
Y-74339D01*
Y-74625D01*
X1040626D01*
Y-74912D01*
Y-75198D01*
Y-75485D01*
X1040339D01*
Y-75771D01*
Y-76057D01*
X1040053D01*
Y-76343D01*
Y-76630D01*
X1039767D01*
Y-76916D01*
Y-77202D01*
X1039480D01*
Y-77489D01*
X1039194D01*
Y-77775D01*
Y-78061D01*
X1038908D01*
Y-78348D01*
X1038622D01*
Y-78634D01*
X1038335D01*
Y-78920D01*
Y-79207D01*
X1038049D01*
Y-79493D01*
X1037763D01*
Y-79779D01*
X1037476D01*
Y-80066D01*
X1037190D01*
Y-80352D01*
X1036904D01*
Y-80638D01*
X1036331D01*
Y-80924D01*
X1036045D01*
Y-81211D01*
X1035472D01*
Y-81497D01*
X1035186D01*
Y-81783D01*
X1034613D01*
Y-82070D01*
X1033754D01*
Y-82356D01*
X1032895D01*
Y-82642D01*
X1032036D01*
Y-82929D01*
X1030318D01*
Y-83215D01*
X1025165D01*
Y-82929D01*
X1022588D01*
Y-82642D01*
X1020584D01*
Y-82356D01*
X1019152D01*
Y-82070D01*
X1017721D01*
Y-81783D01*
X1016289D01*
Y-82070D01*
Y-82356D01*
Y-82642D01*
Y-82929D01*
Y-83215D01*
Y-83501D01*
Y-83788D01*
X1016003D01*
Y-84074D01*
Y-84360D01*
Y-84646D01*
Y-84933D01*
Y-85219D01*
Y-85505D01*
X1015716D01*
Y-85792D01*
Y-86078D01*
Y-86364D01*
Y-86651D01*
Y-86937D01*
Y-87223D01*
X1015430D01*
Y-87510D01*
Y-87796D01*
Y-88082D01*
Y-88369D01*
Y-88655D01*
Y-88941D01*
Y-89227D01*
X1015144D01*
Y-89514D01*
Y-89800D01*
Y-90086D01*
Y-90373D01*
Y-90659D01*
Y-90945D01*
X1014857D01*
Y-91232D01*
Y-91518D01*
Y-91804D01*
Y-92091D01*
Y-92377D01*
Y-92663D01*
X1014571D01*
Y-92950D01*
Y-93236D01*
Y-93522D01*
Y-93809D01*
Y-94095D01*
Y-94381D01*
Y-94667D01*
X1014285D01*
Y-94954D01*
Y-95240D01*
Y-95526D01*
Y-95813D01*
Y-96099D01*
Y-96385D01*
X1013999D01*
Y-96672D01*
Y-96958D01*
Y-97244D01*
Y-97531D01*
Y-97817D01*
Y-98103D01*
X1013712D01*
Y-98390D01*
Y-98676D01*
Y-98962D01*
Y-99248D01*
Y-99535D01*
Y-99821D01*
Y-100107D01*
X1000256D01*
Y-99821D01*
X1000542D01*
Y-99535D01*
Y-99248D01*
Y-98962D01*
Y-98676D01*
Y-98390D01*
X1000828D01*
Y-98103D01*
Y-97817D01*
Y-97531D01*
Y-97244D01*
Y-96958D01*
Y-96672D01*
Y-96385D01*
X1001114D01*
Y-96099D01*
Y-95813D01*
Y-95526D01*
Y-95240D01*
Y-94954D01*
Y-94667D01*
X1001401D01*
Y-94381D01*
Y-94095D01*
Y-93809D01*
Y-93522D01*
Y-93236D01*
Y-92950D01*
X1001687D01*
Y-92663D01*
Y-92377D01*
Y-92091D01*
Y-91804D01*
Y-91518D01*
Y-91232D01*
Y-90945D01*
X1001974D01*
Y-90659D01*
Y-90373D01*
Y-90086D01*
Y-89800D01*
Y-89514D01*
Y-89227D01*
X1002260D01*
Y-88941D01*
Y-88655D01*
Y-88369D01*
Y-88082D01*
Y-87796D01*
Y-87510D01*
X1002546D01*
Y-87223D01*
Y-86937D01*
Y-86651D01*
Y-86364D01*
Y-86078D01*
Y-85792D01*
X1002832D01*
Y-85505D01*
Y-85219D01*
Y-84933D01*
Y-84646D01*
Y-84360D01*
Y-84074D01*
Y-83788D01*
X1003119D01*
Y-83501D01*
Y-83215D01*
Y-82929D01*
Y-82642D01*
Y-82356D01*
Y-82070D01*
X1003405D01*
Y-81783D01*
Y-81497D01*
Y-81211D01*
Y-80924D01*
Y-80638D01*
Y-80352D01*
X1003691D01*
Y-80066D01*
Y-79779D01*
Y-79493D01*
Y-79207D01*
Y-78920D01*
Y-78634D01*
X1003978D01*
Y-78348D01*
Y-78061D01*
Y-77775D01*
Y-77489D01*
Y-77202D01*
Y-76916D01*
Y-76630D01*
X1004264D01*
Y-76343D01*
Y-76057D01*
Y-75771D01*
Y-75485D01*
Y-75198D01*
Y-74912D01*
X1004550D01*
Y-74625D01*
Y-74339D01*
Y-74053D01*
Y-73767D01*
Y-73480D01*
Y-73194D01*
X1004837D01*
Y-72908D01*
Y-72621D01*
Y-72335D01*
Y-72049D01*
Y-71762D01*
Y-71476D01*
Y-71190D01*
X1005123D01*
Y-70903D01*
Y-70617D01*
Y-70331D01*
Y-70044D01*
Y-69758D01*
Y-69472D01*
X1005409D01*
Y-69186D01*
Y-68899D01*
Y-68613D01*
Y-68327D01*
Y-68040D01*
Y-67754D01*
X1005696D01*
Y-67468D01*
Y-67181D01*
Y-66895D01*
Y-66609D01*
Y-66322D01*
Y-66036D01*
X1005982D01*
Y-65750D01*
Y-65464D01*
Y-65177D01*
Y-64891D01*
Y-64605D01*
Y-64318D01*
Y-64032D01*
X1006268D01*
Y-63746D01*
Y-63459D01*
Y-63173D01*
Y-62887D01*
Y-62600D01*
Y-62314D01*
X1006555D01*
Y-62028D01*
Y-61742D01*
Y-61455D01*
Y-61169D01*
Y-60883D01*
Y-60596D01*
X1006841D01*
Y-60310D01*
Y-60024D01*
Y-59737D01*
Y-59451D01*
Y-59165D01*
Y-58878D01*
Y-58592D01*
X1007127D01*
Y-58306D01*
Y-58019D01*
Y-57733D01*
Y-57447D01*
Y-57161D01*
Y-56874D01*
X1007413D01*
Y-56588D01*
Y-56301D01*
Y-56015D01*
Y-55729D01*
Y-55443D01*
Y-55156D01*
X1007700D01*
Y-54870D01*
Y-54584D01*
Y-54297D01*
Y-54011D01*
Y-53725D01*
Y-53438D01*
Y-53152D01*
X1007986D01*
Y-52866D01*
Y-52579D01*
Y-52293D01*
Y-52007D01*
Y-51720D01*
Y-51434D01*
X1008272D01*
Y-51148D01*
Y-50862D01*
Y-50575D01*
Y-50289D01*
Y-50003D01*
Y-49716D01*
X1032036D01*
Y-50003D01*
D02*
G37*
G36*
X1165172Y-64032D02*
X1164886D01*
Y-64318D01*
X1164599D01*
Y-64605D01*
Y-64891D01*
X1164313D01*
Y-65177D01*
X1164027D01*
Y-65464D01*
X1163740D01*
Y-65750D01*
Y-66036D01*
X1163454D01*
Y-66322D01*
X1163168D01*
Y-66609D01*
X1162881D01*
Y-66895D01*
X1162595D01*
Y-67181D01*
Y-67468D01*
X1162309D01*
Y-67754D01*
X1162022D01*
Y-68040D01*
X1161736D01*
Y-68327D01*
Y-68613D01*
X1161450D01*
Y-68899D01*
X1161163D01*
Y-69186D01*
X1160877D01*
Y-69472D01*
X1160591D01*
Y-69758D01*
Y-70044D01*
X1160305D01*
Y-70331D01*
X1160018D01*
Y-70617D01*
X1159732D01*
Y-70903D01*
Y-71190D01*
X1159445D01*
Y-71476D01*
X1159159D01*
Y-71762D01*
X1158873D01*
Y-72049D01*
Y-72335D01*
X1158587D01*
Y-72621D01*
X1158300D01*
Y-72908D01*
X1158014D01*
Y-73194D01*
X1157728D01*
Y-73480D01*
Y-73767D01*
X1157441D01*
Y-74053D01*
X1157155D01*
Y-74339D01*
X1156869D01*
Y-74625D01*
Y-74912D01*
X1156582D01*
Y-75198D01*
X1156296D01*
Y-75485D01*
X1156010D01*
Y-75771D01*
Y-76057D01*
X1155723D01*
Y-76343D01*
X1155437D01*
Y-76630D01*
X1155151D01*
Y-76916D01*
X1154865D01*
Y-77202D01*
Y-77489D01*
X1154578D01*
Y-77775D01*
X1154292D01*
Y-78061D01*
X1154006D01*
Y-78348D01*
Y-78634D01*
X1153719D01*
Y-78920D01*
X1153433D01*
Y-79207D01*
X1153147D01*
Y-79493D01*
Y-79779D01*
X1152860D01*
Y-80066D01*
X1152574D01*
Y-80352D01*
X1152288D01*
Y-80638D01*
X1152001D01*
Y-80924D01*
Y-81211D01*
X1151715D01*
Y-81497D01*
X1151429D01*
Y-81783D01*
X1151142D01*
Y-82070D01*
Y-82356D01*
X1150856D01*
Y-82642D01*
X1150570D01*
Y-82929D01*
X1150284D01*
Y-83215D01*
X1149997D01*
Y-83501D01*
Y-83788D01*
X1150284D01*
Y-84074D01*
Y-84360D01*
X1150570D01*
Y-84646D01*
Y-84933D01*
X1150856D01*
Y-85219D01*
X1151142D01*
Y-85505D01*
Y-85792D01*
X1151429D01*
Y-86078D01*
Y-86364D01*
X1151715D01*
Y-86651D01*
Y-86937D01*
X1152001D01*
Y-87223D01*
Y-87510D01*
X1152288D01*
Y-87796D01*
Y-88082D01*
X1152574D01*
Y-88369D01*
Y-88655D01*
X1152860D01*
Y-88941D01*
Y-89227D01*
X1153147D01*
Y-89514D01*
Y-89800D01*
X1153433D01*
Y-90086D01*
X1153719D01*
Y-90373D01*
Y-90659D01*
X1154006D01*
Y-90945D01*
Y-91232D01*
X1154292D01*
Y-91518D01*
Y-91804D01*
X1154578D01*
Y-92091D01*
Y-92377D01*
X1154865D01*
Y-92663D01*
Y-92950D01*
X1155151D01*
Y-93236D01*
Y-93522D01*
X1155437D01*
Y-93809D01*
Y-94095D01*
X1155723D01*
Y-94381D01*
X1156010D01*
Y-94667D01*
Y-94954D01*
X1156296D01*
Y-95240D01*
Y-95526D01*
X1156582D01*
Y-95813D01*
Y-96099D01*
X1156869D01*
Y-96385D01*
Y-96672D01*
X1157155D01*
Y-96958D01*
Y-97244D01*
X1157441D01*
Y-97531D01*
Y-97817D01*
X1157728D01*
Y-98103D01*
Y-98390D01*
X1158014D01*
Y-98676D01*
X1158300D01*
Y-98962D01*
Y-99248D01*
X1158587D01*
Y-99535D01*
Y-99821D01*
X1158873D01*
Y-100107D01*
X1143698D01*
Y-99821D01*
X1143412D01*
Y-99535D01*
Y-99248D01*
Y-98962D01*
X1143126D01*
Y-98676D01*
Y-98390D01*
Y-98103D01*
X1142839D01*
Y-97817D01*
Y-97531D01*
X1142553D01*
Y-97244D01*
Y-96958D01*
Y-96672D01*
X1142267D01*
Y-96385D01*
Y-96099D01*
Y-95813D01*
X1141980D01*
Y-95526D01*
Y-95240D01*
X1141694D01*
Y-94954D01*
Y-94667D01*
Y-94381D01*
X1141408D01*
Y-94095D01*
Y-93809D01*
Y-93522D01*
X1141121D01*
Y-93236D01*
Y-92950D01*
Y-92663D01*
X1140835D01*
Y-92377D01*
X1140263D01*
Y-92663D01*
Y-92950D01*
X1139976D01*
Y-93236D01*
X1139690D01*
Y-93522D01*
Y-93809D01*
X1139404D01*
Y-94095D01*
X1139117D01*
Y-94381D01*
Y-94667D01*
X1138831D01*
Y-94954D01*
X1138545D01*
Y-95240D01*
Y-95526D01*
X1138258D01*
Y-95813D01*
X1137972D01*
Y-96099D01*
X1137686D01*
Y-96385D01*
Y-96672D01*
X1137399D01*
Y-96958D01*
X1137113D01*
Y-97244D01*
Y-97531D01*
X1136827D01*
Y-97817D01*
X1136541D01*
Y-98103D01*
Y-98390D01*
X1136254D01*
Y-98676D01*
X1135968D01*
Y-98962D01*
Y-99248D01*
X1135682D01*
Y-99535D01*
X1135395D01*
Y-99821D01*
Y-100107D01*
X1119362D01*
Y-99821D01*
X1119648D01*
Y-99535D01*
X1119934D01*
Y-99248D01*
X1120221D01*
Y-98962D01*
X1120507D01*
Y-98676D01*
Y-98390D01*
X1120793D01*
Y-98103D01*
X1121080D01*
Y-97817D01*
X1121366D01*
Y-97531D01*
X1121652D01*
Y-97244D01*
Y-96958D01*
X1121939D01*
Y-96672D01*
X1122225D01*
Y-96385D01*
X1122511D01*
Y-96099D01*
Y-95813D01*
X1122797D01*
Y-95526D01*
X1123084D01*
Y-95240D01*
X1123370D01*
Y-94954D01*
X1123656D01*
Y-94667D01*
Y-94381D01*
X1123943D01*
Y-94095D01*
X1124229D01*
Y-93809D01*
X1124515D01*
Y-93522D01*
X1124802D01*
Y-93236D01*
Y-92950D01*
X1125088D01*
Y-92663D01*
X1125374D01*
Y-92377D01*
X1125661D01*
Y-92091D01*
Y-91804D01*
X1125947D01*
Y-91518D01*
X1126233D01*
Y-91232D01*
X1126519D01*
Y-90945D01*
X1126806D01*
Y-90659D01*
Y-90373D01*
X1127092D01*
Y-90086D01*
X1127378D01*
Y-89800D01*
X1127665D01*
Y-89514D01*
Y-89227D01*
X1127951D01*
Y-88941D01*
X1128237D01*
Y-88655D01*
X1128524D01*
Y-88369D01*
X1128810D01*
Y-88082D01*
Y-87796D01*
X1129096D01*
Y-87510D01*
X1129383D01*
Y-87223D01*
X1129669D01*
Y-86937D01*
Y-86651D01*
X1129955D01*
Y-86364D01*
X1130242D01*
Y-86078D01*
X1130528D01*
Y-85792D01*
X1130814D01*
Y-85505D01*
Y-85219D01*
X1131100D01*
Y-84933D01*
X1131387D01*
Y-84646D01*
X1131673D01*
Y-84360D01*
X1131960D01*
Y-84074D01*
Y-83788D01*
X1132246D01*
Y-83501D01*
X1132532D01*
Y-83215D01*
X1132818D01*
Y-82929D01*
Y-82642D01*
X1133105D01*
Y-82356D01*
X1133391D01*
Y-82070D01*
X1133677D01*
Y-81783D01*
X1133964D01*
Y-81497D01*
Y-81211D01*
X1134250D01*
Y-80924D01*
Y-80638D01*
Y-80352D01*
X1133964D01*
Y-80066D01*
X1133677D01*
Y-79779D01*
Y-79493D01*
X1133391D01*
Y-79207D01*
Y-78920D01*
X1133105D01*
Y-78634D01*
Y-78348D01*
X1132818D01*
Y-78061D01*
Y-77775D01*
X1132532D01*
Y-77489D01*
Y-77202D01*
X1132246D01*
Y-76916D01*
Y-76630D01*
X1131960D01*
Y-76343D01*
X1131673D01*
Y-76057D01*
Y-75771D01*
X1131387D01*
Y-75485D01*
Y-75198D01*
X1131100D01*
Y-74912D01*
Y-74625D01*
X1130814D01*
Y-74339D01*
Y-74053D01*
X1130528D01*
Y-73767D01*
Y-73480D01*
X1130242D01*
Y-73194D01*
Y-72908D01*
X1129955D01*
Y-72621D01*
X1129669D01*
Y-72335D01*
Y-72049D01*
X1129383D01*
Y-71762D01*
Y-71476D01*
X1129096D01*
Y-71190D01*
Y-70903D01*
X1128810D01*
Y-70617D01*
Y-70331D01*
X1128524D01*
Y-70044D01*
Y-69758D01*
X1128237D01*
Y-69472D01*
Y-69186D01*
X1127951D01*
Y-68899D01*
Y-68613D01*
X1127665D01*
Y-68327D01*
X1127378D01*
Y-68040D01*
Y-67754D01*
X1127092D01*
Y-67468D01*
Y-67181D01*
X1126806D01*
Y-66895D01*
Y-66609D01*
X1126519D01*
Y-66322D01*
Y-66036D01*
X1126233D01*
Y-65750D01*
Y-65464D01*
X1125947D01*
Y-65177D01*
Y-64891D01*
X1125661D01*
Y-64605D01*
X1125374D01*
Y-64318D01*
Y-64032D01*
X1125088D01*
Y-63746D01*
X1140835D01*
Y-64032D01*
X1141121D01*
Y-64318D01*
Y-64605D01*
Y-64891D01*
X1141408D01*
Y-65177D01*
Y-65464D01*
Y-65750D01*
X1141694D01*
Y-66036D01*
Y-66322D01*
Y-66609D01*
X1141980D01*
Y-66895D01*
Y-67181D01*
Y-67468D01*
X1142267D01*
Y-67754D01*
Y-68040D01*
Y-68327D01*
X1142553D01*
Y-68613D01*
Y-68899D01*
Y-69186D01*
X1142839D01*
Y-69472D01*
Y-69758D01*
Y-70044D01*
X1143126D01*
Y-70331D01*
Y-70617D01*
Y-70903D01*
X1143412D01*
Y-71190D01*
Y-71476D01*
Y-71762D01*
Y-72049D01*
X1143985D01*
Y-71762D01*
X1144271D01*
Y-71476D01*
X1144557D01*
Y-71190D01*
Y-70903D01*
X1144844D01*
Y-70617D01*
X1145130D01*
Y-70331D01*
Y-70044D01*
X1145416D01*
Y-69758D01*
X1145702D01*
Y-69472D01*
Y-69186D01*
X1145989D01*
Y-68899D01*
X1146275D01*
Y-68613D01*
Y-68327D01*
X1146561D01*
Y-68040D01*
X1146848D01*
Y-67754D01*
Y-67468D01*
X1147134D01*
Y-67181D01*
X1147420D01*
Y-66895D01*
Y-66609D01*
X1147707D01*
Y-66322D01*
X1147993D01*
Y-66036D01*
Y-65750D01*
X1148279D01*
Y-65464D01*
X1148566D01*
Y-65177D01*
Y-64891D01*
X1148852D01*
Y-64605D01*
X1149138D01*
Y-64318D01*
Y-64032D01*
X1149425D01*
Y-63746D01*
X1165172D01*
Y-64032D01*
D02*
G37*
%LPC*%
G36*
X1027742Y-60883D02*
X1019725D01*
Y-61169D01*
Y-61455D01*
Y-61742D01*
Y-62028D01*
Y-62314D01*
X1019438D01*
Y-62600D01*
Y-62887D01*
Y-63173D01*
Y-63459D01*
Y-63746D01*
Y-64032D01*
X1019152D01*
Y-64318D01*
Y-64605D01*
Y-64891D01*
Y-65177D01*
Y-65464D01*
Y-65750D01*
X1018866D01*
Y-66036D01*
Y-66322D01*
Y-66609D01*
Y-66895D01*
Y-67181D01*
Y-67468D01*
X1018580D01*
Y-67754D01*
Y-68040D01*
Y-68327D01*
Y-68613D01*
Y-68899D01*
Y-69186D01*
Y-69472D01*
X1018293D01*
Y-69758D01*
Y-70044D01*
Y-70331D01*
Y-70617D01*
Y-70903D01*
Y-71190D01*
X1018007D01*
Y-71476D01*
Y-71762D01*
Y-72049D01*
X1025165D01*
Y-71762D01*
X1026310D01*
Y-71476D01*
X1026883D01*
Y-71190D01*
X1027169D01*
Y-70903D01*
X1027455D01*
Y-70617D01*
X1027742D01*
Y-70331D01*
X1028028D01*
Y-70044D01*
Y-69758D01*
X1028314D01*
Y-69472D01*
Y-69186D01*
X1028601D01*
Y-68899D01*
Y-68613D01*
X1028887D01*
Y-68327D01*
Y-68040D01*
Y-67754D01*
Y-67468D01*
X1029173D01*
Y-67181D01*
Y-66895D01*
Y-66609D01*
Y-66322D01*
Y-66036D01*
X1029459D01*
Y-65750D01*
Y-65464D01*
Y-65177D01*
Y-64891D01*
Y-64605D01*
Y-64318D01*
Y-64032D01*
Y-63746D01*
Y-63459D01*
Y-63173D01*
Y-62887D01*
X1029173D01*
Y-62600D01*
Y-62314D01*
X1028887D01*
Y-62028D01*
Y-61742D01*
X1028601D01*
Y-61455D01*
X1028314D01*
Y-61169D01*
X1027742D01*
Y-60883D01*
D02*
G37*
%LPD*%
D10*
X97244Y67323D02*
G03*
X93442Y68898I-3802J-3802D01*
G01*
X101476Y63758D02*
G03*
X100000Y67323I-5041J0D01*
G01*
X104035Y65242D02*
G03*
X101107Y72313I-10000J0D01*
G01*
X106595Y70683D02*
G03*
X103666Y77754I-10000J0D01*
G01*
X166362Y121827D02*
G03*
X166363Y121827I1009J1007D01*
G01*
X165945Y122835D02*
G03*
X166362Y121827I1426J0D01*
G01*
X164137Y127201D02*
G03*
X164135Y127203I-4371J-4366D01*
G01*
X165945Y122835D02*
G03*
X164137Y127201I-6178J0D01*
G01*
X164173Y120267D02*
G03*
X161244Y127338I-10000J0D01*
G01*
X166198Y111755D02*
G03*
X166201Y111752I4898J4892D01*
G01*
X164173Y116647D02*
G03*
X166198Y111755I6922J0D01*
G01*
X165260Y104819D02*
G03*
X169291Y103150I4032J4033D01*
G01*
X165259Y104820D02*
G03*
X165260Y104819I4033J4033D01*
G01*
X162205Y111215D02*
G03*
X164567Y105512I8065J0D01*
G01*
X160435Y124998D02*
G03*
X160433Y125000I-4279J-4275D01*
G01*
X162205Y120723D02*
G03*
X160435Y124998I-6049J0D01*
G01*
X160433Y125000D02*
G03*
X155205Y127165I-5228J-5228D01*
G01*
X153934Y134649D02*
G03*
X150135Y136221I-3799J-3805D01*
G01*
X153937Y134646D02*
G03*
X153934Y134649I-3802J-3802D01*
G01*
X145824Y140101D02*
G03*
X150443Y138189I4619J4623D01*
G01*
X155061Y136277D02*
G03*
X150443Y138189I-4619J-4623D01*
G01*
X155063Y136275D02*
G03*
X155061Y136277I-4621J-4621D01*
G01*
X145822Y140103D02*
G03*
X145824Y140101I4621J4621D01*
G01*
X138902Y139149D02*
G03*
X145973Y136221I7071J7071D01*
G01*
X88189Y56496D02*
G03*
X87795Y56102I0J-394D01*
G01*
X73524Y62402D02*
G03*
X70669Y59547I0J-2854D01*
G01*
X96358Y63779D02*
G03*
X94390Y65748I-1969J0D01*
G01*
X88976Y66929D02*
G03*
X91828Y65748I2851J2851D01*
G01*
X87598Y70256D02*
G03*
X88976Y66929I4705J0D01*
G01*
X98917Y63283D02*
G03*
X97244Y67323I-5713J0D01*
G01*
X158268Y139567D02*
G03*
X153040Y141732I-5228J-5228D01*
G01*
X111713Y55610D02*
G03*
X111811Y54724I4035J0D01*
G01*
D02*
G03*
X114862Y51673I3937J886D01*
G01*
D02*
G03*
X115748Y51575I886J3937D01*
G01*
X150000D02*
G03*
X153150Y54724I0J3150D01*
G01*
Y60578D02*
G03*
X150886Y66043I-7729J0D01*
G01*
X148622Y71509D02*
G03*
X150886Y66043I7729J0D01*
G01*
X142717Y70402D02*
G03*
X145645Y63331I10000J0D01*
G01*
X63189Y57284D02*
G03*
X64567Y55905I1378J0D01*
G01*
X76575D02*
G03*
X77165Y56496I0J591D01*
G01*
X54528Y138583D02*
G03*
X54944Y137575I1426J0D01*
G01*
D02*
G03*
X54945Y137575I1009J1007D01*
G01*
X57339Y135181D02*
G03*
X60532Y133858I3193J3193D01*
G01*
X45463Y146447D02*
G03*
X44488Y144095I2352J-2352D01*
G01*
X51945Y152780D02*
G03*
X44874Y155709I-7071J-7071D01*
G01*
X54528Y149606D02*
G03*
X54110Y150614I-1426J0D01*
G01*
X77165Y43110D02*
G03*
X77362Y42913I197J0D01*
G01*
X73123Y38491D02*
G03*
X74316Y37846I1680J1681D01*
G01*
D02*
G03*
X74803Y37795I487J2326D01*
G01*
X77165Y37205D02*
G03*
X75740Y37795I-1426J-1426D01*
G01*
X54110Y132063D02*
G03*
X54111Y132064I-1008J1008D01*
G01*
D02*
G03*
X54528Y133071I-1009J1007D01*
G01*
X51805Y130315D02*
G03*
X52756Y130709I0J1344D01*
G01*
X49376Y130315D02*
G03*
X48425Y129921I0J-1344D01*
G01*
X47906Y129402D02*
G03*
X46654Y126378I3024J-3024D01*
G01*
X92028Y68898D02*
X93442D01*
X87598Y70256D02*
Y72835D01*
X96457Y70866D02*
X100000Y67323D01*
X101476Y59252D02*
Y63758D01*
X95006Y78414D02*
X101107Y72313D01*
X104035Y59252D02*
Y65242D01*
X103006Y78414D02*
X103666Y77754D01*
X106595Y62845D02*
Y70683D01*
Y59252D02*
Y62845D01*
X143799Y131299D02*
Y133760D01*
X136417D02*
X143799D01*
X166363Y121827D02*
X169449Y118740D01*
X166362Y121827D02*
X166363Y121827D01*
X155063Y136275D02*
X164135Y127203D01*
X153937Y134646D02*
X161244Y127338D01*
X164173Y116647D02*
Y120267D01*
X166201Y111752D02*
X169213Y108740D01*
X169291Y103150D02*
X174803D01*
X165259Y104820D02*
X165260Y104819D01*
X164567Y105512D02*
X165259Y104820D01*
X162205Y111215D02*
Y120723D01*
X143504Y127165D02*
X155205D01*
X145973Y136221D02*
X150135D01*
X136319Y149606D02*
X145822Y140103D01*
X136319Y141732D02*
X138902Y139149D01*
X87795Y51772D02*
Y56102D01*
X73524Y62402D02*
X77165D01*
X82677D02*
X88189D01*
X77165D02*
X82677D01*
X76575Y67323D02*
Y71653D01*
X70669D02*
X76575D01*
X70669D02*
Y76772D01*
Y70374D02*
Y71653D01*
X70276Y77165D02*
X70669Y76772D01*
X136319Y86614D02*
X136319Y86614D01*
X142717D01*
X96358Y59252D02*
Y63779D01*
X91828Y65748D02*
X94390D01*
X98917Y59252D02*
Y63283D01*
X111614Y59350D02*
Y61221D01*
X149606Y141732D02*
X153040D01*
X111614Y59350D02*
X111713Y59252D01*
X158268Y139567D02*
Y155709D01*
X143504Y131004D02*
X143799Y131299D01*
X143504Y124409D02*
Y131004D01*
X142717Y123622D02*
X143504Y124409D01*
X142717Y116929D02*
Y117913D01*
X142520Y118110D02*
X142717Y117913D01*
X136319Y118110D02*
X142520D01*
X142717Y102559D02*
Y103543D01*
X142520Y102362D02*
X142717Y102559D01*
X136319Y102362D02*
X142520D01*
X142717Y110236D02*
X142717Y110236D01*
X136319Y110236D02*
X142717D01*
X38583Y139567D02*
Y155709D01*
X169449Y118740D02*
X171260D01*
X169213Y108740D02*
X171260D01*
X169646Y118740D02*
X171260D01*
X169803Y108740D02*
X171260D01*
X38583Y139567D02*
X39370Y138779D01*
X111713Y55610D02*
Y59252D01*
X115748Y51575D02*
X150000D01*
X153150Y54724D02*
Y60578D01*
X148622Y71509D02*
Y86614D01*
X145645Y63331D02*
X147795Y61181D01*
X142717Y70402D02*
Y86614D01*
X63189Y57284D02*
Y59547D01*
X64567Y55905D02*
X76575D01*
X75787Y51575D02*
Y52756D01*
X81693Y56496D02*
X82677D01*
X77165D02*
X81693D01*
Y51575D02*
Y56496D01*
X60532Y149606D02*
X60532Y149606D01*
X54944Y137575D02*
X54945Y137575D01*
X57339Y135181D01*
X45463Y146447D02*
X48622Y149606D01*
X44488Y135827D02*
Y144095D01*
X53740Y126378D02*
X54134Y125984D01*
X60532D01*
X38583Y155709D02*
X44874D01*
X54528Y144095D02*
Y149606D01*
Y149606D01*
X60532D01*
X51945Y152780D02*
X54110Y150614D01*
X71653Y52756D02*
X75787D01*
X77362Y42913D02*
X81496D01*
X65354Y46260D02*
X73123Y38491D01*
X73123Y38491D01*
X74803Y37795D02*
X75740D01*
X52756Y130709D02*
X54110Y132063D01*
X54111Y132064D01*
X49376Y130315D02*
X51805D01*
X47906Y129402D02*
X48425Y129921D01*
X11811Y23622D02*
G03*
X11811Y0I0J-11811D01*
G01*
Y23622D02*
G03*
X19685Y31496I0J7874D01*
G01*
X19685Y129921D02*
G03*
X11811Y137795I-7874J0D01*
G01*
Y161417D02*
G03*
X11811Y137795I0J-11811D01*
G01*
X11811Y161417D02*
G03*
X19685Y169291I0J7874D01*
G01*
X27559Y185039D02*
G03*
X19685Y177165I0J-7874D01*
G01*
X177165D02*
G03*
X169291Y185039I-7874J0D01*
G01*
X177165Y169291D02*
G03*
X185039Y161417I7874J0D01*
G01*
X185039Y137795D02*
G03*
X185039Y161417I0J11811D01*
G01*
Y137795D02*
G03*
X177165Y129921I0J-7874D01*
G01*
X177165Y31496D02*
G03*
X185039Y23622I7874J0D01*
G01*
Y0D02*
G03*
X185039Y23622I0J11811D01*
G01*
X19685Y31496D02*
Y129921D01*
Y169291D02*
Y177165D01*
X177165Y169291D02*
Y177165D01*
Y31496D02*
Y129921D01*
X27559Y185039D02*
X169291D01*
X11811Y0D02*
X185039D01*
X1338583Y-137795D02*
Y-98425D01*
X1181102Y-59055D02*
X1456693D01*
X1181102Y-98425D02*
X1456693D01*
X984252Y-137795D02*
X1456693D01*
X984252Y-19685D02*
X1456693D01*
X984252Y-177165D02*
Y-19685D01*
X1181102Y-177165D02*
Y-19685D01*
X-196850Y992126D02*
X1456693D01*
Y-177165D02*
Y992126D01*
X-196850Y-177165D02*
Y992126D01*
Y-177165D02*
X1456693D01*
X1194881Y-163388D02*
X1190945D01*
Y-169291D01*
X1194881D01*
X1190945Y-166340D02*
X1192913D01*
X1200784Y-164372D02*
X1199800Y-163388D01*
X1197832D01*
X1196848Y-164372D01*
Y-165356D01*
X1197832Y-166340D01*
X1199800D01*
X1200784Y-167324D01*
Y-168307D01*
X1199800Y-169291D01*
X1197832D01*
X1196848Y-168307D01*
X1202752Y-169291D02*
Y-163388D01*
X1205704D01*
X1206688Y-164372D01*
Y-166340D01*
X1205704Y-167324D01*
X1202752D01*
X1208656Y-169291D02*
X1210624D01*
X1209640D01*
Y-163388D01*
X1208656Y-164372D01*
X1217511Y-169291D02*
X1213575D01*
X1217511Y-165356D01*
Y-164372D01*
X1216527Y-163388D01*
X1214559D01*
X1213575Y-164372D01*
X1219479Y-170275D02*
X1223415D01*
X1225383Y-163388D02*
Y-169291D01*
X1228334D01*
X1229318Y-168307D01*
Y-164372D01*
X1228334Y-163388D01*
X1225383D01*
X1235222D02*
X1231286D01*
Y-169291D01*
X1235222D01*
X1231286Y-166340D02*
X1233254D01*
X1237190Y-163388D02*
Y-167324D01*
X1239158Y-169291D01*
X1241125Y-167324D01*
Y-163388D01*
X1243093Y-170275D02*
X1247029D01*
X1248997Y-164372D02*
X1249981Y-163388D01*
X1251949D01*
X1252933Y-164372D01*
Y-168307D01*
X1251949Y-169291D01*
X1249981D01*
X1248997Y-168307D01*
Y-164372D01*
X1254900D02*
X1255884Y-163388D01*
X1257852D01*
X1258836Y-164372D01*
Y-168307D01*
X1257852Y-169291D01*
X1255884D01*
X1254900Y-168307D01*
Y-164372D01*
X1260804Y-169291D02*
Y-168307D01*
X1261788D01*
Y-169291D01*
X1260804D01*
X1265724D02*
Y-163388D01*
X1268676D01*
X1269660Y-164372D01*
Y-166340D01*
X1268676Y-167324D01*
X1265724D01*
X1275563Y-165356D02*
X1272611D01*
X1271627Y-166340D01*
Y-168307D01*
X1272611Y-169291D01*
X1275563D01*
X1277531Y-163388D02*
Y-169291D01*
X1280483D01*
X1281467Y-168307D01*
Y-167324D01*
Y-166340D01*
X1280483Y-165356D01*
X1277531D01*
X1283435Y-163388D02*
Y-169291D01*
X1286386D01*
X1287370Y-168307D01*
Y-164372D01*
X1286386Y-163388D01*
X1283435D01*
X1290322Y-169291D02*
X1292290D01*
X1293274Y-168307D01*
Y-166340D01*
X1292290Y-165356D01*
X1290322D01*
X1289338Y-166340D01*
Y-168307D01*
X1290322Y-169291D01*
X1299177Y-165356D02*
X1296226D01*
X1295242Y-166340D01*
Y-168307D01*
X1296226Y-169291D01*
X1299177D01*
D11*
X57087Y114173D02*
G03*
X53285Y115748I-3802J-3802D01*
G01*
X127638Y61024D02*
G03*
X127795Y61181I0J158D01*
G01*
X117520Y63976D02*
G03*
X120472Y61024I2953J0D01*
G01*
X56371Y19757D02*
G03*
X55118Y16732I3024J-3024D01*
G01*
X65953Y25197D02*
G03*
X58882Y22268I0J-10000D01*
G01*
X99737Y26164D02*
G03*
X101476Y31800I-8261J5636D01*
G01*
X98548Y24729D02*
G03*
X99737Y26164I-7071J7071D01*
G01*
X91339Y25197D02*
G03*
X98917Y32776I0J7579D01*
G01*
X106595Y28839D02*
G03*
X110236Y25197I3642J0D01*
G01*
X136787Y23646D02*
G03*
X133043Y25197I-3744J-3744D01*
G01*
X57292Y28543D02*
G03*
X50221Y25614I0J-10000D01*
G01*
X92520Y28543D02*
G03*
X96358Y32382I0J3839D01*
G01*
X153543Y16732D02*
G03*
X152151Y20093I-4752J0D01*
G01*
X113189Y30906D02*
G03*
X118892Y28543I5703J5703D01*
G01*
X146630Y25614D02*
G03*
X139559Y28543I-7071J-7071D01*
G01*
X111713Y34470D02*
G03*
X113189Y30906I5041J0D01*
G01*
X141732Y17323D02*
G03*
X140758Y19675I-3327J0D01*
G01*
X104035Y17445D02*
G03*
X104331Y16732I1008J0D01*
G01*
X109153Y67421D02*
X110236Y68504D01*
X120866Y61024D02*
X127638D01*
X117520Y63976D02*
Y68110D01*
X66929Y59547D02*
Y63878D01*
X109153Y59252D02*
Y67421D01*
X56371Y19757D02*
X58882Y22268D01*
X65953Y25197D02*
X91339D01*
X92520Y18701D02*
X98548Y24729D01*
X101476Y31800D02*
Y37205D01*
X98917Y32776D02*
Y37205D01*
X110236Y25197D02*
X133043D01*
X106595Y28839D02*
Y37205D01*
X140758Y19675D02*
X140758Y19675D01*
X136787Y23646D02*
X140758Y19675D01*
X57292Y28543D02*
X92520D01*
X43307Y18701D02*
X50221Y25614D01*
X96358Y32382D02*
Y37205D01*
X146630Y25614D02*
X152151Y20093D01*
X118892Y28543D02*
X139559D01*
X111713Y34470D02*
Y37205D01*
X104035Y17445D02*
Y37205D01*
X93799Y53740D02*
Y59252D01*
X169882Y80118D02*
X171260Y78740D01*
X156693Y80118D02*
X169882D01*
X92520Y16732D02*
Y18701D01*
X43307Y16732D02*
Y18701D01*
X82480Y67323D02*
Y72835D01*
Y67323D02*
X85433D01*
X109153Y46654D02*
Y59252D01*
X93799Y37795D02*
Y46654D01*
D12*
X163539Y71107D02*
G03*
X159843Y72638I-3697J-3697D01*
G01*
X35363Y132283D02*
G03*
X28291Y129355I0J-10000D01*
G01*
X28685Y124583D02*
G03*
X35756Y121653I7071J7071D01*
G01*
X45472Y119604D02*
G03*
X40523Y121653I-4949J-4949D01*
G01*
X163539Y71107D02*
X168898Y65748D01*
X156693Y72638D02*
X159843D01*
X168898Y65748D02*
X171260D01*
X50886Y98425D02*
X54134D01*
X48622Y133071D02*
Y138583D01*
Y144095D01*
Y132283D02*
Y133071D01*
X35363Y132283D02*
X48622D01*
X26102Y127165D02*
X28291Y129355D01*
X26102Y127165D02*
X28685Y124583D01*
X35756Y121653D02*
X40523D01*
X45472Y118110D02*
Y119604D01*
X1202756Y-76776D02*
X1211939D01*
X1207348D01*
Y-90551D01*
X1218827D02*
X1223419D01*
X1225714Y-88255D01*
Y-83664D01*
X1223419Y-81368D01*
X1218827D01*
X1216531Y-83664D01*
Y-88255D01*
X1218827Y-90551D01*
X1230306Y-95143D02*
Y-81368D01*
X1237194D01*
X1239489Y-83664D01*
Y-88255D01*
X1237194Y-90551D01*
X1230306D01*
X1257856Y-76776D02*
Y-90551D01*
X1267040D01*
X1273927Y-81368D02*
X1278519D01*
X1280815Y-83664D01*
Y-90551D01*
X1273927D01*
X1271631Y-88255D01*
X1273927Y-85960D01*
X1280815D01*
X1285406Y-81368D02*
Y-88255D01*
X1287702Y-90551D01*
X1294590D01*
Y-92847D01*
X1292294Y-95143D01*
X1289998D01*
X1294590Y-90551D02*
Y-81368D01*
X1306069Y-90551D02*
X1301477D01*
X1299181Y-88255D01*
Y-83664D01*
X1301477Y-81368D01*
X1306069D01*
X1308365Y-83664D01*
Y-85960D01*
X1299181D01*
X1312957Y-81368D02*
Y-90551D01*
Y-85960D01*
X1315252Y-83664D01*
X1317548Y-81368D01*
X1319844D01*
X1005906Y-155517D02*
Y-171260D01*
X1011153Y-166012D01*
X1016401Y-171260D01*
Y-155517D01*
X1021649Y-171260D02*
X1026896D01*
X1024272D01*
Y-160765D01*
X1021649D01*
X1034768Y-171260D02*
Y-160765D01*
X1037391D01*
X1040015Y-163388D01*
Y-171260D01*
Y-163388D01*
X1042639Y-160765D01*
X1045263Y-163388D01*
Y-171260D01*
X1050511Y-155517D02*
Y-166012D01*
X1055758Y-171260D01*
X1061006Y-166012D01*
Y-155517D01*
X1076749Y-158141D02*
X1074125Y-155517D01*
X1068877D01*
X1066253Y-158141D01*
Y-168636D01*
X1068877Y-171260D01*
X1074125D01*
X1076749Y-168636D01*
Y-163388D01*
X1071501D01*
X1360236Y-118771D02*
X1362860Y-116147D01*
X1368108D01*
X1370732Y-118771D01*
Y-129266D01*
X1368108Y-131890D01*
X1362860D01*
X1360236Y-129266D01*
Y-118771D01*
X1375979D02*
X1378603Y-116147D01*
X1383851D01*
X1386475Y-118771D01*
Y-129266D01*
X1383851Y-131890D01*
X1378603D01*
X1375979Y-129266D01*
Y-118771D01*
X1196850Y-131890D02*
X1201442D01*
X1199146D01*
Y-118115D01*
X1196850Y-120411D01*
X1208330D02*
X1210625Y-118115D01*
X1215217D01*
X1217513Y-120411D01*
Y-122706D01*
X1215217Y-125002D01*
X1217513Y-127298D01*
Y-129594D01*
X1215217Y-131890D01*
X1210625D01*
X1208330Y-129594D01*
Y-127298D01*
X1210625Y-125002D01*
X1208330Y-122706D01*
Y-120411D01*
X1210625Y-125002D02*
X1215217D01*
X1222105Y-131890D02*
X1231288Y-122706D01*
X1235880Y-120411D02*
X1238176Y-118115D01*
X1242767D01*
X1245063Y-120411D01*
Y-129594D01*
X1242767Y-131890D01*
X1238176D01*
X1235880Y-129594D01*
Y-120411D01*
X1258838Y-118115D02*
X1254247Y-120411D01*
X1249655Y-125002D01*
Y-129594D01*
X1251951Y-131890D01*
X1256542D01*
X1258838Y-129594D01*
Y-127298D01*
X1256542Y-125002D01*
X1249655D01*
X1263430Y-131890D02*
X1272613Y-122706D01*
X1286388Y-131890D02*
X1277205D01*
X1286388Y-122706D01*
Y-120411D01*
X1284093Y-118115D01*
X1279501D01*
X1277205Y-120411D01*
X1290980D02*
X1293276Y-118115D01*
X1297868D01*
X1300163Y-120411D01*
Y-129594D01*
X1297868Y-131890D01*
X1293276D01*
X1290980Y-129594D01*
Y-120411D01*
X1304755Y-131890D02*
X1309347D01*
X1307051D01*
Y-118115D01*
X1304755Y-120411D01*
X1325418Y-118115D02*
X1316234D01*
Y-125002D01*
X1320826Y-122706D01*
X1323122D01*
X1325418Y-125002D01*
Y-129594D01*
X1323122Y-131890D01*
X1318530D01*
X1316234Y-129594D01*
X1201440Y-37407D02*
X1190945D01*
Y-53150D01*
X1201440D01*
X1190945Y-45278D02*
X1196192D01*
X1217183Y-40031D02*
X1214559Y-37407D01*
X1209312D01*
X1206688Y-40031D01*
Y-42654D01*
X1209312Y-45278D01*
X1214559D01*
X1217183Y-47902D01*
Y-50526D01*
X1214559Y-53150D01*
X1209312D01*
X1206688Y-50526D01*
X1222431Y-53150D02*
Y-37407D01*
X1230302D01*
X1232926Y-40031D01*
Y-45278D01*
X1230302Y-47902D01*
X1222431D01*
X1238174Y-53150D02*
X1243421D01*
X1240798D01*
Y-37407D01*
X1238174Y-40031D01*
X1261788Y-53150D02*
X1251293D01*
X1261788Y-42654D01*
Y-40031D01*
X1259164Y-37407D01*
X1253917D01*
X1251293Y-40031D01*
X1267036Y-55773D02*
X1277531D01*
X1282779Y-37407D02*
Y-53150D01*
X1290650D01*
X1293274Y-50526D01*
Y-40031D01*
X1290650Y-37407D01*
X1282779D01*
X1309017D02*
X1298522D01*
Y-53150D01*
X1309017D01*
X1298522Y-45278D02*
X1303769D01*
X1314265Y-37407D02*
Y-47902D01*
X1319512Y-53150D01*
X1324760Y-47902D01*
Y-37407D01*
D13*
X151969Y78351D02*
G03*
X153642Y74311I5713J0D01*
G01*
X151969Y104245D02*
G03*
X150098Y108760I-6385J0D01*
G01*
X109153Y31527D02*
G03*
X109941Y29626I2688J0D01*
G01*
X48228Y55118D02*
G03*
X48031Y54921I0J-197D01*
G01*
X67347Y36787D02*
G03*
X74418Y33858I7071J7071D01*
G01*
X76907D02*
G03*
X80709Y35433I0J5377D01*
G01*
X82063Y36787D02*
G03*
X82064Y36788I-1008J1008D01*
G01*
D02*
G03*
X82480Y37795I-1009J1007D01*
G01*
X83455Y40148D02*
G03*
X82480Y37795I2352J-2352D01*
G01*
X87795Y43110D02*
G03*
X85444Y42136I0J-3327D01*
G01*
D02*
G03*
X85443Y42136I2352J-2353D01*
G01*
X153642Y74311D02*
X155315Y72638D01*
X151969Y78351D02*
Y104245D01*
X148622Y110236D02*
X150098Y108760D01*
X155315Y72638D02*
X156693D01*
X151575Y130709D02*
X153937D01*
X151476Y130807D02*
X151575Y130709D01*
X151476Y130807D02*
Y131299D01*
X143799Y148228D02*
Y153347D01*
X148425Y103347D02*
X148622Y103543D01*
X148425Y99606D02*
Y103347D01*
X157087Y99606D02*
Y103347D01*
X156693Y111221D02*
Y116339D01*
X148622Y122835D02*
X156102D01*
X148425D02*
X148622D01*
Y116929D02*
Y122835D01*
Y123031D02*
Y123622D01*
X148425Y122835D02*
X148622Y123031D01*
X156102Y122835D02*
X156693Y122244D01*
X148622Y110236D02*
Y116929D01*
X32283Y139567D02*
Y155709D01*
X164567Y139567D02*
Y155709D01*
X109153Y31527D02*
Y37205D01*
X48031Y49213D02*
Y54921D01*
X65354Y38780D02*
X67347Y36787D01*
X74418Y33858D02*
X76907D01*
X80709Y35433D02*
X82063Y36787D01*
X82064Y36788D01*
X83455Y40148D02*
X85443Y42136D01*
X85444Y42136D01*
X93799Y37205D02*
Y37795D01*
X88386D02*
X93799D01*
D14*
X153764Y47150D02*
G03*
X156693Y54221I-7071J7071D01*
G01*
X60260Y63016D02*
G03*
X58268Y58206I4810J-4810D01*
G01*
X60260Y63016D02*
G03*
X63189Y70087I-7071J7071D01*
G01*
X145252Y43725D02*
G03*
X138181Y46654I-7071J-7071D01*
G01*
X70472Y47638D02*
G03*
X72849Y46654I2376J2376D01*
G01*
X69272Y48839D02*
G03*
X64567Y50787I-4705J-4705D01*
G01*
X58268Y55118D02*
G03*
X62598Y50787I4331J0D01*
G01*
X52756Y112992D02*
Y117913D01*
X52953Y118110D01*
Y117717D02*
Y118110D01*
X103006Y78414D02*
Y86288D01*
X156693Y54221D02*
Y72638D01*
X31496Y55118D02*
X40748D01*
X50886Y98425D02*
Y100689D01*
X60532Y149606D02*
X68405D01*
X60532Y125984D02*
X68405D01*
X60532Y118110D02*
X68405D01*
X60532Y110236D02*
X68405D01*
X60532Y102362D02*
X68405D01*
X79405Y78414D02*
Y86288D01*
X87205Y78414D02*
Y86288D01*
X95006Y78414D02*
Y86288D01*
X110805Y78414D02*
Y86288D01*
X118806Y78414D02*
Y86288D01*
X128445Y94488D02*
X136319D01*
X128445Y102362D02*
X136319D01*
X128445Y110236D02*
X136319D01*
X128445Y118110D02*
X136319D01*
X128445Y125984D02*
X136319D01*
X128445Y133858D02*
X136319D01*
X128445Y149606D02*
X136319D01*
X128445Y141732D02*
X136319D01*
X54134Y89567D02*
Y98425D01*
X47638Y89567D02*
Y107283D01*
Y103937D02*
X50886Y100689D01*
X47638Y103937D02*
Y107283D01*
X54134Y98425D02*
Y107283D01*
X45472Y107283D02*
X45472Y107283D01*
X47638D01*
X63189Y70087D02*
Y70374D01*
X58268Y55118D02*
Y58206D01*
X45472Y107283D02*
Y118110D01*
X93799Y46654D02*
X109153D01*
X138181D01*
X145252Y43725D02*
X147795Y41181D01*
X153764Y47150D01*
X69272Y48839D02*
X70472Y47638D01*
X62598Y50787D02*
X64567D01*
X60532Y141732D02*
X68405D01*
X60532Y133858D02*
X68405D01*
X25591Y107480D02*
X27854D01*
X30118D01*
Y112205D01*
X25591Y107480D02*
Y112205D01*
X72849Y46654D02*
X93799D01*
D15*
X140758Y19675D02*
D03*
D16*
X45276Y77764D02*
G03*
X48204Y70693I10000J0D01*
G01*
X55118Y65945D02*
G03*
X53438Y65249I0J-2376D01*
G01*
X51422Y67476D02*
G03*
X55118Y65945I3697J3697D01*
G01*
X51157Y62968D02*
G03*
X48228Y55897I7071J-7071D01*
G01*
X51772Y80315D02*
X52165Y79921D01*
X48819Y80315D02*
X51772D01*
X50591Y73425D02*
X55118D01*
X45276Y77764D02*
Y79527D01*
X39370Y78740D02*
Y84646D01*
X48204Y70693D02*
X51422Y67476D01*
X51157Y62968D02*
X53438Y65249D01*
X48228Y55118D02*
Y55897D01*
D17*
X60532Y89636D02*
G03*
X59646Y87497I2139J-2139D01*
G01*
X33465Y71260D02*
G03*
X28237Y73425I-5228J-5228D01*
G01*
X59646Y79921D02*
Y87497D01*
X60532Y89636D02*
Y94488D01*
X24803Y73425D02*
X28237D01*
X33268Y66535D02*
X45472D01*
X33465Y71260D02*
X39370D01*
D18*
X73123Y38491D02*
D03*
D19*
X54528Y133071D02*
D03*
X48622D02*
D03*
X142717Y116929D02*
D03*
X148622D02*
D03*
X142717Y86614D02*
D03*
X148622D02*
D03*
X142717Y123622D02*
D03*
X148622D02*
D03*
X48622Y149606D02*
D03*
X54528D02*
D03*
X142717Y110236D02*
D03*
X148622D02*
D03*
X54528Y138583D02*
D03*
X48622D02*
D03*
X54528Y144095D02*
D03*
X48622D02*
D03*
X148622Y103543D02*
D03*
X142717D02*
D03*
X82480Y67323D02*
D03*
X76575D02*
D03*
X82480Y72835D02*
D03*
X76575D02*
D03*
X88386Y37795D02*
D03*
X82480D02*
D03*
X70276Y77165D02*
D03*
X64370D02*
D03*
X75787Y51575D02*
D03*
X81693D02*
D03*
D20*
X63189Y59547D02*
D03*
X66929D02*
D03*
X70669D02*
D03*
Y70374D02*
D03*
X63189D02*
D03*
D21*
X117520Y68110D02*
D03*
X110039D02*
D03*
X48228Y55118D02*
D03*
X40748D02*
D03*
X52165Y79921D02*
D03*
X59646D02*
D03*
X45472Y118110D02*
D03*
X52953D02*
D03*
X54134Y126378D02*
D03*
X46654D02*
D03*
D22*
X39370Y68898D02*
D03*
D23*
X33465Y79527D02*
D03*
X45276D02*
D03*
D24*
X39370Y78740D02*
D03*
D25*
X106595Y37205D02*
D03*
X106595Y59252D02*
D03*
X109153D02*
D03*
X111713D02*
D03*
X104035D02*
D03*
X96358D02*
D03*
X101476D02*
D03*
X98917D02*
D03*
X93799Y37205D02*
D03*
X96358D02*
D03*
X98917D02*
D03*
X104035D02*
D03*
X101476D02*
D03*
X93799Y59252D02*
D03*
X109153Y37205D02*
D03*
X111713D02*
D03*
D26*
X156693Y80118D02*
D03*
Y72638D02*
D03*
X55118Y73425D02*
D03*
Y65945D02*
D03*
X24803Y80905D02*
D03*
Y73425D02*
D03*
X87795Y50591D02*
D03*
Y43110D02*
D03*
X157087Y103347D02*
D03*
Y110827D02*
D03*
D27*
X171260Y35748D02*
D03*
Y55748D02*
D03*
Y65748D02*
D03*
Y118740D02*
D03*
Y108740D02*
D03*
Y78740D02*
D03*
D28*
X165354Y16732D02*
D03*
X129921D02*
D03*
X141732D02*
D03*
X153543D02*
D03*
X116142Y16732D02*
D03*
X92520D02*
D03*
X104331D02*
D03*
X80709D02*
D03*
X66929D02*
D03*
X43307D02*
D03*
X55118D02*
D03*
X31496D02*
D03*
D29*
X77165Y37205D02*
D03*
Y43110D02*
D03*
X156693Y116339D02*
D03*
Y122244D02*
D03*
X88189Y62402D02*
D03*
Y56496D02*
D03*
X82677D02*
D03*
Y62402D02*
D03*
X77165D02*
D03*
Y56496D02*
D03*
D30*
X31496Y55118D02*
D03*
Y41339D02*
D03*
D31*
X38583Y139567D02*
D03*
Y155709D02*
D03*
X32283D02*
D03*
Y139567D02*
D03*
X158268Y155709D02*
D03*
Y139567D02*
D03*
X164567D02*
D03*
Y155709D02*
D03*
D32*
X50886Y98425D02*
D03*
D33*
X27854Y89370D02*
D03*
X27854Y98425D02*
D03*
X27854Y107480D02*
D03*
D34*
X118806Y86288D02*
D03*
X110805D02*
D03*
X103006D02*
D03*
X95006D02*
D03*
X87205D02*
D03*
X79405D02*
D03*
D35*
X68405Y94488D02*
D03*
Y102362D02*
D03*
Y110236D02*
D03*
Y118110D02*
D03*
Y125984D02*
D03*
Y133858D02*
D03*
Y141732D02*
D03*
Y149606D02*
D03*
X128445D02*
D03*
Y141732D02*
D03*
Y133858D02*
D03*
Y125984D02*
D03*
Y118110D02*
D03*
Y110236D02*
D03*
Y102362D02*
D03*
Y94488D02*
D03*
D36*
X143799Y131299D02*
D03*
X146358D02*
D03*
X148917D02*
D03*
X151476D02*
D03*
Y148228D02*
D03*
X148917D02*
D03*
X146358D02*
D03*
X143799D02*
D03*
D37*
X60532Y94488D02*
X60532Y94488D01*
X27854Y98425D02*
X50886D01*
X60532Y94488D02*
X68405D01*
X54134Y94488D02*
X60532D01*
D38*
X1342520Y-110236D02*
Y-102365D01*
X1346455D01*
X1347767Y-103677D01*
Y-106300D01*
X1346455Y-107612D01*
X1342520D01*
X1345144D02*
X1347767Y-110236D01*
X1354327D02*
X1351703D01*
X1350391Y-108924D01*
Y-106300D01*
X1351703Y-104989D01*
X1354327D01*
X1355639Y-106300D01*
Y-107612D01*
X1350391D01*
X1358263Y-104989D02*
X1360886Y-110236D01*
X1363510Y-104989D01*
X988189Y-141735D02*
Y-149606D01*
X992125D01*
X993437Y-148294D01*
Y-143047D01*
X992125Y-141735D01*
X988189D01*
X999996Y-149606D02*
X997372D01*
X996060Y-148294D01*
Y-145671D01*
X997372Y-144359D01*
X999996D01*
X1001308Y-145671D01*
Y-146983D01*
X996060D01*
X1003932Y-149606D02*
X1007868D01*
X1009180Y-148294D01*
X1007868Y-146983D01*
X1005244D01*
X1003932Y-145671D01*
X1005244Y-144359D01*
X1009180D01*
X1014427Y-152230D02*
X1015739D01*
X1017051Y-150918D01*
Y-144359D01*
X1013115D01*
X1011803Y-145671D01*
Y-148294D01*
X1013115Y-149606D01*
X1017051D01*
X1019675D02*
X1022299D01*
X1020987D01*
Y-144359D01*
X1019675D01*
X1026235Y-149606D02*
Y-144359D01*
X1030170D01*
X1031482Y-145671D01*
Y-149606D01*
X1038042D02*
X1035418D01*
X1034106Y-148294D01*
Y-145671D01*
X1035418Y-144359D01*
X1038042D01*
X1039354Y-145671D01*
Y-146983D01*
X1034106D01*
X1041977Y-144359D02*
Y-149606D01*
Y-146983D01*
X1043289Y-145671D01*
X1044601Y-144359D01*
X1045913D01*
X1185039Y-23625D02*
Y-31496D01*
X1188975D01*
X1190287Y-30184D01*
Y-24937D01*
X1188975Y-23625D01*
X1185039D01*
X1194223Y-31496D02*
X1196847D01*
X1198158Y-30184D01*
Y-27560D01*
X1196847Y-26248D01*
X1194223D01*
X1192911Y-27560D01*
Y-30184D01*
X1194223Y-31496D01*
X1206030Y-26248D02*
X1202094D01*
X1200782Y-27560D01*
Y-30184D01*
X1202094Y-31496D01*
X1206030D01*
X1208654Y-26248D02*
Y-30184D01*
X1209966Y-31496D01*
X1213902D01*
Y-26248D01*
X1216525Y-31496D02*
Y-26248D01*
X1217837D01*
X1219149Y-27560D01*
Y-31496D01*
Y-27560D01*
X1220461Y-26248D01*
X1221773Y-27560D01*
Y-31496D01*
X1228333D02*
X1225709D01*
X1224397Y-30184D01*
Y-27560D01*
X1225709Y-26248D01*
X1228333D01*
X1229644Y-27560D01*
Y-28872D01*
X1224397D01*
X1232268Y-31496D02*
Y-26248D01*
X1236204D01*
X1237516Y-27560D01*
Y-31496D01*
X1241452Y-24937D02*
Y-26248D01*
X1240140D01*
X1242764D01*
X1241452D01*
Y-30184D01*
X1242764Y-31496D01*
X1185039Y-62995D02*
Y-70866D01*
X1190287D01*
X1194223Y-65618D02*
X1196847D01*
X1198158Y-66930D01*
Y-70866D01*
X1194223D01*
X1192911Y-69554D01*
X1194223Y-68242D01*
X1198158D01*
X1200782Y-65618D02*
Y-69554D01*
X1202094Y-70866D01*
X1206030D01*
Y-72178D01*
X1204718Y-73490D01*
X1203406D01*
X1206030Y-70866D02*
Y-65618D01*
X1212590Y-70866D02*
X1209966D01*
X1208654Y-69554D01*
Y-66930D01*
X1209966Y-65618D01*
X1212590D01*
X1213902Y-66930D01*
Y-68242D01*
X1208654D01*
X1216525Y-65618D02*
Y-70866D01*
Y-68242D01*
X1217837Y-66930D01*
X1219149Y-65618D01*
X1220461D01*
X1232268Y-70866D02*
Y-62995D01*
X1237516Y-70866D01*
Y-62995D01*
X1241452Y-65618D02*
X1244075D01*
X1245387Y-66930D01*
Y-70866D01*
X1241452D01*
X1240140Y-69554D01*
X1241452Y-68242D01*
X1245387D01*
X1248011Y-70866D02*
Y-65618D01*
X1249323D01*
X1250635Y-66930D01*
Y-70866D01*
Y-66930D01*
X1251947Y-65618D01*
X1253259Y-66930D01*
Y-70866D01*
X1259818D02*
X1257195D01*
X1255883Y-69554D01*
Y-66930D01*
X1257195Y-65618D01*
X1259818D01*
X1261130Y-66930D01*
Y-68242D01*
X1255883D01*
X1185039Y-102365D02*
Y-110236D01*
X1188975D01*
X1190287Y-108924D01*
Y-103677D01*
X1188975Y-102365D01*
X1185039D01*
X1194223Y-104989D02*
X1196847D01*
X1198158Y-106300D01*
Y-110236D01*
X1194223D01*
X1192911Y-108924D01*
X1194223Y-107612D01*
X1198158D01*
X1202094Y-103677D02*
Y-104989D01*
X1200782D01*
X1203406D01*
X1202094D01*
Y-108924D01*
X1203406Y-110236D01*
X1211278D02*
X1208654D01*
X1207342Y-108924D01*
Y-106300D01*
X1208654Y-104989D01*
X1211278D01*
X1212589Y-106300D01*
Y-107612D01*
X1207342D01*
X1185039Y-141735D02*
Y-149606D01*
X1188975D01*
X1190287Y-148294D01*
Y-143047D01*
X1188975Y-141735D01*
X1185039D01*
X1194223Y-149606D02*
X1196847D01*
X1198158Y-148294D01*
Y-145671D01*
X1196847Y-144359D01*
X1194223D01*
X1192911Y-145671D01*
Y-148294D01*
X1194223Y-149606D01*
X1206030Y-144359D02*
X1202094D01*
X1200782Y-145671D01*
Y-148294D01*
X1202094Y-149606D01*
X1206030D01*
X1208654Y-144359D02*
Y-148294D01*
X1209966Y-149606D01*
X1213902D01*
Y-144359D01*
X1216525Y-149606D02*
Y-144359D01*
X1217837D01*
X1219149Y-145671D01*
Y-149606D01*
Y-145671D01*
X1220461Y-144359D01*
X1221773Y-145671D01*
Y-149606D01*
X1228333D02*
X1225709D01*
X1224397Y-148294D01*
Y-145671D01*
X1225709Y-144359D01*
X1228333D01*
X1229644Y-145671D01*
Y-146983D01*
X1224397D01*
X1232268Y-149606D02*
Y-144359D01*
X1236204D01*
X1237516Y-145671D01*
Y-149606D01*
X1241452Y-143047D02*
Y-144359D01*
X1240140D01*
X1242764D01*
X1241452D01*
Y-148294D01*
X1242764Y-149606D01*
D39*
X79405Y78414D02*
D03*
X87205D02*
D03*
X95006D02*
D03*
X103006D02*
D03*
X110805D02*
D03*
X118806D02*
D03*
X60532Y94488D02*
D03*
X60532Y102362D02*
D03*
Y110236D02*
D03*
Y118110D02*
D03*
Y125984D02*
D03*
X60532Y133858D02*
D03*
X60532Y141732D02*
D03*
X60532Y149606D02*
D03*
X136319D02*
D03*
Y141732D02*
D03*
Y133858D02*
D03*
Y125984D02*
D03*
Y118110D02*
D03*
Y110236D02*
D03*
Y102362D02*
D03*
Y94488D02*
D03*
D40*
X147795Y41181D02*
D03*
D41*
Y61181D02*
D03*
X127795D02*
D03*
D42*
X64213Y10827D02*
D03*
X132638Y10827D02*
D03*
X162638D02*
D03*
X83425Y10827D02*
D03*
X113425D02*
D03*
X34213D02*
D03*
D43*
X28543Y53228D02*
D03*
Y43228D02*
D03*
D44*
X142638Y10827D02*
D03*
X152638D02*
D03*
X93425Y10827D02*
D03*
X103425D02*
D03*
X54213D02*
D03*
X44213D02*
D03*
D45*
X171260Y35748D02*
D03*
Y45748D02*
D03*
Y55748D02*
D03*
Y88740D02*
D03*
Y98740D02*
D03*
Y108740D02*
D03*
Y118740D02*
D03*
Y128740D02*
D03*
D46*
Y65748D02*
D03*
Y78740D02*
D03*
D47*
X11811Y149606D02*
D03*
Y11811D02*
D03*
X185039D02*
D03*
Y149606D02*
D03*
D48*
X26102Y127165D02*
D03*
X36102D02*
D03*
D49*
X65354Y46260D02*
D03*
Y38780D02*
D03*
D50*
X52756Y112992D02*
D03*
X57087Y114173D02*
D03*
X66929Y63878D02*
D03*
X136319Y86614D02*
D03*
X50591Y73425D02*
D03*
X48819Y80315D02*
D03*
X33465Y71260D02*
D03*
X29921Y80905D02*
D03*
X24803Y84646D02*
D03*
X45472Y66535D02*
D03*
X33268D02*
D03*
X93799Y53740D02*
D03*
X92028Y68898D02*
D03*
X87598Y72835D02*
D03*
X96457Y70866D02*
D03*
X149606Y141732D02*
D03*
X153937Y130709D02*
D03*
X143799Y153347D02*
D03*
X174803Y103150D02*
D03*
X148425Y99606D02*
D03*
X157087D02*
D03*
X32283Y147638D02*
D03*
X164567D02*
D03*
X54134Y89567D02*
D03*
X47638D02*
D03*
Y107283D02*
D03*
X54134D02*
D03*
X36417Y98425D02*
D03*
X42323D02*
D03*
X39370Y84646D02*
D03*
X109941Y29626D02*
D03*
X85433Y67323D02*
D03*
X48031Y49213D02*
D03*
X71653Y52756D02*
D03*
X44488Y135827D02*
D03*
X25591Y112205D02*
D03*
X30118D02*
D03*
X81496Y42913D02*
D03*
M02*
