G04 Layer_Color=16711935*
%FSLAX25Y25*%
%MOIN*%
G70*
G01*
G75*
%ADD10C,0.00787*%
%ADD12C,0.01575*%
%ADD13C,0.01181*%
%ADD38C,0.00984*%
%ADD53C,0.00591*%
%ADD54C,0.00394*%
G36*
X1121080Y-64032D02*
Y-64318D01*
Y-64605D01*
Y-64891D01*
Y-65177D01*
Y-65464D01*
Y-65750D01*
Y-66036D01*
Y-66322D01*
Y-66609D01*
Y-66895D01*
Y-67181D01*
Y-67468D01*
Y-67754D01*
Y-68040D01*
Y-68327D01*
Y-68613D01*
Y-68899D01*
Y-69186D01*
Y-69472D01*
Y-69758D01*
X1120793D01*
Y-70044D01*
Y-70331D01*
Y-70617D01*
Y-70903D01*
Y-71190D01*
X1120507D01*
Y-71476D01*
Y-71762D01*
Y-72049D01*
Y-72335D01*
X1120221D01*
Y-72621D01*
Y-72908D01*
Y-73194D01*
Y-73480D01*
X1119934D01*
Y-73767D01*
Y-74053D01*
Y-74339D01*
X1119648D01*
Y-74625D01*
Y-74912D01*
Y-75198D01*
X1119362D01*
Y-75485D01*
Y-75771D01*
Y-76057D01*
X1119075D01*
Y-76343D01*
Y-76630D01*
Y-76916D01*
X1118789D01*
Y-77202D01*
Y-77489D01*
X1118503D01*
Y-77775D01*
Y-78061D01*
X1118217D01*
Y-78348D01*
Y-78634D01*
Y-78920D01*
X1117930D01*
Y-79207D01*
Y-79493D01*
X1117644D01*
Y-79779D01*
Y-80066D01*
Y-80352D01*
X1117358D01*
Y-80638D01*
Y-80924D01*
X1117071D01*
Y-81211D01*
Y-81497D01*
Y-81783D01*
X1116785D01*
Y-82070D01*
Y-82356D01*
X1116499D01*
Y-82642D01*
Y-82929D01*
Y-83215D01*
X1116212D01*
Y-83501D01*
Y-83788D01*
X1115926D01*
Y-84074D01*
Y-84360D01*
Y-84646D01*
X1115640D01*
Y-84933D01*
Y-85219D01*
X1115353D01*
Y-85505D01*
Y-85792D01*
Y-86078D01*
X1115067D01*
Y-86364D01*
Y-86651D01*
X1114781D01*
Y-86937D01*
Y-87223D01*
Y-87510D01*
X1114494D01*
Y-87796D01*
Y-88082D01*
X1114208D01*
Y-88369D01*
Y-88655D01*
Y-88941D01*
X1113922D01*
Y-89227D01*
Y-89514D01*
X1113636D01*
Y-89800D01*
Y-90086D01*
Y-90373D01*
X1113349D01*
Y-90659D01*
Y-90945D01*
X1113063D01*
Y-91232D01*
Y-91518D01*
Y-91804D01*
X1112776D01*
Y-92091D01*
Y-92377D01*
X1112490D01*
Y-92663D01*
Y-92950D01*
Y-93236D01*
X1112204D01*
Y-93522D01*
Y-93809D01*
X1111918D01*
Y-94095D01*
Y-94381D01*
Y-94667D01*
X1111631D01*
Y-94954D01*
Y-95240D01*
X1111345D01*
Y-95526D01*
Y-95813D01*
Y-96099D01*
X1111059D01*
Y-96385D01*
Y-96672D01*
X1110772D01*
Y-96958D01*
Y-97244D01*
Y-97531D01*
X1110486D01*
Y-97817D01*
Y-98103D01*
X1110200D01*
Y-98390D01*
Y-98676D01*
Y-98962D01*
X1109913D01*
Y-99248D01*
Y-99535D01*
X1109627D01*
Y-99821D01*
Y-100107D01*
Y-100394D01*
X1109341D01*
Y-100680D01*
Y-100966D01*
X1109054D01*
Y-101253D01*
Y-101539D01*
X1108768D01*
Y-101825D01*
Y-102112D01*
X1108482D01*
Y-102398D01*
Y-102684D01*
Y-102971D01*
X1108195D01*
Y-103257D01*
X1107909D01*
Y-103543D01*
Y-103829D01*
Y-104116D01*
X1107623D01*
Y-104402D01*
X1107337D01*
Y-104688D01*
Y-104975D01*
X1107050D01*
Y-105261D01*
Y-105547D01*
X1106764D01*
Y-105834D01*
Y-106120D01*
X1106478D01*
Y-106406D01*
Y-106693D01*
X1106191D01*
Y-106979D01*
X1105905D01*
Y-107265D01*
Y-107552D01*
X1105619D01*
Y-107838D01*
Y-108124D01*
X1105332D01*
Y-108411D01*
X1105046D01*
Y-108697D01*
X1104760D01*
Y-108983D01*
Y-109269D01*
X1104473D01*
Y-109556D01*
X1104187D01*
Y-109842D01*
Y-110128D01*
X1103901D01*
Y-110415D01*
X1103615D01*
Y-110701D01*
X1103328D01*
Y-110987D01*
Y-111274D01*
X1103042D01*
Y-111560D01*
X1102756D01*
Y-111846D01*
X1102469D01*
Y-112133D01*
X1102183D01*
Y-112419D01*
X1101897D01*
Y-112705D01*
Y-112991D01*
X1101610D01*
Y-113278D01*
X1101324D01*
Y-113564D01*
X1101038D01*
Y-113850D01*
X1100751D01*
Y-114137D01*
X1100465D01*
Y-114423D01*
X1100179D01*
Y-114709D01*
X1099892D01*
Y-114996D01*
X1099320D01*
Y-115282D01*
X1099034D01*
Y-115568D01*
X1098747D01*
Y-115855D01*
X1098461D01*
Y-116141D01*
X1098175D01*
Y-116427D01*
X1097602D01*
Y-116714D01*
X1097316D01*
Y-117000D01*
X1096743D01*
Y-117286D01*
X1096457D01*
Y-117572D01*
X1095884D01*
Y-117859D01*
X1095598D01*
Y-118145D01*
X1095025D01*
Y-118431D01*
X1094452D01*
Y-118718D01*
X1093880D01*
Y-119004D01*
X1093307D01*
Y-119290D01*
X1092735D01*
Y-119577D01*
X1091876D01*
Y-119863D01*
X1091303D01*
Y-120149D01*
X1090444D01*
Y-120436D01*
X1089299D01*
Y-120722D01*
X1088154D01*
Y-121008D01*
X1086436D01*
Y-121294D01*
X1084432D01*
Y-121581D01*
X1084145D01*
Y-121294D01*
Y-121008D01*
Y-120722D01*
Y-120436D01*
Y-120149D01*
Y-119863D01*
Y-119577D01*
Y-119290D01*
Y-119004D01*
Y-118718D01*
Y-118431D01*
Y-118145D01*
Y-117859D01*
Y-117572D01*
Y-117286D01*
Y-117000D01*
Y-116714D01*
Y-116427D01*
Y-116141D01*
Y-115855D01*
Y-115568D01*
Y-115282D01*
Y-114996D01*
Y-114709D01*
Y-114423D01*
Y-114137D01*
Y-113850D01*
Y-113564D01*
Y-113278D01*
Y-112991D01*
Y-112705D01*
Y-112419D01*
Y-112133D01*
X1084718D01*
Y-111846D01*
X1085291D01*
Y-111560D01*
X1085863D01*
Y-111274D01*
X1086436D01*
Y-110987D01*
X1087008D01*
Y-110701D01*
X1087581D01*
Y-110415D01*
X1087867D01*
Y-110128D01*
X1088440D01*
Y-109842D01*
X1088726D01*
Y-109556D01*
X1089299D01*
Y-109269D01*
X1089585D01*
Y-108983D01*
X1089872D01*
Y-108697D01*
X1090444D01*
Y-108411D01*
X1090730D01*
Y-108124D01*
X1091017D01*
Y-107838D01*
X1091303D01*
Y-107552D01*
X1091589D01*
Y-107265D01*
X1091876D01*
Y-106979D01*
X1092162D01*
Y-106693D01*
X1092448D01*
Y-106406D01*
X1092735D01*
Y-106120D01*
X1093021D01*
Y-105834D01*
X1093307D01*
Y-105547D01*
X1093594D01*
Y-105261D01*
Y-104975D01*
X1093880D01*
Y-104688D01*
X1094166D01*
Y-104402D01*
X1094452D01*
Y-104116D01*
Y-103829D01*
X1094739D01*
Y-103543D01*
X1095025D01*
Y-103257D01*
Y-102971D01*
X1095311D01*
Y-102684D01*
Y-102398D01*
X1095598D01*
Y-102112D01*
X1095884D01*
Y-101825D01*
Y-101539D01*
X1096170D01*
Y-101253D01*
Y-100966D01*
X1096457D01*
Y-100680D01*
Y-100394D01*
X1094739D01*
Y-100107D01*
X1092735D01*
Y-99821D01*
X1091589D01*
Y-99535D01*
X1091017D01*
Y-99248D01*
X1090158D01*
Y-98962D01*
X1089585D01*
Y-98676D01*
X1089299D01*
Y-98390D01*
X1088726D01*
Y-98103D01*
X1088440D01*
Y-97817D01*
X1088154D01*
Y-97531D01*
X1087867D01*
Y-97244D01*
X1087581D01*
Y-96958D01*
X1087295D01*
Y-96672D01*
Y-96385D01*
X1087008D01*
Y-96099D01*
X1086722D01*
Y-95813D01*
Y-95526D01*
X1086436D01*
Y-95240D01*
Y-94954D01*
X1086149D01*
Y-94667D01*
Y-94381D01*
X1085863D01*
Y-94095D01*
Y-93809D01*
Y-93522D01*
X1085577D01*
Y-93236D01*
Y-92950D01*
Y-92663D01*
Y-92377D01*
X1085291D01*
Y-92091D01*
Y-91804D01*
Y-91518D01*
Y-91232D01*
Y-90945D01*
Y-90659D01*
Y-90373D01*
X1085004D01*
Y-90086D01*
Y-89800D01*
Y-89514D01*
Y-89227D01*
Y-88941D01*
Y-88655D01*
Y-88369D01*
Y-88082D01*
Y-87796D01*
Y-87510D01*
Y-87223D01*
Y-86937D01*
Y-86651D01*
Y-86364D01*
Y-86078D01*
X1084718D01*
Y-85792D01*
Y-85505D01*
Y-85219D01*
Y-84933D01*
Y-84646D01*
Y-84360D01*
Y-84074D01*
Y-83788D01*
Y-83501D01*
Y-83215D01*
Y-82929D01*
Y-82642D01*
Y-82356D01*
Y-82070D01*
Y-81783D01*
X1084432D01*
Y-81497D01*
Y-81211D01*
Y-80924D01*
Y-80638D01*
Y-80352D01*
Y-80066D01*
Y-79779D01*
Y-79493D01*
Y-79207D01*
Y-78920D01*
Y-78634D01*
Y-78348D01*
Y-78061D01*
Y-77775D01*
Y-77489D01*
Y-77202D01*
X1084145D01*
Y-76916D01*
Y-76630D01*
Y-76343D01*
Y-76057D01*
Y-75771D01*
Y-75485D01*
Y-75198D01*
Y-74912D01*
Y-74625D01*
Y-74339D01*
Y-74053D01*
Y-73767D01*
Y-73480D01*
Y-73194D01*
Y-72908D01*
Y-72621D01*
X1083859D01*
Y-72335D01*
Y-72049D01*
Y-71762D01*
Y-71476D01*
Y-71190D01*
Y-70903D01*
Y-70617D01*
Y-70331D01*
Y-70044D01*
Y-69758D01*
Y-69472D01*
Y-69186D01*
Y-68899D01*
Y-68613D01*
X1083573D01*
Y-68327D01*
Y-68040D01*
Y-67754D01*
Y-67468D01*
Y-67181D01*
Y-66895D01*
Y-66609D01*
Y-66322D01*
Y-66036D01*
Y-65750D01*
Y-65464D01*
Y-65177D01*
Y-64891D01*
Y-64605D01*
Y-64318D01*
Y-64032D01*
X1083286D01*
Y-63746D01*
X1097029D01*
Y-64032D01*
Y-64318D01*
Y-64605D01*
Y-64891D01*
Y-65177D01*
Y-65464D01*
Y-65750D01*
Y-66036D01*
Y-66322D01*
Y-66609D01*
Y-66895D01*
Y-67181D01*
Y-67468D01*
Y-67754D01*
X1097316D01*
Y-68040D01*
Y-68327D01*
Y-68613D01*
Y-68899D01*
Y-69186D01*
Y-69472D01*
Y-69758D01*
Y-70044D01*
Y-70331D01*
Y-70617D01*
Y-70903D01*
Y-71190D01*
Y-71476D01*
Y-71762D01*
Y-72049D01*
Y-72335D01*
Y-72621D01*
Y-72908D01*
Y-73194D01*
Y-73480D01*
Y-73767D01*
Y-74053D01*
Y-74339D01*
Y-74625D01*
Y-74912D01*
Y-75198D01*
Y-75485D01*
Y-75771D01*
Y-76057D01*
Y-76343D01*
Y-76630D01*
Y-76916D01*
Y-77202D01*
Y-77489D01*
Y-77775D01*
Y-78061D01*
Y-78348D01*
Y-78634D01*
Y-78920D01*
Y-79207D01*
Y-79493D01*
X1097602D01*
Y-79779D01*
X1097316D01*
Y-80066D01*
Y-80352D01*
X1097602D01*
Y-80638D01*
Y-80924D01*
Y-81211D01*
Y-81497D01*
Y-81783D01*
Y-82070D01*
Y-82356D01*
Y-82642D01*
Y-82929D01*
Y-83215D01*
Y-83501D01*
Y-83788D01*
Y-84074D01*
Y-84360D01*
Y-84646D01*
Y-84933D01*
Y-85219D01*
Y-85505D01*
Y-85792D01*
Y-86078D01*
Y-86364D01*
Y-86651D01*
Y-86937D01*
Y-87223D01*
Y-87510D01*
Y-87796D01*
X1097888D01*
Y-88082D01*
Y-88369D01*
Y-88655D01*
X1098175D01*
Y-88941D01*
X1098461D01*
Y-89227D01*
X1098747D01*
Y-89514D01*
X1099606D01*
Y-89800D01*
X1100465D01*
Y-89514D01*
X1100751D01*
Y-89227D01*
Y-88941D01*
Y-88655D01*
X1101038D01*
Y-88369D01*
Y-88082D01*
X1101324D01*
Y-87796D01*
Y-87510D01*
Y-87223D01*
X1101610D01*
Y-86937D01*
Y-86651D01*
Y-86364D01*
X1101897D01*
Y-86078D01*
Y-85792D01*
Y-85505D01*
X1102183D01*
Y-85219D01*
Y-84933D01*
Y-84646D01*
X1102469D01*
Y-84360D01*
Y-84074D01*
X1102756D01*
Y-83788D01*
Y-83501D01*
Y-83215D01*
X1103042D01*
Y-82929D01*
Y-82642D01*
Y-82356D01*
X1103328D01*
Y-82070D01*
Y-81783D01*
Y-81497D01*
X1103615D01*
Y-81211D01*
Y-80924D01*
X1103901D01*
Y-80638D01*
Y-80352D01*
Y-80066D01*
X1104187D01*
Y-79779D01*
Y-79493D01*
Y-79207D01*
X1104473D01*
Y-78920D01*
Y-78634D01*
Y-78348D01*
X1104760D01*
Y-78061D01*
Y-77775D01*
X1105046D01*
Y-77489D01*
Y-77202D01*
Y-76916D01*
X1105332D01*
Y-76630D01*
Y-76343D01*
Y-76057D01*
X1105619D01*
Y-75771D01*
Y-75485D01*
Y-75198D01*
X1105905D01*
Y-74912D01*
Y-74625D01*
X1106191D01*
Y-74339D01*
Y-74053D01*
Y-73767D01*
X1106478D01*
Y-73480D01*
Y-73194D01*
Y-72908D01*
X1106764D01*
Y-72621D01*
Y-72335D01*
Y-72049D01*
X1107050D01*
Y-71762D01*
Y-71476D01*
Y-71190D01*
Y-70903D01*
X1107337D01*
Y-70617D01*
Y-70331D01*
Y-70044D01*
Y-69758D01*
X1107623D01*
Y-69472D01*
Y-69186D01*
Y-68899D01*
Y-68613D01*
Y-68327D01*
X1107909D01*
Y-68040D01*
Y-67754D01*
Y-67468D01*
Y-67181D01*
Y-66895D01*
Y-66609D01*
X1108195D01*
Y-66322D01*
Y-66036D01*
Y-65750D01*
Y-65464D01*
Y-65177D01*
Y-64891D01*
Y-64605D01*
Y-64318D01*
Y-64032D01*
Y-63746D01*
X1121080D01*
Y-64032D01*
D02*
G37*
G36*
X1063244Y-46567D02*
Y-46853D01*
X1062958D01*
Y-47139D01*
Y-47426D01*
Y-47712D01*
Y-47998D01*
Y-48285D01*
Y-48571D01*
X1062672D01*
Y-48857D01*
Y-49144D01*
Y-49430D01*
Y-49716D01*
Y-50003D01*
Y-50289D01*
X1062385D01*
Y-50575D01*
Y-50862D01*
Y-51148D01*
Y-51434D01*
Y-51720D01*
Y-52007D01*
Y-52293D01*
X1062099D01*
Y-52579D01*
Y-52866D01*
Y-53152D01*
Y-53438D01*
Y-53725D01*
Y-54011D01*
X1061813D01*
Y-54297D01*
Y-54584D01*
Y-54870D01*
Y-55156D01*
Y-55443D01*
Y-55729D01*
X1061526D01*
Y-56015D01*
Y-56301D01*
Y-56588D01*
Y-56874D01*
Y-57161D01*
Y-57447D01*
Y-57733D01*
X1061240D01*
Y-58019D01*
Y-58306D01*
Y-58592D01*
Y-58878D01*
Y-59165D01*
Y-59451D01*
X1060954D01*
Y-59737D01*
Y-60024D01*
Y-60310D01*
Y-60596D01*
Y-60883D01*
Y-61169D01*
X1060668D01*
Y-61455D01*
Y-61742D01*
Y-62028D01*
Y-62314D01*
Y-62600D01*
Y-62887D01*
X1060381D01*
Y-63173D01*
Y-63459D01*
Y-63746D01*
Y-64032D01*
Y-64318D01*
Y-64605D01*
Y-64891D01*
X1060095D01*
Y-65177D01*
Y-65464D01*
Y-65750D01*
Y-66036D01*
Y-66322D01*
Y-66609D01*
X1059809D01*
Y-66895D01*
Y-67181D01*
X1060381D01*
Y-66895D01*
X1060668D01*
Y-66609D01*
X1060954D01*
Y-66322D01*
X1061526D01*
Y-66036D01*
X1061813D01*
Y-65750D01*
X1062099D01*
Y-65464D01*
X1062672D01*
Y-65177D01*
X1063244D01*
Y-64891D01*
X1063531D01*
Y-64605D01*
X1064103D01*
Y-64318D01*
X1064962D01*
Y-64032D01*
X1065535D01*
Y-63746D01*
X1066394D01*
Y-63459D01*
X1067825D01*
Y-63173D01*
X1074124D01*
Y-63459D01*
X1075270D01*
Y-63746D01*
X1076128D01*
Y-64032D01*
X1076701D01*
Y-64318D01*
X1076987D01*
Y-64605D01*
X1077560D01*
Y-64891D01*
X1077846D01*
Y-65177D01*
X1078133D01*
Y-65464D01*
X1078419D01*
Y-65750D01*
X1078705D01*
Y-66036D01*
Y-66322D01*
X1078992D01*
Y-66609D01*
Y-66895D01*
X1079278D01*
Y-67181D01*
Y-67468D01*
Y-67754D01*
X1079564D01*
Y-68040D01*
Y-68327D01*
Y-68613D01*
Y-68899D01*
X1079850D01*
Y-69186D01*
Y-69472D01*
Y-69758D01*
Y-70044D01*
Y-70331D01*
Y-70617D01*
Y-70903D01*
Y-71190D01*
Y-71476D01*
Y-71762D01*
Y-72049D01*
Y-72335D01*
Y-72621D01*
Y-72908D01*
Y-73194D01*
Y-73480D01*
Y-73767D01*
Y-74053D01*
X1079564D01*
Y-74339D01*
Y-74625D01*
Y-74912D01*
Y-75198D01*
Y-75485D01*
Y-75771D01*
Y-76057D01*
X1079278D01*
Y-76343D01*
Y-76630D01*
Y-76916D01*
Y-77202D01*
Y-77489D01*
Y-77775D01*
Y-78061D01*
X1078992D01*
Y-78348D01*
Y-78634D01*
Y-78920D01*
Y-79207D01*
Y-79493D01*
Y-79779D01*
X1078705D01*
Y-80066D01*
Y-80352D01*
Y-80638D01*
Y-80924D01*
Y-81211D01*
Y-81497D01*
X1078419D01*
Y-81783D01*
Y-82070D01*
Y-82356D01*
Y-82642D01*
Y-82929D01*
Y-83215D01*
X1078133D01*
Y-83501D01*
Y-83788D01*
Y-84074D01*
Y-84360D01*
Y-84646D01*
Y-84933D01*
Y-85219D01*
X1077846D01*
Y-85505D01*
Y-85792D01*
Y-86078D01*
Y-86364D01*
Y-86651D01*
Y-86937D01*
X1077560D01*
Y-87223D01*
Y-87510D01*
Y-87796D01*
Y-88082D01*
Y-88369D01*
Y-88655D01*
X1077274D01*
Y-88941D01*
Y-89227D01*
Y-89514D01*
Y-89800D01*
Y-90086D01*
Y-90373D01*
Y-90659D01*
X1076987D01*
Y-90945D01*
Y-91232D01*
Y-91518D01*
Y-91804D01*
Y-92091D01*
Y-92377D01*
X1076701D01*
Y-92663D01*
Y-92950D01*
Y-93236D01*
Y-93522D01*
Y-93809D01*
Y-94095D01*
X1076415D01*
Y-94381D01*
Y-94667D01*
Y-94954D01*
Y-95240D01*
Y-95526D01*
Y-95813D01*
X1076128D01*
Y-96099D01*
Y-96385D01*
Y-96672D01*
Y-96958D01*
Y-97244D01*
Y-97531D01*
Y-97817D01*
X1075842D01*
Y-98103D01*
Y-98390D01*
Y-98676D01*
Y-98962D01*
Y-99248D01*
Y-99535D01*
X1075556D01*
Y-99821D01*
Y-100107D01*
X1062385D01*
Y-99821D01*
Y-99535D01*
X1062672D01*
Y-99248D01*
Y-98962D01*
Y-98676D01*
Y-98390D01*
Y-98103D01*
Y-97817D01*
X1062958D01*
Y-97531D01*
Y-97244D01*
Y-96958D01*
Y-96672D01*
Y-96385D01*
Y-96099D01*
Y-95813D01*
X1063244D01*
Y-95526D01*
Y-95240D01*
Y-94954D01*
Y-94667D01*
Y-94381D01*
Y-94095D01*
X1063531D01*
Y-93809D01*
Y-93522D01*
Y-93236D01*
Y-92950D01*
Y-92663D01*
Y-92377D01*
X1063817D01*
Y-92091D01*
Y-91804D01*
Y-91518D01*
Y-91232D01*
Y-90945D01*
Y-90659D01*
Y-90373D01*
X1064103D01*
Y-90086D01*
Y-89800D01*
Y-89514D01*
Y-89227D01*
Y-88941D01*
Y-88655D01*
X1064390D01*
Y-88369D01*
Y-88082D01*
Y-87796D01*
Y-87510D01*
Y-87223D01*
Y-86937D01*
Y-86651D01*
X1064676D01*
Y-86364D01*
Y-86078D01*
Y-85792D01*
Y-85505D01*
Y-85219D01*
Y-84933D01*
X1064962D01*
Y-84646D01*
Y-84360D01*
Y-84074D01*
Y-83788D01*
Y-83501D01*
Y-83215D01*
X1065249D01*
Y-82929D01*
Y-82642D01*
Y-82356D01*
Y-82070D01*
Y-81783D01*
Y-81497D01*
X1065535D01*
Y-81211D01*
Y-80924D01*
Y-80638D01*
Y-80352D01*
Y-80066D01*
Y-79779D01*
Y-79493D01*
X1065821D01*
Y-79207D01*
Y-78920D01*
Y-78634D01*
Y-78348D01*
Y-78061D01*
Y-77775D01*
X1066107D01*
Y-77489D01*
Y-77202D01*
Y-76916D01*
Y-76630D01*
Y-76343D01*
Y-76057D01*
Y-75771D01*
X1066394D01*
Y-75485D01*
Y-75198D01*
Y-74912D01*
Y-74625D01*
Y-74339D01*
Y-74053D01*
X1066107D01*
Y-73767D01*
Y-73480D01*
X1065821D01*
Y-73194D01*
X1065535D01*
Y-72908D01*
X1064962D01*
Y-72621D01*
X1063244D01*
Y-72908D01*
X1061813D01*
Y-73194D01*
X1060954D01*
Y-73480D01*
X1060381D01*
Y-73767D01*
X1060095D01*
Y-74053D01*
X1059522D01*
Y-74339D01*
X1059236D01*
Y-74625D01*
X1058950D01*
Y-74912D01*
Y-75198D01*
X1058663D01*
Y-75485D01*
Y-75771D01*
Y-76057D01*
X1058377D01*
Y-76343D01*
Y-76630D01*
Y-76916D01*
Y-77202D01*
Y-77489D01*
Y-77775D01*
X1058091D01*
Y-78061D01*
Y-78348D01*
Y-78634D01*
Y-78920D01*
Y-79207D01*
Y-79493D01*
Y-79779D01*
X1057804D01*
Y-80066D01*
Y-80352D01*
Y-80638D01*
Y-80924D01*
Y-81211D01*
Y-81497D01*
X1057518D01*
Y-81783D01*
Y-82070D01*
Y-82356D01*
Y-82642D01*
Y-82929D01*
Y-83215D01*
X1057232D01*
Y-83501D01*
Y-83788D01*
Y-84074D01*
Y-84360D01*
Y-84646D01*
Y-84933D01*
X1056946D01*
Y-85219D01*
Y-85505D01*
Y-85792D01*
Y-86078D01*
Y-86364D01*
Y-86651D01*
Y-86937D01*
X1056659D01*
Y-87223D01*
Y-87510D01*
Y-87796D01*
Y-88082D01*
Y-88369D01*
Y-88655D01*
X1056373D01*
Y-88941D01*
Y-89227D01*
Y-89514D01*
Y-89800D01*
Y-90086D01*
Y-90373D01*
X1056087D01*
Y-90659D01*
Y-90945D01*
Y-91232D01*
Y-91518D01*
Y-91804D01*
Y-92091D01*
Y-92377D01*
X1055800D01*
Y-92663D01*
Y-92950D01*
Y-93236D01*
Y-93522D01*
Y-93809D01*
Y-94095D01*
X1055514D01*
Y-94381D01*
Y-94667D01*
Y-94954D01*
Y-95240D01*
Y-95526D01*
Y-95813D01*
X1055228D01*
Y-96099D01*
Y-96385D01*
Y-96672D01*
Y-96958D01*
Y-97244D01*
Y-97531D01*
X1054941D01*
Y-97817D01*
Y-98103D01*
Y-98390D01*
Y-98676D01*
Y-98962D01*
Y-99248D01*
Y-99535D01*
X1054655D01*
Y-99821D01*
Y-100107D01*
X1041485D01*
Y-99821D01*
Y-99535D01*
X1041771D01*
Y-99248D01*
Y-98962D01*
Y-98676D01*
Y-98390D01*
Y-98103D01*
Y-97817D01*
Y-97531D01*
X1042057D01*
Y-97244D01*
Y-96958D01*
Y-96672D01*
Y-96385D01*
Y-96099D01*
Y-95813D01*
X1042344D01*
Y-95526D01*
Y-95240D01*
Y-94954D01*
Y-94667D01*
Y-94381D01*
Y-94095D01*
X1042630D01*
Y-93809D01*
Y-93522D01*
Y-93236D01*
Y-92950D01*
Y-92663D01*
Y-92377D01*
Y-92091D01*
X1042916D01*
Y-91804D01*
Y-91518D01*
Y-91232D01*
Y-90945D01*
Y-90659D01*
Y-90373D01*
X1043202D01*
Y-90086D01*
Y-89800D01*
Y-89514D01*
Y-89227D01*
Y-88941D01*
Y-88655D01*
X1043489D01*
Y-88369D01*
Y-88082D01*
Y-87796D01*
Y-87510D01*
Y-87223D01*
Y-86937D01*
X1043775D01*
Y-86651D01*
Y-86364D01*
Y-86078D01*
Y-85792D01*
Y-85505D01*
Y-85219D01*
Y-84933D01*
X1044061D01*
Y-84646D01*
Y-84360D01*
Y-84074D01*
Y-83788D01*
Y-83501D01*
Y-83215D01*
X1044348D01*
Y-82929D01*
Y-82642D01*
Y-82356D01*
Y-82070D01*
Y-81783D01*
Y-81497D01*
X1044634D01*
Y-81211D01*
Y-80924D01*
Y-80638D01*
Y-80352D01*
Y-80066D01*
Y-79779D01*
Y-79493D01*
X1044920D01*
Y-79207D01*
Y-78920D01*
Y-78634D01*
Y-78348D01*
Y-78061D01*
Y-77775D01*
X1045207D01*
Y-77489D01*
Y-77202D01*
Y-76916D01*
Y-76630D01*
Y-76343D01*
Y-76057D01*
X1045493D01*
Y-75771D01*
Y-75485D01*
Y-75198D01*
Y-74912D01*
Y-74625D01*
Y-74339D01*
X1045779D01*
Y-74053D01*
Y-73767D01*
Y-73480D01*
Y-73194D01*
Y-72908D01*
Y-72621D01*
Y-72335D01*
X1046066D01*
Y-72049D01*
Y-71762D01*
Y-71476D01*
Y-71190D01*
Y-70903D01*
Y-70617D01*
X1046352D01*
Y-70331D01*
Y-70044D01*
Y-69758D01*
Y-69472D01*
Y-69186D01*
Y-68899D01*
X1046638D01*
Y-68613D01*
Y-68327D01*
Y-68040D01*
Y-67754D01*
Y-67468D01*
Y-67181D01*
X1046925D01*
Y-66895D01*
Y-66609D01*
Y-66322D01*
Y-66036D01*
Y-65750D01*
Y-65464D01*
Y-65177D01*
X1047211D01*
Y-64891D01*
Y-64605D01*
Y-64318D01*
Y-64032D01*
Y-63746D01*
Y-63459D01*
X1047497D01*
Y-63173D01*
Y-62887D01*
Y-62600D01*
Y-62314D01*
Y-62028D01*
Y-61742D01*
X1047783D01*
Y-61455D01*
Y-61169D01*
Y-60883D01*
Y-60596D01*
Y-60310D01*
Y-60024D01*
Y-59737D01*
X1048070D01*
Y-59451D01*
Y-59165D01*
Y-58878D01*
Y-58592D01*
Y-58306D01*
Y-58019D01*
X1048356D01*
Y-57733D01*
Y-57447D01*
Y-57161D01*
Y-56874D01*
Y-56588D01*
Y-56301D01*
X1048642D01*
Y-56015D01*
Y-55729D01*
Y-55443D01*
Y-55156D01*
Y-54870D01*
Y-54584D01*
X1048929D01*
Y-54297D01*
Y-54011D01*
Y-53725D01*
Y-53438D01*
Y-53152D01*
Y-52866D01*
Y-52579D01*
X1049215D01*
Y-52293D01*
Y-52007D01*
Y-51720D01*
Y-51434D01*
Y-51148D01*
Y-50862D01*
X1049501D01*
Y-50575D01*
Y-50289D01*
Y-50003D01*
Y-49716D01*
Y-49430D01*
Y-49144D01*
X1049788D01*
Y-48857D01*
Y-48571D01*
Y-48285D01*
Y-47998D01*
Y-47712D01*
Y-47426D01*
Y-47139D01*
X1050074D01*
Y-46853D01*
Y-46567D01*
Y-46281D01*
X1063244D01*
Y-46567D01*
D02*
G37*
G36*
X1032036Y-50003D02*
X1033754D01*
Y-50289D01*
X1034613D01*
Y-50575D01*
X1035472D01*
Y-50862D01*
X1036331D01*
Y-51148D01*
X1036904D01*
Y-51434D01*
X1037190D01*
Y-51720D01*
X1037763D01*
Y-52007D01*
X1038049D01*
Y-52293D01*
X1038622D01*
Y-52579D01*
X1038908D01*
Y-52866D01*
X1039194D01*
Y-53152D01*
X1039480D01*
Y-53438D01*
X1039767D01*
Y-53725D01*
X1040053D01*
Y-54011D01*
X1040339D01*
Y-54297D01*
Y-54584D01*
X1040626D01*
Y-54870D01*
X1040912D01*
Y-55156D01*
Y-55443D01*
X1041198D01*
Y-55729D01*
X1041485D01*
Y-56015D01*
Y-56301D01*
X1041771D01*
Y-56588D01*
Y-56874D01*
Y-57161D01*
X1042057D01*
Y-57447D01*
Y-57733D01*
Y-58019D01*
X1042344D01*
Y-58306D01*
Y-58592D01*
Y-58878D01*
Y-59165D01*
X1042630D01*
Y-59451D01*
Y-59737D01*
Y-60024D01*
Y-60310D01*
Y-60596D01*
X1042916D01*
Y-60883D01*
Y-61169D01*
Y-61455D01*
Y-61742D01*
Y-62028D01*
Y-62314D01*
Y-62600D01*
Y-62887D01*
Y-63173D01*
Y-63459D01*
Y-63746D01*
Y-64032D01*
Y-64318D01*
Y-64605D01*
Y-64891D01*
Y-65177D01*
Y-65464D01*
Y-65750D01*
Y-66036D01*
Y-66322D01*
X1042630D01*
Y-66609D01*
Y-66895D01*
Y-67181D01*
Y-67468D01*
Y-67754D01*
Y-68040D01*
Y-68327D01*
X1042344D01*
Y-68613D01*
Y-68899D01*
Y-69186D01*
Y-69472D01*
Y-69758D01*
X1042057D01*
Y-70044D01*
Y-70331D01*
Y-70617D01*
Y-70903D01*
Y-71190D01*
X1041771D01*
Y-71476D01*
Y-71762D01*
Y-72049D01*
X1041485D01*
Y-72335D01*
Y-72621D01*
Y-72908D01*
Y-73194D01*
X1041198D01*
Y-73480D01*
Y-73767D01*
Y-74053D01*
X1040912D01*
Y-74339D01*
Y-74625D01*
X1040626D01*
Y-74912D01*
Y-75198D01*
Y-75485D01*
X1040339D01*
Y-75771D01*
Y-76057D01*
X1040053D01*
Y-76343D01*
Y-76630D01*
X1039767D01*
Y-76916D01*
Y-77202D01*
X1039480D01*
Y-77489D01*
X1039194D01*
Y-77775D01*
Y-78061D01*
X1038908D01*
Y-78348D01*
X1038622D01*
Y-78634D01*
X1038335D01*
Y-78920D01*
Y-79207D01*
X1038049D01*
Y-79493D01*
X1037763D01*
Y-79779D01*
X1037476D01*
Y-80066D01*
X1037190D01*
Y-80352D01*
X1036904D01*
Y-80638D01*
X1036331D01*
Y-80924D01*
X1036045D01*
Y-81211D01*
X1035472D01*
Y-81497D01*
X1035186D01*
Y-81783D01*
X1034613D01*
Y-82070D01*
X1033754D01*
Y-82356D01*
X1032895D01*
Y-82642D01*
X1032036D01*
Y-82929D01*
X1030318D01*
Y-83215D01*
X1025165D01*
Y-82929D01*
X1022588D01*
Y-82642D01*
X1020584D01*
Y-82356D01*
X1019152D01*
Y-82070D01*
X1017721D01*
Y-81783D01*
X1016289D01*
Y-82070D01*
Y-82356D01*
Y-82642D01*
Y-82929D01*
Y-83215D01*
Y-83501D01*
Y-83788D01*
X1016003D01*
Y-84074D01*
Y-84360D01*
Y-84646D01*
Y-84933D01*
Y-85219D01*
Y-85505D01*
X1015716D01*
Y-85792D01*
Y-86078D01*
Y-86364D01*
Y-86651D01*
Y-86937D01*
Y-87223D01*
X1015430D01*
Y-87510D01*
Y-87796D01*
Y-88082D01*
Y-88369D01*
Y-88655D01*
Y-88941D01*
Y-89227D01*
X1015144D01*
Y-89514D01*
Y-89800D01*
Y-90086D01*
Y-90373D01*
Y-90659D01*
Y-90945D01*
X1014857D01*
Y-91232D01*
Y-91518D01*
Y-91804D01*
Y-92091D01*
Y-92377D01*
Y-92663D01*
X1014571D01*
Y-92950D01*
Y-93236D01*
Y-93522D01*
Y-93809D01*
Y-94095D01*
Y-94381D01*
Y-94667D01*
X1014285D01*
Y-94954D01*
Y-95240D01*
Y-95526D01*
Y-95813D01*
Y-96099D01*
Y-96385D01*
X1013999D01*
Y-96672D01*
Y-96958D01*
Y-97244D01*
Y-97531D01*
Y-97817D01*
Y-98103D01*
X1013712D01*
Y-98390D01*
Y-98676D01*
Y-98962D01*
Y-99248D01*
Y-99535D01*
Y-99821D01*
Y-100107D01*
X1000256D01*
Y-99821D01*
X1000542D01*
Y-99535D01*
Y-99248D01*
Y-98962D01*
Y-98676D01*
Y-98390D01*
X1000828D01*
Y-98103D01*
Y-97817D01*
Y-97531D01*
Y-97244D01*
Y-96958D01*
Y-96672D01*
Y-96385D01*
X1001114D01*
Y-96099D01*
Y-95813D01*
Y-95526D01*
Y-95240D01*
Y-94954D01*
Y-94667D01*
X1001401D01*
Y-94381D01*
Y-94095D01*
Y-93809D01*
Y-93522D01*
Y-93236D01*
Y-92950D01*
X1001687D01*
Y-92663D01*
Y-92377D01*
Y-92091D01*
Y-91804D01*
Y-91518D01*
Y-91232D01*
Y-90945D01*
X1001974D01*
Y-90659D01*
Y-90373D01*
Y-90086D01*
Y-89800D01*
Y-89514D01*
Y-89227D01*
X1002260D01*
Y-88941D01*
Y-88655D01*
Y-88369D01*
Y-88082D01*
Y-87796D01*
Y-87510D01*
X1002546D01*
Y-87223D01*
Y-86937D01*
Y-86651D01*
Y-86364D01*
Y-86078D01*
Y-85792D01*
X1002832D01*
Y-85505D01*
Y-85219D01*
Y-84933D01*
Y-84646D01*
Y-84360D01*
Y-84074D01*
Y-83788D01*
X1003119D01*
Y-83501D01*
Y-83215D01*
Y-82929D01*
Y-82642D01*
Y-82356D01*
Y-82070D01*
X1003405D01*
Y-81783D01*
Y-81497D01*
Y-81211D01*
Y-80924D01*
Y-80638D01*
Y-80352D01*
X1003691D01*
Y-80066D01*
Y-79779D01*
Y-79493D01*
Y-79207D01*
Y-78920D01*
Y-78634D01*
X1003978D01*
Y-78348D01*
Y-78061D01*
Y-77775D01*
Y-77489D01*
Y-77202D01*
Y-76916D01*
Y-76630D01*
X1004264D01*
Y-76343D01*
Y-76057D01*
Y-75771D01*
Y-75485D01*
Y-75198D01*
Y-74912D01*
X1004550D01*
Y-74625D01*
Y-74339D01*
Y-74053D01*
Y-73767D01*
Y-73480D01*
Y-73194D01*
X1004837D01*
Y-72908D01*
Y-72621D01*
Y-72335D01*
Y-72049D01*
Y-71762D01*
Y-71476D01*
Y-71190D01*
X1005123D01*
Y-70903D01*
Y-70617D01*
Y-70331D01*
Y-70044D01*
Y-69758D01*
Y-69472D01*
X1005409D01*
Y-69186D01*
Y-68899D01*
Y-68613D01*
Y-68327D01*
Y-68040D01*
Y-67754D01*
X1005696D01*
Y-67468D01*
Y-67181D01*
Y-66895D01*
Y-66609D01*
Y-66322D01*
Y-66036D01*
X1005982D01*
Y-65750D01*
Y-65464D01*
Y-65177D01*
Y-64891D01*
Y-64605D01*
Y-64318D01*
Y-64032D01*
X1006268D01*
Y-63746D01*
Y-63459D01*
Y-63173D01*
Y-62887D01*
Y-62600D01*
Y-62314D01*
X1006555D01*
Y-62028D01*
Y-61742D01*
Y-61455D01*
Y-61169D01*
Y-60883D01*
Y-60596D01*
X1006841D01*
Y-60310D01*
Y-60024D01*
Y-59737D01*
Y-59451D01*
Y-59165D01*
Y-58878D01*
Y-58592D01*
X1007127D01*
Y-58306D01*
Y-58019D01*
Y-57733D01*
Y-57447D01*
Y-57161D01*
Y-56874D01*
X1007413D01*
Y-56588D01*
Y-56301D01*
Y-56015D01*
Y-55729D01*
Y-55443D01*
Y-55156D01*
X1007700D01*
Y-54870D01*
Y-54584D01*
Y-54297D01*
Y-54011D01*
Y-53725D01*
Y-53438D01*
Y-53152D01*
X1007986D01*
Y-52866D01*
Y-52579D01*
Y-52293D01*
Y-52007D01*
Y-51720D01*
Y-51434D01*
X1008272D01*
Y-51148D01*
Y-50862D01*
Y-50575D01*
Y-50289D01*
Y-50003D01*
Y-49716D01*
X1032036D01*
Y-50003D01*
D02*
G37*
G36*
X1165172Y-64032D02*
X1164886D01*
Y-64318D01*
X1164599D01*
Y-64605D01*
Y-64891D01*
X1164313D01*
Y-65177D01*
X1164027D01*
Y-65464D01*
X1163740D01*
Y-65750D01*
Y-66036D01*
X1163454D01*
Y-66322D01*
X1163168D01*
Y-66609D01*
X1162881D01*
Y-66895D01*
X1162595D01*
Y-67181D01*
Y-67468D01*
X1162309D01*
Y-67754D01*
X1162022D01*
Y-68040D01*
X1161736D01*
Y-68327D01*
Y-68613D01*
X1161450D01*
Y-68899D01*
X1161163D01*
Y-69186D01*
X1160877D01*
Y-69472D01*
X1160591D01*
Y-69758D01*
Y-70044D01*
X1160305D01*
Y-70331D01*
X1160018D01*
Y-70617D01*
X1159732D01*
Y-70903D01*
Y-71190D01*
X1159445D01*
Y-71476D01*
X1159159D01*
Y-71762D01*
X1158873D01*
Y-72049D01*
Y-72335D01*
X1158587D01*
Y-72621D01*
X1158300D01*
Y-72908D01*
X1158014D01*
Y-73194D01*
X1157728D01*
Y-73480D01*
Y-73767D01*
X1157441D01*
Y-74053D01*
X1157155D01*
Y-74339D01*
X1156869D01*
Y-74625D01*
Y-74912D01*
X1156582D01*
Y-75198D01*
X1156296D01*
Y-75485D01*
X1156010D01*
Y-75771D01*
Y-76057D01*
X1155723D01*
Y-76343D01*
X1155437D01*
Y-76630D01*
X1155151D01*
Y-76916D01*
X1154865D01*
Y-77202D01*
Y-77489D01*
X1154578D01*
Y-77775D01*
X1154292D01*
Y-78061D01*
X1154006D01*
Y-78348D01*
Y-78634D01*
X1153719D01*
Y-78920D01*
X1153433D01*
Y-79207D01*
X1153147D01*
Y-79493D01*
Y-79779D01*
X1152860D01*
Y-80066D01*
X1152574D01*
Y-80352D01*
X1152288D01*
Y-80638D01*
X1152001D01*
Y-80924D01*
Y-81211D01*
X1151715D01*
Y-81497D01*
X1151429D01*
Y-81783D01*
X1151142D01*
Y-82070D01*
Y-82356D01*
X1150856D01*
Y-82642D01*
X1150570D01*
Y-82929D01*
X1150284D01*
Y-83215D01*
X1149997D01*
Y-83501D01*
Y-83788D01*
X1150284D01*
Y-84074D01*
Y-84360D01*
X1150570D01*
Y-84646D01*
Y-84933D01*
X1150856D01*
Y-85219D01*
X1151142D01*
Y-85505D01*
Y-85792D01*
X1151429D01*
Y-86078D01*
Y-86364D01*
X1151715D01*
Y-86651D01*
Y-86937D01*
X1152001D01*
Y-87223D01*
Y-87510D01*
X1152288D01*
Y-87796D01*
Y-88082D01*
X1152574D01*
Y-88369D01*
Y-88655D01*
X1152860D01*
Y-88941D01*
Y-89227D01*
X1153147D01*
Y-89514D01*
Y-89800D01*
X1153433D01*
Y-90086D01*
X1153719D01*
Y-90373D01*
Y-90659D01*
X1154006D01*
Y-90945D01*
Y-91232D01*
X1154292D01*
Y-91518D01*
Y-91804D01*
X1154578D01*
Y-92091D01*
Y-92377D01*
X1154865D01*
Y-92663D01*
Y-92950D01*
X1155151D01*
Y-93236D01*
Y-93522D01*
X1155437D01*
Y-93809D01*
Y-94095D01*
X1155723D01*
Y-94381D01*
X1156010D01*
Y-94667D01*
Y-94954D01*
X1156296D01*
Y-95240D01*
Y-95526D01*
X1156582D01*
Y-95813D01*
Y-96099D01*
X1156869D01*
Y-96385D01*
Y-96672D01*
X1157155D01*
Y-96958D01*
Y-97244D01*
X1157441D01*
Y-97531D01*
Y-97817D01*
X1157728D01*
Y-98103D01*
Y-98390D01*
X1158014D01*
Y-98676D01*
X1158300D01*
Y-98962D01*
Y-99248D01*
X1158587D01*
Y-99535D01*
Y-99821D01*
X1158873D01*
Y-100107D01*
X1143698D01*
Y-99821D01*
X1143412D01*
Y-99535D01*
Y-99248D01*
Y-98962D01*
X1143126D01*
Y-98676D01*
Y-98390D01*
Y-98103D01*
X1142839D01*
Y-97817D01*
Y-97531D01*
X1142553D01*
Y-97244D01*
Y-96958D01*
Y-96672D01*
X1142267D01*
Y-96385D01*
Y-96099D01*
Y-95813D01*
X1141980D01*
Y-95526D01*
Y-95240D01*
X1141694D01*
Y-94954D01*
Y-94667D01*
Y-94381D01*
X1141408D01*
Y-94095D01*
Y-93809D01*
Y-93522D01*
X1141121D01*
Y-93236D01*
Y-92950D01*
Y-92663D01*
X1140835D01*
Y-92377D01*
X1140263D01*
Y-92663D01*
Y-92950D01*
X1139976D01*
Y-93236D01*
X1139690D01*
Y-93522D01*
Y-93809D01*
X1139404D01*
Y-94095D01*
X1139117D01*
Y-94381D01*
Y-94667D01*
X1138831D01*
Y-94954D01*
X1138545D01*
Y-95240D01*
Y-95526D01*
X1138258D01*
Y-95813D01*
X1137972D01*
Y-96099D01*
X1137686D01*
Y-96385D01*
Y-96672D01*
X1137399D01*
Y-96958D01*
X1137113D01*
Y-97244D01*
Y-97531D01*
X1136827D01*
Y-97817D01*
X1136541D01*
Y-98103D01*
Y-98390D01*
X1136254D01*
Y-98676D01*
X1135968D01*
Y-98962D01*
Y-99248D01*
X1135682D01*
Y-99535D01*
X1135395D01*
Y-99821D01*
Y-100107D01*
X1119362D01*
Y-99821D01*
X1119648D01*
Y-99535D01*
X1119934D01*
Y-99248D01*
X1120221D01*
Y-98962D01*
X1120507D01*
Y-98676D01*
Y-98390D01*
X1120793D01*
Y-98103D01*
X1121080D01*
Y-97817D01*
X1121366D01*
Y-97531D01*
X1121652D01*
Y-97244D01*
Y-96958D01*
X1121939D01*
Y-96672D01*
X1122225D01*
Y-96385D01*
X1122511D01*
Y-96099D01*
Y-95813D01*
X1122797D01*
Y-95526D01*
X1123084D01*
Y-95240D01*
X1123370D01*
Y-94954D01*
X1123656D01*
Y-94667D01*
Y-94381D01*
X1123943D01*
Y-94095D01*
X1124229D01*
Y-93809D01*
X1124515D01*
Y-93522D01*
X1124802D01*
Y-93236D01*
Y-92950D01*
X1125088D01*
Y-92663D01*
X1125374D01*
Y-92377D01*
X1125661D01*
Y-92091D01*
Y-91804D01*
X1125947D01*
Y-91518D01*
X1126233D01*
Y-91232D01*
X1126519D01*
Y-90945D01*
X1126806D01*
Y-90659D01*
Y-90373D01*
X1127092D01*
Y-90086D01*
X1127378D01*
Y-89800D01*
X1127665D01*
Y-89514D01*
Y-89227D01*
X1127951D01*
Y-88941D01*
X1128237D01*
Y-88655D01*
X1128524D01*
Y-88369D01*
X1128810D01*
Y-88082D01*
Y-87796D01*
X1129096D01*
Y-87510D01*
X1129383D01*
Y-87223D01*
X1129669D01*
Y-86937D01*
Y-86651D01*
X1129955D01*
Y-86364D01*
X1130242D01*
Y-86078D01*
X1130528D01*
Y-85792D01*
X1130814D01*
Y-85505D01*
Y-85219D01*
X1131100D01*
Y-84933D01*
X1131387D01*
Y-84646D01*
X1131673D01*
Y-84360D01*
X1131960D01*
Y-84074D01*
Y-83788D01*
X1132246D01*
Y-83501D01*
X1132532D01*
Y-83215D01*
X1132818D01*
Y-82929D01*
Y-82642D01*
X1133105D01*
Y-82356D01*
X1133391D01*
Y-82070D01*
X1133677D01*
Y-81783D01*
X1133964D01*
Y-81497D01*
Y-81211D01*
X1134250D01*
Y-80924D01*
Y-80638D01*
Y-80352D01*
X1133964D01*
Y-80066D01*
X1133677D01*
Y-79779D01*
Y-79493D01*
X1133391D01*
Y-79207D01*
Y-78920D01*
X1133105D01*
Y-78634D01*
Y-78348D01*
X1132818D01*
Y-78061D01*
Y-77775D01*
X1132532D01*
Y-77489D01*
Y-77202D01*
X1132246D01*
Y-76916D01*
Y-76630D01*
X1131960D01*
Y-76343D01*
X1131673D01*
Y-76057D01*
Y-75771D01*
X1131387D01*
Y-75485D01*
Y-75198D01*
X1131100D01*
Y-74912D01*
Y-74625D01*
X1130814D01*
Y-74339D01*
Y-74053D01*
X1130528D01*
Y-73767D01*
Y-73480D01*
X1130242D01*
Y-73194D01*
Y-72908D01*
X1129955D01*
Y-72621D01*
X1129669D01*
Y-72335D01*
Y-72049D01*
X1129383D01*
Y-71762D01*
Y-71476D01*
X1129096D01*
Y-71190D01*
Y-70903D01*
X1128810D01*
Y-70617D01*
Y-70331D01*
X1128524D01*
Y-70044D01*
Y-69758D01*
X1128237D01*
Y-69472D01*
Y-69186D01*
X1127951D01*
Y-68899D01*
Y-68613D01*
X1127665D01*
Y-68327D01*
X1127378D01*
Y-68040D01*
Y-67754D01*
X1127092D01*
Y-67468D01*
Y-67181D01*
X1126806D01*
Y-66895D01*
Y-66609D01*
X1126519D01*
Y-66322D01*
Y-66036D01*
X1126233D01*
Y-65750D01*
Y-65464D01*
X1125947D01*
Y-65177D01*
Y-64891D01*
X1125661D01*
Y-64605D01*
X1125374D01*
Y-64318D01*
Y-64032D01*
X1125088D01*
Y-63746D01*
X1140835D01*
Y-64032D01*
X1141121D01*
Y-64318D01*
Y-64605D01*
Y-64891D01*
X1141408D01*
Y-65177D01*
Y-65464D01*
Y-65750D01*
X1141694D01*
Y-66036D01*
Y-66322D01*
Y-66609D01*
X1141980D01*
Y-66895D01*
Y-67181D01*
Y-67468D01*
X1142267D01*
Y-67754D01*
Y-68040D01*
Y-68327D01*
X1142553D01*
Y-68613D01*
Y-68899D01*
Y-69186D01*
X1142839D01*
Y-69472D01*
Y-69758D01*
Y-70044D01*
X1143126D01*
Y-70331D01*
Y-70617D01*
Y-70903D01*
X1143412D01*
Y-71190D01*
Y-71476D01*
Y-71762D01*
Y-72049D01*
X1143985D01*
Y-71762D01*
X1144271D01*
Y-71476D01*
X1144557D01*
Y-71190D01*
Y-70903D01*
X1144844D01*
Y-70617D01*
X1145130D01*
Y-70331D01*
Y-70044D01*
X1145416D01*
Y-69758D01*
X1145702D01*
Y-69472D01*
Y-69186D01*
X1145989D01*
Y-68899D01*
X1146275D01*
Y-68613D01*
Y-68327D01*
X1146561D01*
Y-68040D01*
X1146848D01*
Y-67754D01*
Y-67468D01*
X1147134D01*
Y-67181D01*
X1147420D01*
Y-66895D01*
Y-66609D01*
X1147707D01*
Y-66322D01*
X1147993D01*
Y-66036D01*
Y-65750D01*
X1148279D01*
Y-65464D01*
X1148566D01*
Y-65177D01*
Y-64891D01*
X1148852D01*
Y-64605D01*
X1149138D01*
Y-64318D01*
Y-64032D01*
X1149425D01*
Y-63746D01*
X1165172D01*
Y-64032D01*
D02*
G37*
%LPC*%
G36*
X1027742Y-60883D02*
X1019725D01*
Y-61169D01*
Y-61455D01*
Y-61742D01*
Y-62028D01*
Y-62314D01*
X1019438D01*
Y-62600D01*
Y-62887D01*
Y-63173D01*
Y-63459D01*
Y-63746D01*
Y-64032D01*
X1019152D01*
Y-64318D01*
Y-64605D01*
Y-64891D01*
Y-65177D01*
Y-65464D01*
Y-65750D01*
X1018866D01*
Y-66036D01*
Y-66322D01*
Y-66609D01*
Y-66895D01*
Y-67181D01*
Y-67468D01*
X1018580D01*
Y-67754D01*
Y-68040D01*
Y-68327D01*
Y-68613D01*
Y-68899D01*
Y-69186D01*
Y-69472D01*
X1018293D01*
Y-69758D01*
Y-70044D01*
Y-70331D01*
Y-70617D01*
Y-70903D01*
Y-71190D01*
X1018007D01*
Y-71476D01*
Y-71762D01*
Y-72049D01*
X1025165D01*
Y-71762D01*
X1026310D01*
Y-71476D01*
X1026883D01*
Y-71190D01*
X1027169D01*
Y-70903D01*
X1027455D01*
Y-70617D01*
X1027742D01*
Y-70331D01*
X1028028D01*
Y-70044D01*
Y-69758D01*
X1028314D01*
Y-69472D01*
Y-69186D01*
X1028601D01*
Y-68899D01*
Y-68613D01*
X1028887D01*
Y-68327D01*
Y-68040D01*
Y-67754D01*
Y-67468D01*
X1029173D01*
Y-67181D01*
Y-66895D01*
Y-66609D01*
Y-66322D01*
Y-66036D01*
X1029459D01*
Y-65750D01*
Y-65464D01*
Y-65177D01*
Y-64891D01*
Y-64605D01*
Y-64318D01*
Y-64032D01*
Y-63746D01*
Y-63459D01*
Y-63173D01*
Y-62887D01*
X1029173D01*
Y-62600D01*
Y-62314D01*
X1028887D01*
Y-62028D01*
Y-61742D01*
X1028601D01*
Y-61455D01*
X1028314D01*
Y-61169D01*
X1027742D01*
Y-60883D01*
D02*
G37*
%LPD*%
D10*
X156496Y51181D02*
G03*
X156496Y51181I-18701J0D01*
G01*
X159449D02*
G03*
X159449Y51181I-21654J0D01*
G01*
X144095Y135827D02*
G03*
X144095Y135827I-394J0D01*
G01*
X61024Y61614D02*
X72835D01*
X61024Y68307D02*
X72835D01*
X61024Y61614D02*
Y68307D01*
X72835Y61614D02*
Y68307D01*
X166260Y30748D02*
X176260D01*
X166260D02*
Y70748D01*
X176260Y30748D02*
Y70748D01*
X166260D02*
X176260D01*
X166260Y73740D02*
X176260D01*
X166260D02*
Y133740D01*
X176260Y73740D02*
Y133740D01*
X166260D02*
X176260D01*
X66600Y182563D02*
X130251D01*
Y88314D02*
Y182563D01*
X66600Y88314D02*
X130251D01*
X66600D02*
Y182563D01*
X11811Y23622D02*
G03*
X11811Y0I0J-11811D01*
G01*
Y23622D02*
G03*
X19685Y31496I0J7874D01*
G01*
X19685Y129921D02*
G03*
X11811Y137795I-7874J0D01*
G01*
Y161417D02*
G03*
X11811Y137795I0J-11811D01*
G01*
X11811Y161417D02*
G03*
X19685Y169291I0J7874D01*
G01*
X27559Y185039D02*
G03*
X19685Y177165I0J-7874D01*
G01*
X177165D02*
G03*
X169291Y185039I-7874J0D01*
G01*
X177165Y169291D02*
G03*
X185039Y161417I7874J0D01*
G01*
X185039Y137795D02*
G03*
X185039Y161417I0J11811D01*
G01*
Y137795D02*
G03*
X177165Y129921I0J-7874D01*
G01*
X177165Y31496D02*
G03*
X185039Y23622I7874J0D01*
G01*
Y0D02*
G03*
X185039Y23622I0J11811D01*
G01*
X19685Y31496D02*
Y129921D01*
Y169291D02*
Y177165D01*
X177165Y169291D02*
Y177165D01*
Y31496D02*
Y129921D01*
X27559Y185039D02*
X169291D01*
X11811Y0D02*
X185039D01*
X1338583Y-137795D02*
Y-98425D01*
X1181102Y-59055D02*
X1456693D01*
X1181102Y-98425D02*
X1456693D01*
X984252Y-137795D02*
X1456693D01*
X984252Y-19685D02*
X1456693D01*
X984252Y-177165D02*
Y-19685D01*
X1181102Y-177165D02*
Y-19685D01*
X-196850Y992126D02*
X1456693D01*
Y-177165D02*
Y992126D01*
X-196850Y-177165D02*
Y992126D01*
Y-177165D02*
X1456693D01*
X1194881Y-163388D02*
X1190945D01*
Y-169291D01*
X1194881D01*
X1190945Y-166340D02*
X1192913D01*
X1200784Y-164372D02*
X1199800Y-163388D01*
X1197832D01*
X1196848Y-164372D01*
Y-165356D01*
X1197832Y-166340D01*
X1199800D01*
X1200784Y-167324D01*
Y-168307D01*
X1199800Y-169291D01*
X1197832D01*
X1196848Y-168307D01*
X1202752Y-169291D02*
Y-163388D01*
X1205704D01*
X1206688Y-164372D01*
Y-166340D01*
X1205704Y-167324D01*
X1202752D01*
X1208656Y-169291D02*
X1210624D01*
X1209640D01*
Y-163388D01*
X1208656Y-164372D01*
X1217511Y-169291D02*
X1213575D01*
X1217511Y-165356D01*
Y-164372D01*
X1216527Y-163388D01*
X1214559D01*
X1213575Y-164372D01*
X1219479Y-170275D02*
X1223415D01*
X1225383Y-163388D02*
Y-169291D01*
X1228334D01*
X1229318Y-168307D01*
Y-164372D01*
X1228334Y-163388D01*
X1225383D01*
X1235222D02*
X1231286D01*
Y-169291D01*
X1235222D01*
X1231286Y-166340D02*
X1233254D01*
X1237190Y-163388D02*
Y-167324D01*
X1239158Y-169291D01*
X1241125Y-167324D01*
Y-163388D01*
X1243093Y-170275D02*
X1247029D01*
X1248997Y-164372D02*
X1249981Y-163388D01*
X1251949D01*
X1252933Y-164372D01*
Y-168307D01*
X1251949Y-169291D01*
X1249981D01*
X1248997Y-168307D01*
Y-164372D01*
X1254900D02*
X1255884Y-163388D01*
X1257852D01*
X1258836Y-164372D01*
Y-168307D01*
X1257852Y-169291D01*
X1255884D01*
X1254900Y-168307D01*
Y-164372D01*
X1260804Y-169291D02*
Y-168307D01*
X1261788D01*
Y-169291D01*
X1260804D01*
X1265724D02*
Y-163388D01*
X1268676D01*
X1269660Y-164372D01*
Y-166340D01*
X1268676Y-167324D01*
X1265724D01*
X1275563Y-165356D02*
X1272611D01*
X1271627Y-166340D01*
Y-168307D01*
X1272611Y-169291D01*
X1275563D01*
X1277531Y-163388D02*
Y-169291D01*
X1280483D01*
X1281467Y-168307D01*
Y-167324D01*
Y-166340D01*
X1280483Y-165356D01*
X1277531D01*
X1283435Y-163388D02*
Y-169291D01*
X1286386D01*
X1287370Y-168307D01*
Y-164372D01*
X1286386Y-163388D01*
X1283435D01*
X1290322Y-169291D02*
X1292290D01*
X1293274Y-168307D01*
Y-166340D01*
X1292290Y-165356D01*
X1290322D01*
X1289338Y-166340D01*
Y-168307D01*
X1290322Y-169291D01*
X1299177Y-165356D02*
X1296226D01*
X1295242Y-166340D01*
Y-168307D01*
X1296226Y-169291D01*
X1299177D01*
D12*
X1202756Y-90551D02*
Y-81368D01*
X1207348Y-76776D01*
X1211939Y-81368D01*
Y-90551D01*
Y-83664D01*
X1202756D01*
X1216531Y-90551D02*
X1223419D01*
X1225714Y-88255D01*
X1223419Y-85960D01*
X1218827D01*
X1216531Y-83664D01*
X1218827Y-81368D01*
X1225714D01*
X1230306Y-90551D02*
X1237194D01*
X1239489Y-88255D01*
X1237194Y-85960D01*
X1232602D01*
X1230306Y-83664D01*
X1232602Y-81368D01*
X1239489D01*
X1250969Y-90551D02*
X1246377D01*
X1244081Y-88255D01*
Y-83664D01*
X1246377Y-81368D01*
X1250969D01*
X1253265Y-83664D01*
Y-85960D01*
X1244081D01*
X1257856Y-90551D02*
Y-81368D01*
X1260152D01*
X1262448Y-83664D01*
Y-90551D01*
Y-83664D01*
X1264744Y-81368D01*
X1267040Y-83664D01*
Y-90551D01*
X1271631Y-76776D02*
Y-90551D01*
X1278519D01*
X1280815Y-88255D01*
Y-85960D01*
Y-83664D01*
X1278519Y-81368D01*
X1271631D01*
X1285406Y-90551D02*
X1289998D01*
X1287702D01*
Y-76776D01*
X1285406D01*
X1296886Y-81368D02*
Y-88255D01*
X1299181Y-90551D01*
X1306069D01*
Y-92847D01*
X1303773Y-95143D01*
X1301477D01*
X1306069Y-90551D02*
Y-81368D01*
X1324436Y-76776D02*
X1333619D01*
X1329027D01*
Y-90551D01*
X1340507D02*
X1345098D01*
X1347394Y-88255D01*
Y-83664D01*
X1345098Y-81368D01*
X1340507D01*
X1338211Y-83664D01*
Y-88255D01*
X1340507Y-90551D01*
X1351986Y-95143D02*
Y-81368D01*
X1358873D01*
X1361169Y-83664D01*
Y-88255D01*
X1358873Y-90551D01*
X1351986D01*
X1005906Y-155517D02*
Y-171260D01*
X1011153Y-166012D01*
X1016401Y-171260D01*
Y-155517D01*
X1021649Y-171260D02*
X1026896D01*
X1024272D01*
Y-160765D01*
X1021649D01*
X1034768Y-171260D02*
Y-160765D01*
X1037391D01*
X1040015Y-163388D01*
Y-171260D01*
Y-163388D01*
X1042639Y-160765D01*
X1045263Y-163388D01*
Y-171260D01*
X1050511Y-155517D02*
Y-166012D01*
X1055758Y-171260D01*
X1061006Y-166012D01*
Y-155517D01*
X1076749Y-158141D02*
X1074125Y-155517D01*
X1068877D01*
X1066253Y-158141D01*
Y-168636D01*
X1068877Y-171260D01*
X1074125D01*
X1076749Y-168636D01*
Y-163388D01*
X1071501D01*
X1360236Y-118771D02*
X1362860Y-116147D01*
X1368108D01*
X1370732Y-118771D01*
Y-129266D01*
X1368108Y-131890D01*
X1362860D01*
X1360236Y-129266D01*
Y-118771D01*
X1375979D02*
X1378603Y-116147D01*
X1383851D01*
X1386475Y-118771D01*
Y-129266D01*
X1383851Y-131890D01*
X1378603D01*
X1375979Y-129266D01*
Y-118771D01*
X1196850Y-131890D02*
X1201442D01*
X1199146D01*
Y-118115D01*
X1196850Y-120411D01*
X1208330D02*
X1210625Y-118115D01*
X1215217D01*
X1217513Y-120411D01*
Y-122706D01*
X1215217Y-125002D01*
X1217513Y-127298D01*
Y-129594D01*
X1215217Y-131890D01*
X1210625D01*
X1208330Y-129594D01*
Y-127298D01*
X1210625Y-125002D01*
X1208330Y-122706D01*
Y-120411D01*
X1210625Y-125002D02*
X1215217D01*
X1222105Y-131890D02*
X1231288Y-122706D01*
X1235880Y-120411D02*
X1238176Y-118115D01*
X1242767D01*
X1245063Y-120411D01*
Y-129594D01*
X1242767Y-131890D01*
X1238176D01*
X1235880Y-129594D01*
Y-120411D01*
X1258838Y-118115D02*
X1254247Y-120411D01*
X1249655Y-125002D01*
Y-129594D01*
X1251951Y-131890D01*
X1256542D01*
X1258838Y-129594D01*
Y-127298D01*
X1256542Y-125002D01*
X1249655D01*
X1263430Y-131890D02*
X1272613Y-122706D01*
X1286388Y-131890D02*
X1277205D01*
X1286388Y-122706D01*
Y-120411D01*
X1284093Y-118115D01*
X1279501D01*
X1277205Y-120411D01*
X1290980D02*
X1293276Y-118115D01*
X1297868D01*
X1300163Y-120411D01*
Y-129594D01*
X1297868Y-131890D01*
X1293276D01*
X1290980Y-129594D01*
Y-120411D01*
X1304755Y-131890D02*
X1309347D01*
X1307051D01*
Y-118115D01*
X1304755Y-120411D01*
X1325418Y-118115D02*
X1316234D01*
Y-125002D01*
X1320826Y-122706D01*
X1323122D01*
X1325418Y-125002D01*
Y-129594D01*
X1323122Y-131890D01*
X1318530D01*
X1316234Y-129594D01*
X1201440Y-37407D02*
X1190945D01*
Y-53150D01*
X1201440D01*
X1190945Y-45278D02*
X1196192D01*
X1217183Y-40031D02*
X1214559Y-37407D01*
X1209312D01*
X1206688Y-40031D01*
Y-42654D01*
X1209312Y-45278D01*
X1214559D01*
X1217183Y-47902D01*
Y-50526D01*
X1214559Y-53150D01*
X1209312D01*
X1206688Y-50526D01*
X1222431Y-53150D02*
Y-37407D01*
X1230302D01*
X1232926Y-40031D01*
Y-45278D01*
X1230302Y-47902D01*
X1222431D01*
X1238174Y-53150D02*
X1243421D01*
X1240798D01*
Y-37407D01*
X1238174Y-40031D01*
X1261788Y-53150D02*
X1251293D01*
X1261788Y-42654D01*
Y-40031D01*
X1259164Y-37407D01*
X1253917D01*
X1251293Y-40031D01*
X1267036Y-55773D02*
X1277531D01*
X1282779Y-37407D02*
Y-53150D01*
X1290650D01*
X1293274Y-50526D01*
Y-40031D01*
X1290650Y-37407D01*
X1282779D01*
X1309017D02*
X1298522D01*
Y-53150D01*
X1309017D01*
X1298522Y-45278D02*
X1303769D01*
X1314265Y-37407D02*
Y-47902D01*
X1319512Y-53150D01*
X1324760Y-47902D01*
Y-37407D01*
D13*
X128937Y57083D02*
Y47243D01*
X130905Y45276D01*
X134841D01*
X136809Y47243D01*
Y57083D01*
X146648Y45276D02*
Y57083D01*
X140744Y51179D01*
X148616D01*
X80709Y119095D02*
Y130902D01*
X84644Y126966D01*
X88580Y130902D01*
Y119095D01*
X98419Y130902D02*
X94484D01*
X92516Y128934D01*
Y121062D01*
X94484Y119095D01*
X98419D01*
X100387Y121062D01*
Y128934D01*
X98419Y130902D01*
X104323D02*
Y119095D01*
X110227D01*
X112195Y121062D01*
Y128934D01*
X110227Y130902D01*
X104323D01*
X116130Y119095D02*
X120066D01*
X118098D01*
Y130902D01*
X116130Y128934D01*
D38*
X98425Y52163D02*
Y47244D01*
X99409Y46260D01*
X101377D01*
X102361Y47244D01*
Y52163D01*
X104329Y51179D02*
X105313Y52163D01*
X107281D01*
X108265Y51179D01*
Y50196D01*
X107281Y49212D01*
X106297D01*
X107281D01*
X108265Y48228D01*
Y47244D01*
X107281Y46260D01*
X105313D01*
X104329Y47244D01*
X34449Y103246D02*
Y98326D01*
X35433Y97342D01*
X37401D01*
X38385Y98326D01*
Y103246D01*
X40352Y97342D02*
X42320D01*
X41336D01*
Y103246D01*
X40352Y102262D01*
X55709Y47242D02*
Y42322D01*
X56693Y41339D01*
X58661D01*
X59644Y42322D01*
Y47242D01*
X61612D02*
X65548D01*
Y46258D01*
X61612Y42322D01*
Y41339D01*
X1342520Y-110236D02*
Y-102365D01*
X1346455D01*
X1347767Y-103677D01*
Y-106300D01*
X1346455Y-107612D01*
X1342520D01*
X1345144D02*
X1347767Y-110236D01*
X1354327D02*
X1351703D01*
X1350391Y-108924D01*
Y-106300D01*
X1351703Y-104989D01*
X1354327D01*
X1355639Y-106300D01*
Y-107612D01*
X1350391D01*
X1358263Y-104989D02*
X1360886Y-110236D01*
X1363510Y-104989D01*
X988189Y-141735D02*
Y-149606D01*
X992125D01*
X993437Y-148294D01*
Y-143047D01*
X992125Y-141735D01*
X988189D01*
X999996Y-149606D02*
X997372D01*
X996060Y-148294D01*
Y-145671D01*
X997372Y-144359D01*
X999996D01*
X1001308Y-145671D01*
Y-146983D01*
X996060D01*
X1003932Y-149606D02*
X1007868D01*
X1009180Y-148294D01*
X1007868Y-146983D01*
X1005244D01*
X1003932Y-145671D01*
X1005244Y-144359D01*
X1009180D01*
X1014427Y-152230D02*
X1015739D01*
X1017051Y-150918D01*
Y-144359D01*
X1013115D01*
X1011803Y-145671D01*
Y-148294D01*
X1013115Y-149606D01*
X1017051D01*
X1019675D02*
X1022299D01*
X1020987D01*
Y-144359D01*
X1019675D01*
X1026235Y-149606D02*
Y-144359D01*
X1030170D01*
X1031482Y-145671D01*
Y-149606D01*
X1038042D02*
X1035418D01*
X1034106Y-148294D01*
Y-145671D01*
X1035418Y-144359D01*
X1038042D01*
X1039354Y-145671D01*
Y-146983D01*
X1034106D01*
X1041977Y-144359D02*
Y-149606D01*
Y-146983D01*
X1043289Y-145671D01*
X1044601Y-144359D01*
X1045913D01*
X1185039Y-23625D02*
Y-31496D01*
X1188975D01*
X1190287Y-30184D01*
Y-24937D01*
X1188975Y-23625D01*
X1185039D01*
X1194223Y-31496D02*
X1196847D01*
X1198158Y-30184D01*
Y-27560D01*
X1196847Y-26248D01*
X1194223D01*
X1192911Y-27560D01*
Y-30184D01*
X1194223Y-31496D01*
X1206030Y-26248D02*
X1202094D01*
X1200782Y-27560D01*
Y-30184D01*
X1202094Y-31496D01*
X1206030D01*
X1208654Y-26248D02*
Y-30184D01*
X1209966Y-31496D01*
X1213902D01*
Y-26248D01*
X1216525Y-31496D02*
Y-26248D01*
X1217837D01*
X1219149Y-27560D01*
Y-31496D01*
Y-27560D01*
X1220461Y-26248D01*
X1221773Y-27560D01*
Y-31496D01*
X1228333D02*
X1225709D01*
X1224397Y-30184D01*
Y-27560D01*
X1225709Y-26248D01*
X1228333D01*
X1229644Y-27560D01*
Y-28872D01*
X1224397D01*
X1232268Y-31496D02*
Y-26248D01*
X1236204D01*
X1237516Y-27560D01*
Y-31496D01*
X1241452Y-24937D02*
Y-26248D01*
X1240140D01*
X1242764D01*
X1241452D01*
Y-30184D01*
X1242764Y-31496D01*
X1185039Y-62995D02*
Y-70866D01*
X1190287D01*
X1194223Y-65618D02*
X1196847D01*
X1198158Y-66930D01*
Y-70866D01*
X1194223D01*
X1192911Y-69554D01*
X1194223Y-68242D01*
X1198158D01*
X1200782Y-65618D02*
Y-69554D01*
X1202094Y-70866D01*
X1206030D01*
Y-72178D01*
X1204718Y-73490D01*
X1203406D01*
X1206030Y-70866D02*
Y-65618D01*
X1212590Y-70866D02*
X1209966D01*
X1208654Y-69554D01*
Y-66930D01*
X1209966Y-65618D01*
X1212590D01*
X1213902Y-66930D01*
Y-68242D01*
X1208654D01*
X1216525Y-65618D02*
Y-70866D01*
Y-68242D01*
X1217837Y-66930D01*
X1219149Y-65618D01*
X1220461D01*
X1232268Y-70866D02*
Y-62995D01*
X1237516Y-70866D01*
Y-62995D01*
X1241452Y-65618D02*
X1244075D01*
X1245387Y-66930D01*
Y-70866D01*
X1241452D01*
X1240140Y-69554D01*
X1241452Y-68242D01*
X1245387D01*
X1248011Y-70866D02*
Y-65618D01*
X1249323D01*
X1250635Y-66930D01*
Y-70866D01*
Y-66930D01*
X1251947Y-65618D01*
X1253259Y-66930D01*
Y-70866D01*
X1259818D02*
X1257195D01*
X1255883Y-69554D01*
Y-66930D01*
X1257195Y-65618D01*
X1259818D01*
X1261130Y-66930D01*
Y-68242D01*
X1255883D01*
X1185039Y-102365D02*
Y-110236D01*
X1188975D01*
X1190287Y-108924D01*
Y-103677D01*
X1188975Y-102365D01*
X1185039D01*
X1194223Y-104989D02*
X1196847D01*
X1198158Y-106300D01*
Y-110236D01*
X1194223D01*
X1192911Y-108924D01*
X1194223Y-107612D01*
X1198158D01*
X1202094Y-103677D02*
Y-104989D01*
X1200782D01*
X1203406D01*
X1202094D01*
Y-108924D01*
X1203406Y-110236D01*
X1211278D02*
X1208654D01*
X1207342Y-108924D01*
Y-106300D01*
X1208654Y-104989D01*
X1211278D01*
X1212589Y-106300D01*
Y-107612D01*
X1207342D01*
X1185039Y-141735D02*
Y-149606D01*
X1188975D01*
X1190287Y-148294D01*
Y-143047D01*
X1188975Y-141735D01*
X1185039D01*
X1194223Y-149606D02*
X1196847D01*
X1198158Y-148294D01*
Y-145671D01*
X1196847Y-144359D01*
X1194223D01*
X1192911Y-145671D01*
Y-148294D01*
X1194223Y-149606D01*
X1206030Y-144359D02*
X1202094D01*
X1200782Y-145671D01*
Y-148294D01*
X1202094Y-149606D01*
X1206030D01*
X1208654Y-144359D02*
Y-148294D01*
X1209966Y-149606D01*
X1213902D01*
Y-144359D01*
X1216525Y-149606D02*
Y-144359D01*
X1217837D01*
X1219149Y-145671D01*
Y-149606D01*
Y-145671D01*
X1220461Y-144359D01*
X1221773Y-145671D01*
Y-149606D01*
X1228333D02*
X1225709D01*
X1224397Y-148294D01*
Y-145671D01*
X1225709Y-144359D01*
X1228333D01*
X1229644Y-145671D01*
Y-146983D01*
X1224397D01*
X1232268Y-149606D02*
Y-144359D01*
X1236204D01*
X1237516Y-145671D01*
Y-149606D01*
X1241452Y-143047D02*
Y-144359D01*
X1240140D01*
X1242764D01*
X1241452D01*
Y-148294D01*
X1242764Y-149606D01*
D53*
X73228Y42520D02*
G03*
X73228Y42520I-11811J0D01*
G01*
X32283Y85236D02*
Y111614D01*
Y85236D02*
X33858D01*
X46457D01*
Y111614D01*
X32283D02*
X46457D01*
X56496Y131496D02*
Y134448D01*
X57972D01*
X58464Y133956D01*
Y132972D01*
X57972Y132480D01*
X56496D01*
X57480D02*
X58464Y131496D01*
X59448D02*
X60432D01*
X59940D01*
Y134448D01*
X59448Y133956D01*
X61908D02*
X62400Y134448D01*
X63384D01*
X63876Y133956D01*
Y133464D01*
X63384Y132972D01*
X63876Y132480D01*
Y131988D01*
X63384Y131496D01*
X62400D01*
X61908Y131988D01*
Y132480D01*
X62400Y132972D01*
X61908Y133464D01*
Y133956D01*
X62400Y132972D02*
X63384D01*
X63386Y67322D02*
Y64042D01*
X64042Y63386D01*
X65354D01*
X66010Y64042D01*
Y67322D01*
X69945D02*
X68634Y66666D01*
X67322Y65354D01*
Y64042D01*
X67977Y63386D01*
X69289D01*
X69945Y64042D01*
Y64698D01*
X69289Y65354D01*
X67322D01*
X113188Y74310D02*
X112696Y74802D01*
X111712D01*
X111221Y74310D01*
Y72342D01*
X111712Y71850D01*
X112696D01*
X113188Y72342D01*
X116140Y74802D02*
X114172D01*
Y73326D01*
X115156Y73818D01*
X115648D01*
X116140Y73326D01*
Y72342D01*
X115648Y71850D01*
X114664D01*
X114172Y72342D01*
X33858Y74408D02*
Y71128D01*
X34514Y70472D01*
X35826D01*
X36482Y71128D01*
Y74408D01*
X40418Y70472D02*
X37794D01*
X40418Y73096D01*
Y73752D01*
X39762Y74408D01*
X38450D01*
X37794Y73752D01*
X156495Y84153D02*
X156003Y84645D01*
X155019D01*
X154528Y84153D01*
Y82185D01*
X155019Y81693D01*
X156003D01*
X156495Y82185D01*
X157479Y84645D02*
X159447D01*
Y84153D01*
X157479Y82185D01*
Y81693D01*
X44356Y57085D02*
X41732D01*
Y55117D01*
X43044D01*
X41732D01*
Y53150D01*
X45668D02*
X46980D01*
X46324D01*
Y57085D01*
X45668Y56429D01*
X137795Y115157D02*
Y118109D01*
X139271D01*
X139763Y117617D01*
Y116633D01*
X139271Y116141D01*
X137795D01*
X138779D02*
X139763Y115157D01*
X140747D02*
X141731D01*
X141239D01*
Y118109D01*
X140747Y117617D01*
X133858Y84646D02*
Y87598D01*
X135334D01*
X135826Y87106D01*
Y86122D01*
X135334Y85630D01*
X133858D01*
X134842D02*
X135826Y84646D01*
X136810D02*
X137794D01*
X137302D01*
Y87598D01*
X136810Y87106D01*
X139270D02*
X139762Y87598D01*
X140746D01*
X141238Y87106D01*
Y86614D01*
X140746Y86122D01*
X140254D01*
X140746D01*
X141238Y85630D01*
Y85138D01*
X140746Y84646D01*
X139762D01*
X139270Y85138D01*
X133858Y122047D02*
Y124999D01*
X135334D01*
X135826Y124507D01*
Y123523D01*
X135334Y123031D01*
X133858D01*
X134842D02*
X135826Y122047D01*
X136810D02*
X137794D01*
X137302D01*
Y124999D01*
X136810Y124507D01*
X141238Y122047D02*
X139270D01*
X141238Y124015D01*
Y124507D01*
X140746Y124999D01*
X139762D01*
X139270Y124507D01*
X167717Y46850D02*
Y50786D01*
X169684D01*
X170340Y50130D01*
Y48818D01*
X169684Y48162D01*
X167717D01*
X174276Y46850D02*
X171652D01*
X174276Y49474D01*
Y50130D01*
X173620Y50786D01*
X172308D01*
X171652Y50130D01*
X78740Y30512D02*
X75788D01*
Y31988D01*
X76280Y32480D01*
X77264D01*
X77756Y31988D01*
Y30512D01*
Y31496D02*
X78740Y32480D01*
X75788Y33464D02*
Y35432D01*
X76280D01*
X78248Y33464D01*
X78740D01*
X54133Y64468D02*
X53641Y64960D01*
X52657D01*
X52165Y64468D01*
Y62500D01*
X52657Y62008D01*
X53641D01*
X54133Y62500D01*
X57085Y64960D02*
X56101Y64468D01*
X55117Y63484D01*
Y62500D01*
X55609Y62008D01*
X56593D01*
X57085Y62500D01*
Y62992D01*
X56593Y63484D01*
X55117D01*
X56496Y148031D02*
Y150983D01*
X57972D01*
X58464Y150491D01*
Y149507D01*
X57972Y149015D01*
X56496D01*
X57480D02*
X58464Y148031D01*
X61416Y150983D02*
X60432Y150491D01*
X59448Y149507D01*
Y148523D01*
X59940Y148031D01*
X60924D01*
X61416Y148523D01*
Y149015D01*
X60924Y149507D01*
X59448D01*
X152559Y123031D02*
Y125983D01*
X154035D01*
X154527Y125491D01*
Y124507D01*
X154035Y124015D01*
X152559D01*
X153543D02*
X154527Y123031D01*
X155511D02*
X156495D01*
X156003D01*
Y125983D01*
X155511Y125491D01*
X159447Y123031D02*
Y125983D01*
X157971Y124507D01*
X159939D01*
X55117Y86121D02*
X54625Y86613D01*
X53642D01*
X53150Y86121D01*
Y84153D01*
X53642Y83661D01*
X54625D01*
X55117Y84153D01*
X58069Y83661D02*
X56101D01*
X58069Y85629D01*
Y86121D01*
X57577Y86613D01*
X56593D01*
X56101Y86121D01*
X136811Y108268D02*
Y111220D01*
X138287D01*
X138779Y110728D01*
Y109744D01*
X138287Y109252D01*
X136811D01*
X137795D02*
X138779Y108268D01*
X141731D02*
X139763D01*
X141731Y110236D01*
Y110728D01*
X141239Y111220D01*
X140255D01*
X139763Y110728D01*
X56496Y137008D02*
Y139960D01*
X57972D01*
X58464Y139468D01*
Y138484D01*
X57972Y137992D01*
X56496D01*
X57480D02*
X58464Y137008D01*
X60924D02*
Y139960D01*
X59448Y138484D01*
X61416D01*
X56496Y142520D02*
Y145472D01*
X57972D01*
X58464Y144980D01*
Y143996D01*
X57972Y143504D01*
X56496D01*
X57480D02*
X58464Y142520D01*
X59448Y144980D02*
X59940Y145472D01*
X60924D01*
X61416Y144980D01*
Y144488D01*
X60924Y143996D01*
X60432D01*
X60924D01*
X61416Y143504D01*
Y143012D01*
X60924Y142520D01*
X59940D01*
X59448Y143012D01*
X136811Y102362D02*
Y105314D01*
X138287D01*
X138779Y104822D01*
Y103838D01*
X138287Y103346D01*
X136811D01*
X137795D02*
X138779Y102362D01*
X141731Y105314D02*
X139763D01*
Y103838D01*
X140747Y104330D01*
X141239D01*
X141731Y103838D01*
Y102854D01*
X141239Y102362D01*
X140255D01*
X139763Y102854D01*
X168898Y98425D02*
Y102361D01*
X170865D01*
X171521Y101705D01*
Y100393D01*
X170865Y99737D01*
X168898D01*
X172833Y98425D02*
X174145D01*
X173489D01*
Y102361D01*
X172833Y101705D01*
X33464Y159940D02*
X32972Y160432D01*
X31988D01*
X31496Y159940D01*
Y159448D01*
X31988Y158956D01*
X32972D01*
X33464Y158464D01*
Y157972D01*
X32972Y157480D01*
X31988D01*
X31496Y157972D01*
X34448Y160432D02*
Y157480D01*
X35432Y158464D01*
X36416Y157480D01*
Y160432D01*
X39367Y157480D02*
X37400D01*
X39367Y159448D01*
Y159940D01*
X38876Y160432D01*
X37892D01*
X37400Y159940D01*
X159448D02*
X158956Y160432D01*
X157972D01*
X157480Y159940D01*
Y159448D01*
X157972Y158956D01*
X158956D01*
X159448Y158464D01*
Y157972D01*
X158956Y157480D01*
X157972D01*
X157480Y157972D01*
X160432Y160432D02*
Y157480D01*
X161416Y158464D01*
X162400Y157480D01*
Y160432D01*
X163384Y157480D02*
X164368D01*
X163876D01*
Y160432D01*
X163384Y159940D01*
X57086Y119586D02*
X56594Y120078D01*
X55610D01*
X55118Y119586D01*
Y117618D01*
X55610Y117126D01*
X56594D01*
X57086Y117618D01*
X59546Y117126D02*
Y120078D01*
X58070Y118602D01*
X60038D01*
X24606Y85137D02*
X24114Y85629D01*
X23130D01*
X22638Y85137D01*
Y83169D01*
X23130Y82677D01*
X24114D01*
X24606Y83169D01*
X25590Y85137D02*
X26082Y85629D01*
X27066D01*
X27558Y85137D01*
Y84645D01*
X27066Y84153D01*
X26574D01*
X27066D01*
X27558Y83661D01*
Y83169D01*
X27066Y82677D01*
X26082D01*
X25590Y83169D01*
X144882Y142518D02*
Y139239D01*
X145538Y138583D01*
X146850D01*
X147506Y139239D01*
Y142518D01*
X151442D02*
X148818D01*
Y140550D01*
X150129Y141207D01*
X150786D01*
X151442Y140550D01*
Y139239D01*
X150786Y138583D01*
X149474D01*
X148818Y139239D01*
X27953Y125197D02*
Y129133D01*
X29921D01*
X30577Y128477D01*
Y127165D01*
X29921Y126509D01*
X27953D01*
X29265D02*
X30577Y125197D01*
X31888Y128477D02*
X32544Y129133D01*
X33856D01*
X34512Y128477D01*
Y127821D01*
X33856Y127165D01*
X34512Y126509D01*
Y125853D01*
X33856Y125197D01*
X32544D01*
X31888Y125853D01*
Y126509D01*
X32544Y127165D01*
X31888Y127821D01*
Y128477D01*
X32544Y127165D02*
X33856D01*
X85629Y75295D02*
X85137Y75787D01*
X84153D01*
X83661Y75295D01*
Y73327D01*
X84153Y72835D01*
X85137D01*
X85629Y73327D01*
X86613D02*
X87105Y72835D01*
X88089D01*
X88581Y73327D01*
Y75295D01*
X88089Y75787D01*
X87105D01*
X86613Y75295D01*
Y74803D01*
X87105Y74311D01*
X88581D01*
X83661Y77756D02*
Y80708D01*
X85137D01*
X85629Y80216D01*
Y79232D01*
X85137Y78740D01*
X83661D01*
X84645D02*
X85629Y77756D01*
X86613D02*
X87597D01*
X87105D01*
Y80708D01*
X86613Y80216D01*
X91041Y80708D02*
X90057Y80216D01*
X89073Y79232D01*
Y78248D01*
X89565Y77756D01*
X90549D01*
X91041Y78248D01*
Y78740D01*
X90549Y79232D01*
X89073D01*
X90551Y63976D02*
X87599D01*
Y65452D01*
X88091Y65944D01*
X89075D01*
X89567Y65452D01*
Y63976D01*
Y64960D02*
X90551Y65944D01*
Y66928D02*
Y67912D01*
Y67420D01*
X87599D01*
X88091Y66928D01*
X87599Y71356D02*
Y69388D01*
X89075D01*
X88583Y70372D01*
Y70864D01*
X89075Y71356D01*
X90059D01*
X90551Y70864D01*
Y69880D01*
X90059Y69388D01*
X87598Y54625D02*
X87106Y55117D01*
X86122D01*
X85630Y54625D01*
Y52657D01*
X86122Y52165D01*
X87106D01*
X87598Y52657D01*
X88582Y54625D02*
X89074Y55117D01*
X90058D01*
X90550Y54625D01*
Y54133D01*
X90058Y53641D01*
X90550Y53149D01*
Y52657D01*
X90058Y52165D01*
X89074D01*
X88582Y52657D01*
Y53149D01*
X89074Y53641D01*
X88582Y54133D01*
Y54625D01*
X89074Y53641D02*
X90058D01*
X82677Y31496D02*
Y34448D01*
X84153D01*
X84645Y33956D01*
Y32972D01*
X84153Y32480D01*
X82677D01*
X83661D02*
X84645Y31496D01*
X85629D02*
X86613D01*
X86121D01*
Y34448D01*
X85629Y33956D01*
X88089Y31496D02*
X89073D01*
X88581D01*
Y34448D01*
X88089Y33956D01*
X63976Y71850D02*
Y74802D01*
X65452D01*
X65944Y74310D01*
Y73326D01*
X65452Y72834D01*
X63976D01*
X64960D02*
X65944Y71850D01*
X66928D02*
X67912D01*
X67420D01*
Y74802D01*
X66928Y74310D01*
X69388D02*
X69880Y74802D01*
X70864D01*
X71356Y74310D01*
Y72342D01*
X70864Y71850D01*
X69880D01*
X69388Y72342D01*
Y74310D01*
X86614Y63976D02*
X83662D01*
Y65452D01*
X84154Y65944D01*
X85138D01*
X85630Y65452D01*
Y63976D01*
Y64960D02*
X86614Y65944D01*
X86122Y66928D02*
X86614Y67420D01*
Y68404D01*
X86122Y68896D01*
X84154D01*
X83662Y68404D01*
Y67420D01*
X84154Y66928D01*
X84646D01*
X85138Y67420D01*
Y68896D01*
X71359Y57086D02*
X70867Y56594D01*
Y55610D01*
X71359Y55118D01*
X73327D01*
X73819Y55610D01*
Y56594D01*
X73327Y57086D01*
X73819Y58070D02*
Y59054D01*
Y58562D01*
X70867D01*
X71359Y58070D01*
X74803Y46260D02*
Y49212D01*
X76279D01*
X76771Y48720D01*
Y47736D01*
X76279Y47244D01*
X74803D01*
X75787D02*
X76771Y46260D01*
X77755D02*
X78739D01*
X78247D01*
Y49212D01*
X77755Y48720D01*
X80215Y49212D02*
X82183D01*
Y48720D01*
X80215Y46752D01*
Y46260D01*
X155512Y102361D02*
Y99410D01*
X156988D01*
X157480Y99901D01*
Y101869D01*
X156988Y102361D01*
X155512D01*
X158464Y99410D02*
X159448D01*
X158956D01*
Y102361D01*
X158464Y101869D01*
X56299Y127952D02*
Y125000D01*
X57775D01*
X58267Y125492D01*
Y127460D01*
X57775Y127952D01*
X56299D01*
X61219Y125000D02*
X59251D01*
X61219Y126968D01*
Y127460D01*
X60727Y127952D01*
X59743D01*
X59251Y127460D01*
D54*
X46654Y73819D02*
G03*
X46654Y73819I-1969J0D01*
G01*
X35433Y143701D02*
G03*
X38583Y146850I0J3150D01*
G01*
Y148425D02*
G03*
X35433Y151575I-3150J0D01*
G01*
D02*
G03*
X32283Y148425I0J-3150D01*
G01*
Y146850D02*
G03*
X35433Y143701I3150J0D01*
G01*
X161417Y151575D02*
G03*
X158268Y148425I0J-3150D01*
G01*
Y146850D02*
G03*
X161417Y143701I3150J0D01*
G01*
D02*
G03*
X164567Y146850I0J3150D01*
G01*
Y148425D02*
G03*
X161417Y151575I-3150J0D01*
G01*
X36080Y118903D02*
G03*
X36045Y135448I-4977J8262D01*
G01*
X36614Y133071D02*
G03*
X36220Y133465I-394J0D01*
G01*
Y132677D02*
G03*
X36614Y133071I0J394D01*
G01*
X26378Y132677D02*
G03*
X25984Y132283I0J-394D01*
G01*
D02*
G03*
X26378Y131890I394J0D01*
G01*
X36614Y131496D02*
G03*
X36220Y131890I-394J0D01*
G01*
Y131102D02*
G03*
X36614Y131496I0J394D01*
G01*
X27559Y131102D02*
G03*
X27165Y130709I0J-394D01*
G01*
D02*
G03*
X27559Y130315I394J0D01*
G01*
X35039Y129921D02*
G03*
X34646Y130315I-394J0D01*
G01*
X27165Y124409D02*
G03*
X27559Y124016I394J0D01*
G01*
X35039Y123622D02*
G03*
X34646Y124016I-394J0D01*
G01*
Y123228D02*
G03*
X35039Y123622I0J394D01*
G01*
X25984Y123228D02*
G03*
X25591Y122835I0J-394D01*
G01*
D02*
G03*
X25984Y122441I394J0D01*
G01*
X36220Y122047D02*
G03*
X35827Y122441I-394J0D01*
G01*
Y121653D02*
G03*
X36220Y122047I0J394D01*
G01*
X25984Y121653D02*
G03*
X25591Y121260I0J-394D01*
G01*
D02*
G03*
X25984Y120866I394J0D01*
G01*
X26160Y135448D02*
G03*
X26125Y118903I4943J-8283D01*
G01*
X48622Y134646D02*
X54528D01*
Y131496D02*
Y134646D01*
X48622Y131496D02*
X54528D01*
X48622D02*
Y134646D01*
X112598Y69783D02*
Y70571D01*
X109843Y70669D02*
X117717D01*
Y65551D02*
Y70669D01*
X109843Y65551D02*
X117717D01*
X109843D02*
Y70669D01*
X30315Y67323D02*
Y77559D01*
X48425Y67323D02*
Y77559D01*
X30315Y67323D02*
X48425D01*
X30315Y77559D02*
X48425D01*
X92716Y39370D02*
Y57087D01*
X112795D01*
Y39370D02*
Y57087D01*
X92716Y39370D02*
X112795D01*
X154232Y75197D02*
X155020D01*
X154134Y72441D02*
Y80315D01*
X159252D01*
Y72441D02*
Y80315D01*
X154134Y72441D02*
X159252D01*
X38976Y58268D02*
X43307D01*
X38976Y51968D02*
Y58268D01*
Y51968D02*
X50000D01*
Y58268D01*
X45669D02*
X50000D01*
X43307D02*
X45669D01*
X43307Y51968D02*
X45669D01*
X142717Y115354D02*
X148622D01*
X142717D02*
Y118504D01*
X148622D01*
Y115354D02*
Y118504D01*
X142717Y85039D02*
X148622D01*
X142717D02*
Y88189D01*
X148622D01*
Y85039D02*
Y88189D01*
X142717Y122047D02*
X148622D01*
X142717D02*
Y125197D01*
X148622D01*
Y122047D02*
Y125197D01*
X78740Y37205D02*
Y43110D01*
X75590Y37205D02*
X78740D01*
X75590D02*
Y43110D01*
X78740D01*
X52658Y68504D02*
X53445D01*
X52559Y65748D02*
Y73622D01*
X57677D01*
Y65748D02*
Y73622D01*
X52559Y65748D02*
X57677D01*
X48622Y148031D02*
X54528D01*
X48622D02*
Y151181D01*
X54528D01*
Y148031D02*
Y151181D01*
X158268Y116339D02*
Y122244D01*
X155118Y116339D02*
X158268D01*
X155118D02*
Y122244D01*
X158268D01*
X57087Y77461D02*
Y78248D01*
X51968Y77362D02*
X59842D01*
X51968D02*
Y82480D01*
X59842D01*
Y77362D02*
Y82480D01*
X142717Y108661D02*
X148622D01*
X142717D02*
Y111811D01*
X148622D01*
Y108661D02*
Y111811D01*
X48622Y140157D02*
X54528D01*
Y137008D02*
Y140157D01*
X48622Y137008D02*
X54528D01*
X48622D02*
Y140157D01*
Y145669D02*
X54528D01*
Y142520D02*
Y145669D01*
X48622Y142520D02*
X54528D01*
X48622D02*
Y145669D01*
X142717Y105118D02*
X148622D01*
Y101969D02*
Y105118D01*
X142717Y101969D02*
X148622D01*
X142717D02*
Y105118D01*
X38583Y146850D02*
Y147638D01*
Y148425D01*
X32283Y147638D02*
Y148425D01*
Y146850D02*
Y147638D01*
X29921Y139370D02*
X40945D01*
Y155905D01*
X29921D02*
X40945D01*
X29921Y139370D02*
Y155905D01*
X158268Y147638D02*
Y148425D01*
Y146850D02*
Y147638D01*
X164567Y146850D02*
Y147638D01*
Y148425D01*
X155905Y155905D02*
X166929D01*
X155905Y139370D02*
Y155905D01*
Y139370D02*
X166929D01*
Y155905D01*
X45276Y115551D02*
Y120669D01*
Y115551D02*
X53150D01*
Y120669D01*
X45276D02*
X53150D01*
X48031Y119783D02*
Y120571D01*
X22244Y81102D02*
X27362D01*
X22244Y73228D02*
Y81102D01*
Y73228D02*
X27362D01*
Y81102D01*
X26476Y78347D02*
X27264D01*
X141732Y133858D02*
Y145669D01*
X153543D01*
Y133858D02*
Y145669D01*
X141732Y133858D02*
X153543D01*
X26161Y135433D02*
X36045D01*
X26169Y118898D02*
X36036D01*
X25984Y133465D02*
X36220D01*
X26378Y132677D02*
X36220D01*
X26378Y131890D02*
X36220D01*
X27559Y131102D02*
X36220D01*
X27559Y130315D02*
X34646D01*
X27559Y124016D02*
X34646D01*
X25984Y123228D02*
X34646D01*
X25984Y122441D02*
X35827D01*
X25984Y121653D02*
X35827D01*
X25984Y120866D02*
X36220D01*
X76575Y68898D02*
X82480D01*
Y65748D02*
Y68898D01*
X76575Y65748D02*
X82480D01*
X76575D02*
Y68898D01*
X82480Y71260D02*
Y74410D01*
X76575D02*
X82480D01*
X76575Y71260D02*
Y74410D01*
Y71260D02*
X82480D01*
X86614Y62402D02*
X89764D01*
X86614Y56496D02*
Y62402D01*
Y56496D02*
X89764D01*
Y62402D01*
X85236Y50787D02*
X90354D01*
X85236Y42913D02*
Y50787D01*
Y42913D02*
X90354D01*
Y50787D01*
X89468Y48031D02*
X90256D01*
X88386Y36220D02*
Y39370D01*
X82480D02*
X88386D01*
X82480Y36220D02*
Y39370D01*
Y36220D02*
X88386D01*
X70276Y75590D02*
Y78740D01*
X64370D02*
X70276D01*
X64370Y75590D02*
Y78740D01*
Y75590D02*
X70276D01*
X81102Y56496D02*
X84252D01*
Y62402D01*
X81102D02*
X84252D01*
X81102Y56496D02*
Y62402D01*
X75590Y56496D02*
Y62402D01*
X78740D01*
Y56496D02*
Y62402D01*
X75590Y56496D02*
X78740D01*
X75787Y50000D02*
Y53150D01*
Y50000D02*
X81693D01*
Y53150D01*
X75787D02*
X81693D01*
X154724Y110630D02*
X159449D01*
X154724Y103150D02*
Y110630D01*
Y103150D02*
X159449D01*
Y110630D01*
X46850Y124016D02*
Y128740D01*
Y124016D02*
X54331D01*
Y128740D01*
X46850D02*
X54331D01*
M02*
