G04 Layer_Color=32896*
%FSLAX25Y25*%
%MOIN*%
G70*
G01*
G75*
%ADD10C,0.00787*%
%ADD14C,0.01575*%
%ADD41C,0.00984*%
G36*
X111408Y88099D02*
X112032D01*
Y87475D01*
Y86872D01*
Y86248D01*
Y85625D01*
Y85009D01*
X110169D01*
Y85625D01*
X109546D01*
Y86248D01*
Y86872D01*
Y87475D01*
Y88099D01*
Y88722D01*
X111408D01*
Y88099D01*
D02*
G37*
G36*
X119409D02*
X120032D01*
Y87475D01*
Y86872D01*
Y86248D01*
Y85625D01*
Y85009D01*
X118169D01*
Y85625D01*
X117545D01*
Y86248D01*
Y86872D01*
Y87475D01*
Y88099D01*
Y88722D01*
X119409D01*
Y88099D01*
D02*
G37*
G36*
X87809D02*
X88432D01*
Y87475D01*
Y86872D01*
Y86248D01*
Y85625D01*
Y85009D01*
X86569D01*
Y85625D01*
X85945D01*
Y86248D01*
Y86872D01*
Y87475D01*
Y88099D01*
Y88722D01*
X87809D01*
Y88099D01*
D02*
G37*
G36*
X40131Y41751D02*
X40748D01*
Y41141D01*
Y40518D01*
Y39894D01*
Y39278D01*
Y38655D01*
Y38031D01*
Y37421D01*
X40131D01*
Y36811D01*
X39508D01*
Y36201D01*
X34562D01*
Y36811D01*
X34555D01*
Y36201D01*
X32082D01*
Y36811D01*
X31459D01*
Y36201D01*
X28986D01*
Y36811D01*
X28979D01*
Y36201D01*
X24643D01*
Y36811D01*
X24020D01*
Y37421D01*
X23410D01*
Y38031D01*
Y38655D01*
Y39278D01*
Y39894D01*
Y40518D01*
X24020D01*
Y41141D01*
X24643D01*
Y41751D01*
X25260D01*
Y42374D01*
X32082D01*
Y41751D01*
X32706D01*
Y42374D01*
X35172D01*
Y41751D01*
X35795D01*
Y42374D01*
X40131D01*
Y41751D01*
D02*
G37*
G36*
X39213Y51751D02*
X39836D01*
Y51141D01*
Y50518D01*
Y49894D01*
X39213D01*
Y49278D01*
Y48654D01*
X40453D01*
Y48031D01*
Y47421D01*
Y46811D01*
X39836D01*
Y46201D01*
X29307D01*
Y46811D01*
Y47421D01*
Y48031D01*
X29917D01*
Y48654D01*
X29301D01*
Y48031D01*
X28678D01*
Y47421D01*
X28054D01*
Y46811D01*
X27451D01*
Y46201D01*
X25581D01*
Y46811D01*
X24965D01*
Y47421D01*
X24341D01*
Y48031D01*
X23731D01*
Y48654D01*
Y49278D01*
Y49894D01*
Y50518D01*
Y51141D01*
Y51751D01*
X24341D01*
Y52374D01*
X26828D01*
Y51751D01*
X27451D01*
Y52374D01*
X29917D01*
Y51751D01*
X30541D01*
Y52374D01*
X34877D01*
Y51751D01*
X35493D01*
Y51141D01*
Y50518D01*
Y49894D01*
Y49278D01*
X34877D01*
Y48654D01*
X35493D01*
Y48031D01*
X35500D01*
Y48654D01*
X36117D01*
Y49278D01*
Y49894D01*
Y50518D01*
Y51141D01*
Y51751D01*
X36740D01*
Y52374D01*
X39213D01*
Y51751D01*
D02*
G37*
G36*
X80387Y144192D02*
X81004D01*
Y143582D01*
Y142958D01*
Y142335D01*
Y141719D01*
Y141095D01*
Y140472D01*
Y139862D01*
Y139252D01*
X80387D01*
Y138642D01*
X77914D01*
Y139252D01*
X77291D01*
Y138642D01*
X74818D01*
Y139252D01*
X74811D01*
Y138642D01*
X70475D01*
Y139252D01*
X69852D01*
Y139862D01*
X69235D01*
Y139252D01*
X68612D01*
Y138642D01*
X64276D01*
Y139252D01*
X63666D01*
Y139862D01*
Y140472D01*
Y141095D01*
X64276D01*
Y141719D01*
X63666D01*
Y142335D01*
Y142958D01*
Y143582D01*
X64276D01*
Y144192D01*
X64899D01*
Y144815D01*
X69235D01*
Y144192D01*
X69852D01*
Y143582D01*
X70475D01*
Y144192D01*
X71092D01*
Y144815D01*
X75428D01*
Y144192D01*
X76051D01*
Y144815D01*
X80387D01*
Y144192D01*
D02*
G37*
G36*
X81004Y152066D02*
Y151456D01*
Y150832D01*
Y150209D01*
Y149593D01*
Y148969D01*
Y148346D01*
Y147736D01*
Y147126D01*
X80387D01*
Y146516D01*
X77914D01*
Y147126D01*
X77291D01*
Y146516D01*
X74818D01*
Y147126D01*
Y147736D01*
X74811D01*
Y147126D01*
X74188D01*
Y146516D01*
X69852D01*
Y147126D01*
X69242D01*
Y147736D01*
Y148346D01*
Y148969D01*
Y149593D01*
Y150209D01*
Y150832D01*
X68612D01*
Y150209D01*
Y149593D01*
Y148969D01*
Y148346D01*
Y147736D01*
Y147126D01*
X67989D01*
Y146516D01*
X65516D01*
Y147126D01*
Y147736D01*
Y148346D01*
Y148969D01*
Y149593D01*
Y150209D01*
X64276D01*
Y150832D01*
Y151456D01*
Y152066D01*
X64899D01*
Y152689D01*
X69852D01*
Y152066D01*
X70475D01*
Y152689D01*
X74811D01*
Y152066D01*
X76051D01*
Y152689D01*
X81004D01*
Y152066D01*
D02*
G37*
G36*
X175689Y89343D02*
Y88727D01*
Y88103D01*
X175072D01*
Y87480D01*
X171976D01*
Y88103D01*
Y88727D01*
Y89343D01*
X172599D01*
Y89966D01*
X175689D01*
Y89343D01*
D02*
G37*
G36*
X132422Y104822D02*
X133045D01*
Y104212D01*
Y103588D01*
Y102965D01*
X132422D01*
Y102349D01*
Y101725D01*
X133661D01*
Y101102D01*
Y100492D01*
Y99882D01*
X133045D01*
Y99272D01*
X128085D01*
Y99882D01*
X127462D01*
Y99272D01*
X123126D01*
Y99882D01*
X122516D01*
Y100492D01*
Y101102D01*
Y101725D01*
Y102349D01*
Y102965D01*
Y103588D01*
Y104212D01*
Y104822D01*
Y105445D01*
X128702D01*
Y104822D01*
Y104212D01*
Y103588D01*
Y102965D01*
Y102349D01*
Y101725D01*
Y101102D01*
X128709D01*
Y101725D01*
X129325D01*
Y102349D01*
Y102965D01*
Y103588D01*
Y104212D01*
Y104822D01*
X129948D01*
Y105445D01*
X132422D01*
Y104822D01*
D02*
G37*
G36*
X175689Y46351D02*
Y45734D01*
Y45111D01*
X175072D01*
Y44488D01*
X171976D01*
Y45111D01*
Y45734D01*
Y46351D01*
X172599D01*
Y46974D01*
X175689D01*
Y46351D01*
D02*
G37*
G36*
Y99343D02*
Y98727D01*
Y98103D01*
X175072D01*
Y97480D01*
X171976D01*
Y98103D01*
Y98727D01*
Y99343D01*
X172599D01*
Y99966D01*
X175689D01*
Y99343D01*
D02*
G37*
G36*
X133045Y96948D02*
X133661D01*
Y96338D01*
Y95714D01*
Y95091D01*
Y94475D01*
Y93851D01*
Y93228D01*
Y92618D01*
X133045D01*
Y92008D01*
X132422D01*
Y91398D01*
X127475D01*
Y92008D01*
X127469D01*
Y91398D01*
X124996D01*
Y92008D01*
X124372D01*
Y91398D01*
X121899D01*
Y92008D01*
X121893D01*
Y91398D01*
X117557D01*
Y92008D01*
X116933D01*
Y92618D01*
X116323D01*
Y93228D01*
Y93851D01*
Y94475D01*
Y95091D01*
Y95714D01*
X116933D01*
Y96338D01*
X117557D01*
Y96948D01*
X118173D01*
Y97571D01*
X124996D01*
Y96948D01*
X125619D01*
Y97571D01*
X128085D01*
Y96948D01*
X128709D01*
Y97571D01*
X133045D01*
Y96948D01*
D02*
G37*
G36*
X80009Y88099D02*
X80632D01*
Y87475D01*
Y86872D01*
Y86248D01*
Y85625D01*
Y85009D01*
X78769D01*
Y85625D01*
X78145D01*
Y86248D01*
Y86872D01*
Y87475D01*
Y88099D01*
Y88722D01*
X80009D01*
Y88099D01*
D02*
G37*
G36*
X175689Y129343D02*
Y128727D01*
Y128103D01*
X175072D01*
Y127480D01*
X171976D01*
Y128103D01*
Y128727D01*
Y129343D01*
X172599D01*
Y129966D01*
X175689D01*
Y129343D01*
D02*
G37*
G36*
Y111200D02*
Y110590D01*
Y109966D01*
Y109343D01*
Y108727D01*
Y108103D01*
Y107480D01*
Y106870D01*
Y106260D01*
X175072D01*
Y105650D01*
X172599D01*
Y106260D01*
X171976D01*
Y105650D01*
X169503D01*
Y106260D01*
X169496D01*
Y105650D01*
X167023D01*
Y106260D01*
X166400D01*
Y105650D01*
X163927D01*
Y106260D01*
Y106870D01*
Y107480D01*
Y108103D01*
X164537D01*
Y108727D01*
X163927D01*
Y109343D01*
Y109966D01*
Y110590D01*
Y111200D01*
X164537D01*
Y111823D01*
X167023D01*
Y111200D01*
X167646D01*
Y111823D01*
X170113D01*
Y111200D01*
X170736D01*
Y111823D01*
X175689D01*
Y111200D01*
D02*
G37*
G36*
X74843Y104822D02*
X75466D01*
Y104212D01*
Y103588D01*
Y102965D01*
X74843D01*
Y102349D01*
Y101725D01*
X76083D01*
Y101102D01*
Y100492D01*
Y99882D01*
X75466D01*
Y99272D01*
X70507D01*
Y99882D01*
X69884D01*
Y99272D01*
X65547D01*
Y99882D01*
X64937D01*
Y100492D01*
Y101102D01*
Y101725D01*
Y102349D01*
Y102965D01*
Y103588D01*
Y104212D01*
X65547D01*
Y104822D01*
X66171D01*
Y105445D01*
X70507D01*
Y104822D01*
X71123D01*
Y104212D01*
Y103588D01*
Y102965D01*
X70507D01*
Y102349D01*
X71123D01*
Y101725D01*
Y101102D01*
X71130D01*
Y101725D01*
X71746D01*
Y102349D01*
Y102965D01*
Y103588D01*
Y104212D01*
Y104822D01*
X72370D01*
Y105445D01*
X74843D01*
Y104822D01*
D02*
G37*
G36*
X175072Y81200D02*
X175689D01*
Y80590D01*
Y79966D01*
Y79343D01*
Y78727D01*
Y78103D01*
Y77480D01*
Y76870D01*
X175072D01*
Y76260D01*
X174449D01*
Y75650D01*
X169503D01*
Y76260D01*
X169496D01*
Y75650D01*
X167023D01*
Y76260D01*
X166400D01*
Y75650D01*
X163927D01*
Y76260D01*
X163920D01*
Y75650D01*
X159584D01*
Y76260D01*
X158961D01*
Y76870D01*
X158351D01*
Y77480D01*
Y78103D01*
Y78727D01*
Y79343D01*
Y79966D01*
X158961D01*
Y80590D01*
X159584D01*
Y81200D01*
X160201D01*
Y81823D01*
X167023D01*
Y81200D01*
X167646D01*
Y81823D01*
X170113D01*
Y81200D01*
X170736D01*
Y81823D01*
X175072D01*
Y81200D01*
D02*
G37*
G36*
X80387Y96948D02*
X81004D01*
Y96338D01*
Y95714D01*
Y95091D01*
X80387D01*
Y94475D01*
X81004D01*
Y93851D01*
Y93228D01*
Y92618D01*
X80387D01*
Y92008D01*
X79764D01*
Y91398D01*
X75428D01*
Y92008D01*
X74818D01*
Y92618D01*
Y93228D01*
Y93851D01*
X74811D01*
Y93228D01*
X74188D01*
Y92618D01*
X73565D01*
Y92008D01*
X72961D01*
Y91398D01*
X71092D01*
Y92008D01*
X70475D01*
Y92618D01*
X69235D01*
Y92008D01*
X68612D01*
Y91398D01*
X64276D01*
Y92008D01*
X63666D01*
Y92618D01*
Y93228D01*
Y93851D01*
Y94475D01*
Y95091D01*
Y95714D01*
Y96338D01*
X64276D01*
Y96948D01*
X64899D01*
Y97571D01*
X69235D01*
Y96948D01*
X69852D01*
Y97571D01*
X72338D01*
Y96948D01*
X72961D01*
Y97571D01*
X75428D01*
Y96948D01*
X76051D01*
Y97571D01*
X80387D01*
Y96948D01*
D02*
G37*
G36*
X96855Y96161D02*
X97465D01*
Y95538D01*
X98088D01*
Y94921D01*
Y94298D01*
Y93674D01*
Y93051D01*
Y92448D01*
Y91825D01*
Y91201D01*
X97465D01*
Y90585D01*
Y89961D01*
X98088D01*
Y89345D01*
Y88722D01*
Y88099D01*
Y87475D01*
Y86872D01*
Y86248D01*
Y85625D01*
X97465D01*
Y85009D01*
X93135D01*
Y85625D01*
X92525D01*
Y86248D01*
X91915D01*
Y86872D01*
Y87475D01*
Y88099D01*
Y88722D01*
Y89345D01*
Y89961D01*
Y90585D01*
X92525D01*
Y91195D01*
X94992D01*
Y91201D01*
X94369D01*
Y91825D01*
X92525D01*
Y92448D01*
X91915D01*
Y93051D01*
Y93674D01*
Y94298D01*
Y94921D01*
Y95538D01*
X92525D01*
Y96161D01*
X93135D01*
Y96771D01*
X96855D01*
Y96161D01*
D02*
G37*
G36*
X175689Y121200D02*
Y120590D01*
Y119966D01*
X174449D01*
Y119343D01*
Y118727D01*
Y118103D01*
Y117480D01*
Y116870D01*
Y116260D01*
X173826D01*
Y115650D01*
X171353D01*
Y116260D01*
Y116870D01*
Y117480D01*
Y118103D01*
Y118727D01*
Y119343D01*
X170113D01*
Y118727D01*
X170730D01*
Y118103D01*
Y117480D01*
Y116870D01*
Y116260D01*
X170113D01*
Y115650D01*
X167640D01*
Y116260D01*
X167017D01*
Y115650D01*
X164543D01*
Y116260D01*
Y116870D01*
Y117480D01*
Y118103D01*
X165154D01*
Y118727D01*
X164543D01*
Y119343D01*
Y119966D01*
Y120590D01*
Y121200D01*
X165154D01*
Y121823D01*
X167640D01*
Y121200D01*
X168263D01*
Y121823D01*
X170730D01*
Y121200D01*
X170736D01*
Y121823D01*
X175689D01*
Y121200D01*
D02*
G37*
G36*
X104855Y95544D02*
X105465D01*
Y94921D01*
X106088D01*
Y94304D01*
Y93681D01*
Y93058D01*
Y92435D01*
Y91831D01*
Y91208D01*
Y90585D01*
X105465D01*
Y89968D01*
X101745D01*
Y89961D01*
X102369D01*
Y89345D01*
X105465D01*
Y88722D01*
X106088D01*
Y88099D01*
Y87475D01*
Y86872D01*
Y86248D01*
X105465D01*
Y85625D01*
X103609D01*
Y86248D01*
X102369D01*
Y85625D01*
Y85009D01*
X100525D01*
Y85625D01*
X99915D01*
Y86248D01*
Y86872D01*
Y87475D01*
Y88099D01*
Y88722D01*
Y89345D01*
Y89961D01*
Y90585D01*
X100525D01*
Y91208D01*
X99915D01*
Y91831D01*
Y92435D01*
Y93058D01*
Y93681D01*
Y94304D01*
Y94921D01*
Y95544D01*
X100525D01*
Y96154D01*
X104855D01*
Y95544D01*
D02*
G37*
G36*
X175072Y58208D02*
X175689D01*
Y57598D01*
Y56974D01*
Y56351D01*
Y55734D01*
Y55111D01*
Y54488D01*
Y53878D01*
X175072D01*
Y53268D01*
X174449D01*
Y52658D01*
X170113D01*
Y53268D01*
X169503D01*
Y53878D01*
X169496D01*
Y53268D01*
X168873D01*
Y52658D01*
X164537D01*
Y53268D01*
X163927D01*
Y53878D01*
Y54488D01*
Y55111D01*
Y55734D01*
Y56351D01*
Y56974D01*
Y57598D01*
Y58208D01*
Y58831D01*
X170113D01*
Y58208D01*
X170736D01*
Y58831D01*
X175072D01*
Y58208D01*
D02*
G37*
G36*
X76083Y136318D02*
Y135708D01*
Y135084D01*
Y134461D01*
Y133845D01*
Y133221D01*
Y132598D01*
Y131988D01*
Y131378D01*
X75466D01*
Y130768D01*
X69897D01*
Y131378D01*
X69890D01*
Y130768D01*
X67417D01*
Y131378D01*
X66794D01*
Y130768D01*
X64321D01*
Y131378D01*
Y131988D01*
Y132598D01*
Y133221D01*
Y133845D01*
Y134461D01*
Y135084D01*
Y135708D01*
Y136318D01*
X64931D01*
Y136941D01*
X67417D01*
Y136318D01*
X68040D01*
Y136941D01*
X76083D01*
Y136318D01*
D02*
G37*
G36*
X175072Y38208D02*
X175689D01*
Y37598D01*
Y36974D01*
Y36351D01*
Y35734D01*
Y35111D01*
Y34488D01*
Y33878D01*
X175072D01*
Y33268D01*
X174449D01*
Y32658D01*
X169503D01*
Y33268D01*
X169496D01*
Y32658D01*
X167023D01*
Y33268D01*
X166400D01*
Y32658D01*
X163927D01*
Y33268D01*
X163920D01*
Y32658D01*
X159584D01*
Y33268D01*
X158961D01*
Y33878D01*
X158351D01*
Y34488D01*
Y35111D01*
Y35734D01*
Y36351D01*
Y36974D01*
X158961D01*
Y37598D01*
X159584D01*
Y38208D01*
X160201D01*
Y38831D01*
X167023D01*
Y38208D01*
X167646D01*
Y38831D01*
X170113D01*
Y38208D01*
X170736D01*
Y38831D01*
X175072D01*
Y38208D01*
D02*
G37*
G36*
X74843Y128444D02*
X75466D01*
Y127834D01*
Y127210D01*
Y126587D01*
X74843D01*
Y125971D01*
Y125347D01*
X76083D01*
Y124724D01*
Y124114D01*
Y123504D01*
X75466D01*
Y122894D01*
X70507D01*
Y123504D01*
X69884D01*
Y122894D01*
X65547D01*
Y123504D01*
X64937D01*
Y124114D01*
Y124724D01*
Y125347D01*
Y125971D01*
X65547D01*
Y126587D01*
X66171D01*
Y127210D01*
Y127834D01*
Y128444D01*
X66787D01*
Y129067D01*
X69884D01*
Y128444D01*
X70507D01*
Y127834D01*
X71123D01*
Y127210D01*
Y126587D01*
Y125971D01*
Y125347D01*
Y124724D01*
X71130D01*
Y125347D01*
X71746D01*
Y125971D01*
Y126587D01*
Y127210D01*
Y127834D01*
Y128444D01*
X72370D01*
Y129067D01*
X74843D01*
Y128444D01*
D02*
G37*
G36*
Y112696D02*
X75466D01*
Y112086D01*
Y111462D01*
Y110839D01*
X74843D01*
Y110223D01*
Y109599D01*
X76083D01*
Y108976D01*
Y108366D01*
Y107756D01*
X75466D01*
Y107146D01*
X64937D01*
Y107756D01*
Y108366D01*
Y108976D01*
X65547D01*
Y109599D01*
X64937D01*
Y110223D01*
Y110839D01*
Y111462D01*
Y112086D01*
X65547D01*
Y112696D01*
X66171D01*
Y113319D01*
X70507D01*
Y112696D01*
X71123D01*
Y112086D01*
Y111462D01*
Y110839D01*
Y110223D01*
X70507D01*
Y109599D01*
X71123D01*
Y108976D01*
X71130D01*
Y109599D01*
X71746D01*
Y110223D01*
Y110839D01*
Y111462D01*
Y112086D01*
Y112696D01*
X72370D01*
Y113319D01*
X74843D01*
Y112696D01*
D02*
G37*
G36*
X175072Y68208D02*
X175689D01*
Y67598D01*
Y66974D01*
Y66351D01*
X175072D01*
Y65734D01*
X175689D01*
Y65111D01*
Y64488D01*
Y63878D01*
X175072D01*
Y63268D01*
X174449D01*
Y62658D01*
X170113D01*
Y63268D01*
X169503D01*
Y63878D01*
Y64488D01*
Y65111D01*
X169496D01*
Y64488D01*
X168873D01*
Y63878D01*
X168250D01*
Y63268D01*
X167646D01*
Y62658D01*
X165777D01*
Y63268D01*
X165160D01*
Y63878D01*
X163920D01*
Y63268D01*
X163297D01*
Y62658D01*
X158961D01*
Y63268D01*
X158351D01*
Y63878D01*
Y64488D01*
Y65111D01*
Y65734D01*
Y66351D01*
Y66974D01*
Y67598D01*
X158961D01*
Y68208D01*
X159584D01*
Y68831D01*
X163920D01*
Y68208D01*
X164537D01*
Y68831D01*
X167023D01*
Y68208D01*
X167646D01*
Y68831D01*
X170113D01*
Y68208D01*
X170736D01*
Y68831D01*
X175072D01*
Y68208D01*
D02*
G37*
G36*
X74843Y120570D02*
X75466D01*
Y119960D01*
Y119336D01*
Y118713D01*
X74843D01*
Y118097D01*
Y117473D01*
X76083D01*
Y116850D01*
Y116240D01*
Y115630D01*
X75466D01*
Y115020D01*
X70507D01*
Y115630D01*
X68034D01*
Y115020D01*
X65547D01*
Y115630D01*
X64937D01*
Y116240D01*
Y116850D01*
Y117473D01*
X65547D01*
Y118097D01*
Y118713D01*
Y119336D01*
Y119960D01*
Y120570D01*
X66171D01*
Y121193D01*
X68657D01*
Y120570D01*
X69260D01*
Y119960D01*
X69884D01*
Y119336D01*
X70507D01*
Y118713D01*
X71123D01*
Y118097D01*
Y117473D01*
Y116850D01*
X71130D01*
Y117473D01*
X71746D01*
Y118097D01*
Y118713D01*
Y119336D01*
Y119960D01*
Y120570D01*
X72370D01*
Y121193D01*
X74843D01*
Y120570D01*
D02*
G37*
G36*
X95275Y33862D02*
X95885D01*
Y33239D01*
X96508D01*
Y32622D01*
Y31999D01*
Y31376D01*
Y30753D01*
Y30149D01*
Y29526D01*
Y28903D01*
X95885D01*
Y28286D01*
X93412D01*
Y28903D01*
X92788D01*
Y28286D01*
X92165D01*
Y28280D01*
X92788D01*
Y27663D01*
X95885D01*
Y27040D01*
X96508D01*
Y26417D01*
Y25793D01*
Y25190D01*
Y24567D01*
X95885D01*
Y23943D01*
X94028D01*
Y24567D01*
X92788D01*
Y23943D01*
Y23327D01*
X90945D01*
Y23943D01*
X90335D01*
Y24567D01*
Y25190D01*
Y25793D01*
Y26417D01*
Y27040D01*
Y27663D01*
Y28280D01*
Y28903D01*
Y29526D01*
Y30149D01*
Y30753D01*
Y31376D01*
Y31999D01*
Y32622D01*
Y33239D01*
Y33862D01*
Y34472D01*
X92165D01*
Y33862D01*
X92788D01*
Y34472D01*
X95275D01*
Y33862D01*
D02*
G37*
G36*
X105275Y34479D02*
X105885D01*
Y33856D01*
X106508D01*
Y33239D01*
Y32616D01*
Y31993D01*
Y31369D01*
Y30766D01*
Y30143D01*
Y29519D01*
X105885D01*
Y28903D01*
Y28280D01*
X106508D01*
Y27663D01*
Y27040D01*
Y26417D01*
Y25793D01*
Y25190D01*
Y24567D01*
Y23943D01*
X105885D01*
Y23327D01*
X101555D01*
Y23943D01*
X100945D01*
Y24567D01*
X100335D01*
Y25190D01*
Y25793D01*
Y26417D01*
Y27040D01*
Y27663D01*
Y28280D01*
Y28903D01*
X100945D01*
Y29513D01*
X103412D01*
Y29519D01*
X102788D01*
Y30143D01*
X100945D01*
Y30766D01*
X100335D01*
Y31369D01*
Y31993D01*
Y32616D01*
Y33239D01*
Y33856D01*
X100945D01*
Y34479D01*
X101555D01*
Y35089D01*
X105275D01*
Y34479D01*
D02*
G37*
G36*
X133045Y128444D02*
X133661D01*
Y127834D01*
Y127210D01*
Y126587D01*
Y125971D01*
Y125347D01*
Y124724D01*
Y124114D01*
X133045D01*
Y123504D01*
X132422D01*
Y122894D01*
X128085D01*
Y123504D01*
X127475D01*
Y124114D01*
X127469D01*
Y123504D01*
X124996D01*
Y122894D01*
X122509D01*
Y123504D01*
X121899D01*
Y124114D01*
Y124724D01*
Y125347D01*
X122509D01*
Y125971D01*
Y126587D01*
Y127210D01*
Y127834D01*
Y128444D01*
X123133D01*
Y129067D01*
X125619D01*
Y128444D01*
X126222D01*
Y127834D01*
X126846D01*
Y127210D01*
X127469D01*
Y126587D01*
X127475D01*
Y127210D01*
Y127834D01*
X128085D01*
Y128444D01*
X128709D01*
Y129067D01*
X133045D01*
Y128444D01*
D02*
G37*
G36*
X144487Y33862D02*
X145097D01*
Y33239D01*
X145721D01*
Y32622D01*
Y31999D01*
Y31376D01*
Y30753D01*
Y30149D01*
Y29526D01*
Y28903D01*
X145097D01*
Y28286D01*
X141378D01*
Y28280D01*
X142001D01*
Y27663D01*
X145097D01*
Y27040D01*
X145721D01*
Y26417D01*
Y25793D01*
Y25190D01*
Y24567D01*
X145097D01*
Y23943D01*
X143241D01*
Y24567D01*
X142001D01*
Y23943D01*
Y23327D01*
X140158D01*
Y23943D01*
X139548D01*
Y24567D01*
Y25190D01*
Y25793D01*
Y26417D01*
Y27040D01*
Y27663D01*
Y28280D01*
Y28903D01*
X140158D01*
Y29526D01*
X139548D01*
Y30149D01*
Y30753D01*
Y31376D01*
Y31999D01*
Y32622D01*
Y33239D01*
Y33862D01*
X140158D01*
Y34472D01*
X144487D01*
Y33862D01*
D02*
G37*
G36*
X133045Y120570D02*
X133661D01*
Y119960D01*
Y119336D01*
Y118713D01*
Y118097D01*
Y117473D01*
Y116850D01*
Y116240D01*
X133045D01*
Y115630D01*
X132422D01*
Y115020D01*
X128085D01*
Y115630D01*
X127475D01*
Y116240D01*
X127469D01*
Y115630D01*
X126846D01*
Y115020D01*
X122509D01*
Y115630D01*
X121899D01*
Y116240D01*
Y116850D01*
Y117473D01*
Y118097D01*
Y118713D01*
Y119336D01*
Y119960D01*
X122509D01*
Y120570D01*
X123133D01*
Y121193D01*
X127469D01*
Y120570D01*
X128709D01*
Y121193D01*
X133045D01*
Y120570D01*
D02*
G37*
G36*
X53576Y33862D02*
X56672D01*
Y33239D01*
X57295D01*
Y32622D01*
Y31999D01*
Y31376D01*
Y30753D01*
X56672D01*
Y30149D01*
X56062D01*
Y29526D01*
X55439D01*
Y28903D01*
X54816D01*
Y28286D01*
X52953D01*
Y28280D01*
X53576D01*
Y27663D01*
X56672D01*
Y27040D01*
X57295D01*
Y26417D01*
Y25793D01*
Y25190D01*
Y24567D01*
X56672D01*
Y23943D01*
X54816D01*
Y24567D01*
X53576D01*
Y23943D01*
Y23327D01*
X51732D01*
Y23943D01*
X51122D01*
Y24567D01*
Y25190D01*
Y25793D01*
Y26417D01*
Y27040D01*
Y27663D01*
Y28280D01*
Y28903D01*
X51732D01*
Y29526D01*
Y30149D01*
Y30753D01*
Y31376D01*
X51122D01*
Y31999D01*
Y32622D01*
Y33239D01*
Y33862D01*
X51732D01*
Y34472D01*
X53576D01*
Y33862D01*
D02*
G37*
G36*
X133661Y152066D02*
Y151456D01*
Y150832D01*
X132422D01*
Y150209D01*
Y149593D01*
Y148969D01*
Y148346D01*
Y147736D01*
Y147126D01*
X131798D01*
Y146516D01*
X129325D01*
Y147126D01*
Y147736D01*
Y148346D01*
Y148969D01*
Y149593D01*
Y150209D01*
X128085D01*
Y149593D01*
X128702D01*
Y148969D01*
Y148346D01*
Y147736D01*
Y147126D01*
X128085D01*
Y146516D01*
X125612D01*
Y147126D01*
X124989D01*
Y146516D01*
X122516D01*
Y147126D01*
Y147736D01*
Y148346D01*
Y148969D01*
X123126D01*
Y149593D01*
X122516D01*
Y150209D01*
Y150832D01*
Y151456D01*
Y152066D01*
X123126D01*
Y152689D01*
X125612D01*
Y152066D01*
X126235D01*
Y152689D01*
X128702D01*
Y152066D01*
X128709D01*
Y152689D01*
X133661D01*
Y152066D01*
D02*
G37*
G36*
X46062Y33862D02*
X46672D01*
Y33239D01*
X47295D01*
Y32622D01*
Y31999D01*
Y31376D01*
Y30753D01*
Y30149D01*
Y29526D01*
Y28903D01*
X46672D01*
Y28286D01*
X44816D01*
Y28903D01*
X44199D01*
Y28286D01*
X42953D01*
Y28280D01*
X43576D01*
Y27663D01*
X46672D01*
Y27040D01*
X47295D01*
Y26417D01*
Y25793D01*
Y25190D01*
Y24567D01*
X46672D01*
Y23943D01*
X44816D01*
Y24567D01*
X43576D01*
Y23943D01*
Y23327D01*
X41732D01*
Y23943D01*
X41122D01*
Y24567D01*
Y25190D01*
Y25793D01*
Y26417D01*
Y27040D01*
Y27663D01*
Y28280D01*
Y28903D01*
X41732D01*
Y29526D01*
X41122D01*
Y30149D01*
Y30753D01*
Y31376D01*
Y31999D01*
Y32622D01*
Y33239D01*
Y33862D01*
X41732D01*
Y34472D01*
X46062D01*
Y33862D01*
D02*
G37*
G36*
X133045Y136318D02*
X133661D01*
Y135708D01*
Y135084D01*
Y134461D01*
Y133845D01*
Y133221D01*
Y132598D01*
Y131988D01*
X133045D01*
Y131378D01*
X132422D01*
Y130768D01*
X128085D01*
Y131378D01*
X127475D01*
Y131988D01*
X127469D01*
Y131378D01*
X126846D01*
Y130768D01*
X122509D01*
Y131378D01*
X121899D01*
Y131988D01*
Y132598D01*
Y133221D01*
Y133845D01*
Y134461D01*
Y135084D01*
Y135708D01*
Y136318D01*
Y136941D01*
X128085D01*
Y136318D01*
X128709D01*
Y136941D01*
X133045D01*
Y136318D01*
D02*
G37*
G36*
X133661Y144192D02*
Y143582D01*
Y142958D01*
Y142335D01*
Y141719D01*
Y141095D01*
Y140472D01*
Y139862D01*
Y139252D01*
X133045D01*
Y138642D01*
X130572D01*
Y139252D01*
X129948D01*
Y138642D01*
X127475D01*
Y139252D01*
X127469D01*
Y138642D01*
X124996D01*
Y139252D01*
X124372D01*
Y138642D01*
X121899D01*
Y139252D01*
Y139862D01*
Y140472D01*
Y141095D01*
X122509D01*
Y141719D01*
X121899D01*
Y142335D01*
Y142958D01*
Y143582D01*
Y144192D01*
X122509D01*
Y144815D01*
X124996D01*
Y144192D01*
X125619D01*
Y144815D01*
X128085D01*
Y144192D01*
X128709D01*
Y144815D01*
X133661D01*
Y144192D01*
D02*
G37*
G36*
X133045Y112696D02*
X133661D01*
Y112086D01*
Y111462D01*
Y110839D01*
Y110223D01*
Y109599D01*
Y108976D01*
Y108366D01*
X133045D01*
Y107756D01*
X132422D01*
Y107146D01*
X128085D01*
Y107756D01*
X127469D01*
Y107146D01*
X121899D01*
Y107756D01*
Y108366D01*
Y108976D01*
X122509D01*
Y109599D01*
X121899D01*
Y110223D01*
Y110839D01*
Y111462D01*
Y112086D01*
X122509D01*
Y112696D01*
X123133D01*
Y113319D01*
X127469D01*
Y112696D01*
X128709D01*
Y113319D01*
X133045D01*
Y112696D01*
D02*
G37*
G36*
X152001Y34479D02*
X155097D01*
Y33856D01*
X155720D01*
Y33239D01*
Y32616D01*
Y31993D01*
Y31369D01*
X155097D01*
Y30766D01*
X154487D01*
Y30143D01*
X153864D01*
Y29519D01*
X153241D01*
Y29513D01*
X154487D01*
Y28903D01*
X155097D01*
Y28280D01*
X155720D01*
Y27663D01*
Y27040D01*
Y26417D01*
Y25793D01*
Y25190D01*
Y24567D01*
Y23943D01*
X155097D01*
Y23327D01*
X150768D01*
Y23943D01*
X150158D01*
Y24567D01*
X149548D01*
Y25190D01*
Y25793D01*
Y26417D01*
Y27040D01*
Y27663D01*
Y28280D01*
Y28903D01*
X150158D01*
Y29513D01*
X150768D01*
Y29519D01*
X150158D01*
Y30143D01*
Y30766D01*
Y31369D01*
Y31993D01*
X149548D01*
Y32616D01*
Y33239D01*
Y33856D01*
Y34479D01*
X150158D01*
Y35089D01*
X152001D01*
Y34479D01*
D02*
G37*
%LPC*%
G36*
X74220Y104822D02*
X72993D01*
Y104212D01*
Y103588D01*
Y102965D01*
Y102349D01*
Y101725D01*
Y101102D01*
X71746D01*
Y100492D01*
X75466D01*
Y101102D01*
X74220D01*
Y101725D01*
Y102349D01*
Y102965D01*
Y103588D01*
X74843D01*
Y104212D01*
X74220D01*
Y104822D01*
D02*
G37*
G36*
X69884D02*
X66787D01*
Y104212D01*
X66171D01*
Y103588D01*
Y102965D01*
X66787D01*
Y102349D01*
X66171D01*
Y101725D01*
Y101102D01*
X66787D01*
Y100492D01*
X69884D01*
Y101102D01*
X70507D01*
Y101725D01*
X69260D01*
Y101102D01*
X67410D01*
Y101725D01*
Y102349D01*
X68657D01*
Y102965D01*
X67410D01*
Y103588D01*
Y104212D01*
X69260D01*
Y103588D01*
X70507D01*
Y104212D01*
X69884D01*
Y104822D01*
D02*
G37*
G36*
X128085Y104822D02*
X123749D01*
Y104212D01*
X126839D01*
Y103588D01*
X124366D01*
Y102965D01*
X123749D01*
Y102349D01*
Y101725D01*
Y101102D01*
X124366D01*
Y100492D01*
X127462D01*
Y101102D01*
X128085D01*
Y101725D01*
X126839D01*
Y101102D01*
X124989D01*
Y101725D01*
Y102349D01*
Y102965D01*
X128085D01*
Y103588D01*
Y104212D01*
Y104822D01*
D02*
G37*
G36*
X127475Y142335D02*
X127469D01*
Y141719D01*
X127475D01*
Y142335D01*
D02*
G37*
G36*
X121893Y96948D02*
X118797D01*
Y96338D01*
X118173D01*
Y95714D01*
X117557D01*
Y95091D01*
Y94475D01*
Y93851D01*
X118173D01*
Y93228D01*
X118797D01*
Y92618D01*
X121893D01*
Y93228D01*
Y93851D01*
Y94475D01*
Y95091D01*
Y95714D01*
Y96338D01*
Y96948D01*
D02*
G37*
G36*
X127469Y136318D02*
X123133D01*
Y135708D01*
X126222D01*
Y135084D01*
X123749D01*
Y134461D01*
X123133D01*
Y133845D01*
Y133221D01*
Y132598D01*
X123749D01*
Y131988D01*
X126846D01*
Y132598D01*
X127469D01*
Y133221D01*
X126222D01*
Y132598D01*
X124372D01*
Y133221D01*
Y133845D01*
Y134461D01*
X127469D01*
Y135084D01*
Y135708D01*
Y136318D01*
D02*
G37*
G36*
X74220Y112696D02*
X72993D01*
Y112086D01*
Y111462D01*
Y110839D01*
Y110223D01*
Y109599D01*
Y108976D01*
X71746D01*
Y108366D01*
X75466D01*
Y108976D01*
X74220D01*
Y109599D01*
Y110223D01*
Y110839D01*
Y111462D01*
X74843D01*
Y112086D01*
X74220D01*
Y112696D01*
D02*
G37*
G36*
X69884D02*
X66787D01*
Y112086D01*
X66171D01*
Y111462D01*
Y110839D01*
X66787D01*
Y110223D01*
X67410D01*
Y109599D01*
X68034D01*
Y108976D01*
X66171D01*
Y108366D01*
X70507D01*
Y108976D01*
X69884D01*
Y109599D01*
X69260D01*
Y110223D01*
X68657D01*
Y110839D01*
X68034D01*
Y111462D01*
X67410D01*
Y112086D01*
X69260D01*
Y111462D01*
Y110839D01*
X70507D01*
Y111462D01*
Y112086D01*
X69884D01*
Y112696D01*
D02*
G37*
G36*
X127469Y144192D02*
X126222D01*
Y143582D01*
X125619D01*
Y142958D01*
X124996D01*
Y143582D01*
X124372D01*
Y144192D01*
X123133D01*
Y143582D01*
Y142958D01*
X123749D01*
Y142335D01*
X124372D01*
Y141719D01*
X123749D01*
Y141095D01*
X123133D01*
Y140472D01*
Y139862D01*
X124372D01*
Y140472D01*
X124996D01*
Y141095D01*
X125619D01*
Y140472D01*
X126222D01*
Y139862D01*
X127469D01*
Y140472D01*
Y141095D01*
X126846D01*
Y141719D01*
X126222D01*
Y142335D01*
X126846D01*
Y142958D01*
X127469D01*
Y143582D01*
Y144192D01*
D02*
G37*
G36*
X74811Y96948D02*
X73565D01*
Y96338D01*
Y95714D01*
Y95091D01*
Y94475D01*
X72961D01*
Y93851D01*
X72338D01*
Y94475D01*
X71715D01*
Y95091D01*
Y95714D01*
Y96338D01*
Y96948D01*
X70475D01*
Y96338D01*
Y95714D01*
Y95091D01*
Y94475D01*
X71092D01*
Y93851D01*
X71715D01*
Y93228D01*
X72338D01*
Y92618D01*
X72961D01*
Y93228D01*
X73565D01*
Y93851D01*
X74188D01*
Y94475D01*
X74811D01*
Y95091D01*
Y95714D01*
Y96338D01*
Y96948D01*
D02*
G37*
G36*
X101745Y89345D02*
X101135D01*
Y88722D01*
Y88099D01*
Y87475D01*
Y86872D01*
Y86248D01*
Y85625D01*
X101745D01*
Y86248D01*
Y86872D01*
X104232D01*
Y86248D01*
X104855D01*
Y86872D01*
X105465D01*
Y87475D01*
Y88099D01*
X101745D01*
Y88722D01*
Y89345D01*
D02*
G37*
G36*
X128085Y152066D02*
X126839D01*
Y151456D01*
X126235D01*
Y150832D01*
X125612D01*
Y151456D01*
X124989D01*
Y152066D01*
X123749D01*
Y151456D01*
Y150832D01*
X124366D01*
Y150209D01*
X124989D01*
Y149593D01*
X124366D01*
Y148969D01*
X123749D01*
Y148346D01*
Y147736D01*
X124989D01*
Y148346D01*
X125612D01*
Y148969D01*
X126235D01*
Y148346D01*
X126839D01*
Y147736D01*
X128085D01*
Y148346D01*
Y148969D01*
X127462D01*
Y149593D01*
X126839D01*
Y150209D01*
X127462D01*
Y150832D01*
X128085D01*
Y151456D01*
Y152066D01*
D02*
G37*
G36*
X104855Y94921D02*
X101745D01*
Y94304D01*
X101135D01*
Y93681D01*
Y93058D01*
Y92435D01*
Y91831D01*
Y91208D01*
X101745D01*
Y90585D01*
X104855D01*
Y91208D01*
X105465D01*
Y91831D01*
Y92435D01*
Y93058D01*
Y93681D01*
Y94304D01*
X104855D01*
Y94921D01*
D02*
G37*
G36*
X96855Y89961D02*
X93745D01*
Y89345D01*
X93135D01*
Y88722D01*
Y88099D01*
Y87475D01*
Y86872D01*
Y86248D01*
X93745D01*
Y85625D01*
X96855D01*
Y86248D01*
X97465D01*
Y86872D01*
Y87475D01*
Y88099D01*
Y88722D01*
Y89345D01*
X96855D01*
Y89961D01*
D02*
G37*
G36*
X133045Y152066D02*
X129325D01*
Y151456D01*
X130572D01*
Y150832D01*
Y150209D01*
Y149593D01*
Y148969D01*
Y148346D01*
Y147736D01*
X131798D01*
Y148346D01*
Y148969D01*
Y149593D01*
Y150209D01*
Y150832D01*
Y151456D01*
X133045D01*
Y152066D01*
D02*
G37*
G36*
Y144192D02*
X129325D01*
Y143582D01*
X128709D01*
Y142958D01*
Y142335D01*
X129325D01*
Y141719D01*
X128709D01*
Y141095D01*
Y140472D01*
Y139862D01*
X129948D01*
Y140472D01*
Y141095D01*
Y141719D01*
X131798D01*
Y141095D01*
Y140472D01*
Y139862D01*
X133045D01*
Y140472D01*
Y141095D01*
Y141719D01*
Y142335D01*
Y142958D01*
Y143582D01*
Y144192D01*
D02*
G37*
G36*
X69242Y95091D02*
X69235D01*
Y94475D01*
X69242D01*
Y95091D01*
D02*
G37*
G36*
X68612Y96948D02*
X65516D01*
Y96338D01*
X64899D01*
Y95714D01*
Y95091D01*
X65516D01*
Y94475D01*
X64899D01*
Y93851D01*
Y93228D01*
X65516D01*
Y92618D01*
X68612D01*
Y93228D01*
X69235D01*
Y93851D01*
X67989D01*
Y93228D01*
X66139D01*
Y93851D01*
Y94475D01*
X67385D01*
Y95091D01*
X66139D01*
Y95714D01*
Y96338D01*
X67989D01*
Y95714D01*
X69235D01*
Y96338D01*
X68612D01*
Y96948D01*
D02*
G37*
G36*
X131798Y104822D02*
X130572D01*
Y104212D01*
Y103588D01*
Y102965D01*
Y102349D01*
Y101725D01*
Y101102D01*
X129325D01*
Y100492D01*
X133045D01*
Y101102D01*
X131798D01*
Y101725D01*
Y102349D01*
Y102965D01*
Y103588D01*
X132422D01*
Y104212D01*
X131798D01*
Y104822D01*
D02*
G37*
G36*
X79764Y96948D02*
X76668D01*
Y96338D01*
X76051D01*
Y95714D01*
Y95091D01*
X76668D01*
Y94475D01*
X76051D01*
Y93851D01*
Y93228D01*
X76668D01*
Y92618D01*
X79764D01*
Y93228D01*
X80387D01*
Y93851D01*
X79141D01*
Y93228D01*
X77291D01*
Y93851D01*
Y94475D01*
X78537D01*
Y95091D01*
X77291D01*
Y95714D01*
Y96338D01*
X79141D01*
Y95714D01*
X80387D01*
Y96338D01*
X79764D01*
Y96948D01*
D02*
G37*
G36*
X74220Y120570D02*
X72993D01*
Y119960D01*
Y119336D01*
Y118713D01*
Y118097D01*
Y117473D01*
Y116850D01*
X71746D01*
Y116240D01*
X75466D01*
Y116850D01*
X74220D01*
Y117473D01*
Y118097D01*
Y118713D01*
Y119336D01*
X74843D01*
Y119960D01*
X74220D01*
Y120570D01*
D02*
G37*
G36*
X80387Y152066D02*
X76668D01*
Y151456D01*
X76051D01*
Y150832D01*
Y150209D01*
X76668D01*
Y149593D01*
X76051D01*
Y148969D01*
Y148346D01*
Y147736D01*
X77291D01*
Y148346D01*
Y148969D01*
Y149593D01*
X79141D01*
Y148969D01*
Y148346D01*
Y147736D01*
X80387D01*
Y148346D01*
Y148969D01*
Y149593D01*
Y150209D01*
Y150832D01*
Y151456D01*
Y152066D01*
D02*
G37*
G36*
X126846Y120570D02*
X123749D01*
Y119960D01*
X123133D01*
Y119336D01*
Y118713D01*
Y118097D01*
Y117473D01*
Y116850D01*
X123749D01*
Y116240D01*
X126846D01*
Y116850D01*
X127469D01*
Y117473D01*
Y118097D01*
Y118713D01*
Y119336D01*
Y119960D01*
X126846D01*
Y120570D01*
D02*
G37*
G36*
X127469Y96948D02*
X126222D01*
Y96338D01*
X125619D01*
Y95714D01*
X124996D01*
Y95091D01*
X124372D01*
Y95714D01*
Y96338D01*
Y96948D01*
X123133D01*
Y96338D01*
Y95714D01*
Y95091D01*
Y94475D01*
Y93851D01*
Y93228D01*
Y92618D01*
X124372D01*
Y93228D01*
Y93851D01*
X124996D01*
Y94475D01*
X125619D01*
Y95091D01*
X126222D01*
Y94475D01*
Y93851D01*
Y93228D01*
Y92618D01*
X127469D01*
Y93228D01*
Y93851D01*
Y94475D01*
Y95091D01*
Y95714D01*
Y96338D01*
Y96948D01*
D02*
G37*
G36*
X79764Y144192D02*
X76668D01*
Y143582D01*
X76051D01*
Y142958D01*
Y142335D01*
Y141719D01*
Y141095D01*
Y140472D01*
Y139862D01*
X77291D01*
Y140472D01*
Y141095D01*
X79141D01*
Y140472D01*
Y139862D01*
X80387D01*
Y140472D01*
Y141095D01*
Y141719D01*
Y142335D01*
Y142958D01*
Y143582D01*
X79764D01*
Y144192D01*
D02*
G37*
G36*
X74811D02*
X71715D01*
Y143582D01*
X71092D01*
Y142958D01*
X70475D01*
Y142335D01*
Y141719D01*
Y141095D01*
X71092D01*
Y140472D01*
X71715D01*
Y139862D01*
X74811D01*
Y140472D01*
Y141095D01*
Y141719D01*
Y142335D01*
Y142958D01*
Y143582D01*
Y144192D01*
D02*
G37*
G36*
X69235Y152066D02*
X65516D01*
Y151456D01*
X66762D01*
Y150832D01*
Y150209D01*
Y149593D01*
Y148969D01*
Y148346D01*
Y147736D01*
X67989D01*
Y148346D01*
Y148969D01*
Y149593D01*
Y150209D01*
Y150832D01*
Y151456D01*
X69235D01*
Y152066D01*
D02*
G37*
G36*
X132422Y112696D02*
X129325D01*
Y112086D01*
X128709D01*
Y111462D01*
Y110839D01*
Y110223D01*
Y109599D01*
Y108976D01*
X129325D01*
Y108366D01*
X132422D01*
Y108976D01*
X133045D01*
Y109599D01*
Y110223D01*
Y110839D01*
Y111462D01*
Y112086D01*
X132422D01*
Y112696D01*
D02*
G37*
G36*
X127475Y110223D02*
X127469D01*
Y109599D01*
X127475D01*
Y110223D01*
D02*
G37*
G36*
X132422Y120570D02*
X129325D01*
Y119960D01*
X128709D01*
Y119336D01*
Y118713D01*
Y118097D01*
Y117473D01*
Y116850D01*
X129325D01*
Y116240D01*
X132422D01*
Y116850D01*
X133045D01*
Y117473D01*
Y118097D01*
Y118713D01*
Y119336D01*
Y119960D01*
X132422D01*
Y120570D01*
D02*
G37*
G36*
X74188Y152066D02*
X71092D01*
Y151456D01*
X70475D01*
Y150832D01*
X71715D01*
Y151456D01*
X73565D01*
Y150832D01*
Y150209D01*
X71092D01*
Y149593D01*
X70475D01*
Y148969D01*
Y148346D01*
X71092D01*
Y147736D01*
X74188D01*
Y148346D01*
X74811D01*
Y148969D01*
X73565D01*
Y148346D01*
X71715D01*
Y148969D01*
Y149593D01*
X74188D01*
Y150209D01*
X74811D01*
Y150832D01*
Y151456D01*
X74188D01*
Y152066D01*
D02*
G37*
G36*
X68612Y144192D02*
X65516D01*
Y143582D01*
X64899D01*
Y142958D01*
X66139D01*
Y143582D01*
X67989D01*
Y142958D01*
Y142335D01*
Y141719D01*
Y141095D01*
Y140472D01*
X66139D01*
Y141095D01*
X64899D01*
Y140472D01*
X65516D01*
Y139862D01*
X68612D01*
Y140472D01*
X69235D01*
Y141095D01*
Y141719D01*
Y142335D01*
Y142958D01*
Y143582D01*
X68612D01*
Y144192D01*
D02*
G37*
G36*
X69260Y128444D02*
X67410D01*
Y127834D01*
X68657D01*
Y127210D01*
X69260D01*
Y126587D01*
X66787D01*
Y125971D01*
X66171D01*
Y125347D01*
Y124724D01*
X66787D01*
Y124114D01*
X69884D01*
Y124724D01*
X70507D01*
Y125347D01*
Y125971D01*
Y126587D01*
Y127210D01*
X69884D01*
Y127834D01*
X69260D01*
Y128444D01*
D02*
G37*
G36*
X132422Y96948D02*
X129325D01*
Y96338D01*
X128709D01*
Y95714D01*
X129948D01*
Y96338D01*
X131798D01*
Y95714D01*
Y95091D01*
Y94475D01*
Y93851D01*
Y93228D01*
X129948D01*
Y93851D01*
Y94475D01*
X130572D01*
Y95091D01*
X128709D01*
Y94475D01*
Y93851D01*
Y93228D01*
Y92618D01*
X129325D01*
Y93228D01*
X129948D01*
Y92618D01*
X132422D01*
Y93228D01*
X133045D01*
Y93851D01*
Y94475D01*
Y95091D01*
Y95714D01*
Y96338D01*
X132422D01*
Y96948D01*
D02*
G37*
G36*
X74220Y128444D02*
X72993D01*
Y127834D01*
Y127210D01*
Y126587D01*
Y125971D01*
Y125347D01*
Y124724D01*
X71746D01*
Y124114D01*
X75466D01*
Y124724D01*
X74220D01*
Y125347D01*
Y125971D01*
Y126587D01*
Y127210D01*
X74843D01*
Y127834D01*
X74220D01*
Y128444D01*
D02*
G37*
G36*
X68034Y120570D02*
X66787D01*
Y119960D01*
Y119336D01*
Y118713D01*
Y118097D01*
Y117473D01*
X66171D01*
Y116850D01*
X66787D01*
Y116240D01*
X68034D01*
Y116850D01*
X70507D01*
Y117473D01*
Y118097D01*
X69884D01*
Y118713D01*
X69260D01*
Y119336D01*
X68657D01*
Y119960D01*
X68034D01*
Y120570D01*
D02*
G37*
G36*
X132422Y136318D02*
X129325D01*
Y135708D01*
X128709D01*
Y135084D01*
Y134461D01*
Y133845D01*
Y133221D01*
Y132598D01*
X129325D01*
Y131988D01*
X132422D01*
Y132598D01*
X133045D01*
Y133221D01*
Y133845D01*
Y134461D01*
Y135084D01*
Y135708D01*
X132422D01*
Y136318D01*
D02*
G37*
G36*
X124996Y128444D02*
X123749D01*
Y127834D01*
Y127210D01*
Y126587D01*
Y125971D01*
Y125347D01*
X123133D01*
Y124724D01*
X123749D01*
Y124114D01*
X124996D01*
Y124724D01*
X127469D01*
Y125347D01*
Y125971D01*
X126846D01*
Y126587D01*
X126222D01*
Y127210D01*
X125619D01*
Y127834D01*
X124996D01*
Y128444D01*
D02*
G37*
G36*
X132422D02*
X129325D01*
Y127834D01*
X128709D01*
Y127210D01*
Y126587D01*
Y125971D01*
Y125347D01*
Y124724D01*
X129325D01*
Y124114D01*
X132422D01*
Y124724D01*
X133045D01*
Y125347D01*
Y125971D01*
Y126587D01*
Y127210D01*
Y127834D01*
X132422D01*
Y128444D01*
D02*
G37*
G36*
X75466Y136318D02*
X71130D01*
Y135708D01*
X74220D01*
Y135084D01*
Y134461D01*
X71746D01*
Y133845D01*
X74220D01*
Y133221D01*
Y132598D01*
X71130D01*
Y131988D01*
X75466D01*
Y132598D01*
Y133221D01*
Y133845D01*
Y134461D01*
Y135084D01*
Y135708D01*
Y136318D01*
D02*
G37*
G36*
X69890D02*
X68644D01*
Y135708D01*
X68040D01*
Y135084D01*
X67417D01*
Y134461D01*
X66794D01*
Y135084D01*
Y135708D01*
Y136318D01*
X65554D01*
Y135708D01*
Y135084D01*
Y134461D01*
Y133845D01*
Y133221D01*
Y132598D01*
Y131988D01*
X66794D01*
Y132598D01*
Y133221D01*
X67417D01*
Y133845D01*
X68040D01*
Y134461D01*
X68644D01*
Y133845D01*
Y133221D01*
Y132598D01*
Y131988D01*
X69890D01*
Y132598D01*
Y133221D01*
Y133845D01*
Y134461D01*
Y135084D01*
Y135708D01*
Y136318D01*
D02*
G37*
G36*
X126846Y112696D02*
X123749D01*
Y112086D01*
X123133D01*
Y111462D01*
Y110839D01*
X123749D01*
Y110223D01*
X124372D01*
Y109599D01*
X124996D01*
Y108976D01*
X123133D01*
Y108366D01*
X127469D01*
Y108976D01*
X126846D01*
Y109599D01*
X126222D01*
Y110223D01*
X125619D01*
Y110839D01*
X124996D01*
Y111462D01*
X124372D01*
Y112086D01*
X126222D01*
Y111462D01*
Y110839D01*
X127469D01*
Y111462D01*
Y112086D01*
X126846D01*
Y112696D01*
D02*
G37*
G36*
X119409Y87475D02*
X118792D01*
Y86872D01*
Y86248D01*
Y85625D01*
X119409D01*
Y86248D01*
Y86872D01*
Y87475D01*
D02*
G37*
G36*
X111408D02*
X110792D01*
Y86872D01*
Y86248D01*
Y85625D01*
X111408D01*
Y86248D01*
Y86872D01*
Y87475D01*
D02*
G37*
G36*
X34555Y41751D02*
X33309D01*
Y41141D01*
X32706D01*
Y40518D01*
X32082D01*
Y39894D01*
X31459D01*
Y40518D01*
Y41141D01*
Y41751D01*
X30219D01*
Y41141D01*
Y40518D01*
Y39894D01*
Y39278D01*
Y38655D01*
Y38031D01*
Y37421D01*
X31459D01*
Y38031D01*
Y38655D01*
X32082D01*
Y39278D01*
X32706D01*
Y39894D01*
X33309D01*
Y39278D01*
Y38655D01*
Y38031D01*
Y37421D01*
X34555D01*
Y38031D01*
Y38655D01*
Y39278D01*
Y39894D01*
Y40518D01*
Y41141D01*
Y41751D01*
D02*
G37*
G36*
X87809Y87475D02*
X87192D01*
Y86872D01*
Y86248D01*
Y85625D01*
X87809D01*
Y86248D01*
Y86872D01*
Y87475D01*
D02*
G37*
G36*
X175072Y99343D02*
X173222D01*
Y98727D01*
X175072D01*
Y99343D01*
D02*
G37*
G36*
Y129343D02*
X173222D01*
Y128727D01*
X175072D01*
Y129343D01*
D02*
G37*
G36*
X80009Y87475D02*
X79392D01*
Y86872D01*
Y86248D01*
Y85625D01*
X80009D01*
Y86248D01*
Y86872D01*
Y87475D01*
D02*
G37*
G36*
X38590Y51751D02*
X37363D01*
Y51141D01*
Y50518D01*
Y49894D01*
Y49278D01*
Y48654D01*
Y48031D01*
X36117D01*
Y47421D01*
X39836D01*
Y48031D01*
X38590D01*
Y48654D01*
Y49278D01*
Y49894D01*
Y50518D01*
X39213D01*
Y51141D01*
X38590D01*
Y51751D01*
D02*
G37*
G36*
X169496Y38208D02*
X168250D01*
Y37598D01*
X167646D01*
Y36974D01*
X167023D01*
Y36351D01*
X166400D01*
Y36974D01*
Y37598D01*
Y38208D01*
X165160D01*
Y37598D01*
Y36974D01*
Y36351D01*
Y35734D01*
Y35111D01*
Y34488D01*
Y33878D01*
X166400D01*
Y34488D01*
Y35111D01*
X167023D01*
Y35734D01*
X167646D01*
Y36351D01*
X168250D01*
Y35734D01*
Y35111D01*
Y34488D01*
Y33878D01*
X169496D01*
Y34488D01*
Y35111D01*
Y35734D01*
Y36351D01*
Y36974D01*
Y37598D01*
Y38208D01*
D02*
G37*
G36*
X174449D02*
X171353D01*
Y37598D01*
X170736D01*
Y36974D01*
X171976D01*
Y37598D01*
X173826D01*
Y36974D01*
Y36351D01*
Y35734D01*
Y35111D01*
Y34488D01*
X171976D01*
Y35111D01*
Y35734D01*
X172599D01*
Y36351D01*
X170736D01*
Y35734D01*
Y35111D01*
Y34488D01*
Y33878D01*
X171353D01*
Y34488D01*
X171976D01*
Y33878D01*
X174449D01*
Y34488D01*
X175072D01*
Y35111D01*
Y35734D01*
Y36351D01*
Y36974D01*
Y37598D01*
X174449D01*
Y38208D01*
D02*
G37*
G36*
X29301Y51751D02*
X28054D01*
Y51141D01*
Y50518D01*
Y49894D01*
Y49278D01*
X27451D01*
Y48654D01*
X26828D01*
Y49278D01*
X26204D01*
Y49894D01*
Y50518D01*
Y51141D01*
Y51751D01*
X24965D01*
Y51141D01*
Y50518D01*
Y49894D01*
Y49278D01*
X25581D01*
Y48654D01*
X26204D01*
Y48031D01*
X26828D01*
Y47421D01*
X27451D01*
Y48031D01*
X28054D01*
Y48654D01*
X28678D01*
Y49278D01*
X29301D01*
Y49894D01*
Y50518D01*
Y51141D01*
Y51751D01*
D02*
G37*
G36*
X39508Y41751D02*
X36412D01*
Y41141D01*
X35795D01*
Y40518D01*
X37035D01*
Y41141D01*
X38885D01*
Y40518D01*
Y39894D01*
Y39278D01*
Y38655D01*
Y38031D01*
X37035D01*
Y38655D01*
Y39278D01*
X37658D01*
Y39894D01*
X35795D01*
Y39278D01*
Y38655D01*
Y38031D01*
Y37421D01*
X36412D01*
Y38031D01*
X37035D01*
Y37421D01*
X39508D01*
Y38031D01*
X40131D01*
Y38655D01*
Y39278D01*
Y39894D01*
Y40518D01*
Y41141D01*
X39508D01*
Y41751D01*
D02*
G37*
G36*
X28979D02*
X25883D01*
Y41141D01*
X25260D01*
Y40518D01*
X24643D01*
Y39894D01*
Y39278D01*
Y38655D01*
X25260D01*
Y38031D01*
X25883D01*
Y37421D01*
X28979D01*
Y38031D01*
Y38655D01*
Y39278D01*
Y39894D01*
Y40518D01*
Y41141D01*
Y41751D01*
D02*
G37*
G36*
X34254Y51751D02*
X31157D01*
Y51141D01*
X30541D01*
Y50518D01*
Y49894D01*
X31157D01*
Y49278D01*
X31780D01*
Y48654D01*
X32404D01*
Y48031D01*
X30541D01*
Y47421D01*
X34877D01*
Y48031D01*
X34254D01*
Y48654D01*
X33630D01*
Y49278D01*
X33027D01*
Y49894D01*
X32404D01*
Y50518D01*
X31780D01*
Y51141D01*
X33630D01*
Y50518D01*
Y49894D01*
X34877D01*
Y50518D01*
Y51141D01*
X34254D01*
Y51751D01*
D02*
G37*
G36*
X105275Y33856D02*
X102788D01*
Y33239D01*
X102165D01*
Y32616D01*
X101555D01*
Y31993D01*
Y31369D01*
Y30766D01*
X102165D01*
Y31369D01*
Y31993D01*
X102788D01*
Y32616D01*
X103412D01*
Y31993D01*
Y31369D01*
Y30766D01*
Y30143D01*
X104028D01*
Y29519D01*
X105275D01*
Y30143D01*
X105885D01*
Y30766D01*
Y31369D01*
Y31993D01*
Y32616D01*
Y33239D01*
X105275D01*
Y33856D01*
D02*
G37*
G36*
Y28280D02*
X102165D01*
Y27663D01*
X101555D01*
Y27040D01*
Y26417D01*
Y25793D01*
Y25190D01*
Y24567D01*
X102165D01*
Y23943D01*
X105275D01*
Y24567D01*
X105885D01*
Y25190D01*
Y25793D01*
Y26417D01*
Y27040D01*
Y27663D01*
X105275D01*
Y28280D01*
D02*
G37*
G36*
X95275Y33239D02*
X94028D01*
Y32622D01*
X93412D01*
Y31999D01*
X92788D01*
Y31376D01*
X92165D01*
Y31999D01*
Y32622D01*
Y33239D01*
X91555D01*
Y32622D01*
Y31999D01*
Y31376D01*
Y30753D01*
Y30149D01*
Y29526D01*
Y28903D01*
X92165D01*
Y29526D01*
X92788D01*
Y30149D01*
X93412D01*
Y30753D01*
X94028D01*
Y31376D01*
X94651D01*
Y31999D01*
X95275D01*
Y31376D01*
Y30753D01*
Y30149D01*
X94028D01*
Y29526D01*
Y28903D01*
X95275D01*
Y29526D01*
X95885D01*
Y30149D01*
Y30753D01*
Y31376D01*
Y31999D01*
Y32622D01*
X95275D01*
Y33239D01*
D02*
G37*
G36*
X42953Y27663D02*
X42342D01*
Y27040D01*
Y26417D01*
Y25793D01*
Y25190D01*
Y24567D01*
Y23943D01*
X42953D01*
Y24567D01*
Y25190D01*
X45439D01*
Y24567D01*
X46062D01*
Y25190D01*
X46672D01*
Y25793D01*
Y26417D01*
X42953D01*
Y27040D01*
Y27663D01*
D02*
G37*
G36*
X53576Y33239D02*
X52953D01*
Y32622D01*
X52342D01*
Y31999D01*
Y31376D01*
X52953D01*
Y30753D01*
Y30149D01*
Y29526D01*
Y28903D01*
X54199D01*
Y29526D01*
X54816D01*
Y30149D01*
X55439D01*
Y30753D01*
X56062D01*
Y31376D01*
X56672D01*
Y31999D01*
Y32622D01*
X53576D01*
Y33239D01*
D02*
G37*
G36*
X52953Y27663D02*
X52342D01*
Y27040D01*
Y26417D01*
Y25793D01*
Y25190D01*
Y24567D01*
Y23943D01*
X52953D01*
Y24567D01*
Y25190D01*
X55439D01*
Y24567D01*
X56062D01*
Y25190D01*
X56672D01*
Y25793D01*
Y26417D01*
X52953D01*
Y27040D01*
Y27663D01*
D02*
G37*
G36*
X46062Y33239D02*
X44816D01*
Y32622D01*
X44199D01*
Y33239D01*
X42953D01*
Y32622D01*
X42342D01*
Y31999D01*
Y31376D01*
Y30753D01*
Y30149D01*
Y29526D01*
X42953D01*
Y28903D01*
X43576D01*
Y29526D01*
Y30149D01*
X42953D01*
Y30753D01*
Y31376D01*
Y31999D01*
X44199D01*
Y31376D01*
Y30753D01*
X44816D01*
Y31376D01*
Y31999D01*
X46062D01*
Y31376D01*
Y30753D01*
Y30149D01*
X45439D01*
Y29526D01*
Y28903D01*
X46062D01*
Y29526D01*
X46672D01*
Y30149D01*
Y30753D01*
Y31376D01*
Y31999D01*
Y32622D01*
X46062D01*
Y33239D01*
D02*
G37*
G36*
X154487Y28280D02*
X151378D01*
Y27663D01*
X150768D01*
Y27040D01*
Y26417D01*
Y25793D01*
Y25190D01*
Y24567D01*
X151378D01*
Y23943D01*
X154487D01*
Y24567D01*
X155097D01*
Y25190D01*
Y25793D01*
Y26417D01*
Y27040D01*
Y27663D01*
X154487D01*
Y28280D01*
D02*
G37*
G36*
X175072Y46351D02*
X173222D01*
Y45734D01*
X175072D01*
Y46351D01*
D02*
G37*
G36*
Y89343D02*
X173222D01*
Y88727D01*
X175072D01*
Y89343D01*
D02*
G37*
G36*
X152001Y33856D02*
X151378D01*
Y33239D01*
X150768D01*
Y32616D01*
Y31993D01*
X151378D01*
Y31369D01*
Y30766D01*
Y30143D01*
Y29519D01*
X152624D01*
Y30143D01*
X153241D01*
Y30766D01*
X153864D01*
Y31369D01*
X154487D01*
Y31993D01*
X155097D01*
Y32616D01*
Y33239D01*
X152001D01*
Y33856D01*
D02*
G37*
G36*
X92165Y27663D02*
X91555D01*
Y27040D01*
Y26417D01*
Y25793D01*
Y25190D01*
Y24567D01*
Y23943D01*
X92165D01*
Y24567D01*
Y25190D01*
X94651D01*
Y24567D01*
X95275D01*
Y25190D01*
X95885D01*
Y25793D01*
Y26417D01*
X92165D01*
Y27040D01*
Y27663D01*
D02*
G37*
G36*
X144487Y33239D02*
X141378D01*
Y32622D01*
X140768D01*
Y31999D01*
Y31376D01*
Y30753D01*
Y30149D01*
Y29526D01*
X141378D01*
Y28903D01*
X144487D01*
Y29526D01*
X145097D01*
Y30149D01*
Y30753D01*
Y31376D01*
Y31999D01*
Y32622D01*
X144487D01*
Y33239D01*
D02*
G37*
G36*
X141378Y27663D02*
X140768D01*
Y27040D01*
Y26417D01*
Y25793D01*
Y25190D01*
Y24567D01*
Y23943D01*
X141378D01*
Y24567D01*
Y25190D01*
X143864D01*
Y24567D01*
X144487D01*
Y25190D01*
X145097D01*
Y25793D01*
Y26417D01*
X141378D01*
Y27040D01*
Y27663D01*
D02*
G37*
G36*
X169496Y68208D02*
X168250D01*
Y67598D01*
Y66974D01*
Y66351D01*
Y65734D01*
X167646D01*
Y65111D01*
X167023D01*
Y65734D01*
X166400D01*
Y66351D01*
Y66974D01*
Y67598D01*
Y68208D01*
X165160D01*
Y67598D01*
Y66974D01*
Y66351D01*
Y65734D01*
X165777D01*
Y65111D01*
X166400D01*
Y64488D01*
X167023D01*
Y63878D01*
X167646D01*
Y64488D01*
X168250D01*
Y65111D01*
X168873D01*
Y65734D01*
X169496D01*
Y66351D01*
Y66974D01*
Y67598D01*
Y68208D01*
D02*
G37*
G36*
Y81200D02*
X168250D01*
Y80590D01*
X167646D01*
Y79966D01*
X167023D01*
Y79343D01*
X166400D01*
Y79966D01*
Y80590D01*
Y81200D01*
X165160D01*
Y80590D01*
Y79966D01*
Y79343D01*
Y78727D01*
Y78103D01*
Y77480D01*
Y76870D01*
X166400D01*
Y77480D01*
Y78103D01*
X167023D01*
Y78727D01*
X167646D01*
Y79343D01*
X168250D01*
Y78727D01*
Y78103D01*
Y77480D01*
Y76870D01*
X169496D01*
Y77480D01*
Y78103D01*
Y78727D01*
Y79343D01*
Y79966D01*
Y80590D01*
Y81200D01*
D02*
G37*
G36*
X174449D02*
X171353D01*
Y80590D01*
X170736D01*
Y79966D01*
X171976D01*
Y80590D01*
X173826D01*
Y79966D01*
Y79343D01*
Y78727D01*
Y78103D01*
Y77480D01*
X171976D01*
Y78103D01*
Y78727D01*
X172599D01*
Y79343D01*
X170736D01*
Y78727D01*
Y78103D01*
Y77480D01*
Y76870D01*
X171353D01*
Y77480D01*
X171976D01*
Y76870D01*
X174449D01*
Y77480D01*
X175072D01*
Y78103D01*
Y78727D01*
Y79343D01*
Y79966D01*
Y80590D01*
X174449D01*
Y81200D01*
D02*
G37*
G36*
Y68208D02*
X171353D01*
Y67598D01*
X170736D01*
Y66974D01*
Y66351D01*
X171353D01*
Y65734D01*
X170736D01*
Y65111D01*
Y64488D01*
X171353D01*
Y63878D01*
X174449D01*
Y64488D01*
X175072D01*
Y65111D01*
X173826D01*
Y64488D01*
X171976D01*
Y65111D01*
Y65734D01*
X173222D01*
Y66351D01*
X171976D01*
Y66974D01*
Y67598D01*
X173826D01*
Y66974D01*
X175072D01*
Y67598D01*
X174449D01*
Y68208D01*
D02*
G37*
G36*
X163297D02*
X160201D01*
Y67598D01*
X159584D01*
Y66974D01*
Y66351D01*
X160201D01*
Y65734D01*
X159584D01*
Y65111D01*
Y64488D01*
X160201D01*
Y63878D01*
X163297D01*
Y64488D01*
X163920D01*
Y65111D01*
X162674D01*
Y64488D01*
X160824D01*
Y65111D01*
Y65734D01*
X162070D01*
Y66351D01*
X160824D01*
Y66974D01*
Y67598D01*
X162674D01*
Y66974D01*
X163920D01*
Y67598D01*
X163297D01*
Y68208D01*
D02*
G37*
G36*
X163927Y66351D02*
X163920D01*
Y65734D01*
X163927D01*
Y66351D01*
D02*
G37*
G36*
X170113Y121200D02*
X168867D01*
Y120590D01*
X168263D01*
Y119966D01*
X167640D01*
Y120590D01*
X167017D01*
Y121200D01*
X165777D01*
Y120590D01*
Y119966D01*
X166393D01*
Y119343D01*
X167017D01*
Y118727D01*
X166393D01*
Y118103D01*
X165777D01*
Y117480D01*
Y116870D01*
X167017D01*
Y117480D01*
X167640D01*
Y118103D01*
X168263D01*
Y117480D01*
X168867D01*
Y116870D01*
X170113D01*
Y117480D01*
Y118103D01*
X169490D01*
Y118727D01*
X168867D01*
Y119343D01*
X169490D01*
Y119966D01*
X170113D01*
Y120590D01*
Y121200D01*
D02*
G37*
G36*
X175072Y111200D02*
X171353D01*
Y110590D01*
X170736D01*
Y109966D01*
Y109343D01*
X171353D01*
Y108727D01*
X170736D01*
Y108103D01*
Y107480D01*
Y106870D01*
X171976D01*
Y107480D01*
Y108103D01*
Y108727D01*
X173826D01*
Y108103D01*
Y107480D01*
Y106870D01*
X175072D01*
Y107480D01*
Y108103D01*
Y108727D01*
Y109343D01*
Y109966D01*
Y110590D01*
Y111200D01*
D02*
G37*
G36*
X169503Y109343D02*
X169496D01*
Y108727D01*
X169503D01*
Y109343D01*
D02*
G37*
G36*
X175072Y121200D02*
X171353D01*
Y120590D01*
X172599D01*
Y119966D01*
Y119343D01*
Y118727D01*
Y118103D01*
Y117480D01*
Y116870D01*
X173826D01*
Y117480D01*
Y118103D01*
Y118727D01*
Y119343D01*
Y119966D01*
Y120590D01*
X175072D01*
Y121200D01*
D02*
G37*
G36*
X163920Y81200D02*
X160824D01*
Y80590D01*
X160201D01*
Y79966D01*
X159584D01*
Y79343D01*
Y78727D01*
Y78103D01*
X160201D01*
Y77480D01*
X160824D01*
Y76870D01*
X163920D01*
Y77480D01*
Y78103D01*
Y78727D01*
Y79343D01*
Y79966D01*
Y80590D01*
Y81200D01*
D02*
G37*
G36*
X169496Y111200D02*
X168250D01*
Y110590D01*
X167646D01*
Y109966D01*
X167023D01*
Y110590D01*
X166400D01*
Y111200D01*
X165160D01*
Y110590D01*
Y109966D01*
X165777D01*
Y109343D01*
X166400D01*
Y108727D01*
X165777D01*
Y108103D01*
X165160D01*
Y107480D01*
Y106870D01*
X166400D01*
Y107480D01*
X167023D01*
Y108103D01*
X167646D01*
Y107480D01*
X168250D01*
Y106870D01*
X169496D01*
Y107480D01*
Y108103D01*
X168873D01*
Y108727D01*
X168250D01*
Y109343D01*
X168873D01*
Y109966D01*
X169496D01*
Y110590D01*
Y111200D01*
D02*
G37*
G36*
X174449Y58208D02*
X171353D01*
Y57598D01*
X170736D01*
Y56974D01*
Y56351D01*
Y55734D01*
Y55111D01*
Y54488D01*
X171353D01*
Y53878D01*
X174449D01*
Y54488D01*
X175072D01*
Y55111D01*
Y55734D01*
Y56351D01*
Y56974D01*
Y57598D01*
X174449D01*
Y58208D01*
D02*
G37*
G36*
X96855Y95538D02*
X94369D01*
Y94921D01*
X93745D01*
Y94298D01*
X93135D01*
Y93674D01*
Y93051D01*
Y92448D01*
X93745D01*
Y93051D01*
Y93674D01*
X94369D01*
Y94298D01*
X94992D01*
Y93674D01*
Y93051D01*
Y92448D01*
Y91825D01*
X95609D01*
Y91201D01*
X96855D01*
Y91825D01*
X97465D01*
Y92448D01*
Y93051D01*
Y93674D01*
Y94298D01*
Y94921D01*
X96855D01*
Y95538D01*
D02*
G37*
G36*
X163920Y38208D02*
X160824D01*
Y37598D01*
X160201D01*
Y36974D01*
X159584D01*
Y36351D01*
Y35734D01*
Y35111D01*
X160201D01*
Y34488D01*
X160824D01*
Y33878D01*
X163920D01*
Y34488D01*
Y35111D01*
Y35734D01*
Y36351D01*
Y36974D01*
Y37598D01*
Y38208D01*
D02*
G37*
G36*
X169496Y58208D02*
X165160D01*
Y57598D01*
X168250D01*
Y56974D01*
X165777D01*
Y56351D01*
X165160D01*
Y55734D01*
Y55111D01*
Y54488D01*
X165777D01*
Y53878D01*
X168873D01*
Y54488D01*
X169496D01*
Y55111D01*
X168250D01*
Y54488D01*
X166400D01*
Y55111D01*
Y55734D01*
Y56351D01*
X169496D01*
Y56974D01*
Y57598D01*
Y58208D01*
D02*
G37*
%LPD*%
G36*
X144487Y31376D02*
Y30753D01*
Y30149D01*
X142624D01*
Y30753D01*
X142001D01*
Y30149D01*
X141378D01*
Y30753D01*
Y31376D01*
Y31999D01*
X143241D01*
Y31376D01*
X143864D01*
Y31999D01*
X144487D01*
Y31376D01*
D02*
G37*
G36*
X131798Y127210D02*
Y126587D01*
Y125971D01*
X131195D01*
Y126587D01*
X130572D01*
Y127210D01*
X129948D01*
Y127834D01*
X131798D01*
Y127210D01*
D02*
G37*
G36*
X125619Y125971D02*
X126222D01*
Y125347D01*
X124996D01*
Y125971D01*
Y126587D01*
X125619D01*
Y125971D01*
D02*
G37*
G36*
X130572Y133845D02*
X131195D01*
Y133221D01*
X131798D01*
Y132598D01*
X129948D01*
Y133221D01*
Y133845D01*
Y134461D01*
X130572D01*
Y133845D01*
D02*
G37*
G36*
Y118097D02*
X131195D01*
Y117473D01*
X131798D01*
Y116850D01*
X129948D01*
Y117473D01*
Y118097D01*
Y118713D01*
X130572D01*
Y118097D01*
D02*
G37*
G36*
X124996D02*
X125619D01*
Y117473D01*
X126222D01*
Y116850D01*
X124372D01*
Y117473D01*
Y118097D01*
Y118713D01*
X124996D01*
Y118097D01*
D02*
G37*
G36*
X54816Y30753D02*
X54199D01*
Y30149D01*
X53576D01*
Y30753D01*
Y31376D01*
X54816D01*
Y30753D01*
D02*
G37*
G36*
X130572Y125971D02*
X131195D01*
Y125347D01*
X131798D01*
Y124724D01*
X129948D01*
Y125347D01*
Y125971D01*
Y126587D01*
X130572D01*
Y125971D01*
D02*
G37*
G36*
X105275Y31993D02*
Y31369D01*
Y30766D01*
X104028D01*
Y31369D01*
Y31993D01*
Y32616D01*
X105275D01*
Y31993D01*
D02*
G37*
G36*
X131798Y135084D02*
Y134461D01*
Y133845D01*
X131195D01*
Y134461D01*
X130572D01*
Y135084D01*
X129948D01*
Y135708D01*
X131798D01*
Y135084D01*
D02*
G37*
G36*
X104855Y93058D02*
Y92435D01*
Y91831D01*
X102992D01*
Y92435D01*
X102369D01*
Y91831D01*
X101745D01*
Y92435D01*
Y93058D01*
Y93681D01*
X103609D01*
Y93058D01*
X104232D01*
Y93681D01*
X104855D01*
Y93058D01*
D02*
G37*
G36*
X131798Y142958D02*
Y142335D01*
X129948D01*
Y142958D01*
Y143582D01*
X131798D01*
Y142958D01*
D02*
G37*
G36*
X96855Y88099D02*
Y87475D01*
Y86872D01*
X94992D01*
Y87475D01*
X94369D01*
Y86872D01*
X93745D01*
Y87475D01*
Y88099D01*
Y88722D01*
X95609D01*
Y88099D01*
X96232D01*
Y88722D01*
X96855D01*
Y88099D01*
D02*
G37*
G36*
X105275Y26417D02*
Y25793D01*
Y25190D01*
X103412D01*
Y25793D01*
X102788D01*
Y25190D01*
X102165D01*
Y25793D01*
Y26417D01*
Y27040D01*
X104028D01*
Y26417D01*
X104651D01*
Y27040D01*
X105275D01*
Y26417D01*
D02*
G37*
G36*
X96855Y93674D02*
Y93051D01*
Y92448D01*
X95609D01*
Y93051D01*
Y93674D01*
Y94298D01*
X96855D01*
Y93674D01*
D02*
G37*
G36*
X27733Y40518D02*
Y39894D01*
Y39278D01*
Y38655D01*
Y38031D01*
X26506D01*
Y38655D01*
X25883D01*
Y39278D01*
Y39894D01*
Y40518D01*
X26506D01*
Y41141D01*
X27733D01*
Y40518D01*
D02*
G37*
G36*
X172599Y55734D02*
X173222D01*
Y55111D01*
X173826D01*
Y54488D01*
X171976D01*
Y55111D01*
Y55734D01*
Y56351D01*
X172599D01*
Y55734D01*
D02*
G37*
G36*
X79141Y150832D02*
Y150209D01*
X77291D01*
Y150832D01*
Y151456D01*
X79141D01*
Y150832D01*
D02*
G37*
G36*
X120646Y95714D02*
Y95091D01*
Y94475D01*
Y93851D01*
Y93228D01*
X119420D01*
Y93851D01*
X118797D01*
Y94475D01*
Y95091D01*
Y95714D01*
X119420D01*
Y96338D01*
X120646D01*
Y95714D01*
D02*
G37*
G36*
X68657Y118097D02*
X69260D01*
Y117473D01*
X68034D01*
Y118097D01*
Y118713D01*
X68657D01*
Y118097D01*
D02*
G37*
G36*
X69260Y125347D02*
Y124724D01*
X67410D01*
Y125347D01*
Y125971D01*
X69260D01*
Y125347D01*
D02*
G37*
G36*
X162674Y36974D02*
Y36351D01*
Y35734D01*
Y35111D01*
Y34488D01*
X161447D01*
Y35111D01*
X160824D01*
Y35734D01*
Y36351D01*
Y36974D01*
X161447D01*
Y37598D01*
X162674D01*
Y36974D01*
D02*
G37*
G36*
X173826Y56974D02*
Y56351D01*
Y55734D01*
X173222D01*
Y56351D01*
X172599D01*
Y56974D01*
X171976D01*
Y57598D01*
X173826D01*
Y56974D01*
D02*
G37*
G36*
X73565Y142958D02*
Y142335D01*
Y141719D01*
Y141095D01*
Y140472D01*
X72338D01*
Y141095D01*
X71715D01*
Y141719D01*
Y142335D01*
Y142958D01*
X72338D01*
Y143582D01*
X73565D01*
Y142958D01*
D02*
G37*
G36*
X79141D02*
Y142335D01*
Y141719D01*
X77291D01*
Y142335D01*
Y142958D01*
Y143582D01*
X79141D01*
Y142958D01*
D02*
G37*
G36*
X130572Y110223D02*
X131195D01*
Y109599D01*
X131798D01*
Y108976D01*
X129948D01*
Y109599D01*
Y110223D01*
Y110839D01*
X130572D01*
Y110223D01*
D02*
G37*
G36*
X173826Y109966D02*
Y109343D01*
X171976D01*
Y109966D01*
Y110590D01*
X173826D01*
Y109966D01*
D02*
G37*
G36*
X153241Y31369D02*
X152624D01*
Y30766D01*
X152001D01*
Y31369D01*
Y31993D01*
X153241D01*
Y31369D01*
D02*
G37*
G36*
X126222Y119336D02*
Y118713D01*
Y118097D01*
X125619D01*
Y118713D01*
X124996D01*
Y119336D01*
X124372D01*
Y119960D01*
X126222D01*
Y119336D01*
D02*
G37*
G36*
X131798D02*
Y118713D01*
Y118097D01*
X131195D01*
Y118713D01*
X130572D01*
Y119336D01*
X129948D01*
Y119960D01*
X131798D01*
Y119336D01*
D02*
G37*
G36*
Y111462D02*
Y110839D01*
Y110223D01*
X131195D01*
Y110839D01*
X130572D01*
Y111462D01*
X129948D01*
Y112086D01*
X131798D01*
Y111462D01*
D02*
G37*
G36*
X162674Y79966D02*
Y79343D01*
Y78727D01*
Y78103D01*
Y77480D01*
X161447D01*
Y78103D01*
X160824D01*
Y78727D01*
Y79343D01*
Y79966D01*
X161447D01*
Y80590D01*
X162674D01*
Y79966D01*
D02*
G37*
G36*
X154487Y26417D02*
Y25793D01*
Y25190D01*
X152624D01*
Y25793D01*
X152001D01*
Y25190D01*
X151378D01*
Y25793D01*
Y26417D01*
Y27040D01*
X153241D01*
Y26417D01*
X153864D01*
Y27040D01*
X154487D01*
Y26417D01*
D02*
G37*
%LPC*%
G36*
X95609Y88099D02*
X94992D01*
Y87475D01*
X95609D01*
Y88099D01*
D02*
G37*
G36*
X103609Y93058D02*
X102992D01*
Y92435D01*
X103609D01*
Y93058D01*
D02*
G37*
G36*
X104028Y26417D02*
X103412D01*
Y25793D01*
X104028D01*
Y26417D01*
D02*
G37*
G36*
X143241Y31376D02*
X142624D01*
Y30753D01*
X143241D01*
Y31376D01*
D02*
G37*
G36*
X153241Y26417D02*
X152624D01*
Y25793D01*
X153241D01*
Y26417D01*
D02*
G37*
%LPD*%
G36*
X1121080Y-64032D02*
Y-64318D01*
Y-64605D01*
Y-64891D01*
Y-65177D01*
Y-65464D01*
Y-65750D01*
Y-66036D01*
Y-66322D01*
Y-66609D01*
Y-66895D01*
Y-67181D01*
Y-67468D01*
Y-67754D01*
Y-68040D01*
Y-68327D01*
Y-68613D01*
Y-68899D01*
Y-69186D01*
Y-69472D01*
Y-69758D01*
X1120793D01*
Y-70044D01*
Y-70331D01*
Y-70617D01*
Y-70903D01*
Y-71190D01*
X1120507D01*
Y-71476D01*
Y-71762D01*
Y-72049D01*
Y-72335D01*
X1120221D01*
Y-72621D01*
Y-72908D01*
Y-73194D01*
Y-73480D01*
X1119934D01*
Y-73767D01*
Y-74053D01*
Y-74339D01*
X1119648D01*
Y-74625D01*
Y-74912D01*
Y-75198D01*
X1119362D01*
Y-75485D01*
Y-75771D01*
Y-76057D01*
X1119075D01*
Y-76343D01*
Y-76630D01*
Y-76916D01*
X1118789D01*
Y-77202D01*
Y-77489D01*
X1118503D01*
Y-77775D01*
Y-78061D01*
X1118217D01*
Y-78348D01*
Y-78634D01*
Y-78920D01*
X1117930D01*
Y-79207D01*
Y-79493D01*
X1117644D01*
Y-79779D01*
Y-80066D01*
Y-80352D01*
X1117358D01*
Y-80638D01*
Y-80924D01*
X1117071D01*
Y-81211D01*
Y-81497D01*
Y-81783D01*
X1116785D01*
Y-82070D01*
Y-82356D01*
X1116499D01*
Y-82642D01*
Y-82929D01*
Y-83215D01*
X1116212D01*
Y-83501D01*
Y-83788D01*
X1115926D01*
Y-84074D01*
Y-84360D01*
Y-84646D01*
X1115640D01*
Y-84933D01*
Y-85219D01*
X1115353D01*
Y-85505D01*
Y-85792D01*
Y-86078D01*
X1115067D01*
Y-86364D01*
Y-86651D01*
X1114781D01*
Y-86937D01*
Y-87223D01*
Y-87510D01*
X1114494D01*
Y-87796D01*
Y-88082D01*
X1114208D01*
Y-88369D01*
Y-88655D01*
Y-88941D01*
X1113922D01*
Y-89227D01*
Y-89514D01*
X1113636D01*
Y-89800D01*
Y-90086D01*
Y-90373D01*
X1113349D01*
Y-90659D01*
Y-90945D01*
X1113063D01*
Y-91232D01*
Y-91518D01*
Y-91804D01*
X1112776D01*
Y-92091D01*
Y-92377D01*
X1112490D01*
Y-92663D01*
Y-92950D01*
Y-93236D01*
X1112204D01*
Y-93522D01*
Y-93809D01*
X1111918D01*
Y-94095D01*
Y-94381D01*
Y-94667D01*
X1111631D01*
Y-94954D01*
Y-95240D01*
X1111345D01*
Y-95526D01*
Y-95813D01*
Y-96099D01*
X1111059D01*
Y-96385D01*
Y-96672D01*
X1110772D01*
Y-96958D01*
Y-97244D01*
Y-97531D01*
X1110486D01*
Y-97817D01*
Y-98103D01*
X1110200D01*
Y-98390D01*
Y-98676D01*
Y-98962D01*
X1109913D01*
Y-99248D01*
Y-99535D01*
X1109627D01*
Y-99821D01*
Y-100107D01*
Y-100394D01*
X1109341D01*
Y-100680D01*
Y-100966D01*
X1109054D01*
Y-101253D01*
Y-101539D01*
X1108768D01*
Y-101825D01*
Y-102112D01*
X1108482D01*
Y-102398D01*
Y-102684D01*
Y-102971D01*
X1108195D01*
Y-103257D01*
X1107909D01*
Y-103543D01*
Y-103829D01*
Y-104116D01*
X1107623D01*
Y-104402D01*
X1107337D01*
Y-104688D01*
Y-104975D01*
X1107050D01*
Y-105261D01*
Y-105547D01*
X1106764D01*
Y-105834D01*
Y-106120D01*
X1106478D01*
Y-106406D01*
Y-106693D01*
X1106191D01*
Y-106979D01*
X1105905D01*
Y-107265D01*
Y-107552D01*
X1105619D01*
Y-107838D01*
Y-108124D01*
X1105332D01*
Y-108411D01*
X1105046D01*
Y-108697D01*
X1104760D01*
Y-108983D01*
Y-109269D01*
X1104473D01*
Y-109556D01*
X1104187D01*
Y-109842D01*
Y-110128D01*
X1103901D01*
Y-110415D01*
X1103615D01*
Y-110701D01*
X1103328D01*
Y-110987D01*
Y-111274D01*
X1103042D01*
Y-111560D01*
X1102756D01*
Y-111846D01*
X1102469D01*
Y-112133D01*
X1102183D01*
Y-112419D01*
X1101897D01*
Y-112705D01*
Y-112991D01*
X1101610D01*
Y-113278D01*
X1101324D01*
Y-113564D01*
X1101038D01*
Y-113850D01*
X1100751D01*
Y-114137D01*
X1100465D01*
Y-114423D01*
X1100179D01*
Y-114709D01*
X1099892D01*
Y-114996D01*
X1099320D01*
Y-115282D01*
X1099034D01*
Y-115568D01*
X1098747D01*
Y-115855D01*
X1098461D01*
Y-116141D01*
X1098175D01*
Y-116427D01*
X1097602D01*
Y-116714D01*
X1097316D01*
Y-117000D01*
X1096743D01*
Y-117286D01*
X1096457D01*
Y-117572D01*
X1095884D01*
Y-117859D01*
X1095598D01*
Y-118145D01*
X1095025D01*
Y-118431D01*
X1094452D01*
Y-118718D01*
X1093880D01*
Y-119004D01*
X1093307D01*
Y-119290D01*
X1092735D01*
Y-119577D01*
X1091876D01*
Y-119863D01*
X1091303D01*
Y-120149D01*
X1090444D01*
Y-120436D01*
X1089299D01*
Y-120722D01*
X1088154D01*
Y-121008D01*
X1086436D01*
Y-121294D01*
X1084432D01*
Y-121581D01*
X1084145D01*
Y-121294D01*
Y-121008D01*
Y-120722D01*
Y-120436D01*
Y-120149D01*
Y-119863D01*
Y-119577D01*
Y-119290D01*
Y-119004D01*
Y-118718D01*
Y-118431D01*
Y-118145D01*
Y-117859D01*
Y-117572D01*
Y-117286D01*
Y-117000D01*
Y-116714D01*
Y-116427D01*
Y-116141D01*
Y-115855D01*
Y-115568D01*
Y-115282D01*
Y-114996D01*
Y-114709D01*
Y-114423D01*
Y-114137D01*
Y-113850D01*
Y-113564D01*
Y-113278D01*
Y-112991D01*
Y-112705D01*
Y-112419D01*
Y-112133D01*
X1084718D01*
Y-111846D01*
X1085291D01*
Y-111560D01*
X1085863D01*
Y-111274D01*
X1086436D01*
Y-110987D01*
X1087008D01*
Y-110701D01*
X1087581D01*
Y-110415D01*
X1087867D01*
Y-110128D01*
X1088440D01*
Y-109842D01*
X1088726D01*
Y-109556D01*
X1089299D01*
Y-109269D01*
X1089585D01*
Y-108983D01*
X1089872D01*
Y-108697D01*
X1090444D01*
Y-108411D01*
X1090730D01*
Y-108124D01*
X1091017D01*
Y-107838D01*
X1091303D01*
Y-107552D01*
X1091589D01*
Y-107265D01*
X1091876D01*
Y-106979D01*
X1092162D01*
Y-106693D01*
X1092448D01*
Y-106406D01*
X1092735D01*
Y-106120D01*
X1093021D01*
Y-105834D01*
X1093307D01*
Y-105547D01*
X1093594D01*
Y-105261D01*
Y-104975D01*
X1093880D01*
Y-104688D01*
X1094166D01*
Y-104402D01*
X1094452D01*
Y-104116D01*
Y-103829D01*
X1094739D01*
Y-103543D01*
X1095025D01*
Y-103257D01*
Y-102971D01*
X1095311D01*
Y-102684D01*
Y-102398D01*
X1095598D01*
Y-102112D01*
X1095884D01*
Y-101825D01*
Y-101539D01*
X1096170D01*
Y-101253D01*
Y-100966D01*
X1096457D01*
Y-100680D01*
Y-100394D01*
X1094739D01*
Y-100107D01*
X1092735D01*
Y-99821D01*
X1091589D01*
Y-99535D01*
X1091017D01*
Y-99248D01*
X1090158D01*
Y-98962D01*
X1089585D01*
Y-98676D01*
X1089299D01*
Y-98390D01*
X1088726D01*
Y-98103D01*
X1088440D01*
Y-97817D01*
X1088154D01*
Y-97531D01*
X1087867D01*
Y-97244D01*
X1087581D01*
Y-96958D01*
X1087295D01*
Y-96672D01*
Y-96385D01*
X1087008D01*
Y-96099D01*
X1086722D01*
Y-95813D01*
Y-95526D01*
X1086436D01*
Y-95240D01*
Y-94954D01*
X1086149D01*
Y-94667D01*
Y-94381D01*
X1085863D01*
Y-94095D01*
Y-93809D01*
Y-93522D01*
X1085577D01*
Y-93236D01*
Y-92950D01*
Y-92663D01*
Y-92377D01*
X1085291D01*
Y-92091D01*
Y-91804D01*
Y-91518D01*
Y-91232D01*
Y-90945D01*
Y-90659D01*
Y-90373D01*
X1085004D01*
Y-90086D01*
Y-89800D01*
Y-89514D01*
Y-89227D01*
Y-88941D01*
Y-88655D01*
Y-88369D01*
Y-88082D01*
Y-87796D01*
Y-87510D01*
Y-87223D01*
Y-86937D01*
Y-86651D01*
Y-86364D01*
Y-86078D01*
X1084718D01*
Y-85792D01*
Y-85505D01*
Y-85219D01*
Y-84933D01*
Y-84646D01*
Y-84360D01*
Y-84074D01*
Y-83788D01*
Y-83501D01*
Y-83215D01*
Y-82929D01*
Y-82642D01*
Y-82356D01*
Y-82070D01*
Y-81783D01*
X1084432D01*
Y-81497D01*
Y-81211D01*
Y-80924D01*
Y-80638D01*
Y-80352D01*
Y-80066D01*
Y-79779D01*
Y-79493D01*
Y-79207D01*
Y-78920D01*
Y-78634D01*
Y-78348D01*
Y-78061D01*
Y-77775D01*
Y-77489D01*
Y-77202D01*
X1084145D01*
Y-76916D01*
Y-76630D01*
Y-76343D01*
Y-76057D01*
Y-75771D01*
Y-75485D01*
Y-75198D01*
Y-74912D01*
Y-74625D01*
Y-74339D01*
Y-74053D01*
Y-73767D01*
Y-73480D01*
Y-73194D01*
Y-72908D01*
Y-72621D01*
X1083859D01*
Y-72335D01*
Y-72049D01*
Y-71762D01*
Y-71476D01*
Y-71190D01*
Y-70903D01*
Y-70617D01*
Y-70331D01*
Y-70044D01*
Y-69758D01*
Y-69472D01*
Y-69186D01*
Y-68899D01*
Y-68613D01*
X1083573D01*
Y-68327D01*
Y-68040D01*
Y-67754D01*
Y-67468D01*
Y-67181D01*
Y-66895D01*
Y-66609D01*
Y-66322D01*
Y-66036D01*
Y-65750D01*
Y-65464D01*
Y-65177D01*
Y-64891D01*
Y-64605D01*
Y-64318D01*
Y-64032D01*
X1083286D01*
Y-63746D01*
X1097029D01*
Y-64032D01*
Y-64318D01*
Y-64605D01*
Y-64891D01*
Y-65177D01*
Y-65464D01*
Y-65750D01*
Y-66036D01*
Y-66322D01*
Y-66609D01*
Y-66895D01*
Y-67181D01*
Y-67468D01*
Y-67754D01*
X1097316D01*
Y-68040D01*
Y-68327D01*
Y-68613D01*
Y-68899D01*
Y-69186D01*
Y-69472D01*
Y-69758D01*
Y-70044D01*
Y-70331D01*
Y-70617D01*
Y-70903D01*
Y-71190D01*
Y-71476D01*
Y-71762D01*
Y-72049D01*
Y-72335D01*
Y-72621D01*
Y-72908D01*
Y-73194D01*
Y-73480D01*
Y-73767D01*
Y-74053D01*
Y-74339D01*
Y-74625D01*
Y-74912D01*
Y-75198D01*
Y-75485D01*
Y-75771D01*
Y-76057D01*
Y-76343D01*
Y-76630D01*
Y-76916D01*
Y-77202D01*
Y-77489D01*
Y-77775D01*
Y-78061D01*
Y-78348D01*
Y-78634D01*
Y-78920D01*
Y-79207D01*
Y-79493D01*
X1097602D01*
Y-79779D01*
X1097316D01*
Y-80066D01*
Y-80352D01*
X1097602D01*
Y-80638D01*
Y-80924D01*
Y-81211D01*
Y-81497D01*
Y-81783D01*
Y-82070D01*
Y-82356D01*
Y-82642D01*
Y-82929D01*
Y-83215D01*
Y-83501D01*
Y-83788D01*
Y-84074D01*
Y-84360D01*
Y-84646D01*
Y-84933D01*
Y-85219D01*
Y-85505D01*
Y-85792D01*
Y-86078D01*
Y-86364D01*
Y-86651D01*
Y-86937D01*
Y-87223D01*
Y-87510D01*
Y-87796D01*
X1097888D01*
Y-88082D01*
Y-88369D01*
Y-88655D01*
X1098175D01*
Y-88941D01*
X1098461D01*
Y-89227D01*
X1098747D01*
Y-89514D01*
X1099606D01*
Y-89800D01*
X1100465D01*
Y-89514D01*
X1100751D01*
Y-89227D01*
Y-88941D01*
Y-88655D01*
X1101038D01*
Y-88369D01*
Y-88082D01*
X1101324D01*
Y-87796D01*
Y-87510D01*
Y-87223D01*
X1101610D01*
Y-86937D01*
Y-86651D01*
Y-86364D01*
X1101897D01*
Y-86078D01*
Y-85792D01*
Y-85505D01*
X1102183D01*
Y-85219D01*
Y-84933D01*
Y-84646D01*
X1102469D01*
Y-84360D01*
Y-84074D01*
X1102756D01*
Y-83788D01*
Y-83501D01*
Y-83215D01*
X1103042D01*
Y-82929D01*
Y-82642D01*
Y-82356D01*
X1103328D01*
Y-82070D01*
Y-81783D01*
Y-81497D01*
X1103615D01*
Y-81211D01*
Y-80924D01*
X1103901D01*
Y-80638D01*
Y-80352D01*
Y-80066D01*
X1104187D01*
Y-79779D01*
Y-79493D01*
Y-79207D01*
X1104473D01*
Y-78920D01*
Y-78634D01*
Y-78348D01*
X1104760D01*
Y-78061D01*
Y-77775D01*
X1105046D01*
Y-77489D01*
Y-77202D01*
Y-76916D01*
X1105332D01*
Y-76630D01*
Y-76343D01*
Y-76057D01*
X1105619D01*
Y-75771D01*
Y-75485D01*
Y-75198D01*
X1105905D01*
Y-74912D01*
Y-74625D01*
X1106191D01*
Y-74339D01*
Y-74053D01*
Y-73767D01*
X1106478D01*
Y-73480D01*
Y-73194D01*
Y-72908D01*
X1106764D01*
Y-72621D01*
Y-72335D01*
Y-72049D01*
X1107050D01*
Y-71762D01*
Y-71476D01*
Y-71190D01*
Y-70903D01*
X1107337D01*
Y-70617D01*
Y-70331D01*
Y-70044D01*
Y-69758D01*
X1107623D01*
Y-69472D01*
Y-69186D01*
Y-68899D01*
Y-68613D01*
Y-68327D01*
X1107909D01*
Y-68040D01*
Y-67754D01*
Y-67468D01*
Y-67181D01*
Y-66895D01*
Y-66609D01*
X1108195D01*
Y-66322D01*
Y-66036D01*
Y-65750D01*
Y-65464D01*
Y-65177D01*
Y-64891D01*
Y-64605D01*
Y-64318D01*
Y-64032D01*
Y-63746D01*
X1121080D01*
Y-64032D01*
D02*
G37*
G36*
X1063244Y-46567D02*
Y-46853D01*
X1062958D01*
Y-47139D01*
Y-47426D01*
Y-47712D01*
Y-47998D01*
Y-48285D01*
Y-48571D01*
X1062672D01*
Y-48857D01*
Y-49144D01*
Y-49430D01*
Y-49716D01*
Y-50003D01*
Y-50289D01*
X1062385D01*
Y-50575D01*
Y-50862D01*
Y-51148D01*
Y-51434D01*
Y-51720D01*
Y-52007D01*
Y-52293D01*
X1062099D01*
Y-52579D01*
Y-52866D01*
Y-53152D01*
Y-53438D01*
Y-53725D01*
Y-54011D01*
X1061813D01*
Y-54297D01*
Y-54584D01*
Y-54870D01*
Y-55156D01*
Y-55443D01*
Y-55729D01*
X1061526D01*
Y-56015D01*
Y-56301D01*
Y-56588D01*
Y-56874D01*
Y-57161D01*
Y-57447D01*
Y-57733D01*
X1061240D01*
Y-58019D01*
Y-58306D01*
Y-58592D01*
Y-58878D01*
Y-59165D01*
Y-59451D01*
X1060954D01*
Y-59737D01*
Y-60024D01*
Y-60310D01*
Y-60596D01*
Y-60883D01*
Y-61169D01*
X1060668D01*
Y-61455D01*
Y-61742D01*
Y-62028D01*
Y-62314D01*
Y-62600D01*
Y-62887D01*
X1060381D01*
Y-63173D01*
Y-63459D01*
Y-63746D01*
Y-64032D01*
Y-64318D01*
Y-64605D01*
Y-64891D01*
X1060095D01*
Y-65177D01*
Y-65464D01*
Y-65750D01*
Y-66036D01*
Y-66322D01*
Y-66609D01*
X1059809D01*
Y-66895D01*
Y-67181D01*
X1060381D01*
Y-66895D01*
X1060668D01*
Y-66609D01*
X1060954D01*
Y-66322D01*
X1061526D01*
Y-66036D01*
X1061813D01*
Y-65750D01*
X1062099D01*
Y-65464D01*
X1062672D01*
Y-65177D01*
X1063244D01*
Y-64891D01*
X1063531D01*
Y-64605D01*
X1064103D01*
Y-64318D01*
X1064962D01*
Y-64032D01*
X1065535D01*
Y-63746D01*
X1066394D01*
Y-63459D01*
X1067825D01*
Y-63173D01*
X1074124D01*
Y-63459D01*
X1075270D01*
Y-63746D01*
X1076128D01*
Y-64032D01*
X1076701D01*
Y-64318D01*
X1076987D01*
Y-64605D01*
X1077560D01*
Y-64891D01*
X1077846D01*
Y-65177D01*
X1078133D01*
Y-65464D01*
X1078419D01*
Y-65750D01*
X1078705D01*
Y-66036D01*
Y-66322D01*
X1078992D01*
Y-66609D01*
Y-66895D01*
X1079278D01*
Y-67181D01*
Y-67468D01*
Y-67754D01*
X1079564D01*
Y-68040D01*
Y-68327D01*
Y-68613D01*
Y-68899D01*
X1079850D01*
Y-69186D01*
Y-69472D01*
Y-69758D01*
Y-70044D01*
Y-70331D01*
Y-70617D01*
Y-70903D01*
Y-71190D01*
Y-71476D01*
Y-71762D01*
Y-72049D01*
Y-72335D01*
Y-72621D01*
Y-72908D01*
Y-73194D01*
Y-73480D01*
Y-73767D01*
Y-74053D01*
X1079564D01*
Y-74339D01*
Y-74625D01*
Y-74912D01*
Y-75198D01*
Y-75485D01*
Y-75771D01*
Y-76057D01*
X1079278D01*
Y-76343D01*
Y-76630D01*
Y-76916D01*
Y-77202D01*
Y-77489D01*
Y-77775D01*
Y-78061D01*
X1078992D01*
Y-78348D01*
Y-78634D01*
Y-78920D01*
Y-79207D01*
Y-79493D01*
Y-79779D01*
X1078705D01*
Y-80066D01*
Y-80352D01*
Y-80638D01*
Y-80924D01*
Y-81211D01*
Y-81497D01*
X1078419D01*
Y-81783D01*
Y-82070D01*
Y-82356D01*
Y-82642D01*
Y-82929D01*
Y-83215D01*
X1078133D01*
Y-83501D01*
Y-83788D01*
Y-84074D01*
Y-84360D01*
Y-84646D01*
Y-84933D01*
Y-85219D01*
X1077846D01*
Y-85505D01*
Y-85792D01*
Y-86078D01*
Y-86364D01*
Y-86651D01*
Y-86937D01*
X1077560D01*
Y-87223D01*
Y-87510D01*
Y-87796D01*
Y-88082D01*
Y-88369D01*
Y-88655D01*
X1077274D01*
Y-88941D01*
Y-89227D01*
Y-89514D01*
Y-89800D01*
Y-90086D01*
Y-90373D01*
Y-90659D01*
X1076987D01*
Y-90945D01*
Y-91232D01*
Y-91518D01*
Y-91804D01*
Y-92091D01*
Y-92377D01*
X1076701D01*
Y-92663D01*
Y-92950D01*
Y-93236D01*
Y-93522D01*
Y-93809D01*
Y-94095D01*
X1076415D01*
Y-94381D01*
Y-94667D01*
Y-94954D01*
Y-95240D01*
Y-95526D01*
Y-95813D01*
X1076128D01*
Y-96099D01*
Y-96385D01*
Y-96672D01*
Y-96958D01*
Y-97244D01*
Y-97531D01*
Y-97817D01*
X1075842D01*
Y-98103D01*
Y-98390D01*
Y-98676D01*
Y-98962D01*
Y-99248D01*
Y-99535D01*
X1075556D01*
Y-99821D01*
Y-100107D01*
X1062385D01*
Y-99821D01*
Y-99535D01*
X1062672D01*
Y-99248D01*
Y-98962D01*
Y-98676D01*
Y-98390D01*
Y-98103D01*
Y-97817D01*
X1062958D01*
Y-97531D01*
Y-97244D01*
Y-96958D01*
Y-96672D01*
Y-96385D01*
Y-96099D01*
Y-95813D01*
X1063244D01*
Y-95526D01*
Y-95240D01*
Y-94954D01*
Y-94667D01*
Y-94381D01*
Y-94095D01*
X1063531D01*
Y-93809D01*
Y-93522D01*
Y-93236D01*
Y-92950D01*
Y-92663D01*
Y-92377D01*
X1063817D01*
Y-92091D01*
Y-91804D01*
Y-91518D01*
Y-91232D01*
Y-90945D01*
Y-90659D01*
Y-90373D01*
X1064103D01*
Y-90086D01*
Y-89800D01*
Y-89514D01*
Y-89227D01*
Y-88941D01*
Y-88655D01*
X1064390D01*
Y-88369D01*
Y-88082D01*
Y-87796D01*
Y-87510D01*
Y-87223D01*
Y-86937D01*
Y-86651D01*
X1064676D01*
Y-86364D01*
Y-86078D01*
Y-85792D01*
Y-85505D01*
Y-85219D01*
Y-84933D01*
X1064962D01*
Y-84646D01*
Y-84360D01*
Y-84074D01*
Y-83788D01*
Y-83501D01*
Y-83215D01*
X1065249D01*
Y-82929D01*
Y-82642D01*
Y-82356D01*
Y-82070D01*
Y-81783D01*
Y-81497D01*
X1065535D01*
Y-81211D01*
Y-80924D01*
Y-80638D01*
Y-80352D01*
Y-80066D01*
Y-79779D01*
Y-79493D01*
X1065821D01*
Y-79207D01*
Y-78920D01*
Y-78634D01*
Y-78348D01*
Y-78061D01*
Y-77775D01*
X1066107D01*
Y-77489D01*
Y-77202D01*
Y-76916D01*
Y-76630D01*
Y-76343D01*
Y-76057D01*
Y-75771D01*
X1066394D01*
Y-75485D01*
Y-75198D01*
Y-74912D01*
Y-74625D01*
Y-74339D01*
Y-74053D01*
X1066107D01*
Y-73767D01*
Y-73480D01*
X1065821D01*
Y-73194D01*
X1065535D01*
Y-72908D01*
X1064962D01*
Y-72621D01*
X1063244D01*
Y-72908D01*
X1061813D01*
Y-73194D01*
X1060954D01*
Y-73480D01*
X1060381D01*
Y-73767D01*
X1060095D01*
Y-74053D01*
X1059522D01*
Y-74339D01*
X1059236D01*
Y-74625D01*
X1058950D01*
Y-74912D01*
Y-75198D01*
X1058663D01*
Y-75485D01*
Y-75771D01*
Y-76057D01*
X1058377D01*
Y-76343D01*
Y-76630D01*
Y-76916D01*
Y-77202D01*
Y-77489D01*
Y-77775D01*
X1058091D01*
Y-78061D01*
Y-78348D01*
Y-78634D01*
Y-78920D01*
Y-79207D01*
Y-79493D01*
Y-79779D01*
X1057804D01*
Y-80066D01*
Y-80352D01*
Y-80638D01*
Y-80924D01*
Y-81211D01*
Y-81497D01*
X1057518D01*
Y-81783D01*
Y-82070D01*
Y-82356D01*
Y-82642D01*
Y-82929D01*
Y-83215D01*
X1057232D01*
Y-83501D01*
Y-83788D01*
Y-84074D01*
Y-84360D01*
Y-84646D01*
Y-84933D01*
X1056946D01*
Y-85219D01*
Y-85505D01*
Y-85792D01*
Y-86078D01*
Y-86364D01*
Y-86651D01*
Y-86937D01*
X1056659D01*
Y-87223D01*
Y-87510D01*
Y-87796D01*
Y-88082D01*
Y-88369D01*
Y-88655D01*
X1056373D01*
Y-88941D01*
Y-89227D01*
Y-89514D01*
Y-89800D01*
Y-90086D01*
Y-90373D01*
X1056087D01*
Y-90659D01*
Y-90945D01*
Y-91232D01*
Y-91518D01*
Y-91804D01*
Y-92091D01*
Y-92377D01*
X1055800D01*
Y-92663D01*
Y-92950D01*
Y-93236D01*
Y-93522D01*
Y-93809D01*
Y-94095D01*
X1055514D01*
Y-94381D01*
Y-94667D01*
Y-94954D01*
Y-95240D01*
Y-95526D01*
Y-95813D01*
X1055228D01*
Y-96099D01*
Y-96385D01*
Y-96672D01*
Y-96958D01*
Y-97244D01*
Y-97531D01*
X1054941D01*
Y-97817D01*
Y-98103D01*
Y-98390D01*
Y-98676D01*
Y-98962D01*
Y-99248D01*
Y-99535D01*
X1054655D01*
Y-99821D01*
Y-100107D01*
X1041485D01*
Y-99821D01*
Y-99535D01*
X1041771D01*
Y-99248D01*
Y-98962D01*
Y-98676D01*
Y-98390D01*
Y-98103D01*
Y-97817D01*
Y-97531D01*
X1042057D01*
Y-97244D01*
Y-96958D01*
Y-96672D01*
Y-96385D01*
Y-96099D01*
Y-95813D01*
X1042344D01*
Y-95526D01*
Y-95240D01*
Y-94954D01*
Y-94667D01*
Y-94381D01*
Y-94095D01*
X1042630D01*
Y-93809D01*
Y-93522D01*
Y-93236D01*
Y-92950D01*
Y-92663D01*
Y-92377D01*
Y-92091D01*
X1042916D01*
Y-91804D01*
Y-91518D01*
Y-91232D01*
Y-90945D01*
Y-90659D01*
Y-90373D01*
X1043202D01*
Y-90086D01*
Y-89800D01*
Y-89514D01*
Y-89227D01*
Y-88941D01*
Y-88655D01*
X1043489D01*
Y-88369D01*
Y-88082D01*
Y-87796D01*
Y-87510D01*
Y-87223D01*
Y-86937D01*
X1043775D01*
Y-86651D01*
Y-86364D01*
Y-86078D01*
Y-85792D01*
Y-85505D01*
Y-85219D01*
Y-84933D01*
X1044061D01*
Y-84646D01*
Y-84360D01*
Y-84074D01*
Y-83788D01*
Y-83501D01*
Y-83215D01*
X1044348D01*
Y-82929D01*
Y-82642D01*
Y-82356D01*
Y-82070D01*
Y-81783D01*
Y-81497D01*
X1044634D01*
Y-81211D01*
Y-80924D01*
Y-80638D01*
Y-80352D01*
Y-80066D01*
Y-79779D01*
Y-79493D01*
X1044920D01*
Y-79207D01*
Y-78920D01*
Y-78634D01*
Y-78348D01*
Y-78061D01*
Y-77775D01*
X1045207D01*
Y-77489D01*
Y-77202D01*
Y-76916D01*
Y-76630D01*
Y-76343D01*
Y-76057D01*
X1045493D01*
Y-75771D01*
Y-75485D01*
Y-75198D01*
Y-74912D01*
Y-74625D01*
Y-74339D01*
X1045779D01*
Y-74053D01*
Y-73767D01*
Y-73480D01*
Y-73194D01*
Y-72908D01*
Y-72621D01*
Y-72335D01*
X1046066D01*
Y-72049D01*
Y-71762D01*
Y-71476D01*
Y-71190D01*
Y-70903D01*
Y-70617D01*
X1046352D01*
Y-70331D01*
Y-70044D01*
Y-69758D01*
Y-69472D01*
Y-69186D01*
Y-68899D01*
X1046638D01*
Y-68613D01*
Y-68327D01*
Y-68040D01*
Y-67754D01*
Y-67468D01*
Y-67181D01*
X1046925D01*
Y-66895D01*
Y-66609D01*
Y-66322D01*
Y-66036D01*
Y-65750D01*
Y-65464D01*
Y-65177D01*
X1047211D01*
Y-64891D01*
Y-64605D01*
Y-64318D01*
Y-64032D01*
Y-63746D01*
Y-63459D01*
X1047497D01*
Y-63173D01*
Y-62887D01*
Y-62600D01*
Y-62314D01*
Y-62028D01*
Y-61742D01*
X1047783D01*
Y-61455D01*
Y-61169D01*
Y-60883D01*
Y-60596D01*
Y-60310D01*
Y-60024D01*
Y-59737D01*
X1048070D01*
Y-59451D01*
Y-59165D01*
Y-58878D01*
Y-58592D01*
Y-58306D01*
Y-58019D01*
X1048356D01*
Y-57733D01*
Y-57447D01*
Y-57161D01*
Y-56874D01*
Y-56588D01*
Y-56301D01*
X1048642D01*
Y-56015D01*
Y-55729D01*
Y-55443D01*
Y-55156D01*
Y-54870D01*
Y-54584D01*
X1048929D01*
Y-54297D01*
Y-54011D01*
Y-53725D01*
Y-53438D01*
Y-53152D01*
Y-52866D01*
Y-52579D01*
X1049215D01*
Y-52293D01*
Y-52007D01*
Y-51720D01*
Y-51434D01*
Y-51148D01*
Y-50862D01*
X1049501D01*
Y-50575D01*
Y-50289D01*
Y-50003D01*
Y-49716D01*
Y-49430D01*
Y-49144D01*
X1049788D01*
Y-48857D01*
Y-48571D01*
Y-48285D01*
Y-47998D01*
Y-47712D01*
Y-47426D01*
Y-47139D01*
X1050074D01*
Y-46853D01*
Y-46567D01*
Y-46281D01*
X1063244D01*
Y-46567D01*
D02*
G37*
G36*
X1032036Y-50003D02*
X1033754D01*
Y-50289D01*
X1034613D01*
Y-50575D01*
X1035472D01*
Y-50862D01*
X1036331D01*
Y-51148D01*
X1036904D01*
Y-51434D01*
X1037190D01*
Y-51720D01*
X1037763D01*
Y-52007D01*
X1038049D01*
Y-52293D01*
X1038622D01*
Y-52579D01*
X1038908D01*
Y-52866D01*
X1039194D01*
Y-53152D01*
X1039480D01*
Y-53438D01*
X1039767D01*
Y-53725D01*
X1040053D01*
Y-54011D01*
X1040339D01*
Y-54297D01*
Y-54584D01*
X1040626D01*
Y-54870D01*
X1040912D01*
Y-55156D01*
Y-55443D01*
X1041198D01*
Y-55729D01*
X1041485D01*
Y-56015D01*
Y-56301D01*
X1041771D01*
Y-56588D01*
Y-56874D01*
Y-57161D01*
X1042057D01*
Y-57447D01*
Y-57733D01*
Y-58019D01*
X1042344D01*
Y-58306D01*
Y-58592D01*
Y-58878D01*
Y-59165D01*
X1042630D01*
Y-59451D01*
Y-59737D01*
Y-60024D01*
Y-60310D01*
Y-60596D01*
X1042916D01*
Y-60883D01*
Y-61169D01*
Y-61455D01*
Y-61742D01*
Y-62028D01*
Y-62314D01*
Y-62600D01*
Y-62887D01*
Y-63173D01*
Y-63459D01*
Y-63746D01*
Y-64032D01*
Y-64318D01*
Y-64605D01*
Y-64891D01*
Y-65177D01*
Y-65464D01*
Y-65750D01*
Y-66036D01*
Y-66322D01*
X1042630D01*
Y-66609D01*
Y-66895D01*
Y-67181D01*
Y-67468D01*
Y-67754D01*
Y-68040D01*
Y-68327D01*
X1042344D01*
Y-68613D01*
Y-68899D01*
Y-69186D01*
Y-69472D01*
Y-69758D01*
X1042057D01*
Y-70044D01*
Y-70331D01*
Y-70617D01*
Y-70903D01*
Y-71190D01*
X1041771D01*
Y-71476D01*
Y-71762D01*
Y-72049D01*
X1041485D01*
Y-72335D01*
Y-72621D01*
Y-72908D01*
Y-73194D01*
X1041198D01*
Y-73480D01*
Y-73767D01*
Y-74053D01*
X1040912D01*
Y-74339D01*
Y-74625D01*
X1040626D01*
Y-74912D01*
Y-75198D01*
Y-75485D01*
X1040339D01*
Y-75771D01*
Y-76057D01*
X1040053D01*
Y-76343D01*
Y-76630D01*
X1039767D01*
Y-76916D01*
Y-77202D01*
X1039480D01*
Y-77489D01*
X1039194D01*
Y-77775D01*
Y-78061D01*
X1038908D01*
Y-78348D01*
X1038622D01*
Y-78634D01*
X1038335D01*
Y-78920D01*
Y-79207D01*
X1038049D01*
Y-79493D01*
X1037763D01*
Y-79779D01*
X1037476D01*
Y-80066D01*
X1037190D01*
Y-80352D01*
X1036904D01*
Y-80638D01*
X1036331D01*
Y-80924D01*
X1036045D01*
Y-81211D01*
X1035472D01*
Y-81497D01*
X1035186D01*
Y-81783D01*
X1034613D01*
Y-82070D01*
X1033754D01*
Y-82356D01*
X1032895D01*
Y-82642D01*
X1032036D01*
Y-82929D01*
X1030318D01*
Y-83215D01*
X1025165D01*
Y-82929D01*
X1022588D01*
Y-82642D01*
X1020584D01*
Y-82356D01*
X1019152D01*
Y-82070D01*
X1017721D01*
Y-81783D01*
X1016289D01*
Y-82070D01*
Y-82356D01*
Y-82642D01*
Y-82929D01*
Y-83215D01*
Y-83501D01*
Y-83788D01*
X1016003D01*
Y-84074D01*
Y-84360D01*
Y-84646D01*
Y-84933D01*
Y-85219D01*
Y-85505D01*
X1015716D01*
Y-85792D01*
Y-86078D01*
Y-86364D01*
Y-86651D01*
Y-86937D01*
Y-87223D01*
X1015430D01*
Y-87510D01*
Y-87796D01*
Y-88082D01*
Y-88369D01*
Y-88655D01*
Y-88941D01*
Y-89227D01*
X1015144D01*
Y-89514D01*
Y-89800D01*
Y-90086D01*
Y-90373D01*
Y-90659D01*
Y-90945D01*
X1014857D01*
Y-91232D01*
Y-91518D01*
Y-91804D01*
Y-92091D01*
Y-92377D01*
Y-92663D01*
X1014571D01*
Y-92950D01*
Y-93236D01*
Y-93522D01*
Y-93809D01*
Y-94095D01*
Y-94381D01*
Y-94667D01*
X1014285D01*
Y-94954D01*
Y-95240D01*
Y-95526D01*
Y-95813D01*
Y-96099D01*
Y-96385D01*
X1013999D01*
Y-96672D01*
Y-96958D01*
Y-97244D01*
Y-97531D01*
Y-97817D01*
Y-98103D01*
X1013712D01*
Y-98390D01*
Y-98676D01*
Y-98962D01*
Y-99248D01*
Y-99535D01*
Y-99821D01*
Y-100107D01*
X1000256D01*
Y-99821D01*
X1000542D01*
Y-99535D01*
Y-99248D01*
Y-98962D01*
Y-98676D01*
Y-98390D01*
X1000828D01*
Y-98103D01*
Y-97817D01*
Y-97531D01*
Y-97244D01*
Y-96958D01*
Y-96672D01*
Y-96385D01*
X1001114D01*
Y-96099D01*
Y-95813D01*
Y-95526D01*
Y-95240D01*
Y-94954D01*
Y-94667D01*
X1001401D01*
Y-94381D01*
Y-94095D01*
Y-93809D01*
Y-93522D01*
Y-93236D01*
Y-92950D01*
X1001687D01*
Y-92663D01*
Y-92377D01*
Y-92091D01*
Y-91804D01*
Y-91518D01*
Y-91232D01*
Y-90945D01*
X1001974D01*
Y-90659D01*
Y-90373D01*
Y-90086D01*
Y-89800D01*
Y-89514D01*
Y-89227D01*
X1002260D01*
Y-88941D01*
Y-88655D01*
Y-88369D01*
Y-88082D01*
Y-87796D01*
Y-87510D01*
X1002546D01*
Y-87223D01*
Y-86937D01*
Y-86651D01*
Y-86364D01*
Y-86078D01*
Y-85792D01*
X1002832D01*
Y-85505D01*
Y-85219D01*
Y-84933D01*
Y-84646D01*
Y-84360D01*
Y-84074D01*
Y-83788D01*
X1003119D01*
Y-83501D01*
Y-83215D01*
Y-82929D01*
Y-82642D01*
Y-82356D01*
Y-82070D01*
X1003405D01*
Y-81783D01*
Y-81497D01*
Y-81211D01*
Y-80924D01*
Y-80638D01*
Y-80352D01*
X1003691D01*
Y-80066D01*
Y-79779D01*
Y-79493D01*
Y-79207D01*
Y-78920D01*
Y-78634D01*
X1003978D01*
Y-78348D01*
Y-78061D01*
Y-77775D01*
Y-77489D01*
Y-77202D01*
Y-76916D01*
Y-76630D01*
X1004264D01*
Y-76343D01*
Y-76057D01*
Y-75771D01*
Y-75485D01*
Y-75198D01*
Y-74912D01*
X1004550D01*
Y-74625D01*
Y-74339D01*
Y-74053D01*
Y-73767D01*
Y-73480D01*
Y-73194D01*
X1004837D01*
Y-72908D01*
Y-72621D01*
Y-72335D01*
Y-72049D01*
Y-71762D01*
Y-71476D01*
Y-71190D01*
X1005123D01*
Y-70903D01*
Y-70617D01*
Y-70331D01*
Y-70044D01*
Y-69758D01*
Y-69472D01*
X1005409D01*
Y-69186D01*
Y-68899D01*
Y-68613D01*
Y-68327D01*
Y-68040D01*
Y-67754D01*
X1005696D01*
Y-67468D01*
Y-67181D01*
Y-66895D01*
Y-66609D01*
Y-66322D01*
Y-66036D01*
X1005982D01*
Y-65750D01*
Y-65464D01*
Y-65177D01*
Y-64891D01*
Y-64605D01*
Y-64318D01*
Y-64032D01*
X1006268D01*
Y-63746D01*
Y-63459D01*
Y-63173D01*
Y-62887D01*
Y-62600D01*
Y-62314D01*
X1006555D01*
Y-62028D01*
Y-61742D01*
Y-61455D01*
Y-61169D01*
Y-60883D01*
Y-60596D01*
X1006841D01*
Y-60310D01*
Y-60024D01*
Y-59737D01*
Y-59451D01*
Y-59165D01*
Y-58878D01*
Y-58592D01*
X1007127D01*
Y-58306D01*
Y-58019D01*
Y-57733D01*
Y-57447D01*
Y-57161D01*
Y-56874D01*
X1007413D01*
Y-56588D01*
Y-56301D01*
Y-56015D01*
Y-55729D01*
Y-55443D01*
Y-55156D01*
X1007700D01*
Y-54870D01*
Y-54584D01*
Y-54297D01*
Y-54011D01*
Y-53725D01*
Y-53438D01*
Y-53152D01*
X1007986D01*
Y-52866D01*
Y-52579D01*
Y-52293D01*
Y-52007D01*
Y-51720D01*
Y-51434D01*
X1008272D01*
Y-51148D01*
Y-50862D01*
Y-50575D01*
Y-50289D01*
Y-50003D01*
Y-49716D01*
X1032036D01*
Y-50003D01*
D02*
G37*
G36*
X1165172Y-64032D02*
X1164886D01*
Y-64318D01*
X1164599D01*
Y-64605D01*
Y-64891D01*
X1164313D01*
Y-65177D01*
X1164027D01*
Y-65464D01*
X1163740D01*
Y-65750D01*
Y-66036D01*
X1163454D01*
Y-66322D01*
X1163168D01*
Y-66609D01*
X1162881D01*
Y-66895D01*
X1162595D01*
Y-67181D01*
Y-67468D01*
X1162309D01*
Y-67754D01*
X1162022D01*
Y-68040D01*
X1161736D01*
Y-68327D01*
Y-68613D01*
X1161450D01*
Y-68899D01*
X1161163D01*
Y-69186D01*
X1160877D01*
Y-69472D01*
X1160591D01*
Y-69758D01*
Y-70044D01*
X1160305D01*
Y-70331D01*
X1160018D01*
Y-70617D01*
X1159732D01*
Y-70903D01*
Y-71190D01*
X1159445D01*
Y-71476D01*
X1159159D01*
Y-71762D01*
X1158873D01*
Y-72049D01*
Y-72335D01*
X1158587D01*
Y-72621D01*
X1158300D01*
Y-72908D01*
X1158014D01*
Y-73194D01*
X1157728D01*
Y-73480D01*
Y-73767D01*
X1157441D01*
Y-74053D01*
X1157155D01*
Y-74339D01*
X1156869D01*
Y-74625D01*
Y-74912D01*
X1156582D01*
Y-75198D01*
X1156296D01*
Y-75485D01*
X1156010D01*
Y-75771D01*
Y-76057D01*
X1155723D01*
Y-76343D01*
X1155437D01*
Y-76630D01*
X1155151D01*
Y-76916D01*
X1154865D01*
Y-77202D01*
Y-77489D01*
X1154578D01*
Y-77775D01*
X1154292D01*
Y-78061D01*
X1154006D01*
Y-78348D01*
Y-78634D01*
X1153719D01*
Y-78920D01*
X1153433D01*
Y-79207D01*
X1153147D01*
Y-79493D01*
Y-79779D01*
X1152860D01*
Y-80066D01*
X1152574D01*
Y-80352D01*
X1152288D01*
Y-80638D01*
X1152001D01*
Y-80924D01*
Y-81211D01*
X1151715D01*
Y-81497D01*
X1151429D01*
Y-81783D01*
X1151142D01*
Y-82070D01*
Y-82356D01*
X1150856D01*
Y-82642D01*
X1150570D01*
Y-82929D01*
X1150284D01*
Y-83215D01*
X1149997D01*
Y-83501D01*
Y-83788D01*
X1150284D01*
Y-84074D01*
Y-84360D01*
X1150570D01*
Y-84646D01*
Y-84933D01*
X1150856D01*
Y-85219D01*
X1151142D01*
Y-85505D01*
Y-85792D01*
X1151429D01*
Y-86078D01*
Y-86364D01*
X1151715D01*
Y-86651D01*
Y-86937D01*
X1152001D01*
Y-87223D01*
Y-87510D01*
X1152288D01*
Y-87796D01*
Y-88082D01*
X1152574D01*
Y-88369D01*
Y-88655D01*
X1152860D01*
Y-88941D01*
Y-89227D01*
X1153147D01*
Y-89514D01*
Y-89800D01*
X1153433D01*
Y-90086D01*
X1153719D01*
Y-90373D01*
Y-90659D01*
X1154006D01*
Y-90945D01*
Y-91232D01*
X1154292D01*
Y-91518D01*
Y-91804D01*
X1154578D01*
Y-92091D01*
Y-92377D01*
X1154865D01*
Y-92663D01*
Y-92950D01*
X1155151D01*
Y-93236D01*
Y-93522D01*
X1155437D01*
Y-93809D01*
Y-94095D01*
X1155723D01*
Y-94381D01*
X1156010D01*
Y-94667D01*
Y-94954D01*
X1156296D01*
Y-95240D01*
Y-95526D01*
X1156582D01*
Y-95813D01*
Y-96099D01*
X1156869D01*
Y-96385D01*
Y-96672D01*
X1157155D01*
Y-96958D01*
Y-97244D01*
X1157441D01*
Y-97531D01*
Y-97817D01*
X1157728D01*
Y-98103D01*
Y-98390D01*
X1158014D01*
Y-98676D01*
X1158300D01*
Y-98962D01*
Y-99248D01*
X1158587D01*
Y-99535D01*
Y-99821D01*
X1158873D01*
Y-100107D01*
X1143698D01*
Y-99821D01*
X1143412D01*
Y-99535D01*
Y-99248D01*
Y-98962D01*
X1143126D01*
Y-98676D01*
Y-98390D01*
Y-98103D01*
X1142839D01*
Y-97817D01*
Y-97531D01*
X1142553D01*
Y-97244D01*
Y-96958D01*
Y-96672D01*
X1142267D01*
Y-96385D01*
Y-96099D01*
Y-95813D01*
X1141980D01*
Y-95526D01*
Y-95240D01*
X1141694D01*
Y-94954D01*
Y-94667D01*
Y-94381D01*
X1141408D01*
Y-94095D01*
Y-93809D01*
Y-93522D01*
X1141121D01*
Y-93236D01*
Y-92950D01*
Y-92663D01*
X1140835D01*
Y-92377D01*
X1140263D01*
Y-92663D01*
Y-92950D01*
X1139976D01*
Y-93236D01*
X1139690D01*
Y-93522D01*
Y-93809D01*
X1139404D01*
Y-94095D01*
X1139117D01*
Y-94381D01*
Y-94667D01*
X1138831D01*
Y-94954D01*
X1138545D01*
Y-95240D01*
Y-95526D01*
X1138258D01*
Y-95813D01*
X1137972D01*
Y-96099D01*
X1137686D01*
Y-96385D01*
Y-96672D01*
X1137399D01*
Y-96958D01*
X1137113D01*
Y-97244D01*
Y-97531D01*
X1136827D01*
Y-97817D01*
X1136541D01*
Y-98103D01*
Y-98390D01*
X1136254D01*
Y-98676D01*
X1135968D01*
Y-98962D01*
Y-99248D01*
X1135682D01*
Y-99535D01*
X1135395D01*
Y-99821D01*
Y-100107D01*
X1119362D01*
Y-99821D01*
X1119648D01*
Y-99535D01*
X1119934D01*
Y-99248D01*
X1120221D01*
Y-98962D01*
X1120507D01*
Y-98676D01*
Y-98390D01*
X1120793D01*
Y-98103D01*
X1121080D01*
Y-97817D01*
X1121366D01*
Y-97531D01*
X1121652D01*
Y-97244D01*
Y-96958D01*
X1121939D01*
Y-96672D01*
X1122225D01*
Y-96385D01*
X1122511D01*
Y-96099D01*
Y-95813D01*
X1122797D01*
Y-95526D01*
X1123084D01*
Y-95240D01*
X1123370D01*
Y-94954D01*
X1123656D01*
Y-94667D01*
Y-94381D01*
X1123943D01*
Y-94095D01*
X1124229D01*
Y-93809D01*
X1124515D01*
Y-93522D01*
X1124802D01*
Y-93236D01*
Y-92950D01*
X1125088D01*
Y-92663D01*
X1125374D01*
Y-92377D01*
X1125661D01*
Y-92091D01*
Y-91804D01*
X1125947D01*
Y-91518D01*
X1126233D01*
Y-91232D01*
X1126519D01*
Y-90945D01*
X1126806D01*
Y-90659D01*
Y-90373D01*
X1127092D01*
Y-90086D01*
X1127378D01*
Y-89800D01*
X1127665D01*
Y-89514D01*
Y-89227D01*
X1127951D01*
Y-88941D01*
X1128237D01*
Y-88655D01*
X1128524D01*
Y-88369D01*
X1128810D01*
Y-88082D01*
Y-87796D01*
X1129096D01*
Y-87510D01*
X1129383D01*
Y-87223D01*
X1129669D01*
Y-86937D01*
Y-86651D01*
X1129955D01*
Y-86364D01*
X1130242D01*
Y-86078D01*
X1130528D01*
Y-85792D01*
X1130814D01*
Y-85505D01*
Y-85219D01*
X1131100D01*
Y-84933D01*
X1131387D01*
Y-84646D01*
X1131673D01*
Y-84360D01*
X1131960D01*
Y-84074D01*
Y-83788D01*
X1132246D01*
Y-83501D01*
X1132532D01*
Y-83215D01*
X1132818D01*
Y-82929D01*
Y-82642D01*
X1133105D01*
Y-82356D01*
X1133391D01*
Y-82070D01*
X1133677D01*
Y-81783D01*
X1133964D01*
Y-81497D01*
Y-81211D01*
X1134250D01*
Y-80924D01*
Y-80638D01*
Y-80352D01*
X1133964D01*
Y-80066D01*
X1133677D01*
Y-79779D01*
Y-79493D01*
X1133391D01*
Y-79207D01*
Y-78920D01*
X1133105D01*
Y-78634D01*
Y-78348D01*
X1132818D01*
Y-78061D01*
Y-77775D01*
X1132532D01*
Y-77489D01*
Y-77202D01*
X1132246D01*
Y-76916D01*
Y-76630D01*
X1131960D01*
Y-76343D01*
X1131673D01*
Y-76057D01*
Y-75771D01*
X1131387D01*
Y-75485D01*
Y-75198D01*
X1131100D01*
Y-74912D01*
Y-74625D01*
X1130814D01*
Y-74339D01*
Y-74053D01*
X1130528D01*
Y-73767D01*
Y-73480D01*
X1130242D01*
Y-73194D01*
Y-72908D01*
X1129955D01*
Y-72621D01*
X1129669D01*
Y-72335D01*
Y-72049D01*
X1129383D01*
Y-71762D01*
Y-71476D01*
X1129096D01*
Y-71190D01*
Y-70903D01*
X1128810D01*
Y-70617D01*
Y-70331D01*
X1128524D01*
Y-70044D01*
Y-69758D01*
X1128237D01*
Y-69472D01*
Y-69186D01*
X1127951D01*
Y-68899D01*
Y-68613D01*
X1127665D01*
Y-68327D01*
X1127378D01*
Y-68040D01*
Y-67754D01*
X1127092D01*
Y-67468D01*
Y-67181D01*
X1126806D01*
Y-66895D01*
Y-66609D01*
X1126519D01*
Y-66322D01*
Y-66036D01*
X1126233D01*
Y-65750D01*
Y-65464D01*
X1125947D01*
Y-65177D01*
Y-64891D01*
X1125661D01*
Y-64605D01*
X1125374D01*
Y-64318D01*
Y-64032D01*
X1125088D01*
Y-63746D01*
X1140835D01*
Y-64032D01*
X1141121D01*
Y-64318D01*
Y-64605D01*
Y-64891D01*
X1141408D01*
Y-65177D01*
Y-65464D01*
Y-65750D01*
X1141694D01*
Y-66036D01*
Y-66322D01*
Y-66609D01*
X1141980D01*
Y-66895D01*
Y-67181D01*
Y-67468D01*
X1142267D01*
Y-67754D01*
Y-68040D01*
Y-68327D01*
X1142553D01*
Y-68613D01*
Y-68899D01*
Y-69186D01*
X1142839D01*
Y-69472D01*
Y-69758D01*
Y-70044D01*
X1143126D01*
Y-70331D01*
Y-70617D01*
Y-70903D01*
X1143412D01*
Y-71190D01*
Y-71476D01*
Y-71762D01*
Y-72049D01*
X1143985D01*
Y-71762D01*
X1144271D01*
Y-71476D01*
X1144557D01*
Y-71190D01*
Y-70903D01*
X1144844D01*
Y-70617D01*
X1145130D01*
Y-70331D01*
Y-70044D01*
X1145416D01*
Y-69758D01*
X1145702D01*
Y-69472D01*
Y-69186D01*
X1145989D01*
Y-68899D01*
X1146275D01*
Y-68613D01*
Y-68327D01*
X1146561D01*
Y-68040D01*
X1146848D01*
Y-67754D01*
Y-67468D01*
X1147134D01*
Y-67181D01*
X1147420D01*
Y-66895D01*
Y-66609D01*
X1147707D01*
Y-66322D01*
X1147993D01*
Y-66036D01*
Y-65750D01*
X1148279D01*
Y-65464D01*
X1148566D01*
Y-65177D01*
Y-64891D01*
X1148852D01*
Y-64605D01*
X1149138D01*
Y-64318D01*
Y-64032D01*
X1149425D01*
Y-63746D01*
X1165172D01*
Y-64032D01*
D02*
G37*
%LPC*%
G36*
X1027742Y-60883D02*
X1019725D01*
Y-61169D01*
Y-61455D01*
Y-61742D01*
Y-62028D01*
Y-62314D01*
X1019438D01*
Y-62600D01*
Y-62887D01*
Y-63173D01*
Y-63459D01*
Y-63746D01*
Y-64032D01*
X1019152D01*
Y-64318D01*
Y-64605D01*
Y-64891D01*
Y-65177D01*
Y-65464D01*
Y-65750D01*
X1018866D01*
Y-66036D01*
Y-66322D01*
Y-66609D01*
Y-66895D01*
Y-67181D01*
Y-67468D01*
X1018580D01*
Y-67754D01*
Y-68040D01*
Y-68327D01*
Y-68613D01*
Y-68899D01*
Y-69186D01*
Y-69472D01*
X1018293D01*
Y-69758D01*
Y-70044D01*
Y-70331D01*
Y-70617D01*
Y-70903D01*
Y-71190D01*
X1018007D01*
Y-71476D01*
Y-71762D01*
Y-72049D01*
X1025165D01*
Y-71762D01*
X1026310D01*
Y-71476D01*
X1026883D01*
Y-71190D01*
X1027169D01*
Y-70903D01*
X1027455D01*
Y-70617D01*
X1027742D01*
Y-70331D01*
X1028028D01*
Y-70044D01*
Y-69758D01*
X1028314D01*
Y-69472D01*
Y-69186D01*
X1028601D01*
Y-68899D01*
Y-68613D01*
X1028887D01*
Y-68327D01*
Y-68040D01*
Y-67754D01*
Y-67468D01*
X1029173D01*
Y-67181D01*
Y-66895D01*
Y-66609D01*
Y-66322D01*
Y-66036D01*
X1029459D01*
Y-65750D01*
Y-65464D01*
Y-65177D01*
Y-64891D01*
Y-64605D01*
Y-64318D01*
Y-64032D01*
Y-63746D01*
Y-63459D01*
Y-63173D01*
Y-62887D01*
X1029173D01*
Y-62600D01*
Y-62314D01*
X1028887D01*
Y-62028D01*
Y-61742D01*
X1028601D01*
Y-61455D01*
X1028314D01*
Y-61169D01*
X1027742D01*
Y-60883D01*
D02*
G37*
%LPD*%
D10*
X0Y11811D02*
G03*
X11811Y0I11811J0D01*
G01*
X185039D02*
G03*
X196850Y11811I0J11811D01*
G01*
Y149606D02*
G03*
X185039Y161417I-11811J0D01*
G01*
X11811D02*
G03*
X0Y149606I0J-11811D01*
G01*
X9843Y133858D02*
G03*
X5906Y137795I-3937J0D01*
G01*
X0Y141732D02*
G03*
X3937Y137795I3937J0D01*
G01*
X5906Y23622D02*
G03*
X9843Y27559I0J3937D01*
G01*
X3937Y23622D02*
G03*
X0Y19685I0J-3937D01*
G01*
X15748Y161417D02*
G03*
X19685Y165354I0J3937D01*
G01*
X27559Y185039D02*
G03*
X19685Y177165I0J-7874D01*
G01*
X177165D02*
G03*
X169291Y185039I-7874J0D01*
G01*
X192913Y137795D02*
G03*
X196850Y141732I0J3937D01*
G01*
X177165Y165354D02*
G03*
X181102Y161417I3937J0D01*
G01*
X190945Y137795D02*
G03*
X187008Y133858I0J-3937D01*
G01*
X196850Y19685D02*
G03*
X192913Y23622I-3937J0D01*
G01*
X187008Y27559D02*
G03*
X190945Y23622I3937J0D01*
G01*
X0Y11811D02*
Y19685D01*
X11811Y0D02*
X15748D01*
X196850Y11811D02*
Y19685D01*
X181102Y0D02*
X185039D01*
X181102Y161417D02*
X185039D01*
X196850Y141732D02*
Y149606D01*
X3937Y137795D02*
X5906D01*
X9843Y27559D02*
Y133858D01*
X3937Y23622D02*
X5906D01*
X19685Y169291D02*
Y177165D01*
X177165Y169291D02*
Y177165D01*
X27559Y185039D02*
X169291D01*
X15748Y0D02*
X181102D01*
X0Y141732D02*
Y149606D01*
X11811Y161417D02*
X15748D01*
X19685Y165354D02*
Y169291D01*
X177165Y165354D02*
Y169291D01*
X190945Y137795D02*
X192913D01*
X190945Y23622D02*
X192913D01*
X187008Y27559D02*
Y133858D01*
X1338583Y-137795D02*
Y-98425D01*
X1181102Y-59055D02*
X1456693D01*
X1181102Y-98425D02*
X1456693D01*
X984252Y-137795D02*
X1456693D01*
X984252Y-19685D02*
X1456693D01*
X984252Y-177165D02*
Y-19685D01*
X1181102Y-177165D02*
Y-19685D01*
X-196850Y992126D02*
X1456693D01*
Y-177165D02*
Y992126D01*
X-196850Y-177165D02*
Y992126D01*
Y-177165D02*
X1456693D01*
X1194881Y-163388D02*
X1190945D01*
Y-169291D01*
X1194881D01*
X1190945Y-166340D02*
X1192913D01*
X1200784Y-164372D02*
X1199800Y-163388D01*
X1197832D01*
X1196848Y-164372D01*
Y-165356D01*
X1197832Y-166340D01*
X1199800D01*
X1200784Y-167324D01*
Y-168307D01*
X1199800Y-169291D01*
X1197832D01*
X1196848Y-168307D01*
X1202752Y-169291D02*
Y-163388D01*
X1205704D01*
X1206688Y-164372D01*
Y-166340D01*
X1205704Y-167324D01*
X1202752D01*
X1208656Y-169291D02*
X1210624D01*
X1209640D01*
Y-163388D01*
X1208656Y-164372D01*
X1217511Y-169291D02*
X1213575D01*
X1217511Y-165356D01*
Y-164372D01*
X1216527Y-163388D01*
X1214559D01*
X1213575Y-164372D01*
X1219479Y-170275D02*
X1223415D01*
X1225383Y-163388D02*
Y-169291D01*
X1228334D01*
X1229318Y-168307D01*
Y-164372D01*
X1228334Y-163388D01*
X1225383D01*
X1235222D02*
X1231286D01*
Y-169291D01*
X1235222D01*
X1231286Y-166340D02*
X1233254D01*
X1237190Y-163388D02*
Y-167324D01*
X1239158Y-169291D01*
X1241125Y-167324D01*
Y-163388D01*
X1243093Y-170275D02*
X1247029D01*
X1248997Y-164372D02*
X1249981Y-163388D01*
X1251949D01*
X1252933Y-164372D01*
Y-168307D01*
X1251949Y-169291D01*
X1249981D01*
X1248997Y-168307D01*
Y-164372D01*
X1254900Y-169291D02*
X1256868D01*
X1255884D01*
Y-163388D01*
X1254900Y-164372D01*
X1259820Y-169291D02*
Y-168307D01*
X1260804D01*
Y-169291D01*
X1259820D01*
X1264740D02*
Y-163388D01*
X1267692D01*
X1268676Y-164372D01*
Y-166340D01*
X1267692Y-167324D01*
X1264740D01*
X1274579Y-165356D02*
X1271627D01*
X1270644Y-166340D01*
Y-168307D01*
X1271627Y-169291D01*
X1274579D01*
X1276547Y-163388D02*
Y-169291D01*
X1279499D01*
X1280483Y-168307D01*
Y-167324D01*
Y-166340D01*
X1279499Y-165356D01*
X1276547D01*
X1282451Y-163388D02*
Y-169291D01*
X1285402D01*
X1286386Y-168307D01*
Y-164372D01*
X1285402Y-163388D01*
X1282451D01*
X1289338Y-169291D02*
X1291306D01*
X1292290Y-168307D01*
Y-166340D01*
X1291306Y-165356D01*
X1289338D01*
X1288354Y-166340D01*
Y-168307D01*
X1289338Y-169291D01*
X1298194Y-165356D02*
X1295242D01*
X1294258Y-166340D01*
Y-168307D01*
X1295242Y-169291D01*
X1298194D01*
D14*
X1202756Y-76776D02*
Y-90551D01*
X1209643D01*
X1211939Y-88255D01*
Y-85960D01*
X1209643Y-83664D01*
X1202756D01*
X1209643D01*
X1211939Y-81368D01*
Y-79072D01*
X1209643Y-76776D01*
X1202756D01*
X1218827Y-90551D02*
X1223419D01*
X1225714Y-88255D01*
Y-83664D01*
X1223419Y-81368D01*
X1218827D01*
X1216531Y-83664D01*
Y-88255D01*
X1218827Y-90551D01*
X1232602Y-79072D02*
Y-81368D01*
X1230306D01*
X1234898D01*
X1232602D01*
Y-88255D01*
X1234898Y-90551D01*
X1244081Y-79072D02*
Y-81368D01*
X1241785D01*
X1246377D01*
X1244081D01*
Y-88255D01*
X1246377Y-90551D01*
X1255560D02*
X1260152D01*
X1262448Y-88255D01*
Y-83664D01*
X1260152Y-81368D01*
X1255560D01*
X1253265Y-83664D01*
Y-88255D01*
X1255560Y-90551D01*
X1267040D02*
Y-81368D01*
X1269335D01*
X1271631Y-83664D01*
Y-90551D01*
Y-83664D01*
X1273927Y-81368D01*
X1276223Y-83664D01*
Y-90551D01*
X1301477Y-76776D02*
X1296886D01*
X1294590Y-79072D01*
Y-88255D01*
X1296886Y-90551D01*
X1301477D01*
X1303773Y-88255D01*
Y-79072D01*
X1301477Y-76776D01*
X1308365Y-81368D02*
X1312957Y-90551D01*
X1317548Y-81368D01*
X1329027Y-90551D02*
X1324436D01*
X1322140Y-88255D01*
Y-83664D01*
X1324436Y-81368D01*
X1329027D01*
X1331323Y-83664D01*
Y-85960D01*
X1322140D01*
X1335915Y-81368D02*
Y-90551D01*
Y-85960D01*
X1338211Y-83664D01*
X1340507Y-81368D01*
X1342803D01*
X1349690Y-90551D02*
X1354282D01*
X1351986D01*
Y-76776D01*
X1349690D01*
X1363465Y-81368D02*
X1368057D01*
X1370353Y-83664D01*
Y-90551D01*
X1363465D01*
X1361169Y-88255D01*
X1363465Y-85960D01*
X1370353D01*
X1374944Y-81368D02*
Y-88255D01*
X1377240Y-90551D01*
X1384128D01*
Y-92847D01*
X1381832Y-95143D01*
X1379536D01*
X1384128Y-90551D02*
Y-81368D01*
X1005906Y-155517D02*
Y-171260D01*
X1011153Y-166012D01*
X1016401Y-171260D01*
Y-155517D01*
X1021649Y-171260D02*
X1026896D01*
X1024272D01*
Y-160765D01*
X1021649D01*
X1034768Y-171260D02*
Y-160765D01*
X1037391D01*
X1040015Y-163388D01*
Y-171260D01*
Y-163388D01*
X1042639Y-160765D01*
X1045263Y-163388D01*
Y-171260D01*
X1050511Y-155517D02*
Y-166012D01*
X1055758Y-171260D01*
X1061006Y-166012D01*
Y-155517D01*
X1076749Y-158141D02*
X1074125Y-155517D01*
X1068877D01*
X1066253Y-158141D01*
Y-168636D01*
X1068877Y-171260D01*
X1074125D01*
X1076749Y-168636D01*
Y-163388D01*
X1071501D01*
X1360236Y-118771D02*
X1362860Y-116147D01*
X1368108D01*
X1370732Y-118771D01*
Y-129266D01*
X1368108Y-131890D01*
X1362860D01*
X1360236Y-129266D01*
Y-118771D01*
X1375979D02*
X1378603Y-116147D01*
X1383851D01*
X1386475Y-118771D01*
Y-129266D01*
X1383851Y-131890D01*
X1378603D01*
X1375979Y-129266D01*
Y-118771D01*
X1206034Y-131890D02*
X1196850D01*
X1206034Y-122706D01*
Y-120411D01*
X1203738Y-118115D01*
X1199146D01*
X1196850Y-120411D01*
X1210625Y-129594D02*
X1212921Y-131890D01*
X1217513D01*
X1219809Y-129594D01*
Y-120411D01*
X1217513Y-118115D01*
X1212921D01*
X1210625Y-120411D01*
Y-122706D01*
X1212921Y-125002D01*
X1219809D01*
X1224401Y-131890D02*
X1233584Y-122706D01*
X1238176Y-120411D02*
X1240471Y-118115D01*
X1245063D01*
X1247359Y-120411D01*
Y-129594D01*
X1245063Y-131890D01*
X1240471D01*
X1238176Y-129594D01*
Y-120411D01*
X1251951D02*
X1254247Y-118115D01*
X1258838D01*
X1261134Y-120411D01*
Y-122706D01*
X1258838Y-125002D01*
X1261134Y-127298D01*
Y-129594D01*
X1258838Y-131890D01*
X1254247D01*
X1251951Y-129594D01*
Y-127298D01*
X1254247Y-125002D01*
X1251951Y-122706D01*
Y-120411D01*
X1254247Y-125002D02*
X1258838D01*
X1265726Y-131890D02*
X1274909Y-122706D01*
X1288684Y-131890D02*
X1279501D01*
X1288684Y-122706D01*
Y-120411D01*
X1286388Y-118115D01*
X1281797D01*
X1279501Y-120411D01*
X1293276D02*
X1295572Y-118115D01*
X1300163D01*
X1302459Y-120411D01*
Y-129594D01*
X1300163Y-131890D01*
X1295572D01*
X1293276Y-129594D01*
Y-120411D01*
X1307051Y-131890D02*
X1311643D01*
X1309347D01*
Y-118115D01*
X1307051Y-120411D01*
X1327714Y-118115D02*
X1318530D01*
Y-125002D01*
X1323122Y-122706D01*
X1325418D01*
X1327714Y-125002D01*
Y-129594D01*
X1325418Y-131890D01*
X1320826D01*
X1318530Y-129594D01*
X1201440Y-37407D02*
X1190945D01*
Y-53150D01*
X1201440D01*
X1190945Y-45278D02*
X1196192D01*
X1217183Y-40031D02*
X1214559Y-37407D01*
X1209312D01*
X1206688Y-40031D01*
Y-42654D01*
X1209312Y-45278D01*
X1214559D01*
X1217183Y-47902D01*
Y-50526D01*
X1214559Y-53150D01*
X1209312D01*
X1206688Y-50526D01*
X1222431Y-53150D02*
Y-37407D01*
X1230302D01*
X1232926Y-40031D01*
Y-45278D01*
X1230302Y-47902D01*
X1222431D01*
X1238174Y-53150D02*
X1243421D01*
X1240798D01*
Y-37407D01*
X1238174Y-40031D01*
X1261788Y-53150D02*
X1251293D01*
X1261788Y-42654D01*
Y-40031D01*
X1259164Y-37407D01*
X1253917D01*
X1251293Y-40031D01*
X1267036Y-55773D02*
X1277531D01*
X1282779Y-37407D02*
Y-53150D01*
X1290650D01*
X1293274Y-50526D01*
Y-40031D01*
X1290650Y-37407D01*
X1282779D01*
X1309017D02*
X1298522D01*
Y-53150D01*
X1309017D01*
X1298522Y-45278D02*
X1303769D01*
X1314265Y-37407D02*
Y-47902D01*
X1319512Y-53150D01*
X1324760Y-47902D01*
Y-37407D01*
D41*
X1342520Y-110236D02*
Y-102365D01*
X1346455D01*
X1347767Y-103677D01*
Y-106300D01*
X1346455Y-107612D01*
X1342520D01*
X1345144D02*
X1347767Y-110236D01*
X1354327D02*
X1351703D01*
X1350391Y-108924D01*
Y-106300D01*
X1351703Y-104989D01*
X1354327D01*
X1355639Y-106300D01*
Y-107612D01*
X1350391D01*
X1358263Y-104989D02*
X1360886Y-110236D01*
X1363510Y-104989D01*
X988189Y-141735D02*
Y-149606D01*
X992125D01*
X993437Y-148294D01*
Y-143047D01*
X992125Y-141735D01*
X988189D01*
X999996Y-149606D02*
X997372D01*
X996060Y-148294D01*
Y-145671D01*
X997372Y-144359D01*
X999996D01*
X1001308Y-145671D01*
Y-146983D01*
X996060D01*
X1003932Y-149606D02*
X1007868D01*
X1009180Y-148294D01*
X1007868Y-146983D01*
X1005244D01*
X1003932Y-145671D01*
X1005244Y-144359D01*
X1009180D01*
X1014427Y-152230D02*
X1015739D01*
X1017051Y-150918D01*
Y-144359D01*
X1013115D01*
X1011803Y-145671D01*
Y-148294D01*
X1013115Y-149606D01*
X1017051D01*
X1019675D02*
X1022299D01*
X1020987D01*
Y-144359D01*
X1019675D01*
X1026235Y-149606D02*
Y-144359D01*
X1030170D01*
X1031482Y-145671D01*
Y-149606D01*
X1038042D02*
X1035418D01*
X1034106Y-148294D01*
Y-145671D01*
X1035418Y-144359D01*
X1038042D01*
X1039354Y-145671D01*
Y-146983D01*
X1034106D01*
X1041977Y-144359D02*
Y-149606D01*
Y-146983D01*
X1043289Y-145671D01*
X1044601Y-144359D01*
X1045913D01*
X1185039Y-23625D02*
Y-31496D01*
X1188975D01*
X1190287Y-30184D01*
Y-24937D01*
X1188975Y-23625D01*
X1185039D01*
X1194223Y-31496D02*
X1196847D01*
X1198158Y-30184D01*
Y-27560D01*
X1196847Y-26248D01*
X1194223D01*
X1192911Y-27560D01*
Y-30184D01*
X1194223Y-31496D01*
X1206030Y-26248D02*
X1202094D01*
X1200782Y-27560D01*
Y-30184D01*
X1202094Y-31496D01*
X1206030D01*
X1208654Y-26248D02*
Y-30184D01*
X1209966Y-31496D01*
X1213902D01*
Y-26248D01*
X1216525Y-31496D02*
Y-26248D01*
X1217837D01*
X1219149Y-27560D01*
Y-31496D01*
Y-27560D01*
X1220461Y-26248D01*
X1221773Y-27560D01*
Y-31496D01*
X1228333D02*
X1225709D01*
X1224397Y-30184D01*
Y-27560D01*
X1225709Y-26248D01*
X1228333D01*
X1229644Y-27560D01*
Y-28872D01*
X1224397D01*
X1232268Y-31496D02*
Y-26248D01*
X1236204D01*
X1237516Y-27560D01*
Y-31496D01*
X1241452Y-24937D02*
Y-26248D01*
X1240140D01*
X1242764D01*
X1241452D01*
Y-30184D01*
X1242764Y-31496D01*
X1185039Y-62995D02*
Y-70866D01*
X1190287D01*
X1194223Y-65618D02*
X1196847D01*
X1198158Y-66930D01*
Y-70866D01*
X1194223D01*
X1192911Y-69554D01*
X1194223Y-68242D01*
X1198158D01*
X1200782Y-65618D02*
Y-69554D01*
X1202094Y-70866D01*
X1206030D01*
Y-72178D01*
X1204718Y-73490D01*
X1203406D01*
X1206030Y-70866D02*
Y-65618D01*
X1212590Y-70866D02*
X1209966D01*
X1208654Y-69554D01*
Y-66930D01*
X1209966Y-65618D01*
X1212590D01*
X1213902Y-66930D01*
Y-68242D01*
X1208654D01*
X1216525Y-65618D02*
Y-70866D01*
Y-68242D01*
X1217837Y-66930D01*
X1219149Y-65618D01*
X1220461D01*
X1232268Y-70866D02*
Y-62995D01*
X1237516Y-70866D01*
Y-62995D01*
X1241452Y-65618D02*
X1244075D01*
X1245387Y-66930D01*
Y-70866D01*
X1241452D01*
X1240140Y-69554D01*
X1241452Y-68242D01*
X1245387D01*
X1248011Y-70866D02*
Y-65618D01*
X1249323D01*
X1250635Y-66930D01*
Y-70866D01*
Y-66930D01*
X1251947Y-65618D01*
X1253259Y-66930D01*
Y-70866D01*
X1259818D02*
X1257195D01*
X1255883Y-69554D01*
Y-66930D01*
X1257195Y-65618D01*
X1259818D01*
X1261130Y-66930D01*
Y-68242D01*
X1255883D01*
X1185039Y-102365D02*
Y-110236D01*
X1188975D01*
X1190287Y-108924D01*
Y-103677D01*
X1188975Y-102365D01*
X1185039D01*
X1194223Y-104989D02*
X1196847D01*
X1198158Y-106300D01*
Y-110236D01*
X1194223D01*
X1192911Y-108924D01*
X1194223Y-107612D01*
X1198158D01*
X1202094Y-103677D02*
Y-104989D01*
X1200782D01*
X1203406D01*
X1202094D01*
Y-108924D01*
X1203406Y-110236D01*
X1211278D02*
X1208654D01*
X1207342Y-108924D01*
Y-106300D01*
X1208654Y-104989D01*
X1211278D01*
X1212589Y-106300D01*
Y-107612D01*
X1207342D01*
X1185039Y-141735D02*
Y-149606D01*
X1188975D01*
X1190287Y-148294D01*
Y-143047D01*
X1188975Y-141735D01*
X1185039D01*
X1194223Y-149606D02*
X1196847D01*
X1198158Y-148294D01*
Y-145671D01*
X1196847Y-144359D01*
X1194223D01*
X1192911Y-145671D01*
Y-148294D01*
X1194223Y-149606D01*
X1206030Y-144359D02*
X1202094D01*
X1200782Y-145671D01*
Y-148294D01*
X1202094Y-149606D01*
X1206030D01*
X1208654Y-144359D02*
Y-148294D01*
X1209966Y-149606D01*
X1213902D01*
Y-144359D01*
X1216525Y-149606D02*
Y-144359D01*
X1217837D01*
X1219149Y-145671D01*
Y-149606D01*
Y-145671D01*
X1220461Y-144359D01*
X1221773Y-145671D01*
Y-149606D01*
X1228333D02*
X1225709D01*
X1224397Y-148294D01*
Y-145671D01*
X1225709Y-144359D01*
X1228333D01*
X1229644Y-145671D01*
Y-146983D01*
X1224397D01*
X1232268Y-149606D02*
Y-144359D01*
X1236204D01*
X1237516Y-145671D01*
Y-149606D01*
X1241452Y-143047D02*
Y-144359D01*
X1240140D01*
X1242764D01*
X1241452D01*
Y-148294D01*
X1242764Y-149606D01*
M02*
