G04 Layer_Physical_Order=2*
G04 Layer_Color=40191*
%FSLAX25Y25*%
%MOIN*%
G70*
G01*
G75*
%ADD10C,0.00787*%
%ADD12C,0.01181*%
%ADD14C,0.01575*%
%ADD41C,0.00984*%
%ADD42C,0.05118*%
%ADD43R,0.05906X0.05906*%
%ADD44C,0.05906*%
G04:AMPARAMS|DCode=45|XSize=59.06mil|YSize=59.06mil|CornerRadius=14.76mil|HoleSize=0mil|Usage=FLASHONLY|Rotation=180.000|XOffset=0mil|YOffset=0mil|HoleType=Round|Shape=RoundedRectangle|*
%AMROUNDEDRECTD45*
21,1,0.05906,0.02953,0,0,180.0*
21,1,0.02953,0.05906,0,0,180.0*
1,1,0.02953,-0.01476,0.01476*
1,1,0.02953,0.01476,0.01476*
1,1,0.02953,0.01476,-0.01476*
1,1,0.02953,-0.01476,-0.01476*
%
%ADD45ROUNDEDRECTD45*%
G04:AMPARAMS|DCode=46|XSize=59.06mil|YSize=59.06mil|CornerRadius=14.76mil|HoleSize=0mil|Usage=FLASHONLY|Rotation=90.000|XOffset=0mil|YOffset=0mil|HoleType=Round|Shape=RoundedRectangle|*
%AMROUNDEDRECTD46*
21,1,0.05906,0.02953,0,0,90.0*
21,1,0.02953,0.05906,0,0,90.0*
1,1,0.02953,0.01476,0.01476*
1,1,0.02953,0.01476,-0.01476*
1,1,0.02953,-0.01476,-0.01476*
1,1,0.02953,-0.01476,0.01476*
%
%ADD46ROUNDEDRECTD46*%
%ADD47C,0.05906*%
%ADD48R,0.05906X0.05906*%
%ADD49C,0.12598*%
%ADD50C,0.03937*%
%ADD51C,0.02756*%
%ADD52C,0.03937*%
G36*
X166580Y159667D02*
X166897Y159620D01*
X167208Y159542D01*
X167509Y159434D01*
X167799Y159297D01*
X168074Y159132D01*
X168331Y158941D01*
X168551Y158742D01*
X168567Y158724D01*
X168590Y158704D01*
X168804Y158465D01*
X169007Y158179D01*
X169176Y157872D01*
X169311Y157547D01*
X169408Y157210D01*
X169467Y156864D01*
X169485Y156543D01*
X169482Y156513D01*
Y142128D01*
X169482D01*
X169500Y141679D01*
X169515Y141551D01*
X169553Y141234D01*
X169640Y140793D01*
X169762Y140362D01*
X169917Y139941D01*
X170105Y139533D01*
X170324Y139142D01*
X170574Y138769D01*
X170852Y138416D01*
X171156Y138087D01*
X171485Y137782D01*
X171838Y137504D01*
X172211Y137255D01*
X172602Y137036D01*
X173010Y136848D01*
X173431Y136693D01*
X173863Y136571D01*
X174303Y136483D01*
X174620Y136446D01*
X174749Y136431D01*
X175197Y136413D01*
Y136413D01*
X183071D01*
X183094Y136415D01*
X183357Y136400D01*
X183640Y136352D01*
X183916Y136273D01*
X184181Y136163D01*
X184432Y136024D01*
X184666Y135858D01*
X184880Y135667D01*
X185071Y135453D01*
X185237Y135219D01*
X185375Y134968D01*
X185485Y134703D01*
X185565Y134427D01*
X185613Y134145D01*
X185627Y133882D01*
X185626Y133858D01*
Y131303D01*
X185035Y131108D01*
X184937Y131241D01*
X184677Y131527D01*
X184390Y131787D01*
X184080Y132018D01*
X183748Y132217D01*
X183398Y132382D01*
X183034Y132512D01*
X182659Y132606D01*
X182276Y132663D01*
X181890Y132682D01*
X181503Y132663D01*
X181121Y132606D01*
X180745Y132512D01*
X180381Y132382D01*
X180032Y132217D01*
X179700Y132018D01*
X179389Y131787D01*
X179103Y131527D01*
X178843Y131241D01*
X178612Y130930D01*
X178413Y130598D01*
X178248Y130249D01*
X178118Y129884D01*
X178024Y129509D01*
X177967Y129127D01*
X177948Y128740D01*
X177967Y128354D01*
X178024Y127971D01*
X178118Y127596D01*
X178248Y127232D01*
X178413Y126882D01*
X178612Y126550D01*
X178843Y126240D01*
X179103Y125953D01*
X179389Y125693D01*
X179700Y125463D01*
X180032Y125264D01*
X180381Y125099D01*
X180745Y124968D01*
X181121Y124874D01*
X181503Y124817D01*
X181890Y124798D01*
X182276Y124817D01*
X182659Y124874D01*
X183034Y124968D01*
X183398Y125099D01*
X183748Y125264D01*
X184080Y125463D01*
X184390Y125693D01*
X184677Y125953D01*
X184937Y126240D01*
X185035Y126372D01*
X185626Y126177D01*
Y121303D01*
X185035Y121108D01*
X184937Y121241D01*
X184677Y121527D01*
X184390Y121787D01*
X184080Y122018D01*
X183748Y122216D01*
X183398Y122382D01*
X183034Y122512D01*
X182659Y122606D01*
X182276Y122663D01*
X181890Y122682D01*
X181503Y122663D01*
X181121Y122606D01*
X180745Y122512D01*
X180381Y122382D01*
X180032Y122216D01*
X179700Y122018D01*
X179389Y121787D01*
X179103Y121527D01*
X178843Y121241D01*
X178612Y120930D01*
X178413Y120598D01*
X178248Y120249D01*
X178118Y119884D01*
X178024Y119509D01*
X177967Y119126D01*
X177948Y118740D01*
X177967Y118354D01*
X178024Y117971D01*
X178118Y117596D01*
X178248Y117232D01*
X178413Y116882D01*
X178612Y116550D01*
X178843Y116240D01*
X179103Y115953D01*
X179389Y115693D01*
X179700Y115463D01*
X180032Y115264D01*
X180381Y115099D01*
X180745Y114968D01*
X181121Y114874D01*
X181503Y114817D01*
X181890Y114798D01*
X182276Y114817D01*
X182659Y114874D01*
X183034Y114968D01*
X183398Y115099D01*
X183748Y115264D01*
X184080Y115463D01*
X184390Y115693D01*
X184677Y115953D01*
X184937Y116240D01*
X185035Y116372D01*
X185626Y116177D01*
Y111303D01*
X185035Y111108D01*
X184937Y111241D01*
X184677Y111527D01*
X184390Y111787D01*
X184080Y112018D01*
X183748Y112216D01*
X183398Y112382D01*
X183034Y112512D01*
X182659Y112606D01*
X182276Y112663D01*
X181890Y112682D01*
X181503Y112663D01*
X181121Y112606D01*
X180745Y112512D01*
X180381Y112382D01*
X180032Y112216D01*
X179700Y112018D01*
X179389Y111787D01*
X179103Y111527D01*
X178843Y111241D01*
X178612Y110930D01*
X178413Y110598D01*
X178248Y110249D01*
X178118Y109884D01*
X178024Y109509D01*
X177967Y109126D01*
X177948Y108740D01*
X177967Y108354D01*
X178024Y107971D01*
X178118Y107596D01*
X178248Y107232D01*
X178413Y106882D01*
X178612Y106550D01*
X178843Y106239D01*
X179103Y105953D01*
X179389Y105693D01*
X179700Y105463D01*
X180032Y105264D01*
X180381Y105098D01*
X180745Y104968D01*
X181121Y104874D01*
X181503Y104817D01*
X181890Y104798D01*
X182276Y104817D01*
X182659Y104874D01*
X183034Y104968D01*
X183398Y105098D01*
X183748Y105264D01*
X184080Y105463D01*
X184390Y105693D01*
X184677Y105953D01*
X184937Y106239D01*
X185035Y106372D01*
X185626Y106177D01*
Y101303D01*
X185035Y101108D01*
X184937Y101241D01*
X184677Y101527D01*
X184390Y101787D01*
X184080Y102018D01*
X183748Y102216D01*
X183398Y102382D01*
X183034Y102512D01*
X182659Y102606D01*
X182276Y102663D01*
X181890Y102682D01*
X181503Y102663D01*
X181121Y102606D01*
X180745Y102512D01*
X180381Y102382D01*
X180032Y102216D01*
X179700Y102018D01*
X179389Y101787D01*
X179103Y101527D01*
X178843Y101241D01*
X178612Y100930D01*
X178413Y100598D01*
X178248Y100249D01*
X178118Y99884D01*
X178024Y99509D01*
X177967Y99126D01*
X177948Y98740D01*
X177967Y98354D01*
X178024Y97971D01*
X178118Y97596D01*
X178248Y97232D01*
X178413Y96882D01*
X178612Y96550D01*
X178843Y96240D01*
X179103Y95953D01*
X179389Y95693D01*
X179700Y95463D01*
X180032Y95264D01*
X180381Y95099D01*
X180745Y94968D01*
X181121Y94874D01*
X181503Y94817D01*
X181890Y94798D01*
X182276Y94817D01*
X182659Y94874D01*
X183034Y94968D01*
X183398Y95099D01*
X183748Y95264D01*
X184080Y95463D01*
X184390Y95693D01*
X184677Y95953D01*
X184937Y96240D01*
X185035Y96372D01*
X185626Y96177D01*
Y91303D01*
X185035Y91108D01*
X184937Y91241D01*
X184677Y91527D01*
X184390Y91787D01*
X184080Y92018D01*
X183748Y92216D01*
X183398Y92382D01*
X183034Y92512D01*
X182659Y92606D01*
X182276Y92663D01*
X181890Y92682D01*
X181503Y92663D01*
X181121Y92606D01*
X180745Y92512D01*
X180381Y92382D01*
X180032Y92216D01*
X179700Y92018D01*
X179389Y91787D01*
X179103Y91527D01*
X178843Y91241D01*
X178612Y90930D01*
X178413Y90598D01*
X178248Y90249D01*
X178118Y89884D01*
X178024Y89509D01*
X177967Y89126D01*
X177948Y88740D01*
X177967Y88354D01*
X178024Y87971D01*
X178118Y87596D01*
X178248Y87232D01*
X178413Y86882D01*
X178612Y86550D01*
X178843Y86239D01*
X179103Y85953D01*
X179389Y85693D01*
X179700Y85463D01*
X180032Y85264D01*
X180381Y85098D01*
X180745Y84968D01*
X181121Y84874D01*
X181503Y84817D01*
X181890Y84798D01*
X182276Y84817D01*
X182659Y84874D01*
X183034Y84968D01*
X183398Y85098D01*
X183748Y85264D01*
X184080Y85463D01*
X184390Y85693D01*
X184677Y85953D01*
X184937Y86239D01*
X185035Y86372D01*
X185626Y86177D01*
Y82693D01*
X182390D01*
Y78740D01*
Y74787D01*
X185626D01*
Y69685D01*
X177953D01*
Y62475D01*
X177362Y62230D01*
X173198Y66395D01*
X173172Y66417D01*
X172809Y66804D01*
X172451Y67240D01*
X172123Y67699D01*
X171825Y68178D01*
X171559Y68675D01*
X171326Y69189D01*
X171127Y69717D01*
X170964Y70257D01*
X170835Y70807D01*
X170744Y71363D01*
X170688Y71925D01*
X170671Y72455D01*
X170674Y72489D01*
Y82728D01*
X170732Y82768D01*
X170965Y82972D01*
X171169Y83205D01*
X171342Y83462D01*
X171478Y83740D01*
X171578Y84033D01*
X171638Y84337D01*
X171659Y84646D01*
X171638Y84955D01*
X171578Y85258D01*
X171478Y85552D01*
X171342Y85829D01*
X171169Y86087D01*
X170965Y86320D01*
X170732Y86524D01*
X170475Y86696D01*
X170197Y86833D01*
X169904Y86932D01*
X169600Y86993D01*
X169291Y87013D01*
X168982Y86993D01*
X168679Y86932D01*
X168385Y86833D01*
X168108Y86696D01*
X167850Y86524D01*
X167617Y86320D01*
X167413Y86087D01*
X167241Y85829D01*
X167104Y85552D01*
X167005Y85258D01*
X166944Y84955D01*
X166924Y84646D01*
X166944Y84337D01*
X167005Y84033D01*
X167104Y83740D01*
X167241Y83462D01*
X167413Y83205D01*
X167617Y82972D01*
X167850Y82768D01*
X167909Y82728D01*
Y72489D01*
X167909D01*
X167927Y71850D01*
X167981Y71214D01*
X168070Y70582D01*
X168194Y69956D01*
X168354Y69337D01*
X168548Y68729D01*
X168775Y68133D01*
X169036Y67550D01*
X169329Y66983D01*
X169654Y66433D01*
X170008Y65902D01*
X170392Y65392D01*
X170804Y64904D01*
X171243Y64440D01*
X171243Y64440D01*
X178305Y57378D01*
X178248Y57257D01*
X178118Y56892D01*
X178024Y56517D01*
X177967Y56134D01*
X177948Y55748D01*
X177967Y55362D01*
X178024Y54979D01*
X178118Y54604D01*
X178248Y54240D01*
X178413Y53890D01*
X178612Y53558D01*
X178843Y53247D01*
X179103Y52961D01*
X179389Y52701D01*
X179700Y52471D01*
X180032Y52272D01*
X180381Y52106D01*
X180745Y51976D01*
X181121Y51882D01*
X181503Y51825D01*
X181890Y51806D01*
X182276Y51825D01*
X182659Y51882D01*
X183034Y51976D01*
X183398Y52106D01*
X183748Y52272D01*
X184080Y52471D01*
X184390Y52701D01*
X184677Y52961D01*
X184937Y53247D01*
X185035Y53380D01*
X185626Y53185D01*
Y48311D01*
X185035Y48116D01*
X184937Y48249D01*
X184677Y48535D01*
X184390Y48795D01*
X184080Y49025D01*
X183748Y49224D01*
X183398Y49390D01*
X183034Y49520D01*
X182659Y49614D01*
X182276Y49671D01*
X181890Y49690D01*
X181503Y49671D01*
X181121Y49614D01*
X180745Y49520D01*
X180381Y49390D01*
X180032Y49224D01*
X179700Y49025D01*
X179389Y48795D01*
X179103Y48535D01*
X178843Y48249D01*
X178612Y47938D01*
X178413Y47606D01*
X178248Y47256D01*
X178118Y46892D01*
X178024Y46517D01*
X177967Y46134D01*
X177948Y45748D01*
X177967Y45362D01*
X178024Y44979D01*
X178118Y44604D01*
X178248Y44240D01*
X178413Y43890D01*
X178612Y43558D01*
X178843Y43247D01*
X179103Y42961D01*
X179389Y42701D01*
X179700Y42471D01*
X180032Y42272D01*
X180381Y42106D01*
X180745Y41976D01*
X181121Y41882D01*
X181503Y41825D01*
X181890Y41806D01*
X182276Y41825D01*
X182659Y41882D01*
X183034Y41976D01*
X183398Y42106D01*
X183748Y42272D01*
X184080Y42471D01*
X184390Y42701D01*
X184677Y42961D01*
X184937Y43247D01*
X185035Y43380D01*
X185626Y43185D01*
Y38338D01*
X185035Y38142D01*
X184949Y38259D01*
X184688Y38546D01*
X184400Y38807D01*
X184088Y39039D01*
X183755Y39238D01*
X183404Y39404D01*
X183039Y39535D01*
X182662Y39630D01*
X182390Y39670D01*
Y35748D01*
Y31826D01*
X182662Y31867D01*
X183039Y31961D01*
X183404Y32092D01*
X183755Y32258D01*
X184088Y32458D01*
X184400Y32689D01*
X184688Y32950D01*
X184949Y33237D01*
X185035Y33354D01*
X185626Y33158D01*
Y25591D01*
X185627Y25571D01*
X185610Y25438D01*
X185551Y25295D01*
X185457Y25173D01*
X185335Y25079D01*
X185192Y25020D01*
X185059Y25003D01*
X185039Y25004D01*
X177165D01*
Y25005D01*
X176702Y24985D01*
X176589Y24970D01*
X176242Y24924D01*
X175788Y24824D01*
X175346Y24684D01*
X174917Y24507D01*
X174505Y24292D01*
X174114Y24043D01*
X173746Y23760D01*
X173404Y23447D01*
X173090Y23105D01*
X172807Y22737D01*
X172558Y22345D01*
X172344Y21933D01*
X172166Y21505D01*
X172027Y21062D01*
X171926Y20609D01*
X171880Y20261D01*
X171866Y20149D01*
X171845Y19685D01*
X171846D01*
Y3937D01*
X171848Y3914D01*
X171833Y3651D01*
X171785Y3368D01*
X171706Y3092D01*
X171596Y2827D01*
X171457Y2576D01*
X171291Y2342D01*
X171100Y2128D01*
X170886Y1937D01*
X170652Y1771D01*
X170401Y1632D01*
X170136Y1523D01*
X169860Y1443D01*
X169653Y1408D01*
X169650Y1409D01*
X169650Y1409D01*
X169424Y1464D01*
X169192Y1482D01*
Y1481D01*
X165195D01*
X164931Y2072D01*
X164950Y2093D01*
X165142Y2364D01*
X165302Y2654D01*
X165429Y2960D01*
X165521Y3279D01*
X165577Y3606D01*
X165595Y3937D01*
Y7384D01*
X165651Y7424D01*
X165857Y7608D01*
X166041Y7814D01*
X166201Y8039D01*
X166335Y8281D01*
X166440Y8536D01*
X166517Y8802D01*
X166563Y9075D01*
X166579Y9350D01*
Y12303D01*
X166563Y12579D01*
X166517Y12852D01*
X166440Y13117D01*
X166335Y13373D01*
X166201Y13614D01*
X166041Y13840D01*
X165857Y14046D01*
X165651Y14230D01*
X165425Y14390D01*
X165183Y14524D01*
X164928Y14629D01*
X164663Y14706D01*
X164390Y14752D01*
X164114Y14768D01*
X161161D01*
X160886Y14752D01*
X160613Y14706D01*
X160347Y14629D01*
X160092Y14524D01*
X159850Y14390D01*
X159625Y14230D01*
X159419Y14046D01*
X159235Y13840D01*
X159075Y13614D01*
X158941Y13373D01*
X158835Y13117D01*
X158759Y12852D01*
X158712Y12579D01*
X158697Y12303D01*
Y9350D01*
X158712Y9075D01*
X158759Y8802D01*
X158835Y8536D01*
X158941Y8281D01*
X159075Y8039D01*
X159235Y7814D01*
X159419Y7608D01*
X159556Y7485D01*
X159523Y7208D01*
X159374Y6894D01*
X154884D01*
X154720Y7485D01*
X154828Y7549D01*
X155138Y7780D01*
X155425Y8039D01*
X155685Y8326D01*
X155915Y8637D01*
X156114Y8969D01*
X156280Y9318D01*
X156410Y9683D01*
X156504Y10058D01*
X156561Y10440D01*
X156579Y10827D01*
X156561Y11213D01*
X156504Y11596D01*
X156410Y11971D01*
X156280Y12335D01*
X156114Y12685D01*
X155915Y13017D01*
X155685Y13327D01*
X155425Y13614D01*
X155138Y13874D01*
X154828Y14104D01*
X154496Y14303D01*
X154146Y14469D01*
X153782Y14599D01*
X153407Y14693D01*
X153024Y14750D01*
X152638Y14769D01*
X152251Y14750D01*
X151869Y14693D01*
X151494Y14599D01*
X151129Y14469D01*
X150780Y14303D01*
X150448Y14104D01*
X150137Y13874D01*
X149851Y13614D01*
X149591Y13327D01*
X149360Y13017D01*
X149162Y12685D01*
X148996Y12335D01*
X148866Y11971D01*
X148772Y11596D01*
X148715Y11213D01*
X148696Y10827D01*
X148715Y10440D01*
X148772Y10058D01*
X148866Y9683D01*
X148996Y9318D01*
X149162Y8969D01*
X149360Y8637D01*
X149591Y8326D01*
X149851Y8039D01*
X150137Y7780D01*
X150448Y7549D01*
X150555Y7485D01*
X150392Y6894D01*
X144884D01*
X144720Y7485D01*
X144828Y7549D01*
X145138Y7780D01*
X145425Y8039D01*
X145685Y8326D01*
X145915Y8637D01*
X146114Y8969D01*
X146280Y9318D01*
X146410Y9683D01*
X146504Y10058D01*
X146561Y10440D01*
X146580Y10827D01*
X146561Y11213D01*
X146504Y11596D01*
X146410Y11971D01*
X146280Y12335D01*
X146114Y12685D01*
X145915Y13017D01*
X145685Y13327D01*
X145425Y13614D01*
X145138Y13874D01*
X144828Y14104D01*
X144496Y14303D01*
X144146Y14469D01*
X143782Y14599D01*
X143407Y14693D01*
X143024Y14750D01*
X142638Y14769D01*
X142251Y14750D01*
X141869Y14693D01*
X141494Y14599D01*
X141129Y14469D01*
X140780Y14303D01*
X140448Y14104D01*
X140137Y13874D01*
X139851Y13614D01*
X139591Y13327D01*
X139360Y13017D01*
X139162Y12685D01*
X138996Y12335D01*
X138866Y11971D01*
X138772Y11596D01*
X138715Y11213D01*
X138696Y10827D01*
X138715Y10440D01*
X138772Y10058D01*
X138866Y9683D01*
X138996Y9318D01*
X139162Y8969D01*
X139360Y8637D01*
X139591Y8326D01*
X139851Y8039D01*
X140137Y7780D01*
X140448Y7549D01*
X140555Y7485D01*
X140392Y6894D01*
X135953D01*
X135791Y7181D01*
X135743Y7485D01*
X135868Y7597D01*
X136053Y7804D01*
X136214Y8031D01*
X136349Y8274D01*
X136455Y8531D01*
X136532Y8799D01*
X136579Y9073D01*
X136594Y9350D01*
Y10327D01*
X128681D01*
Y9350D01*
X128697Y9073D01*
X128743Y8799D01*
X128820Y8531D01*
X128927Y8274D01*
X129061Y8031D01*
X129222Y7804D01*
X129408Y7597D01*
X129533Y7485D01*
X129485Y7181D01*
X129323Y6894D01*
X116689D01*
X116540Y7208D01*
X116507Y7485D01*
X116644Y7608D01*
X116828Y7814D01*
X116988Y8039D01*
X117122Y8281D01*
X117228Y8536D01*
X117304Y8802D01*
X117351Y9075D01*
X117366Y9350D01*
Y12303D01*
X117351Y12579D01*
X117304Y12852D01*
X117228Y13117D01*
X117122Y13373D01*
X116988Y13614D01*
X116828Y13840D01*
X116644Y14046D01*
X116438Y14230D01*
X116213Y14390D01*
X115971Y14524D01*
X115716Y14629D01*
X115450Y14706D01*
X115178Y14752D01*
X114902Y14768D01*
X111949D01*
X111673Y14752D01*
X111400Y14706D01*
X111135Y14629D01*
X110880Y14524D01*
X110638Y14390D01*
X110412Y14230D01*
X110206Y14046D01*
X110022Y13840D01*
X109862Y13614D01*
X109728Y13373D01*
X109623Y13117D01*
X109546Y12852D01*
X109500Y12579D01*
X109484Y12303D01*
Y9350D01*
X109500Y9075D01*
X109546Y8802D01*
X109623Y8536D01*
X109728Y8281D01*
X109862Y8039D01*
X110022Y7814D01*
X110206Y7608D01*
X110344Y7485D01*
X110310Y7208D01*
X110162Y6894D01*
X105671D01*
X105508Y7485D01*
X105615Y7549D01*
X105926Y7780D01*
X106212Y8039D01*
X106472Y8326D01*
X106703Y8637D01*
X106902Y8969D01*
X107067Y9318D01*
X107197Y9683D01*
X107291Y10058D01*
X107348Y10440D01*
X107367Y10827D01*
X107348Y11213D01*
X107291Y11596D01*
X107197Y11971D01*
X107067Y12335D01*
X106902Y12685D01*
X106703Y13017D01*
X106472Y13327D01*
X106212Y13614D01*
X105926Y13874D01*
X105615Y14104D01*
X105283Y14303D01*
X104934Y14469D01*
X104569Y14599D01*
X104194Y14693D01*
X103812Y14750D01*
X103425Y14769D01*
X103039Y14750D01*
X102656Y14693D01*
X102281Y14599D01*
X101917Y14469D01*
X101567Y14303D01*
X101235Y14104D01*
X100925Y13874D01*
X100638Y13614D01*
X100378Y13327D01*
X100148Y13017D01*
X99949Y12685D01*
X99783Y12335D01*
X99653Y11971D01*
X99559Y11596D01*
X99502Y11213D01*
X99484Y10827D01*
X99502Y10440D01*
X99559Y10058D01*
X99653Y9683D01*
X99783Y9318D01*
X99949Y8969D01*
X100148Y8637D01*
X100378Y8326D01*
X100638Y8039D01*
X100925Y7780D01*
X101235Y7549D01*
X101343Y7485D01*
X101179Y6894D01*
X95671D01*
X95508Y7485D01*
X95615Y7549D01*
X95926Y7780D01*
X96212Y8039D01*
X96472Y8326D01*
X96703Y8637D01*
X96902Y8969D01*
X97067Y9318D01*
X97197Y9683D01*
X97291Y10058D01*
X97348Y10440D01*
X97367Y10827D01*
X97348Y11213D01*
X97291Y11596D01*
X97197Y11971D01*
X97067Y12335D01*
X96902Y12685D01*
X96703Y13017D01*
X96472Y13327D01*
X96212Y13614D01*
X95926Y13874D01*
X95615Y14104D01*
X95283Y14303D01*
X94934Y14469D01*
X94569Y14599D01*
X94194Y14693D01*
X93812Y14750D01*
X93425Y14769D01*
X93039Y14750D01*
X92656Y14693D01*
X92281Y14599D01*
X91917Y14469D01*
X91567Y14303D01*
X91235Y14104D01*
X90925Y13874D01*
X90638Y13614D01*
X90378Y13327D01*
X90148Y13017D01*
X89949Y12685D01*
X89784Y12335D01*
X89653Y11971D01*
X89559Y11596D01*
X89502Y11213D01*
X89483Y10827D01*
X89502Y10440D01*
X89559Y10058D01*
X89653Y9683D01*
X89784Y9318D01*
X89949Y8969D01*
X90148Y8637D01*
X90378Y8326D01*
X90638Y8039D01*
X90925Y7780D01*
X91235Y7549D01*
X91343Y7485D01*
X91179Y6894D01*
X86740D01*
X86578Y7181D01*
X86531Y7485D01*
X86655Y7597D01*
X86841Y7804D01*
X87002Y8031D01*
X87136Y8274D01*
X87243Y8531D01*
X87320Y8799D01*
X87366Y9073D01*
X87382Y9350D01*
Y10327D01*
X79469D01*
Y9350D01*
X79484Y9073D01*
X79531Y8799D01*
X79608Y8531D01*
X79714Y8274D01*
X79849Y8031D01*
X80010Y7804D01*
X80195Y7597D01*
X80320Y7485D01*
X80272Y7181D01*
X80110Y6894D01*
X67476D01*
X67327Y7208D01*
X67294Y7485D01*
X67432Y7608D01*
X67616Y7814D01*
X67776Y8039D01*
X67909Y8281D01*
X68015Y8536D01*
X68092Y8802D01*
X68138Y9075D01*
X68154Y9350D01*
Y12303D01*
X68138Y12579D01*
X68092Y12852D01*
X68015Y13117D01*
X67909Y13373D01*
X67776Y13614D01*
X67616Y13840D01*
X67432Y14046D01*
X67226Y14230D01*
X67000Y14390D01*
X66758Y14524D01*
X66503Y14629D01*
X66237Y14706D01*
X65965Y14752D01*
X65689Y14768D01*
X62736D01*
X62460Y14752D01*
X62188Y14706D01*
X61922Y14629D01*
X61667Y14524D01*
X61425Y14390D01*
X61200Y14230D01*
X60994Y14046D01*
X60809Y13840D01*
X60650Y13614D01*
X60516Y13373D01*
X60410Y13117D01*
X60334Y12852D01*
X60287Y12579D01*
X60272Y12303D01*
Y9350D01*
X60287Y9075D01*
X60334Y8802D01*
X60410Y8536D01*
X60516Y8281D01*
X60650Y8039D01*
X60809Y7814D01*
X60994Y7608D01*
X61131Y7485D01*
X61098Y7208D01*
X60949Y6894D01*
X56459D01*
X56295Y7485D01*
X56402Y7549D01*
X56713Y7780D01*
X57000Y8039D01*
X57260Y8326D01*
X57490Y8637D01*
X57689Y8969D01*
X57854Y9318D01*
X57985Y9683D01*
X58079Y10058D01*
X58135Y10440D01*
X58154Y10827D01*
X58135Y11213D01*
X58079Y11596D01*
X57985Y11971D01*
X57854Y12335D01*
X57689Y12685D01*
X57490Y13017D01*
X57260Y13327D01*
X57000Y13614D01*
X56713Y13874D01*
X56402Y14104D01*
X56071Y14303D01*
X55721Y14469D01*
X55357Y14599D01*
X54982Y14693D01*
X54599Y14750D01*
X54213Y14769D01*
X53826Y14750D01*
X53444Y14693D01*
X53068Y14599D01*
X52704Y14469D01*
X52355Y14303D01*
X52023Y14104D01*
X51712Y13874D01*
X51425Y13614D01*
X51166Y13327D01*
X50935Y13017D01*
X50736Y12685D01*
X50571Y12335D01*
X50441Y11971D01*
X50347Y11596D01*
X50290Y11213D01*
X50271Y10827D01*
X50290Y10440D01*
X50347Y10058D01*
X50441Y9683D01*
X50571Y9318D01*
X50736Y8969D01*
X50935Y8637D01*
X51166Y8326D01*
X51425Y8039D01*
X51712Y7780D01*
X52023Y7549D01*
X52130Y7485D01*
X51967Y6894D01*
X46459D01*
X46295Y7485D01*
X46402Y7549D01*
X46713Y7780D01*
X47000Y8039D01*
X47260Y8326D01*
X47490Y8637D01*
X47689Y8969D01*
X47854Y9318D01*
X47985Y9683D01*
X48079Y10058D01*
X48135Y10440D01*
X48154Y10827D01*
X48135Y11213D01*
X48079Y11596D01*
X47985Y11971D01*
X47854Y12335D01*
X47689Y12685D01*
X47490Y13017D01*
X47260Y13327D01*
X47000Y13614D01*
X46713Y13874D01*
X46402Y14104D01*
X46071Y14303D01*
X45721Y14469D01*
X45357Y14599D01*
X44982Y14693D01*
X44599Y14750D01*
X44213Y14769D01*
X43826Y14750D01*
X43444Y14693D01*
X43068Y14599D01*
X42704Y14469D01*
X42355Y14303D01*
X42023Y14104D01*
X41712Y13874D01*
X41425Y13614D01*
X41166Y13327D01*
X40935Y13017D01*
X40736Y12685D01*
X40571Y12335D01*
X40441Y11971D01*
X40347Y11596D01*
X40290Y11213D01*
X40271Y10827D01*
X40290Y10440D01*
X40347Y10058D01*
X40441Y9683D01*
X40571Y9318D01*
X40736Y8969D01*
X40935Y8637D01*
X41166Y8326D01*
X41425Y8039D01*
X41712Y7780D01*
X42023Y7549D01*
X42130Y7485D01*
X41967Y6894D01*
X37527D01*
X37365Y7181D01*
X37318Y7485D01*
X37443Y7597D01*
X37628Y7804D01*
X37789Y8031D01*
X37924Y8274D01*
X38030Y8531D01*
X38107Y8799D01*
X38154Y9073D01*
X38169Y9350D01*
Y10327D01*
X34213D01*
Y10827D01*
X33713D01*
Y14783D01*
X32736D01*
X32458Y14768D01*
X32184Y14721D01*
X31917Y14644D01*
X31660Y14538D01*
X31417Y14403D01*
X31190Y14242D01*
X31107Y14168D01*
X30672Y14300D01*
X30516Y14422D01*
Y22835D01*
X30498Y23166D01*
X30442Y23493D01*
X30351Y23811D01*
X30224Y24118D01*
X30063Y24408D01*
X29871Y24679D01*
X29650Y24926D01*
X24926Y29650D01*
X24679Y29871D01*
X24408Y30063D01*
X24118Y30224D01*
X23811Y30351D01*
X23493Y30442D01*
X23166Y30498D01*
X22835Y30516D01*
X18154D01*
X15949Y32721D01*
Y35238D01*
X15995Y35301D01*
X16540Y35581D01*
X16542Y35580D01*
X16799Y35474D01*
X17066Y35397D01*
X17340Y35350D01*
X17618Y35335D01*
X18595D01*
Y39291D01*
Y43248D01*
X17618D01*
X17340Y43232D01*
X17066Y43186D01*
X16799Y43109D01*
X16542Y43002D01*
X16540Y43001D01*
X15995Y43282D01*
X15949Y43344D01*
Y45258D01*
X16003Y45328D01*
X16540Y45599D01*
X16549Y45594D01*
X16804Y45489D01*
X17070Y45412D01*
X17342Y45366D01*
X17618Y45351D01*
X20571D01*
X20847Y45366D01*
X21119Y45412D01*
X21385Y45489D01*
X21640Y45594D01*
X21882Y45728D01*
X22107Y45888D01*
X22313Y46072D01*
X22498Y46278D01*
X22658Y46504D01*
X22791Y46746D01*
X22897Y47001D01*
X22974Y47267D01*
X23020Y47539D01*
X23035Y47815D01*
Y50768D01*
X23020Y51044D01*
X22974Y51316D01*
X22897Y51582D01*
X22791Y51837D01*
X22658Y52079D01*
X22498Y52304D01*
X22313Y52510D01*
X22107Y52694D01*
X21882Y52855D01*
X21640Y52988D01*
X21385Y53094D01*
X21119Y53170D01*
X20847Y53217D01*
X20571Y53232D01*
X17618D01*
X17342Y53217D01*
X17070Y53170D01*
X16804Y53094D01*
X16549Y52988D01*
X16540Y52983D01*
X16003Y53254D01*
X15949Y53325D01*
Y87003D01*
X19685D01*
X20016Y87022D01*
X20343Y87077D01*
X20662Y87169D01*
X20968Y87296D01*
X21259Y87457D01*
X21529Y87648D01*
X21776Y87869D01*
X21997Y88117D01*
X22189Y88387D01*
X22350Y88678D01*
X22477Y88984D01*
X22568Y89302D01*
X22624Y89630D01*
X22642Y89961D01*
X22624Y90292D01*
X22568Y90619D01*
X22477Y90937D01*
X22350Y91244D01*
X22189Y91534D01*
X21997Y91804D01*
X21776Y92052D01*
X21529Y92273D01*
X21259Y92465D01*
X20968Y92625D01*
X20662Y92752D01*
X20343Y92844D01*
X20016Y92899D01*
X19685Y92918D01*
X12992D01*
X12661Y92899D01*
X12334Y92844D01*
X12015Y92752D01*
X11856Y92686D01*
X11462Y92865D01*
X11266Y93055D01*
Y133957D01*
X11264Y133981D01*
X11279Y134244D01*
X11327Y134527D01*
X11406Y134802D01*
X11516Y135067D01*
X11655Y135318D01*
X11821Y135552D01*
X12012Y135766D01*
X12226Y135957D01*
X12460Y136123D01*
X12711Y136262D01*
X12976Y136372D01*
X13251Y136451D01*
X13534Y136499D01*
X13797Y136514D01*
X13821Y136512D01*
X21695D01*
Y136512D01*
X22143Y136530D01*
X22272Y136545D01*
X22589Y136582D01*
X23029Y136670D01*
X23460Y136792D01*
X23881Y136947D01*
X24289Y137135D01*
X24680Y137354D01*
X25054Y137603D01*
X25406Y137881D01*
X25735Y138186D01*
X26040Y138515D01*
X26318Y138868D01*
X26567Y139241D01*
X26786Y139632D01*
X26974Y140040D01*
X27130Y140461D01*
X27251Y140893D01*
X27339Y141333D01*
X27376Y141650D01*
X27392Y141778D01*
X27409Y142227D01*
X27409D01*
Y156612D01*
X27407Y156641D01*
X27424Y156947D01*
X27480Y157278D01*
X27573Y157600D01*
X27701Y157910D01*
X27863Y158203D01*
X28058Y158477D01*
X28262Y158705D01*
X28284Y158724D01*
X28299Y158742D01*
X28519Y158941D01*
X28776Y159132D01*
X29051Y159297D01*
X29341Y159434D01*
X29643Y159542D01*
X29954Y159620D01*
X30270Y159667D01*
X30566Y159681D01*
X30591Y159680D01*
X65701D01*
X65730Y159644D01*
X65880Y159521D01*
X66051Y159430D01*
X66236Y159374D01*
X66429Y159355D01*
X130251D01*
X130444Y159374D01*
X130630Y159430D01*
X130801Y159521D01*
X130951Y159644D01*
X130980Y159680D01*
X166260D01*
X166284Y159681D01*
X166580Y159667D01*
D02*
G37*
%LPC*%
G36*
X151732Y45118D02*
X143858D01*
Y37244D01*
X151732D01*
Y45118D01*
D02*
G37*
G36*
X20571Y43248D02*
X19594D01*
Y39791D01*
X23051D01*
Y40768D01*
X23035Y41045D01*
X22989Y41320D01*
X22912Y41587D01*
X22806Y41844D01*
X22671Y42087D01*
X22510Y42314D01*
X22325Y42522D01*
X22117Y42707D01*
X21891Y42868D01*
X21647Y43002D01*
X21390Y43109D01*
X21123Y43186D01*
X20849Y43232D01*
X20571Y43248D01*
D02*
G37*
G36*
X65354Y41737D02*
X65023Y41718D01*
X64696Y41663D01*
X64378Y41571D01*
X64071Y41444D01*
X63781Y41284D01*
X63510Y41092D01*
X63263Y40871D01*
X63042Y40623D01*
X62850Y40353D01*
X62690Y40063D01*
X62563Y39756D01*
X62471Y39438D01*
X62415Y39111D01*
X62397Y38780D01*
X62415Y38448D01*
X62471Y38121D01*
X62563Y37803D01*
X62690Y37496D01*
X62850Y37206D01*
X63042Y36936D01*
X63263Y36688D01*
X63510Y36467D01*
X63781Y36275D01*
X64071Y36115D01*
X64378Y35988D01*
X64696Y35896D01*
X65023Y35841D01*
X65354Y35822D01*
X65685Y35841D01*
X66012Y35896D01*
X66331Y35988D01*
X66637Y36115D01*
X66928Y36275D01*
X67198Y36467D01*
X67445Y36688D01*
X67667Y36936D01*
X67858Y37206D01*
X68019Y37496D01*
X68146Y37803D01*
X68238Y38121D01*
X68293Y38448D01*
X68312Y38780D01*
X68293Y39111D01*
X68238Y39438D01*
X68146Y39756D01*
X68019Y40063D01*
X67858Y40353D01*
X67667Y40623D01*
X67445Y40871D01*
X67198Y41092D01*
X66928Y41284D01*
X66637Y41444D01*
X66331Y41571D01*
X66012Y41663D01*
X65685Y41718D01*
X65354Y41737D01*
D02*
G37*
G36*
X181390Y39670D02*
X181118Y39630D01*
X180741Y39535D01*
X180375Y39404D01*
X180024Y39238D01*
X179691Y39039D01*
X179379Y38807D01*
X179091Y38546D01*
X178831Y38259D01*
X178599Y37947D01*
X178400Y37614D01*
X178234Y37262D01*
X178103Y36897D01*
X178008Y36520D01*
X177968Y36248D01*
X181390D01*
Y39670D01*
D02*
G37*
G36*
X64854Y49186D02*
X64693Y49158D01*
X64372Y49066D01*
X64064Y48939D01*
X63772Y48777D01*
X63501Y48584D01*
X63252Y48362D01*
X63030Y48114D01*
X62837Y47842D01*
X62676Y47550D01*
X62548Y47242D01*
X62456Y46921D01*
X62428Y46760D01*
X64854D01*
Y49186D01*
D02*
G37*
G36*
X65854D02*
Y46760D01*
X68280D01*
X68253Y46921D01*
X68161Y47242D01*
X68033Y47550D01*
X67872Y47842D01*
X67679Y48114D01*
X67457Y48362D01*
X67208Y48584D01*
X66936Y48777D01*
X66644Y48939D01*
X66336Y49066D01*
X66016Y49158D01*
X65854Y49186D01*
D02*
G37*
G36*
X64854Y45760D02*
X62428D01*
X62456Y45598D01*
X62548Y45278D01*
X62676Y44970D01*
X62837Y44678D01*
X63030Y44406D01*
X63252Y44157D01*
X63501Y43935D01*
X63772Y43742D01*
X64064Y43581D01*
X64372Y43453D01*
X64693Y43361D01*
X64854Y43334D01*
Y45760D01*
D02*
G37*
G36*
X68280D02*
X65854D01*
Y43334D01*
X66016Y43361D01*
X66336Y43453D01*
X66644Y43581D01*
X66936Y43742D01*
X67208Y43935D01*
X67457Y44157D01*
X67679Y44406D01*
X67872Y44678D01*
X68033Y44970D01*
X68161Y45278D01*
X68253Y45598D01*
X68280Y45760D01*
D02*
G37*
G36*
X84902Y14783D02*
X83925D01*
Y11327D01*
X87382D01*
Y12303D01*
X87366Y12581D01*
X87320Y12855D01*
X87243Y13122D01*
X87136Y13379D01*
X87002Y13623D01*
X86841Y13850D01*
X86655Y14057D01*
X86448Y14242D01*
X86221Y14403D01*
X85978Y14538D01*
X85721Y14644D01*
X85453Y14721D01*
X85179Y14768D01*
X84902Y14783D01*
D02*
G37*
G36*
X132138Y14783D02*
X131161D01*
X130884Y14768D01*
X130610Y14721D01*
X130342Y14644D01*
X130085Y14538D01*
X129842Y14403D01*
X129615Y14242D01*
X129408Y14057D01*
X129222Y13850D01*
X129061Y13623D01*
X128927Y13379D01*
X128820Y13122D01*
X128743Y12855D01*
X128697Y12581D01*
X128681Y12303D01*
Y11327D01*
X132138D01*
Y14783D01*
D02*
G37*
G36*
X35689Y14783D02*
X34713D01*
Y11327D01*
X38169D01*
Y12303D01*
X38154Y12581D01*
X38107Y12855D01*
X38030Y13122D01*
X37924Y13379D01*
X37789Y13623D01*
X37628Y13850D01*
X37443Y14057D01*
X37235Y14242D01*
X37009Y14403D01*
X36765Y14538D01*
X36508Y14644D01*
X36241Y14721D01*
X35967Y14768D01*
X35689Y14783D01*
D02*
G37*
G36*
X82925D02*
X81949D01*
X81671Y14768D01*
X81397Y14721D01*
X81130Y14644D01*
X80873Y14538D01*
X80629Y14403D01*
X80402Y14242D01*
X80195Y14057D01*
X80010Y13850D01*
X79849Y13623D01*
X79714Y13379D01*
X79608Y13122D01*
X79531Y12855D01*
X79484Y12581D01*
X79469Y12303D01*
Y11327D01*
X82925D01*
Y14783D01*
D02*
G37*
G36*
X181390Y35248D02*
X177968D01*
X178008Y34976D01*
X178103Y34599D01*
X178234Y34234D01*
X178400Y33882D01*
X178599Y33549D01*
X178831Y33237D01*
X179091Y32950D01*
X179379Y32689D01*
X179691Y32458D01*
X180024Y32258D01*
X180375Y32092D01*
X180741Y31961D01*
X181118Y31867D01*
X181390Y31826D01*
Y35248D01*
D02*
G37*
G36*
X23051Y38791D02*
X19594D01*
Y35335D01*
X20571D01*
X20849Y35350D01*
X21123Y35397D01*
X21390Y35474D01*
X21647Y35580D01*
X21891Y35715D01*
X22117Y35876D01*
X22325Y36061D01*
X22510Y36268D01*
X22671Y36495D01*
X22806Y36739D01*
X22912Y36996D01*
X22989Y37263D01*
X23035Y37537D01*
X23051Y37815D01*
Y38791D01*
D02*
G37*
G36*
X134114Y14783D02*
X133138D01*
Y11327D01*
X136594D01*
Y12303D01*
X136579Y12581D01*
X136532Y12855D01*
X136455Y13122D01*
X136349Y13379D01*
X136214Y13623D01*
X136053Y13850D01*
X135868Y14057D01*
X135661Y14242D01*
X135434Y14403D01*
X135190Y14538D01*
X134933Y14644D01*
X134666Y14721D01*
X134392Y14768D01*
X134114Y14783D01*
D02*
G37*
G36*
X80709Y33863D02*
X80400Y33843D01*
X80096Y33783D01*
X79803Y33683D01*
X79525Y33546D01*
X79268Y33374D01*
X79035Y33170D01*
X78831Y32937D01*
X78658Y32680D01*
X78522Y32402D01*
X78422Y32109D01*
X78362Y31805D01*
X78341Y31496D01*
X78362Y31187D01*
X78422Y30883D01*
X78522Y30590D01*
X78658Y30312D01*
X78831Y30055D01*
X79035Y29822D01*
X79268Y29618D01*
X79525Y29446D01*
X79803Y29309D01*
X80096Y29209D01*
X80400Y29149D01*
X80709Y29129D01*
X81018Y29149D01*
X81146Y29175D01*
X81406Y29020D01*
X81915Y28766D01*
X82440Y28548D01*
X82980Y28369D01*
X83530Y28228D01*
X84090Y28127D01*
X84642Y28068D01*
X84655Y28066D01*
X85223Y28046D01*
Y28046D01*
X108184D01*
X108267Y27952D01*
X108500Y27748D01*
X108757Y27576D01*
X109035Y27439D01*
X109328Y27339D01*
X109632Y27279D01*
X109941Y27259D01*
X110250Y27279D01*
X110554Y27339D01*
X110847Y27439D01*
X111125Y27576D01*
X111382Y27748D01*
X111615Y27952D01*
X111819Y28185D01*
X111991Y28442D01*
X112128Y28720D01*
X112227Y29013D01*
X112288Y29317D01*
X112308Y29626D01*
X112288Y29935D01*
X112227Y30239D01*
X112128Y30532D01*
X111991Y30810D01*
X111819Y31067D01*
X111615Y31300D01*
X111382Y31504D01*
X111125Y31676D01*
X110847Y31813D01*
X110554Y31913D01*
X110250Y31973D01*
X109941Y31993D01*
X109632Y31973D01*
X109328Y31913D01*
X109035Y31813D01*
X108757Y31676D01*
X108500Y31504D01*
X108267Y31300D01*
X108184Y31206D01*
X85223D01*
X85188Y31203D01*
X84804Y31220D01*
X84388Y31274D01*
X83979Y31365D01*
X83578Y31491D01*
X83191Y31652D01*
X83061Y31719D01*
X83056Y31805D01*
X82995Y32109D01*
X82896Y32402D01*
X82759Y32680D01*
X82587Y32937D01*
X82383Y33170D01*
X82150Y33374D01*
X81892Y33546D01*
X81615Y33683D01*
X81321Y33783D01*
X81018Y33843D01*
X80709Y33863D01*
D02*
G37*
G36*
X40945Y151974D02*
X40636Y151953D01*
X40332Y151893D01*
X40039Y151793D01*
X39761Y151656D01*
X39504Y151484D01*
X39271Y151280D01*
X39067Y151047D01*
X38895Y150790D01*
X38758Y150512D01*
X38658Y150219D01*
X38598Y149915D01*
X38578Y149606D01*
X38598Y149297D01*
X38658Y148994D01*
X38758Y148700D01*
X38895Y148423D01*
X39067Y148165D01*
X39271Y147932D01*
X39504Y147728D01*
X39563Y147689D01*
Y145776D01*
X39562D01*
X39580Y145138D01*
X39634Y144502D01*
X39723Y143869D01*
X39848Y143243D01*
X40007Y142625D01*
X40201Y142017D01*
X40429Y141420D01*
X40690Y140837D01*
X40983Y140270D01*
X41307Y139720D01*
X41662Y139189D01*
X42046Y138679D01*
X42458Y138191D01*
X42896Y137727D01*
X42896Y137728D01*
X53308Y127316D01*
X53200Y127014D01*
X53115Y126676D01*
X53064Y126332D01*
X53047Y125984D01*
X53064Y125637D01*
X53115Y125292D01*
X53200Y124954D01*
X53317Y124627D01*
X53466Y124312D01*
X53645Y124013D01*
X53343Y123429D01*
X41426D01*
X41392Y123427D01*
X40862Y123444D01*
X40300Y123500D01*
X39744Y123591D01*
X39194Y123720D01*
X38654Y123883D01*
X38126Y124082D01*
X37612Y124315D01*
X37115Y124581D01*
X36636Y124879D01*
X36177Y125207D01*
X35741Y125565D01*
X35453Y125835D01*
X35560Y126136D01*
X35645Y126473D01*
X35696Y126818D01*
X35713Y127165D01*
X35696Y127513D01*
X35645Y127857D01*
X35560Y128195D01*
X35443Y128523D01*
X35294Y128838D01*
X35115Y129136D01*
X34908Y129416D01*
X34674Y129674D01*
X34416Y129908D01*
X34136Y130115D01*
X33838Y130294D01*
X33523Y130443D01*
X33195Y130560D01*
X32857Y130645D01*
X32513Y130696D01*
X32165Y130713D01*
X31818Y130696D01*
X31473Y130645D01*
X31136Y130560D01*
X30808Y130443D01*
X30493Y130294D01*
X30194Y130115D01*
X29915Y129908D01*
X29657Y129674D01*
X29423Y129416D01*
X29216Y129136D01*
X29037Y128838D01*
X28888Y128523D01*
X28771Y128195D01*
X28686Y127857D01*
X28635Y127513D01*
X28618Y127165D01*
X28635Y126818D01*
X28686Y126473D01*
X28771Y126136D01*
X28888Y125808D01*
X29037Y125493D01*
X29216Y125194D01*
X29423Y124915D01*
X29657Y124657D01*
X29915Y124423D01*
X30194Y124216D01*
X30493Y124037D01*
X30808Y123888D01*
X31136Y123771D01*
X31473Y123686D01*
X31818Y123635D01*
X32165Y123618D01*
X32513Y123635D01*
X32857Y123686D01*
X33195Y123771D01*
X33502Y123880D01*
X33841Y123560D01*
X34329Y123148D01*
X34839Y122764D01*
X35370Y122409D01*
X35920Y122085D01*
X36487Y121792D01*
X37070Y121531D01*
X37666Y121303D01*
X38275Y121110D01*
X38893Y120950D01*
X39519Y120826D01*
X40151Y120736D01*
X40787Y120683D01*
X41426Y120665D01*
Y120665D01*
X53343D01*
X53645Y120081D01*
X53466Y119783D01*
X53317Y119468D01*
X53200Y119140D01*
X53115Y118802D01*
X53064Y118458D01*
X53047Y118110D01*
X53064Y117762D01*
X53115Y117418D01*
X53200Y117080D01*
X53317Y116753D01*
X53466Y116438D01*
X53645Y116139D01*
X53852Y115860D01*
X54086Y115602D01*
X54344Y115368D01*
X54624Y115161D01*
X54922Y114982D01*
X55237Y114833D01*
X55565Y114715D01*
X55902Y114631D01*
X56247Y114580D01*
X56595Y114563D01*
X56942Y114580D01*
X57287Y114631D01*
X57624Y114715D01*
X57952Y114833D01*
X58263Y114980D01*
X62730Y110512D01*
X62357Y110050D01*
X62113Y110208D01*
X61598Y110498D01*
X61067Y110757D01*
X60521Y110983D01*
X60017Y111157D01*
X59989Y111266D01*
X59872Y111594D01*
X59723Y111908D01*
X59544Y112207D01*
X59337Y112487D01*
X59103Y112745D01*
X58845Y112978D01*
X58565Y113186D01*
X58267Y113365D01*
X57952Y113514D01*
X57624Y113631D01*
X57287Y113716D01*
X56942Y113767D01*
X56595Y113784D01*
X56247Y113767D01*
X55902Y113716D01*
X55565Y113631D01*
X55237Y113514D01*
X54922Y113365D01*
X54624Y113186D01*
X54344Y112978D01*
X54086Y112745D01*
X53852Y112487D01*
X53645Y112207D01*
X53466Y111908D01*
X53317Y111594D01*
X53200Y111266D01*
X53115Y110928D01*
X53064Y110584D01*
X53047Y110236D01*
X53064Y109889D01*
X53115Y109544D01*
X53200Y109206D01*
X53317Y108879D01*
X53466Y108564D01*
X53645Y108265D01*
X53852Y107986D01*
X54086Y107728D01*
X54344Y107494D01*
X54624Y107287D01*
X54922Y107108D01*
X55237Y106959D01*
X55565Y106841D01*
X55902Y106757D01*
X56247Y106706D01*
X56595Y106689D01*
X56942Y106706D01*
X57287Y106757D01*
X57624Y106841D01*
X57952Y106959D01*
X58267Y107108D01*
X58565Y107287D01*
X58845Y107494D01*
X59103Y107728D01*
X59337Y107986D01*
X59544Y108265D01*
X59608Y108372D01*
X59969Y108223D01*
X60417Y107999D01*
X60848Y107743D01*
X61260Y107457D01*
X61650Y107142D01*
X61994Y106822D01*
X62015Y106798D01*
X65898Y102915D01*
X65528Y102450D01*
X65279Y102604D01*
X64788Y102867D01*
X64281Y103097D01*
X63759Y103293D01*
X63226Y103455D01*
X62684Y103581D01*
X62134Y103672D01*
X61606Y103724D01*
X61580Y103726D01*
X61024Y103745D01*
Y103744D01*
X59860D01*
X59723Y104034D01*
X59544Y104333D01*
X59337Y104613D01*
X59103Y104871D01*
X58845Y105104D01*
X58565Y105312D01*
X58267Y105491D01*
X57952Y105640D01*
X57624Y105757D01*
X57287Y105842D01*
X56942Y105893D01*
X56595Y105910D01*
X56247Y105893D01*
X55902Y105842D01*
X55565Y105757D01*
X55237Y105640D01*
X54922Y105491D01*
X54624Y105312D01*
X54344Y105104D01*
X54086Y104871D01*
X53852Y104613D01*
X53645Y104333D01*
X53466Y104034D01*
X53317Y103720D01*
X53200Y103392D01*
X53115Y103054D01*
X53064Y102710D01*
X53047Y102362D01*
X53064Y102015D01*
X53115Y101670D01*
X53200Y101332D01*
X53257Y101171D01*
X52746Y100848D01*
X48549Y105044D01*
X48549Y105045D01*
X48549Y105045D01*
X48094Y105474D01*
X47614Y105874D01*
X47111Y106244D01*
X46586Y106584D01*
X46042Y106891D01*
X45480Y107164D01*
X44903Y107403D01*
X44312Y107607D01*
X43710Y107775D01*
X43099Y107906D01*
X42481Y108000D01*
X41859Y108057D01*
X41234Y108076D01*
Y108075D01*
X34457D01*
X34426Y108073D01*
X33919Y108089D01*
X33383Y108142D01*
X32852Y108230D01*
X32328Y108352D01*
X31812Y108508D01*
X31308Y108698D01*
X30818Y108920D01*
X30343Y109174D01*
X29886Y109458D01*
X29448Y109772D01*
X29032Y110113D01*
X28662Y110460D01*
X28642Y110484D01*
X26350Y112775D01*
X26326Y112796D01*
X25980Y113166D01*
X25638Y113582D01*
X25324Y114020D01*
X25040Y114477D01*
X24786Y114952D01*
X24564Y115442D01*
X24374Y115946D01*
X24218Y116462D01*
X24096Y116986D01*
X24008Y117517D01*
X23955Y118053D01*
X23939Y118560D01*
X23941Y118591D01*
Y124099D01*
X24136Y124216D01*
X24416Y124423D01*
X24674Y124657D01*
X24908Y124915D01*
X25115Y125194D01*
X25294Y125493D01*
X25443Y125808D01*
X25560Y126136D01*
X25645Y126473D01*
X25696Y126818D01*
X25713Y127165D01*
X25696Y127513D01*
X25645Y127857D01*
X25560Y128195D01*
X25443Y128523D01*
X25294Y128838D01*
X25115Y129136D01*
X24908Y129416D01*
X24674Y129674D01*
X24416Y129908D01*
X24136Y130115D01*
X23838Y130294D01*
X23523Y130443D01*
X23195Y130560D01*
X22858Y130645D01*
X22513Y130696D01*
X22165Y130713D01*
X21818Y130696D01*
X21473Y130645D01*
X21136Y130560D01*
X20808Y130443D01*
X20493Y130294D01*
X20194Y130115D01*
X19915Y129908D01*
X19657Y129674D01*
X19423Y129416D01*
X19216Y129136D01*
X19037Y128838D01*
X18888Y128523D01*
X18771Y128195D01*
X18686Y127857D01*
X18635Y127513D01*
X18618Y127165D01*
X18635Y126818D01*
X18686Y126473D01*
X18771Y126136D01*
X18888Y125808D01*
X19037Y125493D01*
X19216Y125194D01*
X19423Y124915D01*
X19657Y124657D01*
X19915Y124423D01*
X20194Y124216D01*
X20390Y124099D01*
Y118591D01*
X20389D01*
X20408Y117931D01*
X20463Y117272D01*
X20556Y116618D01*
X20684Y115971D01*
X20849Y115331D01*
X21050Y114701D01*
X21285Y114084D01*
X21555Y113481D01*
X21858Y112894D01*
X22194Y112326D01*
X22561Y111776D01*
X22958Y111249D01*
X23384Y110744D01*
X23838Y110264D01*
X23839Y110265D01*
X26131Y107973D01*
X26130Y107972D01*
X26610Y107518D01*
X27115Y107092D01*
X27643Y106695D01*
X28192Y106328D01*
X28761Y105992D01*
X29348Y105689D01*
X29950Y105419D01*
X30568Y105184D01*
X31197Y104983D01*
X31837Y104818D01*
X32484Y104689D01*
X33139Y104597D01*
X33797Y104542D01*
X34457Y104523D01*
Y104524D01*
X41234D01*
X41264Y104526D01*
X41719Y104509D01*
X42201Y104458D01*
X42679Y104371D01*
X43149Y104252D01*
X43609Y104098D01*
X44058Y103913D01*
X44491Y103695D01*
X44909Y103448D01*
X45307Y103171D01*
X45685Y102867D01*
X46018Y102556D01*
X46038Y102534D01*
X53171Y95401D01*
X53115Y95180D01*
X53064Y94836D01*
X53047Y94488D01*
X53064Y94140D01*
X53115Y93796D01*
X53200Y93458D01*
X53317Y93131D01*
X53466Y92816D01*
X53645Y92517D01*
X53852Y92238D01*
X54086Y91980D01*
X54344Y91746D01*
X54624Y91539D01*
X54922Y91360D01*
X55237Y91211D01*
X55565Y91093D01*
X55902Y91009D01*
X56247Y90958D01*
X56595Y90941D01*
X56942Y90958D01*
X57287Y91009D01*
X57624Y91093D01*
X57952Y91211D01*
X58267Y91360D01*
X58565Y91539D01*
X58845Y91746D01*
X59103Y91980D01*
X59337Y92238D01*
X59544Y92517D01*
X59723Y92816D01*
X59872Y93131D01*
X59989Y93458D01*
X60074Y93796D01*
X60125Y94140D01*
X60142Y94488D01*
X60125Y94836D01*
X60074Y95180D01*
X59989Y95518D01*
X59872Y95846D01*
X59723Y96161D01*
X59544Y96459D01*
X59337Y96739D01*
X59103Y96997D01*
X58845Y97230D01*
X58565Y97438D01*
X58267Y97617D01*
X57952Y97766D01*
X57624Y97883D01*
X57287Y97968D01*
X56942Y98019D01*
X56595Y98036D01*
X56247Y98019D01*
X55902Y97968D01*
X55681Y97912D01*
X55080Y98514D01*
X55404Y99025D01*
X55565Y98967D01*
X55902Y98883D01*
X56247Y98832D01*
X56595Y98815D01*
X56942Y98832D01*
X57287Y98883D01*
X57624Y98967D01*
X57952Y99085D01*
X58267Y99234D01*
X58565Y99413D01*
X58845Y99620D01*
X59103Y99854D01*
X59337Y100112D01*
X59544Y100391D01*
X59723Y100690D01*
X59860Y100980D01*
X61024D01*
X61054Y100982D01*
X61475Y100966D01*
X61923Y100913D01*
X62366Y100825D01*
X62801Y100702D01*
X63224Y100546D01*
X63634Y100357D01*
X64028Y100136D01*
X64403Y99885D01*
X64758Y99606D01*
X65066Y99321D01*
X65086Y99298D01*
X65086Y99298D01*
X65087Y99297D01*
X80678Y83706D01*
X80679Y83705D01*
X80680Y83704D01*
X80702Y83685D01*
X80963Y83400D01*
X81218Y83068D01*
X81443Y82715D01*
X81636Y82343D01*
X81797Y81956D01*
X81866Y81736D01*
X81411Y81390D01*
X81358Y81375D01*
X81078Y81543D01*
X80763Y81692D01*
X80435Y81809D01*
X80098Y81894D01*
X79753Y81945D01*
X79405Y81962D01*
X79058Y81945D01*
X78713Y81894D01*
X78376Y81809D01*
X78048Y81692D01*
X77733Y81543D01*
X77435Y81364D01*
X77155Y81156D01*
X76897Y80923D01*
X76663Y80665D01*
X76456Y80385D01*
X76277Y80086D01*
X76128Y79772D01*
X76011Y79444D01*
X75926Y79106D01*
X75875Y78762D01*
X75858Y78414D01*
X75875Y78066D01*
X75926Y77722D01*
X76011Y77384D01*
X76128Y77057D01*
X76277Y76742D01*
X76456Y76443D01*
X76663Y76164D01*
X76897Y75906D01*
X77155Y75672D01*
X77435Y75464D01*
X77733Y75286D01*
X78048Y75137D01*
X78376Y75019D01*
X78713Y74935D01*
X79058Y74884D01*
X79405Y74867D01*
X79753Y74884D01*
X80098Y74935D01*
X80435Y75019D01*
X80763Y75137D01*
X81078Y75286D01*
X81376Y75464D01*
X81656Y75672D01*
X81914Y75906D01*
X82027Y76030D01*
X82547Y76042D01*
X82713Y75992D01*
X82934Y75645D01*
X83083Y75451D01*
X83083Y75451D01*
X83083Y75451D01*
X83083Y75451D01*
X83083Y75450D01*
X83184Y75319D01*
X83461Y75017D01*
X83462Y75017D01*
X85265Y73213D01*
X85251Y73144D01*
X85231Y72835D01*
X85251Y72526D01*
X85312Y72222D01*
X85411Y71929D01*
X85548Y71651D01*
X85720Y71394D01*
X85925Y71161D01*
X86157Y70957D01*
X86415Y70784D01*
X86693Y70648D01*
X86986Y70548D01*
X87289Y70488D01*
X87598Y70467D01*
X87907Y70488D01*
X88211Y70548D01*
X88504Y70648D01*
X88782Y70784D01*
X89039Y70957D01*
X89272Y71161D01*
X89477Y71394D01*
X89649Y71651D01*
X89785Y71929D01*
X89885Y72222D01*
X89946Y72526D01*
X89966Y72835D01*
X89946Y73144D01*
X89885Y73447D01*
X89785Y73741D01*
X89649Y74018D01*
X89477Y74276D01*
X89272Y74509D01*
X89039Y74713D01*
X88996Y74867D01*
X89047Y75371D01*
X89060Y75395D01*
X89176Y75464D01*
X89456Y75672D01*
X89647Y75845D01*
X89724Y75863D01*
X89872Y75853D01*
X90325Y75700D01*
X90369Y75582D01*
X90547Y75196D01*
X90754Y74825D01*
X90991Y74472D01*
X91254Y74138D01*
X91538Y73831D01*
X91540Y73828D01*
X91541Y73827D01*
X91541Y73827D01*
X91542Y73826D01*
X93854Y71514D01*
X93821Y71232D01*
X93819Y71231D01*
X93211Y70948D01*
X92933Y71085D01*
X92640Y71184D01*
X92336Y71245D01*
X92028Y71265D01*
X91719Y71245D01*
X91415Y71184D01*
X91122Y71085D01*
X90844Y70948D01*
X90587Y70776D01*
X90354Y70572D01*
X90149Y70339D01*
X89977Y70081D01*
X89841Y69804D01*
X89741Y69510D01*
X89680Y69207D01*
X89660Y68898D01*
X89680Y68589D01*
X89741Y68285D01*
X89841Y67992D01*
X89977Y67714D01*
X90149Y67457D01*
X90354Y67224D01*
X90587Y67020D01*
X90844Y66847D01*
X91122Y66711D01*
X91415Y66611D01*
X91719Y66551D01*
X92028Y66530D01*
X92336Y66551D01*
X92640Y66611D01*
X92933Y66711D01*
X93211Y66847D01*
X93469Y67020D01*
X93585Y67122D01*
X96850D01*
Y67121D01*
X97217Y67140D01*
X97581Y67193D01*
X97937Y67283D01*
X98283Y67406D01*
X98616Y67564D01*
X98931Y67753D01*
X99226Y67971D01*
X99498Y68218D01*
X99745Y68490D01*
X99964Y68786D01*
X100153Y69101D01*
X100310Y69433D01*
X100434Y69779D01*
X100523Y70136D01*
X100577Y70499D01*
X100595Y70866D01*
X100595D01*
Y75055D01*
X100755Y75205D01*
X101185Y75374D01*
X101333Y75286D01*
X101648Y75137D01*
X101976Y75019D01*
X102313Y74935D01*
X102658Y74884D01*
X103006Y74867D01*
X103353Y74884D01*
X103698Y74935D01*
X104035Y75019D01*
X104363Y75137D01*
X104678Y75286D01*
X104976Y75464D01*
X105256Y75672D01*
X105514Y75906D01*
X105748Y76164D01*
X105955Y76443D01*
X106134Y76742D01*
X106283Y77057D01*
X106400Y77384D01*
X106485Y77722D01*
X106536Y78066D01*
X106553Y78414D01*
X106536Y78762D01*
X106485Y79106D01*
X106400Y79444D01*
X106283Y79772D01*
X106134Y80086D01*
X105955Y80385D01*
X105748Y80665D01*
X105514Y80923D01*
X105256Y81156D01*
X104976Y81364D01*
X104678Y81543D01*
X104363Y81692D01*
X104035Y81809D01*
X103698Y81894D01*
X103353Y81945D01*
X103006Y81962D01*
X102658Y81945D01*
X102313Y81894D01*
X101976Y81809D01*
X101648Y81692D01*
X101333Y81543D01*
X101035Y81364D01*
X100834Y81215D01*
X100455Y81238D01*
X100247Y81295D01*
X100121Y81379D01*
X99960Y81688D01*
X99737Y82037D01*
X99485Y82365D01*
X99206Y82670D01*
X98901Y82950D01*
X98573Y83202D01*
X98224Y83424D01*
X97857Y83615D01*
X97474Y83774D01*
X97080Y83898D01*
X96676Y83988D01*
X96427Y84020D01*
X96427Y84020D01*
X96427Y84020D01*
X96426Y84020D01*
X96426Y84020D01*
X96266Y84042D01*
X95852Y84060D01*
Y84059D01*
X94488D01*
X94463Y84057D01*
X94157Y84072D01*
X93830Y84121D01*
X93509Y84201D01*
X93197Y84313D01*
X92898Y84455D01*
X92614Y84625D01*
X92348Y84822D01*
X92122Y85027D01*
X92106Y85046D01*
X60006Y117146D01*
X60074Y117418D01*
X60125Y117762D01*
X60142Y118110D01*
X60125Y118458D01*
X60074Y118802D01*
X59989Y119140D01*
X59872Y119468D01*
X59723Y119783D01*
X59544Y120081D01*
X59846Y120665D01*
X67197D01*
Y120665D01*
X67726Y120682D01*
X67778Y120687D01*
X68254Y120734D01*
X68777Y120821D01*
X69294Y120941D01*
X69801Y121095D01*
X70297Y121282D01*
X70780Y121501D01*
X71248Y121751D01*
X71698Y122031D01*
X72129Y122339D01*
X72499Y122643D01*
X72539Y122676D01*
X72922Y123035D01*
X72922Y123035D01*
X72923Y123035D01*
X72923Y123035D01*
X72926Y123038D01*
X72926Y123038D01*
X75099Y125211D01*
X111054Y89255D01*
X111080Y89233D01*
X111443Y88846D01*
X111801Y88410D01*
X112129Y87951D01*
X112427Y87472D01*
X112693Y86974D01*
X112926Y86460D01*
X113125Y85932D01*
X113288Y85392D01*
X113417Y84843D01*
X113508Y84286D01*
X113564Y83725D01*
X113581Y83195D01*
X113578Y83161D01*
Y81480D01*
X113230Y81264D01*
X112988Y81207D01*
X112776Y81364D01*
X112478Y81543D01*
X112163Y81692D01*
X111835Y81809D01*
X111498Y81894D01*
X111153Y81945D01*
X110805Y81962D01*
X110458Y81945D01*
X110113Y81894D01*
X109776Y81809D01*
X109448Y81692D01*
X109133Y81543D01*
X108835Y81364D01*
X108555Y81156D01*
X108297Y80923D01*
X108063Y80665D01*
X107856Y80385D01*
X107677Y80086D01*
X107528Y79772D01*
X107411Y79444D01*
X107326Y79106D01*
X107275Y78762D01*
X107258Y78414D01*
X107275Y78066D01*
X107326Y77722D01*
X107411Y77384D01*
X107528Y77057D01*
X107677Y76742D01*
X107856Y76443D01*
X108063Y76164D01*
X108297Y75906D01*
X108555Y75672D01*
X108835Y75464D01*
X109133Y75286D01*
X109448Y75137D01*
X109776Y75019D01*
X110113Y74935D01*
X110458Y74884D01*
X110805Y74867D01*
X111153Y74884D01*
X111498Y74935D01*
X111835Y75019D01*
X112163Y75137D01*
X112478Y75286D01*
X112776Y75464D01*
X112988Y75621D01*
X113230Y75564D01*
X113578Y75348D01*
Y52913D01*
X113581Y52880D01*
X113564Y52350D01*
X113508Y51788D01*
X113417Y51231D01*
X113288Y50682D01*
X113125Y50142D01*
X112926Y49614D01*
X112693Y49100D01*
X112427Y48603D01*
X112129Y48123D01*
X111801Y47665D01*
X111443Y47229D01*
X111057Y46817D01*
X110645Y46431D01*
X110209Y46073D01*
X109750Y45745D01*
X109271Y45447D01*
X108774Y45181D01*
X108260Y44948D01*
X107732Y44749D01*
X107192Y44586D01*
X106643Y44458D01*
X106086Y44366D01*
X105525Y44310D01*
X104994Y44293D01*
X104961Y44296D01*
X83413D01*
X83374Y44355D01*
X83170Y44587D01*
X82937Y44791D01*
X82680Y44963D01*
X82402Y45101D01*
X82109Y45200D01*
X81805Y45260D01*
X81496Y45281D01*
X81187Y45260D01*
X80883Y45200D01*
X80590Y45101D01*
X80312Y44963D01*
X80257Y44926D01*
X72806Y52377D01*
X72820Y52447D01*
X72840Y52756D01*
X72820Y53065D01*
X72759Y53369D01*
X72659Y53662D01*
X72523Y53939D01*
X72351Y54197D01*
X72146Y54430D01*
X71913Y54634D01*
X71656Y54806D01*
X71378Y54943D01*
X71085Y55042D01*
X70781Y55103D01*
X70472Y55123D01*
X70164Y55103D01*
X69860Y55042D01*
X69567Y54943D01*
X69289Y54806D01*
X69031Y54634D01*
X68799Y54430D01*
X68594Y54197D01*
X68422Y53939D01*
X68285Y53662D01*
X68186Y53369D01*
X68125Y53065D01*
X68105Y52756D01*
X68125Y52447D01*
X68186Y52143D01*
X68285Y51850D01*
X68422Y51572D01*
X68594Y51315D01*
X68799Y51082D01*
X69031Y50878D01*
X69289Y50706D01*
X69567Y50569D01*
X69860Y50469D01*
X70164Y50409D01*
X70472Y50389D01*
X70781Y50409D01*
X70851Y50423D01*
X78502Y42771D01*
X78502Y42771D01*
X78502Y42771D01*
X78810Y42491D01*
X78938Y42397D01*
X78938Y42397D01*
X78939Y42396D01*
X79144Y42244D01*
X79251Y42180D01*
X79309Y42007D01*
X79446Y41730D01*
X79618Y41472D01*
X79822Y41240D01*
X80055Y41035D01*
X80312Y40863D01*
X80590Y40726D01*
X80883Y40627D01*
X81187Y40566D01*
X81496Y40546D01*
X81805Y40566D01*
X82109Y40627D01*
X82402Y40726D01*
X82680Y40863D01*
X82937Y41035D01*
X83170Y41240D01*
X83374Y41472D01*
X83413Y41531D01*
X104961D01*
Y41531D01*
X105599Y41549D01*
X106235Y41603D01*
X106867Y41692D01*
X107493Y41816D01*
X108112Y41976D01*
X108720Y42170D01*
X109317Y42397D01*
X109899Y42658D01*
X110467Y42951D01*
X111016Y43276D01*
X111547Y43630D01*
X112057Y44014D01*
X112545Y44426D01*
X113009Y44865D01*
X113448Y45329D01*
X113860Y45817D01*
X114244Y46327D01*
X114598Y46858D01*
X114923Y47407D01*
X115216Y47975D01*
X115477Y48557D01*
X115704Y49154D01*
X115898Y49762D01*
X116058Y50381D01*
X116182Y51007D01*
X116271Y51639D01*
X116325Y52275D01*
X116343Y52913D01*
X116343D01*
Y75094D01*
X116619Y75302D01*
X116933Y75405D01*
X117133Y75286D01*
X117448Y75137D01*
X117776Y75019D01*
X118113Y74935D01*
X118458Y74884D01*
X118806Y74867D01*
X119153Y74884D01*
X119498Y74935D01*
X119835Y75019D01*
X120163Y75137D01*
X120478Y75286D01*
X120776Y75464D01*
X121056Y75672D01*
X121314Y75906D01*
X121548Y76164D01*
X121755Y76443D01*
X121934Y76742D01*
X122083Y77057D01*
X122200Y77384D01*
X122285Y77722D01*
X122336Y78066D01*
X122353Y78414D01*
X122336Y78762D01*
X122285Y79106D01*
X122200Y79444D01*
X122083Y79772D01*
X121934Y80086D01*
X121755Y80385D01*
X121548Y80665D01*
X121314Y80923D01*
X121056Y81156D01*
X120776Y81364D01*
X120478Y81543D01*
X120163Y81692D01*
X119835Y81809D01*
X119498Y81894D01*
X119153Y81945D01*
X118806Y81962D01*
X118458Y81945D01*
X118113Y81894D01*
X117776Y81809D01*
X117448Y81692D01*
X117133Y81543D01*
X116933Y81423D01*
X116619Y81526D01*
X116343Y81734D01*
Y83161D01*
X116343D01*
X116325Y83799D01*
X116271Y84435D01*
X116182Y85068D01*
X116058Y85694D01*
X115898Y86312D01*
X115704Y86920D01*
X115477Y87517D01*
X115216Y88100D01*
X114923Y88667D01*
X114598Y89217D01*
X114244Y89748D01*
X113860Y90258D01*
X113448Y90746D01*
X113009Y91210D01*
X113009Y91210D01*
X76076Y128143D01*
X69875Y134344D01*
X69875Y134344D01*
X64293Y139926D01*
X64293Y139926D01*
X63814Y140377D01*
X63309Y140798D01*
X62779Y141188D01*
X62227Y141545D01*
X61654Y141868D01*
X61063Y142156D01*
X60455Y142408D01*
X60042Y142550D01*
X59989Y142762D01*
X59872Y143090D01*
X59723Y143405D01*
X59544Y143703D01*
X59337Y143983D01*
X59103Y144241D01*
X58845Y144475D01*
X58565Y144682D01*
X58267Y144861D01*
X57952Y145010D01*
X57624Y145127D01*
X57287Y145212D01*
X56942Y145263D01*
X56595Y145280D01*
X56247Y145263D01*
X55902Y145212D01*
X55565Y145127D01*
X55237Y145010D01*
X54922Y144861D01*
X54624Y144682D01*
X54344Y144475D01*
X54086Y144241D01*
X53852Y143983D01*
X53645Y143703D01*
X53466Y143405D01*
X53317Y143090D01*
X53200Y142762D01*
X53115Y142424D01*
X53064Y142080D01*
X53047Y141732D01*
X53064Y141385D01*
X53115Y141040D01*
X53200Y140702D01*
X53317Y140375D01*
X53466Y140060D01*
X53645Y139761D01*
X53852Y139482D01*
X54086Y139224D01*
X54344Y138990D01*
X54624Y138783D01*
X54922Y138604D01*
X55237Y138455D01*
X55565Y138338D01*
X55902Y138253D01*
X56247Y138202D01*
X56595Y138185D01*
X56942Y138202D01*
X57287Y138253D01*
X57624Y138338D01*
X57952Y138455D01*
X58267Y138604D01*
X58565Y138783D01*
X58845Y138990D01*
X59103Y139224D01*
X59337Y139482D01*
X59544Y139761D01*
X59561Y139789D01*
X59704Y139735D01*
X60189Y139515D01*
X60658Y139265D01*
X61109Y138984D01*
X61541Y138674D01*
X61952Y138337D01*
X62318Y137995D01*
X62338Y137971D01*
X67920Y132389D01*
X67920Y132389D01*
X73144Y127165D01*
X70972Y124993D01*
X70970Y124991D01*
X70968Y124990D01*
X70947Y124965D01*
X70631Y124675D01*
X70261Y124391D01*
X69868Y124141D01*
X69454Y123926D01*
X69024Y123747D01*
X68579Y123607D01*
X68124Y123506D01*
X67662Y123446D01*
X67231Y123427D01*
X67197Y123429D01*
X59846D01*
X59544Y124013D01*
X59723Y124312D01*
X59872Y124627D01*
X59989Y124954D01*
X60074Y125292D01*
X60125Y125637D01*
X60142Y125984D01*
X60125Y126332D01*
X60074Y126676D01*
X59989Y127014D01*
X59872Y127342D01*
X59723Y127657D01*
X59544Y127955D01*
X59337Y128235D01*
X59103Y128493D01*
X58845Y128727D01*
X58565Y128934D01*
X58267Y129113D01*
X57952Y129262D01*
X57624Y129379D01*
X57287Y129464D01*
X56942Y129515D01*
X56595Y129532D01*
X56247Y129515D01*
X55902Y129464D01*
X55565Y129379D01*
X55263Y129271D01*
X44851Y139682D01*
X44825Y139704D01*
X44463Y140092D01*
X44105Y140528D01*
X43776Y140986D01*
X43478Y141465D01*
X43213Y141963D01*
X42980Y142477D01*
X42781Y143005D01*
X42617Y143545D01*
X42489Y144094D01*
X42397Y144651D01*
X42342Y145212D01*
X42324Y145742D01*
X42327Y145776D01*
Y147689D01*
X42386Y147728D01*
X42619Y147932D01*
X42823Y148165D01*
X42995Y148423D01*
X43132Y148700D01*
X43231Y148994D01*
X43292Y149297D01*
X43312Y149606D01*
X43292Y149915D01*
X43231Y150219D01*
X43132Y150512D01*
X42995Y150790D01*
X42823Y151047D01*
X42619Y151280D01*
X42386Y151484D01*
X42129Y151656D01*
X41851Y151793D01*
X41558Y151893D01*
X41254Y151953D01*
X40945Y151974D01*
D02*
G37*
G36*
X56595Y137406D02*
X56247Y137389D01*
X55902Y137338D01*
X55565Y137253D01*
X55237Y137136D01*
X54922Y136987D01*
X54624Y136808D01*
X54344Y136601D01*
X54086Y136367D01*
X53852Y136109D01*
X53645Y135829D01*
X53466Y135531D01*
X53317Y135216D01*
X53200Y134888D01*
X53115Y134550D01*
X53064Y134206D01*
X53047Y133858D01*
X53064Y133510D01*
X53115Y133166D01*
X53200Y132828D01*
X53317Y132501D01*
X53466Y132186D01*
X53645Y131887D01*
X53852Y131608D01*
X54086Y131350D01*
X54344Y131116D01*
X54624Y130909D01*
X54922Y130730D01*
X55237Y130581D01*
X55565Y130464D01*
X55902Y130379D01*
X56247Y130328D01*
X56595Y130311D01*
X56942Y130328D01*
X57287Y130379D01*
X57624Y130464D01*
X57952Y130581D01*
X58267Y130730D01*
X58565Y130909D01*
X58845Y131116D01*
X59103Y131350D01*
X59337Y131608D01*
X59544Y131887D01*
X59723Y132186D01*
X59872Y132501D01*
X59989Y132828D01*
X60074Y133166D01*
X60125Y133510D01*
X60142Y133858D01*
X60125Y134206D01*
X60074Y134550D01*
X59989Y134888D01*
X59872Y135216D01*
X59723Y135531D01*
X59544Y135829D01*
X59337Y136109D01*
X59103Y136367D01*
X58845Y136601D01*
X58565Y136808D01*
X58267Y136987D01*
X57952Y137136D01*
X57624Y137253D01*
X57287Y137338D01*
X56942Y137389D01*
X56595Y137406D01*
D02*
G37*
G36*
X143780Y93988D02*
X140756D01*
Y90964D01*
X140951Y90993D01*
X141290Y91078D01*
X141620Y91196D01*
X141936Y91346D01*
X142236Y91525D01*
X142517Y91734D01*
X142776Y91969D01*
X143010Y92228D01*
X143219Y92509D01*
X143398Y92809D01*
X143548Y93125D01*
X143666Y93454D01*
X143751Y93793D01*
X143780Y93988D01*
D02*
G37*
G36*
X140756Y98012D02*
Y94988D01*
X143780D01*
X143751Y95183D01*
X143666Y95523D01*
X143548Y95852D01*
X143398Y96168D01*
X143219Y96468D01*
X143010Y96749D01*
X142776Y97008D01*
X142517Y97243D01*
X142236Y97451D01*
X141936Y97631D01*
X141620Y97780D01*
X141290Y97898D01*
X140951Y97983D01*
X140756Y98012D01*
D02*
G37*
G36*
X56595Y153154D02*
X56247Y153137D01*
X55902Y153086D01*
X55565Y153001D01*
X55237Y152884D01*
X54922Y152735D01*
X54624Y152556D01*
X54344Y152349D01*
X54086Y152115D01*
X53852Y151857D01*
X53645Y151577D01*
X53466Y151279D01*
X53317Y150964D01*
X53200Y150636D01*
X53115Y150298D01*
X53064Y149954D01*
X53047Y149606D01*
X53064Y149259D01*
X53115Y148914D01*
X53200Y148576D01*
X53317Y148249D01*
X53466Y147934D01*
X53645Y147635D01*
X53852Y147356D01*
X54086Y147098D01*
X54344Y146864D01*
X54624Y146657D01*
X54922Y146478D01*
X55237Y146329D01*
X55565Y146212D01*
X55902Y146127D01*
X56247Y146076D01*
X56595Y146059D01*
X56942Y146076D01*
X57287Y146127D01*
X57624Y146212D01*
X57952Y146329D01*
X58267Y146478D01*
X58565Y146657D01*
X58845Y146864D01*
X59103Y147098D01*
X59337Y147356D01*
X59544Y147635D01*
X59723Y147934D01*
X59872Y148249D01*
X59989Y148576D01*
X60074Y148914D01*
X60125Y149259D01*
X60142Y149606D01*
X60125Y149954D01*
X60074Y150298D01*
X59989Y150636D01*
X59872Y150964D01*
X59723Y151279D01*
X59544Y151577D01*
X59337Y151857D01*
X59103Y152115D01*
X58845Y152349D01*
X58565Y152556D01*
X58267Y152735D01*
X57952Y152884D01*
X57624Y153001D01*
X57287Y153086D01*
X56942Y153137D01*
X56595Y153154D01*
D02*
G37*
G36*
X140256D02*
X139908Y153137D01*
X139564Y153086D01*
X139226Y153001D01*
X138898Y152884D01*
X138584Y152735D01*
X138285Y152556D01*
X138005Y152349D01*
X137747Y152115D01*
X137514Y151857D01*
X137306Y151577D01*
X137127Y151279D01*
X136978Y150964D01*
X136861Y150636D01*
X136776Y150298D01*
X136725Y149954D01*
X136708Y149606D01*
X136725Y149259D01*
X136776Y148914D01*
X136861Y148576D01*
X136978Y148249D01*
X137127Y147934D01*
X137306Y147635D01*
X137514Y147356D01*
X137747Y147098D01*
X138005Y146864D01*
X138285Y146657D01*
X138584Y146478D01*
X138898Y146329D01*
X139226Y146212D01*
X139564Y146127D01*
X139908Y146076D01*
X140256Y146059D01*
X140604Y146076D01*
X140948Y146127D01*
X141286Y146212D01*
X141613Y146329D01*
X141928Y146478D01*
X142227Y146657D01*
X142506Y146864D01*
X142764Y147098D01*
X142998Y147356D01*
X143206Y147635D01*
X143385Y147934D01*
X143533Y148249D01*
X143651Y148576D01*
X143735Y148914D01*
X143786Y149259D01*
X143804Y149606D01*
X143786Y149954D01*
X143735Y150298D01*
X143651Y150636D01*
X143533Y150964D01*
X143385Y151279D01*
X143206Y151577D01*
X142998Y151857D01*
X142764Y152115D01*
X142506Y152349D01*
X142227Y152556D01*
X141928Y152735D01*
X141613Y152884D01*
X141286Y153001D01*
X140948Y153086D01*
X140604Y153137D01*
X140256Y153154D01*
D02*
G37*
G36*
Y145280D02*
X139908Y145263D01*
X139564Y145212D01*
X139226Y145127D01*
X138898Y145010D01*
X138584Y144861D01*
X138285Y144682D01*
X138005Y144475D01*
X137747Y144241D01*
X137514Y143983D01*
X137306Y143703D01*
X137127Y143405D01*
X136978Y143090D01*
X136861Y142762D01*
X136776Y142424D01*
X136725Y142080D01*
X136708Y141732D01*
X136725Y141385D01*
X136776Y141040D01*
X136861Y140702D01*
X136978Y140375D01*
X137127Y140060D01*
X137306Y139761D01*
X137514Y139482D01*
X137747Y139224D01*
X138005Y138990D01*
X138285Y138783D01*
X138584Y138604D01*
X138898Y138455D01*
X139226Y138338D01*
X139564Y138253D01*
X139908Y138202D01*
X140256Y138185D01*
X140604Y138202D01*
X140948Y138253D01*
X141286Y138338D01*
X141613Y138455D01*
X141928Y138604D01*
X142227Y138783D01*
X142506Y138990D01*
X142764Y139224D01*
X142998Y139482D01*
X143206Y139761D01*
X143385Y140060D01*
X143533Y140375D01*
X143651Y140702D01*
X143735Y141040D01*
X143786Y141385D01*
X143804Y141732D01*
X143786Y142080D01*
X143735Y142424D01*
X143651Y142762D01*
X143533Y143090D01*
X143385Y143405D01*
X143206Y143703D01*
X142998Y143983D01*
X142764Y144241D01*
X142506Y144475D01*
X142227Y144682D01*
X141928Y144861D01*
X141613Y145010D01*
X141286Y145127D01*
X140948Y145212D01*
X140604Y145263D01*
X140256Y145280D01*
D02*
G37*
G36*
X158268Y150005D02*
X157959Y149985D01*
X157655Y149924D01*
X157362Y149825D01*
X157084Y149688D01*
X156827Y149516D01*
X156594Y149312D01*
X156390Y149079D01*
X156218Y148821D01*
X156081Y148544D01*
X155981Y148250D01*
X155921Y147947D01*
X155900Y147638D01*
X155921Y147329D01*
X155935Y147259D01*
X146833Y138158D01*
X146833Y138158D01*
X146395Y137695D01*
X145983Y137207D01*
X145599Y136697D01*
X145244Y136166D01*
X144920Y135616D01*
X144627Y135048D01*
X144366Y134466D01*
X144351Y134426D01*
X143744Y134492D01*
X143735Y134550D01*
X143651Y134888D01*
X143533Y135216D01*
X143385Y135531D01*
X143206Y135829D01*
X142998Y136109D01*
X142764Y136367D01*
X142506Y136601D01*
X142227Y136808D01*
X141928Y136987D01*
X141613Y137136D01*
X141286Y137253D01*
X140948Y137338D01*
X140604Y137389D01*
X140256Y137406D01*
X139908Y137389D01*
X139564Y137338D01*
X139226Y137253D01*
X138898Y137136D01*
X138584Y136987D01*
X138285Y136808D01*
X138005Y136601D01*
X137747Y136367D01*
X137514Y136109D01*
X137306Y135829D01*
X137127Y135531D01*
X136978Y135216D01*
X136861Y134888D01*
X136776Y134550D01*
X136725Y134206D01*
X136708Y133858D01*
X136725Y133511D01*
X136776Y133166D01*
X136861Y132828D01*
X136978Y132501D01*
X137127Y132186D01*
X137306Y131887D01*
X137514Y131608D01*
X137747Y131350D01*
X138005Y131116D01*
X138285Y130909D01*
X138584Y130730D01*
X138898Y130581D01*
X139226Y130464D01*
X139564Y130379D01*
X139908Y130328D01*
X140256Y130311D01*
X140604Y130328D01*
X140948Y130379D01*
X141286Y130464D01*
X141613Y130581D01*
X141928Y130730D01*
X142227Y130909D01*
X142506Y131116D01*
X142764Y131350D01*
X142998Y131608D01*
X143008Y131621D01*
X143572Y131390D01*
X143571Y131384D01*
X143517Y130748D01*
X143500Y130110D01*
X143500D01*
Y128550D01*
X143271Y128407D01*
X142909Y128333D01*
X142764Y128493D01*
X142506Y128727D01*
X142227Y128934D01*
X141928Y129113D01*
X141613Y129262D01*
X141286Y129379D01*
X140948Y129464D01*
X140604Y129515D01*
X140256Y129532D01*
X139908Y129515D01*
X139564Y129464D01*
X139226Y129379D01*
X138898Y129262D01*
X138584Y129113D01*
X138285Y128934D01*
X138005Y128727D01*
X137747Y128493D01*
X137514Y128235D01*
X137306Y127955D01*
X137127Y127657D01*
X136978Y127342D01*
X136861Y127014D01*
X136776Y126676D01*
X136725Y126332D01*
X136708Y125984D01*
X136725Y125637D01*
X136776Y125292D01*
X136861Y124954D01*
X136733Y124417D01*
X136406Y124063D01*
X136346Y123987D01*
X136108Y123685D01*
X135840Y123284D01*
X135605Y122864D01*
X135403Y122426D01*
X135237Y121975D01*
X135106Y121511D01*
X135012Y121038D01*
X134967Y120657D01*
X134955Y120560D01*
X134936Y120079D01*
X134937D01*
Y88532D01*
X134878Y88492D01*
X134645Y88288D01*
X134441Y88055D01*
X134269Y87798D01*
X134132Y87520D01*
X134032Y87227D01*
X133972Y86923D01*
X133952Y86614D01*
X133972Y86305D01*
X134032Y86001D01*
X134132Y85708D01*
X134269Y85431D01*
X134441Y85173D01*
X134645Y84940D01*
X134878Y84736D01*
X135135Y84564D01*
X135413Y84427D01*
X135706Y84328D01*
X136010Y84267D01*
X136319Y84247D01*
X136628Y84267D01*
X136932Y84328D01*
X137225Y84427D01*
X137503Y84564D01*
X137760Y84736D01*
X137993Y84940D01*
X138197Y85173D01*
X138369Y85431D01*
X138506Y85708D01*
X138605Y86001D01*
X138666Y86305D01*
X138686Y86614D01*
X138666Y86923D01*
X138605Y87227D01*
X138506Y87520D01*
X138369Y87798D01*
X138197Y88055D01*
X137993Y88288D01*
X137760Y88492D01*
X137701Y88532D01*
Y91217D01*
X138276Y91525D01*
X138576Y91346D01*
X138892Y91196D01*
X139222Y91078D01*
X139561Y90993D01*
X139756Y90964D01*
Y94488D01*
Y98012D01*
X139561Y97983D01*
X139222Y97898D01*
X138892Y97780D01*
X138576Y97631D01*
X138276Y97451D01*
X137701Y97760D01*
Y99110D01*
X138285Y99413D01*
X138584Y99234D01*
X138898Y99085D01*
X139226Y98967D01*
X139564Y98883D01*
X139908Y98832D01*
X140256Y98815D01*
X140604Y98832D01*
X140948Y98883D01*
X141286Y98967D01*
X141613Y99085D01*
X141928Y99234D01*
X142227Y99413D01*
X142506Y99620D01*
X142764Y99854D01*
X142998Y100112D01*
X143206Y100391D01*
X143385Y100690D01*
X143533Y101005D01*
X143651Y101332D01*
X143735Y101670D01*
X143786Y102015D01*
X143804Y102362D01*
X143786Y102710D01*
X143735Y103054D01*
X143651Y103392D01*
X143533Y103720D01*
X143385Y104034D01*
X143206Y104333D01*
X142998Y104613D01*
X142764Y104871D01*
X142506Y105104D01*
X142227Y105312D01*
X141928Y105491D01*
X141613Y105640D01*
X141286Y105757D01*
X140948Y105842D01*
X140604Y105893D01*
X140256Y105910D01*
X139908Y105893D01*
X139564Y105842D01*
X139226Y105757D01*
X138898Y105640D01*
X138584Y105491D01*
X138285Y105312D01*
X137701Y105614D01*
Y106984D01*
X138285Y107287D01*
X138584Y107108D01*
X138898Y106959D01*
X139226Y106841D01*
X139564Y106757D01*
X139908Y106706D01*
X140256Y106689D01*
X140604Y106706D01*
X140948Y106757D01*
X141286Y106841D01*
X141613Y106959D01*
X141928Y107108D01*
X142227Y107287D01*
X142506Y107494D01*
X142764Y107728D01*
X142998Y107986D01*
X143206Y108265D01*
X143385Y108564D01*
X143533Y108879D01*
X143651Y109206D01*
X143735Y109544D01*
X143786Y109889D01*
X143804Y110236D01*
X143786Y110584D01*
X143735Y110928D01*
X143651Y111266D01*
X143533Y111594D01*
X143385Y111908D01*
X143206Y112207D01*
X142998Y112487D01*
X142764Y112745D01*
X142506Y112978D01*
X142227Y113186D01*
X141928Y113365D01*
X141613Y113514D01*
X141286Y113631D01*
X140948Y113716D01*
X140604Y113767D01*
X140256Y113784D01*
X139908Y113767D01*
X139564Y113716D01*
X139226Y113631D01*
X138898Y113514D01*
X138584Y113365D01*
X138285Y113186D01*
X137701Y113488D01*
Y114858D01*
X138285Y115161D01*
X138584Y114982D01*
X138898Y114833D01*
X139226Y114715D01*
X139564Y114631D01*
X139908Y114580D01*
X140256Y114563D01*
X140604Y114580D01*
X140948Y114631D01*
X141286Y114715D01*
X141613Y114833D01*
X141928Y114982D01*
X142227Y115161D01*
X142506Y115368D01*
X142764Y115602D01*
X142998Y115860D01*
X143206Y116139D01*
X143385Y116438D01*
X143533Y116753D01*
X143651Y117080D01*
X143735Y117418D01*
X143786Y117762D01*
X143804Y118110D01*
X143786Y118458D01*
X143735Y118802D01*
X143651Y119140D01*
X143648Y119149D01*
X143564Y119463D01*
X143976Y119902D01*
X144359Y120369D01*
X144710Y120860D01*
X145029Y121372D01*
X145314Y121905D01*
X145563Y122454D01*
X145775Y123019D01*
X145950Y123597D01*
X146088Y124185D01*
X146186Y124780D01*
X146245Y125381D01*
X146265Y125984D01*
X146264D01*
Y130110D01*
X146261Y130144D01*
X146279Y130674D01*
X146334Y131235D01*
X146426Y131792D01*
X146554Y132341D01*
X146718Y132881D01*
X146917Y133409D01*
X147150Y133923D01*
X147415Y134421D01*
X147713Y134900D01*
X148042Y135358D01*
X148400Y135794D01*
X148762Y136182D01*
X148788Y136204D01*
X157889Y145305D01*
X157959Y145291D01*
X158268Y145271D01*
X158577Y145291D01*
X158880Y145351D01*
X159174Y145451D01*
X159451Y145588D01*
X159709Y145760D01*
X159942Y145964D01*
X160146Y146197D01*
X160318Y146454D01*
X160455Y146732D01*
X160554Y147025D01*
X160615Y147329D01*
X160635Y147638D01*
X160615Y147947D01*
X160554Y148250D01*
X160455Y148544D01*
X160318Y148821D01*
X160146Y149079D01*
X159942Y149312D01*
X159709Y149516D01*
X159451Y149688D01*
X159174Y149825D01*
X158880Y149924D01*
X158577Y149985D01*
X158268Y150005D01*
D02*
G37*
G36*
X131717Y60681D02*
X128295D01*
Y57259D01*
X128567Y57300D01*
X128944Y57394D01*
X129310Y57525D01*
X129661Y57691D01*
X129994Y57890D01*
X130306Y58122D01*
X130594Y58383D01*
X130854Y58671D01*
X131086Y58982D01*
X131286Y59316D01*
X131451Y59667D01*
X131582Y60032D01*
X131677Y60409D01*
X131717Y60681D01*
D02*
G37*
G36*
X127295Y65103D02*
X127023Y65063D01*
X126646Y64968D01*
X126281Y64837D01*
X125930Y64671D01*
X125597Y64472D01*
X125285Y64240D01*
X124997Y63980D01*
X124736Y63692D01*
X124505Y63380D01*
X124305Y63047D01*
X124139Y62696D01*
X124008Y62330D01*
X123914Y61953D01*
X123873Y61681D01*
X127295D01*
Y65103D01*
D02*
G37*
G36*
X147795Y65123D02*
X147409Y65104D01*
X147026Y65047D01*
X146651Y64953D01*
X146287Y64823D01*
X145937Y64657D01*
X145605Y64459D01*
X145295Y64228D01*
X145008Y63968D01*
X144748Y63682D01*
X144518Y63371D01*
X144319Y63039D01*
X144154Y62690D01*
X144023Y62325D01*
X143929Y61950D01*
X143872Y61567D01*
X143853Y61181D01*
X143872Y60795D01*
X143929Y60412D01*
X144023Y60037D01*
X144154Y59673D01*
X144319Y59323D01*
X144518Y58991D01*
X144748Y58680D01*
X145008Y58394D01*
X145295Y58134D01*
X145605Y57904D01*
X145937Y57705D01*
X146287Y57539D01*
X146651Y57409D01*
X147026Y57315D01*
X147409Y57258D01*
X147795Y57239D01*
X148182Y57258D01*
X148564Y57315D01*
X148940Y57409D01*
X149304Y57539D01*
X149653Y57705D01*
X149985Y57904D01*
X150296Y58134D01*
X150583Y58394D01*
X150842Y58680D01*
X151073Y58991D01*
X151272Y59323D01*
X151437Y59673D01*
X151567Y60037D01*
X151661Y60412D01*
X151718Y60795D01*
X151737Y61181D01*
X151718Y61567D01*
X151661Y61950D01*
X151567Y62325D01*
X151437Y62690D01*
X151272Y63039D01*
X151073Y63371D01*
X150842Y63682D01*
X150583Y63968D01*
X150296Y64228D01*
X149985Y64459D01*
X149653Y64657D01*
X149304Y64823D01*
X148940Y64953D01*
X148564Y65047D01*
X148182Y65104D01*
X147795Y65123D01*
D02*
G37*
G36*
X127295Y60681D02*
X123873D01*
X123914Y60409D01*
X124008Y60032D01*
X124139Y59667D01*
X124305Y59316D01*
X124505Y58982D01*
X124736Y58671D01*
X124997Y58383D01*
X125285Y58122D01*
X125597Y57890D01*
X125930Y57691D01*
X126281Y57525D01*
X126646Y57394D01*
X127023Y57300D01*
X127295Y57259D01*
Y60681D01*
D02*
G37*
G36*
X181390Y82693D02*
X177937D01*
Y79240D01*
X181390D01*
Y82693D01*
D02*
G37*
G36*
X31693Y84848D02*
X31384Y84827D01*
X31080Y84767D01*
X30787Y84667D01*
X30509Y84530D01*
X30252Y84358D01*
X30019Y84154D01*
X29815Y83921D01*
X29643Y83664D01*
X29506Y83386D01*
X29406Y83093D01*
X29346Y82789D01*
X29326Y82480D01*
X29346Y82171D01*
X29406Y81868D01*
X29506Y81574D01*
X29643Y81297D01*
X29815Y81039D01*
X30019Y80806D01*
X30252Y80602D01*
X30509Y80430D01*
X30787Y80293D01*
X31080Y80194D01*
X31384Y80133D01*
X31693Y80113D01*
X32002Y80133D01*
X32306Y80194D01*
X32599Y80293D01*
X32877Y80430D01*
X33134Y80602D01*
X33367Y80806D01*
X33571Y81039D01*
X33610Y81098D01*
X45327D01*
X45366Y81039D01*
X45570Y80806D01*
X45803Y80602D01*
X46060Y80430D01*
X46338Y80293D01*
X46631Y80194D01*
X46935Y80133D01*
X47244Y80113D01*
X47553Y80133D01*
X47857Y80194D01*
X48150Y80293D01*
X48428Y80430D01*
X48685Y80602D01*
X48918Y80806D01*
X49122Y81039D01*
X49294Y81297D01*
X49431Y81574D01*
X49531Y81868D01*
X49591Y82171D01*
X49611Y82480D01*
X49591Y82789D01*
X49531Y83093D01*
X49431Y83386D01*
X49294Y83664D01*
X49122Y83921D01*
X48918Y84154D01*
X48685Y84358D01*
X48428Y84530D01*
X48150Y84667D01*
X47857Y84767D01*
X47553Y84827D01*
X47244Y84848D01*
X46935Y84827D01*
X46631Y84767D01*
X46338Y84667D01*
X46060Y84530D01*
X45803Y84358D01*
X45570Y84154D01*
X45366Y83921D01*
X45327Y83863D01*
X33610D01*
X33571Y83921D01*
X33367Y84154D01*
X33134Y84358D01*
X32877Y84530D01*
X32599Y84667D01*
X32306Y84767D01*
X32002Y84827D01*
X31693Y84848D01*
D02*
G37*
G36*
X128295Y65103D02*
Y61681D01*
X131717D01*
X131677Y61953D01*
X131582Y62330D01*
X131451Y62696D01*
X131286Y63047D01*
X131086Y63380D01*
X130854Y63692D01*
X130594Y63980D01*
X130306Y64240D01*
X129994Y64472D01*
X129661Y64671D01*
X129310Y64837D01*
X128944Y64968D01*
X128567Y65063D01*
X128295Y65103D01*
D02*
G37*
G36*
X181390Y78240D02*
X177937D01*
Y74787D01*
X181390D01*
Y78240D01*
D02*
G37*
%LPD*%
G36*
X1121080Y-64032D02*
Y-64318D01*
Y-64605D01*
Y-64891D01*
Y-65177D01*
Y-65464D01*
Y-65750D01*
Y-66036D01*
Y-66322D01*
Y-66609D01*
Y-66895D01*
Y-67181D01*
Y-67468D01*
Y-67754D01*
Y-68040D01*
Y-68327D01*
Y-68613D01*
Y-68899D01*
Y-69186D01*
Y-69472D01*
Y-69758D01*
X1120793D01*
Y-70044D01*
Y-70331D01*
Y-70617D01*
Y-70903D01*
Y-71190D01*
X1120507D01*
Y-71476D01*
Y-71762D01*
Y-72049D01*
Y-72335D01*
X1120221D01*
Y-72621D01*
Y-72908D01*
Y-73194D01*
Y-73480D01*
X1119934D01*
Y-73767D01*
Y-74053D01*
Y-74339D01*
X1119648D01*
Y-74625D01*
Y-74912D01*
Y-75198D01*
X1119362D01*
Y-75485D01*
Y-75771D01*
Y-76057D01*
X1119075D01*
Y-76343D01*
Y-76630D01*
Y-76916D01*
X1118789D01*
Y-77202D01*
Y-77489D01*
X1118503D01*
Y-77775D01*
Y-78061D01*
X1118217D01*
Y-78348D01*
Y-78634D01*
Y-78920D01*
X1117930D01*
Y-79207D01*
Y-79493D01*
X1117644D01*
Y-79779D01*
Y-80066D01*
Y-80352D01*
X1117358D01*
Y-80638D01*
Y-80924D01*
X1117071D01*
Y-81211D01*
Y-81497D01*
Y-81783D01*
X1116785D01*
Y-82070D01*
Y-82356D01*
X1116499D01*
Y-82642D01*
Y-82929D01*
Y-83215D01*
X1116212D01*
Y-83501D01*
Y-83788D01*
X1115926D01*
Y-84074D01*
Y-84360D01*
Y-84646D01*
X1115640D01*
Y-84933D01*
Y-85219D01*
X1115353D01*
Y-85505D01*
Y-85792D01*
Y-86078D01*
X1115067D01*
Y-86364D01*
Y-86651D01*
X1114781D01*
Y-86937D01*
Y-87223D01*
Y-87510D01*
X1114494D01*
Y-87796D01*
Y-88082D01*
X1114208D01*
Y-88369D01*
Y-88655D01*
Y-88941D01*
X1113922D01*
Y-89227D01*
Y-89514D01*
X1113636D01*
Y-89800D01*
Y-90086D01*
Y-90373D01*
X1113349D01*
Y-90659D01*
Y-90945D01*
X1113063D01*
Y-91232D01*
Y-91518D01*
Y-91804D01*
X1112776D01*
Y-92091D01*
Y-92377D01*
X1112490D01*
Y-92663D01*
Y-92950D01*
Y-93236D01*
X1112204D01*
Y-93522D01*
Y-93809D01*
X1111918D01*
Y-94095D01*
Y-94381D01*
Y-94667D01*
X1111631D01*
Y-94954D01*
Y-95240D01*
X1111345D01*
Y-95526D01*
Y-95813D01*
Y-96099D01*
X1111059D01*
Y-96385D01*
Y-96672D01*
X1110772D01*
Y-96958D01*
Y-97244D01*
Y-97531D01*
X1110486D01*
Y-97817D01*
Y-98103D01*
X1110200D01*
Y-98390D01*
Y-98676D01*
Y-98962D01*
X1109913D01*
Y-99248D01*
Y-99535D01*
X1109627D01*
Y-99821D01*
Y-100107D01*
Y-100394D01*
X1109341D01*
Y-100680D01*
Y-100966D01*
X1109054D01*
Y-101253D01*
Y-101539D01*
X1108768D01*
Y-101825D01*
Y-102112D01*
X1108482D01*
Y-102398D01*
Y-102684D01*
Y-102971D01*
X1108195D01*
Y-103257D01*
X1107909D01*
Y-103543D01*
Y-103829D01*
Y-104116D01*
X1107623D01*
Y-104402D01*
X1107337D01*
Y-104688D01*
Y-104975D01*
X1107050D01*
Y-105261D01*
Y-105547D01*
X1106764D01*
Y-105834D01*
Y-106120D01*
X1106478D01*
Y-106406D01*
Y-106693D01*
X1106191D01*
Y-106979D01*
X1105905D01*
Y-107265D01*
Y-107552D01*
X1105619D01*
Y-107838D01*
Y-108124D01*
X1105332D01*
Y-108411D01*
X1105046D01*
Y-108697D01*
X1104760D01*
Y-108983D01*
Y-109269D01*
X1104473D01*
Y-109556D01*
X1104187D01*
Y-109842D01*
Y-110128D01*
X1103901D01*
Y-110415D01*
X1103615D01*
Y-110701D01*
X1103328D01*
Y-110987D01*
Y-111274D01*
X1103042D01*
Y-111560D01*
X1102756D01*
Y-111846D01*
X1102469D01*
Y-112133D01*
X1102183D01*
Y-112419D01*
X1101897D01*
Y-112705D01*
Y-112991D01*
X1101610D01*
Y-113278D01*
X1101324D01*
Y-113564D01*
X1101038D01*
Y-113850D01*
X1100751D01*
Y-114137D01*
X1100465D01*
Y-114423D01*
X1100179D01*
Y-114709D01*
X1099892D01*
Y-114996D01*
X1099320D01*
Y-115282D01*
X1099034D01*
Y-115568D01*
X1098747D01*
Y-115855D01*
X1098461D01*
Y-116141D01*
X1098175D01*
Y-116427D01*
X1097602D01*
Y-116714D01*
X1097316D01*
Y-117000D01*
X1096743D01*
Y-117286D01*
X1096457D01*
Y-117572D01*
X1095884D01*
Y-117859D01*
X1095598D01*
Y-118145D01*
X1095025D01*
Y-118431D01*
X1094452D01*
Y-118718D01*
X1093880D01*
Y-119004D01*
X1093307D01*
Y-119290D01*
X1092735D01*
Y-119577D01*
X1091876D01*
Y-119863D01*
X1091303D01*
Y-120149D01*
X1090444D01*
Y-120436D01*
X1089299D01*
Y-120722D01*
X1088154D01*
Y-121008D01*
X1086436D01*
Y-121294D01*
X1084432D01*
Y-121581D01*
X1084145D01*
Y-121294D01*
Y-121008D01*
Y-120722D01*
Y-120436D01*
Y-120149D01*
Y-119863D01*
Y-119577D01*
Y-119290D01*
Y-119004D01*
Y-118718D01*
Y-118431D01*
Y-118145D01*
Y-117859D01*
Y-117572D01*
Y-117286D01*
Y-117000D01*
Y-116714D01*
Y-116427D01*
Y-116141D01*
Y-115855D01*
Y-115568D01*
Y-115282D01*
Y-114996D01*
Y-114709D01*
Y-114423D01*
Y-114137D01*
Y-113850D01*
Y-113564D01*
Y-113278D01*
Y-112991D01*
Y-112705D01*
Y-112419D01*
Y-112133D01*
X1084718D01*
Y-111846D01*
X1085291D01*
Y-111560D01*
X1085863D01*
Y-111274D01*
X1086436D01*
Y-110987D01*
X1087008D01*
Y-110701D01*
X1087581D01*
Y-110415D01*
X1087867D01*
Y-110128D01*
X1088440D01*
Y-109842D01*
X1088726D01*
Y-109556D01*
X1089299D01*
Y-109269D01*
X1089585D01*
Y-108983D01*
X1089872D01*
Y-108697D01*
X1090444D01*
Y-108411D01*
X1090730D01*
Y-108124D01*
X1091017D01*
Y-107838D01*
X1091303D01*
Y-107552D01*
X1091589D01*
Y-107265D01*
X1091876D01*
Y-106979D01*
X1092162D01*
Y-106693D01*
X1092448D01*
Y-106406D01*
X1092735D01*
Y-106120D01*
X1093021D01*
Y-105834D01*
X1093307D01*
Y-105547D01*
X1093594D01*
Y-105261D01*
Y-104975D01*
X1093880D01*
Y-104688D01*
X1094166D01*
Y-104402D01*
X1094452D01*
Y-104116D01*
Y-103829D01*
X1094739D01*
Y-103543D01*
X1095025D01*
Y-103257D01*
Y-102971D01*
X1095311D01*
Y-102684D01*
Y-102398D01*
X1095598D01*
Y-102112D01*
X1095884D01*
Y-101825D01*
Y-101539D01*
X1096170D01*
Y-101253D01*
Y-100966D01*
X1096457D01*
Y-100680D01*
Y-100394D01*
X1094739D01*
Y-100107D01*
X1092735D01*
Y-99821D01*
X1091589D01*
Y-99535D01*
X1091017D01*
Y-99248D01*
X1090158D01*
Y-98962D01*
X1089585D01*
Y-98676D01*
X1089299D01*
Y-98390D01*
X1088726D01*
Y-98103D01*
X1088440D01*
Y-97817D01*
X1088154D01*
Y-97531D01*
X1087867D01*
Y-97244D01*
X1087581D01*
Y-96958D01*
X1087295D01*
Y-96672D01*
Y-96385D01*
X1087008D01*
Y-96099D01*
X1086722D01*
Y-95813D01*
Y-95526D01*
X1086436D01*
Y-95240D01*
Y-94954D01*
X1086149D01*
Y-94667D01*
Y-94381D01*
X1085863D01*
Y-94095D01*
Y-93809D01*
Y-93522D01*
X1085577D01*
Y-93236D01*
Y-92950D01*
Y-92663D01*
Y-92377D01*
X1085291D01*
Y-92091D01*
Y-91804D01*
Y-91518D01*
Y-91232D01*
Y-90945D01*
Y-90659D01*
Y-90373D01*
X1085004D01*
Y-90086D01*
Y-89800D01*
Y-89514D01*
Y-89227D01*
Y-88941D01*
Y-88655D01*
Y-88369D01*
Y-88082D01*
Y-87796D01*
Y-87510D01*
Y-87223D01*
Y-86937D01*
Y-86651D01*
Y-86364D01*
Y-86078D01*
X1084718D01*
Y-85792D01*
Y-85505D01*
Y-85219D01*
Y-84933D01*
Y-84646D01*
Y-84360D01*
Y-84074D01*
Y-83788D01*
Y-83501D01*
Y-83215D01*
Y-82929D01*
Y-82642D01*
Y-82356D01*
Y-82070D01*
Y-81783D01*
X1084432D01*
Y-81497D01*
Y-81211D01*
Y-80924D01*
Y-80638D01*
Y-80352D01*
Y-80066D01*
Y-79779D01*
Y-79493D01*
Y-79207D01*
Y-78920D01*
Y-78634D01*
Y-78348D01*
Y-78061D01*
Y-77775D01*
Y-77489D01*
Y-77202D01*
X1084145D01*
Y-76916D01*
Y-76630D01*
Y-76343D01*
Y-76057D01*
Y-75771D01*
Y-75485D01*
Y-75198D01*
Y-74912D01*
Y-74625D01*
Y-74339D01*
Y-74053D01*
Y-73767D01*
Y-73480D01*
Y-73194D01*
Y-72908D01*
Y-72621D01*
X1083859D01*
Y-72335D01*
Y-72049D01*
Y-71762D01*
Y-71476D01*
Y-71190D01*
Y-70903D01*
Y-70617D01*
Y-70331D01*
Y-70044D01*
Y-69758D01*
Y-69472D01*
Y-69186D01*
Y-68899D01*
Y-68613D01*
X1083573D01*
Y-68327D01*
Y-68040D01*
Y-67754D01*
Y-67468D01*
Y-67181D01*
Y-66895D01*
Y-66609D01*
Y-66322D01*
Y-66036D01*
Y-65750D01*
Y-65464D01*
Y-65177D01*
Y-64891D01*
Y-64605D01*
Y-64318D01*
Y-64032D01*
X1083286D01*
Y-63746D01*
X1097029D01*
Y-64032D01*
Y-64318D01*
Y-64605D01*
Y-64891D01*
Y-65177D01*
Y-65464D01*
Y-65750D01*
Y-66036D01*
Y-66322D01*
Y-66609D01*
Y-66895D01*
Y-67181D01*
Y-67468D01*
Y-67754D01*
X1097316D01*
Y-68040D01*
Y-68327D01*
Y-68613D01*
Y-68899D01*
Y-69186D01*
Y-69472D01*
Y-69758D01*
Y-70044D01*
Y-70331D01*
Y-70617D01*
Y-70903D01*
Y-71190D01*
Y-71476D01*
Y-71762D01*
Y-72049D01*
Y-72335D01*
Y-72621D01*
Y-72908D01*
Y-73194D01*
Y-73480D01*
Y-73767D01*
Y-74053D01*
Y-74339D01*
Y-74625D01*
Y-74912D01*
Y-75198D01*
Y-75485D01*
Y-75771D01*
Y-76057D01*
Y-76343D01*
Y-76630D01*
Y-76916D01*
Y-77202D01*
Y-77489D01*
Y-77775D01*
Y-78061D01*
Y-78348D01*
Y-78634D01*
Y-78920D01*
Y-79207D01*
Y-79493D01*
X1097602D01*
Y-79779D01*
X1097316D01*
Y-80066D01*
Y-80352D01*
X1097602D01*
Y-80638D01*
Y-80924D01*
Y-81211D01*
Y-81497D01*
Y-81783D01*
Y-82070D01*
Y-82356D01*
Y-82642D01*
Y-82929D01*
Y-83215D01*
Y-83501D01*
Y-83788D01*
Y-84074D01*
Y-84360D01*
Y-84646D01*
Y-84933D01*
Y-85219D01*
Y-85505D01*
Y-85792D01*
Y-86078D01*
Y-86364D01*
Y-86651D01*
Y-86937D01*
Y-87223D01*
Y-87510D01*
Y-87796D01*
X1097888D01*
Y-88082D01*
Y-88369D01*
Y-88655D01*
X1098175D01*
Y-88941D01*
X1098461D01*
Y-89227D01*
X1098747D01*
Y-89514D01*
X1099606D01*
Y-89800D01*
X1100465D01*
Y-89514D01*
X1100751D01*
Y-89227D01*
Y-88941D01*
Y-88655D01*
X1101038D01*
Y-88369D01*
Y-88082D01*
X1101324D01*
Y-87796D01*
Y-87510D01*
Y-87223D01*
X1101610D01*
Y-86937D01*
Y-86651D01*
Y-86364D01*
X1101897D01*
Y-86078D01*
Y-85792D01*
Y-85505D01*
X1102183D01*
Y-85219D01*
Y-84933D01*
Y-84646D01*
X1102469D01*
Y-84360D01*
Y-84074D01*
X1102756D01*
Y-83788D01*
Y-83501D01*
Y-83215D01*
X1103042D01*
Y-82929D01*
Y-82642D01*
Y-82356D01*
X1103328D01*
Y-82070D01*
Y-81783D01*
Y-81497D01*
X1103615D01*
Y-81211D01*
Y-80924D01*
X1103901D01*
Y-80638D01*
Y-80352D01*
Y-80066D01*
X1104187D01*
Y-79779D01*
Y-79493D01*
Y-79207D01*
X1104473D01*
Y-78920D01*
Y-78634D01*
Y-78348D01*
X1104760D01*
Y-78061D01*
Y-77775D01*
X1105046D01*
Y-77489D01*
Y-77202D01*
Y-76916D01*
X1105332D01*
Y-76630D01*
Y-76343D01*
Y-76057D01*
X1105619D01*
Y-75771D01*
Y-75485D01*
Y-75198D01*
X1105905D01*
Y-74912D01*
Y-74625D01*
X1106191D01*
Y-74339D01*
Y-74053D01*
Y-73767D01*
X1106478D01*
Y-73480D01*
Y-73194D01*
Y-72908D01*
X1106764D01*
Y-72621D01*
Y-72335D01*
Y-72049D01*
X1107050D01*
Y-71762D01*
Y-71476D01*
Y-71190D01*
Y-70903D01*
X1107337D01*
Y-70617D01*
Y-70331D01*
Y-70044D01*
Y-69758D01*
X1107623D01*
Y-69472D01*
Y-69186D01*
Y-68899D01*
Y-68613D01*
Y-68327D01*
X1107909D01*
Y-68040D01*
Y-67754D01*
Y-67468D01*
Y-67181D01*
Y-66895D01*
Y-66609D01*
X1108195D01*
Y-66322D01*
Y-66036D01*
Y-65750D01*
Y-65464D01*
Y-65177D01*
Y-64891D01*
Y-64605D01*
Y-64318D01*
Y-64032D01*
Y-63746D01*
X1121080D01*
Y-64032D01*
D02*
G37*
G36*
X1063244Y-46567D02*
Y-46853D01*
X1062958D01*
Y-47139D01*
Y-47426D01*
Y-47712D01*
Y-47998D01*
Y-48285D01*
Y-48571D01*
X1062672D01*
Y-48857D01*
Y-49144D01*
Y-49430D01*
Y-49716D01*
Y-50003D01*
Y-50289D01*
X1062385D01*
Y-50575D01*
Y-50862D01*
Y-51148D01*
Y-51434D01*
Y-51720D01*
Y-52007D01*
Y-52293D01*
X1062099D01*
Y-52579D01*
Y-52866D01*
Y-53152D01*
Y-53438D01*
Y-53725D01*
Y-54011D01*
X1061813D01*
Y-54297D01*
Y-54584D01*
Y-54870D01*
Y-55156D01*
Y-55443D01*
Y-55729D01*
X1061526D01*
Y-56015D01*
Y-56301D01*
Y-56588D01*
Y-56874D01*
Y-57161D01*
Y-57447D01*
Y-57733D01*
X1061240D01*
Y-58019D01*
Y-58306D01*
Y-58592D01*
Y-58878D01*
Y-59165D01*
Y-59451D01*
X1060954D01*
Y-59737D01*
Y-60024D01*
Y-60310D01*
Y-60596D01*
Y-60883D01*
Y-61169D01*
X1060668D01*
Y-61455D01*
Y-61742D01*
Y-62028D01*
Y-62314D01*
Y-62600D01*
Y-62887D01*
X1060381D01*
Y-63173D01*
Y-63459D01*
Y-63746D01*
Y-64032D01*
Y-64318D01*
Y-64605D01*
Y-64891D01*
X1060095D01*
Y-65177D01*
Y-65464D01*
Y-65750D01*
Y-66036D01*
Y-66322D01*
Y-66609D01*
X1059809D01*
Y-66895D01*
Y-67181D01*
X1060381D01*
Y-66895D01*
X1060668D01*
Y-66609D01*
X1060954D01*
Y-66322D01*
X1061526D01*
Y-66036D01*
X1061813D01*
Y-65750D01*
X1062099D01*
Y-65464D01*
X1062672D01*
Y-65177D01*
X1063244D01*
Y-64891D01*
X1063531D01*
Y-64605D01*
X1064103D01*
Y-64318D01*
X1064962D01*
Y-64032D01*
X1065535D01*
Y-63746D01*
X1066394D01*
Y-63459D01*
X1067825D01*
Y-63173D01*
X1074124D01*
Y-63459D01*
X1075270D01*
Y-63746D01*
X1076128D01*
Y-64032D01*
X1076701D01*
Y-64318D01*
X1076987D01*
Y-64605D01*
X1077560D01*
Y-64891D01*
X1077846D01*
Y-65177D01*
X1078133D01*
Y-65464D01*
X1078419D01*
Y-65750D01*
X1078705D01*
Y-66036D01*
Y-66322D01*
X1078992D01*
Y-66609D01*
Y-66895D01*
X1079278D01*
Y-67181D01*
Y-67468D01*
Y-67754D01*
X1079564D01*
Y-68040D01*
Y-68327D01*
Y-68613D01*
Y-68899D01*
X1079850D01*
Y-69186D01*
Y-69472D01*
Y-69758D01*
Y-70044D01*
Y-70331D01*
Y-70617D01*
Y-70903D01*
Y-71190D01*
Y-71476D01*
Y-71762D01*
Y-72049D01*
Y-72335D01*
Y-72621D01*
Y-72908D01*
Y-73194D01*
Y-73480D01*
Y-73767D01*
Y-74053D01*
X1079564D01*
Y-74339D01*
Y-74625D01*
Y-74912D01*
Y-75198D01*
Y-75485D01*
Y-75771D01*
Y-76057D01*
X1079278D01*
Y-76343D01*
Y-76630D01*
Y-76916D01*
Y-77202D01*
Y-77489D01*
Y-77775D01*
Y-78061D01*
X1078992D01*
Y-78348D01*
Y-78634D01*
Y-78920D01*
Y-79207D01*
Y-79493D01*
Y-79779D01*
X1078705D01*
Y-80066D01*
Y-80352D01*
Y-80638D01*
Y-80924D01*
Y-81211D01*
Y-81497D01*
X1078419D01*
Y-81783D01*
Y-82070D01*
Y-82356D01*
Y-82642D01*
Y-82929D01*
Y-83215D01*
X1078133D01*
Y-83501D01*
Y-83788D01*
Y-84074D01*
Y-84360D01*
Y-84646D01*
Y-84933D01*
Y-85219D01*
X1077846D01*
Y-85505D01*
Y-85792D01*
Y-86078D01*
Y-86364D01*
Y-86651D01*
Y-86937D01*
X1077560D01*
Y-87223D01*
Y-87510D01*
Y-87796D01*
Y-88082D01*
Y-88369D01*
Y-88655D01*
X1077274D01*
Y-88941D01*
Y-89227D01*
Y-89514D01*
Y-89800D01*
Y-90086D01*
Y-90373D01*
Y-90659D01*
X1076987D01*
Y-90945D01*
Y-91232D01*
Y-91518D01*
Y-91804D01*
Y-92091D01*
Y-92377D01*
X1076701D01*
Y-92663D01*
Y-92950D01*
Y-93236D01*
Y-93522D01*
Y-93809D01*
Y-94095D01*
X1076415D01*
Y-94381D01*
Y-94667D01*
Y-94954D01*
Y-95240D01*
Y-95526D01*
Y-95813D01*
X1076128D01*
Y-96099D01*
Y-96385D01*
Y-96672D01*
Y-96958D01*
Y-97244D01*
Y-97531D01*
Y-97817D01*
X1075842D01*
Y-98103D01*
Y-98390D01*
Y-98676D01*
Y-98962D01*
Y-99248D01*
Y-99535D01*
X1075556D01*
Y-99821D01*
Y-100107D01*
X1062385D01*
Y-99821D01*
Y-99535D01*
X1062672D01*
Y-99248D01*
Y-98962D01*
Y-98676D01*
Y-98390D01*
Y-98103D01*
Y-97817D01*
X1062958D01*
Y-97531D01*
Y-97244D01*
Y-96958D01*
Y-96672D01*
Y-96385D01*
Y-96099D01*
Y-95813D01*
X1063244D01*
Y-95526D01*
Y-95240D01*
Y-94954D01*
Y-94667D01*
Y-94381D01*
Y-94095D01*
X1063531D01*
Y-93809D01*
Y-93522D01*
Y-93236D01*
Y-92950D01*
Y-92663D01*
Y-92377D01*
X1063817D01*
Y-92091D01*
Y-91804D01*
Y-91518D01*
Y-91232D01*
Y-90945D01*
Y-90659D01*
Y-90373D01*
X1064103D01*
Y-90086D01*
Y-89800D01*
Y-89514D01*
Y-89227D01*
Y-88941D01*
Y-88655D01*
X1064390D01*
Y-88369D01*
Y-88082D01*
Y-87796D01*
Y-87510D01*
Y-87223D01*
Y-86937D01*
Y-86651D01*
X1064676D01*
Y-86364D01*
Y-86078D01*
Y-85792D01*
Y-85505D01*
Y-85219D01*
Y-84933D01*
X1064962D01*
Y-84646D01*
Y-84360D01*
Y-84074D01*
Y-83788D01*
Y-83501D01*
Y-83215D01*
X1065249D01*
Y-82929D01*
Y-82642D01*
Y-82356D01*
Y-82070D01*
Y-81783D01*
Y-81497D01*
X1065535D01*
Y-81211D01*
Y-80924D01*
Y-80638D01*
Y-80352D01*
Y-80066D01*
Y-79779D01*
Y-79493D01*
X1065821D01*
Y-79207D01*
Y-78920D01*
Y-78634D01*
Y-78348D01*
Y-78061D01*
Y-77775D01*
X1066107D01*
Y-77489D01*
Y-77202D01*
Y-76916D01*
Y-76630D01*
Y-76343D01*
Y-76057D01*
Y-75771D01*
X1066394D01*
Y-75485D01*
Y-75198D01*
Y-74912D01*
Y-74625D01*
Y-74339D01*
Y-74053D01*
X1066107D01*
Y-73767D01*
Y-73480D01*
X1065821D01*
Y-73194D01*
X1065535D01*
Y-72908D01*
X1064962D01*
Y-72621D01*
X1063244D01*
Y-72908D01*
X1061813D01*
Y-73194D01*
X1060954D01*
Y-73480D01*
X1060381D01*
Y-73767D01*
X1060095D01*
Y-74053D01*
X1059522D01*
Y-74339D01*
X1059236D01*
Y-74625D01*
X1058950D01*
Y-74912D01*
Y-75198D01*
X1058663D01*
Y-75485D01*
Y-75771D01*
Y-76057D01*
X1058377D01*
Y-76343D01*
Y-76630D01*
Y-76916D01*
Y-77202D01*
Y-77489D01*
Y-77775D01*
X1058091D01*
Y-78061D01*
Y-78348D01*
Y-78634D01*
Y-78920D01*
Y-79207D01*
Y-79493D01*
Y-79779D01*
X1057804D01*
Y-80066D01*
Y-80352D01*
Y-80638D01*
Y-80924D01*
Y-81211D01*
Y-81497D01*
X1057518D01*
Y-81783D01*
Y-82070D01*
Y-82356D01*
Y-82642D01*
Y-82929D01*
Y-83215D01*
X1057232D01*
Y-83501D01*
Y-83788D01*
Y-84074D01*
Y-84360D01*
Y-84646D01*
Y-84933D01*
X1056946D01*
Y-85219D01*
Y-85505D01*
Y-85792D01*
Y-86078D01*
Y-86364D01*
Y-86651D01*
Y-86937D01*
X1056659D01*
Y-87223D01*
Y-87510D01*
Y-87796D01*
Y-88082D01*
Y-88369D01*
Y-88655D01*
X1056373D01*
Y-88941D01*
Y-89227D01*
Y-89514D01*
Y-89800D01*
Y-90086D01*
Y-90373D01*
X1056087D01*
Y-90659D01*
Y-90945D01*
Y-91232D01*
Y-91518D01*
Y-91804D01*
Y-92091D01*
Y-92377D01*
X1055800D01*
Y-92663D01*
Y-92950D01*
Y-93236D01*
Y-93522D01*
Y-93809D01*
Y-94095D01*
X1055514D01*
Y-94381D01*
Y-94667D01*
Y-94954D01*
Y-95240D01*
Y-95526D01*
Y-95813D01*
X1055228D01*
Y-96099D01*
Y-96385D01*
Y-96672D01*
Y-96958D01*
Y-97244D01*
Y-97531D01*
X1054941D01*
Y-97817D01*
Y-98103D01*
Y-98390D01*
Y-98676D01*
Y-98962D01*
Y-99248D01*
Y-99535D01*
X1054655D01*
Y-99821D01*
Y-100107D01*
X1041485D01*
Y-99821D01*
Y-99535D01*
X1041771D01*
Y-99248D01*
Y-98962D01*
Y-98676D01*
Y-98390D01*
Y-98103D01*
Y-97817D01*
Y-97531D01*
X1042057D01*
Y-97244D01*
Y-96958D01*
Y-96672D01*
Y-96385D01*
Y-96099D01*
Y-95813D01*
X1042344D01*
Y-95526D01*
Y-95240D01*
Y-94954D01*
Y-94667D01*
Y-94381D01*
Y-94095D01*
X1042630D01*
Y-93809D01*
Y-93522D01*
Y-93236D01*
Y-92950D01*
Y-92663D01*
Y-92377D01*
Y-92091D01*
X1042916D01*
Y-91804D01*
Y-91518D01*
Y-91232D01*
Y-90945D01*
Y-90659D01*
Y-90373D01*
X1043202D01*
Y-90086D01*
Y-89800D01*
Y-89514D01*
Y-89227D01*
Y-88941D01*
Y-88655D01*
X1043489D01*
Y-88369D01*
Y-88082D01*
Y-87796D01*
Y-87510D01*
Y-87223D01*
Y-86937D01*
X1043775D01*
Y-86651D01*
Y-86364D01*
Y-86078D01*
Y-85792D01*
Y-85505D01*
Y-85219D01*
Y-84933D01*
X1044061D01*
Y-84646D01*
Y-84360D01*
Y-84074D01*
Y-83788D01*
Y-83501D01*
Y-83215D01*
X1044348D01*
Y-82929D01*
Y-82642D01*
Y-82356D01*
Y-82070D01*
Y-81783D01*
Y-81497D01*
X1044634D01*
Y-81211D01*
Y-80924D01*
Y-80638D01*
Y-80352D01*
Y-80066D01*
Y-79779D01*
Y-79493D01*
X1044920D01*
Y-79207D01*
Y-78920D01*
Y-78634D01*
Y-78348D01*
Y-78061D01*
Y-77775D01*
X1045207D01*
Y-77489D01*
Y-77202D01*
Y-76916D01*
Y-76630D01*
Y-76343D01*
Y-76057D01*
X1045493D01*
Y-75771D01*
Y-75485D01*
Y-75198D01*
Y-74912D01*
Y-74625D01*
Y-74339D01*
X1045779D01*
Y-74053D01*
Y-73767D01*
Y-73480D01*
Y-73194D01*
Y-72908D01*
Y-72621D01*
Y-72335D01*
X1046066D01*
Y-72049D01*
Y-71762D01*
Y-71476D01*
Y-71190D01*
Y-70903D01*
Y-70617D01*
X1046352D01*
Y-70331D01*
Y-70044D01*
Y-69758D01*
Y-69472D01*
Y-69186D01*
Y-68899D01*
X1046638D01*
Y-68613D01*
Y-68327D01*
Y-68040D01*
Y-67754D01*
Y-67468D01*
Y-67181D01*
X1046925D01*
Y-66895D01*
Y-66609D01*
Y-66322D01*
Y-66036D01*
Y-65750D01*
Y-65464D01*
Y-65177D01*
X1047211D01*
Y-64891D01*
Y-64605D01*
Y-64318D01*
Y-64032D01*
Y-63746D01*
Y-63459D01*
X1047497D01*
Y-63173D01*
Y-62887D01*
Y-62600D01*
Y-62314D01*
Y-62028D01*
Y-61742D01*
X1047783D01*
Y-61455D01*
Y-61169D01*
Y-60883D01*
Y-60596D01*
Y-60310D01*
Y-60024D01*
Y-59737D01*
X1048070D01*
Y-59451D01*
Y-59165D01*
Y-58878D01*
Y-58592D01*
Y-58306D01*
Y-58019D01*
X1048356D01*
Y-57733D01*
Y-57447D01*
Y-57161D01*
Y-56874D01*
Y-56588D01*
Y-56301D01*
X1048642D01*
Y-56015D01*
Y-55729D01*
Y-55443D01*
Y-55156D01*
Y-54870D01*
Y-54584D01*
X1048929D01*
Y-54297D01*
Y-54011D01*
Y-53725D01*
Y-53438D01*
Y-53152D01*
Y-52866D01*
Y-52579D01*
X1049215D01*
Y-52293D01*
Y-52007D01*
Y-51720D01*
Y-51434D01*
Y-51148D01*
Y-50862D01*
X1049501D01*
Y-50575D01*
Y-50289D01*
Y-50003D01*
Y-49716D01*
Y-49430D01*
Y-49144D01*
X1049788D01*
Y-48857D01*
Y-48571D01*
Y-48285D01*
Y-47998D01*
Y-47712D01*
Y-47426D01*
Y-47139D01*
X1050074D01*
Y-46853D01*
Y-46567D01*
Y-46281D01*
X1063244D01*
Y-46567D01*
D02*
G37*
G36*
X1032036Y-50003D02*
X1033754D01*
Y-50289D01*
X1034613D01*
Y-50575D01*
X1035472D01*
Y-50862D01*
X1036331D01*
Y-51148D01*
X1036904D01*
Y-51434D01*
X1037190D01*
Y-51720D01*
X1037763D01*
Y-52007D01*
X1038049D01*
Y-52293D01*
X1038622D01*
Y-52579D01*
X1038908D01*
Y-52866D01*
X1039194D01*
Y-53152D01*
X1039480D01*
Y-53438D01*
X1039767D01*
Y-53725D01*
X1040053D01*
Y-54011D01*
X1040339D01*
Y-54297D01*
Y-54584D01*
X1040626D01*
Y-54870D01*
X1040912D01*
Y-55156D01*
Y-55443D01*
X1041198D01*
Y-55729D01*
X1041485D01*
Y-56015D01*
Y-56301D01*
X1041771D01*
Y-56588D01*
Y-56874D01*
Y-57161D01*
X1042057D01*
Y-57447D01*
Y-57733D01*
Y-58019D01*
X1042344D01*
Y-58306D01*
Y-58592D01*
Y-58878D01*
Y-59165D01*
X1042630D01*
Y-59451D01*
Y-59737D01*
Y-60024D01*
Y-60310D01*
Y-60596D01*
X1042916D01*
Y-60883D01*
Y-61169D01*
Y-61455D01*
Y-61742D01*
Y-62028D01*
Y-62314D01*
Y-62600D01*
Y-62887D01*
Y-63173D01*
Y-63459D01*
Y-63746D01*
Y-64032D01*
Y-64318D01*
Y-64605D01*
Y-64891D01*
Y-65177D01*
Y-65464D01*
Y-65750D01*
Y-66036D01*
Y-66322D01*
X1042630D01*
Y-66609D01*
Y-66895D01*
Y-67181D01*
Y-67468D01*
Y-67754D01*
Y-68040D01*
Y-68327D01*
X1042344D01*
Y-68613D01*
Y-68899D01*
Y-69186D01*
Y-69472D01*
Y-69758D01*
X1042057D01*
Y-70044D01*
Y-70331D01*
Y-70617D01*
Y-70903D01*
Y-71190D01*
X1041771D01*
Y-71476D01*
Y-71762D01*
Y-72049D01*
X1041485D01*
Y-72335D01*
Y-72621D01*
Y-72908D01*
Y-73194D01*
X1041198D01*
Y-73480D01*
Y-73767D01*
Y-74053D01*
X1040912D01*
Y-74339D01*
Y-74625D01*
X1040626D01*
Y-74912D01*
Y-75198D01*
Y-75485D01*
X1040339D01*
Y-75771D01*
Y-76057D01*
X1040053D01*
Y-76343D01*
Y-76630D01*
X1039767D01*
Y-76916D01*
Y-77202D01*
X1039480D01*
Y-77489D01*
X1039194D01*
Y-77775D01*
Y-78061D01*
X1038908D01*
Y-78348D01*
X1038622D01*
Y-78634D01*
X1038335D01*
Y-78920D01*
Y-79207D01*
X1038049D01*
Y-79493D01*
X1037763D01*
Y-79779D01*
X1037476D01*
Y-80066D01*
X1037190D01*
Y-80352D01*
X1036904D01*
Y-80638D01*
X1036331D01*
Y-80924D01*
X1036045D01*
Y-81211D01*
X1035472D01*
Y-81497D01*
X1035186D01*
Y-81783D01*
X1034613D01*
Y-82070D01*
X1033754D01*
Y-82356D01*
X1032895D01*
Y-82642D01*
X1032036D01*
Y-82929D01*
X1030318D01*
Y-83215D01*
X1025165D01*
Y-82929D01*
X1022588D01*
Y-82642D01*
X1020584D01*
Y-82356D01*
X1019152D01*
Y-82070D01*
X1017721D01*
Y-81783D01*
X1016289D01*
Y-82070D01*
Y-82356D01*
Y-82642D01*
Y-82929D01*
Y-83215D01*
Y-83501D01*
Y-83788D01*
X1016003D01*
Y-84074D01*
Y-84360D01*
Y-84646D01*
Y-84933D01*
Y-85219D01*
Y-85505D01*
X1015716D01*
Y-85792D01*
Y-86078D01*
Y-86364D01*
Y-86651D01*
Y-86937D01*
Y-87223D01*
X1015430D01*
Y-87510D01*
Y-87796D01*
Y-88082D01*
Y-88369D01*
Y-88655D01*
Y-88941D01*
Y-89227D01*
X1015144D01*
Y-89514D01*
Y-89800D01*
Y-90086D01*
Y-90373D01*
Y-90659D01*
Y-90945D01*
X1014857D01*
Y-91232D01*
Y-91518D01*
Y-91804D01*
Y-92091D01*
Y-92377D01*
Y-92663D01*
X1014571D01*
Y-92950D01*
Y-93236D01*
Y-93522D01*
Y-93809D01*
Y-94095D01*
Y-94381D01*
Y-94667D01*
X1014285D01*
Y-94954D01*
Y-95240D01*
Y-95526D01*
Y-95813D01*
Y-96099D01*
Y-96385D01*
X1013999D01*
Y-96672D01*
Y-96958D01*
Y-97244D01*
Y-97531D01*
Y-97817D01*
Y-98103D01*
X1013712D01*
Y-98390D01*
Y-98676D01*
Y-98962D01*
Y-99248D01*
Y-99535D01*
Y-99821D01*
Y-100107D01*
X1000256D01*
Y-99821D01*
X1000542D01*
Y-99535D01*
Y-99248D01*
Y-98962D01*
Y-98676D01*
Y-98390D01*
X1000828D01*
Y-98103D01*
Y-97817D01*
Y-97531D01*
Y-97244D01*
Y-96958D01*
Y-96672D01*
Y-96385D01*
X1001114D01*
Y-96099D01*
Y-95813D01*
Y-95526D01*
Y-95240D01*
Y-94954D01*
Y-94667D01*
X1001401D01*
Y-94381D01*
Y-94095D01*
Y-93809D01*
Y-93522D01*
Y-93236D01*
Y-92950D01*
X1001687D01*
Y-92663D01*
Y-92377D01*
Y-92091D01*
Y-91804D01*
Y-91518D01*
Y-91232D01*
Y-90945D01*
X1001974D01*
Y-90659D01*
Y-90373D01*
Y-90086D01*
Y-89800D01*
Y-89514D01*
Y-89227D01*
X1002260D01*
Y-88941D01*
Y-88655D01*
Y-88369D01*
Y-88082D01*
Y-87796D01*
Y-87510D01*
X1002546D01*
Y-87223D01*
Y-86937D01*
Y-86651D01*
Y-86364D01*
Y-86078D01*
Y-85792D01*
X1002832D01*
Y-85505D01*
Y-85219D01*
Y-84933D01*
Y-84646D01*
Y-84360D01*
Y-84074D01*
Y-83788D01*
X1003119D01*
Y-83501D01*
Y-83215D01*
Y-82929D01*
Y-82642D01*
Y-82356D01*
Y-82070D01*
X1003405D01*
Y-81783D01*
Y-81497D01*
Y-81211D01*
Y-80924D01*
Y-80638D01*
Y-80352D01*
X1003691D01*
Y-80066D01*
Y-79779D01*
Y-79493D01*
Y-79207D01*
Y-78920D01*
Y-78634D01*
X1003978D01*
Y-78348D01*
Y-78061D01*
Y-77775D01*
Y-77489D01*
Y-77202D01*
Y-76916D01*
Y-76630D01*
X1004264D01*
Y-76343D01*
Y-76057D01*
Y-75771D01*
Y-75485D01*
Y-75198D01*
Y-74912D01*
X1004550D01*
Y-74625D01*
Y-74339D01*
Y-74053D01*
Y-73767D01*
Y-73480D01*
Y-73194D01*
X1004837D01*
Y-72908D01*
Y-72621D01*
Y-72335D01*
Y-72049D01*
Y-71762D01*
Y-71476D01*
Y-71190D01*
X1005123D01*
Y-70903D01*
Y-70617D01*
Y-70331D01*
Y-70044D01*
Y-69758D01*
Y-69472D01*
X1005409D01*
Y-69186D01*
Y-68899D01*
Y-68613D01*
Y-68327D01*
Y-68040D01*
Y-67754D01*
X1005696D01*
Y-67468D01*
Y-67181D01*
Y-66895D01*
Y-66609D01*
Y-66322D01*
Y-66036D01*
X1005982D01*
Y-65750D01*
Y-65464D01*
Y-65177D01*
Y-64891D01*
Y-64605D01*
Y-64318D01*
Y-64032D01*
X1006268D01*
Y-63746D01*
Y-63459D01*
Y-63173D01*
Y-62887D01*
Y-62600D01*
Y-62314D01*
X1006555D01*
Y-62028D01*
Y-61742D01*
Y-61455D01*
Y-61169D01*
Y-60883D01*
Y-60596D01*
X1006841D01*
Y-60310D01*
Y-60024D01*
Y-59737D01*
Y-59451D01*
Y-59165D01*
Y-58878D01*
Y-58592D01*
X1007127D01*
Y-58306D01*
Y-58019D01*
Y-57733D01*
Y-57447D01*
Y-57161D01*
Y-56874D01*
X1007413D01*
Y-56588D01*
Y-56301D01*
Y-56015D01*
Y-55729D01*
Y-55443D01*
Y-55156D01*
X1007700D01*
Y-54870D01*
Y-54584D01*
Y-54297D01*
Y-54011D01*
Y-53725D01*
Y-53438D01*
Y-53152D01*
X1007986D01*
Y-52866D01*
Y-52579D01*
Y-52293D01*
Y-52007D01*
Y-51720D01*
Y-51434D01*
X1008272D01*
Y-51148D01*
Y-50862D01*
Y-50575D01*
Y-50289D01*
Y-50003D01*
Y-49716D01*
X1032036D01*
Y-50003D01*
D02*
G37*
G36*
X1165172Y-64032D02*
X1164886D01*
Y-64318D01*
X1164599D01*
Y-64605D01*
Y-64891D01*
X1164313D01*
Y-65177D01*
X1164027D01*
Y-65464D01*
X1163740D01*
Y-65750D01*
Y-66036D01*
X1163454D01*
Y-66322D01*
X1163168D01*
Y-66609D01*
X1162881D01*
Y-66895D01*
X1162595D01*
Y-67181D01*
Y-67468D01*
X1162309D01*
Y-67754D01*
X1162022D01*
Y-68040D01*
X1161736D01*
Y-68327D01*
Y-68613D01*
X1161450D01*
Y-68899D01*
X1161163D01*
Y-69186D01*
X1160877D01*
Y-69472D01*
X1160591D01*
Y-69758D01*
Y-70044D01*
X1160305D01*
Y-70331D01*
X1160018D01*
Y-70617D01*
X1159732D01*
Y-70903D01*
Y-71190D01*
X1159445D01*
Y-71476D01*
X1159159D01*
Y-71762D01*
X1158873D01*
Y-72049D01*
Y-72335D01*
X1158587D01*
Y-72621D01*
X1158300D01*
Y-72908D01*
X1158014D01*
Y-73194D01*
X1157728D01*
Y-73480D01*
Y-73767D01*
X1157441D01*
Y-74053D01*
X1157155D01*
Y-74339D01*
X1156869D01*
Y-74625D01*
Y-74912D01*
X1156582D01*
Y-75198D01*
X1156296D01*
Y-75485D01*
X1156010D01*
Y-75771D01*
Y-76057D01*
X1155723D01*
Y-76343D01*
X1155437D01*
Y-76630D01*
X1155151D01*
Y-76916D01*
X1154865D01*
Y-77202D01*
Y-77489D01*
X1154578D01*
Y-77775D01*
X1154292D01*
Y-78061D01*
X1154006D01*
Y-78348D01*
Y-78634D01*
X1153719D01*
Y-78920D01*
X1153433D01*
Y-79207D01*
X1153147D01*
Y-79493D01*
Y-79779D01*
X1152860D01*
Y-80066D01*
X1152574D01*
Y-80352D01*
X1152288D01*
Y-80638D01*
X1152001D01*
Y-80924D01*
Y-81211D01*
X1151715D01*
Y-81497D01*
X1151429D01*
Y-81783D01*
X1151142D01*
Y-82070D01*
Y-82356D01*
X1150856D01*
Y-82642D01*
X1150570D01*
Y-82929D01*
X1150284D01*
Y-83215D01*
X1149997D01*
Y-83501D01*
Y-83788D01*
X1150284D01*
Y-84074D01*
Y-84360D01*
X1150570D01*
Y-84646D01*
Y-84933D01*
X1150856D01*
Y-85219D01*
X1151142D01*
Y-85505D01*
Y-85792D01*
X1151429D01*
Y-86078D01*
Y-86364D01*
X1151715D01*
Y-86651D01*
Y-86937D01*
X1152001D01*
Y-87223D01*
Y-87510D01*
X1152288D01*
Y-87796D01*
Y-88082D01*
X1152574D01*
Y-88369D01*
Y-88655D01*
X1152860D01*
Y-88941D01*
Y-89227D01*
X1153147D01*
Y-89514D01*
Y-89800D01*
X1153433D01*
Y-90086D01*
X1153719D01*
Y-90373D01*
Y-90659D01*
X1154006D01*
Y-90945D01*
Y-91232D01*
X1154292D01*
Y-91518D01*
Y-91804D01*
X1154578D01*
Y-92091D01*
Y-92377D01*
X1154865D01*
Y-92663D01*
Y-92950D01*
X1155151D01*
Y-93236D01*
Y-93522D01*
X1155437D01*
Y-93809D01*
Y-94095D01*
X1155723D01*
Y-94381D01*
X1156010D01*
Y-94667D01*
Y-94954D01*
X1156296D01*
Y-95240D01*
Y-95526D01*
X1156582D01*
Y-95813D01*
Y-96099D01*
X1156869D01*
Y-96385D01*
Y-96672D01*
X1157155D01*
Y-96958D01*
Y-97244D01*
X1157441D01*
Y-97531D01*
Y-97817D01*
X1157728D01*
Y-98103D01*
Y-98390D01*
X1158014D01*
Y-98676D01*
X1158300D01*
Y-98962D01*
Y-99248D01*
X1158587D01*
Y-99535D01*
Y-99821D01*
X1158873D01*
Y-100107D01*
X1143698D01*
Y-99821D01*
X1143412D01*
Y-99535D01*
Y-99248D01*
Y-98962D01*
X1143126D01*
Y-98676D01*
Y-98390D01*
Y-98103D01*
X1142839D01*
Y-97817D01*
Y-97531D01*
X1142553D01*
Y-97244D01*
Y-96958D01*
Y-96672D01*
X1142267D01*
Y-96385D01*
Y-96099D01*
Y-95813D01*
X1141980D01*
Y-95526D01*
Y-95240D01*
X1141694D01*
Y-94954D01*
Y-94667D01*
Y-94381D01*
X1141408D01*
Y-94095D01*
Y-93809D01*
Y-93522D01*
X1141121D01*
Y-93236D01*
Y-92950D01*
Y-92663D01*
X1140835D01*
Y-92377D01*
X1140263D01*
Y-92663D01*
Y-92950D01*
X1139976D01*
Y-93236D01*
X1139690D01*
Y-93522D01*
Y-93809D01*
X1139404D01*
Y-94095D01*
X1139117D01*
Y-94381D01*
Y-94667D01*
X1138831D01*
Y-94954D01*
X1138545D01*
Y-95240D01*
Y-95526D01*
X1138258D01*
Y-95813D01*
X1137972D01*
Y-96099D01*
X1137686D01*
Y-96385D01*
Y-96672D01*
X1137399D01*
Y-96958D01*
X1137113D01*
Y-97244D01*
Y-97531D01*
X1136827D01*
Y-97817D01*
X1136541D01*
Y-98103D01*
Y-98390D01*
X1136254D01*
Y-98676D01*
X1135968D01*
Y-98962D01*
Y-99248D01*
X1135682D01*
Y-99535D01*
X1135395D01*
Y-99821D01*
Y-100107D01*
X1119362D01*
Y-99821D01*
X1119648D01*
Y-99535D01*
X1119934D01*
Y-99248D01*
X1120221D01*
Y-98962D01*
X1120507D01*
Y-98676D01*
Y-98390D01*
X1120793D01*
Y-98103D01*
X1121080D01*
Y-97817D01*
X1121366D01*
Y-97531D01*
X1121652D01*
Y-97244D01*
Y-96958D01*
X1121939D01*
Y-96672D01*
X1122225D01*
Y-96385D01*
X1122511D01*
Y-96099D01*
Y-95813D01*
X1122797D01*
Y-95526D01*
X1123084D01*
Y-95240D01*
X1123370D01*
Y-94954D01*
X1123656D01*
Y-94667D01*
Y-94381D01*
X1123943D01*
Y-94095D01*
X1124229D01*
Y-93809D01*
X1124515D01*
Y-93522D01*
X1124802D01*
Y-93236D01*
Y-92950D01*
X1125088D01*
Y-92663D01*
X1125374D01*
Y-92377D01*
X1125661D01*
Y-92091D01*
Y-91804D01*
X1125947D01*
Y-91518D01*
X1126233D01*
Y-91232D01*
X1126519D01*
Y-90945D01*
X1126806D01*
Y-90659D01*
Y-90373D01*
X1127092D01*
Y-90086D01*
X1127378D01*
Y-89800D01*
X1127665D01*
Y-89514D01*
Y-89227D01*
X1127951D01*
Y-88941D01*
X1128237D01*
Y-88655D01*
X1128524D01*
Y-88369D01*
X1128810D01*
Y-88082D01*
Y-87796D01*
X1129096D01*
Y-87510D01*
X1129383D01*
Y-87223D01*
X1129669D01*
Y-86937D01*
Y-86651D01*
X1129955D01*
Y-86364D01*
X1130242D01*
Y-86078D01*
X1130528D01*
Y-85792D01*
X1130814D01*
Y-85505D01*
Y-85219D01*
X1131100D01*
Y-84933D01*
X1131387D01*
Y-84646D01*
X1131673D01*
Y-84360D01*
X1131960D01*
Y-84074D01*
Y-83788D01*
X1132246D01*
Y-83501D01*
X1132532D01*
Y-83215D01*
X1132818D01*
Y-82929D01*
Y-82642D01*
X1133105D01*
Y-82356D01*
X1133391D01*
Y-82070D01*
X1133677D01*
Y-81783D01*
X1133964D01*
Y-81497D01*
Y-81211D01*
X1134250D01*
Y-80924D01*
Y-80638D01*
Y-80352D01*
X1133964D01*
Y-80066D01*
X1133677D01*
Y-79779D01*
Y-79493D01*
X1133391D01*
Y-79207D01*
Y-78920D01*
X1133105D01*
Y-78634D01*
Y-78348D01*
X1132818D01*
Y-78061D01*
Y-77775D01*
X1132532D01*
Y-77489D01*
Y-77202D01*
X1132246D01*
Y-76916D01*
Y-76630D01*
X1131960D01*
Y-76343D01*
X1131673D01*
Y-76057D01*
Y-75771D01*
X1131387D01*
Y-75485D01*
Y-75198D01*
X1131100D01*
Y-74912D01*
Y-74625D01*
X1130814D01*
Y-74339D01*
Y-74053D01*
X1130528D01*
Y-73767D01*
Y-73480D01*
X1130242D01*
Y-73194D01*
Y-72908D01*
X1129955D01*
Y-72621D01*
X1129669D01*
Y-72335D01*
Y-72049D01*
X1129383D01*
Y-71762D01*
Y-71476D01*
X1129096D01*
Y-71190D01*
Y-70903D01*
X1128810D01*
Y-70617D01*
Y-70331D01*
X1128524D01*
Y-70044D01*
Y-69758D01*
X1128237D01*
Y-69472D01*
Y-69186D01*
X1127951D01*
Y-68899D01*
Y-68613D01*
X1127665D01*
Y-68327D01*
X1127378D01*
Y-68040D01*
Y-67754D01*
X1127092D01*
Y-67468D01*
Y-67181D01*
X1126806D01*
Y-66895D01*
Y-66609D01*
X1126519D01*
Y-66322D01*
Y-66036D01*
X1126233D01*
Y-65750D01*
Y-65464D01*
X1125947D01*
Y-65177D01*
Y-64891D01*
X1125661D01*
Y-64605D01*
X1125374D01*
Y-64318D01*
Y-64032D01*
X1125088D01*
Y-63746D01*
X1140835D01*
Y-64032D01*
X1141121D01*
Y-64318D01*
Y-64605D01*
Y-64891D01*
X1141408D01*
Y-65177D01*
Y-65464D01*
Y-65750D01*
X1141694D01*
Y-66036D01*
Y-66322D01*
Y-66609D01*
X1141980D01*
Y-66895D01*
Y-67181D01*
Y-67468D01*
X1142267D01*
Y-67754D01*
Y-68040D01*
Y-68327D01*
X1142553D01*
Y-68613D01*
Y-68899D01*
Y-69186D01*
X1142839D01*
Y-69472D01*
Y-69758D01*
Y-70044D01*
X1143126D01*
Y-70331D01*
Y-70617D01*
Y-70903D01*
X1143412D01*
Y-71190D01*
Y-71476D01*
Y-71762D01*
Y-72049D01*
X1143985D01*
Y-71762D01*
X1144271D01*
Y-71476D01*
X1144557D01*
Y-71190D01*
Y-70903D01*
X1144844D01*
Y-70617D01*
X1145130D01*
Y-70331D01*
Y-70044D01*
X1145416D01*
Y-69758D01*
X1145702D01*
Y-69472D01*
Y-69186D01*
X1145989D01*
Y-68899D01*
X1146275D01*
Y-68613D01*
Y-68327D01*
X1146561D01*
Y-68040D01*
X1146848D01*
Y-67754D01*
Y-67468D01*
X1147134D01*
Y-67181D01*
X1147420D01*
Y-66895D01*
Y-66609D01*
X1147707D01*
Y-66322D01*
X1147993D01*
Y-66036D01*
Y-65750D01*
X1148279D01*
Y-65464D01*
X1148566D01*
Y-65177D01*
Y-64891D01*
X1148852D01*
Y-64605D01*
X1149138D01*
Y-64318D01*
Y-64032D01*
X1149425D01*
Y-63746D01*
X1165172D01*
Y-64032D01*
D02*
G37*
%LPC*%
G36*
X1027742Y-60883D02*
X1019725D01*
Y-61169D01*
Y-61455D01*
Y-61742D01*
Y-62028D01*
Y-62314D01*
X1019438D01*
Y-62600D01*
Y-62887D01*
Y-63173D01*
Y-63459D01*
Y-63746D01*
Y-64032D01*
X1019152D01*
Y-64318D01*
Y-64605D01*
Y-64891D01*
Y-65177D01*
Y-65464D01*
Y-65750D01*
X1018866D01*
Y-66036D01*
Y-66322D01*
Y-66609D01*
Y-66895D01*
Y-67181D01*
Y-67468D01*
X1018580D01*
Y-67754D01*
Y-68040D01*
Y-68327D01*
Y-68613D01*
Y-68899D01*
Y-69186D01*
Y-69472D01*
X1018293D01*
Y-69758D01*
Y-70044D01*
Y-70331D01*
Y-70617D01*
Y-70903D01*
Y-71190D01*
X1018007D01*
Y-71476D01*
Y-71762D01*
Y-72049D01*
X1025165D01*
Y-71762D01*
X1026310D01*
Y-71476D01*
X1026883D01*
Y-71190D01*
X1027169D01*
Y-70903D01*
X1027455D01*
Y-70617D01*
X1027742D01*
Y-70331D01*
X1028028D01*
Y-70044D01*
Y-69758D01*
X1028314D01*
Y-69472D01*
Y-69186D01*
X1028601D01*
Y-68899D01*
Y-68613D01*
X1028887D01*
Y-68327D01*
Y-68040D01*
Y-67754D01*
Y-67468D01*
X1029173D01*
Y-67181D01*
Y-66895D01*
Y-66609D01*
Y-66322D01*
Y-66036D01*
X1029459D01*
Y-65750D01*
Y-65464D01*
Y-65177D01*
Y-64891D01*
Y-64605D01*
Y-64318D01*
Y-64032D01*
Y-63746D01*
Y-63459D01*
Y-63173D01*
Y-62887D01*
X1029173D01*
Y-62600D01*
Y-62314D01*
X1028887D01*
Y-62028D01*
Y-61742D01*
X1028601D01*
Y-61455D01*
X1028314D01*
Y-61169D01*
X1027742D01*
Y-60883D01*
D02*
G37*
%LPD*%
D10*
X147811Y137181D02*
G03*
X144882Y130110I7071J-7071D01*
G01*
X142586Y120440D02*
G03*
X144882Y125984I-5545J5544D01*
G01*
X137709Y123437D02*
G03*
X136319Y120079I3362J-3359D01*
G01*
X137711Y123439D02*
G03*
X137709Y123437I3360J-3360D01*
G01*
X169291Y72489D02*
G03*
X172220Y65417I10000J0D01*
G01*
X79480Y43749D02*
G03*
X81496Y42913I2016J2016D01*
G01*
X40945Y145776D02*
G03*
X43874Y138705I10000J0D01*
G01*
X63315Y138948D02*
G03*
X56595Y141732I-6721J-6721D01*
G01*
X71946Y124013D02*
G03*
X71949Y124016I-4749J4755D01*
G01*
X67197Y122047D02*
G03*
X71946Y124013I0J6721D01*
G01*
X34355Y124976D02*
G03*
X41426Y122047I7071J7071D01*
G01*
X66063Y100276D02*
G03*
X61024Y102362I-5039J-5042D01*
G01*
X66064Y100274D02*
G03*
X66063Y100276I-5041J-5041D01*
G01*
X62992Y107776D02*
G03*
X57052Y110236I-5940J-5940D01*
G01*
X96850Y68504D02*
G03*
X99213Y70866I0J2362D01*
G01*
Y79317D02*
G03*
X98228Y81693I-3360J0D01*
G01*
X98226Y81695D02*
G03*
X95852Y82677I-2374J-2379D01*
G01*
X98228Y81693D02*
G03*
X98226Y81695I-2376J-2376D01*
G01*
X91129Y84068D02*
G03*
X94488Y82677I3359J3361D01*
G01*
X91128Y84069D02*
G03*
X91129Y84068I3360J3360D01*
G01*
X92518Y74805D02*
G03*
X92520Y74803I2853J2850D01*
G01*
X91339Y77655D02*
G03*
X92518Y74805I4033J0D01*
G01*
X91339Y77953D02*
G03*
X90295Y80473I-3564J0D01*
G01*
X84437Y75996D02*
G03*
X84439Y75994I2354J2350D01*
G01*
X83465Y78347D02*
G03*
X84437Y75996I3327J0D01*
G01*
X81657Y84681D02*
G03*
X81655Y84684I-4371J-4366D01*
G01*
X83465Y80315D02*
G03*
X81657Y84681I-6178J0D01*
G01*
X114961Y83161D02*
G03*
X112032Y90232I-10000J0D01*
G01*
X104961Y42913D02*
G03*
X114961Y52913I0J10000D01*
G01*
X147811Y137181D02*
X158268Y147638D01*
X144882Y125984D02*
Y130110D01*
X140256Y118110D02*
X142586Y120440D01*
X136319Y86614D02*
Y120079D01*
X137709Y123437D02*
X137711Y123439D01*
X140256Y125984D01*
X172220Y65417D02*
X181890Y55748D01*
X169291Y72489D02*
Y84646D01*
X81496Y42913D02*
X104961D01*
X70472Y52756D02*
X79480Y43749D01*
X43874Y138705D02*
X56595Y125984D01*
X40945Y145776D02*
Y149606D01*
X68898Y133366D02*
X75099Y127165D01*
X63315Y138948D02*
X68898Y133366D01*
X71949Y124016D02*
X75099Y127165D01*
X41426Y122047D02*
X67197D01*
X32165Y127165D02*
X34355Y124976D01*
X56595Y102362D02*
X61024D01*
X66064Y100274D02*
X81655Y84684D01*
X62992Y107776D02*
X90295Y80473D01*
X56595Y110236D02*
X57052D01*
X75099Y127165D02*
X112032Y90232D01*
X31693Y82480D02*
X47244D01*
X92421Y68504D02*
X96850D01*
X99213Y70866D02*
Y79317D01*
X94488Y82677D02*
X95852D01*
X91128Y84069D02*
X91129Y84068D01*
X92520Y74803D02*
X96457Y70866D01*
X91339Y77655D02*
Y77953D01*
X84439Y75994D02*
X87598Y72835D01*
X83465Y78347D02*
Y80315D01*
X92028Y68898D02*
X92421Y68504D01*
X114961Y52913D02*
Y83161D01*
X56595Y118110D02*
X57087D01*
X91128Y84069D01*
X0Y11811D02*
G03*
X11811Y0I11811J0D01*
G01*
X185039D02*
G03*
X196850Y11811I0J11811D01*
G01*
Y149606D02*
G03*
X185039Y161417I-11811J0D01*
G01*
X11811D02*
G03*
X0Y149606I0J-11811D01*
G01*
X9843Y133858D02*
G03*
X5906Y137795I-3937J0D01*
G01*
X0Y141732D02*
G03*
X3937Y137795I3937J0D01*
G01*
X5906Y23622D02*
G03*
X9843Y27559I0J3937D01*
G01*
X3937Y23622D02*
G03*
X0Y19685I0J-3937D01*
G01*
X15748Y161417D02*
G03*
X19685Y165354I0J3937D01*
G01*
X27559Y185039D02*
G03*
X19685Y177165I0J-7874D01*
G01*
X177165D02*
G03*
X169291Y185039I-7874J0D01*
G01*
X192913Y137795D02*
G03*
X196850Y141732I0J3937D01*
G01*
X177165Y165354D02*
G03*
X181102Y161417I3937J0D01*
G01*
X190945Y137795D02*
G03*
X187008Y133858I0J-3937D01*
G01*
X196850Y19685D02*
G03*
X192913Y23622I-3937J0D01*
G01*
X187008Y27559D02*
G03*
X190945Y23622I3937J0D01*
G01*
X0Y11811D02*
Y19685D01*
X11811Y0D02*
X15748D01*
X196850Y11811D02*
Y19685D01*
X181102Y0D02*
X185039D01*
X181102Y161417D02*
X185039D01*
X196850Y141732D02*
Y149606D01*
X3937Y137795D02*
X5906D01*
X9843Y27559D02*
Y133858D01*
X3937Y23622D02*
X5906D01*
X19685Y169291D02*
Y177165D01*
X177165Y169291D02*
Y177165D01*
X27559Y185039D02*
X169291D01*
X15748Y0D02*
X181102D01*
X0Y141732D02*
Y149606D01*
X11811Y161417D02*
X15748D01*
X19685Y165354D02*
Y169291D01*
X177165Y165354D02*
Y169291D01*
X190945Y137795D02*
X192913D01*
X190945Y23622D02*
X192913D01*
X187008Y27559D02*
Y133858D01*
X1338583Y-137795D02*
Y-98425D01*
X1181102Y-59055D02*
X1456693D01*
X1181102Y-98425D02*
X1456693D01*
X984252Y-137795D02*
X1456693D01*
X984252Y-19685D02*
X1456693D01*
X984252Y-177165D02*
Y-19685D01*
X1181102Y-177165D02*
Y-19685D01*
X-196850Y992126D02*
X1456693D01*
Y-177165D02*
Y992126D01*
X-196850Y-177165D02*
Y992126D01*
Y-177165D02*
X1456693D01*
X1194881Y-163388D02*
X1190945D01*
Y-169291D01*
X1194881D01*
X1190945Y-166340D02*
X1192913D01*
X1200784Y-164372D02*
X1199800Y-163388D01*
X1197832D01*
X1196848Y-164372D01*
Y-165356D01*
X1197832Y-166340D01*
X1199800D01*
X1200784Y-167324D01*
Y-168307D01*
X1199800Y-169291D01*
X1197832D01*
X1196848Y-168307D01*
X1202752Y-169291D02*
Y-163388D01*
X1205704D01*
X1206688Y-164372D01*
Y-166340D01*
X1205704Y-167324D01*
X1202752D01*
X1208656Y-169291D02*
X1210624D01*
X1209640D01*
Y-163388D01*
X1208656Y-164372D01*
X1217511Y-169291D02*
X1213575D01*
X1217511Y-165356D01*
Y-164372D01*
X1216527Y-163388D01*
X1214559D01*
X1213575Y-164372D01*
X1219479Y-170275D02*
X1223415D01*
X1225383Y-163388D02*
Y-169291D01*
X1228334D01*
X1229318Y-168307D01*
Y-164372D01*
X1228334Y-163388D01*
X1225383D01*
X1235222D02*
X1231286D01*
Y-169291D01*
X1235222D01*
X1231286Y-166340D02*
X1233254D01*
X1237190Y-163388D02*
Y-167324D01*
X1239158Y-169291D01*
X1241125Y-167324D01*
Y-163388D01*
X1243093Y-170275D02*
X1247029D01*
X1248997Y-164372D02*
X1249981Y-163388D01*
X1251949D01*
X1252933Y-164372D01*
Y-168307D01*
X1251949Y-169291D01*
X1249981D01*
X1248997Y-168307D01*
Y-164372D01*
X1254900Y-169291D02*
X1256868D01*
X1255884D01*
Y-163388D01*
X1254900Y-164372D01*
X1259820Y-169291D02*
Y-168307D01*
X1260804D01*
Y-169291D01*
X1259820D01*
X1264740D02*
Y-163388D01*
X1267692D01*
X1268676Y-164372D01*
Y-166340D01*
X1267692Y-167324D01*
X1264740D01*
X1274579Y-165356D02*
X1271627D01*
X1270644Y-166340D01*
Y-168307D01*
X1271627Y-169291D01*
X1274579D01*
X1276547Y-163388D02*
Y-169291D01*
X1279499D01*
X1280483Y-168307D01*
Y-167324D01*
Y-166340D01*
X1279499Y-165356D01*
X1276547D01*
X1282451Y-163388D02*
Y-169291D01*
X1285402D01*
X1286386Y-168307D01*
Y-164372D01*
X1285402Y-163388D01*
X1282451D01*
X1289338Y-169291D02*
X1291306D01*
X1292290Y-168307D01*
Y-166340D01*
X1291306Y-165356D01*
X1289338D01*
X1288354Y-166340D01*
Y-168307D01*
X1289338Y-169291D01*
X1298194Y-165356D02*
X1295242D01*
X1294258Y-166340D01*
Y-168307D01*
X1295242Y-169291D01*
X1298194D01*
D12*
X80709Y31496D02*
G03*
X85223Y29626I4515J4515D01*
G01*
X109941D01*
D14*
X47293Y103789D02*
G03*
X41234Y106299I-6059J-6059D01*
G01*
X27386Y109228D02*
G03*
X34457Y106299I7071J7071D01*
G01*
X22165Y118591D02*
G03*
X25094Y111520I10000J0D01*
G01*
X22165Y118591D02*
Y127165D01*
X47293Y103789D02*
X56595Y94488D01*
X34457Y106299D02*
X41234D01*
X25094Y111520D02*
X27386Y109228D01*
X1202756Y-76776D02*
Y-90551D01*
X1209643D01*
X1211939Y-88255D01*
Y-85960D01*
X1209643Y-83664D01*
X1202756D01*
X1209643D01*
X1211939Y-81368D01*
Y-79072D01*
X1209643Y-76776D01*
X1202756D01*
X1218827Y-90551D02*
X1223419D01*
X1225714Y-88255D01*
Y-83664D01*
X1223419Y-81368D01*
X1218827D01*
X1216531Y-83664D01*
Y-88255D01*
X1218827Y-90551D01*
X1232602Y-79072D02*
Y-81368D01*
X1230306D01*
X1234898D01*
X1232602D01*
Y-88255D01*
X1234898Y-90551D01*
X1244081Y-79072D02*
Y-81368D01*
X1241785D01*
X1246377D01*
X1244081D01*
Y-88255D01*
X1246377Y-90551D01*
X1255560D02*
X1260152D01*
X1262448Y-88255D01*
Y-83664D01*
X1260152Y-81368D01*
X1255560D01*
X1253265Y-83664D01*
Y-88255D01*
X1255560Y-90551D01*
X1267040D02*
Y-81368D01*
X1269335D01*
X1271631Y-83664D01*
Y-90551D01*
Y-83664D01*
X1273927Y-81368D01*
X1276223Y-83664D01*
Y-90551D01*
X1294590Y-76776D02*
Y-90551D01*
X1303773D01*
X1310661Y-81368D02*
X1315252D01*
X1317548Y-83664D01*
Y-90551D01*
X1310661D01*
X1308365Y-88255D01*
X1310661Y-85960D01*
X1317548D01*
X1322140Y-81368D02*
Y-88255D01*
X1324436Y-90551D01*
X1331323D01*
Y-92847D01*
X1329027Y-95143D01*
X1326732D01*
X1331323Y-90551D02*
Y-81368D01*
X1342803Y-90551D02*
X1338211D01*
X1335915Y-88255D01*
Y-83664D01*
X1338211Y-81368D01*
X1342803D01*
X1345098Y-83664D01*
Y-85960D01*
X1335915D01*
X1349690Y-81368D02*
Y-90551D01*
Y-85960D01*
X1351986Y-83664D01*
X1354282Y-81368D01*
X1356578D01*
X1005906Y-155517D02*
Y-171260D01*
X1011153Y-166012D01*
X1016401Y-171260D01*
Y-155517D01*
X1021649Y-171260D02*
X1026896D01*
X1024272D01*
Y-160765D01*
X1021649D01*
X1034768Y-171260D02*
Y-160765D01*
X1037391D01*
X1040015Y-163388D01*
Y-171260D01*
Y-163388D01*
X1042639Y-160765D01*
X1045263Y-163388D01*
Y-171260D01*
X1050511Y-155517D02*
Y-166012D01*
X1055758Y-171260D01*
X1061006Y-166012D01*
Y-155517D01*
X1076749Y-158141D02*
X1074125Y-155517D01*
X1068877D01*
X1066253Y-158141D01*
Y-168636D01*
X1068877Y-171260D01*
X1074125D01*
X1076749Y-168636D01*
Y-163388D01*
X1071501D01*
X1360236Y-118771D02*
X1362860Y-116147D01*
X1368108D01*
X1370732Y-118771D01*
Y-129266D01*
X1368108Y-131890D01*
X1362860D01*
X1360236Y-129266D01*
Y-118771D01*
X1375979D02*
X1378603Y-116147D01*
X1383851D01*
X1386475Y-118771D01*
Y-129266D01*
X1383851Y-131890D01*
X1378603D01*
X1375979Y-129266D01*
Y-118771D01*
X1206034Y-131890D02*
X1196850D01*
X1206034Y-122706D01*
Y-120411D01*
X1203738Y-118115D01*
X1199146D01*
X1196850Y-120411D01*
X1210625Y-129594D02*
X1212921Y-131890D01*
X1217513D01*
X1219809Y-129594D01*
Y-120411D01*
X1217513Y-118115D01*
X1212921D01*
X1210625Y-120411D01*
Y-122706D01*
X1212921Y-125002D01*
X1219809D01*
X1224401Y-131890D02*
X1233584Y-122706D01*
X1238176Y-120411D02*
X1240471Y-118115D01*
X1245063D01*
X1247359Y-120411D01*
Y-129594D01*
X1245063Y-131890D01*
X1240471D01*
X1238176Y-129594D01*
Y-120411D01*
X1251951D02*
X1254247Y-118115D01*
X1258838D01*
X1261134Y-120411D01*
Y-122706D01*
X1258838Y-125002D01*
X1261134Y-127298D01*
Y-129594D01*
X1258838Y-131890D01*
X1254247D01*
X1251951Y-129594D01*
Y-127298D01*
X1254247Y-125002D01*
X1251951Y-122706D01*
Y-120411D01*
X1254247Y-125002D02*
X1258838D01*
X1265726Y-131890D02*
X1274909Y-122706D01*
X1288684Y-131890D02*
X1279501D01*
X1288684Y-122706D01*
Y-120411D01*
X1286388Y-118115D01*
X1281797D01*
X1279501Y-120411D01*
X1293276D02*
X1295572Y-118115D01*
X1300163D01*
X1302459Y-120411D01*
Y-129594D01*
X1300163Y-131890D01*
X1295572D01*
X1293276Y-129594D01*
Y-120411D01*
X1307051Y-131890D02*
X1311643D01*
X1309347D01*
Y-118115D01*
X1307051Y-120411D01*
X1327714Y-118115D02*
X1318530D01*
Y-125002D01*
X1323122Y-122706D01*
X1325418D01*
X1327714Y-125002D01*
Y-129594D01*
X1325418Y-131890D01*
X1320826D01*
X1318530Y-129594D01*
X1201440Y-37407D02*
X1190945D01*
Y-53150D01*
X1201440D01*
X1190945Y-45278D02*
X1196192D01*
X1217183Y-40031D02*
X1214559Y-37407D01*
X1209312D01*
X1206688Y-40031D01*
Y-42654D01*
X1209312Y-45278D01*
X1214559D01*
X1217183Y-47902D01*
Y-50526D01*
X1214559Y-53150D01*
X1209312D01*
X1206688Y-50526D01*
X1222431Y-53150D02*
Y-37407D01*
X1230302D01*
X1232926Y-40031D01*
Y-45278D01*
X1230302Y-47902D01*
X1222431D01*
X1238174Y-53150D02*
X1243421D01*
X1240798D01*
Y-37407D01*
X1238174Y-40031D01*
X1261788Y-53150D02*
X1251293D01*
X1261788Y-42654D01*
Y-40031D01*
X1259164Y-37407D01*
X1253917D01*
X1251293Y-40031D01*
X1267036Y-55773D02*
X1277531D01*
X1282779Y-37407D02*
Y-53150D01*
X1290650D01*
X1293274Y-50526D01*
Y-40031D01*
X1290650Y-37407D01*
X1282779D01*
X1309017D02*
X1298522D01*
Y-53150D01*
X1309017D01*
X1298522Y-45278D02*
X1303769D01*
X1314265Y-37407D02*
Y-47902D01*
X1319512Y-53150D01*
X1324760Y-47902D01*
Y-37407D01*
D41*
X1342520Y-110236D02*
Y-102365D01*
X1346455D01*
X1347767Y-103677D01*
Y-106300D01*
X1346455Y-107612D01*
X1342520D01*
X1345144D02*
X1347767Y-110236D01*
X1354327D02*
X1351703D01*
X1350391Y-108924D01*
Y-106300D01*
X1351703Y-104989D01*
X1354327D01*
X1355639Y-106300D01*
Y-107612D01*
X1350391D01*
X1358263Y-104989D02*
X1360886Y-110236D01*
X1363510Y-104989D01*
X988189Y-141735D02*
Y-149606D01*
X992125D01*
X993437Y-148294D01*
Y-143047D01*
X992125Y-141735D01*
X988189D01*
X999996Y-149606D02*
X997372D01*
X996060Y-148294D01*
Y-145671D01*
X997372Y-144359D01*
X999996D01*
X1001308Y-145671D01*
Y-146983D01*
X996060D01*
X1003932Y-149606D02*
X1007868D01*
X1009180Y-148294D01*
X1007868Y-146983D01*
X1005244D01*
X1003932Y-145671D01*
X1005244Y-144359D01*
X1009180D01*
X1014427Y-152230D02*
X1015739D01*
X1017051Y-150918D01*
Y-144359D01*
X1013115D01*
X1011803Y-145671D01*
Y-148294D01*
X1013115Y-149606D01*
X1017051D01*
X1019675D02*
X1022299D01*
X1020987D01*
Y-144359D01*
X1019675D01*
X1026235Y-149606D02*
Y-144359D01*
X1030170D01*
X1031482Y-145671D01*
Y-149606D01*
X1038042D02*
X1035418D01*
X1034106Y-148294D01*
Y-145671D01*
X1035418Y-144359D01*
X1038042D01*
X1039354Y-145671D01*
Y-146983D01*
X1034106D01*
X1041977Y-144359D02*
Y-149606D01*
Y-146983D01*
X1043289Y-145671D01*
X1044601Y-144359D01*
X1045913D01*
X1185039Y-23625D02*
Y-31496D01*
X1188975D01*
X1190287Y-30184D01*
Y-24937D01*
X1188975Y-23625D01*
X1185039D01*
X1194223Y-31496D02*
X1196847D01*
X1198158Y-30184D01*
Y-27560D01*
X1196847Y-26248D01*
X1194223D01*
X1192911Y-27560D01*
Y-30184D01*
X1194223Y-31496D01*
X1206030Y-26248D02*
X1202094D01*
X1200782Y-27560D01*
Y-30184D01*
X1202094Y-31496D01*
X1206030D01*
X1208654Y-26248D02*
Y-30184D01*
X1209966Y-31496D01*
X1213902D01*
Y-26248D01*
X1216525Y-31496D02*
Y-26248D01*
X1217837D01*
X1219149Y-27560D01*
Y-31496D01*
Y-27560D01*
X1220461Y-26248D01*
X1221773Y-27560D01*
Y-31496D01*
X1228333D02*
X1225709D01*
X1224397Y-30184D01*
Y-27560D01*
X1225709Y-26248D01*
X1228333D01*
X1229644Y-27560D01*
Y-28872D01*
X1224397D01*
X1232268Y-31496D02*
Y-26248D01*
X1236204D01*
X1237516Y-27560D01*
Y-31496D01*
X1241452Y-24937D02*
Y-26248D01*
X1240140D01*
X1242764D01*
X1241452D01*
Y-30184D01*
X1242764Y-31496D01*
X1185039Y-62995D02*
Y-70866D01*
X1190287D01*
X1194223Y-65618D02*
X1196847D01*
X1198158Y-66930D01*
Y-70866D01*
X1194223D01*
X1192911Y-69554D01*
X1194223Y-68242D01*
X1198158D01*
X1200782Y-65618D02*
Y-69554D01*
X1202094Y-70866D01*
X1206030D01*
Y-72178D01*
X1204718Y-73490D01*
X1203406D01*
X1206030Y-70866D02*
Y-65618D01*
X1212590Y-70866D02*
X1209966D01*
X1208654Y-69554D01*
Y-66930D01*
X1209966Y-65618D01*
X1212590D01*
X1213902Y-66930D01*
Y-68242D01*
X1208654D01*
X1216525Y-65618D02*
Y-70866D01*
Y-68242D01*
X1217837Y-66930D01*
X1219149Y-65618D01*
X1220461D01*
X1232268Y-70866D02*
Y-62995D01*
X1237516Y-70866D01*
Y-62995D01*
X1241452Y-65618D02*
X1244075D01*
X1245387Y-66930D01*
Y-70866D01*
X1241452D01*
X1240140Y-69554D01*
X1241452Y-68242D01*
X1245387D01*
X1248011Y-70866D02*
Y-65618D01*
X1249323D01*
X1250635Y-66930D01*
Y-70866D01*
Y-66930D01*
X1251947Y-65618D01*
X1253259Y-66930D01*
Y-70866D01*
X1259818D02*
X1257195D01*
X1255883Y-69554D01*
Y-66930D01*
X1257195Y-65618D01*
X1259818D01*
X1261130Y-66930D01*
Y-68242D01*
X1255883D01*
X1185039Y-102365D02*
Y-110236D01*
X1188975D01*
X1190287Y-108924D01*
Y-103677D01*
X1188975Y-102365D01*
X1185039D01*
X1194223Y-104989D02*
X1196847D01*
X1198158Y-106300D01*
Y-110236D01*
X1194223D01*
X1192911Y-108924D01*
X1194223Y-107612D01*
X1198158D01*
X1202094Y-103677D02*
Y-104989D01*
X1200782D01*
X1203406D01*
X1202094D01*
Y-108924D01*
X1203406Y-110236D01*
X1211278D02*
X1208654D01*
X1207342Y-108924D01*
Y-106300D01*
X1208654Y-104989D01*
X1211278D01*
X1212589Y-106300D01*
Y-107612D01*
X1207342D01*
X1185039Y-141735D02*
Y-149606D01*
X1188975D01*
X1190287Y-148294D01*
Y-143047D01*
X1188975Y-141735D01*
X1185039D01*
X1194223Y-149606D02*
X1196847D01*
X1198158Y-148294D01*
Y-145671D01*
X1196847Y-144359D01*
X1194223D01*
X1192911Y-145671D01*
Y-148294D01*
X1194223Y-149606D01*
X1206030Y-144359D02*
X1202094D01*
X1200782Y-145671D01*
Y-148294D01*
X1202094Y-149606D01*
X1206030D01*
X1208654Y-144359D02*
Y-148294D01*
X1209966Y-149606D01*
X1213902D01*
Y-144359D01*
X1216525Y-149606D02*
Y-144359D01*
X1217837D01*
X1219149Y-145671D01*
Y-149606D01*
Y-145671D01*
X1220461Y-144359D01*
X1221773Y-145671D01*
Y-149606D01*
X1228333D02*
X1225709D01*
X1224397Y-148294D01*
Y-145671D01*
X1225709Y-144359D01*
X1228333D01*
X1229644Y-145671D01*
Y-146983D01*
X1224397D01*
X1232268Y-149606D02*
Y-144359D01*
X1236204D01*
X1237516Y-145671D01*
Y-149606D01*
X1241452Y-143047D02*
Y-144359D01*
X1240140D01*
X1242764D01*
X1241452D01*
Y-148294D01*
X1242764Y-149606D01*
D42*
X79405Y78414D02*
D03*
X87205D02*
D03*
X95006D02*
D03*
X103006D02*
D03*
X110805D02*
D03*
X118806D02*
D03*
X56595Y94488D02*
D03*
X56595Y102362D02*
D03*
Y110236D02*
D03*
Y118110D02*
D03*
Y125984D02*
D03*
X56595Y133858D02*
D03*
X56595Y141732D02*
D03*
X56595Y149606D02*
D03*
X140256D02*
D03*
Y141732D02*
D03*
Y133858D02*
D03*
Y125984D02*
D03*
Y118110D02*
D03*
Y110236D02*
D03*
Y102362D02*
D03*
Y94488D02*
D03*
X22165Y127165D02*
D03*
X32165D02*
D03*
D43*
X147795Y41181D02*
D03*
D44*
Y61181D02*
D03*
X127795D02*
D03*
D45*
X64213Y10827D02*
D03*
X132638Y10827D02*
D03*
X162638D02*
D03*
X83425Y10827D02*
D03*
X113425D02*
D03*
X34213D02*
D03*
D46*
X19094Y49291D02*
D03*
Y39291D02*
D03*
D47*
X142638Y10827D02*
D03*
X152638D02*
D03*
X93425Y10827D02*
D03*
X103425D02*
D03*
X181890Y35748D02*
D03*
Y45748D02*
D03*
Y55748D02*
D03*
X54213Y10827D02*
D03*
X44213D02*
D03*
X181890Y88740D02*
D03*
Y98740D02*
D03*
Y108740D02*
D03*
Y118740D02*
D03*
Y128740D02*
D03*
D48*
Y65748D02*
D03*
Y78740D02*
D03*
D49*
X11811Y149606D02*
D03*
Y11811D02*
D03*
X185039D02*
D03*
Y149606D02*
D03*
D50*
X65354Y46260D02*
D03*
Y38780D02*
D03*
D51*
X13780Y120276D02*
D03*
X160827Y56890D02*
D03*
X42520Y103150D02*
D03*
X44488Y96063D02*
D03*
X50000Y90551D02*
D03*
X88583Y33071D02*
D03*
X80709Y31496D02*
D03*
X35827Y56693D02*
D03*
X38976Y42913D02*
D03*
X33071Y33465D02*
D03*
X44882Y40551D02*
D03*
X55905Y54724D02*
D03*
Y58661D02*
D03*
Y71260D02*
D03*
X53150Y75197D02*
D03*
X57087D02*
D03*
X23228Y70866D02*
D03*
X51575Y119291D02*
D03*
Y114567D02*
D03*
X40945Y149606D02*
D03*
X161221Y129823D02*
D03*
X146063Y118110D02*
D03*
X169291Y84646D02*
D03*
X34252Y85827D02*
D03*
Y89370D02*
D03*
X19685Y89961D02*
D03*
X13780Y89961D02*
D03*
X47244Y82480D02*
D03*
X31693Y82480D02*
D03*
X66929Y63878D02*
D03*
X136319Y86614D02*
D03*
X92028Y68898D02*
D03*
X87598Y72835D02*
D03*
X96457Y70866D02*
D03*
X156299Y91732D02*
D03*
X164961D02*
D03*
X32283Y147638D02*
D03*
X164567D02*
D03*
X109941Y29626D02*
D03*
X85433Y67323D02*
D03*
X70472Y52756D02*
D03*
X81496Y42913D02*
D03*
X158268Y147638D02*
D03*
X19291Y75197D02*
D03*
D52*
X12992Y89961D02*
X19685D01*
X12992Y49291D02*
Y89961D01*
Y49291D02*
X19094D01*
X12992Y31496D02*
Y49291D01*
Y31496D02*
X16929Y27559D01*
X22835D01*
X64213Y3937D02*
X113425D01*
X64213D02*
Y10827D01*
X113425Y3937D02*
X162638D01*
X113425D02*
Y10827D01*
X162638Y3937D02*
Y10827D01*
X27559Y3937D02*
X64213D01*
X34213Y19685D02*
X83425D01*
Y10827D02*
Y19685D01*
X132638D01*
Y10827D02*
Y19685D01*
X165827D01*
X181890Y35748D01*
X34213Y10827D02*
Y24173D01*
X19094Y39291D02*
X34213Y24173D01*
X22835Y27559D02*
X27559Y22835D01*
Y3937D02*
Y22835D01*
M02*
