G04 Layer_Physical_Order=1*
G04 Layer_Color=48896*
%FSLAX25Y25*%
%MOIN*%
G70*
G01*
G75*
%ADD10C,0.00787*%
%ADD11C,0.01969*%
%ADD12C,0.01181*%
%ADD13C,0.00787*%
%ADD14C,0.01575*%
%ADD15C,0.02165*%
%ADD16C,0.01378*%
%ADD17C,0.01378*%
%ADD18R,0.02362X0.03937*%
G04:AMPARAMS|DCode=19|XSize=74.8mil|YSize=125.98mil|CornerRadius=0mil|HoleSize=0mil|Usage=FLASHONLY|Rotation=0.000|XOffset=0mil|YOffset=0mil|HoleType=Round|Shape=Octagon|*
%AMOCTAGOND19*
4,1,8,-0.01870,0.06299,0.01870,0.06299,0.03740,0.04429,0.03740,-0.04429,0.01870,-0.06299,-0.01870,-0.06299,-0.03740,-0.04429,-0.03740,0.04429,-0.01870,0.06299,0.0*
%
%ADD19OCTAGOND19*%

%ADD20R,0.02362X0.05512*%
%ADD21R,0.02362X0.07087*%
%ADD22R,0.05906X0.02756*%
%ADD23R,0.03543X0.07087*%
%ADD24R,0.07874X0.04331*%
%ADD25R,0.04331X0.07874*%
%ADD26R,0.02362X0.03543*%
%ADD27R,0.02756X0.05906*%
%ADD28R,0.01378X0.06299*%
G04:AMPARAMS|DCode=29|XSize=82.68mil|YSize=59.06mil|CornerRadius=7.38mil|HoleSize=0mil|Usage=FLASHONLY|Rotation=180.000|XOffset=0mil|YOffset=0mil|HoleType=Round|Shape=RoundedRectangle|*
%AMROUNDEDRECTD29*
21,1,0.08268,0.04429,0,0,180.0*
21,1,0.06791,0.05906,0,0,180.0*
1,1,0.01476,-0.03396,0.02215*
1,1,0.01476,0.03396,0.02215*
1,1,0.01476,0.03396,-0.02215*
1,1,0.01476,-0.03396,-0.02215*
%
%ADD29ROUNDEDRECTD29*%
G04:AMPARAMS|DCode=30|XSize=118.11mil|YSize=78.74mil|CornerRadius=3.94mil|HoleSize=0mil|Usage=FLASHONLY|Rotation=90.000|XOffset=0mil|YOffset=0mil|HoleType=Round|Shape=RoundedRectangle|*
%AMROUNDEDRECTD30*
21,1,0.11811,0.07087,0,0,90.0*
21,1,0.11024,0.07874,0,0,90.0*
1,1,0.00787,0.03543,0.05512*
1,1,0.00787,0.03543,-0.05512*
1,1,0.00787,-0.03543,-0.05512*
1,1,0.00787,-0.03543,0.05512*
%
%ADD30ROUNDEDRECTD30*%
%ADD31R,0.03543X0.02362*%
G04:AMPARAMS|DCode=32|XSize=118.11mil|YSize=78.74mil|CornerRadius=3.94mil|HoleSize=0mil|Usage=FLASHONLY|Rotation=180.000|XOffset=0mil|YOffset=0mil|HoleType=Round|Shape=RoundedRectangle|*
%AMROUNDEDRECTD32*
21,1,0.11811,0.07087,0,0,180.0*
21,1,0.11024,0.07874,0,0,180.0*
1,1,0.00787,-0.05512,0.03543*
1,1,0.00787,0.05512,0.03543*
1,1,0.00787,0.05512,-0.03543*
1,1,0.00787,-0.05512,-0.03543*
%
%ADD32ROUNDEDRECTD32*%
%ADD33R,0.03937X0.03543*%
%ADD34R,0.03937X0.08858*%
%ADD35R,0.08858X0.03937*%
%ADD36R,0.05315X0.01575*%
%ADD37R,0.07087X0.03543*%
%ADD38C,0.05118*%
%ADD39C,0.03150*%
%ADD40C,0.02756*%
%ADD41C,0.00984*%
%ADD42C,0.05118*%
%ADD43R,0.05906X0.05906*%
%ADD44C,0.05906*%
G04:AMPARAMS|DCode=45|XSize=59.06mil|YSize=59.06mil|CornerRadius=14.76mil|HoleSize=0mil|Usage=FLASHONLY|Rotation=180.000|XOffset=0mil|YOffset=0mil|HoleType=Round|Shape=RoundedRectangle|*
%AMROUNDEDRECTD45*
21,1,0.05906,0.02953,0,0,180.0*
21,1,0.02953,0.05906,0,0,180.0*
1,1,0.02953,-0.01476,0.01476*
1,1,0.02953,0.01476,0.01476*
1,1,0.02953,0.01476,-0.01476*
1,1,0.02953,-0.01476,-0.01476*
%
%ADD45ROUNDEDRECTD45*%
G04:AMPARAMS|DCode=46|XSize=59.06mil|YSize=59.06mil|CornerRadius=14.76mil|HoleSize=0mil|Usage=FLASHONLY|Rotation=90.000|XOffset=0mil|YOffset=0mil|HoleType=Round|Shape=RoundedRectangle|*
%AMROUNDEDRECTD46*
21,1,0.05906,0.02953,0,0,90.0*
21,1,0.02953,0.05906,0,0,90.0*
1,1,0.02953,0.01476,0.01476*
1,1,0.02953,0.01476,-0.01476*
1,1,0.02953,-0.01476,-0.01476*
1,1,0.02953,-0.01476,0.01476*
%
%ADD46ROUNDEDRECTD46*%
%ADD47C,0.05906*%
%ADD48R,0.05906X0.05906*%
%ADD49C,0.12598*%
%ADD50C,0.03937*%
%ADD51C,0.02756*%
G36*
X42323Y79429D02*
X38189Y75295D01*
X30118Y75295D01*
Y79232D01*
X33268D01*
X36319Y82284D01*
X42323D01*
X42323Y79429D01*
D02*
G37*
G36*
X37008Y96063D02*
X39370Y96063D01*
X42520Y92913D01*
Y87008D01*
X36220D01*
Y91339D01*
X28740D01*
Y86221D01*
X26378D01*
Y90551D01*
X24409Y92520D01*
X20472D01*
Y97244D01*
X35827D01*
X37008Y96063D01*
D02*
G37*
G36*
X38189Y112992D02*
X46063D01*
Y109055D01*
X35433D01*
X33071Y111417D01*
X19685Y111417D01*
Y116142D01*
X35039Y116142D01*
X38189Y112992D01*
D02*
G37*
G36*
X1121080Y-64032D02*
Y-64318D01*
Y-64605D01*
Y-64891D01*
Y-65177D01*
Y-65464D01*
Y-65750D01*
Y-66036D01*
Y-66322D01*
Y-66609D01*
Y-66895D01*
Y-67181D01*
Y-67468D01*
Y-67754D01*
Y-68040D01*
Y-68327D01*
Y-68613D01*
Y-68899D01*
Y-69186D01*
Y-69472D01*
Y-69758D01*
X1120793D01*
Y-70044D01*
Y-70331D01*
Y-70617D01*
Y-70903D01*
Y-71190D01*
X1120507D01*
Y-71476D01*
Y-71762D01*
Y-72049D01*
Y-72335D01*
X1120221D01*
Y-72621D01*
Y-72908D01*
Y-73194D01*
Y-73480D01*
X1119934D01*
Y-73767D01*
Y-74053D01*
Y-74339D01*
X1119648D01*
Y-74625D01*
Y-74912D01*
Y-75198D01*
X1119362D01*
Y-75485D01*
Y-75771D01*
Y-76057D01*
X1119075D01*
Y-76343D01*
Y-76630D01*
Y-76916D01*
X1118789D01*
Y-77202D01*
Y-77489D01*
X1118503D01*
Y-77775D01*
Y-78061D01*
X1118217D01*
Y-78348D01*
Y-78634D01*
Y-78920D01*
X1117930D01*
Y-79207D01*
Y-79493D01*
X1117644D01*
Y-79779D01*
Y-80066D01*
Y-80352D01*
X1117358D01*
Y-80638D01*
Y-80924D01*
X1117071D01*
Y-81211D01*
Y-81497D01*
Y-81783D01*
X1116785D01*
Y-82070D01*
Y-82356D01*
X1116499D01*
Y-82642D01*
Y-82929D01*
Y-83215D01*
X1116212D01*
Y-83501D01*
Y-83788D01*
X1115926D01*
Y-84074D01*
Y-84360D01*
Y-84646D01*
X1115640D01*
Y-84933D01*
Y-85219D01*
X1115353D01*
Y-85505D01*
Y-85792D01*
Y-86078D01*
X1115067D01*
Y-86364D01*
Y-86651D01*
X1114781D01*
Y-86937D01*
Y-87223D01*
Y-87510D01*
X1114494D01*
Y-87796D01*
Y-88082D01*
X1114208D01*
Y-88369D01*
Y-88655D01*
Y-88941D01*
X1113922D01*
Y-89227D01*
Y-89514D01*
X1113636D01*
Y-89800D01*
Y-90086D01*
Y-90373D01*
X1113349D01*
Y-90659D01*
Y-90945D01*
X1113063D01*
Y-91232D01*
Y-91518D01*
Y-91804D01*
X1112776D01*
Y-92091D01*
Y-92377D01*
X1112490D01*
Y-92663D01*
Y-92950D01*
Y-93236D01*
X1112204D01*
Y-93522D01*
Y-93809D01*
X1111918D01*
Y-94095D01*
Y-94381D01*
Y-94667D01*
X1111631D01*
Y-94954D01*
Y-95240D01*
X1111345D01*
Y-95526D01*
Y-95813D01*
Y-96099D01*
X1111059D01*
Y-96385D01*
Y-96672D01*
X1110772D01*
Y-96958D01*
Y-97244D01*
Y-97531D01*
X1110486D01*
Y-97817D01*
Y-98103D01*
X1110200D01*
Y-98390D01*
Y-98676D01*
Y-98962D01*
X1109913D01*
Y-99248D01*
Y-99535D01*
X1109627D01*
Y-99821D01*
Y-100107D01*
Y-100394D01*
X1109341D01*
Y-100680D01*
Y-100966D01*
X1109054D01*
Y-101253D01*
Y-101539D01*
X1108768D01*
Y-101825D01*
Y-102112D01*
X1108482D01*
Y-102398D01*
Y-102684D01*
Y-102971D01*
X1108195D01*
Y-103257D01*
X1107909D01*
Y-103543D01*
Y-103829D01*
Y-104116D01*
X1107623D01*
Y-104402D01*
X1107337D01*
Y-104688D01*
Y-104975D01*
X1107050D01*
Y-105261D01*
Y-105547D01*
X1106764D01*
Y-105834D01*
Y-106120D01*
X1106478D01*
Y-106406D01*
Y-106693D01*
X1106191D01*
Y-106979D01*
X1105905D01*
Y-107265D01*
Y-107552D01*
X1105619D01*
Y-107838D01*
Y-108124D01*
X1105332D01*
Y-108411D01*
X1105046D01*
Y-108697D01*
X1104760D01*
Y-108983D01*
Y-109269D01*
X1104473D01*
Y-109556D01*
X1104187D01*
Y-109842D01*
Y-110128D01*
X1103901D01*
Y-110415D01*
X1103615D01*
Y-110701D01*
X1103328D01*
Y-110987D01*
Y-111274D01*
X1103042D01*
Y-111560D01*
X1102756D01*
Y-111846D01*
X1102469D01*
Y-112133D01*
X1102183D01*
Y-112419D01*
X1101897D01*
Y-112705D01*
Y-112991D01*
X1101610D01*
Y-113278D01*
X1101324D01*
Y-113564D01*
X1101038D01*
Y-113850D01*
X1100751D01*
Y-114137D01*
X1100465D01*
Y-114423D01*
X1100179D01*
Y-114709D01*
X1099892D01*
Y-114996D01*
X1099320D01*
Y-115282D01*
X1099034D01*
Y-115568D01*
X1098747D01*
Y-115855D01*
X1098461D01*
Y-116141D01*
X1098175D01*
Y-116427D01*
X1097602D01*
Y-116714D01*
X1097316D01*
Y-117000D01*
X1096743D01*
Y-117286D01*
X1096457D01*
Y-117572D01*
X1095884D01*
Y-117859D01*
X1095598D01*
Y-118145D01*
X1095025D01*
Y-118431D01*
X1094452D01*
Y-118718D01*
X1093880D01*
Y-119004D01*
X1093307D01*
Y-119290D01*
X1092735D01*
Y-119577D01*
X1091876D01*
Y-119863D01*
X1091303D01*
Y-120149D01*
X1090444D01*
Y-120436D01*
X1089299D01*
Y-120722D01*
X1088154D01*
Y-121008D01*
X1086436D01*
Y-121294D01*
X1084432D01*
Y-121581D01*
X1084145D01*
Y-121294D01*
Y-121008D01*
Y-120722D01*
Y-120436D01*
Y-120149D01*
Y-119863D01*
Y-119577D01*
Y-119290D01*
Y-119004D01*
Y-118718D01*
Y-118431D01*
Y-118145D01*
Y-117859D01*
Y-117572D01*
Y-117286D01*
Y-117000D01*
Y-116714D01*
Y-116427D01*
Y-116141D01*
Y-115855D01*
Y-115568D01*
Y-115282D01*
Y-114996D01*
Y-114709D01*
Y-114423D01*
Y-114137D01*
Y-113850D01*
Y-113564D01*
Y-113278D01*
Y-112991D01*
Y-112705D01*
Y-112419D01*
Y-112133D01*
X1084718D01*
Y-111846D01*
X1085291D01*
Y-111560D01*
X1085863D01*
Y-111274D01*
X1086436D01*
Y-110987D01*
X1087008D01*
Y-110701D01*
X1087581D01*
Y-110415D01*
X1087867D01*
Y-110128D01*
X1088440D01*
Y-109842D01*
X1088726D01*
Y-109556D01*
X1089299D01*
Y-109269D01*
X1089585D01*
Y-108983D01*
X1089872D01*
Y-108697D01*
X1090444D01*
Y-108411D01*
X1090730D01*
Y-108124D01*
X1091017D01*
Y-107838D01*
X1091303D01*
Y-107552D01*
X1091589D01*
Y-107265D01*
X1091876D01*
Y-106979D01*
X1092162D01*
Y-106693D01*
X1092448D01*
Y-106406D01*
X1092735D01*
Y-106120D01*
X1093021D01*
Y-105834D01*
X1093307D01*
Y-105547D01*
X1093594D01*
Y-105261D01*
Y-104975D01*
X1093880D01*
Y-104688D01*
X1094166D01*
Y-104402D01*
X1094452D01*
Y-104116D01*
Y-103829D01*
X1094739D01*
Y-103543D01*
X1095025D01*
Y-103257D01*
Y-102971D01*
X1095311D01*
Y-102684D01*
Y-102398D01*
X1095598D01*
Y-102112D01*
X1095884D01*
Y-101825D01*
Y-101539D01*
X1096170D01*
Y-101253D01*
Y-100966D01*
X1096457D01*
Y-100680D01*
Y-100394D01*
X1094739D01*
Y-100107D01*
X1092735D01*
Y-99821D01*
X1091589D01*
Y-99535D01*
X1091017D01*
Y-99248D01*
X1090158D01*
Y-98962D01*
X1089585D01*
Y-98676D01*
X1089299D01*
Y-98390D01*
X1088726D01*
Y-98103D01*
X1088440D01*
Y-97817D01*
X1088154D01*
Y-97531D01*
X1087867D01*
Y-97244D01*
X1087581D01*
Y-96958D01*
X1087295D01*
Y-96672D01*
Y-96385D01*
X1087008D01*
Y-96099D01*
X1086722D01*
Y-95813D01*
Y-95526D01*
X1086436D01*
Y-95240D01*
Y-94954D01*
X1086149D01*
Y-94667D01*
Y-94381D01*
X1085863D01*
Y-94095D01*
Y-93809D01*
Y-93522D01*
X1085577D01*
Y-93236D01*
Y-92950D01*
Y-92663D01*
Y-92377D01*
X1085291D01*
Y-92091D01*
Y-91804D01*
Y-91518D01*
Y-91232D01*
Y-90945D01*
Y-90659D01*
Y-90373D01*
X1085004D01*
Y-90086D01*
Y-89800D01*
Y-89514D01*
Y-89227D01*
Y-88941D01*
Y-88655D01*
Y-88369D01*
Y-88082D01*
Y-87796D01*
Y-87510D01*
Y-87223D01*
Y-86937D01*
Y-86651D01*
Y-86364D01*
Y-86078D01*
X1084718D01*
Y-85792D01*
Y-85505D01*
Y-85219D01*
Y-84933D01*
Y-84646D01*
Y-84360D01*
Y-84074D01*
Y-83788D01*
Y-83501D01*
Y-83215D01*
Y-82929D01*
Y-82642D01*
Y-82356D01*
Y-82070D01*
Y-81783D01*
X1084432D01*
Y-81497D01*
Y-81211D01*
Y-80924D01*
Y-80638D01*
Y-80352D01*
Y-80066D01*
Y-79779D01*
Y-79493D01*
Y-79207D01*
Y-78920D01*
Y-78634D01*
Y-78348D01*
Y-78061D01*
Y-77775D01*
Y-77489D01*
Y-77202D01*
X1084145D01*
Y-76916D01*
Y-76630D01*
Y-76343D01*
Y-76057D01*
Y-75771D01*
Y-75485D01*
Y-75198D01*
Y-74912D01*
Y-74625D01*
Y-74339D01*
Y-74053D01*
Y-73767D01*
Y-73480D01*
Y-73194D01*
Y-72908D01*
Y-72621D01*
X1083859D01*
Y-72335D01*
Y-72049D01*
Y-71762D01*
Y-71476D01*
Y-71190D01*
Y-70903D01*
Y-70617D01*
Y-70331D01*
Y-70044D01*
Y-69758D01*
Y-69472D01*
Y-69186D01*
Y-68899D01*
Y-68613D01*
X1083573D01*
Y-68327D01*
Y-68040D01*
Y-67754D01*
Y-67468D01*
Y-67181D01*
Y-66895D01*
Y-66609D01*
Y-66322D01*
Y-66036D01*
Y-65750D01*
Y-65464D01*
Y-65177D01*
Y-64891D01*
Y-64605D01*
Y-64318D01*
Y-64032D01*
X1083286D01*
Y-63746D01*
X1097029D01*
Y-64032D01*
Y-64318D01*
Y-64605D01*
Y-64891D01*
Y-65177D01*
Y-65464D01*
Y-65750D01*
Y-66036D01*
Y-66322D01*
Y-66609D01*
Y-66895D01*
Y-67181D01*
Y-67468D01*
Y-67754D01*
X1097316D01*
Y-68040D01*
Y-68327D01*
Y-68613D01*
Y-68899D01*
Y-69186D01*
Y-69472D01*
Y-69758D01*
Y-70044D01*
Y-70331D01*
Y-70617D01*
Y-70903D01*
Y-71190D01*
Y-71476D01*
Y-71762D01*
Y-72049D01*
Y-72335D01*
Y-72621D01*
Y-72908D01*
Y-73194D01*
Y-73480D01*
Y-73767D01*
Y-74053D01*
Y-74339D01*
Y-74625D01*
Y-74912D01*
Y-75198D01*
Y-75485D01*
Y-75771D01*
Y-76057D01*
Y-76343D01*
Y-76630D01*
Y-76916D01*
Y-77202D01*
Y-77489D01*
Y-77775D01*
Y-78061D01*
Y-78348D01*
Y-78634D01*
Y-78920D01*
Y-79207D01*
Y-79493D01*
X1097602D01*
Y-79779D01*
X1097316D01*
Y-80066D01*
Y-80352D01*
X1097602D01*
Y-80638D01*
Y-80924D01*
Y-81211D01*
Y-81497D01*
Y-81783D01*
Y-82070D01*
Y-82356D01*
Y-82642D01*
Y-82929D01*
Y-83215D01*
Y-83501D01*
Y-83788D01*
Y-84074D01*
Y-84360D01*
Y-84646D01*
Y-84933D01*
Y-85219D01*
Y-85505D01*
Y-85792D01*
Y-86078D01*
Y-86364D01*
Y-86651D01*
Y-86937D01*
Y-87223D01*
Y-87510D01*
Y-87796D01*
X1097888D01*
Y-88082D01*
Y-88369D01*
Y-88655D01*
X1098175D01*
Y-88941D01*
X1098461D01*
Y-89227D01*
X1098747D01*
Y-89514D01*
X1099606D01*
Y-89800D01*
X1100465D01*
Y-89514D01*
X1100751D01*
Y-89227D01*
Y-88941D01*
Y-88655D01*
X1101038D01*
Y-88369D01*
Y-88082D01*
X1101324D01*
Y-87796D01*
Y-87510D01*
Y-87223D01*
X1101610D01*
Y-86937D01*
Y-86651D01*
Y-86364D01*
X1101897D01*
Y-86078D01*
Y-85792D01*
Y-85505D01*
X1102183D01*
Y-85219D01*
Y-84933D01*
Y-84646D01*
X1102469D01*
Y-84360D01*
Y-84074D01*
X1102756D01*
Y-83788D01*
Y-83501D01*
Y-83215D01*
X1103042D01*
Y-82929D01*
Y-82642D01*
Y-82356D01*
X1103328D01*
Y-82070D01*
Y-81783D01*
Y-81497D01*
X1103615D01*
Y-81211D01*
Y-80924D01*
X1103901D01*
Y-80638D01*
Y-80352D01*
Y-80066D01*
X1104187D01*
Y-79779D01*
Y-79493D01*
Y-79207D01*
X1104473D01*
Y-78920D01*
Y-78634D01*
Y-78348D01*
X1104760D01*
Y-78061D01*
Y-77775D01*
X1105046D01*
Y-77489D01*
Y-77202D01*
Y-76916D01*
X1105332D01*
Y-76630D01*
Y-76343D01*
Y-76057D01*
X1105619D01*
Y-75771D01*
Y-75485D01*
Y-75198D01*
X1105905D01*
Y-74912D01*
Y-74625D01*
X1106191D01*
Y-74339D01*
Y-74053D01*
Y-73767D01*
X1106478D01*
Y-73480D01*
Y-73194D01*
Y-72908D01*
X1106764D01*
Y-72621D01*
Y-72335D01*
Y-72049D01*
X1107050D01*
Y-71762D01*
Y-71476D01*
Y-71190D01*
Y-70903D01*
X1107337D01*
Y-70617D01*
Y-70331D01*
Y-70044D01*
Y-69758D01*
X1107623D01*
Y-69472D01*
Y-69186D01*
Y-68899D01*
Y-68613D01*
Y-68327D01*
X1107909D01*
Y-68040D01*
Y-67754D01*
Y-67468D01*
Y-67181D01*
Y-66895D01*
Y-66609D01*
X1108195D01*
Y-66322D01*
Y-66036D01*
Y-65750D01*
Y-65464D01*
Y-65177D01*
Y-64891D01*
Y-64605D01*
Y-64318D01*
Y-64032D01*
Y-63746D01*
X1121080D01*
Y-64032D01*
D02*
G37*
G36*
X1063244Y-46567D02*
Y-46853D01*
X1062958D01*
Y-47139D01*
Y-47426D01*
Y-47712D01*
Y-47998D01*
Y-48285D01*
Y-48571D01*
X1062672D01*
Y-48857D01*
Y-49144D01*
Y-49430D01*
Y-49716D01*
Y-50003D01*
Y-50289D01*
X1062385D01*
Y-50575D01*
Y-50862D01*
Y-51148D01*
Y-51434D01*
Y-51720D01*
Y-52007D01*
Y-52293D01*
X1062099D01*
Y-52579D01*
Y-52866D01*
Y-53152D01*
Y-53438D01*
Y-53725D01*
Y-54011D01*
X1061813D01*
Y-54297D01*
Y-54584D01*
Y-54870D01*
Y-55156D01*
Y-55443D01*
Y-55729D01*
X1061526D01*
Y-56015D01*
Y-56301D01*
Y-56588D01*
Y-56874D01*
Y-57161D01*
Y-57447D01*
Y-57733D01*
X1061240D01*
Y-58019D01*
Y-58306D01*
Y-58592D01*
Y-58878D01*
Y-59165D01*
Y-59451D01*
X1060954D01*
Y-59737D01*
Y-60024D01*
Y-60310D01*
Y-60596D01*
Y-60883D01*
Y-61169D01*
X1060668D01*
Y-61455D01*
Y-61742D01*
Y-62028D01*
Y-62314D01*
Y-62600D01*
Y-62887D01*
X1060381D01*
Y-63173D01*
Y-63459D01*
Y-63746D01*
Y-64032D01*
Y-64318D01*
Y-64605D01*
Y-64891D01*
X1060095D01*
Y-65177D01*
Y-65464D01*
Y-65750D01*
Y-66036D01*
Y-66322D01*
Y-66609D01*
X1059809D01*
Y-66895D01*
Y-67181D01*
X1060381D01*
Y-66895D01*
X1060668D01*
Y-66609D01*
X1060954D01*
Y-66322D01*
X1061526D01*
Y-66036D01*
X1061813D01*
Y-65750D01*
X1062099D01*
Y-65464D01*
X1062672D01*
Y-65177D01*
X1063244D01*
Y-64891D01*
X1063531D01*
Y-64605D01*
X1064103D01*
Y-64318D01*
X1064962D01*
Y-64032D01*
X1065535D01*
Y-63746D01*
X1066394D01*
Y-63459D01*
X1067825D01*
Y-63173D01*
X1074124D01*
Y-63459D01*
X1075270D01*
Y-63746D01*
X1076128D01*
Y-64032D01*
X1076701D01*
Y-64318D01*
X1076987D01*
Y-64605D01*
X1077560D01*
Y-64891D01*
X1077846D01*
Y-65177D01*
X1078133D01*
Y-65464D01*
X1078419D01*
Y-65750D01*
X1078705D01*
Y-66036D01*
Y-66322D01*
X1078992D01*
Y-66609D01*
Y-66895D01*
X1079278D01*
Y-67181D01*
Y-67468D01*
Y-67754D01*
X1079564D01*
Y-68040D01*
Y-68327D01*
Y-68613D01*
Y-68899D01*
X1079850D01*
Y-69186D01*
Y-69472D01*
Y-69758D01*
Y-70044D01*
Y-70331D01*
Y-70617D01*
Y-70903D01*
Y-71190D01*
Y-71476D01*
Y-71762D01*
Y-72049D01*
Y-72335D01*
Y-72621D01*
Y-72908D01*
Y-73194D01*
Y-73480D01*
Y-73767D01*
Y-74053D01*
X1079564D01*
Y-74339D01*
Y-74625D01*
Y-74912D01*
Y-75198D01*
Y-75485D01*
Y-75771D01*
Y-76057D01*
X1079278D01*
Y-76343D01*
Y-76630D01*
Y-76916D01*
Y-77202D01*
Y-77489D01*
Y-77775D01*
Y-78061D01*
X1078992D01*
Y-78348D01*
Y-78634D01*
Y-78920D01*
Y-79207D01*
Y-79493D01*
Y-79779D01*
X1078705D01*
Y-80066D01*
Y-80352D01*
Y-80638D01*
Y-80924D01*
Y-81211D01*
Y-81497D01*
X1078419D01*
Y-81783D01*
Y-82070D01*
Y-82356D01*
Y-82642D01*
Y-82929D01*
Y-83215D01*
X1078133D01*
Y-83501D01*
Y-83788D01*
Y-84074D01*
Y-84360D01*
Y-84646D01*
Y-84933D01*
Y-85219D01*
X1077846D01*
Y-85505D01*
Y-85792D01*
Y-86078D01*
Y-86364D01*
Y-86651D01*
Y-86937D01*
X1077560D01*
Y-87223D01*
Y-87510D01*
Y-87796D01*
Y-88082D01*
Y-88369D01*
Y-88655D01*
X1077274D01*
Y-88941D01*
Y-89227D01*
Y-89514D01*
Y-89800D01*
Y-90086D01*
Y-90373D01*
Y-90659D01*
X1076987D01*
Y-90945D01*
Y-91232D01*
Y-91518D01*
Y-91804D01*
Y-92091D01*
Y-92377D01*
X1076701D01*
Y-92663D01*
Y-92950D01*
Y-93236D01*
Y-93522D01*
Y-93809D01*
Y-94095D01*
X1076415D01*
Y-94381D01*
Y-94667D01*
Y-94954D01*
Y-95240D01*
Y-95526D01*
Y-95813D01*
X1076128D01*
Y-96099D01*
Y-96385D01*
Y-96672D01*
Y-96958D01*
Y-97244D01*
Y-97531D01*
Y-97817D01*
X1075842D01*
Y-98103D01*
Y-98390D01*
Y-98676D01*
Y-98962D01*
Y-99248D01*
Y-99535D01*
X1075556D01*
Y-99821D01*
Y-100107D01*
X1062385D01*
Y-99821D01*
Y-99535D01*
X1062672D01*
Y-99248D01*
Y-98962D01*
Y-98676D01*
Y-98390D01*
Y-98103D01*
Y-97817D01*
X1062958D01*
Y-97531D01*
Y-97244D01*
Y-96958D01*
Y-96672D01*
Y-96385D01*
Y-96099D01*
Y-95813D01*
X1063244D01*
Y-95526D01*
Y-95240D01*
Y-94954D01*
Y-94667D01*
Y-94381D01*
Y-94095D01*
X1063531D01*
Y-93809D01*
Y-93522D01*
Y-93236D01*
Y-92950D01*
Y-92663D01*
Y-92377D01*
X1063817D01*
Y-92091D01*
Y-91804D01*
Y-91518D01*
Y-91232D01*
Y-90945D01*
Y-90659D01*
Y-90373D01*
X1064103D01*
Y-90086D01*
Y-89800D01*
Y-89514D01*
Y-89227D01*
Y-88941D01*
Y-88655D01*
X1064390D01*
Y-88369D01*
Y-88082D01*
Y-87796D01*
Y-87510D01*
Y-87223D01*
Y-86937D01*
Y-86651D01*
X1064676D01*
Y-86364D01*
Y-86078D01*
Y-85792D01*
Y-85505D01*
Y-85219D01*
Y-84933D01*
X1064962D01*
Y-84646D01*
Y-84360D01*
Y-84074D01*
Y-83788D01*
Y-83501D01*
Y-83215D01*
X1065249D01*
Y-82929D01*
Y-82642D01*
Y-82356D01*
Y-82070D01*
Y-81783D01*
Y-81497D01*
X1065535D01*
Y-81211D01*
Y-80924D01*
Y-80638D01*
Y-80352D01*
Y-80066D01*
Y-79779D01*
Y-79493D01*
X1065821D01*
Y-79207D01*
Y-78920D01*
Y-78634D01*
Y-78348D01*
Y-78061D01*
Y-77775D01*
X1066107D01*
Y-77489D01*
Y-77202D01*
Y-76916D01*
Y-76630D01*
Y-76343D01*
Y-76057D01*
Y-75771D01*
X1066394D01*
Y-75485D01*
Y-75198D01*
Y-74912D01*
Y-74625D01*
Y-74339D01*
Y-74053D01*
X1066107D01*
Y-73767D01*
Y-73480D01*
X1065821D01*
Y-73194D01*
X1065535D01*
Y-72908D01*
X1064962D01*
Y-72621D01*
X1063244D01*
Y-72908D01*
X1061813D01*
Y-73194D01*
X1060954D01*
Y-73480D01*
X1060381D01*
Y-73767D01*
X1060095D01*
Y-74053D01*
X1059522D01*
Y-74339D01*
X1059236D01*
Y-74625D01*
X1058950D01*
Y-74912D01*
Y-75198D01*
X1058663D01*
Y-75485D01*
Y-75771D01*
Y-76057D01*
X1058377D01*
Y-76343D01*
Y-76630D01*
Y-76916D01*
Y-77202D01*
Y-77489D01*
Y-77775D01*
X1058091D01*
Y-78061D01*
Y-78348D01*
Y-78634D01*
Y-78920D01*
Y-79207D01*
Y-79493D01*
Y-79779D01*
X1057804D01*
Y-80066D01*
Y-80352D01*
Y-80638D01*
Y-80924D01*
Y-81211D01*
Y-81497D01*
X1057518D01*
Y-81783D01*
Y-82070D01*
Y-82356D01*
Y-82642D01*
Y-82929D01*
Y-83215D01*
X1057232D01*
Y-83501D01*
Y-83788D01*
Y-84074D01*
Y-84360D01*
Y-84646D01*
Y-84933D01*
X1056946D01*
Y-85219D01*
Y-85505D01*
Y-85792D01*
Y-86078D01*
Y-86364D01*
Y-86651D01*
Y-86937D01*
X1056659D01*
Y-87223D01*
Y-87510D01*
Y-87796D01*
Y-88082D01*
Y-88369D01*
Y-88655D01*
X1056373D01*
Y-88941D01*
Y-89227D01*
Y-89514D01*
Y-89800D01*
Y-90086D01*
Y-90373D01*
X1056087D01*
Y-90659D01*
Y-90945D01*
Y-91232D01*
Y-91518D01*
Y-91804D01*
Y-92091D01*
Y-92377D01*
X1055800D01*
Y-92663D01*
Y-92950D01*
Y-93236D01*
Y-93522D01*
Y-93809D01*
Y-94095D01*
X1055514D01*
Y-94381D01*
Y-94667D01*
Y-94954D01*
Y-95240D01*
Y-95526D01*
Y-95813D01*
X1055228D01*
Y-96099D01*
Y-96385D01*
Y-96672D01*
Y-96958D01*
Y-97244D01*
Y-97531D01*
X1054941D01*
Y-97817D01*
Y-98103D01*
Y-98390D01*
Y-98676D01*
Y-98962D01*
Y-99248D01*
Y-99535D01*
X1054655D01*
Y-99821D01*
Y-100107D01*
X1041485D01*
Y-99821D01*
Y-99535D01*
X1041771D01*
Y-99248D01*
Y-98962D01*
Y-98676D01*
Y-98390D01*
Y-98103D01*
Y-97817D01*
Y-97531D01*
X1042057D01*
Y-97244D01*
Y-96958D01*
Y-96672D01*
Y-96385D01*
Y-96099D01*
Y-95813D01*
X1042344D01*
Y-95526D01*
Y-95240D01*
Y-94954D01*
Y-94667D01*
Y-94381D01*
Y-94095D01*
X1042630D01*
Y-93809D01*
Y-93522D01*
Y-93236D01*
Y-92950D01*
Y-92663D01*
Y-92377D01*
Y-92091D01*
X1042916D01*
Y-91804D01*
Y-91518D01*
Y-91232D01*
Y-90945D01*
Y-90659D01*
Y-90373D01*
X1043202D01*
Y-90086D01*
Y-89800D01*
Y-89514D01*
Y-89227D01*
Y-88941D01*
Y-88655D01*
X1043489D01*
Y-88369D01*
Y-88082D01*
Y-87796D01*
Y-87510D01*
Y-87223D01*
Y-86937D01*
X1043775D01*
Y-86651D01*
Y-86364D01*
Y-86078D01*
Y-85792D01*
Y-85505D01*
Y-85219D01*
Y-84933D01*
X1044061D01*
Y-84646D01*
Y-84360D01*
Y-84074D01*
Y-83788D01*
Y-83501D01*
Y-83215D01*
X1044348D01*
Y-82929D01*
Y-82642D01*
Y-82356D01*
Y-82070D01*
Y-81783D01*
Y-81497D01*
X1044634D01*
Y-81211D01*
Y-80924D01*
Y-80638D01*
Y-80352D01*
Y-80066D01*
Y-79779D01*
Y-79493D01*
X1044920D01*
Y-79207D01*
Y-78920D01*
Y-78634D01*
Y-78348D01*
Y-78061D01*
Y-77775D01*
X1045207D01*
Y-77489D01*
Y-77202D01*
Y-76916D01*
Y-76630D01*
Y-76343D01*
Y-76057D01*
X1045493D01*
Y-75771D01*
Y-75485D01*
Y-75198D01*
Y-74912D01*
Y-74625D01*
Y-74339D01*
X1045779D01*
Y-74053D01*
Y-73767D01*
Y-73480D01*
Y-73194D01*
Y-72908D01*
Y-72621D01*
Y-72335D01*
X1046066D01*
Y-72049D01*
Y-71762D01*
Y-71476D01*
Y-71190D01*
Y-70903D01*
Y-70617D01*
X1046352D01*
Y-70331D01*
Y-70044D01*
Y-69758D01*
Y-69472D01*
Y-69186D01*
Y-68899D01*
X1046638D01*
Y-68613D01*
Y-68327D01*
Y-68040D01*
Y-67754D01*
Y-67468D01*
Y-67181D01*
X1046925D01*
Y-66895D01*
Y-66609D01*
Y-66322D01*
Y-66036D01*
Y-65750D01*
Y-65464D01*
Y-65177D01*
X1047211D01*
Y-64891D01*
Y-64605D01*
Y-64318D01*
Y-64032D01*
Y-63746D01*
Y-63459D01*
X1047497D01*
Y-63173D01*
Y-62887D01*
Y-62600D01*
Y-62314D01*
Y-62028D01*
Y-61742D01*
X1047783D01*
Y-61455D01*
Y-61169D01*
Y-60883D01*
Y-60596D01*
Y-60310D01*
Y-60024D01*
Y-59737D01*
X1048070D01*
Y-59451D01*
Y-59165D01*
Y-58878D01*
Y-58592D01*
Y-58306D01*
Y-58019D01*
X1048356D01*
Y-57733D01*
Y-57447D01*
Y-57161D01*
Y-56874D01*
Y-56588D01*
Y-56301D01*
X1048642D01*
Y-56015D01*
Y-55729D01*
Y-55443D01*
Y-55156D01*
Y-54870D01*
Y-54584D01*
X1048929D01*
Y-54297D01*
Y-54011D01*
Y-53725D01*
Y-53438D01*
Y-53152D01*
Y-52866D01*
Y-52579D01*
X1049215D01*
Y-52293D01*
Y-52007D01*
Y-51720D01*
Y-51434D01*
Y-51148D01*
Y-50862D01*
X1049501D01*
Y-50575D01*
Y-50289D01*
Y-50003D01*
Y-49716D01*
Y-49430D01*
Y-49144D01*
X1049788D01*
Y-48857D01*
Y-48571D01*
Y-48285D01*
Y-47998D01*
Y-47712D01*
Y-47426D01*
Y-47139D01*
X1050074D01*
Y-46853D01*
Y-46567D01*
Y-46281D01*
X1063244D01*
Y-46567D01*
D02*
G37*
G36*
X1032036Y-50003D02*
X1033754D01*
Y-50289D01*
X1034613D01*
Y-50575D01*
X1035472D01*
Y-50862D01*
X1036331D01*
Y-51148D01*
X1036904D01*
Y-51434D01*
X1037190D01*
Y-51720D01*
X1037763D01*
Y-52007D01*
X1038049D01*
Y-52293D01*
X1038622D01*
Y-52579D01*
X1038908D01*
Y-52866D01*
X1039194D01*
Y-53152D01*
X1039480D01*
Y-53438D01*
X1039767D01*
Y-53725D01*
X1040053D01*
Y-54011D01*
X1040339D01*
Y-54297D01*
Y-54584D01*
X1040626D01*
Y-54870D01*
X1040912D01*
Y-55156D01*
Y-55443D01*
X1041198D01*
Y-55729D01*
X1041485D01*
Y-56015D01*
Y-56301D01*
X1041771D01*
Y-56588D01*
Y-56874D01*
Y-57161D01*
X1042057D01*
Y-57447D01*
Y-57733D01*
Y-58019D01*
X1042344D01*
Y-58306D01*
Y-58592D01*
Y-58878D01*
Y-59165D01*
X1042630D01*
Y-59451D01*
Y-59737D01*
Y-60024D01*
Y-60310D01*
Y-60596D01*
X1042916D01*
Y-60883D01*
Y-61169D01*
Y-61455D01*
Y-61742D01*
Y-62028D01*
Y-62314D01*
Y-62600D01*
Y-62887D01*
Y-63173D01*
Y-63459D01*
Y-63746D01*
Y-64032D01*
Y-64318D01*
Y-64605D01*
Y-64891D01*
Y-65177D01*
Y-65464D01*
Y-65750D01*
Y-66036D01*
Y-66322D01*
X1042630D01*
Y-66609D01*
Y-66895D01*
Y-67181D01*
Y-67468D01*
Y-67754D01*
Y-68040D01*
Y-68327D01*
X1042344D01*
Y-68613D01*
Y-68899D01*
Y-69186D01*
Y-69472D01*
Y-69758D01*
X1042057D01*
Y-70044D01*
Y-70331D01*
Y-70617D01*
Y-70903D01*
Y-71190D01*
X1041771D01*
Y-71476D01*
Y-71762D01*
Y-72049D01*
X1041485D01*
Y-72335D01*
Y-72621D01*
Y-72908D01*
Y-73194D01*
X1041198D01*
Y-73480D01*
Y-73767D01*
Y-74053D01*
X1040912D01*
Y-74339D01*
Y-74625D01*
X1040626D01*
Y-74912D01*
Y-75198D01*
Y-75485D01*
X1040339D01*
Y-75771D01*
Y-76057D01*
X1040053D01*
Y-76343D01*
Y-76630D01*
X1039767D01*
Y-76916D01*
Y-77202D01*
X1039480D01*
Y-77489D01*
X1039194D01*
Y-77775D01*
Y-78061D01*
X1038908D01*
Y-78348D01*
X1038622D01*
Y-78634D01*
X1038335D01*
Y-78920D01*
Y-79207D01*
X1038049D01*
Y-79493D01*
X1037763D01*
Y-79779D01*
X1037476D01*
Y-80066D01*
X1037190D01*
Y-80352D01*
X1036904D01*
Y-80638D01*
X1036331D01*
Y-80924D01*
X1036045D01*
Y-81211D01*
X1035472D01*
Y-81497D01*
X1035186D01*
Y-81783D01*
X1034613D01*
Y-82070D01*
X1033754D01*
Y-82356D01*
X1032895D01*
Y-82642D01*
X1032036D01*
Y-82929D01*
X1030318D01*
Y-83215D01*
X1025165D01*
Y-82929D01*
X1022588D01*
Y-82642D01*
X1020584D01*
Y-82356D01*
X1019152D01*
Y-82070D01*
X1017721D01*
Y-81783D01*
X1016289D01*
Y-82070D01*
Y-82356D01*
Y-82642D01*
Y-82929D01*
Y-83215D01*
Y-83501D01*
Y-83788D01*
X1016003D01*
Y-84074D01*
Y-84360D01*
Y-84646D01*
Y-84933D01*
Y-85219D01*
Y-85505D01*
X1015716D01*
Y-85792D01*
Y-86078D01*
Y-86364D01*
Y-86651D01*
Y-86937D01*
Y-87223D01*
X1015430D01*
Y-87510D01*
Y-87796D01*
Y-88082D01*
Y-88369D01*
Y-88655D01*
Y-88941D01*
Y-89227D01*
X1015144D01*
Y-89514D01*
Y-89800D01*
Y-90086D01*
Y-90373D01*
Y-90659D01*
Y-90945D01*
X1014857D01*
Y-91232D01*
Y-91518D01*
Y-91804D01*
Y-92091D01*
Y-92377D01*
Y-92663D01*
X1014571D01*
Y-92950D01*
Y-93236D01*
Y-93522D01*
Y-93809D01*
Y-94095D01*
Y-94381D01*
Y-94667D01*
X1014285D01*
Y-94954D01*
Y-95240D01*
Y-95526D01*
Y-95813D01*
Y-96099D01*
Y-96385D01*
X1013999D01*
Y-96672D01*
Y-96958D01*
Y-97244D01*
Y-97531D01*
Y-97817D01*
Y-98103D01*
X1013712D01*
Y-98390D01*
Y-98676D01*
Y-98962D01*
Y-99248D01*
Y-99535D01*
Y-99821D01*
Y-100107D01*
X1000256D01*
Y-99821D01*
X1000542D01*
Y-99535D01*
Y-99248D01*
Y-98962D01*
Y-98676D01*
Y-98390D01*
X1000828D01*
Y-98103D01*
Y-97817D01*
Y-97531D01*
Y-97244D01*
Y-96958D01*
Y-96672D01*
Y-96385D01*
X1001114D01*
Y-96099D01*
Y-95813D01*
Y-95526D01*
Y-95240D01*
Y-94954D01*
Y-94667D01*
X1001401D01*
Y-94381D01*
Y-94095D01*
Y-93809D01*
Y-93522D01*
Y-93236D01*
Y-92950D01*
X1001687D01*
Y-92663D01*
Y-92377D01*
Y-92091D01*
Y-91804D01*
Y-91518D01*
Y-91232D01*
Y-90945D01*
X1001974D01*
Y-90659D01*
Y-90373D01*
Y-90086D01*
Y-89800D01*
Y-89514D01*
Y-89227D01*
X1002260D01*
Y-88941D01*
Y-88655D01*
Y-88369D01*
Y-88082D01*
Y-87796D01*
Y-87510D01*
X1002546D01*
Y-87223D01*
Y-86937D01*
Y-86651D01*
Y-86364D01*
Y-86078D01*
Y-85792D01*
X1002832D01*
Y-85505D01*
Y-85219D01*
Y-84933D01*
Y-84646D01*
Y-84360D01*
Y-84074D01*
Y-83788D01*
X1003119D01*
Y-83501D01*
Y-83215D01*
Y-82929D01*
Y-82642D01*
Y-82356D01*
Y-82070D01*
X1003405D01*
Y-81783D01*
Y-81497D01*
Y-81211D01*
Y-80924D01*
Y-80638D01*
Y-80352D01*
X1003691D01*
Y-80066D01*
Y-79779D01*
Y-79493D01*
Y-79207D01*
Y-78920D01*
Y-78634D01*
X1003978D01*
Y-78348D01*
Y-78061D01*
Y-77775D01*
Y-77489D01*
Y-77202D01*
Y-76916D01*
Y-76630D01*
X1004264D01*
Y-76343D01*
Y-76057D01*
Y-75771D01*
Y-75485D01*
Y-75198D01*
Y-74912D01*
X1004550D01*
Y-74625D01*
Y-74339D01*
Y-74053D01*
Y-73767D01*
Y-73480D01*
Y-73194D01*
X1004837D01*
Y-72908D01*
Y-72621D01*
Y-72335D01*
Y-72049D01*
Y-71762D01*
Y-71476D01*
Y-71190D01*
X1005123D01*
Y-70903D01*
Y-70617D01*
Y-70331D01*
Y-70044D01*
Y-69758D01*
Y-69472D01*
X1005409D01*
Y-69186D01*
Y-68899D01*
Y-68613D01*
Y-68327D01*
Y-68040D01*
Y-67754D01*
X1005696D01*
Y-67468D01*
Y-67181D01*
Y-66895D01*
Y-66609D01*
Y-66322D01*
Y-66036D01*
X1005982D01*
Y-65750D01*
Y-65464D01*
Y-65177D01*
Y-64891D01*
Y-64605D01*
Y-64318D01*
Y-64032D01*
X1006268D01*
Y-63746D01*
Y-63459D01*
Y-63173D01*
Y-62887D01*
Y-62600D01*
Y-62314D01*
X1006555D01*
Y-62028D01*
Y-61742D01*
Y-61455D01*
Y-61169D01*
Y-60883D01*
Y-60596D01*
X1006841D01*
Y-60310D01*
Y-60024D01*
Y-59737D01*
Y-59451D01*
Y-59165D01*
Y-58878D01*
Y-58592D01*
X1007127D01*
Y-58306D01*
Y-58019D01*
Y-57733D01*
Y-57447D01*
Y-57161D01*
Y-56874D01*
X1007413D01*
Y-56588D01*
Y-56301D01*
Y-56015D01*
Y-55729D01*
Y-55443D01*
Y-55156D01*
X1007700D01*
Y-54870D01*
Y-54584D01*
Y-54297D01*
Y-54011D01*
Y-53725D01*
Y-53438D01*
Y-53152D01*
X1007986D01*
Y-52866D01*
Y-52579D01*
Y-52293D01*
Y-52007D01*
Y-51720D01*
Y-51434D01*
X1008272D01*
Y-51148D01*
Y-50862D01*
Y-50575D01*
Y-50289D01*
Y-50003D01*
Y-49716D01*
X1032036D01*
Y-50003D01*
D02*
G37*
G36*
X1165172Y-64032D02*
X1164886D01*
Y-64318D01*
X1164599D01*
Y-64605D01*
Y-64891D01*
X1164313D01*
Y-65177D01*
X1164027D01*
Y-65464D01*
X1163740D01*
Y-65750D01*
Y-66036D01*
X1163454D01*
Y-66322D01*
X1163168D01*
Y-66609D01*
X1162881D01*
Y-66895D01*
X1162595D01*
Y-67181D01*
Y-67468D01*
X1162309D01*
Y-67754D01*
X1162022D01*
Y-68040D01*
X1161736D01*
Y-68327D01*
Y-68613D01*
X1161450D01*
Y-68899D01*
X1161163D01*
Y-69186D01*
X1160877D01*
Y-69472D01*
X1160591D01*
Y-69758D01*
Y-70044D01*
X1160305D01*
Y-70331D01*
X1160018D01*
Y-70617D01*
X1159732D01*
Y-70903D01*
Y-71190D01*
X1159445D01*
Y-71476D01*
X1159159D01*
Y-71762D01*
X1158873D01*
Y-72049D01*
Y-72335D01*
X1158587D01*
Y-72621D01*
X1158300D01*
Y-72908D01*
X1158014D01*
Y-73194D01*
X1157728D01*
Y-73480D01*
Y-73767D01*
X1157441D01*
Y-74053D01*
X1157155D01*
Y-74339D01*
X1156869D01*
Y-74625D01*
Y-74912D01*
X1156582D01*
Y-75198D01*
X1156296D01*
Y-75485D01*
X1156010D01*
Y-75771D01*
Y-76057D01*
X1155723D01*
Y-76343D01*
X1155437D01*
Y-76630D01*
X1155151D01*
Y-76916D01*
X1154865D01*
Y-77202D01*
Y-77489D01*
X1154578D01*
Y-77775D01*
X1154292D01*
Y-78061D01*
X1154006D01*
Y-78348D01*
Y-78634D01*
X1153719D01*
Y-78920D01*
X1153433D01*
Y-79207D01*
X1153147D01*
Y-79493D01*
Y-79779D01*
X1152860D01*
Y-80066D01*
X1152574D01*
Y-80352D01*
X1152288D01*
Y-80638D01*
X1152001D01*
Y-80924D01*
Y-81211D01*
X1151715D01*
Y-81497D01*
X1151429D01*
Y-81783D01*
X1151142D01*
Y-82070D01*
Y-82356D01*
X1150856D01*
Y-82642D01*
X1150570D01*
Y-82929D01*
X1150284D01*
Y-83215D01*
X1149997D01*
Y-83501D01*
Y-83788D01*
X1150284D01*
Y-84074D01*
Y-84360D01*
X1150570D01*
Y-84646D01*
Y-84933D01*
X1150856D01*
Y-85219D01*
X1151142D01*
Y-85505D01*
Y-85792D01*
X1151429D01*
Y-86078D01*
Y-86364D01*
X1151715D01*
Y-86651D01*
Y-86937D01*
X1152001D01*
Y-87223D01*
Y-87510D01*
X1152288D01*
Y-87796D01*
Y-88082D01*
X1152574D01*
Y-88369D01*
Y-88655D01*
X1152860D01*
Y-88941D01*
Y-89227D01*
X1153147D01*
Y-89514D01*
Y-89800D01*
X1153433D01*
Y-90086D01*
X1153719D01*
Y-90373D01*
Y-90659D01*
X1154006D01*
Y-90945D01*
Y-91232D01*
X1154292D01*
Y-91518D01*
Y-91804D01*
X1154578D01*
Y-92091D01*
Y-92377D01*
X1154865D01*
Y-92663D01*
Y-92950D01*
X1155151D01*
Y-93236D01*
Y-93522D01*
X1155437D01*
Y-93809D01*
Y-94095D01*
X1155723D01*
Y-94381D01*
X1156010D01*
Y-94667D01*
Y-94954D01*
X1156296D01*
Y-95240D01*
Y-95526D01*
X1156582D01*
Y-95813D01*
Y-96099D01*
X1156869D01*
Y-96385D01*
Y-96672D01*
X1157155D01*
Y-96958D01*
Y-97244D01*
X1157441D01*
Y-97531D01*
Y-97817D01*
X1157728D01*
Y-98103D01*
Y-98390D01*
X1158014D01*
Y-98676D01*
X1158300D01*
Y-98962D01*
Y-99248D01*
X1158587D01*
Y-99535D01*
Y-99821D01*
X1158873D01*
Y-100107D01*
X1143698D01*
Y-99821D01*
X1143412D01*
Y-99535D01*
Y-99248D01*
Y-98962D01*
X1143126D01*
Y-98676D01*
Y-98390D01*
Y-98103D01*
X1142839D01*
Y-97817D01*
Y-97531D01*
X1142553D01*
Y-97244D01*
Y-96958D01*
Y-96672D01*
X1142267D01*
Y-96385D01*
Y-96099D01*
Y-95813D01*
X1141980D01*
Y-95526D01*
Y-95240D01*
X1141694D01*
Y-94954D01*
Y-94667D01*
Y-94381D01*
X1141408D01*
Y-94095D01*
Y-93809D01*
Y-93522D01*
X1141121D01*
Y-93236D01*
Y-92950D01*
Y-92663D01*
X1140835D01*
Y-92377D01*
X1140263D01*
Y-92663D01*
Y-92950D01*
X1139976D01*
Y-93236D01*
X1139690D01*
Y-93522D01*
Y-93809D01*
X1139404D01*
Y-94095D01*
X1139117D01*
Y-94381D01*
Y-94667D01*
X1138831D01*
Y-94954D01*
X1138545D01*
Y-95240D01*
Y-95526D01*
X1138258D01*
Y-95813D01*
X1137972D01*
Y-96099D01*
X1137686D01*
Y-96385D01*
Y-96672D01*
X1137399D01*
Y-96958D01*
X1137113D01*
Y-97244D01*
Y-97531D01*
X1136827D01*
Y-97817D01*
X1136541D01*
Y-98103D01*
Y-98390D01*
X1136254D01*
Y-98676D01*
X1135968D01*
Y-98962D01*
Y-99248D01*
X1135682D01*
Y-99535D01*
X1135395D01*
Y-99821D01*
Y-100107D01*
X1119362D01*
Y-99821D01*
X1119648D01*
Y-99535D01*
X1119934D01*
Y-99248D01*
X1120221D01*
Y-98962D01*
X1120507D01*
Y-98676D01*
Y-98390D01*
X1120793D01*
Y-98103D01*
X1121080D01*
Y-97817D01*
X1121366D01*
Y-97531D01*
X1121652D01*
Y-97244D01*
Y-96958D01*
X1121939D01*
Y-96672D01*
X1122225D01*
Y-96385D01*
X1122511D01*
Y-96099D01*
Y-95813D01*
X1122797D01*
Y-95526D01*
X1123084D01*
Y-95240D01*
X1123370D01*
Y-94954D01*
X1123656D01*
Y-94667D01*
Y-94381D01*
X1123943D01*
Y-94095D01*
X1124229D01*
Y-93809D01*
X1124515D01*
Y-93522D01*
X1124802D01*
Y-93236D01*
Y-92950D01*
X1125088D01*
Y-92663D01*
X1125374D01*
Y-92377D01*
X1125661D01*
Y-92091D01*
Y-91804D01*
X1125947D01*
Y-91518D01*
X1126233D01*
Y-91232D01*
X1126519D01*
Y-90945D01*
X1126806D01*
Y-90659D01*
Y-90373D01*
X1127092D01*
Y-90086D01*
X1127378D01*
Y-89800D01*
X1127665D01*
Y-89514D01*
Y-89227D01*
X1127951D01*
Y-88941D01*
X1128237D01*
Y-88655D01*
X1128524D01*
Y-88369D01*
X1128810D01*
Y-88082D01*
Y-87796D01*
X1129096D01*
Y-87510D01*
X1129383D01*
Y-87223D01*
X1129669D01*
Y-86937D01*
Y-86651D01*
X1129955D01*
Y-86364D01*
X1130242D01*
Y-86078D01*
X1130528D01*
Y-85792D01*
X1130814D01*
Y-85505D01*
Y-85219D01*
X1131100D01*
Y-84933D01*
X1131387D01*
Y-84646D01*
X1131673D01*
Y-84360D01*
X1131960D01*
Y-84074D01*
Y-83788D01*
X1132246D01*
Y-83501D01*
X1132532D01*
Y-83215D01*
X1132818D01*
Y-82929D01*
Y-82642D01*
X1133105D01*
Y-82356D01*
X1133391D01*
Y-82070D01*
X1133677D01*
Y-81783D01*
X1133964D01*
Y-81497D01*
Y-81211D01*
X1134250D01*
Y-80924D01*
Y-80638D01*
Y-80352D01*
X1133964D01*
Y-80066D01*
X1133677D01*
Y-79779D01*
Y-79493D01*
X1133391D01*
Y-79207D01*
Y-78920D01*
X1133105D01*
Y-78634D01*
Y-78348D01*
X1132818D01*
Y-78061D01*
Y-77775D01*
X1132532D01*
Y-77489D01*
Y-77202D01*
X1132246D01*
Y-76916D01*
Y-76630D01*
X1131960D01*
Y-76343D01*
X1131673D01*
Y-76057D01*
Y-75771D01*
X1131387D01*
Y-75485D01*
Y-75198D01*
X1131100D01*
Y-74912D01*
Y-74625D01*
X1130814D01*
Y-74339D01*
Y-74053D01*
X1130528D01*
Y-73767D01*
Y-73480D01*
X1130242D01*
Y-73194D01*
Y-72908D01*
X1129955D01*
Y-72621D01*
X1129669D01*
Y-72335D01*
Y-72049D01*
X1129383D01*
Y-71762D01*
Y-71476D01*
X1129096D01*
Y-71190D01*
Y-70903D01*
X1128810D01*
Y-70617D01*
Y-70331D01*
X1128524D01*
Y-70044D01*
Y-69758D01*
X1128237D01*
Y-69472D01*
Y-69186D01*
X1127951D01*
Y-68899D01*
Y-68613D01*
X1127665D01*
Y-68327D01*
X1127378D01*
Y-68040D01*
Y-67754D01*
X1127092D01*
Y-67468D01*
Y-67181D01*
X1126806D01*
Y-66895D01*
Y-66609D01*
X1126519D01*
Y-66322D01*
Y-66036D01*
X1126233D01*
Y-65750D01*
Y-65464D01*
X1125947D01*
Y-65177D01*
Y-64891D01*
X1125661D01*
Y-64605D01*
X1125374D01*
Y-64318D01*
Y-64032D01*
X1125088D01*
Y-63746D01*
X1140835D01*
Y-64032D01*
X1141121D01*
Y-64318D01*
Y-64605D01*
Y-64891D01*
X1141408D01*
Y-65177D01*
Y-65464D01*
Y-65750D01*
X1141694D01*
Y-66036D01*
Y-66322D01*
Y-66609D01*
X1141980D01*
Y-66895D01*
Y-67181D01*
Y-67468D01*
X1142267D01*
Y-67754D01*
Y-68040D01*
Y-68327D01*
X1142553D01*
Y-68613D01*
Y-68899D01*
Y-69186D01*
X1142839D01*
Y-69472D01*
Y-69758D01*
Y-70044D01*
X1143126D01*
Y-70331D01*
Y-70617D01*
Y-70903D01*
X1143412D01*
Y-71190D01*
Y-71476D01*
Y-71762D01*
Y-72049D01*
X1143985D01*
Y-71762D01*
X1144271D01*
Y-71476D01*
X1144557D01*
Y-71190D01*
Y-70903D01*
X1144844D01*
Y-70617D01*
X1145130D01*
Y-70331D01*
Y-70044D01*
X1145416D01*
Y-69758D01*
X1145702D01*
Y-69472D01*
Y-69186D01*
X1145989D01*
Y-68899D01*
X1146275D01*
Y-68613D01*
Y-68327D01*
X1146561D01*
Y-68040D01*
X1146848D01*
Y-67754D01*
Y-67468D01*
X1147134D01*
Y-67181D01*
X1147420D01*
Y-66895D01*
Y-66609D01*
X1147707D01*
Y-66322D01*
X1147993D01*
Y-66036D01*
Y-65750D01*
X1148279D01*
Y-65464D01*
X1148566D01*
Y-65177D01*
Y-64891D01*
X1148852D01*
Y-64605D01*
X1149138D01*
Y-64318D01*
Y-64032D01*
X1149425D01*
Y-63746D01*
X1165172D01*
Y-64032D01*
D02*
G37*
%LPC*%
G36*
X1027742Y-60883D02*
X1019725D01*
Y-61169D01*
Y-61455D01*
Y-61742D01*
Y-62028D01*
Y-62314D01*
X1019438D01*
Y-62600D01*
Y-62887D01*
Y-63173D01*
Y-63459D01*
Y-63746D01*
Y-64032D01*
X1019152D01*
Y-64318D01*
Y-64605D01*
Y-64891D01*
Y-65177D01*
Y-65464D01*
Y-65750D01*
X1018866D01*
Y-66036D01*
Y-66322D01*
Y-66609D01*
Y-66895D01*
Y-67181D01*
Y-67468D01*
X1018580D01*
Y-67754D01*
Y-68040D01*
Y-68327D01*
Y-68613D01*
Y-68899D01*
Y-69186D01*
Y-69472D01*
X1018293D01*
Y-69758D01*
Y-70044D01*
Y-70331D01*
Y-70617D01*
Y-70903D01*
Y-71190D01*
X1018007D01*
Y-71476D01*
Y-71762D01*
Y-72049D01*
X1025165D01*
Y-71762D01*
X1026310D01*
Y-71476D01*
X1026883D01*
Y-71190D01*
X1027169D01*
Y-70903D01*
X1027455D01*
Y-70617D01*
X1027742D01*
Y-70331D01*
X1028028D01*
Y-70044D01*
Y-69758D01*
X1028314D01*
Y-69472D01*
Y-69186D01*
X1028601D01*
Y-68899D01*
Y-68613D01*
X1028887D01*
Y-68327D01*
Y-68040D01*
Y-67754D01*
Y-67468D01*
X1029173D01*
Y-67181D01*
Y-66895D01*
Y-66609D01*
Y-66322D01*
Y-66036D01*
X1029459D01*
Y-65750D01*
Y-65464D01*
Y-65177D01*
Y-64891D01*
Y-64605D01*
Y-64318D01*
Y-64032D01*
Y-63746D01*
Y-63459D01*
Y-63173D01*
Y-62887D01*
X1029173D01*
Y-62600D01*
Y-62314D01*
X1028887D01*
Y-62028D01*
Y-61742D01*
X1028601D01*
Y-61455D01*
X1028314D01*
Y-61169D01*
X1027742D01*
Y-60883D01*
D02*
G37*
%LPD*%
D10*
X77165Y43110D02*
G03*
X77362Y42913I197J0D01*
G01*
X50591Y153150D02*
G03*
X48031Y155709I-2559J0D01*
G01*
X44096Y129135D02*
G03*
X44094Y129134I1900J-1902D01*
G01*
X45995Y129921D02*
G03*
X44096Y129135I0J-2688D01*
G01*
X46850Y129921D02*
G03*
X48867Y130756I0J2851D01*
G01*
X53178Y137275D02*
G03*
X51919Y137795I-1259J-1261D01*
G01*
X50996Y138177D02*
G03*
X51919Y137795I923J925D01*
G01*
X50995Y138178D02*
G03*
X50996Y138177I924J924D01*
G01*
X53180Y137273D02*
G03*
X53178Y137275I-1260J-1260D01*
G01*
X48635Y99029D02*
G03*
X47244Y95669I3361J-3359D01*
G01*
X48636Y99030D02*
G03*
X48635Y99029I3360J-3360D01*
G01*
X48854Y99247D02*
G03*
X48853Y99246I1343J-1345D01*
G01*
X50197Y99803D02*
G03*
X48854Y99247I0J-1901D01*
G01*
X23912Y80605D02*
G03*
X23819Y79921I2466J-684D01*
G01*
X25694Y82387D02*
G03*
X23912Y80605I684J-2466D01*
G01*
X26378Y82480D02*
G03*
X25694Y82387I0J-2559D01*
G01*
X150591Y109055D02*
G03*
X150173Y110063I-1426J0D01*
G01*
X148588Y111648D02*
G03*
X147244Y112205I-1344J-1344D01*
G01*
X145396Y112970D02*
G03*
X147244Y112205I1848J1848D01*
G01*
X145599Y101251D02*
G03*
X142913Y102362I-2686J-2691D01*
G01*
X145602Y101249D02*
G03*
X145599Y101251I-2688J-2688D01*
G01*
X145465Y108079D02*
G03*
X140256Y110236I-5209J-5209D01*
G01*
X150174Y103369D02*
G03*
X150173Y103370I-1009J-1007D01*
G01*
X150591Y102362D02*
G03*
X150174Y103369I-1426J0D01*
G01*
X168112Y116927D02*
G03*
X168110Y116929I-2853J-2850D01*
G01*
X169291Y114078D02*
G03*
X168112Y116927I-4033J0D01*
G01*
X168110Y116929D02*
G03*
X165259Y118110I-2851J-2851D01*
G01*
X161614Y119488D02*
G03*
X164941Y118110I3327J3327D01*
G01*
X161614Y119488D02*
G03*
X158288Y120866I-3327J-3327D01*
G01*
X155118Y127559D02*
G03*
X152854Y129823I-2264J0D01*
G01*
X143595Y130519D02*
G03*
X145276Y129823I1680J1680D01*
G01*
X146387Y140621D02*
G03*
X143701Y141732I-2686J-2691D01*
G01*
X146389Y140619D02*
G03*
X146387Y140621I-2688J-2688D01*
G01*
X150614Y136393D02*
G03*
X157685Y133465I7071J7071D01*
G01*
X152272Y137591D02*
G03*
X157480Y135433I5209J5209D01*
G01*
X172047Y130709D02*
G03*
X169291Y133465I-2756J0D01*
G01*
X174016Y132283D02*
G03*
X170866Y135433I-3150J0D01*
G01*
X131496Y51575D02*
G03*
X137992Y58071I0J6496D01*
G01*
X145475Y78738D02*
G03*
X145472Y78740I-5610J-5605D01*
G01*
X147795Y73132D02*
G03*
X145475Y78738I-7931J0D01*
G01*
X143898Y80315D02*
G03*
X143480Y81323I-1426J0D01*
G01*
X136328Y86614D02*
G03*
X136319Y86614I-10J-4515D01*
G01*
X139511Y85292D02*
G03*
X136328Y86614I-3192J-3192D01*
G01*
X97244Y67323D02*
G03*
X93442Y68898I-3802J-3802D01*
G01*
X101476Y63758D02*
G03*
X100000Y67323I-5041J0D01*
G01*
X104035Y65242D02*
G03*
X101107Y72313I-10000J0D01*
G01*
X106595Y70683D02*
G03*
X103666Y77754I-10000J0D01*
G01*
X88189Y56496D02*
G03*
X87795Y56102I0J-394D01*
G01*
X73524Y62402D02*
G03*
X70669Y59547I0J-2854D01*
G01*
X96358Y63779D02*
G03*
X94390Y65748I-1969J0D01*
G01*
X88976Y66929D02*
G03*
X91828Y65748I2851J2851D01*
G01*
X87598Y70256D02*
G03*
X88976Y66929I4705J0D01*
G01*
X98917Y63283D02*
G03*
X97244Y67323I-5713J0D01*
G01*
X111713Y55610D02*
G03*
X111811Y54724I4035J0D01*
G01*
D02*
G03*
X114862Y51673I3937J886D01*
G01*
D02*
G03*
X115748Y51575I886J3937D01*
G01*
X63189Y57284D02*
G03*
X64567Y55905I1378J0D01*
G01*
X76575D02*
G03*
X77165Y56496I0J591D01*
G01*
X73123Y38491D02*
G03*
X74316Y37846I1680J1681D01*
G01*
D02*
G03*
X74803Y37795I487J2326D01*
G01*
X77165Y37205D02*
G03*
X75740Y37795I-1426J-1426D01*
G01*
X174016Y129339D02*
G03*
X176945Y122268I10000J0D01*
G01*
X172047Y121465D02*
G03*
X174976Y114394I10000J0D01*
G01*
X140256Y118110D02*
X145396Y112970D01*
X169291Y84646D02*
Y114078D01*
X77362Y42913D02*
X81496D01*
X70472Y52756D02*
X74606D01*
X53543Y136909D02*
X56595Y133858D01*
X50591Y149606D02*
Y153150D01*
X38583Y155709D02*
X48031D01*
X42717Y127756D02*
X44094Y129134D01*
X45995Y129921D02*
X46850D01*
X48867Y130756D02*
X50591Y132480D01*
X50995Y138178D02*
X50996Y138177D01*
X50591Y138583D02*
X50995Y138178D01*
X53180Y137273D02*
X53543Y136909D01*
X47244Y82480D02*
Y95669D01*
X48636Y99030D02*
X48853Y99246D01*
X48635Y99029D02*
X48636Y99030D01*
X49803Y100197D02*
X50197Y100591D01*
X23819Y77264D02*
Y79921D01*
X26378Y82480D02*
X31693D01*
X148588Y111648D02*
X150173Y110063D01*
X140256Y102362D02*
X142913D01*
X145602Y101249D02*
X150591Y96260D01*
X150173Y103370D02*
X150174Y103369D01*
X145465Y108079D02*
X150173Y103370D01*
X164941Y118110D02*
X165259D01*
X155118Y120866D02*
X158288D01*
X155118D02*
Y127559D01*
X149409Y129823D02*
X152854D01*
X145276D02*
X149409D01*
X140256Y133858D02*
X143595Y130519D01*
X140256Y141732D02*
X143701D01*
X146389Y140619D02*
X150614Y136393D01*
X157685Y133465D02*
X169291D01*
X157480Y135433D02*
X170866D01*
X140256Y149606D02*
X152272Y137591D01*
X115748Y51575D02*
X131496D01*
X137992Y58071D02*
Y80315D01*
X147795Y61181D02*
Y73132D01*
X143898Y80315D02*
X145472Y78740D01*
X143480Y81323D02*
X143480Y81323D01*
X139511Y85292D02*
X143480Y81323D01*
X136319Y86614D02*
X136319Y86614D01*
X50197Y100591D02*
Y104134D01*
X44685Y149606D02*
X44685Y149606D01*
X40945Y149606D02*
X44685D01*
X42717Y126378D02*
Y127756D01*
X50591Y132480D02*
Y133071D01*
X178347Y120866D02*
X179764D01*
X77165Y56496D02*
X81299D01*
Y52953D02*
Y56496D01*
X80709Y52362D02*
X81299Y52953D01*
X92028Y68898D02*
X93442D01*
X87598Y70256D02*
Y72835D01*
X96457Y70866D02*
X100000Y67323D01*
X101476Y59252D02*
Y63758D01*
X95006Y78414D02*
X101107Y72313D01*
X104035Y59252D02*
Y65242D01*
X103006Y78414D02*
X103666Y77754D01*
X106595Y62845D02*
Y70683D01*
Y59252D02*
Y62845D01*
X87795Y51772D02*
Y56102D01*
X73524Y62402D02*
X77165D01*
X82677D02*
X88189D01*
X77165D02*
X82677D01*
X76575Y67323D02*
Y71653D01*
X70669D02*
X76575D01*
X70669D02*
Y76772D01*
Y70374D02*
Y71653D01*
X70276Y77165D02*
X70669Y76772D01*
X96358Y59252D02*
Y63779D01*
X91828Y65748D02*
X94390D01*
X98917Y59252D02*
Y63283D01*
X111614Y59350D02*
Y61221D01*
Y59350D02*
X111713Y59252D01*
X38583Y139567D02*
Y155709D01*
Y139567D02*
X39370Y138779D01*
X111713Y55610D02*
Y59252D01*
X63189Y57284D02*
Y59547D01*
X64567Y55905D02*
X76575D01*
X74606Y51575D02*
Y52756D01*
X81693Y56496D02*
X82677D01*
X65354Y46260D02*
X73123Y38491D01*
X73123Y38491D01*
X74803Y37795D02*
X75740D01*
X150591Y115748D02*
Y116339D01*
X155118Y120866D01*
X180630Y108740D02*
X181890D01*
X179764Y120866D02*
X181890Y118740D01*
X158268Y139567D02*
Y147638D01*
Y155709D01*
X150591Y95669D02*
Y96260D01*
X50591Y149606D02*
X56595D01*
X56595Y149606D01*
X50591Y144095D02*
Y149606D01*
X27559Y77264D02*
X27756Y77067D01*
Y71260D02*
Y77067D01*
X176945Y122268D02*
X178347Y120866D01*
X174016Y129339D02*
Y132283D01*
X172047Y121465D02*
Y130709D01*
X174976Y114394D02*
X180630Y108740D01*
X0Y11811D02*
G03*
X11811Y0I11811J0D01*
G01*
X185039D02*
G03*
X196850Y11811I0J11811D01*
G01*
Y149606D02*
G03*
X185039Y161417I-11811J0D01*
G01*
X11811D02*
G03*
X0Y149606I0J-11811D01*
G01*
X9843Y133858D02*
G03*
X5906Y137795I-3937J0D01*
G01*
X0Y141732D02*
G03*
X3937Y137795I3937J0D01*
G01*
X5906Y23622D02*
G03*
X9843Y27559I0J3937D01*
G01*
X3937Y23622D02*
G03*
X0Y19685I0J-3937D01*
G01*
X15748Y161417D02*
G03*
X19685Y165354I0J3937D01*
G01*
X27559Y185039D02*
G03*
X19685Y177165I0J-7874D01*
G01*
X177165D02*
G03*
X169291Y185039I-7874J0D01*
G01*
X192913Y137795D02*
G03*
X196850Y141732I0J3937D01*
G01*
X177165Y165354D02*
G03*
X181102Y161417I3937J0D01*
G01*
X190945Y137795D02*
G03*
X187008Y133858I0J-3937D01*
G01*
X196850Y19685D02*
G03*
X192913Y23622I-3937J0D01*
G01*
X187008Y27559D02*
G03*
X190945Y23622I3937J0D01*
G01*
X0Y11811D02*
Y19685D01*
X11811Y0D02*
X15748D01*
X196850Y11811D02*
Y19685D01*
X181102Y0D02*
X185039D01*
X181102Y161417D02*
X185039D01*
X196850Y141732D02*
Y149606D01*
X3937Y137795D02*
X5906D01*
X9843Y27559D02*
Y133858D01*
X3937Y23622D02*
X5906D01*
X19685Y169291D02*
Y177165D01*
X177165Y169291D02*
Y177165D01*
X27559Y185039D02*
X169291D01*
X15748Y0D02*
X181102D01*
X0Y141732D02*
Y149606D01*
X11811Y161417D02*
X15748D01*
X19685Y165354D02*
Y169291D01*
X177165Y165354D02*
Y169291D01*
X190945Y137795D02*
X192913D01*
X190945Y23622D02*
X192913D01*
X187008Y27559D02*
Y133858D01*
X1338583Y-137795D02*
Y-98425D01*
X1181102Y-59055D02*
X1456693D01*
X1181102Y-98425D02*
X1456693D01*
X984252Y-137795D02*
X1456693D01*
X984252Y-19685D02*
X1456693D01*
X984252Y-177165D02*
Y-19685D01*
X1181102Y-177165D02*
Y-19685D01*
X-196850Y992126D02*
X1456693D01*
Y-177165D02*
Y992126D01*
X-196850Y-177165D02*
Y992126D01*
Y-177165D02*
X1456693D01*
X1194881Y-163388D02*
X1190945D01*
Y-169291D01*
X1194881D01*
X1190945Y-166340D02*
X1192913D01*
X1200784Y-164372D02*
X1199800Y-163388D01*
X1197832D01*
X1196848Y-164372D01*
Y-165356D01*
X1197832Y-166340D01*
X1199800D01*
X1200784Y-167324D01*
Y-168307D01*
X1199800Y-169291D01*
X1197832D01*
X1196848Y-168307D01*
X1202752Y-169291D02*
Y-163388D01*
X1205704D01*
X1206688Y-164372D01*
Y-166340D01*
X1205704Y-167324D01*
X1202752D01*
X1208656Y-169291D02*
X1210624D01*
X1209640D01*
Y-163388D01*
X1208656Y-164372D01*
X1217511Y-169291D02*
X1213575D01*
X1217511Y-165356D01*
Y-164372D01*
X1216527Y-163388D01*
X1214559D01*
X1213575Y-164372D01*
X1219479Y-170275D02*
X1223415D01*
X1225383Y-163388D02*
Y-169291D01*
X1228334D01*
X1229318Y-168307D01*
Y-164372D01*
X1228334Y-163388D01*
X1225383D01*
X1235222D02*
X1231286D01*
Y-169291D01*
X1235222D01*
X1231286Y-166340D02*
X1233254D01*
X1237190Y-163388D02*
Y-167324D01*
X1239158Y-169291D01*
X1241125Y-167324D01*
Y-163388D01*
X1243093Y-170275D02*
X1247029D01*
X1248997Y-164372D02*
X1249981Y-163388D01*
X1251949D01*
X1252933Y-164372D01*
Y-168307D01*
X1251949Y-169291D01*
X1249981D01*
X1248997Y-168307D01*
Y-164372D01*
X1254900Y-169291D02*
X1256868D01*
X1255884D01*
Y-163388D01*
X1254900Y-164372D01*
X1259820Y-169291D02*
Y-168307D01*
X1260804D01*
Y-169291D01*
X1259820D01*
X1264740D02*
Y-163388D01*
X1267692D01*
X1268676Y-164372D01*
Y-166340D01*
X1267692Y-167324D01*
X1264740D01*
X1274579Y-165356D02*
X1271627D01*
X1270644Y-166340D01*
Y-168307D01*
X1271627Y-169291D01*
X1274579D01*
X1276547Y-163388D02*
Y-169291D01*
X1279499D01*
X1280483Y-168307D01*
Y-167324D01*
Y-166340D01*
X1279499Y-165356D01*
X1276547D01*
X1282451Y-163388D02*
Y-169291D01*
X1285402D01*
X1286386Y-168307D01*
Y-164372D01*
X1285402Y-163388D01*
X1282451D01*
X1289338Y-169291D02*
X1291306D01*
X1292290Y-168307D01*
Y-166340D01*
X1291306Y-165356D01*
X1289338D01*
X1288354Y-166340D01*
Y-168307D01*
X1289338Y-169291D01*
X1298194Y-165356D02*
X1295242D01*
X1294258Y-166340D01*
Y-168307D01*
X1295242Y-169291D01*
X1298194D01*
D11*
X152583Y45969D02*
G03*
X155512Y53040I-7071J7071D01*
G01*
X156445Y61790D02*
G03*
X155512Y58661I4775J-3128D01*
G01*
X161221Y64370D02*
G03*
X156445Y61790I0J-5709D01*
G01*
X56914Y34425D02*
G03*
X63985Y31496I7071J7071D01*
G01*
X44882Y48031D02*
G03*
X45995Y45343I3802J0D01*
G01*
X44882Y54317D02*
G03*
X43898Y56693I-3360J0D01*
G01*
X70472Y47638D02*
G03*
X72849Y46654I2376J2376D01*
G01*
X69288Y48822D02*
G03*
X65489Y50394I-3799J-3805D01*
G01*
X69291Y48819D02*
G03*
X69288Y48822I-3802J-3802D01*
G01*
X59842Y54724D02*
G03*
X64173Y50394I4331J0D01*
G01*
X64370Y82874D02*
G03*
X60827Y86417I-3543J0D01*
G01*
X62418Y69603D02*
G03*
X59842Y63386I6217J-6217D01*
G01*
X63189Y70374D02*
G03*
X64370Y73225I-2851J2851D01*
G01*
X14173Y74213D02*
G03*
X17323Y71063I3150J0D01*
G01*
X31299Y88091D02*
G03*
X33563Y85827I2264J0D01*
G01*
X19291Y75394D02*
G03*
X15748Y78937I-3543J0D01*
G01*
X145252Y43725D02*
G03*
X138181Y46654I-7071J-7071D01*
G01*
X56595Y86417D02*
Y94488D01*
X63985Y31496D02*
X80709D01*
X56595Y133858D02*
X68405D01*
X145252Y43725D02*
X147795Y41181D01*
X152583Y45969D01*
X155512Y53040D02*
Y58661D01*
X161221Y64370D02*
X166929D01*
X160827Y56890D02*
X166929D01*
X56595Y149606D02*
X68405D01*
X45995Y45343D02*
X56914Y34425D01*
X44882Y48031D02*
Y54317D01*
X43898Y56693D02*
Y64961D01*
X128445Y110236D02*
X140256D01*
X69291Y48819D02*
X70472Y47638D01*
X64173Y50394D02*
X65489D01*
X59842Y54724D02*
Y63386D01*
X56595Y86417D02*
X60827D01*
X64370Y77165D02*
Y82874D01*
X62418Y69603D02*
X63189Y70374D01*
X64370Y73225D02*
Y77165D01*
X55118Y86417D02*
X56595D01*
X42520Y99606D02*
X44488D01*
X42323D02*
X42520D01*
Y103150D01*
X44488Y96063D02*
Y99606D01*
X13780Y86417D02*
Y89961D01*
X19291Y71063D02*
Y75197D01*
X17323Y71063D02*
X19291D01*
X50197Y126378D02*
X50590Y125984D01*
X56595D01*
X180512Y64370D02*
X181890Y65748D01*
X166929Y64370D02*
X180512D01*
X91339Y46654D02*
X93799D01*
X72849D02*
X91339D01*
X33563Y85827D02*
X34252D01*
X21949Y89961D02*
X23819Y88091D01*
X19685Y89961D02*
X21949D01*
X15748Y86417D02*
X16142D01*
X19685Y89961D01*
X13780Y86417D02*
X15748D01*
X19291Y75197D02*
Y75394D01*
X14173Y74213D02*
Y78937D01*
X15748D01*
X103006Y78414D02*
Y86288D01*
X56595Y125984D02*
X68405D01*
X56595Y118110D02*
X68405D01*
X56595Y110236D02*
X68405D01*
X56595Y102362D02*
X68405D01*
X79405Y78414D02*
Y86288D01*
X87205Y78414D02*
Y86288D01*
X95006Y78414D02*
Y86288D01*
X110805Y78414D02*
Y86288D01*
X118806Y78414D02*
Y86288D01*
X128445Y94488D02*
X140256D01*
X128445Y102362D02*
X140256D01*
X128445Y118110D02*
X140256D01*
X128445Y125984D02*
X140256D01*
X128445Y133858D02*
X140256D01*
X128445Y149606D02*
X140256D01*
X128445Y141732D02*
X140256D01*
X93799Y46654D02*
X109153D01*
X138181D01*
X56595Y141732D02*
X68405D01*
X38780Y64567D02*
X43504D01*
X33661Y69095D02*
Y71260D01*
X31299Y66732D02*
X33661Y69095D01*
X31299Y64567D02*
Y66732D01*
Y56693D02*
Y64567D01*
X33071Y48031D02*
Y49409D01*
X31299Y51181D02*
X33071Y49409D01*
D12*
X166929Y69086D02*
G03*
X164000Y76157I-10000J0D01*
G01*
X159843Y84457D02*
G03*
X162771Y77386I10000J0D01*
G01*
X158035Y100823D02*
G03*
X158033Y100825I-4371J-4366D01*
G01*
X159843Y96457D02*
G03*
X158035Y100823I-6178J0D01*
G01*
X87795Y43110D02*
G03*
X86682Y42919I0J-3327D01*
G01*
X82063Y36787D02*
G03*
X82064Y36788I-1008J1008D01*
G01*
D02*
G03*
X82480Y37795I-1009J1007D01*
G01*
X109153Y31527D02*
G03*
X109941Y29626I2688J0D01*
G01*
X67347Y36787D02*
G03*
X74418Y33858I7071J7071D01*
G01*
X76907D02*
G03*
X80709Y35433I0J5377D01*
G01*
X166929Y64370D02*
Y69086D01*
Y64370D02*
Y64370D01*
X162771Y77386D02*
X164000Y76157D01*
X159843Y84457D02*
Y96457D01*
X156496Y102362D02*
X158033Y100825D01*
X50000Y90551D02*
Y93898D01*
X88583Y33071D02*
X93799D01*
Y37205D01*
X84646Y42919D02*
X86682D01*
X84646Y40551D02*
Y42919D01*
X82063Y36787D02*
X82064Y36788D01*
X80709Y35433D02*
X82063Y36787D01*
X82480Y38386D02*
X84646Y40551D01*
X82480Y37795D02*
Y38386D01*
X156299Y95472D02*
X156496Y95669D01*
X156299Y91732D02*
Y95472D01*
X164961Y91732D02*
Y95472D01*
X164567Y103347D02*
Y108465D01*
X156496Y114961D02*
X163976D01*
X156299D02*
X156496D01*
Y109055D02*
Y114961D01*
Y115157D02*
Y115748D01*
X156299Y114961D02*
X156496Y115157D01*
X163976Y114961D02*
X164567Y114370D01*
X156496Y102362D02*
Y109055D01*
X32283Y139567D02*
Y155709D01*
X164567Y139567D02*
Y155709D01*
X109153Y31527D02*
Y37205D01*
X65354Y38780D02*
X67347Y36787D01*
X74418Y33858D02*
X76907D01*
X93799Y37205D02*
Y37795D01*
X43898Y64961D02*
X44291Y65354D01*
X43504Y64567D02*
X44291Y65354D01*
D13*
X143480Y81323D02*
D03*
X73123Y38491D02*
D03*
D14*
X47835Y118110D02*
G03*
X51378Y114567I3543J0D01*
G01*
X33071Y33465D02*
X38976D01*
Y40551D02*
X44882D01*
X38976Y33465D02*
Y37402D01*
Y40551D01*
Y47244D02*
Y56693D01*
X38780D02*
X38976D01*
X35827D02*
X38780D01*
X57087Y75197D02*
Y78937D01*
X53150Y75197D02*
Y78937D01*
X55118D01*
X55905Y58661D02*
Y65354D01*
Y71260D01*
X51378Y58661D02*
X55905D01*
X55709Y65354D02*
X55905D01*
X51378Y54724D02*
X55905D01*
X51378D02*
Y56693D01*
Y58661D01*
X17323Y71063D02*
X17520Y70866D01*
X23228D01*
X47835Y118110D02*
Y119291D01*
X51575D01*
X51378Y114567D02*
X51575D01*
X161221Y129823D02*
X166339D01*
X146063Y118110D02*
Y122146D01*
X149409D01*
X91339Y40748D02*
Y46654D01*
X88386Y37795D02*
X91339Y40748D01*
X44685Y133071D02*
Y138583D01*
Y144095D01*
X22165Y127165D02*
X28071Y133071D01*
X37402D01*
X44685D01*
X42323Y111024D02*
X42520Y111221D01*
X41535Y111811D02*
X42323Y111024D01*
X40354Y112008D02*
Y118110D01*
Y112008D02*
X40551Y111811D01*
X41535D01*
X37402Y122835D02*
Y133071D01*
Y122835D02*
X40354Y119882D01*
Y118110D02*
Y119882D01*
X42520Y110630D02*
Y111221D01*
X42913Y110236D02*
X50000D01*
X50197Y110039D01*
X1202756Y-76776D02*
X1211939D01*
X1207348D01*
Y-90551D01*
X1218827D02*
X1223419D01*
X1225714Y-88255D01*
Y-83664D01*
X1223419Y-81368D01*
X1218827D01*
X1216531Y-83664D01*
Y-88255D01*
X1218827Y-90551D01*
X1230306Y-95143D02*
Y-81368D01*
X1237194D01*
X1239489Y-83664D01*
Y-88255D01*
X1237194Y-90551D01*
X1230306D01*
X1257856Y-76776D02*
Y-90551D01*
X1267040D01*
X1273927Y-81368D02*
X1278519D01*
X1280815Y-83664D01*
Y-90551D01*
X1273927D01*
X1271631Y-88255D01*
X1273927Y-85960D01*
X1280815D01*
X1285406Y-81368D02*
Y-88255D01*
X1287702Y-90551D01*
X1294590D01*
Y-92847D01*
X1292294Y-95143D01*
X1289998D01*
X1294590Y-90551D02*
Y-81368D01*
X1306069Y-90551D02*
X1301477D01*
X1299181Y-88255D01*
Y-83664D01*
X1301477Y-81368D01*
X1306069D01*
X1308365Y-83664D01*
Y-85960D01*
X1299181D01*
X1312957Y-81368D02*
Y-90551D01*
Y-85960D01*
X1315252Y-83664D01*
X1317548Y-81368D01*
X1319844D01*
X1005906Y-155517D02*
Y-171260D01*
X1011153Y-166012D01*
X1016401Y-171260D01*
Y-155517D01*
X1021649Y-171260D02*
X1026896D01*
X1024272D01*
Y-160765D01*
X1021649D01*
X1034768Y-171260D02*
Y-160765D01*
X1037391D01*
X1040015Y-163388D01*
Y-171260D01*
Y-163388D01*
X1042639Y-160765D01*
X1045263Y-163388D01*
Y-171260D01*
X1050511Y-155517D02*
Y-166012D01*
X1055758Y-171260D01*
X1061006Y-166012D01*
Y-155517D01*
X1076749Y-158141D02*
X1074125Y-155517D01*
X1068877D01*
X1066253Y-158141D01*
Y-168636D01*
X1068877Y-171260D01*
X1074125D01*
X1076749Y-168636D01*
Y-163388D01*
X1071501D01*
X1360236Y-118771D02*
X1362860Y-116147D01*
X1368108D01*
X1370732Y-118771D01*
Y-129266D01*
X1368108Y-131890D01*
X1362860D01*
X1360236Y-129266D01*
Y-118771D01*
X1375979D02*
X1378603Y-116147D01*
X1383851D01*
X1386475Y-118771D01*
Y-129266D01*
X1383851Y-131890D01*
X1378603D01*
X1375979Y-129266D01*
Y-118771D01*
X1206034Y-131890D02*
X1196850D01*
X1206034Y-122706D01*
Y-120411D01*
X1203738Y-118115D01*
X1199146D01*
X1196850Y-120411D01*
X1210625Y-129594D02*
X1212921Y-131890D01*
X1217513D01*
X1219809Y-129594D01*
Y-120411D01*
X1217513Y-118115D01*
X1212921D01*
X1210625Y-120411D01*
Y-122706D01*
X1212921Y-125002D01*
X1219809D01*
X1224401Y-131890D02*
X1233584Y-122706D01*
X1238176Y-120411D02*
X1240471Y-118115D01*
X1245063D01*
X1247359Y-120411D01*
Y-129594D01*
X1245063Y-131890D01*
X1240471D01*
X1238176Y-129594D01*
Y-120411D01*
X1251951D02*
X1254247Y-118115D01*
X1258838D01*
X1261134Y-120411D01*
Y-122706D01*
X1258838Y-125002D01*
X1261134Y-127298D01*
Y-129594D01*
X1258838Y-131890D01*
X1254247D01*
X1251951Y-129594D01*
Y-127298D01*
X1254247Y-125002D01*
X1251951Y-122706D01*
Y-120411D01*
X1254247Y-125002D02*
X1258838D01*
X1265726Y-131890D02*
X1274909Y-122706D01*
X1288684Y-131890D02*
X1279501D01*
X1288684Y-122706D01*
Y-120411D01*
X1286388Y-118115D01*
X1281797D01*
X1279501Y-120411D01*
X1293276D02*
X1295572Y-118115D01*
X1300163D01*
X1302459Y-120411D01*
Y-129594D01*
X1300163Y-131890D01*
X1295572D01*
X1293276Y-129594D01*
Y-120411D01*
X1307051Y-131890D02*
X1311643D01*
X1309347D01*
Y-118115D01*
X1307051Y-120411D01*
X1327714Y-118115D02*
X1318530D01*
Y-125002D01*
X1323122Y-122706D01*
X1325418D01*
X1327714Y-125002D01*
Y-129594D01*
X1325418Y-131890D01*
X1320826D01*
X1318530Y-129594D01*
X1201440Y-37407D02*
X1190945D01*
Y-53150D01*
X1201440D01*
X1190945Y-45278D02*
X1196192D01*
X1217183Y-40031D02*
X1214559Y-37407D01*
X1209312D01*
X1206688Y-40031D01*
Y-42654D01*
X1209312Y-45278D01*
X1214559D01*
X1217183Y-47902D01*
Y-50526D01*
X1214559Y-53150D01*
X1209312D01*
X1206688Y-50526D01*
X1222431Y-53150D02*
Y-37407D01*
X1230302D01*
X1232926Y-40031D01*
Y-45278D01*
X1230302Y-47902D01*
X1222431D01*
X1238174Y-53150D02*
X1243421D01*
X1240798D01*
Y-37407D01*
X1238174Y-40031D01*
X1261788Y-53150D02*
X1251293D01*
X1261788Y-42654D01*
Y-40031D01*
X1259164Y-37407D01*
X1253917D01*
X1251293Y-40031D01*
X1267036Y-55773D02*
X1277531D01*
X1282779Y-37407D02*
Y-53150D01*
X1290650D01*
X1293274Y-50526D01*
Y-40031D01*
X1290650Y-37407D01*
X1282779D01*
X1309017D02*
X1298522D01*
Y-53150D01*
X1309017D01*
X1298522Y-45278D02*
X1303769D01*
X1314265Y-37407D02*
Y-47902D01*
X1319512Y-53150D01*
X1324760Y-47902D01*
Y-37407D01*
D15*
X34252Y89370D02*
G03*
X31396Y88187I0J-4039D01*
G01*
X31299Y88091D02*
X31396Y88187D01*
D16*
X127638Y61024D02*
G03*
X127795Y61181I0J158D01*
G01*
X117520Y63976D02*
G03*
X120472Y61024I2953J0D01*
G01*
X56371Y19757D02*
G03*
X55118Y16732I3024J-3024D01*
G01*
X65953Y25197D02*
G03*
X58882Y22268I0J-10000D01*
G01*
X99737Y26164D02*
G03*
X101476Y31800I-8261J5636D01*
G01*
X98548Y24729D02*
G03*
X99737Y26164I-7071J7071D01*
G01*
X91339Y25197D02*
G03*
X98917Y32776I0J7579D01*
G01*
X106595Y28839D02*
G03*
X110236Y25197I3642J0D01*
G01*
X136787Y23646D02*
G03*
X133043Y25197I-3744J-3744D01*
G01*
X57292Y28543D02*
G03*
X50221Y25614I0J-10000D01*
G01*
X92520Y28543D02*
G03*
X96358Y32382I0J3839D01*
G01*
X153543Y16732D02*
G03*
X152151Y20093I-4752J0D01*
G01*
X113189Y30906D02*
G03*
X118892Y28543I5703J5703D01*
G01*
X146630Y25614D02*
G03*
X139559Y28543I-7071J-7071D01*
G01*
X111713Y34470D02*
G03*
X113189Y30906I5041J0D01*
G01*
X141732Y17323D02*
G03*
X140758Y19675I-3327J0D01*
G01*
X104035Y17445D02*
G03*
X104331Y16732I1008J0D01*
G01*
X109153Y67421D02*
X110236Y68504D01*
X109153Y59252D02*
Y67421D01*
X93799Y46654D02*
Y59252D01*
X120866Y61024D02*
X127638D01*
X117520Y63976D02*
Y68898D01*
X66929Y59547D02*
Y63878D01*
X56371Y19757D02*
X58882Y22268D01*
X65953Y25197D02*
X91339D01*
X92520Y18701D02*
X98548Y24729D01*
X101476Y31800D02*
Y37205D01*
X98917Y32776D02*
Y37205D01*
X110236Y25197D02*
X133043D01*
X106595Y28839D02*
Y37205D01*
X140758Y19675D02*
X140758Y19675D01*
X136787Y23646D02*
X140758Y19675D01*
X57292Y28543D02*
X92520D01*
X43307Y18701D02*
X50221Y25614D01*
X96358Y32382D02*
Y37205D01*
X146630Y25614D02*
X152151Y20093D01*
X118892Y28543D02*
X139559D01*
X111713Y34470D02*
Y37205D01*
X104035Y17445D02*
Y37205D01*
X92520Y16732D02*
Y18701D01*
X43307Y16732D02*
Y18701D01*
X82480Y67323D02*
Y72835D01*
Y67323D02*
X85433D01*
X109153Y46654D02*
Y59252D01*
D17*
X140758Y19675D02*
D03*
D18*
X31299Y88091D02*
D03*
X27559D02*
D03*
X23819D02*
D03*
Y77264D02*
D03*
X27559D02*
D03*
X31299D02*
D03*
X63189Y59547D02*
D03*
X66929D02*
D03*
X70669D02*
D03*
Y70374D02*
D03*
X63189D02*
D03*
D19*
X38976Y37402D02*
D03*
D20*
X33071Y48031D02*
D03*
X44882D02*
D03*
D21*
X38976Y47244D02*
D03*
D22*
X15748Y86417D02*
D03*
Y78937D02*
D03*
X166929Y56890D02*
D03*
Y64370D02*
D03*
X55118Y78937D02*
D03*
Y86417D02*
D03*
X86614Y50591D02*
D03*
Y43110D02*
D03*
X164961Y95472D02*
D03*
Y102953D02*
D03*
X39370Y88386D02*
D03*
Y80905D02*
D03*
D23*
X44291Y65354D02*
D03*
X55709D02*
D03*
D24*
X24606Y94882D02*
D03*
Y113779D02*
D03*
D25*
X15157Y104331D02*
D03*
X34055D02*
D03*
D26*
X50591Y133071D02*
D03*
X44685D02*
D03*
X150591Y109055D02*
D03*
X156496D02*
D03*
X143898Y80315D02*
D03*
X137992D02*
D03*
X150591Y115748D02*
D03*
X156496D02*
D03*
X44685Y149606D02*
D03*
X50591D02*
D03*
X150591Y102362D02*
D03*
X156496D02*
D03*
X50591Y138583D02*
D03*
X44685D02*
D03*
X50591Y144095D02*
D03*
X44685D02*
D03*
X156496Y95669D02*
D03*
X150591D02*
D03*
X82480Y67323D02*
D03*
X76575D02*
D03*
X82480Y72835D02*
D03*
X76575D02*
D03*
X88386Y37795D02*
D03*
X82480D02*
D03*
X70276Y77165D02*
D03*
X64370D02*
D03*
X74606Y51575D02*
D03*
X80512D02*
D03*
X27756Y71260D02*
D03*
X33661D02*
D03*
D27*
X117126Y68898D02*
D03*
X109646D02*
D03*
X38780Y64567D02*
D03*
X31299D02*
D03*
X51378Y56693D02*
D03*
X43898D02*
D03*
X40354Y118110D02*
D03*
X47835D02*
D03*
X31299Y56693D02*
D03*
X38780D02*
D03*
X50197Y125984D02*
D03*
X42717D02*
D03*
D28*
X106595Y37205D02*
D03*
X106595Y59252D02*
D03*
X109153D02*
D03*
X111713D02*
D03*
X104035D02*
D03*
X96358D02*
D03*
X101476D02*
D03*
X98917D02*
D03*
X93799Y37205D02*
D03*
X96358D02*
D03*
X98917D02*
D03*
X104035D02*
D03*
X101476D02*
D03*
X93799Y59252D02*
D03*
X109153Y37205D02*
D03*
X111713D02*
D03*
D29*
X181890Y35748D02*
D03*
Y55748D02*
D03*
Y65748D02*
D03*
Y118740D02*
D03*
Y108740D02*
D03*
Y78740D02*
D03*
D30*
X165354Y16732D02*
D03*
X129921D02*
D03*
X141732D02*
D03*
X153543D02*
D03*
X116142Y16732D02*
D03*
X92520D02*
D03*
X104331D02*
D03*
X80709D02*
D03*
X66929D02*
D03*
X43307D02*
D03*
X55118D02*
D03*
X31496D02*
D03*
D31*
X77165Y37205D02*
D03*
Y43110D02*
D03*
X164567Y108465D02*
D03*
Y114370D02*
D03*
X88189Y62402D02*
D03*
Y56496D02*
D03*
X82677D02*
D03*
Y62402D02*
D03*
X77165D02*
D03*
Y56496D02*
D03*
X50197Y93898D02*
D03*
Y99803D02*
D03*
Y110039D02*
D03*
Y104134D02*
D03*
D32*
X22047Y51181D02*
D03*
Y37402D02*
D03*
D33*
X38583Y139567D02*
D03*
Y155709D02*
D03*
X32283D02*
D03*
Y139567D02*
D03*
X158268Y155709D02*
D03*
Y139567D02*
D03*
X164567D02*
D03*
Y155709D02*
D03*
D34*
X118806Y86288D02*
D03*
X110805D02*
D03*
X103006D02*
D03*
X95006D02*
D03*
X87205D02*
D03*
X79405D02*
D03*
D35*
X68405Y94488D02*
D03*
Y102362D02*
D03*
Y110236D02*
D03*
Y118110D02*
D03*
Y125984D02*
D03*
Y133858D02*
D03*
Y141732D02*
D03*
Y149606D02*
D03*
X128445D02*
D03*
Y141732D02*
D03*
Y133858D02*
D03*
Y125984D02*
D03*
Y118110D02*
D03*
Y110236D02*
D03*
Y102362D02*
D03*
Y94488D02*
D03*
D36*
X149409Y129823D02*
D03*
Y127264D02*
D03*
Y124705D02*
D03*
Y122146D02*
D03*
X166339D02*
D03*
Y124705D02*
D03*
Y127264D02*
D03*
Y129823D02*
D03*
D37*
X17323Y71063D02*
D03*
Y59646D02*
D03*
X42323Y99606D02*
D03*
Y111024D02*
D03*
D38*
X13780Y127165D02*
X22165D01*
X13780Y120276D02*
X22165D01*
D39*
X56595Y94488D02*
X68405D01*
X17323Y59646D02*
X19291D01*
Y51181D02*
Y59646D01*
D40*
X22047Y51181D02*
X31299D01*
Y56693D01*
D41*
X1342520Y-110236D02*
Y-102365D01*
X1346455D01*
X1347767Y-103677D01*
Y-106300D01*
X1346455Y-107612D01*
X1342520D01*
X1345144D02*
X1347767Y-110236D01*
X1354327D02*
X1351703D01*
X1350391Y-108924D01*
Y-106300D01*
X1351703Y-104989D01*
X1354327D01*
X1355639Y-106300D01*
Y-107612D01*
X1350391D01*
X1358263Y-104989D02*
X1360886Y-110236D01*
X1363510Y-104989D01*
X988189Y-141735D02*
Y-149606D01*
X992125D01*
X993437Y-148294D01*
Y-143047D01*
X992125Y-141735D01*
X988189D01*
X999996Y-149606D02*
X997372D01*
X996060Y-148294D01*
Y-145671D01*
X997372Y-144359D01*
X999996D01*
X1001308Y-145671D01*
Y-146983D01*
X996060D01*
X1003932Y-149606D02*
X1007868D01*
X1009180Y-148294D01*
X1007868Y-146983D01*
X1005244D01*
X1003932Y-145671D01*
X1005244Y-144359D01*
X1009180D01*
X1014427Y-152230D02*
X1015739D01*
X1017051Y-150918D01*
Y-144359D01*
X1013115D01*
X1011803Y-145671D01*
Y-148294D01*
X1013115Y-149606D01*
X1017051D01*
X1019675D02*
X1022299D01*
X1020987D01*
Y-144359D01*
X1019675D01*
X1026235Y-149606D02*
Y-144359D01*
X1030170D01*
X1031482Y-145671D01*
Y-149606D01*
X1038042D02*
X1035418D01*
X1034106Y-148294D01*
Y-145671D01*
X1035418Y-144359D01*
X1038042D01*
X1039354Y-145671D01*
Y-146983D01*
X1034106D01*
X1041977Y-144359D02*
Y-149606D01*
Y-146983D01*
X1043289Y-145671D01*
X1044601Y-144359D01*
X1045913D01*
X1185039Y-23625D02*
Y-31496D01*
X1188975D01*
X1190287Y-30184D01*
Y-24937D01*
X1188975Y-23625D01*
X1185039D01*
X1194223Y-31496D02*
X1196847D01*
X1198158Y-30184D01*
Y-27560D01*
X1196847Y-26248D01*
X1194223D01*
X1192911Y-27560D01*
Y-30184D01*
X1194223Y-31496D01*
X1206030Y-26248D02*
X1202094D01*
X1200782Y-27560D01*
Y-30184D01*
X1202094Y-31496D01*
X1206030D01*
X1208654Y-26248D02*
Y-30184D01*
X1209966Y-31496D01*
X1213902D01*
Y-26248D01*
X1216525Y-31496D02*
Y-26248D01*
X1217837D01*
X1219149Y-27560D01*
Y-31496D01*
Y-27560D01*
X1220461Y-26248D01*
X1221773Y-27560D01*
Y-31496D01*
X1228333D02*
X1225709D01*
X1224397Y-30184D01*
Y-27560D01*
X1225709Y-26248D01*
X1228333D01*
X1229644Y-27560D01*
Y-28872D01*
X1224397D01*
X1232268Y-31496D02*
Y-26248D01*
X1236204D01*
X1237516Y-27560D01*
Y-31496D01*
X1241452Y-24937D02*
Y-26248D01*
X1240140D01*
X1242764D01*
X1241452D01*
Y-30184D01*
X1242764Y-31496D01*
X1185039Y-62995D02*
Y-70866D01*
X1190287D01*
X1194223Y-65618D02*
X1196847D01*
X1198158Y-66930D01*
Y-70866D01*
X1194223D01*
X1192911Y-69554D01*
X1194223Y-68242D01*
X1198158D01*
X1200782Y-65618D02*
Y-69554D01*
X1202094Y-70866D01*
X1206030D01*
Y-72178D01*
X1204718Y-73490D01*
X1203406D01*
X1206030Y-70866D02*
Y-65618D01*
X1212590Y-70866D02*
X1209966D01*
X1208654Y-69554D01*
Y-66930D01*
X1209966Y-65618D01*
X1212590D01*
X1213902Y-66930D01*
Y-68242D01*
X1208654D01*
X1216525Y-65618D02*
Y-70866D01*
Y-68242D01*
X1217837Y-66930D01*
X1219149Y-65618D01*
X1220461D01*
X1232268Y-70866D02*
Y-62995D01*
X1237516Y-70866D01*
Y-62995D01*
X1241452Y-65618D02*
X1244075D01*
X1245387Y-66930D01*
Y-70866D01*
X1241452D01*
X1240140Y-69554D01*
X1241452Y-68242D01*
X1245387D01*
X1248011Y-70866D02*
Y-65618D01*
X1249323D01*
X1250635Y-66930D01*
Y-70866D01*
Y-66930D01*
X1251947Y-65618D01*
X1253259Y-66930D01*
Y-70866D01*
X1259818D02*
X1257195D01*
X1255883Y-69554D01*
Y-66930D01*
X1257195Y-65618D01*
X1259818D01*
X1261130Y-66930D01*
Y-68242D01*
X1255883D01*
X1185039Y-102365D02*
Y-110236D01*
X1188975D01*
X1190287Y-108924D01*
Y-103677D01*
X1188975Y-102365D01*
X1185039D01*
X1194223Y-104989D02*
X1196847D01*
X1198158Y-106300D01*
Y-110236D01*
X1194223D01*
X1192911Y-108924D01*
X1194223Y-107612D01*
X1198158D01*
X1202094Y-103677D02*
Y-104989D01*
X1200782D01*
X1203406D01*
X1202094D01*
Y-108924D01*
X1203406Y-110236D01*
X1211278D02*
X1208654D01*
X1207342Y-108924D01*
Y-106300D01*
X1208654Y-104989D01*
X1211278D01*
X1212589Y-106300D01*
Y-107612D01*
X1207342D01*
X1185039Y-141735D02*
Y-149606D01*
X1188975D01*
X1190287Y-148294D01*
Y-143047D01*
X1188975Y-141735D01*
X1185039D01*
X1194223Y-149606D02*
X1196847D01*
X1198158Y-148294D01*
Y-145671D01*
X1196847Y-144359D01*
X1194223D01*
X1192911Y-145671D01*
Y-148294D01*
X1194223Y-149606D01*
X1206030Y-144359D02*
X1202094D01*
X1200782Y-145671D01*
Y-148294D01*
X1202094Y-149606D01*
X1206030D01*
X1208654Y-144359D02*
Y-148294D01*
X1209966Y-149606D01*
X1213902D01*
Y-144359D01*
X1216525Y-149606D02*
Y-144359D01*
X1217837D01*
X1219149Y-145671D01*
Y-149606D01*
Y-145671D01*
X1220461Y-144359D01*
X1221773Y-145671D01*
Y-149606D01*
X1228333D02*
X1225709D01*
X1224397Y-148294D01*
Y-145671D01*
X1225709Y-144359D01*
X1228333D01*
X1229644Y-145671D01*
Y-146983D01*
X1224397D01*
X1232268Y-149606D02*
Y-144359D01*
X1236204D01*
X1237516Y-145671D01*
Y-149606D01*
X1241452Y-143047D02*
Y-144359D01*
X1240140D01*
X1242764D01*
X1241452D01*
Y-148294D01*
X1242764Y-149606D01*
D42*
X79405Y78414D02*
D03*
X87205D02*
D03*
X95006D02*
D03*
X103006D02*
D03*
X110805D02*
D03*
X118806D02*
D03*
X56595Y94488D02*
D03*
X56595Y102362D02*
D03*
Y110236D02*
D03*
Y118110D02*
D03*
Y125984D02*
D03*
X56595Y133858D02*
D03*
X56595Y141732D02*
D03*
X56595Y149606D02*
D03*
X140256D02*
D03*
Y141732D02*
D03*
Y133858D02*
D03*
Y125984D02*
D03*
Y118110D02*
D03*
Y110236D02*
D03*
Y102362D02*
D03*
Y94488D02*
D03*
X22165Y127165D02*
D03*
X32165D02*
D03*
D43*
X147795Y41181D02*
D03*
D44*
Y61181D02*
D03*
X127795D02*
D03*
D45*
X64213Y10827D02*
D03*
X132638Y10827D02*
D03*
X162638D02*
D03*
X83425Y10827D02*
D03*
X113425D02*
D03*
X34213D02*
D03*
D46*
X19094Y49291D02*
D03*
Y39291D02*
D03*
D47*
X142638Y10827D02*
D03*
X152638D02*
D03*
X93425Y10827D02*
D03*
X103425D02*
D03*
X181890Y35748D02*
D03*
Y45748D02*
D03*
Y55748D02*
D03*
X54213Y10827D02*
D03*
X44213D02*
D03*
X181890Y88740D02*
D03*
Y98740D02*
D03*
Y108740D02*
D03*
Y118740D02*
D03*
Y128740D02*
D03*
D48*
Y65748D02*
D03*
Y78740D02*
D03*
D49*
X11811Y149606D02*
D03*
Y11811D02*
D03*
X185039D02*
D03*
Y149606D02*
D03*
D50*
X65354Y46260D02*
D03*
Y38780D02*
D03*
D51*
X13780Y120276D02*
D03*
X160827Y56890D02*
D03*
X42520Y103150D02*
D03*
X44488Y96063D02*
D03*
X50000Y90551D02*
D03*
X88583Y33071D02*
D03*
X80709Y31496D02*
D03*
X35827Y56693D02*
D03*
X38976Y42913D02*
D03*
X33071Y33465D02*
D03*
X44882Y40551D02*
D03*
X55905Y54724D02*
D03*
Y58661D02*
D03*
Y71260D02*
D03*
X53150Y75197D02*
D03*
X57087D02*
D03*
X23228Y70866D02*
D03*
X51575Y119291D02*
D03*
Y114567D02*
D03*
X40945Y149606D02*
D03*
X161221Y129823D02*
D03*
X146063Y118110D02*
D03*
X169291Y84646D02*
D03*
X34252Y85827D02*
D03*
Y89370D02*
D03*
X19685Y89961D02*
D03*
X13780Y89961D02*
D03*
X47244Y82480D02*
D03*
X31693Y82480D02*
D03*
X66929Y63878D02*
D03*
X136319Y86614D02*
D03*
X92028Y68898D02*
D03*
X87598Y72835D02*
D03*
X96457Y70866D02*
D03*
X156299Y91732D02*
D03*
X164961D02*
D03*
X32283Y147638D02*
D03*
X164567D02*
D03*
X109941Y29626D02*
D03*
X85433Y67323D02*
D03*
X70472Y52756D02*
D03*
X81496Y42913D02*
D03*
X158268Y147638D02*
D03*
X19291Y75197D02*
D03*
M02*
