M48
;Layer_Color=9474304
;FILE_FORMAT=2:5
INCH,LZ
;TYPE=PLATED
T1F00S00C0.01181
T2F00S00C0.02362
T3F00S00C0.02953
T4F00S00C0.03150
T5F00S00C0.03543
T6F00S00C0.03740
T7F00S00C0.03937
;TYPE=NON_PLATED
T8F00S00C0.12598
%
T01
X0160827Y005689
X0169291Y0084646
X0164961Y0091732
X0156299
X0136319Y0086614
X0146063Y011811
X0161221Y0129823
X0158268Y0147638
X0164567
X0040945Y0149606
X0032283Y0147638
X001378Y0120276
Y0089961
X0019685Y0089961
X0019291Y0075197
X0023228Y0070866
X0031693Y008248
X0034252Y0085827
Y008937
X0044488Y0096063
X004252Y010315
X005Y0090551
X0047244Y008248
X005315Y0075197
X0057087
X0055905Y007126
Y0058661
Y0054724
X0070472Y0052756
X0066929Y0063878
X0085433Y0067323
X0087598Y0072835
X0092028Y0068898
X0096457Y0070866
X0081496Y0042913
X0080709Y0031496
X0088583Y0033071
X0109941Y0029626
X0044882Y0040551
X0038976Y0042913
X0033071Y0033465
X0035827Y0056693
X0051575Y0114567
Y0119291
T02
X0065354Y003878
Y004626
T03
X0147795Y0041181
Y0061181
X0127795
T04
X0142638Y0010827
X0152638
X0162638
X0132638
X0113425Y0010827
X0103425
X0093425
X0083425
X0064213
X0054213
X0044213
X0034213
X0032165Y0127165
X0022165
T05
X018189Y0035748
Y0045748
Y0055748
Y0065748
Y007874
Y008874
Y009874
Y010874
Y011874
Y012874
T06
X0140256Y0094488
Y0102362
Y0110236
Y011811
Y0125984
Y0133858
Y0141732
Y0149606
X0056595
X0056595Y0141732
X0056595Y0133858
X0056595Y0125984
Y011811
Y0110236
Y0102362
X0056595Y0094488
X0079405Y0078414
X0087205
X0095006
X0103006
X0110805
X0118806
T07
X0019094Y0039291
Y0049291
T08
X0185039Y0011811
Y0149606
X0011811
Y0011811
M30
