G04 Layer_Color=16711935*
%FSLAX25Y25*%
%MOIN*%
G70*
G01*
G75*
%ADD10C,0.00787*%
%ADD14C,0.01575*%
%ADD40C,0.02756*%
%ADD41C,0.00984*%
%ADD78C,0.05709*%
%ADD79R,0.06496X0.06496*%
%ADD80C,0.06496*%
G04:AMPARAMS|DCode=81|XSize=64.96mil|YSize=64.96mil|CornerRadius=17.72mil|HoleSize=0mil|Usage=FLASHONLY|Rotation=180.000|XOffset=0mil|YOffset=0mil|HoleType=Round|Shape=RoundedRectangle|*
%AMROUNDEDRECTD81*
21,1,0.06496,0.02953,0,0,180.0*
21,1,0.02953,0.06496,0,0,180.0*
1,1,0.03543,-0.01476,0.01476*
1,1,0.03543,0.01476,0.01476*
1,1,0.03543,0.01476,-0.01476*
1,1,0.03543,-0.01476,-0.01476*
%
%ADD81ROUNDEDRECTD81*%
G04:AMPARAMS|DCode=82|XSize=64.96mil|YSize=64.96mil|CornerRadius=17.72mil|HoleSize=0mil|Usage=FLASHONLY|Rotation=90.000|XOffset=0mil|YOffset=0mil|HoleType=Round|Shape=RoundedRectangle|*
%AMROUNDEDRECTD82*
21,1,0.06496,0.02953,0,0,90.0*
21,1,0.02953,0.06496,0,0,90.0*
1,1,0.03543,0.01476,0.01476*
1,1,0.03543,0.01476,-0.01476*
1,1,0.03543,-0.01476,-0.01476*
1,1,0.03543,-0.01476,0.01476*
%
%ADD82ROUNDEDRECTD82*%
%ADD83C,0.06496*%
%ADD84R,0.06496X0.06496*%
%ADD85C,0.22441*%
%ADD86C,0.04528*%
%ADD88C,0.03150*%
G36*
X193941Y23521D02*
X194899Y23124D01*
X195721Y22493D01*
X196352Y21670D01*
X196749Y20713D01*
X196850Y19943D01*
Y19685D01*
Y3937D01*
Y3679D01*
X196749Y2909D01*
X196352Y1952D01*
X195721Y1129D01*
X194899Y498D01*
X193941Y101D01*
X193171Y0D01*
X176907D01*
X176138Y101D01*
X175180Y498D01*
X174357Y1129D01*
X173726Y1952D01*
X173330Y2909D01*
X173228Y3679D01*
Y3937D01*
Y19685D01*
Y19943D01*
X173330Y20713D01*
X173726Y21670D01*
X174357Y22493D01*
X175180Y23124D01*
X176138Y23521D01*
X176907Y23622D01*
X193171D01*
X193941Y23521D01*
D02*
G37*
G36*
X20713Y161316D02*
X21670Y160919D01*
X22493Y160288D01*
X23124Y159466D01*
X23521Y158508D01*
X23622Y157738D01*
Y157480D01*
Y141732D01*
Y141474D01*
X23521Y140705D01*
X23124Y139747D01*
X22493Y138924D01*
X21670Y138293D01*
X20713Y137897D01*
X19943Y137795D01*
X3679D01*
X2909Y137897D01*
X1952Y138293D01*
X1129Y138924D01*
X498Y139747D01*
X101Y140705D01*
X0Y141474D01*
Y141732D01*
Y157480D01*
Y157738D01*
X101Y158508D01*
X498Y159466D01*
X1129Y160288D01*
X1952Y160919D01*
X2909Y161316D01*
X3679Y161417D01*
X19943D01*
X20713Y161316D01*
D02*
G37*
G36*
X193941D02*
X194899Y160919D01*
X195721Y160288D01*
X196352Y159466D01*
X196749Y158508D01*
X196850Y157738D01*
Y157480D01*
Y141732D01*
Y141474D01*
X196749Y140705D01*
X196352Y139747D01*
X195721Y138924D01*
X194899Y138293D01*
X193941Y137897D01*
X193171Y137795D01*
X176907D01*
X176138Y137897D01*
X175180Y138293D01*
X174357Y138924D01*
X173726Y139747D01*
X173330Y140705D01*
X173228Y141474D01*
Y141732D01*
Y157480D01*
Y157738D01*
X173330Y158508D01*
X173726Y159466D01*
X174357Y160288D01*
X175180Y160919D01*
X176138Y161316D01*
X176907Y161417D01*
X193171D01*
X193941Y161316D01*
D02*
G37*
G36*
X20713Y23521D02*
X21670Y23124D01*
X22493Y22493D01*
X23124Y21670D01*
X23521Y20713D01*
X23622Y19943D01*
Y19685D01*
Y3937D01*
Y3679D01*
X23521Y2909D01*
X23124Y1952D01*
X22493Y1129D01*
X21670Y498D01*
X20713Y101D01*
X19943Y0D01*
X3679D01*
X2909Y101D01*
X1952Y498D01*
X1129Y1129D01*
X498Y1952D01*
X101Y2909D01*
X0Y3679D01*
Y3937D01*
Y19685D01*
Y19943D01*
X101Y20713D01*
X498Y21670D01*
X1129Y22493D01*
X1952Y23124D01*
X2909Y23521D01*
X3679Y23622D01*
X19943D01*
X20713Y23521D01*
D02*
G37*
G36*
X170987Y181176D02*
X171239D01*
Y180925D01*
X170987D01*
Y180674D01*
Y180423D01*
Y180172D01*
Y179921D01*
Y179669D01*
Y179418D01*
X171239D01*
Y179167D01*
X173248D01*
Y178916D01*
Y178665D01*
Y178414D01*
Y178163D01*
Y177911D01*
Y177660D01*
Y177409D01*
Y177158D01*
Y176907D01*
Y176656D01*
Y176405D01*
Y176154D01*
Y175902D01*
Y175651D01*
Y175400D01*
Y175149D01*
Y174898D01*
Y174647D01*
Y174396D01*
Y174144D01*
Y173893D01*
Y173642D01*
Y173391D01*
Y173140D01*
Y172889D01*
Y172637D01*
Y172386D01*
Y172135D01*
Y171884D01*
Y171633D01*
Y171382D01*
Y171131D01*
Y170879D01*
Y170628D01*
Y170377D01*
Y170126D01*
Y169875D01*
Y169624D01*
Y169373D01*
Y169122D01*
Y168870D01*
Y168619D01*
Y168368D01*
Y168117D01*
Y167866D01*
Y167615D01*
Y167364D01*
Y167112D01*
Y166861D01*
Y166610D01*
Y166359D01*
Y166108D01*
Y165857D01*
Y165605D01*
Y165354D01*
Y165103D01*
Y164852D01*
Y164601D01*
Y164350D01*
Y164099D01*
Y163847D01*
X171239D01*
Y163596D01*
X170987D01*
Y163345D01*
Y163094D01*
Y162843D01*
Y162592D01*
Y162341D01*
Y162090D01*
X171239D01*
Y161838D01*
X163453D01*
Y162090D01*
Y162341D01*
Y162592D01*
Y162843D01*
Y163094D01*
Y163345D01*
Y163596D01*
Y163847D01*
X161193D01*
Y163596D01*
Y163345D01*
Y163094D01*
Y162843D01*
Y162592D01*
Y162341D01*
Y162090D01*
Y161838D01*
X145622D01*
Y162090D01*
Y162341D01*
Y162592D01*
Y162843D01*
Y163094D01*
Y163345D01*
Y163596D01*
Y163847D01*
X143362D01*
Y163596D01*
Y163345D01*
Y163094D01*
Y162843D01*
Y162592D01*
Y162341D01*
Y162090D01*
Y161838D01*
X109708D01*
Y162090D01*
Y162341D01*
Y162592D01*
Y162843D01*
Y163094D01*
Y163345D01*
Y163596D01*
Y163847D01*
X107448D01*
Y163596D01*
X107197D01*
Y163345D01*
Y163094D01*
Y162843D01*
Y162592D01*
Y162341D01*
Y162090D01*
Y161838D01*
X99663D01*
Y162090D01*
Y162341D01*
Y162592D01*
Y162843D01*
Y163094D01*
Y163345D01*
Y163596D01*
Y163847D01*
Y164099D01*
Y164350D01*
Y164601D01*
Y164852D01*
Y165103D01*
Y165354D01*
Y165605D01*
Y165857D01*
Y166108D01*
Y166359D01*
Y166610D01*
Y166861D01*
Y167112D01*
Y167364D01*
Y167615D01*
Y167866D01*
Y168117D01*
Y168368D01*
Y168619D01*
Y168870D01*
Y169122D01*
Y169373D01*
Y169624D01*
Y169875D01*
Y170126D01*
Y170377D01*
Y170628D01*
Y170879D01*
Y171131D01*
Y171382D01*
Y171633D01*
Y171884D01*
Y172135D01*
Y172386D01*
Y172637D01*
Y172889D01*
Y173140D01*
Y173391D01*
Y173642D01*
Y173893D01*
Y174144D01*
Y174396D01*
Y174647D01*
Y174898D01*
Y175149D01*
Y175400D01*
Y175651D01*
Y175902D01*
Y176154D01*
Y176405D01*
Y176656D01*
Y176907D01*
Y177158D01*
Y177409D01*
X101672D01*
Y177660D01*
Y177911D01*
Y178163D01*
Y178414D01*
Y178665D01*
Y178916D01*
Y179167D01*
X103681D01*
Y179418D01*
Y179669D01*
Y179921D01*
Y180172D01*
Y180423D01*
Y180674D01*
Y180925D01*
Y181176D01*
Y181428D01*
X117243D01*
Y181176D01*
Y180925D01*
Y180674D01*
Y180423D01*
Y180172D01*
Y179921D01*
Y179669D01*
Y179418D01*
Y179167D01*
X117745D01*
Y179418D01*
X119252D01*
Y179167D01*
X119754D01*
Y179418D01*
Y179669D01*
Y179921D01*
Y180172D01*
Y180423D01*
Y180674D01*
Y180925D01*
Y181176D01*
Y181428D01*
X137334D01*
Y181176D01*
Y180925D01*
Y180674D01*
Y180423D01*
Y180172D01*
Y179921D01*
Y179669D01*
Y179418D01*
Y179167D01*
X139594D01*
Y179418D01*
Y179669D01*
Y179921D01*
Y180172D01*
Y180423D01*
Y180674D01*
Y180925D01*
Y181176D01*
Y181428D01*
X155165D01*
Y181176D01*
Y180925D01*
Y180674D01*
Y180423D01*
Y180172D01*
Y179921D01*
Y179669D01*
Y179418D01*
Y179167D01*
X157426D01*
Y179418D01*
Y179669D01*
Y179921D01*
Y180172D01*
Y180423D01*
Y180674D01*
Y180925D01*
Y181176D01*
Y181428D01*
X170987D01*
Y181176D01*
D02*
G37*
G36*
X93635D02*
Y180925D01*
Y180674D01*
Y180423D01*
Y180172D01*
Y179921D01*
Y179669D01*
Y179418D01*
Y179167D01*
X95644D01*
Y178916D01*
Y178665D01*
Y178414D01*
Y178163D01*
Y177911D01*
Y177660D01*
Y177409D01*
Y177158D01*
Y176907D01*
Y176656D01*
Y176405D01*
Y176154D01*
Y175902D01*
Y175651D01*
Y175400D01*
Y175149D01*
Y174898D01*
Y174647D01*
Y174396D01*
Y174144D01*
Y173893D01*
Y173642D01*
X93635D01*
Y173391D01*
Y173140D01*
Y172889D01*
Y172637D01*
Y172386D01*
Y172135D01*
Y171884D01*
Y171633D01*
Y171382D01*
X95644D01*
Y171131D01*
Y170879D01*
Y170628D01*
Y170377D01*
Y170126D01*
Y169875D01*
Y169624D01*
Y169373D01*
Y169122D01*
Y168870D01*
Y168619D01*
Y168368D01*
Y168117D01*
Y167866D01*
Y167615D01*
Y167364D01*
Y167112D01*
Y166861D01*
Y166610D01*
Y166359D01*
Y166108D01*
Y165857D01*
Y165605D01*
X93635D01*
Y165354D01*
Y165103D01*
Y164852D01*
Y164601D01*
Y164350D01*
Y164099D01*
Y163847D01*
Y163596D01*
X93384D01*
Y163847D01*
X91626D01*
Y163596D01*
Y163345D01*
Y163094D01*
Y162843D01*
Y162592D01*
Y162341D01*
Y162090D01*
Y161838D01*
X77813D01*
Y162090D01*
X78064D01*
Y162341D01*
Y162592D01*
Y162843D01*
Y163094D01*
Y163345D01*
Y163596D01*
X77813D01*
Y163847D01*
X73795D01*
Y163596D01*
X73544D01*
Y163345D01*
Y163094D01*
Y162843D01*
Y162592D01*
Y162341D01*
Y162090D01*
Y161838D01*
X59982D01*
Y162090D01*
Y162341D01*
Y162592D01*
Y162843D01*
Y163094D01*
Y163345D01*
Y163596D01*
Y163847D01*
X55713D01*
Y163596D01*
X55462D01*
Y163345D01*
Y163094D01*
Y162843D01*
Y162592D01*
Y162341D01*
Y162090D01*
Y161838D01*
X41900D01*
Y162090D01*
Y162341D01*
Y162592D01*
Y162843D01*
Y163094D01*
Y163345D01*
Y163596D01*
X39639D01*
Y163345D01*
Y163094D01*
Y162843D01*
Y162592D01*
Y162341D01*
Y162090D01*
Y161838D01*
X24069D01*
Y162090D01*
Y162341D01*
Y162592D01*
Y162843D01*
Y163094D01*
Y163345D01*
Y163596D01*
Y163847D01*
Y164099D01*
Y164350D01*
Y164601D01*
Y164852D01*
Y165103D01*
Y165354D01*
Y165605D01*
Y165857D01*
Y166108D01*
Y166359D01*
Y166610D01*
Y166861D01*
Y167112D01*
Y167364D01*
X26078D01*
Y167615D01*
Y167866D01*
Y168117D01*
Y168368D01*
Y168619D01*
Y168870D01*
Y169122D01*
Y169373D01*
X28087D01*
Y169624D01*
Y169875D01*
Y170126D01*
Y170377D01*
Y170628D01*
Y170879D01*
Y171131D01*
Y171382D01*
Y171633D01*
Y171884D01*
Y172135D01*
Y172386D01*
Y172637D01*
Y172889D01*
Y173140D01*
Y173391D01*
Y173642D01*
Y173893D01*
Y174144D01*
Y174396D01*
Y174647D01*
Y174898D01*
Y175149D01*
Y175400D01*
Y175651D01*
Y175902D01*
Y176154D01*
Y176405D01*
Y176656D01*
Y176907D01*
Y177158D01*
Y177409D01*
Y177660D01*
Y177911D01*
Y178163D01*
Y178414D01*
Y178665D01*
Y178916D01*
Y179167D01*
X29845D01*
Y179418D01*
X30096D01*
Y179669D01*
Y179921D01*
Y180172D01*
Y180423D01*
Y180674D01*
Y180925D01*
Y181176D01*
Y181428D01*
X37630D01*
Y181176D01*
Y180925D01*
Y180674D01*
Y180423D01*
Y180172D01*
Y179921D01*
Y179669D01*
Y179418D01*
Y179167D01*
X39639D01*
Y178916D01*
Y178665D01*
Y178414D01*
Y178163D01*
Y177911D01*
Y177660D01*
Y177409D01*
Y177158D01*
X39891D01*
Y177409D01*
X41900D01*
Y177660D01*
Y177911D01*
Y178163D01*
Y178414D01*
Y178665D01*
Y178916D01*
Y179167D01*
X43909D01*
Y179418D01*
Y179669D01*
Y179921D01*
Y180172D01*
Y180423D01*
Y180674D01*
Y180925D01*
Y181176D01*
Y181428D01*
X57471D01*
Y181176D01*
Y180925D01*
Y180674D01*
Y180423D01*
Y180172D01*
Y179921D01*
Y179669D01*
Y179418D01*
X57722D01*
Y179167D01*
X61991D01*
Y179418D01*
Y179669D01*
Y179921D01*
Y180172D01*
Y180423D01*
Y180674D01*
Y180925D01*
Y181176D01*
Y181428D01*
X75553D01*
Y181176D01*
Y180925D01*
Y180674D01*
Y180423D01*
Y180172D01*
Y179921D01*
Y179669D01*
Y179418D01*
X75804D01*
Y179167D01*
X79822D01*
Y179418D01*
X80073D01*
Y179669D01*
Y179921D01*
Y180172D01*
Y180423D01*
Y180674D01*
Y180925D01*
X79822D01*
Y181176D01*
X80073D01*
Y181428D01*
X93635D01*
Y181176D01*
D02*
G37*
%LPC*%
G36*
X153407Y179669D02*
X141352D01*
Y179418D01*
Y179167D01*
Y178916D01*
Y178665D01*
Y178414D01*
Y178163D01*
Y177911D01*
Y177660D01*
X139343D01*
Y177409D01*
Y177158D01*
Y176907D01*
Y176656D01*
Y176405D01*
Y176154D01*
Y175902D01*
Y175651D01*
Y175400D01*
Y175149D01*
Y174898D01*
Y174647D01*
Y174396D01*
Y174144D01*
Y173893D01*
Y173642D01*
Y173391D01*
X141352D01*
Y173140D01*
Y172889D01*
Y172637D01*
Y172386D01*
Y172135D01*
Y171884D01*
Y171633D01*
X139092D01*
Y171382D01*
X139343D01*
Y171131D01*
Y170879D01*
Y170628D01*
Y170377D01*
Y170126D01*
Y169875D01*
Y169624D01*
Y169373D01*
Y169122D01*
Y168870D01*
Y168619D01*
Y168368D01*
Y168117D01*
Y167866D01*
Y167615D01*
Y167364D01*
Y167112D01*
Y166861D01*
Y166610D01*
Y166359D01*
Y166108D01*
Y165857D01*
Y165605D01*
Y165354D01*
X143613D01*
Y165605D01*
Y165857D01*
Y166108D01*
Y166359D01*
Y166610D01*
Y166861D01*
Y167112D01*
Y167364D01*
Y167615D01*
Y167866D01*
Y168117D01*
Y168368D01*
Y168619D01*
Y168870D01*
Y169122D01*
Y169373D01*
Y169624D01*
Y169875D01*
Y170126D01*
Y170377D01*
Y170628D01*
Y170879D01*
Y171131D01*
Y171382D01*
X149138D01*
Y171131D01*
Y170879D01*
Y170628D01*
Y170377D01*
Y170126D01*
Y169875D01*
Y169624D01*
Y169373D01*
Y169122D01*
Y168870D01*
Y168619D01*
Y168368D01*
Y168117D01*
Y167866D01*
Y167615D01*
Y167364D01*
Y167112D01*
Y166861D01*
Y166610D01*
Y166359D01*
Y166108D01*
Y165857D01*
Y165605D01*
Y165354D01*
X153407D01*
Y165605D01*
Y165857D01*
Y166108D01*
Y166359D01*
Y166610D01*
Y166861D01*
Y167112D01*
Y167364D01*
Y167615D01*
Y167866D01*
Y168117D01*
Y168368D01*
Y168619D01*
Y168870D01*
Y169122D01*
Y169373D01*
Y169624D01*
Y169875D01*
Y170126D01*
Y170377D01*
Y170628D01*
Y170879D01*
Y171131D01*
Y171382D01*
Y171633D01*
Y171884D01*
Y172135D01*
Y172386D01*
Y172637D01*
Y172889D01*
Y173140D01*
Y173391D01*
Y173642D01*
Y173893D01*
Y174144D01*
Y174396D01*
Y174647D01*
Y174898D01*
Y175149D01*
Y175400D01*
Y175651D01*
Y175902D01*
Y176154D01*
Y176405D01*
Y176656D01*
Y176907D01*
Y177158D01*
Y177409D01*
Y177660D01*
Y177911D01*
Y178163D01*
Y178414D01*
Y178665D01*
Y178916D01*
Y179167D01*
Y179418D01*
Y179669D01*
D02*
G37*
G36*
X169481D02*
X159184D01*
Y179418D01*
Y179167D01*
Y178916D01*
Y178665D01*
Y178414D01*
Y178163D01*
Y177911D01*
Y177660D01*
X157175D01*
Y177409D01*
Y177158D01*
Y176907D01*
Y176656D01*
Y176405D01*
Y176154D01*
Y175902D01*
Y175651D01*
Y175400D01*
Y175149D01*
Y174898D01*
Y174647D01*
Y174396D01*
Y174144D01*
Y173893D01*
Y173642D01*
Y173391D01*
Y173140D01*
Y172889D01*
Y172637D01*
Y172386D01*
Y172135D01*
Y171884D01*
Y171633D01*
Y171382D01*
Y171131D01*
Y170879D01*
Y170628D01*
Y170377D01*
Y170126D01*
Y169875D01*
Y169624D01*
Y169373D01*
Y169122D01*
Y168870D01*
Y168619D01*
Y168368D01*
Y168117D01*
Y167866D01*
Y167615D01*
Y167364D01*
Y167112D01*
Y166861D01*
Y166610D01*
Y166359D01*
Y166108D01*
Y165857D01*
Y165605D01*
Y165354D01*
X161444D01*
Y165605D01*
Y165857D01*
Y166108D01*
Y166359D01*
Y166610D01*
Y166861D01*
Y167112D01*
Y167364D01*
Y167615D01*
Y167866D01*
Y168117D01*
Y168368D01*
Y168619D01*
Y168870D01*
Y169122D01*
Y169373D01*
X167220D01*
Y169122D01*
Y168870D01*
X166969D01*
Y168619D01*
Y168368D01*
Y168117D01*
Y167866D01*
Y167615D01*
Y167364D01*
Y167112D01*
Y166861D01*
Y166610D01*
Y166359D01*
Y166108D01*
Y165857D01*
Y165605D01*
X167220D01*
Y165354D01*
X171490D01*
Y165605D01*
Y165857D01*
Y166108D01*
Y166359D01*
Y166610D01*
Y166861D01*
Y167112D01*
Y167364D01*
Y167615D01*
Y167866D01*
Y168117D01*
Y168368D01*
Y168619D01*
Y168870D01*
Y169122D01*
Y169373D01*
Y169624D01*
Y169875D01*
Y170126D01*
Y170377D01*
Y170628D01*
Y170879D01*
Y171131D01*
Y171382D01*
Y171633D01*
Y171884D01*
Y172135D01*
Y172386D01*
Y172637D01*
Y172889D01*
Y173140D01*
Y173391D01*
Y173642D01*
Y173893D01*
Y174144D01*
Y174396D01*
Y174647D01*
Y174898D01*
Y175149D01*
Y175400D01*
Y175651D01*
Y175902D01*
Y176154D01*
Y176405D01*
Y176656D01*
Y176907D01*
Y177158D01*
Y177409D01*
Y177660D01*
X169481D01*
Y177911D01*
Y178163D01*
Y178414D01*
Y178665D01*
Y178916D01*
Y179167D01*
Y179418D01*
Y179669D01*
D02*
G37*
G36*
X115485D02*
X105188D01*
Y179418D01*
Y179167D01*
Y178916D01*
Y178665D01*
Y178414D01*
Y178163D01*
Y177911D01*
X105439D01*
Y177660D01*
X103430D01*
Y177409D01*
X103179D01*
Y177158D01*
Y176907D01*
Y176656D01*
Y176405D01*
Y176154D01*
Y175902D01*
Y175651D01*
Y175400D01*
Y175149D01*
Y174898D01*
Y174647D01*
Y174396D01*
Y174144D01*
Y173893D01*
Y173642D01*
Y173391D01*
Y173140D01*
Y172889D01*
Y172637D01*
Y172386D01*
Y172135D01*
Y171884D01*
Y171633D01*
Y171382D01*
Y171131D01*
Y170879D01*
Y170628D01*
Y170377D01*
Y170126D01*
Y169875D01*
Y169624D01*
Y169373D01*
Y169122D01*
Y168870D01*
Y168619D01*
Y168368D01*
Y168117D01*
Y167866D01*
Y167615D01*
Y167364D01*
Y167112D01*
Y166861D01*
Y166610D01*
Y166359D01*
Y166108D01*
Y165857D01*
Y165605D01*
Y165354D01*
X107699D01*
Y165605D01*
Y165857D01*
Y166108D01*
Y166359D01*
Y166610D01*
Y166861D01*
Y167112D01*
Y167364D01*
Y167615D01*
Y167866D01*
Y168117D01*
Y168368D01*
Y168619D01*
Y168870D01*
Y169122D01*
Y169373D01*
X113224D01*
Y169122D01*
Y168870D01*
Y168619D01*
Y168368D01*
Y168117D01*
Y167866D01*
Y167615D01*
Y167364D01*
Y167112D01*
Y166861D01*
Y166610D01*
Y166359D01*
Y166108D01*
Y165857D01*
Y165605D01*
Y165354D01*
X117494D01*
Y165605D01*
Y165857D01*
Y166108D01*
Y166359D01*
Y166610D01*
Y166861D01*
Y167112D01*
Y167364D01*
Y167615D01*
Y167866D01*
Y168117D01*
Y168368D01*
Y168619D01*
Y168870D01*
Y169122D01*
Y169373D01*
Y169624D01*
Y169875D01*
Y170126D01*
Y170377D01*
Y170628D01*
Y170879D01*
Y171131D01*
Y171382D01*
Y171633D01*
Y171884D01*
Y172135D01*
Y172386D01*
Y172637D01*
Y172889D01*
Y173140D01*
Y173391D01*
Y173642D01*
Y173893D01*
Y174144D01*
Y174396D01*
Y174647D01*
Y174898D01*
Y175149D01*
Y175400D01*
Y175651D01*
Y175902D01*
Y176154D01*
Y176405D01*
Y176656D01*
Y176907D01*
Y177158D01*
Y177409D01*
Y177660D01*
X115485D01*
Y177911D01*
Y178163D01*
Y178414D01*
Y178665D01*
Y178916D01*
Y179167D01*
Y179418D01*
Y179669D01*
D02*
G37*
G36*
X135576D02*
X121261D01*
Y179418D01*
Y179167D01*
Y178916D01*
Y178665D01*
Y178414D01*
Y178163D01*
Y177911D01*
Y177660D01*
Y177409D01*
X131307D01*
Y177158D01*
Y176907D01*
Y176656D01*
Y176405D01*
Y176154D01*
Y175902D01*
Y175651D01*
Y175400D01*
Y175149D01*
Y174898D01*
Y174647D01*
Y174396D01*
Y174144D01*
Y173893D01*
Y173642D01*
X123270D01*
Y173391D01*
Y173140D01*
Y172889D01*
Y172637D01*
Y172386D01*
Y172135D01*
Y171884D01*
Y171633D01*
Y171382D01*
X131307D01*
Y171131D01*
Y170879D01*
Y170628D01*
Y170377D01*
Y170126D01*
Y169875D01*
Y169624D01*
Y169373D01*
Y169122D01*
Y168870D01*
Y168619D01*
Y168368D01*
Y168117D01*
Y167866D01*
Y167615D01*
X121261D01*
Y167364D01*
Y167112D01*
Y166861D01*
Y166610D01*
Y166359D01*
Y166108D01*
Y165857D01*
Y165605D01*
Y165354D01*
X135576D01*
Y165605D01*
Y165857D01*
Y166108D01*
Y166359D01*
Y166610D01*
Y166861D01*
Y167112D01*
Y167364D01*
Y167615D01*
Y167866D01*
Y168117D01*
Y168368D01*
Y168619D01*
Y168870D01*
Y169122D01*
Y169373D01*
Y169624D01*
Y169875D01*
Y170126D01*
Y170377D01*
Y170628D01*
Y170879D01*
Y171131D01*
Y171382D01*
Y171633D01*
Y171884D01*
Y172135D01*
Y172386D01*
Y172637D01*
Y172889D01*
Y173140D01*
Y173391D01*
Y173642D01*
Y173893D01*
Y174144D01*
Y174396D01*
Y174647D01*
Y174898D01*
Y175149D01*
Y175400D01*
Y175651D01*
Y175902D01*
Y176154D01*
Y176405D01*
Y176656D01*
Y176907D01*
Y177158D01*
Y177409D01*
Y177660D01*
Y177911D01*
Y178163D01*
Y178414D01*
Y178665D01*
Y178916D01*
Y179167D01*
Y179418D01*
Y179669D01*
D02*
G37*
G36*
X74046D02*
X63749D01*
Y179418D01*
Y179167D01*
Y178916D01*
Y178665D01*
Y178414D01*
Y178163D01*
Y177911D01*
Y177660D01*
X61740D01*
Y177409D01*
Y177158D01*
Y176907D01*
Y176656D01*
Y176405D01*
Y176154D01*
Y175902D01*
Y175651D01*
Y175400D01*
Y175149D01*
Y174898D01*
Y174647D01*
Y174396D01*
Y174144D01*
Y173893D01*
Y173642D01*
Y173391D01*
Y173140D01*
Y172889D01*
Y172637D01*
Y172386D01*
Y172135D01*
Y171884D01*
Y171633D01*
Y171382D01*
Y171131D01*
Y170879D01*
Y170628D01*
Y170377D01*
Y170126D01*
Y169875D01*
Y169624D01*
Y169373D01*
Y169122D01*
Y168870D01*
Y168619D01*
Y168368D01*
Y168117D01*
Y167866D01*
Y167615D01*
Y167364D01*
X63749D01*
Y167112D01*
Y166861D01*
Y166610D01*
Y166359D01*
Y166108D01*
Y165857D01*
Y165605D01*
Y165354D01*
X74046D01*
Y165605D01*
Y165857D01*
Y166108D01*
Y166359D01*
Y166610D01*
Y166861D01*
Y167112D01*
Y167364D01*
X75804D01*
Y167615D01*
X76055D01*
Y167866D01*
Y168117D01*
Y168368D01*
Y168619D01*
Y168870D01*
Y169122D01*
Y169373D01*
Y169624D01*
Y169875D01*
Y170126D01*
Y170377D01*
Y170628D01*
Y170879D01*
Y171131D01*
Y171382D01*
Y171633D01*
Y171884D01*
Y172135D01*
Y172386D01*
Y172637D01*
Y172889D01*
Y173140D01*
Y173391D01*
Y173642D01*
Y173893D01*
Y174144D01*
Y174396D01*
Y174647D01*
Y174898D01*
Y175149D01*
Y175400D01*
Y175651D01*
Y175902D01*
Y176154D01*
Y176405D01*
Y176656D01*
Y176907D01*
Y177158D01*
Y177409D01*
Y177660D01*
X74046D01*
Y177911D01*
Y178163D01*
Y178414D01*
Y178665D01*
Y178916D01*
Y179167D01*
Y179418D01*
Y179669D01*
D02*
G37*
G36*
X36123D02*
X31603D01*
Y179418D01*
Y179167D01*
Y178916D01*
Y178665D01*
Y178414D01*
Y178163D01*
Y177911D01*
Y177660D01*
Y177409D01*
Y177158D01*
Y176907D01*
Y176656D01*
Y176405D01*
Y176154D01*
Y175902D01*
Y175651D01*
Y175400D01*
Y175149D01*
Y174898D01*
Y174647D01*
Y174396D01*
Y174144D01*
Y173893D01*
Y173642D01*
Y173391D01*
Y173140D01*
Y172889D01*
Y172637D01*
Y172386D01*
Y172135D01*
Y171884D01*
Y171633D01*
Y171382D01*
Y171131D01*
Y170879D01*
Y170628D01*
Y170377D01*
Y170126D01*
Y169875D01*
Y169624D01*
Y169373D01*
Y169122D01*
Y168870D01*
Y168619D01*
Y168368D01*
Y168117D01*
Y167866D01*
X31854D01*
Y167615D01*
X27836D01*
Y167364D01*
X27585D01*
Y167112D01*
Y166861D01*
Y166610D01*
Y166359D01*
Y166108D01*
Y165857D01*
Y165605D01*
Y165354D01*
X39891D01*
Y165605D01*
Y165857D01*
Y166108D01*
Y166359D01*
Y166610D01*
Y166861D01*
Y167112D01*
Y167364D01*
Y167615D01*
X35872D01*
Y167866D01*
X36123D01*
Y168117D01*
Y168368D01*
Y168619D01*
Y168870D01*
Y169122D01*
Y169373D01*
Y169624D01*
Y169875D01*
Y170126D01*
Y170377D01*
Y170628D01*
Y170879D01*
Y171131D01*
Y171382D01*
Y171633D01*
Y171884D01*
Y172135D01*
Y172386D01*
Y172637D01*
Y172889D01*
Y173140D01*
Y173391D01*
Y173642D01*
Y173893D01*
Y174144D01*
Y174396D01*
Y174647D01*
Y174898D01*
Y175149D01*
X35872D01*
Y175400D01*
X38133D01*
Y175651D01*
Y175902D01*
Y176154D01*
Y176405D01*
Y176656D01*
Y176907D01*
Y177158D01*
Y177409D01*
X37881D01*
Y177660D01*
X35872D01*
Y177911D01*
X36123D01*
Y178163D01*
Y178414D01*
Y178665D01*
Y178916D01*
Y179167D01*
Y179418D01*
Y179669D01*
D02*
G37*
G36*
X91877D02*
X81580D01*
Y179418D01*
Y179167D01*
Y178916D01*
Y178665D01*
Y178414D01*
Y178163D01*
Y177911D01*
Y177660D01*
X79571D01*
Y177409D01*
Y177158D01*
Y176907D01*
Y176656D01*
Y176405D01*
Y176154D01*
Y175902D01*
Y175651D01*
Y175400D01*
Y175149D01*
Y174898D01*
Y174647D01*
Y174396D01*
Y174144D01*
Y173893D01*
Y173642D01*
Y173391D01*
X81580D01*
Y173140D01*
Y172889D01*
Y172637D01*
Y172386D01*
Y172135D01*
Y171884D01*
Y171633D01*
X79571D01*
Y171382D01*
Y171131D01*
Y170879D01*
Y170628D01*
Y170377D01*
Y170126D01*
Y169875D01*
Y169624D01*
Y169373D01*
Y169122D01*
Y168870D01*
Y168619D01*
Y168368D01*
Y168117D01*
Y167866D01*
Y167615D01*
Y167364D01*
X81580D01*
Y167112D01*
Y166861D01*
Y166610D01*
Y166359D01*
Y166108D01*
Y165857D01*
Y165605D01*
Y165354D01*
X91877D01*
Y165605D01*
Y165857D01*
Y166108D01*
Y166359D01*
Y166610D01*
Y166861D01*
Y167112D01*
Y167364D01*
X93886D01*
Y167615D01*
Y167866D01*
Y168117D01*
Y168368D01*
Y168619D01*
Y168870D01*
Y169122D01*
Y169373D01*
Y169624D01*
X89617D01*
Y169373D01*
Y169122D01*
Y168870D01*
Y168619D01*
Y168368D01*
Y168117D01*
Y167866D01*
Y167615D01*
X83841D01*
Y167866D01*
Y168117D01*
Y168368D01*
Y168619D01*
Y168870D01*
Y169122D01*
Y169373D01*
Y169624D01*
Y169875D01*
Y170126D01*
Y170377D01*
Y170628D01*
Y170879D01*
Y171131D01*
Y171382D01*
X87859D01*
Y171633D01*
Y171884D01*
Y172135D01*
Y172386D01*
Y172637D01*
Y172889D01*
Y173140D01*
Y173391D01*
Y173642D01*
X83841D01*
Y173893D01*
Y174144D01*
Y174396D01*
Y174647D01*
Y174898D01*
Y175149D01*
Y175400D01*
Y175651D01*
Y175902D01*
Y176154D01*
Y176405D01*
Y176656D01*
Y176907D01*
Y177158D01*
Y177409D01*
X89617D01*
Y177158D01*
Y176907D01*
Y176656D01*
Y176405D01*
Y176154D01*
Y175902D01*
Y175651D01*
Y175400D01*
X93886D01*
Y175651D01*
Y175902D01*
Y176154D01*
Y176405D01*
Y176656D01*
Y176907D01*
Y177158D01*
Y177409D01*
Y177660D01*
X91877D01*
Y177911D01*
Y178163D01*
Y178414D01*
Y178665D01*
Y178916D01*
Y179167D01*
Y179418D01*
Y179669D01*
D02*
G37*
G36*
X55964D02*
X45667D01*
Y179418D01*
Y179167D01*
Y178916D01*
Y178665D01*
Y178414D01*
Y178163D01*
Y177911D01*
Y177660D01*
X43658D01*
Y177409D01*
Y177158D01*
Y176907D01*
Y176656D01*
Y176405D01*
Y176154D01*
Y175902D01*
Y175651D01*
Y175400D01*
Y175149D01*
Y174898D01*
Y174647D01*
Y174396D01*
Y174144D01*
Y173893D01*
Y173642D01*
Y173391D01*
Y173140D01*
Y172889D01*
Y172637D01*
Y172386D01*
Y172135D01*
Y171884D01*
Y171633D01*
Y171382D01*
Y171131D01*
Y170879D01*
Y170628D01*
Y170377D01*
Y170126D01*
Y169875D01*
Y169624D01*
Y169373D01*
Y169122D01*
Y168870D01*
Y168619D01*
Y168368D01*
Y168117D01*
Y167866D01*
Y167615D01*
Y167364D01*
X45667D01*
Y167112D01*
Y166861D01*
Y166610D01*
Y166359D01*
Y166108D01*
Y165857D01*
Y165605D01*
Y165354D01*
X55964D01*
Y165605D01*
Y165857D01*
Y166108D01*
Y166359D01*
Y166610D01*
Y166861D01*
Y167112D01*
Y167364D01*
X57973D01*
Y167615D01*
Y167866D01*
Y168117D01*
Y168368D01*
Y168619D01*
Y168870D01*
Y169122D01*
Y169373D01*
Y169624D01*
Y169875D01*
Y170126D01*
Y170377D01*
Y170628D01*
Y170879D01*
Y171131D01*
Y171382D01*
Y171633D01*
Y171884D01*
Y172135D01*
Y172386D01*
Y172637D01*
Y172889D01*
Y173140D01*
Y173391D01*
Y173642D01*
Y173893D01*
Y174144D01*
Y174396D01*
Y174647D01*
Y174898D01*
Y175149D01*
Y175400D01*
Y175651D01*
Y175902D01*
Y176154D01*
Y176405D01*
Y176656D01*
Y176907D01*
Y177158D01*
Y177409D01*
Y177660D01*
X55964D01*
Y177911D01*
Y178163D01*
Y178414D01*
Y178665D01*
Y178916D01*
Y179167D01*
Y179418D01*
Y179669D01*
D02*
G37*
G36*
X40142Y173642D02*
X37630D01*
Y173391D01*
Y173140D01*
Y172889D01*
Y172637D01*
Y172386D01*
Y172135D01*
Y171884D01*
Y171633D01*
Y171382D01*
Y171131D01*
Y170879D01*
Y170628D01*
Y170377D01*
Y170126D01*
Y169875D01*
Y169624D01*
Y169373D01*
X40142D01*
Y169624D01*
Y169875D01*
Y170126D01*
Y170377D01*
Y170628D01*
Y170879D01*
Y171131D01*
Y171382D01*
Y171633D01*
Y171884D01*
Y172135D01*
Y172386D01*
Y172637D01*
Y172889D01*
Y173140D01*
Y173391D01*
Y173642D01*
D02*
G37*
%LPD*%
G36*
X113224Y177158D02*
Y176907D01*
Y176656D01*
Y176405D01*
Y176154D01*
Y175902D01*
Y175651D01*
Y175400D01*
Y175149D01*
Y174898D01*
Y174647D01*
Y174396D01*
Y174144D01*
Y173893D01*
Y173642D01*
Y173391D01*
Y173140D01*
Y172889D01*
Y172637D01*
Y172386D01*
Y172135D01*
Y171884D01*
Y171633D01*
X107699D01*
Y171884D01*
Y172135D01*
Y172386D01*
Y172637D01*
Y172889D01*
Y173140D01*
Y173391D01*
Y173642D01*
Y173893D01*
Y174144D01*
Y174396D01*
Y174647D01*
Y174898D01*
Y175149D01*
Y175400D01*
Y175651D01*
Y175902D01*
Y176154D01*
Y176405D01*
Y176656D01*
Y176907D01*
Y177158D01*
Y177409D01*
X113224D01*
Y177158D01*
D02*
G37*
G36*
X167220D02*
Y176907D01*
X166969D01*
Y176656D01*
Y176405D01*
Y176154D01*
Y175902D01*
Y175651D01*
Y175400D01*
Y175149D01*
Y174898D01*
Y174647D01*
Y174396D01*
Y174144D01*
Y173893D01*
Y173642D01*
Y173391D01*
Y173140D01*
Y172889D01*
Y172637D01*
Y172386D01*
Y172135D01*
X167220D01*
Y171884D01*
Y171633D01*
X161444D01*
Y171884D01*
Y172135D01*
Y172386D01*
Y172637D01*
Y172889D01*
Y173140D01*
Y173391D01*
Y173642D01*
Y173893D01*
Y174144D01*
Y174396D01*
Y174647D01*
Y174898D01*
Y175149D01*
Y175400D01*
Y175651D01*
Y175902D01*
Y176154D01*
Y176405D01*
Y176656D01*
Y176907D01*
Y177158D01*
Y177409D01*
X167220D01*
Y177158D01*
D02*
G37*
G36*
X149138D02*
Y176907D01*
Y176656D01*
Y176405D01*
Y176154D01*
Y175902D01*
Y175651D01*
Y175400D01*
Y175149D01*
Y174898D01*
Y174647D01*
Y174396D01*
Y174144D01*
Y173893D01*
Y173642D01*
X143613D01*
Y173893D01*
Y174144D01*
Y174396D01*
Y174647D01*
Y174898D01*
Y175149D01*
Y175400D01*
Y175651D01*
Y175902D01*
Y176154D01*
Y176405D01*
Y176656D01*
Y176907D01*
Y177158D01*
Y177409D01*
X149138D01*
Y177158D01*
D02*
G37*
G36*
X71535D02*
Y176907D01*
Y176656D01*
Y176405D01*
Y176154D01*
Y175902D01*
Y175651D01*
Y175400D01*
Y175149D01*
Y174898D01*
Y174647D01*
Y174396D01*
Y174144D01*
Y173893D01*
Y173642D01*
Y173391D01*
Y173140D01*
Y172889D01*
Y172637D01*
Y172386D01*
Y172135D01*
Y171884D01*
Y171633D01*
X70028D01*
Y171884D01*
Y172135D01*
Y172386D01*
Y172637D01*
Y172889D01*
Y173140D01*
Y173391D01*
Y173642D01*
X68019D01*
Y173893D01*
Y174144D01*
Y174396D01*
Y174647D01*
Y174898D01*
Y175149D01*
Y175400D01*
Y175651D01*
X66009D01*
Y175902D01*
Y176154D01*
Y176405D01*
Y176656D01*
Y176907D01*
Y177158D01*
Y177409D01*
X71535D01*
Y177158D01*
D02*
G37*
G36*
X49685Y173140D02*
Y172889D01*
Y172637D01*
Y172386D01*
Y172135D01*
Y171884D01*
Y171633D01*
Y171382D01*
X51694D01*
Y171131D01*
Y170879D01*
Y170628D01*
Y170377D01*
Y170126D01*
Y169875D01*
Y169624D01*
Y169373D01*
X53452D01*
Y169122D01*
Y168870D01*
Y168619D01*
Y168368D01*
Y168117D01*
Y167866D01*
Y167615D01*
X47927D01*
Y167866D01*
Y168117D01*
Y168368D01*
Y168619D01*
Y168870D01*
Y169122D01*
Y169373D01*
Y169624D01*
Y169875D01*
Y170126D01*
Y170377D01*
Y170628D01*
Y170879D01*
Y171131D01*
Y171382D01*
Y171633D01*
Y171884D01*
Y172135D01*
Y172386D01*
Y172637D01*
Y172889D01*
Y173140D01*
Y173391D01*
X49685D01*
Y173140D01*
D02*
G37*
G36*
X67768D02*
Y172889D01*
Y172637D01*
Y172386D01*
Y172135D01*
Y171884D01*
Y171633D01*
Y171382D01*
X69777D01*
Y171131D01*
Y170879D01*
Y170628D01*
Y170377D01*
Y170126D01*
Y169875D01*
Y169624D01*
Y169373D01*
X71535D01*
Y169122D01*
Y168870D01*
Y168619D01*
Y168368D01*
Y168117D01*
Y167866D01*
Y167615D01*
X66009D01*
Y167866D01*
Y168117D01*
Y168368D01*
Y168619D01*
Y168870D01*
Y169122D01*
Y169373D01*
Y169624D01*
Y169875D01*
Y170126D01*
Y170377D01*
Y170628D01*
Y170879D01*
Y171131D01*
Y171382D01*
Y171633D01*
Y171884D01*
Y172135D01*
Y172386D01*
Y172637D01*
Y172889D01*
Y173140D01*
Y173391D01*
X67768D01*
Y173140D01*
D02*
G37*
G36*
X53452Y177158D02*
Y176907D01*
Y176656D01*
Y176405D01*
Y176154D01*
Y175902D01*
Y175651D01*
Y175400D01*
Y175149D01*
Y174898D01*
Y174647D01*
Y174396D01*
Y174144D01*
Y173893D01*
Y173642D01*
Y173391D01*
Y173140D01*
Y172889D01*
Y172637D01*
Y172386D01*
Y172135D01*
Y171884D01*
Y171633D01*
X51946D01*
Y171884D01*
Y172135D01*
Y172386D01*
Y172637D01*
Y172889D01*
Y173140D01*
Y173391D01*
Y173642D01*
X49936D01*
Y173893D01*
Y174144D01*
Y174396D01*
Y174647D01*
Y174898D01*
Y175149D01*
Y175400D01*
Y175651D01*
X47927D01*
Y175902D01*
Y176154D01*
Y176405D01*
Y176656D01*
Y176907D01*
Y177158D01*
Y177409D01*
X53452D01*
Y177158D01*
D02*
G37*
G36*
X1121080Y-64032D02*
Y-64318D01*
Y-64605D01*
Y-64891D01*
Y-65177D01*
Y-65464D01*
Y-65750D01*
Y-66036D01*
Y-66322D01*
Y-66609D01*
Y-66895D01*
Y-67181D01*
Y-67468D01*
Y-67754D01*
Y-68040D01*
Y-68327D01*
Y-68613D01*
Y-68899D01*
Y-69186D01*
Y-69472D01*
Y-69758D01*
X1120793D01*
Y-70044D01*
Y-70331D01*
Y-70617D01*
Y-70903D01*
Y-71190D01*
X1120507D01*
Y-71476D01*
Y-71762D01*
Y-72049D01*
Y-72335D01*
X1120221D01*
Y-72621D01*
Y-72908D01*
Y-73194D01*
Y-73480D01*
X1119934D01*
Y-73767D01*
Y-74053D01*
Y-74339D01*
X1119648D01*
Y-74625D01*
Y-74912D01*
Y-75198D01*
X1119362D01*
Y-75485D01*
Y-75771D01*
Y-76057D01*
X1119075D01*
Y-76343D01*
Y-76630D01*
Y-76916D01*
X1118789D01*
Y-77202D01*
Y-77489D01*
X1118503D01*
Y-77775D01*
Y-78061D01*
X1118217D01*
Y-78348D01*
Y-78634D01*
Y-78920D01*
X1117930D01*
Y-79207D01*
Y-79493D01*
X1117644D01*
Y-79779D01*
Y-80066D01*
Y-80352D01*
X1117358D01*
Y-80638D01*
Y-80924D01*
X1117071D01*
Y-81211D01*
Y-81497D01*
Y-81783D01*
X1116785D01*
Y-82070D01*
Y-82356D01*
X1116499D01*
Y-82642D01*
Y-82929D01*
Y-83215D01*
X1116212D01*
Y-83501D01*
Y-83788D01*
X1115926D01*
Y-84074D01*
Y-84360D01*
Y-84646D01*
X1115640D01*
Y-84933D01*
Y-85219D01*
X1115353D01*
Y-85505D01*
Y-85792D01*
Y-86078D01*
X1115067D01*
Y-86364D01*
Y-86651D01*
X1114781D01*
Y-86937D01*
Y-87223D01*
Y-87510D01*
X1114494D01*
Y-87796D01*
Y-88082D01*
X1114208D01*
Y-88369D01*
Y-88655D01*
Y-88941D01*
X1113922D01*
Y-89227D01*
Y-89514D01*
X1113636D01*
Y-89800D01*
Y-90086D01*
Y-90373D01*
X1113349D01*
Y-90659D01*
Y-90945D01*
X1113063D01*
Y-91232D01*
Y-91518D01*
Y-91804D01*
X1112776D01*
Y-92091D01*
Y-92377D01*
X1112490D01*
Y-92663D01*
Y-92950D01*
Y-93236D01*
X1112204D01*
Y-93522D01*
Y-93809D01*
X1111918D01*
Y-94095D01*
Y-94381D01*
Y-94667D01*
X1111631D01*
Y-94954D01*
Y-95240D01*
X1111345D01*
Y-95526D01*
Y-95813D01*
Y-96099D01*
X1111059D01*
Y-96385D01*
Y-96672D01*
X1110772D01*
Y-96958D01*
Y-97244D01*
Y-97531D01*
X1110486D01*
Y-97817D01*
Y-98103D01*
X1110200D01*
Y-98390D01*
Y-98676D01*
Y-98962D01*
X1109913D01*
Y-99248D01*
Y-99535D01*
X1109627D01*
Y-99821D01*
Y-100107D01*
Y-100394D01*
X1109341D01*
Y-100680D01*
Y-100966D01*
X1109054D01*
Y-101253D01*
Y-101539D01*
X1108768D01*
Y-101825D01*
Y-102112D01*
X1108482D01*
Y-102398D01*
Y-102684D01*
Y-102971D01*
X1108195D01*
Y-103257D01*
X1107909D01*
Y-103543D01*
Y-103829D01*
Y-104116D01*
X1107623D01*
Y-104402D01*
X1107337D01*
Y-104688D01*
Y-104975D01*
X1107050D01*
Y-105261D01*
Y-105547D01*
X1106764D01*
Y-105834D01*
Y-106120D01*
X1106478D01*
Y-106406D01*
Y-106693D01*
X1106191D01*
Y-106979D01*
X1105905D01*
Y-107265D01*
Y-107552D01*
X1105619D01*
Y-107838D01*
Y-108124D01*
X1105332D01*
Y-108411D01*
X1105046D01*
Y-108697D01*
X1104760D01*
Y-108983D01*
Y-109269D01*
X1104473D01*
Y-109556D01*
X1104187D01*
Y-109842D01*
Y-110128D01*
X1103901D01*
Y-110415D01*
X1103615D01*
Y-110701D01*
X1103328D01*
Y-110987D01*
Y-111274D01*
X1103042D01*
Y-111560D01*
X1102756D01*
Y-111846D01*
X1102469D01*
Y-112133D01*
X1102183D01*
Y-112419D01*
X1101897D01*
Y-112705D01*
Y-112991D01*
X1101610D01*
Y-113278D01*
X1101324D01*
Y-113564D01*
X1101038D01*
Y-113850D01*
X1100751D01*
Y-114137D01*
X1100465D01*
Y-114423D01*
X1100179D01*
Y-114709D01*
X1099892D01*
Y-114996D01*
X1099320D01*
Y-115282D01*
X1099034D01*
Y-115568D01*
X1098747D01*
Y-115855D01*
X1098461D01*
Y-116141D01*
X1098175D01*
Y-116427D01*
X1097602D01*
Y-116714D01*
X1097316D01*
Y-117000D01*
X1096743D01*
Y-117286D01*
X1096457D01*
Y-117572D01*
X1095884D01*
Y-117859D01*
X1095598D01*
Y-118145D01*
X1095025D01*
Y-118431D01*
X1094452D01*
Y-118718D01*
X1093880D01*
Y-119004D01*
X1093307D01*
Y-119290D01*
X1092735D01*
Y-119577D01*
X1091876D01*
Y-119863D01*
X1091303D01*
Y-120149D01*
X1090444D01*
Y-120436D01*
X1089299D01*
Y-120722D01*
X1088154D01*
Y-121008D01*
X1086436D01*
Y-121294D01*
X1084432D01*
Y-121581D01*
X1084145D01*
Y-121294D01*
Y-121008D01*
Y-120722D01*
Y-120436D01*
Y-120149D01*
Y-119863D01*
Y-119577D01*
Y-119290D01*
Y-119004D01*
Y-118718D01*
Y-118431D01*
Y-118145D01*
Y-117859D01*
Y-117572D01*
Y-117286D01*
Y-117000D01*
Y-116714D01*
Y-116427D01*
Y-116141D01*
Y-115855D01*
Y-115568D01*
Y-115282D01*
Y-114996D01*
Y-114709D01*
Y-114423D01*
Y-114137D01*
Y-113850D01*
Y-113564D01*
Y-113278D01*
Y-112991D01*
Y-112705D01*
Y-112419D01*
Y-112133D01*
X1084718D01*
Y-111846D01*
X1085291D01*
Y-111560D01*
X1085863D01*
Y-111274D01*
X1086436D01*
Y-110987D01*
X1087008D01*
Y-110701D01*
X1087581D01*
Y-110415D01*
X1087867D01*
Y-110128D01*
X1088440D01*
Y-109842D01*
X1088726D01*
Y-109556D01*
X1089299D01*
Y-109269D01*
X1089585D01*
Y-108983D01*
X1089872D01*
Y-108697D01*
X1090444D01*
Y-108411D01*
X1090730D01*
Y-108124D01*
X1091017D01*
Y-107838D01*
X1091303D01*
Y-107552D01*
X1091589D01*
Y-107265D01*
X1091876D01*
Y-106979D01*
X1092162D01*
Y-106693D01*
X1092448D01*
Y-106406D01*
X1092735D01*
Y-106120D01*
X1093021D01*
Y-105834D01*
X1093307D01*
Y-105547D01*
X1093594D01*
Y-105261D01*
Y-104975D01*
X1093880D01*
Y-104688D01*
X1094166D01*
Y-104402D01*
X1094452D01*
Y-104116D01*
Y-103829D01*
X1094739D01*
Y-103543D01*
X1095025D01*
Y-103257D01*
Y-102971D01*
X1095311D01*
Y-102684D01*
Y-102398D01*
X1095598D01*
Y-102112D01*
X1095884D01*
Y-101825D01*
Y-101539D01*
X1096170D01*
Y-101253D01*
Y-100966D01*
X1096457D01*
Y-100680D01*
Y-100394D01*
X1094739D01*
Y-100107D01*
X1092735D01*
Y-99821D01*
X1091589D01*
Y-99535D01*
X1091017D01*
Y-99248D01*
X1090158D01*
Y-98962D01*
X1089585D01*
Y-98676D01*
X1089299D01*
Y-98390D01*
X1088726D01*
Y-98103D01*
X1088440D01*
Y-97817D01*
X1088154D01*
Y-97531D01*
X1087867D01*
Y-97244D01*
X1087581D01*
Y-96958D01*
X1087295D01*
Y-96672D01*
Y-96385D01*
X1087008D01*
Y-96099D01*
X1086722D01*
Y-95813D01*
Y-95526D01*
X1086436D01*
Y-95240D01*
Y-94954D01*
X1086149D01*
Y-94667D01*
Y-94381D01*
X1085863D01*
Y-94095D01*
Y-93809D01*
Y-93522D01*
X1085577D01*
Y-93236D01*
Y-92950D01*
Y-92663D01*
Y-92377D01*
X1085291D01*
Y-92091D01*
Y-91804D01*
Y-91518D01*
Y-91232D01*
Y-90945D01*
Y-90659D01*
Y-90373D01*
X1085004D01*
Y-90086D01*
Y-89800D01*
Y-89514D01*
Y-89227D01*
Y-88941D01*
Y-88655D01*
Y-88369D01*
Y-88082D01*
Y-87796D01*
Y-87510D01*
Y-87223D01*
Y-86937D01*
Y-86651D01*
Y-86364D01*
Y-86078D01*
X1084718D01*
Y-85792D01*
Y-85505D01*
Y-85219D01*
Y-84933D01*
Y-84646D01*
Y-84360D01*
Y-84074D01*
Y-83788D01*
Y-83501D01*
Y-83215D01*
Y-82929D01*
Y-82642D01*
Y-82356D01*
Y-82070D01*
Y-81783D01*
X1084432D01*
Y-81497D01*
Y-81211D01*
Y-80924D01*
Y-80638D01*
Y-80352D01*
Y-80066D01*
Y-79779D01*
Y-79493D01*
Y-79207D01*
Y-78920D01*
Y-78634D01*
Y-78348D01*
Y-78061D01*
Y-77775D01*
Y-77489D01*
Y-77202D01*
X1084145D01*
Y-76916D01*
Y-76630D01*
Y-76343D01*
Y-76057D01*
Y-75771D01*
Y-75485D01*
Y-75198D01*
Y-74912D01*
Y-74625D01*
Y-74339D01*
Y-74053D01*
Y-73767D01*
Y-73480D01*
Y-73194D01*
Y-72908D01*
Y-72621D01*
X1083859D01*
Y-72335D01*
Y-72049D01*
Y-71762D01*
Y-71476D01*
Y-71190D01*
Y-70903D01*
Y-70617D01*
Y-70331D01*
Y-70044D01*
Y-69758D01*
Y-69472D01*
Y-69186D01*
Y-68899D01*
Y-68613D01*
X1083573D01*
Y-68327D01*
Y-68040D01*
Y-67754D01*
Y-67468D01*
Y-67181D01*
Y-66895D01*
Y-66609D01*
Y-66322D01*
Y-66036D01*
Y-65750D01*
Y-65464D01*
Y-65177D01*
Y-64891D01*
Y-64605D01*
Y-64318D01*
Y-64032D01*
X1083286D01*
Y-63746D01*
X1097029D01*
Y-64032D01*
Y-64318D01*
Y-64605D01*
Y-64891D01*
Y-65177D01*
Y-65464D01*
Y-65750D01*
Y-66036D01*
Y-66322D01*
Y-66609D01*
Y-66895D01*
Y-67181D01*
Y-67468D01*
Y-67754D01*
X1097316D01*
Y-68040D01*
Y-68327D01*
Y-68613D01*
Y-68899D01*
Y-69186D01*
Y-69472D01*
Y-69758D01*
Y-70044D01*
Y-70331D01*
Y-70617D01*
Y-70903D01*
Y-71190D01*
Y-71476D01*
Y-71762D01*
Y-72049D01*
Y-72335D01*
Y-72621D01*
Y-72908D01*
Y-73194D01*
Y-73480D01*
Y-73767D01*
Y-74053D01*
Y-74339D01*
Y-74625D01*
Y-74912D01*
Y-75198D01*
Y-75485D01*
Y-75771D01*
Y-76057D01*
Y-76343D01*
Y-76630D01*
Y-76916D01*
Y-77202D01*
Y-77489D01*
Y-77775D01*
Y-78061D01*
Y-78348D01*
Y-78634D01*
Y-78920D01*
Y-79207D01*
Y-79493D01*
X1097602D01*
Y-79779D01*
X1097316D01*
Y-80066D01*
Y-80352D01*
X1097602D01*
Y-80638D01*
Y-80924D01*
Y-81211D01*
Y-81497D01*
Y-81783D01*
Y-82070D01*
Y-82356D01*
Y-82642D01*
Y-82929D01*
Y-83215D01*
Y-83501D01*
Y-83788D01*
Y-84074D01*
Y-84360D01*
Y-84646D01*
Y-84933D01*
Y-85219D01*
Y-85505D01*
Y-85792D01*
Y-86078D01*
Y-86364D01*
Y-86651D01*
Y-86937D01*
Y-87223D01*
Y-87510D01*
Y-87796D01*
X1097888D01*
Y-88082D01*
Y-88369D01*
Y-88655D01*
X1098175D01*
Y-88941D01*
X1098461D01*
Y-89227D01*
X1098747D01*
Y-89514D01*
X1099606D01*
Y-89800D01*
X1100465D01*
Y-89514D01*
X1100751D01*
Y-89227D01*
Y-88941D01*
Y-88655D01*
X1101038D01*
Y-88369D01*
Y-88082D01*
X1101324D01*
Y-87796D01*
Y-87510D01*
Y-87223D01*
X1101610D01*
Y-86937D01*
Y-86651D01*
Y-86364D01*
X1101897D01*
Y-86078D01*
Y-85792D01*
Y-85505D01*
X1102183D01*
Y-85219D01*
Y-84933D01*
Y-84646D01*
X1102469D01*
Y-84360D01*
Y-84074D01*
X1102756D01*
Y-83788D01*
Y-83501D01*
Y-83215D01*
X1103042D01*
Y-82929D01*
Y-82642D01*
Y-82356D01*
X1103328D01*
Y-82070D01*
Y-81783D01*
Y-81497D01*
X1103615D01*
Y-81211D01*
Y-80924D01*
X1103901D01*
Y-80638D01*
Y-80352D01*
Y-80066D01*
X1104187D01*
Y-79779D01*
Y-79493D01*
Y-79207D01*
X1104473D01*
Y-78920D01*
Y-78634D01*
Y-78348D01*
X1104760D01*
Y-78061D01*
Y-77775D01*
X1105046D01*
Y-77489D01*
Y-77202D01*
Y-76916D01*
X1105332D01*
Y-76630D01*
Y-76343D01*
Y-76057D01*
X1105619D01*
Y-75771D01*
Y-75485D01*
Y-75198D01*
X1105905D01*
Y-74912D01*
Y-74625D01*
X1106191D01*
Y-74339D01*
Y-74053D01*
Y-73767D01*
X1106478D01*
Y-73480D01*
Y-73194D01*
Y-72908D01*
X1106764D01*
Y-72621D01*
Y-72335D01*
Y-72049D01*
X1107050D01*
Y-71762D01*
Y-71476D01*
Y-71190D01*
Y-70903D01*
X1107337D01*
Y-70617D01*
Y-70331D01*
Y-70044D01*
Y-69758D01*
X1107623D01*
Y-69472D01*
Y-69186D01*
Y-68899D01*
Y-68613D01*
Y-68327D01*
X1107909D01*
Y-68040D01*
Y-67754D01*
Y-67468D01*
Y-67181D01*
Y-66895D01*
Y-66609D01*
X1108195D01*
Y-66322D01*
Y-66036D01*
Y-65750D01*
Y-65464D01*
Y-65177D01*
Y-64891D01*
Y-64605D01*
Y-64318D01*
Y-64032D01*
Y-63746D01*
X1121080D01*
Y-64032D01*
D02*
G37*
G36*
X1063244Y-46567D02*
Y-46853D01*
X1062958D01*
Y-47139D01*
Y-47426D01*
Y-47712D01*
Y-47998D01*
Y-48285D01*
Y-48571D01*
X1062672D01*
Y-48857D01*
Y-49144D01*
Y-49430D01*
Y-49716D01*
Y-50003D01*
Y-50289D01*
X1062385D01*
Y-50575D01*
Y-50862D01*
Y-51148D01*
Y-51434D01*
Y-51720D01*
Y-52007D01*
Y-52293D01*
X1062099D01*
Y-52579D01*
Y-52866D01*
Y-53152D01*
Y-53438D01*
Y-53725D01*
Y-54011D01*
X1061813D01*
Y-54297D01*
Y-54584D01*
Y-54870D01*
Y-55156D01*
Y-55443D01*
Y-55729D01*
X1061526D01*
Y-56015D01*
Y-56301D01*
Y-56588D01*
Y-56874D01*
Y-57161D01*
Y-57447D01*
Y-57733D01*
X1061240D01*
Y-58019D01*
Y-58306D01*
Y-58592D01*
Y-58878D01*
Y-59165D01*
Y-59451D01*
X1060954D01*
Y-59737D01*
Y-60024D01*
Y-60310D01*
Y-60596D01*
Y-60883D01*
Y-61169D01*
X1060668D01*
Y-61455D01*
Y-61742D01*
Y-62028D01*
Y-62314D01*
Y-62600D01*
Y-62887D01*
X1060381D01*
Y-63173D01*
Y-63459D01*
Y-63746D01*
Y-64032D01*
Y-64318D01*
Y-64605D01*
Y-64891D01*
X1060095D01*
Y-65177D01*
Y-65464D01*
Y-65750D01*
Y-66036D01*
Y-66322D01*
Y-66609D01*
X1059809D01*
Y-66895D01*
Y-67181D01*
X1060381D01*
Y-66895D01*
X1060668D01*
Y-66609D01*
X1060954D01*
Y-66322D01*
X1061526D01*
Y-66036D01*
X1061813D01*
Y-65750D01*
X1062099D01*
Y-65464D01*
X1062672D01*
Y-65177D01*
X1063244D01*
Y-64891D01*
X1063531D01*
Y-64605D01*
X1064103D01*
Y-64318D01*
X1064962D01*
Y-64032D01*
X1065535D01*
Y-63746D01*
X1066394D01*
Y-63459D01*
X1067825D01*
Y-63173D01*
X1074124D01*
Y-63459D01*
X1075270D01*
Y-63746D01*
X1076128D01*
Y-64032D01*
X1076701D01*
Y-64318D01*
X1076987D01*
Y-64605D01*
X1077560D01*
Y-64891D01*
X1077846D01*
Y-65177D01*
X1078133D01*
Y-65464D01*
X1078419D01*
Y-65750D01*
X1078705D01*
Y-66036D01*
Y-66322D01*
X1078992D01*
Y-66609D01*
Y-66895D01*
X1079278D01*
Y-67181D01*
Y-67468D01*
Y-67754D01*
X1079564D01*
Y-68040D01*
Y-68327D01*
Y-68613D01*
Y-68899D01*
X1079850D01*
Y-69186D01*
Y-69472D01*
Y-69758D01*
Y-70044D01*
Y-70331D01*
Y-70617D01*
Y-70903D01*
Y-71190D01*
Y-71476D01*
Y-71762D01*
Y-72049D01*
Y-72335D01*
Y-72621D01*
Y-72908D01*
Y-73194D01*
Y-73480D01*
Y-73767D01*
Y-74053D01*
X1079564D01*
Y-74339D01*
Y-74625D01*
Y-74912D01*
Y-75198D01*
Y-75485D01*
Y-75771D01*
Y-76057D01*
X1079278D01*
Y-76343D01*
Y-76630D01*
Y-76916D01*
Y-77202D01*
Y-77489D01*
Y-77775D01*
Y-78061D01*
X1078992D01*
Y-78348D01*
Y-78634D01*
Y-78920D01*
Y-79207D01*
Y-79493D01*
Y-79779D01*
X1078705D01*
Y-80066D01*
Y-80352D01*
Y-80638D01*
Y-80924D01*
Y-81211D01*
Y-81497D01*
X1078419D01*
Y-81783D01*
Y-82070D01*
Y-82356D01*
Y-82642D01*
Y-82929D01*
Y-83215D01*
X1078133D01*
Y-83501D01*
Y-83788D01*
Y-84074D01*
Y-84360D01*
Y-84646D01*
Y-84933D01*
Y-85219D01*
X1077846D01*
Y-85505D01*
Y-85792D01*
Y-86078D01*
Y-86364D01*
Y-86651D01*
Y-86937D01*
X1077560D01*
Y-87223D01*
Y-87510D01*
Y-87796D01*
Y-88082D01*
Y-88369D01*
Y-88655D01*
X1077274D01*
Y-88941D01*
Y-89227D01*
Y-89514D01*
Y-89800D01*
Y-90086D01*
Y-90373D01*
Y-90659D01*
X1076987D01*
Y-90945D01*
Y-91232D01*
Y-91518D01*
Y-91804D01*
Y-92091D01*
Y-92377D01*
X1076701D01*
Y-92663D01*
Y-92950D01*
Y-93236D01*
Y-93522D01*
Y-93809D01*
Y-94095D01*
X1076415D01*
Y-94381D01*
Y-94667D01*
Y-94954D01*
Y-95240D01*
Y-95526D01*
Y-95813D01*
X1076128D01*
Y-96099D01*
Y-96385D01*
Y-96672D01*
Y-96958D01*
Y-97244D01*
Y-97531D01*
Y-97817D01*
X1075842D01*
Y-98103D01*
Y-98390D01*
Y-98676D01*
Y-98962D01*
Y-99248D01*
Y-99535D01*
X1075556D01*
Y-99821D01*
Y-100107D01*
X1062385D01*
Y-99821D01*
Y-99535D01*
X1062672D01*
Y-99248D01*
Y-98962D01*
Y-98676D01*
Y-98390D01*
Y-98103D01*
Y-97817D01*
X1062958D01*
Y-97531D01*
Y-97244D01*
Y-96958D01*
Y-96672D01*
Y-96385D01*
Y-96099D01*
Y-95813D01*
X1063244D01*
Y-95526D01*
Y-95240D01*
Y-94954D01*
Y-94667D01*
Y-94381D01*
Y-94095D01*
X1063531D01*
Y-93809D01*
Y-93522D01*
Y-93236D01*
Y-92950D01*
Y-92663D01*
Y-92377D01*
X1063817D01*
Y-92091D01*
Y-91804D01*
Y-91518D01*
Y-91232D01*
Y-90945D01*
Y-90659D01*
Y-90373D01*
X1064103D01*
Y-90086D01*
Y-89800D01*
Y-89514D01*
Y-89227D01*
Y-88941D01*
Y-88655D01*
X1064390D01*
Y-88369D01*
Y-88082D01*
Y-87796D01*
Y-87510D01*
Y-87223D01*
Y-86937D01*
Y-86651D01*
X1064676D01*
Y-86364D01*
Y-86078D01*
Y-85792D01*
Y-85505D01*
Y-85219D01*
Y-84933D01*
X1064962D01*
Y-84646D01*
Y-84360D01*
Y-84074D01*
Y-83788D01*
Y-83501D01*
Y-83215D01*
X1065249D01*
Y-82929D01*
Y-82642D01*
Y-82356D01*
Y-82070D01*
Y-81783D01*
Y-81497D01*
X1065535D01*
Y-81211D01*
Y-80924D01*
Y-80638D01*
Y-80352D01*
Y-80066D01*
Y-79779D01*
Y-79493D01*
X1065821D01*
Y-79207D01*
Y-78920D01*
Y-78634D01*
Y-78348D01*
Y-78061D01*
Y-77775D01*
X1066107D01*
Y-77489D01*
Y-77202D01*
Y-76916D01*
Y-76630D01*
Y-76343D01*
Y-76057D01*
Y-75771D01*
X1066394D01*
Y-75485D01*
Y-75198D01*
Y-74912D01*
Y-74625D01*
Y-74339D01*
Y-74053D01*
X1066107D01*
Y-73767D01*
Y-73480D01*
X1065821D01*
Y-73194D01*
X1065535D01*
Y-72908D01*
X1064962D01*
Y-72621D01*
X1063244D01*
Y-72908D01*
X1061813D01*
Y-73194D01*
X1060954D01*
Y-73480D01*
X1060381D01*
Y-73767D01*
X1060095D01*
Y-74053D01*
X1059522D01*
Y-74339D01*
X1059236D01*
Y-74625D01*
X1058950D01*
Y-74912D01*
Y-75198D01*
X1058663D01*
Y-75485D01*
Y-75771D01*
Y-76057D01*
X1058377D01*
Y-76343D01*
Y-76630D01*
Y-76916D01*
Y-77202D01*
Y-77489D01*
Y-77775D01*
X1058091D01*
Y-78061D01*
Y-78348D01*
Y-78634D01*
Y-78920D01*
Y-79207D01*
Y-79493D01*
Y-79779D01*
X1057804D01*
Y-80066D01*
Y-80352D01*
Y-80638D01*
Y-80924D01*
Y-81211D01*
Y-81497D01*
X1057518D01*
Y-81783D01*
Y-82070D01*
Y-82356D01*
Y-82642D01*
Y-82929D01*
Y-83215D01*
X1057232D01*
Y-83501D01*
Y-83788D01*
Y-84074D01*
Y-84360D01*
Y-84646D01*
Y-84933D01*
X1056946D01*
Y-85219D01*
Y-85505D01*
Y-85792D01*
Y-86078D01*
Y-86364D01*
Y-86651D01*
Y-86937D01*
X1056659D01*
Y-87223D01*
Y-87510D01*
Y-87796D01*
Y-88082D01*
Y-88369D01*
Y-88655D01*
X1056373D01*
Y-88941D01*
Y-89227D01*
Y-89514D01*
Y-89800D01*
Y-90086D01*
Y-90373D01*
X1056087D01*
Y-90659D01*
Y-90945D01*
Y-91232D01*
Y-91518D01*
Y-91804D01*
Y-92091D01*
Y-92377D01*
X1055800D01*
Y-92663D01*
Y-92950D01*
Y-93236D01*
Y-93522D01*
Y-93809D01*
Y-94095D01*
X1055514D01*
Y-94381D01*
Y-94667D01*
Y-94954D01*
Y-95240D01*
Y-95526D01*
Y-95813D01*
X1055228D01*
Y-96099D01*
Y-96385D01*
Y-96672D01*
Y-96958D01*
Y-97244D01*
Y-97531D01*
X1054941D01*
Y-97817D01*
Y-98103D01*
Y-98390D01*
Y-98676D01*
Y-98962D01*
Y-99248D01*
Y-99535D01*
X1054655D01*
Y-99821D01*
Y-100107D01*
X1041485D01*
Y-99821D01*
Y-99535D01*
X1041771D01*
Y-99248D01*
Y-98962D01*
Y-98676D01*
Y-98390D01*
Y-98103D01*
Y-97817D01*
Y-97531D01*
X1042057D01*
Y-97244D01*
Y-96958D01*
Y-96672D01*
Y-96385D01*
Y-96099D01*
Y-95813D01*
X1042344D01*
Y-95526D01*
Y-95240D01*
Y-94954D01*
Y-94667D01*
Y-94381D01*
Y-94095D01*
X1042630D01*
Y-93809D01*
Y-93522D01*
Y-93236D01*
Y-92950D01*
Y-92663D01*
Y-92377D01*
Y-92091D01*
X1042916D01*
Y-91804D01*
Y-91518D01*
Y-91232D01*
Y-90945D01*
Y-90659D01*
Y-90373D01*
X1043202D01*
Y-90086D01*
Y-89800D01*
Y-89514D01*
Y-89227D01*
Y-88941D01*
Y-88655D01*
X1043489D01*
Y-88369D01*
Y-88082D01*
Y-87796D01*
Y-87510D01*
Y-87223D01*
Y-86937D01*
X1043775D01*
Y-86651D01*
Y-86364D01*
Y-86078D01*
Y-85792D01*
Y-85505D01*
Y-85219D01*
Y-84933D01*
X1044061D01*
Y-84646D01*
Y-84360D01*
Y-84074D01*
Y-83788D01*
Y-83501D01*
Y-83215D01*
X1044348D01*
Y-82929D01*
Y-82642D01*
Y-82356D01*
Y-82070D01*
Y-81783D01*
Y-81497D01*
X1044634D01*
Y-81211D01*
Y-80924D01*
Y-80638D01*
Y-80352D01*
Y-80066D01*
Y-79779D01*
Y-79493D01*
X1044920D01*
Y-79207D01*
Y-78920D01*
Y-78634D01*
Y-78348D01*
Y-78061D01*
Y-77775D01*
X1045207D01*
Y-77489D01*
Y-77202D01*
Y-76916D01*
Y-76630D01*
Y-76343D01*
Y-76057D01*
X1045493D01*
Y-75771D01*
Y-75485D01*
Y-75198D01*
Y-74912D01*
Y-74625D01*
Y-74339D01*
X1045779D01*
Y-74053D01*
Y-73767D01*
Y-73480D01*
Y-73194D01*
Y-72908D01*
Y-72621D01*
Y-72335D01*
X1046066D01*
Y-72049D01*
Y-71762D01*
Y-71476D01*
Y-71190D01*
Y-70903D01*
Y-70617D01*
X1046352D01*
Y-70331D01*
Y-70044D01*
Y-69758D01*
Y-69472D01*
Y-69186D01*
Y-68899D01*
X1046638D01*
Y-68613D01*
Y-68327D01*
Y-68040D01*
Y-67754D01*
Y-67468D01*
Y-67181D01*
X1046925D01*
Y-66895D01*
Y-66609D01*
Y-66322D01*
Y-66036D01*
Y-65750D01*
Y-65464D01*
Y-65177D01*
X1047211D01*
Y-64891D01*
Y-64605D01*
Y-64318D01*
Y-64032D01*
Y-63746D01*
Y-63459D01*
X1047497D01*
Y-63173D01*
Y-62887D01*
Y-62600D01*
Y-62314D01*
Y-62028D01*
Y-61742D01*
X1047783D01*
Y-61455D01*
Y-61169D01*
Y-60883D01*
Y-60596D01*
Y-60310D01*
Y-60024D01*
Y-59737D01*
X1048070D01*
Y-59451D01*
Y-59165D01*
Y-58878D01*
Y-58592D01*
Y-58306D01*
Y-58019D01*
X1048356D01*
Y-57733D01*
Y-57447D01*
Y-57161D01*
Y-56874D01*
Y-56588D01*
Y-56301D01*
X1048642D01*
Y-56015D01*
Y-55729D01*
Y-55443D01*
Y-55156D01*
Y-54870D01*
Y-54584D01*
X1048929D01*
Y-54297D01*
Y-54011D01*
Y-53725D01*
Y-53438D01*
Y-53152D01*
Y-52866D01*
Y-52579D01*
X1049215D01*
Y-52293D01*
Y-52007D01*
Y-51720D01*
Y-51434D01*
Y-51148D01*
Y-50862D01*
X1049501D01*
Y-50575D01*
Y-50289D01*
Y-50003D01*
Y-49716D01*
Y-49430D01*
Y-49144D01*
X1049788D01*
Y-48857D01*
Y-48571D01*
Y-48285D01*
Y-47998D01*
Y-47712D01*
Y-47426D01*
Y-47139D01*
X1050074D01*
Y-46853D01*
Y-46567D01*
Y-46281D01*
X1063244D01*
Y-46567D01*
D02*
G37*
G36*
X1032036Y-50003D02*
X1033754D01*
Y-50289D01*
X1034613D01*
Y-50575D01*
X1035472D01*
Y-50862D01*
X1036331D01*
Y-51148D01*
X1036904D01*
Y-51434D01*
X1037190D01*
Y-51720D01*
X1037763D01*
Y-52007D01*
X1038049D01*
Y-52293D01*
X1038622D01*
Y-52579D01*
X1038908D01*
Y-52866D01*
X1039194D01*
Y-53152D01*
X1039480D01*
Y-53438D01*
X1039767D01*
Y-53725D01*
X1040053D01*
Y-54011D01*
X1040339D01*
Y-54297D01*
Y-54584D01*
X1040626D01*
Y-54870D01*
X1040912D01*
Y-55156D01*
Y-55443D01*
X1041198D01*
Y-55729D01*
X1041485D01*
Y-56015D01*
Y-56301D01*
X1041771D01*
Y-56588D01*
Y-56874D01*
Y-57161D01*
X1042057D01*
Y-57447D01*
Y-57733D01*
Y-58019D01*
X1042344D01*
Y-58306D01*
Y-58592D01*
Y-58878D01*
Y-59165D01*
X1042630D01*
Y-59451D01*
Y-59737D01*
Y-60024D01*
Y-60310D01*
Y-60596D01*
X1042916D01*
Y-60883D01*
Y-61169D01*
Y-61455D01*
Y-61742D01*
Y-62028D01*
Y-62314D01*
Y-62600D01*
Y-62887D01*
Y-63173D01*
Y-63459D01*
Y-63746D01*
Y-64032D01*
Y-64318D01*
Y-64605D01*
Y-64891D01*
Y-65177D01*
Y-65464D01*
Y-65750D01*
Y-66036D01*
Y-66322D01*
X1042630D01*
Y-66609D01*
Y-66895D01*
Y-67181D01*
Y-67468D01*
Y-67754D01*
Y-68040D01*
Y-68327D01*
X1042344D01*
Y-68613D01*
Y-68899D01*
Y-69186D01*
Y-69472D01*
Y-69758D01*
X1042057D01*
Y-70044D01*
Y-70331D01*
Y-70617D01*
Y-70903D01*
Y-71190D01*
X1041771D01*
Y-71476D01*
Y-71762D01*
Y-72049D01*
X1041485D01*
Y-72335D01*
Y-72621D01*
Y-72908D01*
Y-73194D01*
X1041198D01*
Y-73480D01*
Y-73767D01*
Y-74053D01*
X1040912D01*
Y-74339D01*
Y-74625D01*
X1040626D01*
Y-74912D01*
Y-75198D01*
Y-75485D01*
X1040339D01*
Y-75771D01*
Y-76057D01*
X1040053D01*
Y-76343D01*
Y-76630D01*
X1039767D01*
Y-76916D01*
Y-77202D01*
X1039480D01*
Y-77489D01*
X1039194D01*
Y-77775D01*
Y-78061D01*
X1038908D01*
Y-78348D01*
X1038622D01*
Y-78634D01*
X1038335D01*
Y-78920D01*
Y-79207D01*
X1038049D01*
Y-79493D01*
X1037763D01*
Y-79779D01*
X1037476D01*
Y-80066D01*
X1037190D01*
Y-80352D01*
X1036904D01*
Y-80638D01*
X1036331D01*
Y-80924D01*
X1036045D01*
Y-81211D01*
X1035472D01*
Y-81497D01*
X1035186D01*
Y-81783D01*
X1034613D01*
Y-82070D01*
X1033754D01*
Y-82356D01*
X1032895D01*
Y-82642D01*
X1032036D01*
Y-82929D01*
X1030318D01*
Y-83215D01*
X1025165D01*
Y-82929D01*
X1022588D01*
Y-82642D01*
X1020584D01*
Y-82356D01*
X1019152D01*
Y-82070D01*
X1017721D01*
Y-81783D01*
X1016289D01*
Y-82070D01*
Y-82356D01*
Y-82642D01*
Y-82929D01*
Y-83215D01*
Y-83501D01*
Y-83788D01*
X1016003D01*
Y-84074D01*
Y-84360D01*
Y-84646D01*
Y-84933D01*
Y-85219D01*
Y-85505D01*
X1015716D01*
Y-85792D01*
Y-86078D01*
Y-86364D01*
Y-86651D01*
Y-86937D01*
Y-87223D01*
X1015430D01*
Y-87510D01*
Y-87796D01*
Y-88082D01*
Y-88369D01*
Y-88655D01*
Y-88941D01*
Y-89227D01*
X1015144D01*
Y-89514D01*
Y-89800D01*
Y-90086D01*
Y-90373D01*
Y-90659D01*
Y-90945D01*
X1014857D01*
Y-91232D01*
Y-91518D01*
Y-91804D01*
Y-92091D01*
Y-92377D01*
Y-92663D01*
X1014571D01*
Y-92950D01*
Y-93236D01*
Y-93522D01*
Y-93809D01*
Y-94095D01*
Y-94381D01*
Y-94667D01*
X1014285D01*
Y-94954D01*
Y-95240D01*
Y-95526D01*
Y-95813D01*
Y-96099D01*
Y-96385D01*
X1013999D01*
Y-96672D01*
Y-96958D01*
Y-97244D01*
Y-97531D01*
Y-97817D01*
Y-98103D01*
X1013712D01*
Y-98390D01*
Y-98676D01*
Y-98962D01*
Y-99248D01*
Y-99535D01*
Y-99821D01*
Y-100107D01*
X1000256D01*
Y-99821D01*
X1000542D01*
Y-99535D01*
Y-99248D01*
Y-98962D01*
Y-98676D01*
Y-98390D01*
X1000828D01*
Y-98103D01*
Y-97817D01*
Y-97531D01*
Y-97244D01*
Y-96958D01*
Y-96672D01*
Y-96385D01*
X1001114D01*
Y-96099D01*
Y-95813D01*
Y-95526D01*
Y-95240D01*
Y-94954D01*
Y-94667D01*
X1001401D01*
Y-94381D01*
Y-94095D01*
Y-93809D01*
Y-93522D01*
Y-93236D01*
Y-92950D01*
X1001687D01*
Y-92663D01*
Y-92377D01*
Y-92091D01*
Y-91804D01*
Y-91518D01*
Y-91232D01*
Y-90945D01*
X1001974D01*
Y-90659D01*
Y-90373D01*
Y-90086D01*
Y-89800D01*
Y-89514D01*
Y-89227D01*
X1002260D01*
Y-88941D01*
Y-88655D01*
Y-88369D01*
Y-88082D01*
Y-87796D01*
Y-87510D01*
X1002546D01*
Y-87223D01*
Y-86937D01*
Y-86651D01*
Y-86364D01*
Y-86078D01*
Y-85792D01*
X1002832D01*
Y-85505D01*
Y-85219D01*
Y-84933D01*
Y-84646D01*
Y-84360D01*
Y-84074D01*
Y-83788D01*
X1003119D01*
Y-83501D01*
Y-83215D01*
Y-82929D01*
Y-82642D01*
Y-82356D01*
Y-82070D01*
X1003405D01*
Y-81783D01*
Y-81497D01*
Y-81211D01*
Y-80924D01*
Y-80638D01*
Y-80352D01*
X1003691D01*
Y-80066D01*
Y-79779D01*
Y-79493D01*
Y-79207D01*
Y-78920D01*
Y-78634D01*
X1003978D01*
Y-78348D01*
Y-78061D01*
Y-77775D01*
Y-77489D01*
Y-77202D01*
Y-76916D01*
Y-76630D01*
X1004264D01*
Y-76343D01*
Y-76057D01*
Y-75771D01*
Y-75485D01*
Y-75198D01*
Y-74912D01*
X1004550D01*
Y-74625D01*
Y-74339D01*
Y-74053D01*
Y-73767D01*
Y-73480D01*
Y-73194D01*
X1004837D01*
Y-72908D01*
Y-72621D01*
Y-72335D01*
Y-72049D01*
Y-71762D01*
Y-71476D01*
Y-71190D01*
X1005123D01*
Y-70903D01*
Y-70617D01*
Y-70331D01*
Y-70044D01*
Y-69758D01*
Y-69472D01*
X1005409D01*
Y-69186D01*
Y-68899D01*
Y-68613D01*
Y-68327D01*
Y-68040D01*
Y-67754D01*
X1005696D01*
Y-67468D01*
Y-67181D01*
Y-66895D01*
Y-66609D01*
Y-66322D01*
Y-66036D01*
X1005982D01*
Y-65750D01*
Y-65464D01*
Y-65177D01*
Y-64891D01*
Y-64605D01*
Y-64318D01*
Y-64032D01*
X1006268D01*
Y-63746D01*
Y-63459D01*
Y-63173D01*
Y-62887D01*
Y-62600D01*
Y-62314D01*
X1006555D01*
Y-62028D01*
Y-61742D01*
Y-61455D01*
Y-61169D01*
Y-60883D01*
Y-60596D01*
X1006841D01*
Y-60310D01*
Y-60024D01*
Y-59737D01*
Y-59451D01*
Y-59165D01*
Y-58878D01*
Y-58592D01*
X1007127D01*
Y-58306D01*
Y-58019D01*
Y-57733D01*
Y-57447D01*
Y-57161D01*
Y-56874D01*
X1007413D01*
Y-56588D01*
Y-56301D01*
Y-56015D01*
Y-55729D01*
Y-55443D01*
Y-55156D01*
X1007700D01*
Y-54870D01*
Y-54584D01*
Y-54297D01*
Y-54011D01*
Y-53725D01*
Y-53438D01*
Y-53152D01*
X1007986D01*
Y-52866D01*
Y-52579D01*
Y-52293D01*
Y-52007D01*
Y-51720D01*
Y-51434D01*
X1008272D01*
Y-51148D01*
Y-50862D01*
Y-50575D01*
Y-50289D01*
Y-50003D01*
Y-49716D01*
X1032036D01*
Y-50003D01*
D02*
G37*
G36*
X1165172Y-64032D02*
X1164886D01*
Y-64318D01*
X1164599D01*
Y-64605D01*
Y-64891D01*
X1164313D01*
Y-65177D01*
X1164027D01*
Y-65464D01*
X1163740D01*
Y-65750D01*
Y-66036D01*
X1163454D01*
Y-66322D01*
X1163168D01*
Y-66609D01*
X1162881D01*
Y-66895D01*
X1162595D01*
Y-67181D01*
Y-67468D01*
X1162309D01*
Y-67754D01*
X1162022D01*
Y-68040D01*
X1161736D01*
Y-68327D01*
Y-68613D01*
X1161450D01*
Y-68899D01*
X1161163D01*
Y-69186D01*
X1160877D01*
Y-69472D01*
X1160591D01*
Y-69758D01*
Y-70044D01*
X1160305D01*
Y-70331D01*
X1160018D01*
Y-70617D01*
X1159732D01*
Y-70903D01*
Y-71190D01*
X1159445D01*
Y-71476D01*
X1159159D01*
Y-71762D01*
X1158873D01*
Y-72049D01*
Y-72335D01*
X1158587D01*
Y-72621D01*
X1158300D01*
Y-72908D01*
X1158014D01*
Y-73194D01*
X1157728D01*
Y-73480D01*
Y-73767D01*
X1157441D01*
Y-74053D01*
X1157155D01*
Y-74339D01*
X1156869D01*
Y-74625D01*
Y-74912D01*
X1156582D01*
Y-75198D01*
X1156296D01*
Y-75485D01*
X1156010D01*
Y-75771D01*
Y-76057D01*
X1155723D01*
Y-76343D01*
X1155437D01*
Y-76630D01*
X1155151D01*
Y-76916D01*
X1154865D01*
Y-77202D01*
Y-77489D01*
X1154578D01*
Y-77775D01*
X1154292D01*
Y-78061D01*
X1154006D01*
Y-78348D01*
Y-78634D01*
X1153719D01*
Y-78920D01*
X1153433D01*
Y-79207D01*
X1153147D01*
Y-79493D01*
Y-79779D01*
X1152860D01*
Y-80066D01*
X1152574D01*
Y-80352D01*
X1152288D01*
Y-80638D01*
X1152001D01*
Y-80924D01*
Y-81211D01*
X1151715D01*
Y-81497D01*
X1151429D01*
Y-81783D01*
X1151142D01*
Y-82070D01*
Y-82356D01*
X1150856D01*
Y-82642D01*
X1150570D01*
Y-82929D01*
X1150284D01*
Y-83215D01*
X1149997D01*
Y-83501D01*
Y-83788D01*
X1150284D01*
Y-84074D01*
Y-84360D01*
X1150570D01*
Y-84646D01*
Y-84933D01*
X1150856D01*
Y-85219D01*
X1151142D01*
Y-85505D01*
Y-85792D01*
X1151429D01*
Y-86078D01*
Y-86364D01*
X1151715D01*
Y-86651D01*
Y-86937D01*
X1152001D01*
Y-87223D01*
Y-87510D01*
X1152288D01*
Y-87796D01*
Y-88082D01*
X1152574D01*
Y-88369D01*
Y-88655D01*
X1152860D01*
Y-88941D01*
Y-89227D01*
X1153147D01*
Y-89514D01*
Y-89800D01*
X1153433D01*
Y-90086D01*
X1153719D01*
Y-90373D01*
Y-90659D01*
X1154006D01*
Y-90945D01*
Y-91232D01*
X1154292D01*
Y-91518D01*
Y-91804D01*
X1154578D01*
Y-92091D01*
Y-92377D01*
X1154865D01*
Y-92663D01*
Y-92950D01*
X1155151D01*
Y-93236D01*
Y-93522D01*
X1155437D01*
Y-93809D01*
Y-94095D01*
X1155723D01*
Y-94381D01*
X1156010D01*
Y-94667D01*
Y-94954D01*
X1156296D01*
Y-95240D01*
Y-95526D01*
X1156582D01*
Y-95813D01*
Y-96099D01*
X1156869D01*
Y-96385D01*
Y-96672D01*
X1157155D01*
Y-96958D01*
Y-97244D01*
X1157441D01*
Y-97531D01*
Y-97817D01*
X1157728D01*
Y-98103D01*
Y-98390D01*
X1158014D01*
Y-98676D01*
X1158300D01*
Y-98962D01*
Y-99248D01*
X1158587D01*
Y-99535D01*
Y-99821D01*
X1158873D01*
Y-100107D01*
X1143698D01*
Y-99821D01*
X1143412D01*
Y-99535D01*
Y-99248D01*
Y-98962D01*
X1143126D01*
Y-98676D01*
Y-98390D01*
Y-98103D01*
X1142839D01*
Y-97817D01*
Y-97531D01*
X1142553D01*
Y-97244D01*
Y-96958D01*
Y-96672D01*
X1142267D01*
Y-96385D01*
Y-96099D01*
Y-95813D01*
X1141980D01*
Y-95526D01*
Y-95240D01*
X1141694D01*
Y-94954D01*
Y-94667D01*
Y-94381D01*
X1141408D01*
Y-94095D01*
Y-93809D01*
Y-93522D01*
X1141121D01*
Y-93236D01*
Y-92950D01*
Y-92663D01*
X1140835D01*
Y-92377D01*
X1140263D01*
Y-92663D01*
Y-92950D01*
X1139976D01*
Y-93236D01*
X1139690D01*
Y-93522D01*
Y-93809D01*
X1139404D01*
Y-94095D01*
X1139117D01*
Y-94381D01*
Y-94667D01*
X1138831D01*
Y-94954D01*
X1138545D01*
Y-95240D01*
Y-95526D01*
X1138258D01*
Y-95813D01*
X1137972D01*
Y-96099D01*
X1137686D01*
Y-96385D01*
Y-96672D01*
X1137399D01*
Y-96958D01*
X1137113D01*
Y-97244D01*
Y-97531D01*
X1136827D01*
Y-97817D01*
X1136541D01*
Y-98103D01*
Y-98390D01*
X1136254D01*
Y-98676D01*
X1135968D01*
Y-98962D01*
Y-99248D01*
X1135682D01*
Y-99535D01*
X1135395D01*
Y-99821D01*
Y-100107D01*
X1119362D01*
Y-99821D01*
X1119648D01*
Y-99535D01*
X1119934D01*
Y-99248D01*
X1120221D01*
Y-98962D01*
X1120507D01*
Y-98676D01*
Y-98390D01*
X1120793D01*
Y-98103D01*
X1121080D01*
Y-97817D01*
X1121366D01*
Y-97531D01*
X1121652D01*
Y-97244D01*
Y-96958D01*
X1121939D01*
Y-96672D01*
X1122225D01*
Y-96385D01*
X1122511D01*
Y-96099D01*
Y-95813D01*
X1122797D01*
Y-95526D01*
X1123084D01*
Y-95240D01*
X1123370D01*
Y-94954D01*
X1123656D01*
Y-94667D01*
Y-94381D01*
X1123943D01*
Y-94095D01*
X1124229D01*
Y-93809D01*
X1124515D01*
Y-93522D01*
X1124802D01*
Y-93236D01*
Y-92950D01*
X1125088D01*
Y-92663D01*
X1125374D01*
Y-92377D01*
X1125661D01*
Y-92091D01*
Y-91804D01*
X1125947D01*
Y-91518D01*
X1126233D01*
Y-91232D01*
X1126519D01*
Y-90945D01*
X1126806D01*
Y-90659D01*
Y-90373D01*
X1127092D01*
Y-90086D01*
X1127378D01*
Y-89800D01*
X1127665D01*
Y-89514D01*
Y-89227D01*
X1127951D01*
Y-88941D01*
X1128237D01*
Y-88655D01*
X1128524D01*
Y-88369D01*
X1128810D01*
Y-88082D01*
Y-87796D01*
X1129096D01*
Y-87510D01*
X1129383D01*
Y-87223D01*
X1129669D01*
Y-86937D01*
Y-86651D01*
X1129955D01*
Y-86364D01*
X1130242D01*
Y-86078D01*
X1130528D01*
Y-85792D01*
X1130814D01*
Y-85505D01*
Y-85219D01*
X1131100D01*
Y-84933D01*
X1131387D01*
Y-84646D01*
X1131673D01*
Y-84360D01*
X1131960D01*
Y-84074D01*
Y-83788D01*
X1132246D01*
Y-83501D01*
X1132532D01*
Y-83215D01*
X1132818D01*
Y-82929D01*
Y-82642D01*
X1133105D01*
Y-82356D01*
X1133391D01*
Y-82070D01*
X1133677D01*
Y-81783D01*
X1133964D01*
Y-81497D01*
Y-81211D01*
X1134250D01*
Y-80924D01*
Y-80638D01*
Y-80352D01*
X1133964D01*
Y-80066D01*
X1133677D01*
Y-79779D01*
Y-79493D01*
X1133391D01*
Y-79207D01*
Y-78920D01*
X1133105D01*
Y-78634D01*
Y-78348D01*
X1132818D01*
Y-78061D01*
Y-77775D01*
X1132532D01*
Y-77489D01*
Y-77202D01*
X1132246D01*
Y-76916D01*
Y-76630D01*
X1131960D01*
Y-76343D01*
X1131673D01*
Y-76057D01*
Y-75771D01*
X1131387D01*
Y-75485D01*
Y-75198D01*
X1131100D01*
Y-74912D01*
Y-74625D01*
X1130814D01*
Y-74339D01*
Y-74053D01*
X1130528D01*
Y-73767D01*
Y-73480D01*
X1130242D01*
Y-73194D01*
Y-72908D01*
X1129955D01*
Y-72621D01*
X1129669D01*
Y-72335D01*
Y-72049D01*
X1129383D01*
Y-71762D01*
Y-71476D01*
X1129096D01*
Y-71190D01*
Y-70903D01*
X1128810D01*
Y-70617D01*
Y-70331D01*
X1128524D01*
Y-70044D01*
Y-69758D01*
X1128237D01*
Y-69472D01*
Y-69186D01*
X1127951D01*
Y-68899D01*
Y-68613D01*
X1127665D01*
Y-68327D01*
X1127378D01*
Y-68040D01*
Y-67754D01*
X1127092D01*
Y-67468D01*
Y-67181D01*
X1126806D01*
Y-66895D01*
Y-66609D01*
X1126519D01*
Y-66322D01*
Y-66036D01*
X1126233D01*
Y-65750D01*
Y-65464D01*
X1125947D01*
Y-65177D01*
Y-64891D01*
X1125661D01*
Y-64605D01*
X1125374D01*
Y-64318D01*
Y-64032D01*
X1125088D01*
Y-63746D01*
X1140835D01*
Y-64032D01*
X1141121D01*
Y-64318D01*
Y-64605D01*
Y-64891D01*
X1141408D01*
Y-65177D01*
Y-65464D01*
Y-65750D01*
X1141694D01*
Y-66036D01*
Y-66322D01*
Y-66609D01*
X1141980D01*
Y-66895D01*
Y-67181D01*
Y-67468D01*
X1142267D01*
Y-67754D01*
Y-68040D01*
Y-68327D01*
X1142553D01*
Y-68613D01*
Y-68899D01*
Y-69186D01*
X1142839D01*
Y-69472D01*
Y-69758D01*
Y-70044D01*
X1143126D01*
Y-70331D01*
Y-70617D01*
Y-70903D01*
X1143412D01*
Y-71190D01*
Y-71476D01*
Y-71762D01*
Y-72049D01*
X1143985D01*
Y-71762D01*
X1144271D01*
Y-71476D01*
X1144557D01*
Y-71190D01*
Y-70903D01*
X1144844D01*
Y-70617D01*
X1145130D01*
Y-70331D01*
Y-70044D01*
X1145416D01*
Y-69758D01*
X1145702D01*
Y-69472D01*
Y-69186D01*
X1145989D01*
Y-68899D01*
X1146275D01*
Y-68613D01*
Y-68327D01*
X1146561D01*
Y-68040D01*
X1146848D01*
Y-67754D01*
Y-67468D01*
X1147134D01*
Y-67181D01*
X1147420D01*
Y-66895D01*
Y-66609D01*
X1147707D01*
Y-66322D01*
X1147993D01*
Y-66036D01*
Y-65750D01*
X1148279D01*
Y-65464D01*
X1148566D01*
Y-65177D01*
Y-64891D01*
X1148852D01*
Y-64605D01*
X1149138D01*
Y-64318D01*
Y-64032D01*
X1149425D01*
Y-63746D01*
X1165172D01*
Y-64032D01*
D02*
G37*
%LPC*%
G36*
X1027742Y-60883D02*
X1019725D01*
Y-61169D01*
Y-61455D01*
Y-61742D01*
Y-62028D01*
Y-62314D01*
X1019438D01*
Y-62600D01*
Y-62887D01*
Y-63173D01*
Y-63459D01*
Y-63746D01*
Y-64032D01*
X1019152D01*
Y-64318D01*
Y-64605D01*
Y-64891D01*
Y-65177D01*
Y-65464D01*
Y-65750D01*
X1018866D01*
Y-66036D01*
Y-66322D01*
Y-66609D01*
Y-66895D01*
Y-67181D01*
Y-67468D01*
X1018580D01*
Y-67754D01*
Y-68040D01*
Y-68327D01*
Y-68613D01*
Y-68899D01*
Y-69186D01*
Y-69472D01*
X1018293D01*
Y-69758D01*
Y-70044D01*
Y-70331D01*
Y-70617D01*
Y-70903D01*
Y-71190D01*
X1018007D01*
Y-71476D01*
Y-71762D01*
Y-72049D01*
X1025165D01*
Y-71762D01*
X1026310D01*
Y-71476D01*
X1026883D01*
Y-71190D01*
X1027169D01*
Y-70903D01*
X1027455D01*
Y-70617D01*
X1027742D01*
Y-70331D01*
X1028028D01*
Y-70044D01*
Y-69758D01*
X1028314D01*
Y-69472D01*
Y-69186D01*
X1028601D01*
Y-68899D01*
Y-68613D01*
X1028887D01*
Y-68327D01*
Y-68040D01*
Y-67754D01*
Y-67468D01*
X1029173D01*
Y-67181D01*
Y-66895D01*
Y-66609D01*
Y-66322D01*
Y-66036D01*
X1029459D01*
Y-65750D01*
Y-65464D01*
Y-65177D01*
Y-64891D01*
Y-64605D01*
Y-64318D01*
Y-64032D01*
Y-63746D01*
Y-63459D01*
Y-63173D01*
Y-62887D01*
X1029173D01*
Y-62600D01*
Y-62314D01*
X1028887D01*
Y-62028D01*
Y-61742D01*
X1028601D01*
Y-61455D01*
X1028314D01*
Y-61169D01*
X1027742D01*
Y-60883D01*
D02*
G37*
%LPD*%
D10*
X0Y11811D02*
G03*
X11811Y0I11811J0D01*
G01*
X185039D02*
G03*
X196850Y11811I0J11811D01*
G01*
Y149606D02*
G03*
X185039Y161417I-11811J0D01*
G01*
X11811D02*
G03*
X0Y149606I0J-11811D01*
G01*
X9843Y133858D02*
G03*
X5906Y137795I-3937J0D01*
G01*
X0Y141732D02*
G03*
X3937Y137795I3937J0D01*
G01*
X5906Y23622D02*
G03*
X9843Y27559I0J3937D01*
G01*
X3937Y23622D02*
G03*
X0Y19685I0J-3937D01*
G01*
X15748Y161417D02*
G03*
X19685Y165354I0J3937D01*
G01*
X27559Y185039D02*
G03*
X19685Y177165I0J-7874D01*
G01*
X177165D02*
G03*
X169291Y185039I-7874J0D01*
G01*
X192913Y137795D02*
G03*
X196850Y141732I0J3937D01*
G01*
X177165Y165354D02*
G03*
X181102Y161417I3937J0D01*
G01*
X190945Y137795D02*
G03*
X187008Y133858I0J-3937D01*
G01*
X196850Y19685D02*
G03*
X192913Y23622I-3937J0D01*
G01*
X187008Y27559D02*
G03*
X190945Y23622I3937J0D01*
G01*
X0Y11811D02*
Y19685D01*
X11811Y0D02*
X15748D01*
X196850Y11811D02*
Y19685D01*
X181102Y0D02*
X185039D01*
X181102Y161417D02*
X185039D01*
X196850Y141732D02*
Y149606D01*
X3937Y137795D02*
X5906D01*
X9843Y27559D02*
Y133858D01*
X3937Y23622D02*
X5906D01*
X19685Y169291D02*
Y177165D01*
X177165Y169291D02*
Y177165D01*
X27559Y185039D02*
X169291D01*
X15748Y0D02*
X181102D01*
X0Y141732D02*
Y149606D01*
X11811Y161417D02*
X15748D01*
X19685Y165354D02*
Y169291D01*
X177165Y165354D02*
Y169291D01*
X190945Y137795D02*
X192913D01*
X190945Y23622D02*
X192913D01*
X187008Y27559D02*
Y133858D01*
X1338583Y-137795D02*
Y-98425D01*
X1181102Y-59055D02*
X1456693D01*
X1181102Y-98425D02*
X1456693D01*
X984252Y-137795D02*
X1456693D01*
X984252Y-19685D02*
X1456693D01*
X984252Y-177165D02*
Y-19685D01*
X1181102Y-177165D02*
Y-19685D01*
X-196850Y992126D02*
X1456693D01*
Y-177165D02*
Y992126D01*
X-196850Y-177165D02*
Y992126D01*
Y-177165D02*
X1456693D01*
X1194881Y-163388D02*
X1190945D01*
Y-169291D01*
X1194881D01*
X1190945Y-166340D02*
X1192913D01*
X1200784Y-164372D02*
X1199800Y-163388D01*
X1197832D01*
X1196848Y-164372D01*
Y-165356D01*
X1197832Y-166340D01*
X1199800D01*
X1200784Y-167324D01*
Y-168307D01*
X1199800Y-169291D01*
X1197832D01*
X1196848Y-168307D01*
X1202752Y-169291D02*
Y-163388D01*
X1205704D01*
X1206688Y-164372D01*
Y-166340D01*
X1205704Y-167324D01*
X1202752D01*
X1208656Y-169291D02*
X1210624D01*
X1209640D01*
Y-163388D01*
X1208656Y-164372D01*
X1217511Y-169291D02*
X1213575D01*
X1217511Y-165356D01*
Y-164372D01*
X1216527Y-163388D01*
X1214559D01*
X1213575Y-164372D01*
X1219479Y-170275D02*
X1223415D01*
X1225383Y-163388D02*
Y-169291D01*
X1228334D01*
X1229318Y-168307D01*
Y-164372D01*
X1228334Y-163388D01*
X1225383D01*
X1235222D02*
X1231286D01*
Y-169291D01*
X1235222D01*
X1231286Y-166340D02*
X1233254D01*
X1237190Y-163388D02*
Y-167324D01*
X1239158Y-169291D01*
X1241125Y-167324D01*
Y-163388D01*
X1243093Y-170275D02*
X1247029D01*
X1248997Y-164372D02*
X1249981Y-163388D01*
X1251949D01*
X1252933Y-164372D01*
Y-168307D01*
X1251949Y-169291D01*
X1249981D01*
X1248997Y-168307D01*
Y-164372D01*
X1254900Y-169291D02*
X1256868D01*
X1255884D01*
Y-163388D01*
X1254900Y-164372D01*
X1259820Y-169291D02*
Y-168307D01*
X1260804D01*
Y-169291D01*
X1259820D01*
X1264740D02*
Y-163388D01*
X1267692D01*
X1268676Y-164372D01*
Y-166340D01*
X1267692Y-167324D01*
X1264740D01*
X1274579Y-165356D02*
X1271627D01*
X1270644Y-166340D01*
Y-168307D01*
X1271627Y-169291D01*
X1274579D01*
X1276547Y-163388D02*
Y-169291D01*
X1279499D01*
X1280483Y-168307D01*
Y-167324D01*
Y-166340D01*
X1279499Y-165356D01*
X1276547D01*
X1282451Y-163388D02*
Y-169291D01*
X1285402D01*
X1286386Y-168307D01*
Y-164372D01*
X1285402Y-163388D01*
X1282451D01*
X1289338Y-169291D02*
X1291306D01*
X1292290Y-168307D01*
Y-166340D01*
X1291306Y-165356D01*
X1289338D01*
X1288354Y-166340D01*
Y-168307D01*
X1289338Y-169291D01*
X1298194Y-165356D02*
X1295242D01*
X1294258Y-166340D01*
Y-168307D01*
X1295242Y-169291D01*
X1298194D01*
D14*
X1202756Y-76776D02*
Y-90551D01*
X1209643D01*
X1211939Y-88255D01*
Y-85960D01*
X1209643Y-83664D01*
X1202756D01*
X1209643D01*
X1211939Y-81368D01*
Y-79072D01*
X1209643Y-76776D01*
X1202756D01*
X1218827Y-90551D02*
X1223419D01*
X1225714Y-88255D01*
Y-83664D01*
X1223419Y-81368D01*
X1218827D01*
X1216531Y-83664D01*
Y-88255D01*
X1218827Y-90551D01*
X1232602Y-79072D02*
Y-81368D01*
X1230306D01*
X1234898D01*
X1232602D01*
Y-88255D01*
X1234898Y-90551D01*
X1244081Y-79072D02*
Y-81368D01*
X1241785D01*
X1246377D01*
X1244081D01*
Y-88255D01*
X1246377Y-90551D01*
X1255560D02*
X1260152D01*
X1262448Y-88255D01*
Y-83664D01*
X1260152Y-81368D01*
X1255560D01*
X1253265Y-83664D01*
Y-88255D01*
X1255560Y-90551D01*
X1267040D02*
Y-81368D01*
X1269335D01*
X1271631Y-83664D01*
Y-90551D01*
Y-83664D01*
X1273927Y-81368D01*
X1276223Y-83664D01*
Y-90551D01*
X1303773Y-79072D02*
X1301477Y-76776D01*
X1296886D01*
X1294590Y-79072D01*
Y-81368D01*
X1296886Y-83664D01*
X1301477D01*
X1303773Y-85960D01*
Y-88255D01*
X1301477Y-90551D01*
X1296886D01*
X1294590Y-88255D01*
X1310661Y-90551D02*
X1315252D01*
X1317548Y-88255D01*
Y-83664D01*
X1315252Y-81368D01*
X1310661D01*
X1308365Y-83664D01*
Y-88255D01*
X1310661Y-90551D01*
X1322140D02*
X1326732D01*
X1324436D01*
Y-76776D01*
X1322140D01*
X1342803D02*
Y-90551D01*
X1335915D01*
X1333619Y-88255D01*
Y-83664D01*
X1335915Y-81368D01*
X1342803D01*
X1354282Y-90551D02*
X1349690D01*
X1347394Y-88255D01*
Y-83664D01*
X1349690Y-81368D01*
X1354282D01*
X1356578Y-83664D01*
Y-85960D01*
X1347394D01*
X1361169Y-81368D02*
Y-90551D01*
Y-85960D01*
X1363465Y-83664D01*
X1365761Y-81368D01*
X1368057D01*
X1005906Y-155517D02*
Y-171260D01*
X1011153Y-166012D01*
X1016401Y-171260D01*
Y-155517D01*
X1021649Y-171260D02*
X1026896D01*
X1024272D01*
Y-160765D01*
X1021649D01*
X1034768Y-171260D02*
Y-160765D01*
X1037391D01*
X1040015Y-163388D01*
Y-171260D01*
Y-163388D01*
X1042639Y-160765D01*
X1045263Y-163388D01*
Y-171260D01*
X1050511Y-155517D02*
Y-166012D01*
X1055758Y-171260D01*
X1061006Y-166012D01*
Y-155517D01*
X1076749Y-158141D02*
X1074125Y-155517D01*
X1068877D01*
X1066253Y-158141D01*
Y-168636D01*
X1068877Y-171260D01*
X1074125D01*
X1076749Y-168636D01*
Y-163388D01*
X1071501D01*
X1360236Y-118771D02*
X1362860Y-116147D01*
X1368108D01*
X1370732Y-118771D01*
Y-129266D01*
X1368108Y-131890D01*
X1362860D01*
X1360236Y-129266D01*
Y-118771D01*
X1375979D02*
X1378603Y-116147D01*
X1383851D01*
X1386475Y-118771D01*
Y-129266D01*
X1383851Y-131890D01*
X1378603D01*
X1375979Y-129266D01*
Y-118771D01*
X1206034Y-131890D02*
X1196850D01*
X1206034Y-122706D01*
Y-120411D01*
X1203738Y-118115D01*
X1199146D01*
X1196850Y-120411D01*
X1210625Y-129594D02*
X1212921Y-131890D01*
X1217513D01*
X1219809Y-129594D01*
Y-120411D01*
X1217513Y-118115D01*
X1212921D01*
X1210625Y-120411D01*
Y-122706D01*
X1212921Y-125002D01*
X1219809D01*
X1224401Y-131890D02*
X1233584Y-122706D01*
X1238176Y-120411D02*
X1240471Y-118115D01*
X1245063D01*
X1247359Y-120411D01*
Y-129594D01*
X1245063Y-131890D01*
X1240471D01*
X1238176Y-129594D01*
Y-120411D01*
X1251951D02*
X1254247Y-118115D01*
X1258838D01*
X1261134Y-120411D01*
Y-122706D01*
X1258838Y-125002D01*
X1261134Y-127298D01*
Y-129594D01*
X1258838Y-131890D01*
X1254247D01*
X1251951Y-129594D01*
Y-127298D01*
X1254247Y-125002D01*
X1251951Y-122706D01*
Y-120411D01*
X1254247Y-125002D02*
X1258838D01*
X1265726Y-131890D02*
X1274909Y-122706D01*
X1288684Y-131890D02*
X1279501D01*
X1288684Y-122706D01*
Y-120411D01*
X1286388Y-118115D01*
X1281797D01*
X1279501Y-120411D01*
X1293276D02*
X1295572Y-118115D01*
X1300163D01*
X1302459Y-120411D01*
Y-129594D01*
X1300163Y-131890D01*
X1295572D01*
X1293276Y-129594D01*
Y-120411D01*
X1307051Y-131890D02*
X1311643D01*
X1309347D01*
Y-118115D01*
X1307051Y-120411D01*
X1327714Y-118115D02*
X1318530D01*
Y-125002D01*
X1323122Y-122706D01*
X1325418D01*
X1327714Y-125002D01*
Y-129594D01*
X1325418Y-131890D01*
X1320826D01*
X1318530Y-129594D01*
X1201440Y-37407D02*
X1190945D01*
Y-53150D01*
X1201440D01*
X1190945Y-45278D02*
X1196192D01*
X1217183Y-40031D02*
X1214559Y-37407D01*
X1209312D01*
X1206688Y-40031D01*
Y-42654D01*
X1209312Y-45278D01*
X1214559D01*
X1217183Y-47902D01*
Y-50526D01*
X1214559Y-53150D01*
X1209312D01*
X1206688Y-50526D01*
X1222431Y-53150D02*
Y-37407D01*
X1230302D01*
X1232926Y-40031D01*
Y-45278D01*
X1230302Y-47902D01*
X1222431D01*
X1238174Y-53150D02*
X1243421D01*
X1240798D01*
Y-37407D01*
X1238174Y-40031D01*
X1261788Y-53150D02*
X1251293D01*
X1261788Y-42654D01*
Y-40031D01*
X1259164Y-37407D01*
X1253917D01*
X1251293Y-40031D01*
X1267036Y-55773D02*
X1277531D01*
X1282779Y-37407D02*
Y-53150D01*
X1290650D01*
X1293274Y-50526D01*
Y-40031D01*
X1290650Y-37407D01*
X1282779D01*
X1309017D02*
X1298522D01*
Y-53150D01*
X1309017D01*
X1298522Y-45278D02*
X1303769D01*
X1314265Y-37407D02*
Y-47902D01*
X1319512Y-53150D01*
X1324760Y-47902D01*
Y-37407D01*
D40*
X12992Y49291D02*
X19094D01*
X12992Y31496D02*
Y49291D01*
Y31496D02*
X16929Y27559D01*
X22835D01*
X64213Y3937D02*
X113425D01*
X64213D02*
Y10827D01*
X113425Y3937D02*
X162638D01*
X113425D02*
Y10827D01*
X162638Y3937D02*
Y10827D01*
X27559Y3937D02*
X64213D01*
X34213Y19685D02*
X83425D01*
Y10827D02*
Y19685D01*
X132638D01*
Y10827D02*
Y19685D01*
X34213Y10827D02*
Y24173D01*
X19094Y39291D02*
X34213Y24173D01*
X22835Y27559D02*
X27559Y22835D01*
Y3937D02*
Y22835D01*
D41*
X1342520Y-110236D02*
Y-102365D01*
X1346455D01*
X1347767Y-103677D01*
Y-106300D01*
X1346455Y-107612D01*
X1342520D01*
X1345144D02*
X1347767Y-110236D01*
X1354327D02*
X1351703D01*
X1350391Y-108924D01*
Y-106300D01*
X1351703Y-104989D01*
X1354327D01*
X1355639Y-106300D01*
Y-107612D01*
X1350391D01*
X1358263Y-104989D02*
X1360886Y-110236D01*
X1363510Y-104989D01*
X988189Y-141735D02*
Y-149606D01*
X992125D01*
X993437Y-148294D01*
Y-143047D01*
X992125Y-141735D01*
X988189D01*
X999996Y-149606D02*
X997372D01*
X996060Y-148294D01*
Y-145671D01*
X997372Y-144359D01*
X999996D01*
X1001308Y-145671D01*
Y-146983D01*
X996060D01*
X1003932Y-149606D02*
X1007868D01*
X1009180Y-148294D01*
X1007868Y-146983D01*
X1005244D01*
X1003932Y-145671D01*
X1005244Y-144359D01*
X1009180D01*
X1014427Y-152230D02*
X1015739D01*
X1017051Y-150918D01*
Y-144359D01*
X1013115D01*
X1011803Y-145671D01*
Y-148294D01*
X1013115Y-149606D01*
X1017051D01*
X1019675D02*
X1022299D01*
X1020987D01*
Y-144359D01*
X1019675D01*
X1026235Y-149606D02*
Y-144359D01*
X1030170D01*
X1031482Y-145671D01*
Y-149606D01*
X1038042D02*
X1035418D01*
X1034106Y-148294D01*
Y-145671D01*
X1035418Y-144359D01*
X1038042D01*
X1039354Y-145671D01*
Y-146983D01*
X1034106D01*
X1041977Y-144359D02*
Y-149606D01*
Y-146983D01*
X1043289Y-145671D01*
X1044601Y-144359D01*
X1045913D01*
X1185039Y-23625D02*
Y-31496D01*
X1188975D01*
X1190287Y-30184D01*
Y-24937D01*
X1188975Y-23625D01*
X1185039D01*
X1194223Y-31496D02*
X1196847D01*
X1198158Y-30184D01*
Y-27560D01*
X1196847Y-26248D01*
X1194223D01*
X1192911Y-27560D01*
Y-30184D01*
X1194223Y-31496D01*
X1206030Y-26248D02*
X1202094D01*
X1200782Y-27560D01*
Y-30184D01*
X1202094Y-31496D01*
X1206030D01*
X1208654Y-26248D02*
Y-30184D01*
X1209966Y-31496D01*
X1213902D01*
Y-26248D01*
X1216525Y-31496D02*
Y-26248D01*
X1217837D01*
X1219149Y-27560D01*
Y-31496D01*
Y-27560D01*
X1220461Y-26248D01*
X1221773Y-27560D01*
Y-31496D01*
X1228333D02*
X1225709D01*
X1224397Y-30184D01*
Y-27560D01*
X1225709Y-26248D01*
X1228333D01*
X1229644Y-27560D01*
Y-28872D01*
X1224397D01*
X1232268Y-31496D02*
Y-26248D01*
X1236204D01*
X1237516Y-27560D01*
Y-31496D01*
X1241452Y-24937D02*
Y-26248D01*
X1240140D01*
X1242764D01*
X1241452D01*
Y-30184D01*
X1242764Y-31496D01*
X1185039Y-62995D02*
Y-70866D01*
X1190287D01*
X1194223Y-65618D02*
X1196847D01*
X1198158Y-66930D01*
Y-70866D01*
X1194223D01*
X1192911Y-69554D01*
X1194223Y-68242D01*
X1198158D01*
X1200782Y-65618D02*
Y-69554D01*
X1202094Y-70866D01*
X1206030D01*
Y-72178D01*
X1204718Y-73490D01*
X1203406D01*
X1206030Y-70866D02*
Y-65618D01*
X1212590Y-70866D02*
X1209966D01*
X1208654Y-69554D01*
Y-66930D01*
X1209966Y-65618D01*
X1212590D01*
X1213902Y-66930D01*
Y-68242D01*
X1208654D01*
X1216525Y-65618D02*
Y-70866D01*
Y-68242D01*
X1217837Y-66930D01*
X1219149Y-65618D01*
X1220461D01*
X1232268Y-70866D02*
Y-62995D01*
X1237516Y-70866D01*
Y-62995D01*
X1241452Y-65618D02*
X1244075D01*
X1245387Y-66930D01*
Y-70866D01*
X1241452D01*
X1240140Y-69554D01*
X1241452Y-68242D01*
X1245387D01*
X1248011Y-70866D02*
Y-65618D01*
X1249323D01*
X1250635Y-66930D01*
Y-70866D01*
Y-66930D01*
X1251947Y-65618D01*
X1253259Y-66930D01*
Y-70866D01*
X1259818D02*
X1257195D01*
X1255883Y-69554D01*
Y-66930D01*
X1257195Y-65618D01*
X1259818D01*
X1261130Y-66930D01*
Y-68242D01*
X1255883D01*
X1185039Y-102365D02*
Y-110236D01*
X1188975D01*
X1190287Y-108924D01*
Y-103677D01*
X1188975Y-102365D01*
X1185039D01*
X1194223Y-104989D02*
X1196847D01*
X1198158Y-106300D01*
Y-110236D01*
X1194223D01*
X1192911Y-108924D01*
X1194223Y-107612D01*
X1198158D01*
X1202094Y-103677D02*
Y-104989D01*
X1200782D01*
X1203406D01*
X1202094D01*
Y-108924D01*
X1203406Y-110236D01*
X1211278D02*
X1208654D01*
X1207342Y-108924D01*
Y-106300D01*
X1208654Y-104989D01*
X1211278D01*
X1212589Y-106300D01*
Y-107612D01*
X1207342D01*
X1185039Y-141735D02*
Y-149606D01*
X1188975D01*
X1190287Y-148294D01*
Y-143047D01*
X1188975Y-141735D01*
X1185039D01*
X1194223Y-149606D02*
X1196847D01*
X1198158Y-148294D01*
Y-145671D01*
X1196847Y-144359D01*
X1194223D01*
X1192911Y-145671D01*
Y-148294D01*
X1194223Y-149606D01*
X1206030Y-144359D02*
X1202094D01*
X1200782Y-145671D01*
Y-148294D01*
X1202094Y-149606D01*
X1206030D01*
X1208654Y-144359D02*
Y-148294D01*
X1209966Y-149606D01*
X1213902D01*
Y-144359D01*
X1216525Y-149606D02*
Y-144359D01*
X1217837D01*
X1219149Y-145671D01*
Y-149606D01*
Y-145671D01*
X1220461Y-144359D01*
X1221773Y-145671D01*
Y-149606D01*
X1228333D02*
X1225709D01*
X1224397Y-148294D01*
Y-145671D01*
X1225709Y-144359D01*
X1228333D01*
X1229644Y-145671D01*
Y-146983D01*
X1224397D01*
X1232268Y-149606D02*
Y-144359D01*
X1236204D01*
X1237516Y-145671D01*
Y-149606D01*
X1241452Y-143047D02*
Y-144359D01*
X1240140D01*
X1242764D01*
X1241452D01*
Y-148294D01*
X1242764Y-149606D01*
D78*
X79405Y78414D02*
D03*
X87205D02*
D03*
X95006D02*
D03*
X103006D02*
D03*
X110805D02*
D03*
X118806D02*
D03*
X56595Y94488D02*
D03*
X56595Y102362D02*
D03*
Y110236D02*
D03*
Y118110D02*
D03*
Y125984D02*
D03*
X56595Y133858D02*
D03*
X56595Y141732D02*
D03*
X56595Y149606D02*
D03*
X140256D02*
D03*
Y141732D02*
D03*
Y133858D02*
D03*
Y125984D02*
D03*
Y118110D02*
D03*
Y110236D02*
D03*
Y102362D02*
D03*
Y94488D02*
D03*
X22165Y127165D02*
D03*
X32165D02*
D03*
D79*
X147795Y41181D02*
D03*
D80*
Y61181D02*
D03*
X127795D02*
D03*
D81*
X64213Y10827D02*
D03*
X132638Y10827D02*
D03*
X162638D02*
D03*
X83425Y10827D02*
D03*
X113425D02*
D03*
X34213D02*
D03*
D82*
X19094Y49291D02*
D03*
Y39291D02*
D03*
D83*
X142638Y10827D02*
D03*
X152638D02*
D03*
X93425Y10827D02*
D03*
X103425D02*
D03*
X181890Y35748D02*
D03*
Y45748D02*
D03*
Y55748D02*
D03*
X54213Y10827D02*
D03*
X44213D02*
D03*
X181890Y88740D02*
D03*
Y98740D02*
D03*
Y108740D02*
D03*
Y118740D02*
D03*
Y128740D02*
D03*
D84*
Y65748D02*
D03*
Y78740D02*
D03*
D85*
X11811Y149606D02*
D03*
Y11811D02*
D03*
X185039D02*
D03*
Y149606D02*
D03*
D86*
X65354Y46260D02*
D03*
Y38780D02*
D03*
D88*
X13780Y120276D02*
D03*
X160827Y56890D02*
D03*
X42520Y103150D02*
D03*
X44488Y96063D02*
D03*
X50000Y90551D02*
D03*
X88583Y33071D02*
D03*
X80709Y31496D02*
D03*
X35827Y56693D02*
D03*
X38976Y42913D02*
D03*
X33071Y33465D02*
D03*
X44882Y40551D02*
D03*
X55905Y54724D02*
D03*
Y58661D02*
D03*
Y71260D02*
D03*
X53150Y75197D02*
D03*
X57087D02*
D03*
X23228Y70866D02*
D03*
X51575Y119291D02*
D03*
Y114567D02*
D03*
X40945Y149606D02*
D03*
X161221Y129823D02*
D03*
X146063Y118110D02*
D03*
X169291Y84646D02*
D03*
X34252Y85827D02*
D03*
Y89370D02*
D03*
X19685Y89961D02*
D03*
X13780Y89961D02*
D03*
X47244Y82480D02*
D03*
X31693Y82480D02*
D03*
X66929Y63878D02*
D03*
X136319Y86614D02*
D03*
X92028Y68898D02*
D03*
X87598Y72835D02*
D03*
X96457Y70866D02*
D03*
X156299Y91732D02*
D03*
X164961D02*
D03*
X32283Y147638D02*
D03*
X164567D02*
D03*
X109941Y29626D02*
D03*
X85433Y67323D02*
D03*
X70472Y52756D02*
D03*
X81496Y42913D02*
D03*
X158268Y147638D02*
D03*
X19291Y75197D02*
D03*
M02*
