G04 Layer_Color=2752767*
%FSLAX25Y25*%
%MOIN*%
G70*
G01*
G75*
%ADD10C,0.00787*%
%ADD14C,0.01575*%
%ADD41C,0.00984*%
%ADD55C,0.01000*%
%ADD89C,0.00600*%
%ADD90C,0.00200*%
%ADD91C,0.00267*%
%ADD92C,0.01260*%
G36*
X1121080Y-64032D02*
Y-64318D01*
Y-64605D01*
Y-64891D01*
Y-65177D01*
Y-65464D01*
Y-65750D01*
Y-66036D01*
Y-66322D01*
Y-66609D01*
Y-66895D01*
Y-67181D01*
Y-67468D01*
Y-67754D01*
Y-68040D01*
Y-68327D01*
Y-68613D01*
Y-68899D01*
Y-69186D01*
Y-69472D01*
Y-69758D01*
X1120793D01*
Y-70044D01*
Y-70331D01*
Y-70617D01*
Y-70903D01*
Y-71190D01*
X1120507D01*
Y-71476D01*
Y-71762D01*
Y-72049D01*
Y-72335D01*
X1120221D01*
Y-72621D01*
Y-72908D01*
Y-73194D01*
Y-73480D01*
X1119934D01*
Y-73767D01*
Y-74053D01*
Y-74339D01*
X1119648D01*
Y-74625D01*
Y-74912D01*
Y-75198D01*
X1119362D01*
Y-75485D01*
Y-75771D01*
Y-76057D01*
X1119075D01*
Y-76343D01*
Y-76630D01*
Y-76916D01*
X1118789D01*
Y-77202D01*
Y-77489D01*
X1118503D01*
Y-77775D01*
Y-78061D01*
X1118217D01*
Y-78348D01*
Y-78634D01*
Y-78920D01*
X1117930D01*
Y-79207D01*
Y-79493D01*
X1117644D01*
Y-79779D01*
Y-80066D01*
Y-80352D01*
X1117358D01*
Y-80638D01*
Y-80924D01*
X1117071D01*
Y-81211D01*
Y-81497D01*
Y-81783D01*
X1116785D01*
Y-82070D01*
Y-82356D01*
X1116499D01*
Y-82642D01*
Y-82929D01*
Y-83215D01*
X1116212D01*
Y-83501D01*
Y-83788D01*
X1115926D01*
Y-84074D01*
Y-84360D01*
Y-84646D01*
X1115640D01*
Y-84933D01*
Y-85219D01*
X1115353D01*
Y-85505D01*
Y-85792D01*
Y-86078D01*
X1115067D01*
Y-86364D01*
Y-86651D01*
X1114781D01*
Y-86937D01*
Y-87223D01*
Y-87510D01*
X1114494D01*
Y-87796D01*
Y-88082D01*
X1114208D01*
Y-88369D01*
Y-88655D01*
Y-88941D01*
X1113922D01*
Y-89227D01*
Y-89514D01*
X1113636D01*
Y-89800D01*
Y-90086D01*
Y-90373D01*
X1113349D01*
Y-90659D01*
Y-90945D01*
X1113063D01*
Y-91232D01*
Y-91518D01*
Y-91804D01*
X1112776D01*
Y-92091D01*
Y-92377D01*
X1112490D01*
Y-92663D01*
Y-92950D01*
Y-93236D01*
X1112204D01*
Y-93522D01*
Y-93809D01*
X1111918D01*
Y-94095D01*
Y-94381D01*
Y-94667D01*
X1111631D01*
Y-94954D01*
Y-95240D01*
X1111345D01*
Y-95526D01*
Y-95813D01*
Y-96099D01*
X1111059D01*
Y-96385D01*
Y-96672D01*
X1110772D01*
Y-96958D01*
Y-97244D01*
Y-97531D01*
X1110486D01*
Y-97817D01*
Y-98103D01*
X1110200D01*
Y-98390D01*
Y-98676D01*
Y-98962D01*
X1109913D01*
Y-99248D01*
Y-99535D01*
X1109627D01*
Y-99821D01*
Y-100107D01*
Y-100394D01*
X1109341D01*
Y-100680D01*
Y-100966D01*
X1109054D01*
Y-101253D01*
Y-101539D01*
X1108768D01*
Y-101825D01*
Y-102112D01*
X1108482D01*
Y-102398D01*
Y-102684D01*
Y-102971D01*
X1108195D01*
Y-103257D01*
X1107909D01*
Y-103543D01*
Y-103829D01*
Y-104116D01*
X1107623D01*
Y-104402D01*
X1107337D01*
Y-104688D01*
Y-104975D01*
X1107050D01*
Y-105261D01*
Y-105547D01*
X1106764D01*
Y-105834D01*
Y-106120D01*
X1106478D01*
Y-106406D01*
Y-106693D01*
X1106191D01*
Y-106979D01*
X1105905D01*
Y-107265D01*
Y-107552D01*
X1105619D01*
Y-107838D01*
Y-108124D01*
X1105332D01*
Y-108411D01*
X1105046D01*
Y-108697D01*
X1104760D01*
Y-108983D01*
Y-109269D01*
X1104473D01*
Y-109556D01*
X1104187D01*
Y-109842D01*
Y-110128D01*
X1103901D01*
Y-110415D01*
X1103615D01*
Y-110701D01*
X1103328D01*
Y-110987D01*
Y-111274D01*
X1103042D01*
Y-111560D01*
X1102756D01*
Y-111846D01*
X1102469D01*
Y-112133D01*
X1102183D01*
Y-112419D01*
X1101897D01*
Y-112705D01*
Y-112991D01*
X1101610D01*
Y-113278D01*
X1101324D01*
Y-113564D01*
X1101038D01*
Y-113850D01*
X1100751D01*
Y-114137D01*
X1100465D01*
Y-114423D01*
X1100179D01*
Y-114709D01*
X1099892D01*
Y-114996D01*
X1099320D01*
Y-115282D01*
X1099034D01*
Y-115568D01*
X1098747D01*
Y-115855D01*
X1098461D01*
Y-116141D01*
X1098175D01*
Y-116427D01*
X1097602D01*
Y-116714D01*
X1097316D01*
Y-117000D01*
X1096743D01*
Y-117286D01*
X1096457D01*
Y-117572D01*
X1095884D01*
Y-117859D01*
X1095598D01*
Y-118145D01*
X1095025D01*
Y-118431D01*
X1094452D01*
Y-118718D01*
X1093880D01*
Y-119004D01*
X1093307D01*
Y-119290D01*
X1092735D01*
Y-119577D01*
X1091876D01*
Y-119863D01*
X1091303D01*
Y-120149D01*
X1090444D01*
Y-120436D01*
X1089299D01*
Y-120722D01*
X1088154D01*
Y-121008D01*
X1086436D01*
Y-121294D01*
X1084432D01*
Y-121581D01*
X1084145D01*
Y-121294D01*
Y-121008D01*
Y-120722D01*
Y-120436D01*
Y-120149D01*
Y-119863D01*
Y-119577D01*
Y-119290D01*
Y-119004D01*
Y-118718D01*
Y-118431D01*
Y-118145D01*
Y-117859D01*
Y-117572D01*
Y-117286D01*
Y-117000D01*
Y-116714D01*
Y-116427D01*
Y-116141D01*
Y-115855D01*
Y-115568D01*
Y-115282D01*
Y-114996D01*
Y-114709D01*
Y-114423D01*
Y-114137D01*
Y-113850D01*
Y-113564D01*
Y-113278D01*
Y-112991D01*
Y-112705D01*
Y-112419D01*
Y-112133D01*
X1084718D01*
Y-111846D01*
X1085291D01*
Y-111560D01*
X1085863D01*
Y-111274D01*
X1086436D01*
Y-110987D01*
X1087008D01*
Y-110701D01*
X1087581D01*
Y-110415D01*
X1087867D01*
Y-110128D01*
X1088440D01*
Y-109842D01*
X1088726D01*
Y-109556D01*
X1089299D01*
Y-109269D01*
X1089585D01*
Y-108983D01*
X1089872D01*
Y-108697D01*
X1090444D01*
Y-108411D01*
X1090730D01*
Y-108124D01*
X1091017D01*
Y-107838D01*
X1091303D01*
Y-107552D01*
X1091589D01*
Y-107265D01*
X1091876D01*
Y-106979D01*
X1092162D01*
Y-106693D01*
X1092448D01*
Y-106406D01*
X1092735D01*
Y-106120D01*
X1093021D01*
Y-105834D01*
X1093307D01*
Y-105547D01*
X1093594D01*
Y-105261D01*
Y-104975D01*
X1093880D01*
Y-104688D01*
X1094166D01*
Y-104402D01*
X1094452D01*
Y-104116D01*
Y-103829D01*
X1094739D01*
Y-103543D01*
X1095025D01*
Y-103257D01*
Y-102971D01*
X1095311D01*
Y-102684D01*
Y-102398D01*
X1095598D01*
Y-102112D01*
X1095884D01*
Y-101825D01*
Y-101539D01*
X1096170D01*
Y-101253D01*
Y-100966D01*
X1096457D01*
Y-100680D01*
Y-100394D01*
X1094739D01*
Y-100107D01*
X1092735D01*
Y-99821D01*
X1091589D01*
Y-99535D01*
X1091017D01*
Y-99248D01*
X1090158D01*
Y-98962D01*
X1089585D01*
Y-98676D01*
X1089299D01*
Y-98390D01*
X1088726D01*
Y-98103D01*
X1088440D01*
Y-97817D01*
X1088154D01*
Y-97531D01*
X1087867D01*
Y-97244D01*
X1087581D01*
Y-96958D01*
X1087295D01*
Y-96672D01*
Y-96385D01*
X1087008D01*
Y-96099D01*
X1086722D01*
Y-95813D01*
Y-95526D01*
X1086436D01*
Y-95240D01*
Y-94954D01*
X1086149D01*
Y-94667D01*
Y-94381D01*
X1085863D01*
Y-94095D01*
Y-93809D01*
Y-93522D01*
X1085577D01*
Y-93236D01*
Y-92950D01*
Y-92663D01*
Y-92377D01*
X1085291D01*
Y-92091D01*
Y-91804D01*
Y-91518D01*
Y-91232D01*
Y-90945D01*
Y-90659D01*
Y-90373D01*
X1085004D01*
Y-90086D01*
Y-89800D01*
Y-89514D01*
Y-89227D01*
Y-88941D01*
Y-88655D01*
Y-88369D01*
Y-88082D01*
Y-87796D01*
Y-87510D01*
Y-87223D01*
Y-86937D01*
Y-86651D01*
Y-86364D01*
Y-86078D01*
X1084718D01*
Y-85792D01*
Y-85505D01*
Y-85219D01*
Y-84933D01*
Y-84646D01*
Y-84360D01*
Y-84074D01*
Y-83788D01*
Y-83501D01*
Y-83215D01*
Y-82929D01*
Y-82642D01*
Y-82356D01*
Y-82070D01*
Y-81783D01*
X1084432D01*
Y-81497D01*
Y-81211D01*
Y-80924D01*
Y-80638D01*
Y-80352D01*
Y-80066D01*
Y-79779D01*
Y-79493D01*
Y-79207D01*
Y-78920D01*
Y-78634D01*
Y-78348D01*
Y-78061D01*
Y-77775D01*
Y-77489D01*
Y-77202D01*
X1084145D01*
Y-76916D01*
Y-76630D01*
Y-76343D01*
Y-76057D01*
Y-75771D01*
Y-75485D01*
Y-75198D01*
Y-74912D01*
Y-74625D01*
Y-74339D01*
Y-74053D01*
Y-73767D01*
Y-73480D01*
Y-73194D01*
Y-72908D01*
Y-72621D01*
X1083859D01*
Y-72335D01*
Y-72049D01*
Y-71762D01*
Y-71476D01*
Y-71190D01*
Y-70903D01*
Y-70617D01*
Y-70331D01*
Y-70044D01*
Y-69758D01*
Y-69472D01*
Y-69186D01*
Y-68899D01*
Y-68613D01*
X1083573D01*
Y-68327D01*
Y-68040D01*
Y-67754D01*
Y-67468D01*
Y-67181D01*
Y-66895D01*
Y-66609D01*
Y-66322D01*
Y-66036D01*
Y-65750D01*
Y-65464D01*
Y-65177D01*
Y-64891D01*
Y-64605D01*
Y-64318D01*
Y-64032D01*
X1083286D01*
Y-63746D01*
X1097029D01*
Y-64032D01*
Y-64318D01*
Y-64605D01*
Y-64891D01*
Y-65177D01*
Y-65464D01*
Y-65750D01*
Y-66036D01*
Y-66322D01*
Y-66609D01*
Y-66895D01*
Y-67181D01*
Y-67468D01*
Y-67754D01*
X1097316D01*
Y-68040D01*
Y-68327D01*
Y-68613D01*
Y-68899D01*
Y-69186D01*
Y-69472D01*
Y-69758D01*
Y-70044D01*
Y-70331D01*
Y-70617D01*
Y-70903D01*
Y-71190D01*
Y-71476D01*
Y-71762D01*
Y-72049D01*
Y-72335D01*
Y-72621D01*
Y-72908D01*
Y-73194D01*
Y-73480D01*
Y-73767D01*
Y-74053D01*
Y-74339D01*
Y-74625D01*
Y-74912D01*
Y-75198D01*
Y-75485D01*
Y-75771D01*
Y-76057D01*
Y-76343D01*
Y-76630D01*
Y-76916D01*
Y-77202D01*
Y-77489D01*
Y-77775D01*
Y-78061D01*
Y-78348D01*
Y-78634D01*
Y-78920D01*
Y-79207D01*
Y-79493D01*
X1097602D01*
Y-79779D01*
X1097316D01*
Y-80066D01*
Y-80352D01*
X1097602D01*
Y-80638D01*
Y-80924D01*
Y-81211D01*
Y-81497D01*
Y-81783D01*
Y-82070D01*
Y-82356D01*
Y-82642D01*
Y-82929D01*
Y-83215D01*
Y-83501D01*
Y-83788D01*
Y-84074D01*
Y-84360D01*
Y-84646D01*
Y-84933D01*
Y-85219D01*
Y-85505D01*
Y-85792D01*
Y-86078D01*
Y-86364D01*
Y-86651D01*
Y-86937D01*
Y-87223D01*
Y-87510D01*
Y-87796D01*
X1097888D01*
Y-88082D01*
Y-88369D01*
Y-88655D01*
X1098175D01*
Y-88941D01*
X1098461D01*
Y-89227D01*
X1098747D01*
Y-89514D01*
X1099606D01*
Y-89800D01*
X1100465D01*
Y-89514D01*
X1100751D01*
Y-89227D01*
Y-88941D01*
Y-88655D01*
X1101038D01*
Y-88369D01*
Y-88082D01*
X1101324D01*
Y-87796D01*
Y-87510D01*
Y-87223D01*
X1101610D01*
Y-86937D01*
Y-86651D01*
Y-86364D01*
X1101897D01*
Y-86078D01*
Y-85792D01*
Y-85505D01*
X1102183D01*
Y-85219D01*
Y-84933D01*
Y-84646D01*
X1102469D01*
Y-84360D01*
Y-84074D01*
X1102756D01*
Y-83788D01*
Y-83501D01*
Y-83215D01*
X1103042D01*
Y-82929D01*
Y-82642D01*
Y-82356D01*
X1103328D01*
Y-82070D01*
Y-81783D01*
Y-81497D01*
X1103615D01*
Y-81211D01*
Y-80924D01*
X1103901D01*
Y-80638D01*
Y-80352D01*
Y-80066D01*
X1104187D01*
Y-79779D01*
Y-79493D01*
Y-79207D01*
X1104473D01*
Y-78920D01*
Y-78634D01*
Y-78348D01*
X1104760D01*
Y-78061D01*
Y-77775D01*
X1105046D01*
Y-77489D01*
Y-77202D01*
Y-76916D01*
X1105332D01*
Y-76630D01*
Y-76343D01*
Y-76057D01*
X1105619D01*
Y-75771D01*
Y-75485D01*
Y-75198D01*
X1105905D01*
Y-74912D01*
Y-74625D01*
X1106191D01*
Y-74339D01*
Y-74053D01*
Y-73767D01*
X1106478D01*
Y-73480D01*
Y-73194D01*
Y-72908D01*
X1106764D01*
Y-72621D01*
Y-72335D01*
Y-72049D01*
X1107050D01*
Y-71762D01*
Y-71476D01*
Y-71190D01*
Y-70903D01*
X1107337D01*
Y-70617D01*
Y-70331D01*
Y-70044D01*
Y-69758D01*
X1107623D01*
Y-69472D01*
Y-69186D01*
Y-68899D01*
Y-68613D01*
Y-68327D01*
X1107909D01*
Y-68040D01*
Y-67754D01*
Y-67468D01*
Y-67181D01*
Y-66895D01*
Y-66609D01*
X1108195D01*
Y-66322D01*
Y-66036D01*
Y-65750D01*
Y-65464D01*
Y-65177D01*
Y-64891D01*
Y-64605D01*
Y-64318D01*
Y-64032D01*
Y-63746D01*
X1121080D01*
Y-64032D01*
D02*
G37*
G36*
X1063244Y-46567D02*
Y-46853D01*
X1062958D01*
Y-47139D01*
Y-47426D01*
Y-47712D01*
Y-47998D01*
Y-48285D01*
Y-48571D01*
X1062672D01*
Y-48857D01*
Y-49144D01*
Y-49430D01*
Y-49716D01*
Y-50003D01*
Y-50289D01*
X1062385D01*
Y-50575D01*
Y-50862D01*
Y-51148D01*
Y-51434D01*
Y-51720D01*
Y-52007D01*
Y-52293D01*
X1062099D01*
Y-52579D01*
Y-52866D01*
Y-53152D01*
Y-53438D01*
Y-53725D01*
Y-54011D01*
X1061813D01*
Y-54297D01*
Y-54584D01*
Y-54870D01*
Y-55156D01*
Y-55443D01*
Y-55729D01*
X1061526D01*
Y-56015D01*
Y-56301D01*
Y-56588D01*
Y-56874D01*
Y-57161D01*
Y-57447D01*
Y-57733D01*
X1061240D01*
Y-58019D01*
Y-58306D01*
Y-58592D01*
Y-58878D01*
Y-59165D01*
Y-59451D01*
X1060954D01*
Y-59737D01*
Y-60024D01*
Y-60310D01*
Y-60596D01*
Y-60883D01*
Y-61169D01*
X1060668D01*
Y-61455D01*
Y-61742D01*
Y-62028D01*
Y-62314D01*
Y-62600D01*
Y-62887D01*
X1060381D01*
Y-63173D01*
Y-63459D01*
Y-63746D01*
Y-64032D01*
Y-64318D01*
Y-64605D01*
Y-64891D01*
X1060095D01*
Y-65177D01*
Y-65464D01*
Y-65750D01*
Y-66036D01*
Y-66322D01*
Y-66609D01*
X1059809D01*
Y-66895D01*
Y-67181D01*
X1060381D01*
Y-66895D01*
X1060668D01*
Y-66609D01*
X1060954D01*
Y-66322D01*
X1061526D01*
Y-66036D01*
X1061813D01*
Y-65750D01*
X1062099D01*
Y-65464D01*
X1062672D01*
Y-65177D01*
X1063244D01*
Y-64891D01*
X1063531D01*
Y-64605D01*
X1064103D01*
Y-64318D01*
X1064962D01*
Y-64032D01*
X1065535D01*
Y-63746D01*
X1066394D01*
Y-63459D01*
X1067825D01*
Y-63173D01*
X1074124D01*
Y-63459D01*
X1075270D01*
Y-63746D01*
X1076128D01*
Y-64032D01*
X1076701D01*
Y-64318D01*
X1076987D01*
Y-64605D01*
X1077560D01*
Y-64891D01*
X1077846D01*
Y-65177D01*
X1078133D01*
Y-65464D01*
X1078419D01*
Y-65750D01*
X1078705D01*
Y-66036D01*
Y-66322D01*
X1078992D01*
Y-66609D01*
Y-66895D01*
X1079278D01*
Y-67181D01*
Y-67468D01*
Y-67754D01*
X1079564D01*
Y-68040D01*
Y-68327D01*
Y-68613D01*
Y-68899D01*
X1079850D01*
Y-69186D01*
Y-69472D01*
Y-69758D01*
Y-70044D01*
Y-70331D01*
Y-70617D01*
Y-70903D01*
Y-71190D01*
Y-71476D01*
Y-71762D01*
Y-72049D01*
Y-72335D01*
Y-72621D01*
Y-72908D01*
Y-73194D01*
Y-73480D01*
Y-73767D01*
Y-74053D01*
X1079564D01*
Y-74339D01*
Y-74625D01*
Y-74912D01*
Y-75198D01*
Y-75485D01*
Y-75771D01*
Y-76057D01*
X1079278D01*
Y-76343D01*
Y-76630D01*
Y-76916D01*
Y-77202D01*
Y-77489D01*
Y-77775D01*
Y-78061D01*
X1078992D01*
Y-78348D01*
Y-78634D01*
Y-78920D01*
Y-79207D01*
Y-79493D01*
Y-79779D01*
X1078705D01*
Y-80066D01*
Y-80352D01*
Y-80638D01*
Y-80924D01*
Y-81211D01*
Y-81497D01*
X1078419D01*
Y-81783D01*
Y-82070D01*
Y-82356D01*
Y-82642D01*
Y-82929D01*
Y-83215D01*
X1078133D01*
Y-83501D01*
Y-83788D01*
Y-84074D01*
Y-84360D01*
Y-84646D01*
Y-84933D01*
Y-85219D01*
X1077846D01*
Y-85505D01*
Y-85792D01*
Y-86078D01*
Y-86364D01*
Y-86651D01*
Y-86937D01*
X1077560D01*
Y-87223D01*
Y-87510D01*
Y-87796D01*
Y-88082D01*
Y-88369D01*
Y-88655D01*
X1077274D01*
Y-88941D01*
Y-89227D01*
Y-89514D01*
Y-89800D01*
Y-90086D01*
Y-90373D01*
Y-90659D01*
X1076987D01*
Y-90945D01*
Y-91232D01*
Y-91518D01*
Y-91804D01*
Y-92091D01*
Y-92377D01*
X1076701D01*
Y-92663D01*
Y-92950D01*
Y-93236D01*
Y-93522D01*
Y-93809D01*
Y-94095D01*
X1076415D01*
Y-94381D01*
Y-94667D01*
Y-94954D01*
Y-95240D01*
Y-95526D01*
Y-95813D01*
X1076128D01*
Y-96099D01*
Y-96385D01*
Y-96672D01*
Y-96958D01*
Y-97244D01*
Y-97531D01*
Y-97817D01*
X1075842D01*
Y-98103D01*
Y-98390D01*
Y-98676D01*
Y-98962D01*
Y-99248D01*
Y-99535D01*
X1075556D01*
Y-99821D01*
Y-100107D01*
X1062385D01*
Y-99821D01*
Y-99535D01*
X1062672D01*
Y-99248D01*
Y-98962D01*
Y-98676D01*
Y-98390D01*
Y-98103D01*
Y-97817D01*
X1062958D01*
Y-97531D01*
Y-97244D01*
Y-96958D01*
Y-96672D01*
Y-96385D01*
Y-96099D01*
Y-95813D01*
X1063244D01*
Y-95526D01*
Y-95240D01*
Y-94954D01*
Y-94667D01*
Y-94381D01*
Y-94095D01*
X1063531D01*
Y-93809D01*
Y-93522D01*
Y-93236D01*
Y-92950D01*
Y-92663D01*
Y-92377D01*
X1063817D01*
Y-92091D01*
Y-91804D01*
Y-91518D01*
Y-91232D01*
Y-90945D01*
Y-90659D01*
Y-90373D01*
X1064103D01*
Y-90086D01*
Y-89800D01*
Y-89514D01*
Y-89227D01*
Y-88941D01*
Y-88655D01*
X1064390D01*
Y-88369D01*
Y-88082D01*
Y-87796D01*
Y-87510D01*
Y-87223D01*
Y-86937D01*
Y-86651D01*
X1064676D01*
Y-86364D01*
Y-86078D01*
Y-85792D01*
Y-85505D01*
Y-85219D01*
Y-84933D01*
X1064962D01*
Y-84646D01*
Y-84360D01*
Y-84074D01*
Y-83788D01*
Y-83501D01*
Y-83215D01*
X1065249D01*
Y-82929D01*
Y-82642D01*
Y-82356D01*
Y-82070D01*
Y-81783D01*
Y-81497D01*
X1065535D01*
Y-81211D01*
Y-80924D01*
Y-80638D01*
Y-80352D01*
Y-80066D01*
Y-79779D01*
Y-79493D01*
X1065821D01*
Y-79207D01*
Y-78920D01*
Y-78634D01*
Y-78348D01*
Y-78061D01*
Y-77775D01*
X1066107D01*
Y-77489D01*
Y-77202D01*
Y-76916D01*
Y-76630D01*
Y-76343D01*
Y-76057D01*
Y-75771D01*
X1066394D01*
Y-75485D01*
Y-75198D01*
Y-74912D01*
Y-74625D01*
Y-74339D01*
Y-74053D01*
X1066107D01*
Y-73767D01*
Y-73480D01*
X1065821D01*
Y-73194D01*
X1065535D01*
Y-72908D01*
X1064962D01*
Y-72621D01*
X1063244D01*
Y-72908D01*
X1061813D01*
Y-73194D01*
X1060954D01*
Y-73480D01*
X1060381D01*
Y-73767D01*
X1060095D01*
Y-74053D01*
X1059522D01*
Y-74339D01*
X1059236D01*
Y-74625D01*
X1058950D01*
Y-74912D01*
Y-75198D01*
X1058663D01*
Y-75485D01*
Y-75771D01*
Y-76057D01*
X1058377D01*
Y-76343D01*
Y-76630D01*
Y-76916D01*
Y-77202D01*
Y-77489D01*
Y-77775D01*
X1058091D01*
Y-78061D01*
Y-78348D01*
Y-78634D01*
Y-78920D01*
Y-79207D01*
Y-79493D01*
Y-79779D01*
X1057804D01*
Y-80066D01*
Y-80352D01*
Y-80638D01*
Y-80924D01*
Y-81211D01*
Y-81497D01*
X1057518D01*
Y-81783D01*
Y-82070D01*
Y-82356D01*
Y-82642D01*
Y-82929D01*
Y-83215D01*
X1057232D01*
Y-83501D01*
Y-83788D01*
Y-84074D01*
Y-84360D01*
Y-84646D01*
Y-84933D01*
X1056946D01*
Y-85219D01*
Y-85505D01*
Y-85792D01*
Y-86078D01*
Y-86364D01*
Y-86651D01*
Y-86937D01*
X1056659D01*
Y-87223D01*
Y-87510D01*
Y-87796D01*
Y-88082D01*
Y-88369D01*
Y-88655D01*
X1056373D01*
Y-88941D01*
Y-89227D01*
Y-89514D01*
Y-89800D01*
Y-90086D01*
Y-90373D01*
X1056087D01*
Y-90659D01*
Y-90945D01*
Y-91232D01*
Y-91518D01*
Y-91804D01*
Y-92091D01*
Y-92377D01*
X1055800D01*
Y-92663D01*
Y-92950D01*
Y-93236D01*
Y-93522D01*
Y-93809D01*
Y-94095D01*
X1055514D01*
Y-94381D01*
Y-94667D01*
Y-94954D01*
Y-95240D01*
Y-95526D01*
Y-95813D01*
X1055228D01*
Y-96099D01*
Y-96385D01*
Y-96672D01*
Y-96958D01*
Y-97244D01*
Y-97531D01*
X1054941D01*
Y-97817D01*
Y-98103D01*
Y-98390D01*
Y-98676D01*
Y-98962D01*
Y-99248D01*
Y-99535D01*
X1054655D01*
Y-99821D01*
Y-100107D01*
X1041485D01*
Y-99821D01*
Y-99535D01*
X1041771D01*
Y-99248D01*
Y-98962D01*
Y-98676D01*
Y-98390D01*
Y-98103D01*
Y-97817D01*
Y-97531D01*
X1042057D01*
Y-97244D01*
Y-96958D01*
Y-96672D01*
Y-96385D01*
Y-96099D01*
Y-95813D01*
X1042344D01*
Y-95526D01*
Y-95240D01*
Y-94954D01*
Y-94667D01*
Y-94381D01*
Y-94095D01*
X1042630D01*
Y-93809D01*
Y-93522D01*
Y-93236D01*
Y-92950D01*
Y-92663D01*
Y-92377D01*
Y-92091D01*
X1042916D01*
Y-91804D01*
Y-91518D01*
Y-91232D01*
Y-90945D01*
Y-90659D01*
Y-90373D01*
X1043202D01*
Y-90086D01*
Y-89800D01*
Y-89514D01*
Y-89227D01*
Y-88941D01*
Y-88655D01*
X1043489D01*
Y-88369D01*
Y-88082D01*
Y-87796D01*
Y-87510D01*
Y-87223D01*
Y-86937D01*
X1043775D01*
Y-86651D01*
Y-86364D01*
Y-86078D01*
Y-85792D01*
Y-85505D01*
Y-85219D01*
Y-84933D01*
X1044061D01*
Y-84646D01*
Y-84360D01*
Y-84074D01*
Y-83788D01*
Y-83501D01*
Y-83215D01*
X1044348D01*
Y-82929D01*
Y-82642D01*
Y-82356D01*
Y-82070D01*
Y-81783D01*
Y-81497D01*
X1044634D01*
Y-81211D01*
Y-80924D01*
Y-80638D01*
Y-80352D01*
Y-80066D01*
Y-79779D01*
Y-79493D01*
X1044920D01*
Y-79207D01*
Y-78920D01*
Y-78634D01*
Y-78348D01*
Y-78061D01*
Y-77775D01*
X1045207D01*
Y-77489D01*
Y-77202D01*
Y-76916D01*
Y-76630D01*
Y-76343D01*
Y-76057D01*
X1045493D01*
Y-75771D01*
Y-75485D01*
Y-75198D01*
Y-74912D01*
Y-74625D01*
Y-74339D01*
X1045779D01*
Y-74053D01*
Y-73767D01*
Y-73480D01*
Y-73194D01*
Y-72908D01*
Y-72621D01*
Y-72335D01*
X1046066D01*
Y-72049D01*
Y-71762D01*
Y-71476D01*
Y-71190D01*
Y-70903D01*
Y-70617D01*
X1046352D01*
Y-70331D01*
Y-70044D01*
Y-69758D01*
Y-69472D01*
Y-69186D01*
Y-68899D01*
X1046638D01*
Y-68613D01*
Y-68327D01*
Y-68040D01*
Y-67754D01*
Y-67468D01*
Y-67181D01*
X1046925D01*
Y-66895D01*
Y-66609D01*
Y-66322D01*
Y-66036D01*
Y-65750D01*
Y-65464D01*
Y-65177D01*
X1047211D01*
Y-64891D01*
Y-64605D01*
Y-64318D01*
Y-64032D01*
Y-63746D01*
Y-63459D01*
X1047497D01*
Y-63173D01*
Y-62887D01*
Y-62600D01*
Y-62314D01*
Y-62028D01*
Y-61742D01*
X1047783D01*
Y-61455D01*
Y-61169D01*
Y-60883D01*
Y-60596D01*
Y-60310D01*
Y-60024D01*
Y-59737D01*
X1048070D01*
Y-59451D01*
Y-59165D01*
Y-58878D01*
Y-58592D01*
Y-58306D01*
Y-58019D01*
X1048356D01*
Y-57733D01*
Y-57447D01*
Y-57161D01*
Y-56874D01*
Y-56588D01*
Y-56301D01*
X1048642D01*
Y-56015D01*
Y-55729D01*
Y-55443D01*
Y-55156D01*
Y-54870D01*
Y-54584D01*
X1048929D01*
Y-54297D01*
Y-54011D01*
Y-53725D01*
Y-53438D01*
Y-53152D01*
Y-52866D01*
Y-52579D01*
X1049215D01*
Y-52293D01*
Y-52007D01*
Y-51720D01*
Y-51434D01*
Y-51148D01*
Y-50862D01*
X1049501D01*
Y-50575D01*
Y-50289D01*
Y-50003D01*
Y-49716D01*
Y-49430D01*
Y-49144D01*
X1049788D01*
Y-48857D01*
Y-48571D01*
Y-48285D01*
Y-47998D01*
Y-47712D01*
Y-47426D01*
Y-47139D01*
X1050074D01*
Y-46853D01*
Y-46567D01*
Y-46281D01*
X1063244D01*
Y-46567D01*
D02*
G37*
G36*
X1032036Y-50003D02*
X1033754D01*
Y-50289D01*
X1034613D01*
Y-50575D01*
X1035472D01*
Y-50862D01*
X1036331D01*
Y-51148D01*
X1036904D01*
Y-51434D01*
X1037190D01*
Y-51720D01*
X1037763D01*
Y-52007D01*
X1038049D01*
Y-52293D01*
X1038622D01*
Y-52579D01*
X1038908D01*
Y-52866D01*
X1039194D01*
Y-53152D01*
X1039480D01*
Y-53438D01*
X1039767D01*
Y-53725D01*
X1040053D01*
Y-54011D01*
X1040339D01*
Y-54297D01*
Y-54584D01*
X1040626D01*
Y-54870D01*
X1040912D01*
Y-55156D01*
Y-55443D01*
X1041198D01*
Y-55729D01*
X1041485D01*
Y-56015D01*
Y-56301D01*
X1041771D01*
Y-56588D01*
Y-56874D01*
Y-57161D01*
X1042057D01*
Y-57447D01*
Y-57733D01*
Y-58019D01*
X1042344D01*
Y-58306D01*
Y-58592D01*
Y-58878D01*
Y-59165D01*
X1042630D01*
Y-59451D01*
Y-59737D01*
Y-60024D01*
Y-60310D01*
Y-60596D01*
X1042916D01*
Y-60883D01*
Y-61169D01*
Y-61455D01*
Y-61742D01*
Y-62028D01*
Y-62314D01*
Y-62600D01*
Y-62887D01*
Y-63173D01*
Y-63459D01*
Y-63746D01*
Y-64032D01*
Y-64318D01*
Y-64605D01*
Y-64891D01*
Y-65177D01*
Y-65464D01*
Y-65750D01*
Y-66036D01*
Y-66322D01*
X1042630D01*
Y-66609D01*
Y-66895D01*
Y-67181D01*
Y-67468D01*
Y-67754D01*
Y-68040D01*
Y-68327D01*
X1042344D01*
Y-68613D01*
Y-68899D01*
Y-69186D01*
Y-69472D01*
Y-69758D01*
X1042057D01*
Y-70044D01*
Y-70331D01*
Y-70617D01*
Y-70903D01*
Y-71190D01*
X1041771D01*
Y-71476D01*
Y-71762D01*
Y-72049D01*
X1041485D01*
Y-72335D01*
Y-72621D01*
Y-72908D01*
Y-73194D01*
X1041198D01*
Y-73480D01*
Y-73767D01*
Y-74053D01*
X1040912D01*
Y-74339D01*
Y-74625D01*
X1040626D01*
Y-74912D01*
Y-75198D01*
Y-75485D01*
X1040339D01*
Y-75771D01*
Y-76057D01*
X1040053D01*
Y-76343D01*
Y-76630D01*
X1039767D01*
Y-76916D01*
Y-77202D01*
X1039480D01*
Y-77489D01*
X1039194D01*
Y-77775D01*
Y-78061D01*
X1038908D01*
Y-78348D01*
X1038622D01*
Y-78634D01*
X1038335D01*
Y-78920D01*
Y-79207D01*
X1038049D01*
Y-79493D01*
X1037763D01*
Y-79779D01*
X1037476D01*
Y-80066D01*
X1037190D01*
Y-80352D01*
X1036904D01*
Y-80638D01*
X1036331D01*
Y-80924D01*
X1036045D01*
Y-81211D01*
X1035472D01*
Y-81497D01*
X1035186D01*
Y-81783D01*
X1034613D01*
Y-82070D01*
X1033754D01*
Y-82356D01*
X1032895D01*
Y-82642D01*
X1032036D01*
Y-82929D01*
X1030318D01*
Y-83215D01*
X1025165D01*
Y-82929D01*
X1022588D01*
Y-82642D01*
X1020584D01*
Y-82356D01*
X1019152D01*
Y-82070D01*
X1017721D01*
Y-81783D01*
X1016289D01*
Y-82070D01*
Y-82356D01*
Y-82642D01*
Y-82929D01*
Y-83215D01*
Y-83501D01*
Y-83788D01*
X1016003D01*
Y-84074D01*
Y-84360D01*
Y-84646D01*
Y-84933D01*
Y-85219D01*
Y-85505D01*
X1015716D01*
Y-85792D01*
Y-86078D01*
Y-86364D01*
Y-86651D01*
Y-86937D01*
Y-87223D01*
X1015430D01*
Y-87510D01*
Y-87796D01*
Y-88082D01*
Y-88369D01*
Y-88655D01*
Y-88941D01*
Y-89227D01*
X1015144D01*
Y-89514D01*
Y-89800D01*
Y-90086D01*
Y-90373D01*
Y-90659D01*
Y-90945D01*
X1014857D01*
Y-91232D01*
Y-91518D01*
Y-91804D01*
Y-92091D01*
Y-92377D01*
Y-92663D01*
X1014571D01*
Y-92950D01*
Y-93236D01*
Y-93522D01*
Y-93809D01*
Y-94095D01*
Y-94381D01*
Y-94667D01*
X1014285D01*
Y-94954D01*
Y-95240D01*
Y-95526D01*
Y-95813D01*
Y-96099D01*
Y-96385D01*
X1013999D01*
Y-96672D01*
Y-96958D01*
Y-97244D01*
Y-97531D01*
Y-97817D01*
Y-98103D01*
X1013712D01*
Y-98390D01*
Y-98676D01*
Y-98962D01*
Y-99248D01*
Y-99535D01*
Y-99821D01*
Y-100107D01*
X1000256D01*
Y-99821D01*
X1000542D01*
Y-99535D01*
Y-99248D01*
Y-98962D01*
Y-98676D01*
Y-98390D01*
X1000828D01*
Y-98103D01*
Y-97817D01*
Y-97531D01*
Y-97244D01*
Y-96958D01*
Y-96672D01*
Y-96385D01*
X1001114D01*
Y-96099D01*
Y-95813D01*
Y-95526D01*
Y-95240D01*
Y-94954D01*
Y-94667D01*
X1001401D01*
Y-94381D01*
Y-94095D01*
Y-93809D01*
Y-93522D01*
Y-93236D01*
Y-92950D01*
X1001687D01*
Y-92663D01*
Y-92377D01*
Y-92091D01*
Y-91804D01*
Y-91518D01*
Y-91232D01*
Y-90945D01*
X1001974D01*
Y-90659D01*
Y-90373D01*
Y-90086D01*
Y-89800D01*
Y-89514D01*
Y-89227D01*
X1002260D01*
Y-88941D01*
Y-88655D01*
Y-88369D01*
Y-88082D01*
Y-87796D01*
Y-87510D01*
X1002546D01*
Y-87223D01*
Y-86937D01*
Y-86651D01*
Y-86364D01*
Y-86078D01*
Y-85792D01*
X1002832D01*
Y-85505D01*
Y-85219D01*
Y-84933D01*
Y-84646D01*
Y-84360D01*
Y-84074D01*
Y-83788D01*
X1003119D01*
Y-83501D01*
Y-83215D01*
Y-82929D01*
Y-82642D01*
Y-82356D01*
Y-82070D01*
X1003405D01*
Y-81783D01*
Y-81497D01*
Y-81211D01*
Y-80924D01*
Y-80638D01*
Y-80352D01*
X1003691D01*
Y-80066D01*
Y-79779D01*
Y-79493D01*
Y-79207D01*
Y-78920D01*
Y-78634D01*
X1003978D01*
Y-78348D01*
Y-78061D01*
Y-77775D01*
Y-77489D01*
Y-77202D01*
Y-76916D01*
Y-76630D01*
X1004264D01*
Y-76343D01*
Y-76057D01*
Y-75771D01*
Y-75485D01*
Y-75198D01*
Y-74912D01*
X1004550D01*
Y-74625D01*
Y-74339D01*
Y-74053D01*
Y-73767D01*
Y-73480D01*
Y-73194D01*
X1004837D01*
Y-72908D01*
Y-72621D01*
Y-72335D01*
Y-72049D01*
Y-71762D01*
Y-71476D01*
Y-71190D01*
X1005123D01*
Y-70903D01*
Y-70617D01*
Y-70331D01*
Y-70044D01*
Y-69758D01*
Y-69472D01*
X1005409D01*
Y-69186D01*
Y-68899D01*
Y-68613D01*
Y-68327D01*
Y-68040D01*
Y-67754D01*
X1005696D01*
Y-67468D01*
Y-67181D01*
Y-66895D01*
Y-66609D01*
Y-66322D01*
Y-66036D01*
X1005982D01*
Y-65750D01*
Y-65464D01*
Y-65177D01*
Y-64891D01*
Y-64605D01*
Y-64318D01*
Y-64032D01*
X1006268D01*
Y-63746D01*
Y-63459D01*
Y-63173D01*
Y-62887D01*
Y-62600D01*
Y-62314D01*
X1006555D01*
Y-62028D01*
Y-61742D01*
Y-61455D01*
Y-61169D01*
Y-60883D01*
Y-60596D01*
X1006841D01*
Y-60310D01*
Y-60024D01*
Y-59737D01*
Y-59451D01*
Y-59165D01*
Y-58878D01*
Y-58592D01*
X1007127D01*
Y-58306D01*
Y-58019D01*
Y-57733D01*
Y-57447D01*
Y-57161D01*
Y-56874D01*
X1007413D01*
Y-56588D01*
Y-56301D01*
Y-56015D01*
Y-55729D01*
Y-55443D01*
Y-55156D01*
X1007700D01*
Y-54870D01*
Y-54584D01*
Y-54297D01*
Y-54011D01*
Y-53725D01*
Y-53438D01*
Y-53152D01*
X1007986D01*
Y-52866D01*
Y-52579D01*
Y-52293D01*
Y-52007D01*
Y-51720D01*
Y-51434D01*
X1008272D01*
Y-51148D01*
Y-50862D01*
Y-50575D01*
Y-50289D01*
Y-50003D01*
Y-49716D01*
X1032036D01*
Y-50003D01*
D02*
G37*
G36*
X1165172Y-64032D02*
X1164886D01*
Y-64318D01*
X1164599D01*
Y-64605D01*
Y-64891D01*
X1164313D01*
Y-65177D01*
X1164027D01*
Y-65464D01*
X1163740D01*
Y-65750D01*
Y-66036D01*
X1163454D01*
Y-66322D01*
X1163168D01*
Y-66609D01*
X1162881D01*
Y-66895D01*
X1162595D01*
Y-67181D01*
Y-67468D01*
X1162309D01*
Y-67754D01*
X1162022D01*
Y-68040D01*
X1161736D01*
Y-68327D01*
Y-68613D01*
X1161450D01*
Y-68899D01*
X1161163D01*
Y-69186D01*
X1160877D01*
Y-69472D01*
X1160591D01*
Y-69758D01*
Y-70044D01*
X1160305D01*
Y-70331D01*
X1160018D01*
Y-70617D01*
X1159732D01*
Y-70903D01*
Y-71190D01*
X1159445D01*
Y-71476D01*
X1159159D01*
Y-71762D01*
X1158873D01*
Y-72049D01*
Y-72335D01*
X1158587D01*
Y-72621D01*
X1158300D01*
Y-72908D01*
X1158014D01*
Y-73194D01*
X1157728D01*
Y-73480D01*
Y-73767D01*
X1157441D01*
Y-74053D01*
X1157155D01*
Y-74339D01*
X1156869D01*
Y-74625D01*
Y-74912D01*
X1156582D01*
Y-75198D01*
X1156296D01*
Y-75485D01*
X1156010D01*
Y-75771D01*
Y-76057D01*
X1155723D01*
Y-76343D01*
X1155437D01*
Y-76630D01*
X1155151D01*
Y-76916D01*
X1154865D01*
Y-77202D01*
Y-77489D01*
X1154578D01*
Y-77775D01*
X1154292D01*
Y-78061D01*
X1154006D01*
Y-78348D01*
Y-78634D01*
X1153719D01*
Y-78920D01*
X1153433D01*
Y-79207D01*
X1153147D01*
Y-79493D01*
Y-79779D01*
X1152860D01*
Y-80066D01*
X1152574D01*
Y-80352D01*
X1152288D01*
Y-80638D01*
X1152001D01*
Y-80924D01*
Y-81211D01*
X1151715D01*
Y-81497D01*
X1151429D01*
Y-81783D01*
X1151142D01*
Y-82070D01*
Y-82356D01*
X1150856D01*
Y-82642D01*
X1150570D01*
Y-82929D01*
X1150284D01*
Y-83215D01*
X1149997D01*
Y-83501D01*
Y-83788D01*
X1150284D01*
Y-84074D01*
Y-84360D01*
X1150570D01*
Y-84646D01*
Y-84933D01*
X1150856D01*
Y-85219D01*
X1151142D01*
Y-85505D01*
Y-85792D01*
X1151429D01*
Y-86078D01*
Y-86364D01*
X1151715D01*
Y-86651D01*
Y-86937D01*
X1152001D01*
Y-87223D01*
Y-87510D01*
X1152288D01*
Y-87796D01*
Y-88082D01*
X1152574D01*
Y-88369D01*
Y-88655D01*
X1152860D01*
Y-88941D01*
Y-89227D01*
X1153147D01*
Y-89514D01*
Y-89800D01*
X1153433D01*
Y-90086D01*
X1153719D01*
Y-90373D01*
Y-90659D01*
X1154006D01*
Y-90945D01*
Y-91232D01*
X1154292D01*
Y-91518D01*
Y-91804D01*
X1154578D01*
Y-92091D01*
Y-92377D01*
X1154865D01*
Y-92663D01*
Y-92950D01*
X1155151D01*
Y-93236D01*
Y-93522D01*
X1155437D01*
Y-93809D01*
Y-94095D01*
X1155723D01*
Y-94381D01*
X1156010D01*
Y-94667D01*
Y-94954D01*
X1156296D01*
Y-95240D01*
Y-95526D01*
X1156582D01*
Y-95813D01*
Y-96099D01*
X1156869D01*
Y-96385D01*
Y-96672D01*
X1157155D01*
Y-96958D01*
Y-97244D01*
X1157441D01*
Y-97531D01*
Y-97817D01*
X1157728D01*
Y-98103D01*
Y-98390D01*
X1158014D01*
Y-98676D01*
X1158300D01*
Y-98962D01*
Y-99248D01*
X1158587D01*
Y-99535D01*
Y-99821D01*
X1158873D01*
Y-100107D01*
X1143698D01*
Y-99821D01*
X1143412D01*
Y-99535D01*
Y-99248D01*
Y-98962D01*
X1143126D01*
Y-98676D01*
Y-98390D01*
Y-98103D01*
X1142839D01*
Y-97817D01*
Y-97531D01*
X1142553D01*
Y-97244D01*
Y-96958D01*
Y-96672D01*
X1142267D01*
Y-96385D01*
Y-96099D01*
Y-95813D01*
X1141980D01*
Y-95526D01*
Y-95240D01*
X1141694D01*
Y-94954D01*
Y-94667D01*
Y-94381D01*
X1141408D01*
Y-94095D01*
Y-93809D01*
Y-93522D01*
X1141121D01*
Y-93236D01*
Y-92950D01*
Y-92663D01*
X1140835D01*
Y-92377D01*
X1140263D01*
Y-92663D01*
Y-92950D01*
X1139976D01*
Y-93236D01*
X1139690D01*
Y-93522D01*
Y-93809D01*
X1139404D01*
Y-94095D01*
X1139117D01*
Y-94381D01*
Y-94667D01*
X1138831D01*
Y-94954D01*
X1138545D01*
Y-95240D01*
Y-95526D01*
X1138258D01*
Y-95813D01*
X1137972D01*
Y-96099D01*
X1137686D01*
Y-96385D01*
Y-96672D01*
X1137399D01*
Y-96958D01*
X1137113D01*
Y-97244D01*
Y-97531D01*
X1136827D01*
Y-97817D01*
X1136541D01*
Y-98103D01*
Y-98390D01*
X1136254D01*
Y-98676D01*
X1135968D01*
Y-98962D01*
Y-99248D01*
X1135682D01*
Y-99535D01*
X1135395D01*
Y-99821D01*
Y-100107D01*
X1119362D01*
Y-99821D01*
X1119648D01*
Y-99535D01*
X1119934D01*
Y-99248D01*
X1120221D01*
Y-98962D01*
X1120507D01*
Y-98676D01*
Y-98390D01*
X1120793D01*
Y-98103D01*
X1121080D01*
Y-97817D01*
X1121366D01*
Y-97531D01*
X1121652D01*
Y-97244D01*
Y-96958D01*
X1121939D01*
Y-96672D01*
X1122225D01*
Y-96385D01*
X1122511D01*
Y-96099D01*
Y-95813D01*
X1122797D01*
Y-95526D01*
X1123084D01*
Y-95240D01*
X1123370D01*
Y-94954D01*
X1123656D01*
Y-94667D01*
Y-94381D01*
X1123943D01*
Y-94095D01*
X1124229D01*
Y-93809D01*
X1124515D01*
Y-93522D01*
X1124802D01*
Y-93236D01*
Y-92950D01*
X1125088D01*
Y-92663D01*
X1125374D01*
Y-92377D01*
X1125661D01*
Y-92091D01*
Y-91804D01*
X1125947D01*
Y-91518D01*
X1126233D01*
Y-91232D01*
X1126519D01*
Y-90945D01*
X1126806D01*
Y-90659D01*
Y-90373D01*
X1127092D01*
Y-90086D01*
X1127378D01*
Y-89800D01*
X1127665D01*
Y-89514D01*
Y-89227D01*
X1127951D01*
Y-88941D01*
X1128237D01*
Y-88655D01*
X1128524D01*
Y-88369D01*
X1128810D01*
Y-88082D01*
Y-87796D01*
X1129096D01*
Y-87510D01*
X1129383D01*
Y-87223D01*
X1129669D01*
Y-86937D01*
Y-86651D01*
X1129955D01*
Y-86364D01*
X1130242D01*
Y-86078D01*
X1130528D01*
Y-85792D01*
X1130814D01*
Y-85505D01*
Y-85219D01*
X1131100D01*
Y-84933D01*
X1131387D01*
Y-84646D01*
X1131673D01*
Y-84360D01*
X1131960D01*
Y-84074D01*
Y-83788D01*
X1132246D01*
Y-83501D01*
X1132532D01*
Y-83215D01*
X1132818D01*
Y-82929D01*
Y-82642D01*
X1133105D01*
Y-82356D01*
X1133391D01*
Y-82070D01*
X1133677D01*
Y-81783D01*
X1133964D01*
Y-81497D01*
Y-81211D01*
X1134250D01*
Y-80924D01*
Y-80638D01*
Y-80352D01*
X1133964D01*
Y-80066D01*
X1133677D01*
Y-79779D01*
Y-79493D01*
X1133391D01*
Y-79207D01*
Y-78920D01*
X1133105D01*
Y-78634D01*
Y-78348D01*
X1132818D01*
Y-78061D01*
Y-77775D01*
X1132532D01*
Y-77489D01*
Y-77202D01*
X1132246D01*
Y-76916D01*
Y-76630D01*
X1131960D01*
Y-76343D01*
X1131673D01*
Y-76057D01*
Y-75771D01*
X1131387D01*
Y-75485D01*
Y-75198D01*
X1131100D01*
Y-74912D01*
Y-74625D01*
X1130814D01*
Y-74339D01*
Y-74053D01*
X1130528D01*
Y-73767D01*
Y-73480D01*
X1130242D01*
Y-73194D01*
Y-72908D01*
X1129955D01*
Y-72621D01*
X1129669D01*
Y-72335D01*
Y-72049D01*
X1129383D01*
Y-71762D01*
Y-71476D01*
X1129096D01*
Y-71190D01*
Y-70903D01*
X1128810D01*
Y-70617D01*
Y-70331D01*
X1128524D01*
Y-70044D01*
Y-69758D01*
X1128237D01*
Y-69472D01*
Y-69186D01*
X1127951D01*
Y-68899D01*
Y-68613D01*
X1127665D01*
Y-68327D01*
X1127378D01*
Y-68040D01*
Y-67754D01*
X1127092D01*
Y-67468D01*
Y-67181D01*
X1126806D01*
Y-66895D01*
Y-66609D01*
X1126519D01*
Y-66322D01*
Y-66036D01*
X1126233D01*
Y-65750D01*
Y-65464D01*
X1125947D01*
Y-65177D01*
Y-64891D01*
X1125661D01*
Y-64605D01*
X1125374D01*
Y-64318D01*
Y-64032D01*
X1125088D01*
Y-63746D01*
X1140835D01*
Y-64032D01*
X1141121D01*
Y-64318D01*
Y-64605D01*
Y-64891D01*
X1141408D01*
Y-65177D01*
Y-65464D01*
Y-65750D01*
X1141694D01*
Y-66036D01*
Y-66322D01*
Y-66609D01*
X1141980D01*
Y-66895D01*
Y-67181D01*
Y-67468D01*
X1142267D01*
Y-67754D01*
Y-68040D01*
Y-68327D01*
X1142553D01*
Y-68613D01*
Y-68899D01*
Y-69186D01*
X1142839D01*
Y-69472D01*
Y-69758D01*
Y-70044D01*
X1143126D01*
Y-70331D01*
Y-70617D01*
Y-70903D01*
X1143412D01*
Y-71190D01*
Y-71476D01*
Y-71762D01*
Y-72049D01*
X1143985D01*
Y-71762D01*
X1144271D01*
Y-71476D01*
X1144557D01*
Y-71190D01*
Y-70903D01*
X1144844D01*
Y-70617D01*
X1145130D01*
Y-70331D01*
Y-70044D01*
X1145416D01*
Y-69758D01*
X1145702D01*
Y-69472D01*
Y-69186D01*
X1145989D01*
Y-68899D01*
X1146275D01*
Y-68613D01*
Y-68327D01*
X1146561D01*
Y-68040D01*
X1146848D01*
Y-67754D01*
Y-67468D01*
X1147134D01*
Y-67181D01*
X1147420D01*
Y-66895D01*
Y-66609D01*
X1147707D01*
Y-66322D01*
X1147993D01*
Y-66036D01*
Y-65750D01*
X1148279D01*
Y-65464D01*
X1148566D01*
Y-65177D01*
Y-64891D01*
X1148852D01*
Y-64605D01*
X1149138D01*
Y-64318D01*
Y-64032D01*
X1149425D01*
Y-63746D01*
X1165172D01*
Y-64032D01*
D02*
G37*
%LPC*%
G36*
X1027742Y-60883D02*
X1019725D01*
Y-61169D01*
Y-61455D01*
Y-61742D01*
Y-62028D01*
Y-62314D01*
X1019438D01*
Y-62600D01*
Y-62887D01*
Y-63173D01*
Y-63459D01*
Y-63746D01*
Y-64032D01*
X1019152D01*
Y-64318D01*
Y-64605D01*
Y-64891D01*
Y-65177D01*
Y-65464D01*
Y-65750D01*
X1018866D01*
Y-66036D01*
Y-66322D01*
Y-66609D01*
Y-66895D01*
Y-67181D01*
Y-67468D01*
X1018580D01*
Y-67754D01*
Y-68040D01*
Y-68327D01*
Y-68613D01*
Y-68899D01*
Y-69186D01*
Y-69472D01*
X1018293D01*
Y-69758D01*
Y-70044D01*
Y-70331D01*
Y-70617D01*
Y-70903D01*
Y-71190D01*
X1018007D01*
Y-71476D01*
Y-71762D01*
Y-72049D01*
X1025165D01*
Y-71762D01*
X1026310D01*
Y-71476D01*
X1026883D01*
Y-71190D01*
X1027169D01*
Y-70903D01*
X1027455D01*
Y-70617D01*
X1027742D01*
Y-70331D01*
X1028028D01*
Y-70044D01*
Y-69758D01*
X1028314D01*
Y-69472D01*
Y-69186D01*
X1028601D01*
Y-68899D01*
Y-68613D01*
X1028887D01*
Y-68327D01*
Y-68040D01*
Y-67754D01*
Y-67468D01*
X1029173D01*
Y-67181D01*
Y-66895D01*
Y-66609D01*
Y-66322D01*
Y-66036D01*
X1029459D01*
Y-65750D01*
Y-65464D01*
Y-65177D01*
Y-64891D01*
Y-64605D01*
Y-64318D01*
Y-64032D01*
Y-63746D01*
Y-63459D01*
Y-63173D01*
Y-62887D01*
X1029173D01*
Y-62600D01*
Y-62314D01*
X1028887D01*
Y-62028D01*
Y-61742D01*
X1028601D01*
Y-61455D01*
X1028314D01*
Y-61169D01*
X1027742D01*
Y-60883D01*
D02*
G37*
%LPD*%
D10*
X0Y11811D02*
G03*
X11811Y0I11811J0D01*
G01*
X185039D02*
G03*
X196850Y11811I0J11811D01*
G01*
Y149606D02*
G03*
X185039Y161417I-11811J0D01*
G01*
X11811D02*
G03*
X0Y149606I0J-11811D01*
G01*
X9843Y133858D02*
G03*
X5906Y137795I-3937J0D01*
G01*
X0Y141732D02*
G03*
X3937Y137795I3937J0D01*
G01*
X5906Y23622D02*
G03*
X9843Y27559I0J3937D01*
G01*
X3937Y23622D02*
G03*
X0Y19685I0J-3937D01*
G01*
X15748Y161417D02*
G03*
X19685Y165354I0J3937D01*
G01*
X27559Y185039D02*
G03*
X19685Y177165I0J-7874D01*
G01*
X177165D02*
G03*
X169291Y185039I-7874J0D01*
G01*
X192913Y137795D02*
G03*
X196850Y141732I0J3937D01*
G01*
X177165Y165354D02*
G03*
X181102Y161417I3937J0D01*
G01*
X190945Y137795D02*
G03*
X187008Y133858I0J-3937D01*
G01*
X196850Y19685D02*
G03*
X192913Y23622I-3937J0D01*
G01*
X187008Y27559D02*
G03*
X190945Y23622I3937J0D01*
G01*
X0Y11811D02*
Y19685D01*
X11811Y0D02*
X15748D01*
X196850Y11811D02*
Y19685D01*
X181102Y0D02*
X185039D01*
X181102Y161417D02*
X185039D01*
X196850Y141732D02*
Y149606D01*
X3937Y137795D02*
X5906D01*
X9843Y27559D02*
Y133858D01*
X3937Y23622D02*
X5906D01*
X19685Y169291D02*
Y177165D01*
X177165Y169291D02*
Y177165D01*
X27559Y185039D02*
X169291D01*
X15748Y0D02*
X181102D01*
X0Y141732D02*
Y149606D01*
X11811Y161417D02*
X15748D01*
X19685Y165354D02*
Y169291D01*
X177165Y165354D02*
Y169291D01*
X190945Y137795D02*
X192913D01*
X190945Y23622D02*
X192913D01*
X187008Y27559D02*
Y133858D01*
X1338583Y-137795D02*
Y-98425D01*
X1181102Y-59055D02*
X1456693D01*
X1181102Y-98425D02*
X1456693D01*
X984252Y-137795D02*
X1456693D01*
X984252Y-19685D02*
X1456693D01*
X984252Y-177165D02*
Y-19685D01*
X1181102Y-177165D02*
Y-19685D01*
X-196850Y992126D02*
X1456693D01*
Y-177165D02*
Y992126D01*
X-196850Y-177165D02*
Y992126D01*
Y-177165D02*
X1456693D01*
X1194881Y-163388D02*
X1190945D01*
Y-169291D01*
X1194881D01*
X1190945Y-166340D02*
X1192913D01*
X1200784Y-164372D02*
X1199800Y-163388D01*
X1197832D01*
X1196848Y-164372D01*
Y-165356D01*
X1197832Y-166340D01*
X1199800D01*
X1200784Y-167324D01*
Y-168307D01*
X1199800Y-169291D01*
X1197832D01*
X1196848Y-168307D01*
X1202752Y-169291D02*
Y-163388D01*
X1205704D01*
X1206688Y-164372D01*
Y-166340D01*
X1205704Y-167324D01*
X1202752D01*
X1208656Y-169291D02*
X1210624D01*
X1209640D01*
Y-163388D01*
X1208656Y-164372D01*
X1217511Y-169291D02*
X1213575D01*
X1217511Y-165356D01*
Y-164372D01*
X1216527Y-163388D01*
X1214559D01*
X1213575Y-164372D01*
X1219479Y-170275D02*
X1223415D01*
X1225383Y-163388D02*
Y-169291D01*
X1228334D01*
X1229318Y-168307D01*
Y-164372D01*
X1228334Y-163388D01*
X1225383D01*
X1235222D02*
X1231286D01*
Y-169291D01*
X1235222D01*
X1231286Y-166340D02*
X1233254D01*
X1237190Y-163388D02*
Y-167324D01*
X1239158Y-169291D01*
X1241125Y-167324D01*
Y-163388D01*
X1243093Y-170275D02*
X1247029D01*
X1248997Y-164372D02*
X1249981Y-163388D01*
X1251949D01*
X1252933Y-164372D01*
Y-168307D01*
X1251949Y-169291D01*
X1249981D01*
X1248997Y-168307D01*
Y-164372D01*
X1254900Y-169291D02*
X1256868D01*
X1255884D01*
Y-163388D01*
X1254900Y-164372D01*
X1259820Y-169291D02*
Y-168307D01*
X1260804D01*
Y-169291D01*
X1259820D01*
X1264740D02*
Y-163388D01*
X1267692D01*
X1268676Y-164372D01*
Y-166340D01*
X1267692Y-167324D01*
X1264740D01*
X1274579Y-165356D02*
X1271627D01*
X1270644Y-166340D01*
Y-168307D01*
X1271627Y-169291D01*
X1274579D01*
X1276547Y-163388D02*
Y-169291D01*
X1279499D01*
X1280483Y-168307D01*
Y-167324D01*
Y-166340D01*
X1279499Y-165356D01*
X1276547D01*
X1282451Y-163388D02*
Y-169291D01*
X1285402D01*
X1286386Y-168307D01*
Y-164372D01*
X1285402Y-163388D01*
X1282451D01*
X1289338Y-169291D02*
X1291306D01*
X1292290Y-168307D01*
Y-166340D01*
X1291306Y-165356D01*
X1289338D01*
X1288354Y-166340D01*
Y-168307D01*
X1289338Y-169291D01*
X1298194Y-165356D02*
X1295242D01*
X1294258Y-166340D01*
Y-168307D01*
X1295242Y-169291D01*
X1298194D01*
X321479Y176181D02*
Y184053D01*
X317543Y180117D01*
X322790D01*
X329350Y176181D02*
Y184053D01*
X325414Y180117D01*
X330662D01*
X406337Y176181D02*
X408961D01*
X407649D01*
Y184053D01*
X406337Y182741D01*
X412897Y176181D02*
X415521D01*
X414209D01*
Y184053D01*
X412897Y182741D01*
X419456Y176181D02*
Y177493D01*
X420768D01*
Y176181D01*
X419456D01*
X426016Y182741D02*
X427328Y184053D01*
X429952D01*
X431264Y182741D01*
Y181429D01*
X429952Y180117D01*
X431264Y178805D01*
Y177493D01*
X429952Y176181D01*
X427328D01*
X426016Y177493D01*
Y178805D01*
X427328Y180117D01*
X426016Y181429D01*
Y182741D01*
X427328Y180117D02*
X429952D01*
X433887Y176181D02*
X436511D01*
X435199D01*
Y184053D01*
X433887Y182741D01*
X440447Y176181D02*
X443071D01*
X441759D01*
Y184053D01*
X440447Y182741D01*
X447007Y176181D02*
Y181429D01*
X448318D01*
X449630Y180117D01*
Y176181D01*
Y180117D01*
X450942Y181429D01*
X452254Y180117D01*
Y176181D01*
X454878D02*
X457502D01*
X456190D01*
Y181429D01*
X454878D01*
X461438Y176181D02*
X464061D01*
X462749D01*
Y184053D01*
X461438D01*
X478492Y176181D02*
X475869Y178805D01*
Y181429D01*
X478492Y184053D01*
X482428Y182741D02*
X483740Y184053D01*
X486364D01*
X487676Y182741D01*
Y177493D01*
X486364Y176181D01*
X483740D01*
X482428Y177493D01*
Y182741D01*
X490300Y176181D02*
Y177493D01*
X491612D01*
Y176181D01*
X490300D01*
X496859Y182741D02*
X498171Y184053D01*
X500795D01*
X502107Y182741D01*
Y181429D01*
X500795Y180117D01*
X499483D01*
X500795D01*
X502107Y178805D01*
Y177493D01*
X500795Y176181D01*
X498171D01*
X496859Y177493D01*
X504731Y176181D02*
Y181429D01*
X506043D01*
X507354Y180117D01*
Y176181D01*
Y180117D01*
X508667Y181429D01*
X509978Y180117D01*
Y176181D01*
X512602D02*
Y181429D01*
X513914D01*
X515226Y180117D01*
Y176181D01*
Y180117D01*
X516538Y181429D01*
X517850Y180117D01*
Y176181D01*
X520474D02*
X523098Y178805D01*
Y181429D01*
X520474Y184053D01*
X580144Y176181D02*
Y184053D01*
X584079D01*
X585391Y182741D01*
Y180117D01*
X584079Y178805D01*
X580144D01*
X588015Y184053D02*
X593263D01*
X590639D01*
Y176181D01*
X595887Y184053D02*
Y176181D01*
Y180117D01*
X601134D01*
Y184053D01*
Y176181D01*
X643750D02*
Y184053D01*
X647685D01*
X648997Y182741D01*
Y180117D01*
X647685Y178805D01*
X643750D01*
X646373D02*
X648997Y176181D01*
X652933D02*
X655557D01*
X656869Y177493D01*
Y180117D01*
X655557Y181429D01*
X652933D01*
X651621Y180117D01*
Y177493D01*
X652933Y176181D01*
X659492Y181429D02*
Y177493D01*
X660804Y176181D01*
X664740D01*
Y181429D01*
X667364Y176181D02*
Y181429D01*
X671300D01*
X672612Y180117D01*
Y176181D01*
X680483Y184053D02*
Y176181D01*
X676547D01*
X675235Y177493D01*
Y180117D01*
X676547Y181429D01*
X680483D01*
X322790Y160433D02*
X317543D01*
X322790Y165681D01*
Y166993D01*
X321479Y168305D01*
X318855D01*
X317543Y166993D01*
X411585Y160433D02*
X406337D01*
X411585Y165681D01*
Y166993D01*
X410273Y168305D01*
X407649D01*
X406337Y166993D01*
X414209D02*
X415521Y168305D01*
X418145D01*
X419456Y166993D01*
Y165681D01*
X418145Y164369D01*
X416833D01*
X418145D01*
X419456Y163057D01*
Y161745D01*
X418145Y160433D01*
X415521D01*
X414209Y161745D01*
X422080Y160433D02*
Y161745D01*
X423392D01*
Y160433D01*
X422080D01*
X433887Y168305D02*
X431264Y166993D01*
X428640Y164369D01*
Y161745D01*
X429952Y160433D01*
X432576D01*
X433887Y161745D01*
Y163057D01*
X432576Y164369D01*
X428640D01*
X441759Y160433D02*
X436511D01*
X441759Y165681D01*
Y166993D01*
X440447Y168305D01*
X437823D01*
X436511Y166993D01*
X449630Y160433D02*
X444383D01*
X449630Y165681D01*
Y166993D01*
X448318Y168305D01*
X445695D01*
X444383Y166993D01*
X452254Y160433D02*
Y165681D01*
X453566D01*
X454878Y164369D01*
Y160433D01*
Y164369D01*
X456190Y165681D01*
X457502Y164369D01*
Y160433D01*
X460126D02*
X462749D01*
X461438D01*
Y165681D01*
X460126D01*
X466685Y160433D02*
X469309D01*
X467997D01*
Y168305D01*
X466685D01*
X483740Y160433D02*
X481116Y163057D01*
Y165681D01*
X483740Y168305D01*
X487676Y166993D02*
X488988Y168305D01*
X491612D01*
X492923Y166993D01*
Y161745D01*
X491612Y160433D01*
X488988D01*
X487676Y161745D01*
Y166993D01*
X495547Y160433D02*
Y161745D01*
X496859D01*
Y160433D01*
X495547D01*
X507355Y168305D02*
X504731Y166993D01*
X502107Y164369D01*
Y161745D01*
X503419Y160433D01*
X506043D01*
X507355Y161745D01*
Y163057D01*
X506043Y164369D01*
X502107D01*
X509978Y160433D02*
Y165681D01*
X511290D01*
X512602Y164369D01*
Y160433D01*
Y164369D01*
X513914Y165681D01*
X515226Y164369D01*
Y160433D01*
X517850D02*
Y165681D01*
X519162D01*
X520474Y164369D01*
Y160433D01*
Y164369D01*
X521786Y165681D01*
X523098Y164369D01*
Y160433D01*
X525721D02*
X528345Y163057D01*
Y165681D01*
X525721Y168305D01*
X580144Y160433D02*
Y168305D01*
X584079D01*
X585391Y166993D01*
Y164369D01*
X584079Y163057D01*
X580144D01*
X588015Y168305D02*
X593263D01*
X590639D01*
Y160433D01*
X595887Y168305D02*
Y160433D01*
Y164369D01*
X601134D01*
Y168305D01*
Y160433D01*
X643750D02*
Y168305D01*
X647685D01*
X648997Y166993D01*
Y164369D01*
X647685Y163057D01*
X643750D01*
X646373D02*
X648997Y160433D01*
X652933D02*
X655557D01*
X656869Y161745D01*
Y164369D01*
X655557Y165681D01*
X652933D01*
X651621Y164369D01*
Y161745D01*
X652933Y160433D01*
X659492Y165681D02*
Y161745D01*
X660804Y160433D01*
X664740D01*
Y165681D01*
X667364Y160433D02*
Y165681D01*
X671300D01*
X672612Y164369D01*
Y160433D01*
X680483Y168305D02*
Y160433D01*
X676547D01*
X675235Y161745D01*
Y164369D01*
X676547Y165681D01*
X680483D01*
X317543Y151245D02*
X318855Y152557D01*
X321479D01*
X322790Y151245D01*
Y149933D01*
X321479Y148621D01*
X320167D01*
X321479D01*
X322790Y147309D01*
Y145997D01*
X321479Y144685D01*
X318855D01*
X317543Y145997D01*
X411585Y144685D02*
X406337D01*
X411585Y149933D01*
Y151245D01*
X410273Y152557D01*
X407649D01*
X406337Y151245D01*
X414209Y145997D02*
X415521Y144685D01*
X418145D01*
X419456Y145997D01*
Y151245D01*
X418145Y152557D01*
X415521D01*
X414209Y151245D01*
Y149933D01*
X415521Y148621D01*
X419456D01*
X422080Y144685D02*
Y145997D01*
X423392D01*
Y144685D01*
X422080D01*
X433887Y152557D02*
X428640D01*
Y148621D01*
X431264Y149933D01*
X432576D01*
X433887Y148621D01*
Y145997D01*
X432576Y144685D01*
X429952D01*
X428640Y145997D01*
X441759Y144685D02*
X436511D01*
X441759Y149933D01*
Y151245D01*
X440447Y152557D01*
X437823D01*
X436511Y151245D01*
X444383D02*
X445695Y152557D01*
X448318D01*
X449630Y151245D01*
Y149933D01*
X448318Y148621D01*
X449630Y147309D01*
Y145997D01*
X448318Y144685D01*
X445695D01*
X444383Y145997D01*
Y147309D01*
X445695Y148621D01*
X444383Y149933D01*
Y151245D01*
X445695Y148621D02*
X448318D01*
X452254Y144685D02*
Y149933D01*
X453566D01*
X454878Y148621D01*
Y144685D01*
Y148621D01*
X456190Y149933D01*
X457502Y148621D01*
Y144685D01*
X460126D02*
X462749D01*
X461438D01*
Y149933D01*
X460126D01*
X466685Y144685D02*
X469309D01*
X467997D01*
Y152557D01*
X466685D01*
X483740Y144685D02*
X481116Y147309D01*
Y149933D01*
X483740Y152557D01*
X487676Y151245D02*
X488988Y152557D01*
X491612D01*
X492923Y151245D01*
Y145997D01*
X491612Y144685D01*
X488988D01*
X487676Y145997D01*
Y151245D01*
X495547Y144685D02*
Y145997D01*
X496859D01*
Y144685D01*
X495547D01*
X502107Y152557D02*
X507355D01*
Y151245D01*
X502107Y145997D01*
Y144685D01*
X515226Y152557D02*
X509978D01*
Y148621D01*
X512602Y149933D01*
X513914D01*
X515226Y148621D01*
Y145997D01*
X513914Y144685D01*
X511290D01*
X509978Y145997D01*
X517850Y144685D02*
Y149933D01*
X519162D01*
X520474Y148621D01*
Y144685D01*
Y148621D01*
X521786Y149933D01*
X523098Y148621D01*
Y144685D01*
X525721D02*
Y149933D01*
X527033D01*
X528345Y148621D01*
Y144685D01*
Y148621D01*
X529657Y149933D01*
X530969Y148621D01*
Y144685D01*
X533593D02*
X536217Y147309D01*
Y149933D01*
X533593Y152557D01*
X580144Y144685D02*
Y152557D01*
X584079D01*
X585391Y151245D01*
Y148621D01*
X584079Y147309D01*
X580144D01*
X588015Y152557D02*
X593263D01*
X590639D01*
Y144685D01*
X595887Y152557D02*
Y144685D01*
Y148621D01*
X601134D01*
Y152557D01*
Y144685D01*
X643750D02*
Y152557D01*
X647685D01*
X648997Y151245D01*
Y148621D01*
X647685Y147309D01*
X643750D01*
X646373D02*
X648997Y144685D01*
X652933D02*
X655557D01*
X656869Y145997D01*
Y148621D01*
X655557Y149933D01*
X652933D01*
X651621Y148621D01*
Y145997D01*
X652933Y144685D01*
X659492Y149933D02*
Y145997D01*
X660804Y144685D01*
X664740D01*
Y149933D01*
X667364Y144685D02*
Y149933D01*
X671300D01*
X672612Y148621D01*
Y144685D01*
X680483Y152557D02*
Y144685D01*
X676547D01*
X675235Y145997D01*
Y148621D01*
X676547Y149933D01*
X680483D01*
X317543Y128937D02*
X320167D01*
X318855D01*
Y136809D01*
X317543Y135497D01*
X328038Y128937D02*
Y136809D01*
X324102Y132873D01*
X329350D01*
X406337Y135497D02*
X407649Y136809D01*
X410273D01*
X411585Y135497D01*
Y134185D01*
X410273Y132873D01*
X408961D01*
X410273D01*
X411585Y131561D01*
Y130249D01*
X410273Y128937D01*
X407649D01*
X406337Y130249D01*
X414209Y128937D02*
X416833D01*
X415521D01*
Y136809D01*
X414209Y135497D01*
X420768Y128937D02*
Y130249D01*
X422080D01*
Y128937D01*
X420768D01*
X431264D02*
Y136809D01*
X427328Y132873D01*
X432576D01*
X435199Y130249D02*
X436511Y128937D01*
X439135D01*
X440447Y130249D01*
Y135497D01*
X439135Y136809D01*
X436511D01*
X435199Y135497D01*
Y134185D01*
X436511Y132873D01*
X440447D01*
X448318Y136809D02*
X445695Y135497D01*
X443071Y132873D01*
Y130249D01*
X444383Y128937D01*
X447007D01*
X448318Y130249D01*
Y131561D01*
X447007Y132873D01*
X443071D01*
X450942Y128937D02*
Y134185D01*
X452254D01*
X453566Y132873D01*
Y128937D01*
Y132873D01*
X454878Y134185D01*
X456190Y132873D01*
Y128937D01*
X458814D02*
X461438D01*
X460126D01*
Y134185D01*
X458814D01*
X465373Y128937D02*
X467997D01*
X466685D01*
Y136809D01*
X465373D01*
X482428Y128937D02*
X479804Y131561D01*
Y134185D01*
X482428Y136809D01*
X486364Y135497D02*
X487676Y136809D01*
X490300D01*
X491612Y135497D01*
Y130249D01*
X490300Y128937D01*
X487676D01*
X486364Y130249D01*
Y135497D01*
X494235Y128937D02*
Y130249D01*
X495547D01*
Y128937D01*
X494235D01*
X500795Y135497D02*
X502107Y136809D01*
X504731D01*
X506043Y135497D01*
Y134185D01*
X504731Y132873D01*
X506043Y131561D01*
Y130249D01*
X504731Y128937D01*
X502107D01*
X500795Y130249D01*
Y131561D01*
X502107Y132873D01*
X500795Y134185D01*
Y135497D01*
X502107Y132873D02*
X504731D01*
X508667Y128937D02*
Y134185D01*
X509978D01*
X511290Y132873D01*
Y128937D01*
Y132873D01*
X512602Y134185D01*
X513914Y132873D01*
Y128937D01*
X516538D02*
Y134185D01*
X517850D01*
X519162Y132873D01*
Y128937D01*
Y132873D01*
X520474Y134185D01*
X521786Y132873D01*
Y128937D01*
X524409D02*
X527033Y131561D01*
Y134185D01*
X524409Y136809D01*
X580144Y128937D02*
Y136809D01*
X584079D01*
X585391Y135497D01*
Y132873D01*
X584079Y131561D01*
X580144D01*
X588015Y136809D02*
X593263D01*
X590639D01*
Y128937D01*
X595887Y136809D02*
Y128937D01*
Y132873D01*
X601134D01*
Y136809D01*
Y128937D01*
X643750D02*
Y136809D01*
X647685D01*
X648997Y135497D01*
Y132873D01*
X647685Y131561D01*
X643750D01*
X646373D02*
X648997Y128937D01*
X652933D02*
X655557D01*
X656869Y130249D01*
Y132873D01*
X655557Y134185D01*
X652933D01*
X651621Y132873D01*
Y130249D01*
X652933Y128937D01*
X659492Y134185D02*
Y130249D01*
X660804Y128937D01*
X664740D01*
Y134185D01*
X667364Y128937D02*
Y134185D01*
X671300D01*
X672612Y132873D01*
Y128937D01*
X680483Y136809D02*
Y128937D01*
X676547D01*
X675235Y130249D01*
Y132873D01*
X676547Y134185D01*
X680483D01*
X317543Y113189D02*
X320167D01*
X318855D01*
Y121061D01*
X317543Y119749D01*
X324102D02*
X325414Y121061D01*
X328038D01*
X329350Y119749D01*
Y114501D01*
X328038Y113189D01*
X325414D01*
X324102Y114501D01*
Y119749D01*
X406337D02*
X407649Y121061D01*
X410273D01*
X411585Y119749D01*
Y118437D01*
X410273Y117125D01*
X408961D01*
X410273D01*
X411585Y115813D01*
Y114501D01*
X410273Y113189D01*
X407649D01*
X406337Y114501D01*
X419456Y121061D02*
X414209D01*
Y117125D01*
X416833Y118437D01*
X418145D01*
X419456Y117125D01*
Y114501D01*
X418145Y113189D01*
X415521D01*
X414209Y114501D01*
X422080Y113189D02*
Y114501D01*
X423392D01*
Y113189D01*
X422080D01*
X432576D02*
Y121061D01*
X428640Y117125D01*
X433887D01*
X436511Y119749D02*
X437823Y121061D01*
X440447D01*
X441759Y119749D01*
Y118437D01*
X440447Y117125D01*
X439135D01*
X440447D01*
X441759Y115813D01*
Y114501D01*
X440447Y113189D01*
X437823D01*
X436511Y114501D01*
X444383Y119749D02*
X445695Y121061D01*
X448318D01*
X449630Y119749D01*
Y118437D01*
X448318Y117125D01*
X447007D01*
X448318D01*
X449630Y115813D01*
Y114501D01*
X448318Y113189D01*
X445695D01*
X444383Y114501D01*
X452254Y113189D02*
Y118437D01*
X453566D01*
X454878Y117125D01*
Y113189D01*
Y117125D01*
X456190Y118437D01*
X457502Y117125D01*
Y113189D01*
X460126D02*
X462749D01*
X461438D01*
Y118437D01*
X460126D01*
X466685Y113189D02*
X469309D01*
X467997D01*
Y121061D01*
X466685D01*
X483740Y113189D02*
X481116Y115813D01*
Y118437D01*
X483740Y121061D01*
X487676Y119749D02*
X488988Y121061D01*
X491612D01*
X492923Y119749D01*
Y114501D01*
X491612Y113189D01*
X488988D01*
X487676Y114501D01*
Y119749D01*
X495547Y113189D02*
Y114501D01*
X496859D01*
Y113189D01*
X495547D01*
X502107Y114501D02*
X503419Y113189D01*
X506043D01*
X507355Y114501D01*
Y119749D01*
X506043Y121061D01*
X503419D01*
X502107Y119749D01*
Y118437D01*
X503419Y117125D01*
X507355D01*
X509978Y113189D02*
Y118437D01*
X511290D01*
X512602Y117125D01*
Y113189D01*
Y117125D01*
X513914Y118437D01*
X515226Y117125D01*
Y113189D01*
X517850D02*
Y118437D01*
X519162D01*
X520474Y117125D01*
Y113189D01*
Y117125D01*
X521786Y118437D01*
X523098Y117125D01*
Y113189D01*
X525721D02*
X528345Y115813D01*
Y118437D01*
X525721Y121061D01*
X580144Y113189D02*
Y121061D01*
X584079D01*
X585391Y119749D01*
Y117125D01*
X584079Y115813D01*
X580144D01*
X588015Y121061D02*
X593263D01*
X590639D01*
Y113189D01*
X595887Y121061D02*
Y113189D01*
Y117125D01*
X601134D01*
Y121061D01*
Y113189D01*
X643750D02*
Y121061D01*
X647685D01*
X648997Y119749D01*
Y117125D01*
X647685Y115813D01*
X643750D01*
X646373D02*
X648997Y113189D01*
X652933D02*
X655557D01*
X656869Y114501D01*
Y117125D01*
X655557Y118437D01*
X652933D01*
X651621Y117125D01*
Y114501D01*
X652933Y113189D01*
X659492Y118437D02*
Y114501D01*
X660804Y113189D01*
X664740D01*
Y118437D01*
X667364Y113189D02*
Y118437D01*
X671300D01*
X672612Y117125D01*
Y113189D01*
X680483Y121061D02*
Y113189D01*
X676547D01*
X675235Y114501D01*
Y117125D01*
X676547Y118437D01*
X680483D01*
X322790Y97441D02*
X317543D01*
X322790Y102689D01*
Y104000D01*
X321479Y105312D01*
X318855D01*
X317543Y104000D01*
X330662Y97441D02*
X325414D01*
X330662Y102689D01*
Y104000D01*
X329350Y105312D01*
X326726D01*
X325414Y104000D01*
X406337D02*
X407649Y105312D01*
X410273D01*
X411585Y104000D01*
Y102689D01*
X410273Y101377D01*
X408961D01*
X410273D01*
X411585Y100065D01*
Y98753D01*
X410273Y97441D01*
X407649D01*
X406337Y98753D01*
X414209Y105312D02*
X419456D01*
Y104000D01*
X414209Y98753D01*
Y97441D01*
X422080D02*
Y98753D01*
X423392D01*
Y97441D01*
X422080D01*
X432576D02*
Y105312D01*
X428640Y101377D01*
X433887D01*
X436511Y104000D02*
X437823Y105312D01*
X440447D01*
X441759Y104000D01*
Y98753D01*
X440447Y97441D01*
X437823D01*
X436511Y98753D01*
Y104000D01*
X449630Y97441D02*
X444383D01*
X449630Y102689D01*
Y104000D01*
X448318Y105312D01*
X445695D01*
X444383Y104000D01*
X452254Y97441D02*
Y102689D01*
X453566D01*
X454878Y101377D01*
Y97441D01*
Y101377D01*
X456190Y102689D01*
X457502Y101377D01*
Y97441D01*
X460126D02*
X462749D01*
X461438D01*
Y102689D01*
X460126D01*
X466685Y97441D02*
X469309D01*
X467997D01*
Y105312D01*
X466685D01*
X483740Y97441D02*
X481116Y100065D01*
Y102689D01*
X483740Y105312D01*
X487676Y104000D02*
X488988Y105312D01*
X491612D01*
X492923Y104000D01*
Y98753D01*
X491612Y97441D01*
X488988D01*
X487676Y98753D01*
Y104000D01*
X495547Y97441D02*
Y98753D01*
X496859D01*
Y97441D01*
X495547D01*
X502107Y98753D02*
X503419Y97441D01*
X506043D01*
X507355Y98753D01*
Y104000D01*
X506043Y105312D01*
X503419D01*
X502107Y104000D01*
Y102689D01*
X503419Y101377D01*
X507355D01*
X515226Y105312D02*
X509978D01*
Y101377D01*
X512602Y102689D01*
X513914D01*
X515226Y101377D01*
Y98753D01*
X513914Y97441D01*
X511290D01*
X509978Y98753D01*
X517850Y97441D02*
Y102689D01*
X519162D01*
X520474Y101377D01*
Y97441D01*
Y101377D01*
X521786Y102689D01*
X523098Y101377D01*
Y97441D01*
X525721D02*
Y102689D01*
X527033D01*
X528345Y101377D01*
Y97441D01*
Y101377D01*
X529657Y102689D01*
X530969Y101377D01*
Y97441D01*
X533593D02*
X536217Y100065D01*
Y102689D01*
X533593Y105312D01*
X580144Y97441D02*
Y105312D01*
X584079D01*
X585391Y104000D01*
Y101377D01*
X584079Y100065D01*
X580144D01*
X588015Y105312D02*
X593263D01*
X590639D01*
Y97441D01*
X595887Y105312D02*
Y97441D01*
Y101377D01*
X601134D01*
Y105312D01*
Y97441D01*
X643750D02*
Y105312D01*
X647685D01*
X648997Y104000D01*
Y101377D01*
X647685Y100065D01*
X643750D01*
X646373D02*
X648997Y97441D01*
X652933D02*
X655557D01*
X656869Y98753D01*
Y101377D01*
X655557Y102689D01*
X652933D01*
X651621Y101377D01*
Y98753D01*
X652933Y97441D01*
X659492Y102689D02*
Y98753D01*
X660804Y97441D01*
X664740D01*
Y102689D01*
X667364Y97441D02*
Y102689D01*
X671300D01*
X672612Y101377D01*
Y97441D01*
X680483Y105312D02*
Y97441D01*
X676547D01*
X675235Y98753D01*
Y101377D01*
X676547Y102689D01*
X680483D01*
X322790Y81693D02*
X317543D01*
X322790Y86941D01*
Y88253D01*
X321479Y89564D01*
X318855D01*
X317543Y88253D01*
X406337D02*
X407649Y89564D01*
X410273D01*
X411585Y88253D01*
Y86941D01*
X410273Y85629D01*
X408961D01*
X410273D01*
X411585Y84317D01*
Y83005D01*
X410273Y81693D01*
X407649D01*
X406337Y83005D01*
X414209D02*
X415521Y81693D01*
X418145D01*
X419456Y83005D01*
Y88253D01*
X418145Y89564D01*
X415521D01*
X414209Y88253D01*
Y86941D01*
X415521Y85629D01*
X419456D01*
X422080Y81693D02*
Y83005D01*
X423392D01*
Y81693D01*
X422080D01*
X428640Y88253D02*
X429952Y89564D01*
X432576D01*
X433887Y88253D01*
Y86941D01*
X432576Y85629D01*
X431264D01*
X432576D01*
X433887Y84317D01*
Y83005D01*
X432576Y81693D01*
X429952D01*
X428640Y83005D01*
X436511Y89564D02*
X441759D01*
Y88253D01*
X436511Y83005D01*
Y81693D01*
X444383D02*
Y86941D01*
X445695D01*
X447007Y85629D01*
Y81693D01*
Y85629D01*
X448318Y86941D01*
X449630Y85629D01*
Y81693D01*
X452254D02*
X454878D01*
X453566D01*
Y86941D01*
X452254D01*
X458814Y81693D02*
X461438D01*
X460126D01*
Y89564D01*
X458814D01*
X475869Y81693D02*
X473245Y84317D01*
Y86941D01*
X475869Y89564D01*
X479804Y81693D02*
X482428D01*
X481116D01*
Y89564D01*
X479804Y88253D01*
X486364Y81693D02*
Y86941D01*
X487676D01*
X488988Y85629D01*
Y81693D01*
Y85629D01*
X490300Y86941D01*
X491612Y85629D01*
Y81693D01*
X494235D02*
Y86941D01*
X495547D01*
X496859Y85629D01*
Y81693D01*
Y85629D01*
X498171Y86941D01*
X499483Y85629D01*
Y81693D01*
X502107D02*
X504731Y84317D01*
Y86941D01*
X502107Y89564D01*
X580144Y81693D02*
Y89564D01*
X584079D01*
X585391Y88253D01*
Y85629D01*
X584079Y84317D01*
X580144D01*
X588015Y89564D02*
X593263D01*
X590639D01*
Y81693D01*
X595887Y89564D02*
Y81693D01*
Y85629D01*
X601134D01*
Y89564D01*
Y81693D01*
X643750D02*
Y89564D01*
X647685D01*
X648997Y88253D01*
Y85629D01*
X647685Y84317D01*
X643750D01*
X646373D02*
X648997Y81693D01*
X652933D02*
X655557D01*
X656869Y83005D01*
Y85629D01*
X655557Y86941D01*
X652933D01*
X651621Y85629D01*
Y83005D01*
X652933Y81693D01*
X659492Y86941D02*
Y83005D01*
X660804Y81693D01*
X664740D01*
Y86941D01*
X667364Y81693D02*
Y86941D01*
X671300D01*
X672612Y85629D01*
Y81693D01*
X680483Y89564D02*
Y81693D01*
X676547D01*
X675235Y83005D01*
Y85629D01*
X676547Y86941D01*
X680483D01*
X321479Y65945D02*
Y73816D01*
X317543Y69881D01*
X322790D01*
X406337Y65945D02*
X408961D01*
X407649D01*
Y73816D01*
X406337Y72504D01*
X418145Y65945D02*
X412897D01*
X418145Y71193D01*
Y72504D01*
X416833Y73816D01*
X414209D01*
X412897Y72504D01*
X426016Y73816D02*
X420768D01*
Y69881D01*
X423392Y71193D01*
X424704D01*
X426016Y69881D01*
Y67257D01*
X424704Y65945D01*
X422080D01*
X420768Y67257D01*
X428640Y65945D02*
Y67257D01*
X429952D01*
Y65945D01*
X428640D01*
X435199Y67257D02*
X436511Y65945D01*
X439135D01*
X440447Y67257D01*
Y72504D01*
X439135Y73816D01*
X436511D01*
X435199Y72504D01*
Y71193D01*
X436511Y69881D01*
X440447D01*
X443071Y72504D02*
X444383Y73816D01*
X447007D01*
X448318Y72504D01*
Y71193D01*
X447007Y69881D01*
X448318Y68569D01*
Y67257D01*
X447007Y65945D01*
X444383D01*
X443071Y67257D01*
Y68569D01*
X444383Y69881D01*
X443071Y71193D01*
Y72504D01*
X444383Y69881D02*
X447007D01*
X454878Y65945D02*
Y73816D01*
X450942Y69881D01*
X456190D01*
X458814Y65945D02*
Y71193D01*
X460126D01*
X461438Y69881D01*
Y65945D01*
Y69881D01*
X462749Y71193D01*
X464061Y69881D01*
Y65945D01*
X466685D02*
X469309D01*
X467997D01*
Y71193D01*
X466685D01*
X473245Y65945D02*
X475869D01*
X474557D01*
Y73816D01*
X473245D01*
X490300Y65945D02*
X487676Y68569D01*
Y71193D01*
X490300Y73816D01*
X494235Y72504D02*
X495547Y73816D01*
X498171D01*
X499483Y72504D01*
Y71193D01*
X498171Y69881D01*
X496859D01*
X498171D01*
X499483Y68569D01*
Y67257D01*
X498171Y65945D01*
X495547D01*
X494235Y67257D01*
X502107Y65945D02*
Y67257D01*
X503419D01*
Y65945D01*
X502107D01*
X513914D02*
X508667D01*
X513914Y71193D01*
Y72504D01*
X512602Y73816D01*
X509978D01*
X508667Y72504D01*
X516538Y65945D02*
Y71193D01*
X517850D01*
X519162Y69881D01*
Y65945D01*
Y69881D01*
X520474Y71193D01*
X521786Y69881D01*
Y65945D01*
X524409D02*
Y71193D01*
X525721D01*
X527033Y69881D01*
Y65945D01*
Y69881D01*
X528345Y71193D01*
X529657Y69881D01*
Y65945D01*
X532281D02*
X534905Y68569D01*
Y71193D01*
X532281Y73816D01*
X580144Y65945D02*
Y73816D01*
X585391Y65945D01*
Y73816D01*
X588015Y65945D02*
Y73816D01*
X591951D01*
X593263Y72504D01*
Y69881D01*
X591951Y68569D01*
X588015D01*
X595887Y73816D02*
X601134D01*
X598511D01*
Y65945D01*
X603758Y73816D02*
Y65945D01*
Y69881D01*
X609006D01*
Y73816D01*
Y65945D01*
X643750D02*
Y73816D01*
X647685D01*
X648997Y72504D01*
Y69881D01*
X647685Y68569D01*
X643750D01*
X646373D02*
X648997Y65945D01*
X652933D02*
X655557D01*
X656869Y67257D01*
Y69881D01*
X655557Y71193D01*
X652933D01*
X651621Y69881D01*
Y67257D01*
X652933Y65945D01*
X659492Y71193D02*
Y67257D01*
X660804Y65945D01*
X664740D01*
Y71193D01*
X667364Y65945D02*
Y71193D01*
X671300D01*
X672612Y69881D01*
Y65945D01*
X680483Y73816D02*
Y65945D01*
X676547D01*
X675235Y67257D01*
Y69881D01*
X676547Y71193D01*
X680483D01*
X317543Y50197D02*
X320167D01*
X318855D01*
Y58068D01*
X317543Y56756D01*
X324102D02*
X325414Y58068D01*
X328038D01*
X329350Y56756D01*
Y51509D01*
X328038Y50197D01*
X325414D01*
X324102Y51509D01*
Y56756D01*
X331974Y50197D02*
X334598D01*
X333286D01*
Y58068D01*
X331974Y56756D01*
X346881Y58068D02*
X352129D01*
X349505D01*
Y50197D01*
X356065D02*
X358688D01*
X360000Y51509D01*
Y54133D01*
X358688Y55445D01*
X356065D01*
X354753Y54133D01*
Y51509D01*
X356065Y50197D01*
X363936Y56756D02*
Y55445D01*
X362624D01*
X365248D01*
X363936D01*
Y51509D01*
X365248Y50197D01*
X370496Y55445D02*
X373119D01*
X374431Y54133D01*
Y50197D01*
X370496D01*
X369184Y51509D01*
X370496Y52821D01*
X374431D01*
X377055Y50197D02*
X379679D01*
X378367D01*
Y58068D01*
X377055D01*
D14*
X1005906Y-155517D02*
Y-171260D01*
X1011153Y-166012D01*
X1016401Y-171260D01*
Y-155517D01*
X1021649Y-171260D02*
X1026896D01*
X1024272D01*
Y-160765D01*
X1021649D01*
X1034768Y-171260D02*
Y-160765D01*
X1037391D01*
X1040015Y-163388D01*
Y-171260D01*
Y-163388D01*
X1042639Y-160765D01*
X1045263Y-163388D01*
Y-171260D01*
X1050511Y-155517D02*
Y-166012D01*
X1055758Y-171260D01*
X1061006Y-166012D01*
Y-155517D01*
X1076749Y-158141D02*
X1074125Y-155517D01*
X1068877D01*
X1066253Y-158141D01*
Y-168636D01*
X1068877Y-171260D01*
X1074125D01*
X1076749Y-168636D01*
Y-163388D01*
X1071501D01*
X1360236Y-118771D02*
X1362860Y-116147D01*
X1368108D01*
X1370732Y-118771D01*
Y-129266D01*
X1368108Y-131890D01*
X1362860D01*
X1360236Y-129266D01*
Y-118771D01*
X1375979D02*
X1378603Y-116147D01*
X1383851D01*
X1386475Y-118771D01*
Y-129266D01*
X1383851Y-131890D01*
X1378603D01*
X1375979Y-129266D01*
Y-118771D01*
X1206034Y-131890D02*
X1196850D01*
X1206034Y-122706D01*
Y-120411D01*
X1203738Y-118115D01*
X1199146D01*
X1196850Y-120411D01*
X1210625Y-129594D02*
X1212921Y-131890D01*
X1217513D01*
X1219809Y-129594D01*
Y-120411D01*
X1217513Y-118115D01*
X1212921D01*
X1210625Y-120411D01*
Y-122706D01*
X1212921Y-125002D01*
X1219809D01*
X1224401Y-131890D02*
X1233584Y-122706D01*
X1238176Y-120411D02*
X1240471Y-118115D01*
X1245063D01*
X1247359Y-120411D01*
Y-129594D01*
X1245063Y-131890D01*
X1240471D01*
X1238176Y-129594D01*
Y-120411D01*
X1251951D02*
X1254247Y-118115D01*
X1258838D01*
X1261134Y-120411D01*
Y-122706D01*
X1258838Y-125002D01*
X1261134Y-127298D01*
Y-129594D01*
X1258838Y-131890D01*
X1254247D01*
X1251951Y-129594D01*
Y-127298D01*
X1254247Y-125002D01*
X1251951Y-122706D01*
Y-120411D01*
X1254247Y-125002D02*
X1258838D01*
X1265726Y-131890D02*
X1274909Y-122706D01*
X1288684Y-131890D02*
X1279501D01*
X1288684Y-122706D01*
Y-120411D01*
X1286388Y-118115D01*
X1281797D01*
X1279501Y-120411D01*
X1293276D02*
X1295572Y-118115D01*
X1300163D01*
X1302459Y-120411D01*
Y-129594D01*
X1300163Y-131890D01*
X1295572D01*
X1293276Y-129594D01*
Y-120411D01*
X1307051Y-131890D02*
X1311643D01*
X1309347D01*
Y-118115D01*
X1307051Y-120411D01*
X1327714Y-118115D02*
X1318530D01*
Y-125002D01*
X1323122Y-122706D01*
X1325418D01*
X1327714Y-125002D01*
Y-129594D01*
X1325418Y-131890D01*
X1320826D01*
X1318530Y-129594D01*
X1201440Y-37407D02*
X1190945D01*
Y-53150D01*
X1201440D01*
X1190945Y-45278D02*
X1196192D01*
X1217183Y-40031D02*
X1214559Y-37407D01*
X1209312D01*
X1206688Y-40031D01*
Y-42654D01*
X1209312Y-45278D01*
X1214559D01*
X1217183Y-47902D01*
Y-50526D01*
X1214559Y-53150D01*
X1209312D01*
X1206688Y-50526D01*
X1222431Y-53150D02*
Y-37407D01*
X1230302D01*
X1232926Y-40031D01*
Y-45278D01*
X1230302Y-47902D01*
X1222431D01*
X1238174Y-53150D02*
X1243421D01*
X1240798D01*
Y-37407D01*
X1238174Y-40031D01*
X1261788Y-53150D02*
X1251293D01*
X1261788Y-42654D01*
Y-40031D01*
X1259164Y-37407D01*
X1253917D01*
X1251293Y-40031D01*
X1267036Y-55773D02*
X1277531D01*
X1282779Y-37407D02*
Y-53150D01*
X1290650D01*
X1293274Y-50526D01*
Y-40031D01*
X1290650Y-37407D01*
X1282779D01*
X1309017D02*
X1298522D01*
Y-53150D01*
X1309017D01*
X1298522Y-45278D02*
X1303769D01*
X1314265Y-37407D02*
Y-47902D01*
X1319512Y-53150D01*
X1324760Y-47902D01*
Y-37407D01*
D41*
X1342520Y-110236D02*
Y-102365D01*
X1346455D01*
X1347767Y-103677D01*
Y-106300D01*
X1346455Y-107612D01*
X1342520D01*
X1345144D02*
X1347767Y-110236D01*
X1354327D02*
X1351703D01*
X1350391Y-108924D01*
Y-106300D01*
X1351703Y-104989D01*
X1354327D01*
X1355639Y-106300D01*
Y-107612D01*
X1350391D01*
X1358263Y-104989D02*
X1360886Y-110236D01*
X1363510Y-104989D01*
X988189Y-141735D02*
Y-149606D01*
X992125D01*
X993437Y-148294D01*
Y-143047D01*
X992125Y-141735D01*
X988189D01*
X999996Y-149606D02*
X997372D01*
X996060Y-148294D01*
Y-145671D01*
X997372Y-144359D01*
X999996D01*
X1001308Y-145671D01*
Y-146983D01*
X996060D01*
X1003932Y-149606D02*
X1007868D01*
X1009180Y-148294D01*
X1007868Y-146983D01*
X1005244D01*
X1003932Y-145671D01*
X1005244Y-144359D01*
X1009180D01*
X1014427Y-152230D02*
X1015739D01*
X1017051Y-150918D01*
Y-144359D01*
X1013115D01*
X1011803Y-145671D01*
Y-148294D01*
X1013115Y-149606D01*
X1017051D01*
X1019675D02*
X1022299D01*
X1020987D01*
Y-144359D01*
X1019675D01*
X1026235Y-149606D02*
Y-144359D01*
X1030170D01*
X1031482Y-145671D01*
Y-149606D01*
X1038042D02*
X1035418D01*
X1034106Y-148294D01*
Y-145671D01*
X1035418Y-144359D01*
X1038042D01*
X1039354Y-145671D01*
Y-146983D01*
X1034106D01*
X1041977Y-144359D02*
Y-149606D01*
Y-146983D01*
X1043289Y-145671D01*
X1044601Y-144359D01*
X1045913D01*
X1185039Y-23625D02*
Y-31496D01*
X1188975D01*
X1190287Y-30184D01*
Y-24937D01*
X1188975Y-23625D01*
X1185039D01*
X1194223Y-31496D02*
X1196847D01*
X1198158Y-30184D01*
Y-27560D01*
X1196847Y-26248D01*
X1194223D01*
X1192911Y-27560D01*
Y-30184D01*
X1194223Y-31496D01*
X1206030Y-26248D02*
X1202094D01*
X1200782Y-27560D01*
Y-30184D01*
X1202094Y-31496D01*
X1206030D01*
X1208654Y-26248D02*
Y-30184D01*
X1209966Y-31496D01*
X1213902D01*
Y-26248D01*
X1216525Y-31496D02*
Y-26248D01*
X1217837D01*
X1219149Y-27560D01*
Y-31496D01*
Y-27560D01*
X1220461Y-26248D01*
X1221773Y-27560D01*
Y-31496D01*
X1228333D02*
X1225709D01*
X1224397Y-30184D01*
Y-27560D01*
X1225709Y-26248D01*
X1228333D01*
X1229644Y-27560D01*
Y-28872D01*
X1224397D01*
X1232268Y-31496D02*
Y-26248D01*
X1236204D01*
X1237516Y-27560D01*
Y-31496D01*
X1241452Y-24937D02*
Y-26248D01*
X1240140D01*
X1242764D01*
X1241452D01*
Y-30184D01*
X1242764Y-31496D01*
X1185039Y-62995D02*
Y-70866D01*
X1190287D01*
X1194223Y-65618D02*
X1196847D01*
X1198158Y-66930D01*
Y-70866D01*
X1194223D01*
X1192911Y-69554D01*
X1194223Y-68242D01*
X1198158D01*
X1200782Y-65618D02*
Y-69554D01*
X1202094Y-70866D01*
X1206030D01*
Y-72178D01*
X1204718Y-73490D01*
X1203406D01*
X1206030Y-70866D02*
Y-65618D01*
X1212590Y-70866D02*
X1209966D01*
X1208654Y-69554D01*
Y-66930D01*
X1209966Y-65618D01*
X1212590D01*
X1213902Y-66930D01*
Y-68242D01*
X1208654D01*
X1216525Y-65618D02*
Y-70866D01*
Y-68242D01*
X1217837Y-66930D01*
X1219149Y-65618D01*
X1220461D01*
X1232268Y-70866D02*
Y-62995D01*
X1237516Y-70866D01*
Y-62995D01*
X1241452Y-65618D02*
X1244075D01*
X1245387Y-66930D01*
Y-70866D01*
X1241452D01*
X1240140Y-69554D01*
X1241452Y-68242D01*
X1245387D01*
X1248011Y-70866D02*
Y-65618D01*
X1249323D01*
X1250635Y-66930D01*
Y-70866D01*
Y-66930D01*
X1251947Y-65618D01*
X1253259Y-66930D01*
Y-70866D01*
X1259818D02*
X1257195D01*
X1255883Y-69554D01*
Y-66930D01*
X1257195Y-65618D01*
X1259818D01*
X1261130Y-66930D01*
Y-68242D01*
X1255883D01*
X1185039Y-102365D02*
Y-110236D01*
X1188975D01*
X1190287Y-108924D01*
Y-103677D01*
X1188975Y-102365D01*
X1185039D01*
X1194223Y-104989D02*
X1196847D01*
X1198158Y-106300D01*
Y-110236D01*
X1194223D01*
X1192911Y-108924D01*
X1194223Y-107612D01*
X1198158D01*
X1202094Y-103677D02*
Y-104989D01*
X1200782D01*
X1203406D01*
X1202094D01*
Y-108924D01*
X1203406Y-110236D01*
X1211278D02*
X1208654D01*
X1207342Y-108924D01*
Y-106300D01*
X1208654Y-104989D01*
X1211278D01*
X1212589Y-106300D01*
Y-107612D01*
X1207342D01*
X1185039Y-141735D02*
Y-149606D01*
X1188975D01*
X1190287Y-148294D01*
Y-143047D01*
X1188975Y-141735D01*
X1185039D01*
X1194223Y-149606D02*
X1196847D01*
X1198158Y-148294D01*
Y-145671D01*
X1196847Y-144359D01*
X1194223D01*
X1192911Y-145671D01*
Y-148294D01*
X1194223Y-149606D01*
X1206030Y-144359D02*
X1202094D01*
X1200782Y-145671D01*
Y-148294D01*
X1202094Y-149606D01*
X1206030D01*
X1208654Y-144359D02*
Y-148294D01*
X1209966Y-149606D01*
X1213902D01*
Y-144359D01*
X1216525Y-149606D02*
Y-144359D01*
X1217837D01*
X1219149Y-145671D01*
Y-149606D01*
Y-145671D01*
X1220461Y-144359D01*
X1221773Y-145671D01*
Y-149606D01*
X1228333D02*
X1225709D01*
X1224397Y-148294D01*
Y-145671D01*
X1225709Y-144359D01*
X1228333D01*
X1229644Y-145671D01*
Y-146983D01*
X1224397D01*
X1232268Y-149606D02*
Y-144359D01*
X1236204D01*
X1237516Y-145671D01*
Y-149606D01*
X1241452Y-143047D02*
Y-144359D01*
X1240140D01*
X1242764D01*
X1241452D01*
Y-148294D01*
X1242764Y-149606D01*
D55*
X0Y-8268D02*
Y0D01*
X11811Y-8268D02*
Y591D01*
Y-7874D02*
X21811D01*
X-10000D02*
X0D01*
X11811D02*
X17811Y-9874D01*
X11811Y-7874D02*
X17811Y-5874D01*
X-6000D02*
X0Y-7874D01*
X-6000Y-9874D02*
X0Y-7874D01*
X-16142Y11811D02*
X591D01*
X-16142Y0D02*
X0D01*
X-15748Y-10000D02*
Y0D01*
Y11811D02*
Y21811D01*
X-17748Y-6000D02*
X-15748Y0D01*
X-13748Y-6000D01*
X-15748Y11811D02*
X-13748Y17811D01*
X-17748D02*
X-15748Y11811D01*
X259937Y148622D02*
G03*
X259937Y148622I-3000J0D01*
G01*
D89*
X-6691Y-21271D02*
X-5691Y-20271D01*
X-3692D01*
X-2692Y-21271D01*
Y-22270D01*
X-3692Y-23270D01*
X-4692D01*
X-3692D01*
X-2692Y-24270D01*
Y-25269D01*
X-3692Y-26269D01*
X-5691D01*
X-6691Y-25269D01*
X307Y-27268D02*
X1307Y-26269D01*
Y-25269D01*
X307D01*
Y-26269D01*
X1307D01*
X307Y-27268D01*
X-693Y-28268D01*
X5305Y-21271D02*
X6305Y-20271D01*
X8304D01*
X9304Y-21271D01*
Y-25269D01*
X8304Y-26269D01*
X6305D01*
X5305Y-25269D01*
Y-21271D01*
X11303D02*
X12303Y-20271D01*
X14302D01*
X15302Y-21271D01*
Y-25269D01*
X14302Y-26269D01*
X12303D01*
X11303Y-25269D01*
Y-21271D01*
X-29944Y-6691D02*
X-30944Y-5691D01*
Y-3692D01*
X-29944Y-2692D01*
X-28944D01*
X-27944Y-3692D01*
Y-4692D01*
Y-3692D01*
X-26945Y-2692D01*
X-25945D01*
X-24945Y-3692D01*
Y-5691D01*
X-25945Y-6691D01*
X-23946Y307D02*
X-24945Y1307D01*
X-25945D01*
Y307D01*
X-24945D01*
Y1307D01*
X-23946Y307D01*
X-22946Y-693D01*
X-29944Y5305D02*
X-30944Y6305D01*
Y8304D01*
X-29944Y9304D01*
X-25945D01*
X-24945Y8304D01*
Y6305D01*
X-25945Y5305D01*
X-29944D01*
Y11303D02*
X-30944Y12303D01*
Y14302D01*
X-29944Y15302D01*
X-25945D01*
X-24945Y14302D01*
Y12303D01*
X-25945Y11303D01*
X-29944D01*
D90*
X78606Y77614D02*
Y79214D01*
X80206D01*
Y77614D01*
X78606D01*
X86405D02*
Y79214D01*
X88006D01*
Y77614D01*
X86405D01*
X94205D02*
Y79214D01*
X95806D01*
Y77614D01*
X94205D01*
X102206D02*
Y79214D01*
X103805D01*
Y77614D01*
X102206D01*
X110005D02*
Y79214D01*
X111606D01*
Y77614D01*
X110005D01*
X118006D02*
Y79214D01*
X119606D01*
Y77614D01*
X118006D01*
X55795Y93688D02*
Y95288D01*
X57394D01*
Y93688D01*
X55795D01*
X55795Y101562D02*
Y103162D01*
X57394D01*
Y101562D01*
X55795D01*
Y109436D02*
Y111036D01*
X57394D01*
Y109436D01*
X55795D01*
Y117310D02*
Y118910D01*
X57394D01*
Y117310D01*
X55795D01*
Y125184D02*
Y126784D01*
X57394D01*
Y125184D01*
X55795D01*
X55795Y133058D02*
Y134658D01*
X57394D01*
Y133058D01*
X55795D01*
X55795Y140932D02*
Y142532D01*
X57394D01*
Y140932D01*
X55795D01*
X55795Y148806D02*
Y150406D01*
X57394D01*
Y148806D01*
X55795D01*
X139456D02*
Y150406D01*
X141056D01*
Y148806D01*
X139456D01*
Y140932D02*
Y142532D01*
X141056D01*
Y140932D01*
X139456D01*
Y133058D02*
Y134658D01*
X141056D01*
Y133058D01*
X139456D01*
Y125184D02*
Y126784D01*
X141056D01*
Y125184D01*
X139456D01*
Y117310D02*
Y118910D01*
X141056D01*
Y117310D01*
X139456D01*
Y109436D02*
Y111036D01*
X141056D01*
Y109436D01*
X139456D01*
Y101562D02*
Y103162D01*
X141056D01*
Y101562D01*
X139456D01*
Y93688D02*
Y95288D01*
X141056D01*
Y93688D01*
X139456D01*
X64213Y10027D02*
X63413Y11627D01*
X65013D01*
X64213Y10027D01*
X19094Y48491D02*
X19494Y48891D01*
X19895D01*
X19494Y49291D01*
X19895Y49691D01*
X19494D01*
X19094Y50091D01*
X18695Y49691D01*
X18294D01*
X18695Y49291D01*
X18294Y48891D01*
X18695D01*
X19094Y48491D01*
X132638Y10027D02*
X131838Y11627D01*
X133438D01*
X132638Y10027D01*
X142638D02*
X141838Y11627D01*
X143438D01*
X142638Y10027D01*
X152638D02*
X151838Y11627D01*
X153438D01*
X152638Y10027D01*
X162638D02*
X161838Y11627D01*
X163438D01*
X162638Y10027D01*
X83425Y10027D02*
X82625Y11627D01*
X84225D01*
X83425Y10027D01*
X93425D02*
X92625Y11627D01*
X94225D01*
X93425Y10027D01*
X103425D02*
X102625Y11627D01*
X104225D01*
X103425Y10027D01*
X113425D02*
X112625Y11627D01*
X114225D01*
X113425Y10027D01*
X181090Y34948D02*
X181490Y35748D01*
X181090Y36548D01*
X181890Y36148D01*
X182690Y36548D01*
X182290Y35748D01*
X182690Y34948D01*
X181890Y35348D01*
X181090Y34948D01*
Y44948D02*
X181490Y45748D01*
X181090Y46548D01*
X181890Y46148D01*
X182690Y46548D01*
X182290Y45748D01*
X182690Y44948D01*
X181890Y45348D01*
X181090Y44948D01*
Y54948D02*
X181490Y55748D01*
X181090Y56548D01*
X181890Y56148D01*
X182690Y56548D01*
X182290Y55748D01*
X182690Y54948D01*
X181890Y55348D01*
X181090Y54948D01*
Y64948D02*
X181490Y65748D01*
X181090Y66548D01*
X181890Y66148D01*
X182690Y66548D01*
X182290Y65748D01*
X182690Y64948D01*
X181890Y65348D01*
X181090Y64948D01*
X54213Y10027D02*
X53413Y11627D01*
X55013D01*
X54213Y10027D01*
X44213D02*
X43413Y11627D01*
X45013D01*
X44213Y10027D01*
X34213D02*
X33413Y11627D01*
X35013D01*
X34213Y10027D01*
X181090Y77940D02*
X181490Y78740D01*
X181090Y79540D01*
X181890Y79140D01*
X182690Y79540D01*
X182290Y78740D01*
X182690Y77940D01*
X181890Y78340D01*
X181090Y77940D01*
Y87940D02*
X181490Y88740D01*
X181090Y89540D01*
X181890Y89140D01*
X182690Y89540D01*
X182290Y88740D01*
X182690Y87940D01*
X181890Y88340D01*
X181090Y87940D01*
Y97940D02*
X181490Y98740D01*
X181090Y99540D01*
X181890Y99140D01*
X182690Y99540D01*
X182290Y98740D01*
X182690Y97940D01*
X181890Y98340D01*
X181090Y97940D01*
Y107940D02*
X181490Y108740D01*
X181090Y109540D01*
X181890Y109140D01*
X182690Y109540D01*
X182290Y108740D01*
X182690Y107940D01*
X181890Y108340D01*
X181090Y107940D01*
Y117940D02*
X181490Y118740D01*
X181090Y119540D01*
X181890Y119140D01*
X182690Y119540D01*
X182290Y118740D01*
X182690Y117940D01*
X181890Y118340D01*
X181090Y117940D01*
Y127940D02*
X181490Y128740D01*
X181090Y129540D01*
X181890Y129140D01*
X182690Y129540D01*
X182290Y128740D01*
X182690Y127940D01*
X181890Y128340D01*
X181090Y127940D01*
X11411Y149206D02*
Y148806D01*
X12211D01*
Y149206D01*
X12611D01*
Y150006D01*
X12211D01*
Y150406D01*
X11411D01*
Y150006D01*
X11011D01*
Y149206D01*
X11411D01*
Y11411D02*
Y11011D01*
X12211D01*
Y11411D01*
X12611D01*
Y12211D01*
X12211D01*
Y12611D01*
X11411D01*
Y12211D01*
X11011D01*
Y11411D01*
X11411D01*
X184639D02*
Y11011D01*
X185439D01*
Y11411D01*
X185839D01*
Y12211D01*
X185439D01*
Y12611D01*
X184639D01*
Y12211D01*
X184239D01*
Y11411D01*
X184639D01*
Y149206D02*
Y148806D01*
X185439D01*
Y149206D01*
X185839D01*
Y150006D01*
X185439D01*
Y150406D01*
X184639D01*
Y150006D01*
X184239D01*
Y149206D01*
X184639D01*
X19094Y38491D02*
X19494Y38891D01*
X19895D01*
X19494Y39291D01*
X19895Y39691D01*
X19494D01*
X19094Y40091D01*
X18695Y39691D01*
X18294D01*
X18695Y39291D01*
X18294Y38891D01*
X18695D01*
X19094Y38491D01*
X22165Y126365D02*
X21365Y127965D01*
X22965D01*
X22165Y126365D01*
X32165D02*
X31365Y127965D01*
X32965D01*
X32165Y126365D01*
X64554Y45460D02*
X64954D01*
X65354Y45860D01*
X65754Y45460D01*
X66154D01*
Y45860D01*
X65754Y46260D01*
X66154Y46660D01*
Y47060D01*
X65754D01*
X65354Y46660D01*
X64954Y47060D01*
X64554D01*
Y46660D01*
X64954Y46260D01*
X64554Y45860D01*
Y45460D01*
Y37980D02*
X64954D01*
X65354Y38379D01*
X65754Y37980D01*
X66154D01*
Y38379D01*
X65754Y38780D01*
X66154Y39180D01*
Y39579D01*
X65754D01*
X65354Y39180D01*
X64954Y39579D01*
X64554D01*
Y39180D01*
X64954Y38780D01*
X64554Y38379D01*
Y37980D01*
X12979Y120276D02*
X13780Y121076D01*
X14580Y120276D01*
X13780Y119476D01*
X12979Y120276D01*
X160027Y56890D02*
X160827Y57690D01*
X161627Y56890D01*
X160827Y56090D01*
X160027Y56890D01*
X41720Y103150D02*
X42520Y103950D01*
X43320Y103150D01*
X42520Y102350D01*
X41720Y103150D01*
X43688Y96063D02*
X44488Y96863D01*
X45288Y96063D01*
X44488Y95263D01*
X43688Y96063D01*
X49200Y90551D02*
X50000Y91351D01*
X50800Y90551D01*
X50000Y89751D01*
X49200Y90551D01*
X87783Y33071D02*
X88583Y33871D01*
X89383Y33071D01*
X88583Y32271D01*
X87783Y33071D01*
X79909Y31496D02*
X80709Y32296D01*
X81509Y31496D01*
X80709Y30696D01*
X79909Y31496D01*
X35027Y56693D02*
X35827Y57493D01*
X36627Y56693D01*
X35827Y55893D01*
X35027Y56693D01*
X38176Y42913D02*
X38976Y43713D01*
X39776Y42913D01*
X38976Y42113D01*
X38176Y42913D01*
X32271Y33465D02*
X33071Y34265D01*
X33871Y33465D01*
X33071Y32665D01*
X32271Y33465D01*
X44082Y40551D02*
X44882Y41351D01*
X45682Y40551D01*
X44882Y39751D01*
X44082Y40551D01*
X55106Y54724D02*
X55905Y55524D01*
X56705Y54724D01*
X55905Y53924D01*
X55106Y54724D01*
Y58661D02*
X55905Y59461D01*
X56705Y58661D01*
X55905Y57861D01*
X55106Y58661D01*
Y71260D02*
X55905Y72060D01*
X56705Y71260D01*
X55905Y70460D01*
X55106Y71260D01*
X52350Y75197D02*
X53150Y75997D01*
X53950Y75197D01*
X53150Y74397D01*
X52350Y75197D01*
X56287D02*
X57087Y75997D01*
X57887Y75197D01*
X57087Y74397D01*
X56287Y75197D01*
X22428Y70866D02*
X23228Y71666D01*
X24028Y70866D01*
X23228Y70066D01*
X22428Y70866D01*
X50775Y119291D02*
X51575Y120091D01*
X52375Y119291D01*
X51575Y118491D01*
X50775Y119291D01*
Y114567D02*
X51575Y115367D01*
X52375Y114567D01*
X51575Y113767D01*
X50775Y114567D01*
X40145Y149606D02*
X40945Y150406D01*
X41745Y149606D01*
X40945Y148806D01*
X40145Y149606D01*
X160421Y129823D02*
X161221Y130623D01*
X162021Y129823D01*
X161221Y129023D01*
X160421Y129823D01*
X145263Y118110D02*
X146063Y118910D01*
X146863Y118110D01*
X146063Y117310D01*
X145263Y118110D01*
X168491Y84646D02*
X169291Y85446D01*
X170091Y84646D01*
X169291Y83846D01*
X168491Y84646D01*
X33452Y85827D02*
X34252Y86627D01*
X35052Y85827D01*
X34252Y85027D01*
X33452Y85827D01*
Y89370D02*
X34252Y90170D01*
X35052Y89370D01*
X34252Y88570D01*
X33452Y89370D01*
X18885Y89961D02*
X19685Y90761D01*
X20485Y89961D01*
X19685Y89161D01*
X18885Y89961D01*
X12979Y89961D02*
X13780Y90761D01*
X14580Y89961D01*
X13780Y89161D01*
X12979Y89961D01*
X46444Y82480D02*
X47244Y83280D01*
X48044Y82480D01*
X47244Y81680D01*
X46444Y82480D01*
X30893Y82480D02*
X31693Y83280D01*
X32493Y82480D01*
X31693Y81680D01*
X30893Y82480D01*
X66129Y63878D02*
X66929Y64678D01*
X67729Y63878D01*
X66929Y63078D01*
X66129Y63878D01*
X135519Y86614D02*
X136319Y87414D01*
X137119Y86614D01*
X136319Y85814D01*
X135519Y86614D01*
X91228Y68898D02*
X92028Y69698D01*
X92828Y68898D01*
X92028Y68098D01*
X91228Y68898D01*
X86798Y72835D02*
X87598Y73635D01*
X88398Y72835D01*
X87598Y72035D01*
X86798Y72835D01*
X95657Y70866D02*
X96457Y71666D01*
X97257Y70866D01*
X96457Y70066D01*
X95657Y70866D01*
X155499Y91732D02*
X156299Y92532D01*
X157099Y91732D01*
X156299Y90932D01*
X155499Y91732D01*
X164161D02*
X164961Y92532D01*
X165761Y91732D01*
X164961Y90932D01*
X164161Y91732D01*
X31484Y147638D02*
X32283Y148438D01*
X33084Y147638D01*
X32283Y146838D01*
X31484Y147638D01*
X163767D02*
X164567Y148438D01*
X165367Y147638D01*
X164567Y146838D01*
X163767Y147638D01*
X109141Y29626D02*
X109941Y30426D01*
X110741Y29626D01*
X109941Y28826D01*
X109141Y29626D01*
X84633Y67323D02*
X85433Y68123D01*
X86233Y67323D01*
X85433Y66523D01*
X84633Y67323D01*
X69672Y52756D02*
X70472Y53556D01*
X71272Y52756D01*
X70472Y51956D01*
X69672Y52756D01*
X80696Y42913D02*
X81496Y43713D01*
X82296Y42913D01*
X81496Y42113D01*
X80696Y42913D01*
X157468Y147638D02*
X158268Y148438D01*
X159068Y147638D01*
X158268Y146838D01*
X157468Y147638D01*
X18491Y75197D02*
X19291Y75997D01*
X20091Y75197D01*
X19291Y74397D01*
X18491Y75197D01*
X253937Y180118D02*
X256937Y183118D01*
X259937Y180118D01*
X256937Y177118D01*
X253937Y180118D01*
Y161370D02*
X255437D01*
X256937Y162870D01*
X258437Y161370D01*
X259937D01*
Y162870D01*
X258437Y164370D01*
X259937Y165870D01*
Y167370D01*
X258437D01*
X256937Y165870D01*
X255437Y167370D01*
X253937D01*
Y165870D01*
X255437Y164370D01*
X253937Y162870D01*
Y161370D01*
X256937Y129874D02*
X253937Y135874D01*
X259937D01*
X256937Y129874D01*
X253937Y114126D02*
X255437Y117126D01*
X253937Y120126D01*
X256937Y118626D01*
X259937Y120126D01*
X258437Y117126D01*
X259937Y114126D01*
X256937Y115626D01*
X253937Y114126D01*
Y98378D02*
Y104378D01*
X259937D01*
Y98378D01*
X253937D01*
X256937Y82630D02*
X258437Y84130D01*
X259937D01*
X258437Y85630D01*
X259937Y87130D01*
X258437D01*
X256937Y88630D01*
X255437Y87130D01*
X253937D01*
X255437Y85630D01*
X253937Y84130D01*
X255437D01*
X256937Y82630D01*
X255437Y68382D02*
Y66882D01*
X258437D01*
Y68382D01*
X259937D01*
Y71382D01*
X258437D01*
Y72882D01*
X255437D01*
Y71382D01*
X253937D01*
Y68382D01*
X255437D01*
D91*
X148595Y41181D02*
G03*
X148595Y41181I-800J0D01*
G01*
Y61181D02*
G03*
X148595Y61181I-800J0D01*
G01*
X128595D02*
G03*
X128595Y61181I-800J0D01*
G01*
D92*
X260234Y202950D02*
X258660Y204525D01*
X255511D01*
X253937Y202950D01*
Y201376D01*
X255511Y199802D01*
X258660D01*
X260234Y198227D01*
Y196653D01*
X258660Y195079D01*
X255511D01*
X253937Y196653D01*
X263383Y201376D02*
Y196653D01*
X264957Y195079D01*
X269680D01*
Y193505D01*
X268106Y191930D01*
X266531D01*
X269680Y195079D02*
Y201376D01*
X272829Y195079D02*
Y201376D01*
X274403D01*
X275977Y199802D01*
Y195079D01*
Y199802D01*
X277551Y201376D01*
X279126Y199802D01*
Y195079D01*
X282274Y204525D02*
Y195079D01*
X286997D01*
X288572Y196653D01*
Y198227D01*
Y199802D01*
X286997Y201376D01*
X282274D01*
X293294Y195079D02*
X296443D01*
X298017Y196653D01*
Y199802D01*
X296443Y201376D01*
X293294D01*
X291720Y199802D01*
Y196653D01*
X293294Y195079D01*
X301166D02*
X304314D01*
X302740D01*
Y204525D01*
X301166D01*
X317543D02*
Y195079D01*
Y199802D01*
X323840D01*
Y204525D01*
Y195079D01*
X326989D02*
X330137D01*
X328563D01*
Y201376D01*
X326989D01*
X336434Y202950D02*
Y201376D01*
X334860D01*
X338009D01*
X336434D01*
Y196653D01*
X338009Y195079D01*
X358474Y202950D02*
X356900Y204525D01*
X353752D01*
X352177Y202950D01*
Y196653D01*
X353752Y195079D01*
X356900D01*
X358474Y196653D01*
X363197Y195079D02*
X366346D01*
X367920Y196653D01*
Y199802D01*
X366346Y201376D01*
X363197D01*
X361623Y199802D01*
Y196653D01*
X363197Y195079D01*
X371069Y201376D02*
Y196653D01*
X372643Y195079D01*
X377366D01*
Y201376D01*
X380515Y195079D02*
Y201376D01*
X385238D01*
X386812Y199802D01*
Y195079D01*
X391535Y202950D02*
Y201376D01*
X389960D01*
X393109D01*
X391535D01*
Y196653D01*
X393109Y195079D01*
X412635Y204525D02*
X406337D01*
Y199802D01*
X409486D01*
X406337D01*
Y195079D01*
X415783D02*
X418932D01*
X417357D01*
Y201376D01*
X415783D01*
X423655Y195079D02*
Y201376D01*
X428377D01*
X429952Y199802D01*
Y195079D01*
X433100D02*
X436249D01*
X434675D01*
Y201376D01*
X433100D01*
X440972Y195079D02*
X445695D01*
X447269Y196653D01*
X445695Y198227D01*
X442546D01*
X440972Y199802D01*
X442546Y201376D01*
X447269D01*
X450418Y204525D02*
Y195079D01*
Y199802D01*
X451992Y201376D01*
X455140D01*
X456715Y199802D01*
Y195079D01*
X464586D02*
X461438D01*
X459863Y196653D01*
Y199802D01*
X461438Y201376D01*
X464586D01*
X466160Y199802D01*
Y198227D01*
X459863D01*
X475606Y204525D02*
Y195079D01*
X470883D01*
X469309Y196653D01*
Y199802D01*
X470883Y201376D01*
X475606D01*
X488201Y204525D02*
Y195079D01*
Y199802D01*
X494498D01*
Y204525D01*
Y195079D01*
X499221D02*
X502369D01*
X503944Y196653D01*
Y199802D01*
X502369Y201376D01*
X499221D01*
X497646Y199802D01*
Y196653D01*
X499221Y195079D01*
X507092D02*
X510241D01*
X508666D01*
Y204525D01*
X507092D01*
X519687Y195079D02*
X516538D01*
X514964Y196653D01*
Y199802D01*
X516538Y201376D01*
X519687D01*
X521261Y199802D01*
Y198227D01*
X514964D01*
X540152Y202950D02*
X538578Y204525D01*
X535429D01*
X533855Y202950D01*
Y201376D01*
X535429Y199802D01*
X538578D01*
X540152Y198227D01*
Y196653D01*
X538578Y195079D01*
X535429D01*
X533855Y196653D01*
X543301Y195079D02*
X546450D01*
X544875D01*
Y201376D01*
X543301D01*
X551172D02*
X557470D01*
X551172Y195079D01*
X557470D01*
X565341D02*
X562192D01*
X560618Y196653D01*
Y199802D01*
X562192Y201376D01*
X565341D01*
X566915Y199802D01*
Y198227D01*
X560618D01*
X580144Y195079D02*
Y204525D01*
X584867D01*
X586441Y202950D01*
Y199802D01*
X584867Y198227D01*
X580144D01*
X589590Y195079D02*
X592738D01*
X591164D01*
Y204525D01*
X589590D01*
X599035Y201376D02*
X602184D01*
X603758Y199802D01*
Y195079D01*
X599035D01*
X597461Y196653D01*
X599035Y198227D01*
X603758D01*
X608481Y202950D02*
Y201376D01*
X606907D01*
X610055D01*
X608481D01*
Y196653D01*
X610055Y195079D01*
X619501D02*
X616353D01*
X614778Y196653D01*
Y199802D01*
X616353Y201376D01*
X619501D01*
X621075Y199802D01*
Y198227D01*
X614778D01*
X630521Y204525D02*
Y195079D01*
X625798D01*
X624224Y196653D01*
Y199802D01*
X625798Y201376D01*
X630521D01*
X643750Y204525D02*
Y195079D01*
Y199802D01*
X650047D01*
Y204525D01*
Y195079D01*
X654770D02*
X657918D01*
X659492Y196653D01*
Y199802D01*
X657918Y201376D01*
X654770D01*
X653195Y199802D01*
Y196653D01*
X654770Y195079D01*
X662641D02*
X665790D01*
X664215D01*
Y204525D01*
X662641D01*
X675235Y195079D02*
X672087D01*
X670512Y196653D01*
Y199802D01*
X672087Y201376D01*
X675235D01*
X676810Y199802D01*
Y198227D01*
X670512D01*
X689404Y204525D02*
X695701D01*
X692553D01*
Y195079D01*
X698850Y201376D02*
Y196653D01*
X700424Y195079D01*
X705147D01*
Y193505D01*
X703573Y191930D01*
X701998D01*
X705147Y195079D02*
Y201376D01*
X708296Y191930D02*
Y201376D01*
X713018D01*
X714593Y199802D01*
Y196653D01*
X713018Y195079D01*
X708296D01*
X722464D02*
X719316D01*
X717741Y196653D01*
Y199802D01*
X719316Y201376D01*
X722464D01*
X724039Y199802D01*
Y198227D01*
X717741D01*
X243228Y209252D02*
X737267D01*
X243228Y187992D02*
X737267D01*
X243228Y209252D02*
Y46260D01*
X737267Y209252D02*
Y46260D01*
X312189Y209252D02*
Y46260D01*
X400983Y209252D02*
Y46260D01*
X574789Y209252D02*
Y46260D01*
X638395Y209252D02*
Y46260D01*
X243228Y62008D02*
X737267D01*
X243228Y46260D02*
X737267D01*
M02*
